%FSLAX45Y45*%
G04 Gerber Fmt 4.5, Leading zero omitted, Abs format (unit mm)*
G04 Created by KiCad (PCBNEW (6.0.6)) date 2022-11-08 17:25:59*
%MOMM*%
%LPD*%
G01*
G04 APERTURE LIST*
%TA.AperFunction,Profile*%
%ADD10C,3.213100*%
%TD*%
%TA.AperFunction,Profile*%
%ADD11C,0.025400*%
%TD*%
%ADD12C,0.200000*%
%ADD13C,0.150000*%
%ADD14C,0.180000*%
G04 APERTURE END LIST*
D10*
X11351305Y-13980750D02*
G75*
G03*
X11351305Y-13980750I-160655J0D01*
G01*
X11351305Y-12837750D02*
G75*
G03*
X11351305Y-12837750I-160655J0D01*
G01*
D11*
X6212250Y-9662750D02*
X11927250Y-9662750D01*
X11927250Y-9662750D02*
X11927250Y-15809550D01*
X11927250Y-15809550D02*
X6212250Y-15809550D01*
X6212250Y-15809550D02*
X6212250Y-9662750D01*
D12*
D13*
X8714150Y-10284750D02*
X8864150Y-10434750D01*
X8864150Y-10284750D02*
X8714150Y-10434750D01*
X9199150Y-10284750D02*
X9349150Y-10434750D01*
X9349150Y-10284750D02*
X9199150Y-10434750D01*
D14*
X8849150Y-10056750D02*
G75*
G03*
X8849150Y-10056750I-90000J0D01*
G01*
X9394150Y-10056750D02*
G75*
G03*
X9394150Y-10056750I-90000J0D01*
G01*
D12*
X6468599Y-16121296D02*
X6468599Y-15921296D01*
X6516218Y-15921296D01*
X6544789Y-15930820D01*
X6563837Y-15949868D01*
X6573361Y-15968915D01*
X6582885Y-16007010D01*
X6582885Y-16035582D01*
X6573361Y-16073677D01*
X6563837Y-16092725D01*
X6544789Y-16111772D01*
X6516218Y-16121296D01*
X6468599Y-16121296D01*
X6668599Y-16121296D02*
X6668599Y-15987963D01*
X6668599Y-16026058D02*
X6678123Y-16007010D01*
X6687647Y-15997487D01*
X6706694Y-15987963D01*
X6725742Y-15987963D01*
X6792408Y-16121296D02*
X6792408Y-15987963D01*
X6792408Y-15921296D02*
X6782885Y-15930820D01*
X6792408Y-15940344D01*
X6801932Y-15930820D01*
X6792408Y-15921296D01*
X6792408Y-15940344D01*
X6916218Y-16121296D02*
X6897170Y-16111772D01*
X6887647Y-16092725D01*
X6887647Y-15921296D01*
X7020980Y-16121296D02*
X7001932Y-16111772D01*
X6992408Y-16092725D01*
X6992408Y-15921296D01*
X7249551Y-16121296D02*
X7249551Y-15921296D01*
X7316218Y-16064153D01*
X7382885Y-15921296D01*
X7382885Y-16121296D01*
X7563837Y-16121296D02*
X7563837Y-16016534D01*
X7554313Y-15997487D01*
X7535266Y-15987963D01*
X7497170Y-15987963D01*
X7478123Y-15997487D01*
X7563837Y-16111772D02*
X7544789Y-16121296D01*
X7497170Y-16121296D01*
X7478123Y-16111772D01*
X7468599Y-16092725D01*
X7468599Y-16073677D01*
X7478123Y-16054629D01*
X7497170Y-16045106D01*
X7544789Y-16045106D01*
X7563837Y-16035582D01*
X7659075Y-15987963D02*
X7659075Y-16187963D01*
X7659075Y-15997487D02*
X7678123Y-15987963D01*
X7716218Y-15987963D01*
X7735266Y-15997487D01*
X7744789Y-16007010D01*
X7754313Y-16026058D01*
X7754313Y-16083201D01*
X7744789Y-16102248D01*
X7735266Y-16111772D01*
X7716218Y-16121296D01*
X7678123Y-16121296D01*
X7659075Y-16111772D01*
X7840028Y-16102248D02*
X7849551Y-16111772D01*
X7840028Y-16121296D01*
X7830504Y-16111772D01*
X7840028Y-16102248D01*
X7840028Y-16121296D01*
X7840028Y-15997487D02*
X7849551Y-16007010D01*
X7840028Y-16016534D01*
X7830504Y-16007010D01*
X7840028Y-15997487D01*
X7840028Y-16016534D01*
D13*
X6060980Y-16375820D02*
X6210980Y-16525820D01*
X6210980Y-16375820D02*
X6060980Y-16525820D01*
D12*
X6573361Y-16541296D02*
X6459075Y-16541296D01*
X6516218Y-16541296D02*
X6516218Y-16341296D01*
X6497170Y-16369868D01*
X6478123Y-16388915D01*
X6459075Y-16398439D01*
X6659075Y-16522248D02*
X6668599Y-16531772D01*
X6659075Y-16541296D01*
X6649551Y-16531772D01*
X6659075Y-16522248D01*
X6659075Y-16541296D01*
X6849551Y-16341296D02*
X6754313Y-16341296D01*
X6744789Y-16436534D01*
X6754313Y-16427010D01*
X6773361Y-16417487D01*
X6820980Y-16417487D01*
X6840028Y-16427010D01*
X6849551Y-16436534D01*
X6859075Y-16455582D01*
X6859075Y-16503201D01*
X6849551Y-16522248D01*
X6840028Y-16531772D01*
X6820980Y-16541296D01*
X6773361Y-16541296D01*
X6754313Y-16531772D01*
X6744789Y-16522248D01*
X6982885Y-16341296D02*
X7001932Y-16341296D01*
X7020980Y-16350820D01*
X7030504Y-16360344D01*
X7040028Y-16379391D01*
X7049551Y-16417487D01*
X7049551Y-16465106D01*
X7040028Y-16503201D01*
X7030504Y-16522248D01*
X7020980Y-16531772D01*
X7001932Y-16541296D01*
X6982885Y-16541296D01*
X6963837Y-16531772D01*
X6954313Y-16522248D01*
X6944789Y-16503201D01*
X6935266Y-16465106D01*
X6935266Y-16417487D01*
X6944789Y-16379391D01*
X6954313Y-16360344D01*
X6963837Y-16350820D01*
X6982885Y-16341296D01*
X7173361Y-16341296D02*
X7192408Y-16341296D01*
X7211456Y-16350820D01*
X7220980Y-16360344D01*
X7230504Y-16379391D01*
X7240028Y-16417487D01*
X7240028Y-16465106D01*
X7230504Y-16503201D01*
X7220980Y-16522248D01*
X7211456Y-16531772D01*
X7192408Y-16541296D01*
X7173361Y-16541296D01*
X7154313Y-16531772D01*
X7144789Y-16522248D01*
X7135266Y-16503201D01*
X7125742Y-16465106D01*
X7125742Y-16417487D01*
X7135266Y-16379391D01*
X7144789Y-16360344D01*
X7154313Y-16350820D01*
X7173361Y-16341296D01*
X7325742Y-16541296D02*
X7325742Y-16407963D01*
X7325742Y-16427010D02*
X7335266Y-16417487D01*
X7354313Y-16407963D01*
X7382885Y-16407963D01*
X7401932Y-16417487D01*
X7411456Y-16436534D01*
X7411456Y-16541296D01*
X7411456Y-16436534D02*
X7420980Y-16417487D01*
X7440028Y-16407963D01*
X7468599Y-16407963D01*
X7487647Y-16417487D01*
X7497170Y-16436534D01*
X7497170Y-16541296D01*
X7592408Y-16541296D02*
X7592408Y-16407963D01*
X7592408Y-16427010D02*
X7601932Y-16417487D01*
X7620980Y-16407963D01*
X7649551Y-16407963D01*
X7668599Y-16417487D01*
X7678123Y-16436534D01*
X7678123Y-16541296D01*
X7678123Y-16436534D02*
X7687647Y-16417487D01*
X7706694Y-16407963D01*
X7735266Y-16407963D01*
X7754313Y-16417487D01*
X7763837Y-16436534D01*
X7763837Y-16541296D01*
X8154313Y-16331772D02*
X7982885Y-16588915D01*
X8411456Y-16341296D02*
X8430504Y-16341296D01*
X8449551Y-16350820D01*
X8459075Y-16360344D01*
X8468599Y-16379391D01*
X8478123Y-16417487D01*
X8478123Y-16465106D01*
X8468599Y-16503201D01*
X8459075Y-16522248D01*
X8449551Y-16531772D01*
X8430504Y-16541296D01*
X8411456Y-16541296D01*
X8392409Y-16531772D01*
X8382885Y-16522248D01*
X8373361Y-16503201D01*
X8363837Y-16465106D01*
X8363837Y-16417487D01*
X8373361Y-16379391D01*
X8382885Y-16360344D01*
X8392409Y-16350820D01*
X8411456Y-16341296D01*
X8563837Y-16522248D02*
X8573361Y-16531772D01*
X8563837Y-16541296D01*
X8554313Y-16531772D01*
X8563837Y-16522248D01*
X8563837Y-16541296D01*
X8697170Y-16341296D02*
X8716218Y-16341296D01*
X8735266Y-16350820D01*
X8744790Y-16360344D01*
X8754313Y-16379391D01*
X8763837Y-16417487D01*
X8763837Y-16465106D01*
X8754313Y-16503201D01*
X8744790Y-16522248D01*
X8735266Y-16531772D01*
X8716218Y-16541296D01*
X8697170Y-16541296D01*
X8678123Y-16531772D01*
X8668599Y-16522248D01*
X8659075Y-16503201D01*
X8649551Y-16465106D01*
X8649551Y-16417487D01*
X8659075Y-16379391D01*
X8668599Y-16360344D01*
X8678123Y-16350820D01*
X8697170Y-16341296D01*
X8944790Y-16341296D02*
X8849551Y-16341296D01*
X8840028Y-16436534D01*
X8849551Y-16427010D01*
X8868599Y-16417487D01*
X8916218Y-16417487D01*
X8935266Y-16427010D01*
X8944790Y-16436534D01*
X8954313Y-16455582D01*
X8954313Y-16503201D01*
X8944790Y-16522248D01*
X8935266Y-16531772D01*
X8916218Y-16541296D01*
X8868599Y-16541296D01*
X8849551Y-16531772D01*
X8840028Y-16522248D01*
X9049551Y-16541296D02*
X9087647Y-16541296D01*
X9106694Y-16531772D01*
X9116218Y-16522248D01*
X9135266Y-16493677D01*
X9144790Y-16455582D01*
X9144790Y-16379391D01*
X9135266Y-16360344D01*
X9125742Y-16350820D01*
X9106694Y-16341296D01*
X9068599Y-16341296D01*
X9049551Y-16350820D01*
X9040028Y-16360344D01*
X9030504Y-16379391D01*
X9030504Y-16427010D01*
X9040028Y-16446058D01*
X9049551Y-16455582D01*
X9068599Y-16465106D01*
X9106694Y-16465106D01*
X9125742Y-16455582D01*
X9135266Y-16446058D01*
X9144790Y-16427010D01*
X9335266Y-16541296D02*
X9220980Y-16541296D01*
X9278123Y-16541296D02*
X9278123Y-16341296D01*
X9259075Y-16369868D01*
X9240028Y-16388915D01*
X9220980Y-16398439D01*
X9411456Y-16341296D02*
X9411456Y-16379391D01*
X9487647Y-16341296D02*
X9487647Y-16379391D01*
X9782885Y-16617487D02*
X9773361Y-16607963D01*
X9754313Y-16579391D01*
X9744790Y-16560344D01*
X9735266Y-16531772D01*
X9725742Y-16484153D01*
X9725742Y-16446058D01*
X9735266Y-16398439D01*
X9744790Y-16369868D01*
X9754313Y-16350820D01*
X9773361Y-16322248D01*
X9782885Y-16312725D01*
X9849551Y-16360344D02*
X9859075Y-16350820D01*
X9878123Y-16341296D01*
X9925742Y-16341296D01*
X9944790Y-16350820D01*
X9954313Y-16360344D01*
X9963837Y-16379391D01*
X9963837Y-16398439D01*
X9954313Y-16427010D01*
X9840028Y-16541296D01*
X9963837Y-16541296D01*
X10201932Y-16541296D02*
X10201932Y-16341296D01*
X10287647Y-16541296D02*
X10287647Y-16436534D01*
X10278123Y-16417487D01*
X10259075Y-16407963D01*
X10230504Y-16407963D01*
X10211456Y-16417487D01*
X10201932Y-16427010D01*
X10411456Y-16541296D02*
X10392409Y-16531772D01*
X10382885Y-16522248D01*
X10373361Y-16503201D01*
X10373361Y-16446058D01*
X10382885Y-16427010D01*
X10392409Y-16417487D01*
X10411456Y-16407963D01*
X10440028Y-16407963D01*
X10459075Y-16417487D01*
X10468599Y-16427010D01*
X10478123Y-16446058D01*
X10478123Y-16503201D01*
X10468599Y-16522248D01*
X10459075Y-16531772D01*
X10440028Y-16541296D01*
X10411456Y-16541296D01*
X10592409Y-16541296D02*
X10573361Y-16531772D01*
X10563837Y-16512725D01*
X10563837Y-16341296D01*
X10744790Y-16531772D02*
X10725742Y-16541296D01*
X10687647Y-16541296D01*
X10668599Y-16531772D01*
X10659075Y-16512725D01*
X10659075Y-16436534D01*
X10668599Y-16417487D01*
X10687647Y-16407963D01*
X10725742Y-16407963D01*
X10744790Y-16417487D01*
X10754313Y-16436534D01*
X10754313Y-16455582D01*
X10659075Y-16474629D01*
X10830504Y-16531772D02*
X10849551Y-16541296D01*
X10887647Y-16541296D01*
X10906694Y-16531772D01*
X10916218Y-16512725D01*
X10916218Y-16503201D01*
X10906694Y-16484153D01*
X10887647Y-16474629D01*
X10859075Y-16474629D01*
X10840028Y-16465106D01*
X10830504Y-16446058D01*
X10830504Y-16436534D01*
X10840028Y-16417487D01*
X10859075Y-16407963D01*
X10887647Y-16407963D01*
X10906694Y-16417487D01*
X10982885Y-16617487D02*
X10992409Y-16607963D01*
X11011456Y-16579391D01*
X11020980Y-16560344D01*
X11030504Y-16531772D01*
X11040028Y-16484153D01*
X11040028Y-16446058D01*
X11030504Y-16398439D01*
X11020980Y-16369868D01*
X11011456Y-16350820D01*
X10992409Y-16322248D01*
X10982885Y-16312725D01*
X11344789Y-16617487D02*
X11335266Y-16607963D01*
X11316218Y-16579391D01*
X11306694Y-16560344D01*
X11297170Y-16531772D01*
X11287647Y-16484153D01*
X11287647Y-16446058D01*
X11297170Y-16398439D01*
X11306694Y-16369868D01*
X11316218Y-16350820D01*
X11335266Y-16322248D01*
X11344789Y-16312725D01*
X11420980Y-16407963D02*
X11420980Y-16541296D01*
X11420980Y-16427010D02*
X11430504Y-16417487D01*
X11449551Y-16407963D01*
X11478123Y-16407963D01*
X11497170Y-16417487D01*
X11506694Y-16436534D01*
X11506694Y-16541296D01*
X11630504Y-16541296D02*
X11611456Y-16531772D01*
X11601932Y-16522248D01*
X11592408Y-16503201D01*
X11592408Y-16446058D01*
X11601932Y-16427010D01*
X11611456Y-16417487D01*
X11630504Y-16407963D01*
X11659075Y-16407963D01*
X11678123Y-16417487D01*
X11687647Y-16427010D01*
X11697170Y-16446058D01*
X11697170Y-16503201D01*
X11687647Y-16522248D01*
X11678123Y-16531772D01*
X11659075Y-16541296D01*
X11630504Y-16541296D01*
X11754313Y-16407963D02*
X11830504Y-16407963D01*
X11782885Y-16341296D02*
X11782885Y-16512725D01*
X11792408Y-16531772D01*
X11811456Y-16541296D01*
X11830504Y-16541296D01*
X12049551Y-16407963D02*
X12049551Y-16607963D01*
X12049551Y-16417487D02*
X12068599Y-16407963D01*
X12106694Y-16407963D01*
X12125742Y-16417487D01*
X12135266Y-16427010D01*
X12144789Y-16446058D01*
X12144789Y-16503201D01*
X12135266Y-16522248D01*
X12125742Y-16531772D01*
X12106694Y-16541296D01*
X12068599Y-16541296D01*
X12049551Y-16531772D01*
X12259075Y-16541296D02*
X12240028Y-16531772D01*
X12230504Y-16512725D01*
X12230504Y-16341296D01*
X12420980Y-16541296D02*
X12420980Y-16436534D01*
X12411456Y-16417487D01*
X12392408Y-16407963D01*
X12354313Y-16407963D01*
X12335266Y-16417487D01*
X12420980Y-16531772D02*
X12401932Y-16541296D01*
X12354313Y-16541296D01*
X12335266Y-16531772D01*
X12325742Y-16512725D01*
X12325742Y-16493677D01*
X12335266Y-16474629D01*
X12354313Y-16465106D01*
X12401932Y-16465106D01*
X12420980Y-16455582D01*
X12487647Y-16407963D02*
X12563837Y-16407963D01*
X12516218Y-16341296D02*
X12516218Y-16512725D01*
X12525742Y-16531772D01*
X12544789Y-16541296D01*
X12563837Y-16541296D01*
X12706694Y-16531772D02*
X12687647Y-16541296D01*
X12649551Y-16541296D01*
X12630504Y-16531772D01*
X12620980Y-16512725D01*
X12620980Y-16436534D01*
X12630504Y-16417487D01*
X12649551Y-16407963D01*
X12687647Y-16407963D01*
X12706694Y-16417487D01*
X12716218Y-16436534D01*
X12716218Y-16455582D01*
X12620980Y-16474629D01*
X12887647Y-16541296D02*
X12887647Y-16341296D01*
X12887647Y-16531772D02*
X12868599Y-16541296D01*
X12830504Y-16541296D01*
X12811456Y-16531772D01*
X12801932Y-16522248D01*
X12792408Y-16503201D01*
X12792408Y-16446058D01*
X12801932Y-16427010D01*
X12811456Y-16417487D01*
X12830504Y-16407963D01*
X12868599Y-16407963D01*
X12887647Y-16417487D01*
X12963837Y-16617487D02*
X12973361Y-16607963D01*
X12992408Y-16579391D01*
X13001932Y-16560344D01*
X13011456Y-16531772D01*
X13020980Y-16484153D01*
X13020980Y-16446058D01*
X13011456Y-16398439D01*
X13001932Y-16369868D01*
X12992408Y-16350820D01*
X12973361Y-16322248D01*
X12963837Y-16312725D01*
D14*
X6210980Y-16720820D02*
G75*
G03*
X6210980Y-16720820I-90000J0D01*
G01*
D12*
X6573361Y-16811296D02*
X6459075Y-16811296D01*
X6516218Y-16811296D02*
X6516218Y-16611296D01*
X6497170Y-16639868D01*
X6478123Y-16658915D01*
X6459075Y-16668439D01*
X6659075Y-16792249D02*
X6668599Y-16801772D01*
X6659075Y-16811296D01*
X6649551Y-16801772D01*
X6659075Y-16792249D01*
X6659075Y-16811296D01*
X6782885Y-16697010D02*
X6763837Y-16687487D01*
X6754313Y-16677963D01*
X6744789Y-16658915D01*
X6744789Y-16649391D01*
X6754313Y-16630344D01*
X6763837Y-16620820D01*
X6782885Y-16611296D01*
X6820980Y-16611296D01*
X6840028Y-16620820D01*
X6849551Y-16630344D01*
X6859075Y-16649391D01*
X6859075Y-16658915D01*
X6849551Y-16677963D01*
X6840028Y-16687487D01*
X6820980Y-16697010D01*
X6782885Y-16697010D01*
X6763837Y-16706534D01*
X6754313Y-16716058D01*
X6744789Y-16735106D01*
X6744789Y-16773201D01*
X6754313Y-16792249D01*
X6763837Y-16801772D01*
X6782885Y-16811296D01*
X6820980Y-16811296D01*
X6840028Y-16801772D01*
X6849551Y-16792249D01*
X6859075Y-16773201D01*
X6859075Y-16735106D01*
X6849551Y-16716058D01*
X6840028Y-16706534D01*
X6820980Y-16697010D01*
X6982885Y-16611296D02*
X7001932Y-16611296D01*
X7020980Y-16620820D01*
X7030504Y-16630344D01*
X7040028Y-16649391D01*
X7049551Y-16687487D01*
X7049551Y-16735106D01*
X7040028Y-16773201D01*
X7030504Y-16792249D01*
X7020980Y-16801772D01*
X7001932Y-16811296D01*
X6982885Y-16811296D01*
X6963837Y-16801772D01*
X6954313Y-16792249D01*
X6944789Y-16773201D01*
X6935266Y-16735106D01*
X6935266Y-16687487D01*
X6944789Y-16649391D01*
X6954313Y-16630344D01*
X6963837Y-16620820D01*
X6982885Y-16611296D01*
X7173361Y-16611296D02*
X7192408Y-16611296D01*
X7211456Y-16620820D01*
X7220980Y-16630344D01*
X7230504Y-16649391D01*
X7240028Y-16687487D01*
X7240028Y-16735106D01*
X7230504Y-16773201D01*
X7220980Y-16792249D01*
X7211456Y-16801772D01*
X7192408Y-16811296D01*
X7173361Y-16811296D01*
X7154313Y-16801772D01*
X7144789Y-16792249D01*
X7135266Y-16773201D01*
X7125742Y-16735106D01*
X7125742Y-16687487D01*
X7135266Y-16649391D01*
X7144789Y-16630344D01*
X7154313Y-16620820D01*
X7173361Y-16611296D01*
X7325742Y-16811296D02*
X7325742Y-16677963D01*
X7325742Y-16697010D02*
X7335266Y-16687487D01*
X7354313Y-16677963D01*
X7382885Y-16677963D01*
X7401932Y-16687487D01*
X7411456Y-16706534D01*
X7411456Y-16811296D01*
X7411456Y-16706534D02*
X7420980Y-16687487D01*
X7440028Y-16677963D01*
X7468599Y-16677963D01*
X7487647Y-16687487D01*
X7497170Y-16706534D01*
X7497170Y-16811296D01*
X7592408Y-16811296D02*
X7592408Y-16677963D01*
X7592408Y-16697010D02*
X7601932Y-16687487D01*
X7620980Y-16677963D01*
X7649551Y-16677963D01*
X7668599Y-16687487D01*
X7678123Y-16706534D01*
X7678123Y-16811296D01*
X7678123Y-16706534D02*
X7687647Y-16687487D01*
X7706694Y-16677963D01*
X7735266Y-16677963D01*
X7754313Y-16687487D01*
X7763837Y-16706534D01*
X7763837Y-16811296D01*
X8154313Y-16601772D02*
X7982885Y-16858915D01*
X8411456Y-16611296D02*
X8430504Y-16611296D01*
X8449551Y-16620820D01*
X8459075Y-16630344D01*
X8468599Y-16649391D01*
X8478123Y-16687487D01*
X8478123Y-16735106D01*
X8468599Y-16773201D01*
X8459075Y-16792249D01*
X8449551Y-16801772D01*
X8430504Y-16811296D01*
X8411456Y-16811296D01*
X8392409Y-16801772D01*
X8382885Y-16792249D01*
X8373361Y-16773201D01*
X8363837Y-16735106D01*
X8363837Y-16687487D01*
X8373361Y-16649391D01*
X8382885Y-16630344D01*
X8392409Y-16620820D01*
X8411456Y-16611296D01*
X8563837Y-16792249D02*
X8573361Y-16801772D01*
X8563837Y-16811296D01*
X8554313Y-16801772D01*
X8563837Y-16792249D01*
X8563837Y-16811296D01*
X8697170Y-16611296D02*
X8716218Y-16611296D01*
X8735266Y-16620820D01*
X8744790Y-16630344D01*
X8754313Y-16649391D01*
X8763837Y-16687487D01*
X8763837Y-16735106D01*
X8754313Y-16773201D01*
X8744790Y-16792249D01*
X8735266Y-16801772D01*
X8716218Y-16811296D01*
X8697170Y-16811296D01*
X8678123Y-16801772D01*
X8668599Y-16792249D01*
X8659075Y-16773201D01*
X8649551Y-16735106D01*
X8649551Y-16687487D01*
X8659075Y-16649391D01*
X8668599Y-16630344D01*
X8678123Y-16620820D01*
X8697170Y-16611296D01*
X8830504Y-16611296D02*
X8963837Y-16611296D01*
X8878123Y-16811296D01*
X9078123Y-16611296D02*
X9097170Y-16611296D01*
X9116218Y-16620820D01*
X9125742Y-16630344D01*
X9135266Y-16649391D01*
X9144790Y-16687487D01*
X9144790Y-16735106D01*
X9135266Y-16773201D01*
X9125742Y-16792249D01*
X9116218Y-16801772D01*
X9097170Y-16811296D01*
X9078123Y-16811296D01*
X9059075Y-16801772D01*
X9049551Y-16792249D01*
X9040028Y-16773201D01*
X9030504Y-16735106D01*
X9030504Y-16687487D01*
X9040028Y-16649391D01*
X9049551Y-16630344D01*
X9059075Y-16620820D01*
X9078123Y-16611296D01*
X9240028Y-16811296D02*
X9278123Y-16811296D01*
X9297170Y-16801772D01*
X9306694Y-16792249D01*
X9325742Y-16763677D01*
X9335266Y-16725582D01*
X9335266Y-16649391D01*
X9325742Y-16630344D01*
X9316218Y-16620820D01*
X9297170Y-16611296D01*
X9259075Y-16611296D01*
X9240028Y-16620820D01*
X9230504Y-16630344D01*
X9220980Y-16649391D01*
X9220980Y-16697010D01*
X9230504Y-16716058D01*
X9240028Y-16725582D01*
X9259075Y-16735106D01*
X9297170Y-16735106D01*
X9316218Y-16725582D01*
X9325742Y-16716058D01*
X9335266Y-16697010D01*
X9411456Y-16611296D02*
X9411456Y-16649391D01*
X9487647Y-16611296D02*
X9487647Y-16649391D01*
X9782885Y-16887487D02*
X9773361Y-16877963D01*
X9754313Y-16849391D01*
X9744790Y-16830344D01*
X9735266Y-16801772D01*
X9725742Y-16754153D01*
X9725742Y-16716058D01*
X9735266Y-16668439D01*
X9744790Y-16639868D01*
X9754313Y-16620820D01*
X9773361Y-16592248D01*
X9782885Y-16582725D01*
X9849551Y-16630344D02*
X9859075Y-16620820D01*
X9878123Y-16611296D01*
X9925742Y-16611296D01*
X9944790Y-16620820D01*
X9954313Y-16630344D01*
X9963837Y-16649391D01*
X9963837Y-16668439D01*
X9954313Y-16697010D01*
X9840028Y-16811296D01*
X9963837Y-16811296D01*
X10201932Y-16811296D02*
X10201932Y-16611296D01*
X10287647Y-16811296D02*
X10287647Y-16706534D01*
X10278123Y-16687487D01*
X10259075Y-16677963D01*
X10230504Y-16677963D01*
X10211456Y-16687487D01*
X10201932Y-16697010D01*
X10411456Y-16811296D02*
X10392409Y-16801772D01*
X10382885Y-16792249D01*
X10373361Y-16773201D01*
X10373361Y-16716058D01*
X10382885Y-16697010D01*
X10392409Y-16687487D01*
X10411456Y-16677963D01*
X10440028Y-16677963D01*
X10459075Y-16687487D01*
X10468599Y-16697010D01*
X10478123Y-16716058D01*
X10478123Y-16773201D01*
X10468599Y-16792249D01*
X10459075Y-16801772D01*
X10440028Y-16811296D01*
X10411456Y-16811296D01*
X10592409Y-16811296D02*
X10573361Y-16801772D01*
X10563837Y-16782725D01*
X10563837Y-16611296D01*
X10744790Y-16801772D02*
X10725742Y-16811296D01*
X10687647Y-16811296D01*
X10668599Y-16801772D01*
X10659075Y-16782725D01*
X10659075Y-16706534D01*
X10668599Y-16687487D01*
X10687647Y-16677963D01*
X10725742Y-16677963D01*
X10744790Y-16687487D01*
X10754313Y-16706534D01*
X10754313Y-16725582D01*
X10659075Y-16744629D01*
X10830504Y-16801772D02*
X10849551Y-16811296D01*
X10887647Y-16811296D01*
X10906694Y-16801772D01*
X10916218Y-16782725D01*
X10916218Y-16773201D01*
X10906694Y-16754153D01*
X10887647Y-16744629D01*
X10859075Y-16744629D01*
X10840028Y-16735106D01*
X10830504Y-16716058D01*
X10830504Y-16706534D01*
X10840028Y-16687487D01*
X10859075Y-16677963D01*
X10887647Y-16677963D01*
X10906694Y-16687487D01*
X10982885Y-16887487D02*
X10992409Y-16877963D01*
X11011456Y-16849391D01*
X11020980Y-16830344D01*
X11030504Y-16801772D01*
X11040028Y-16754153D01*
X11040028Y-16716058D01*
X11030504Y-16668439D01*
X11020980Y-16639868D01*
X11011456Y-16620820D01*
X10992409Y-16592248D01*
X10982885Y-16582725D01*
X11344789Y-16887487D02*
X11335266Y-16877963D01*
X11316218Y-16849391D01*
X11306694Y-16830344D01*
X11297170Y-16801772D01*
X11287647Y-16754153D01*
X11287647Y-16716058D01*
X11297170Y-16668439D01*
X11306694Y-16639868D01*
X11316218Y-16620820D01*
X11335266Y-16592248D01*
X11344789Y-16582725D01*
X11420980Y-16677963D02*
X11420980Y-16811296D01*
X11420980Y-16697010D02*
X11430504Y-16687487D01*
X11449551Y-16677963D01*
X11478123Y-16677963D01*
X11497170Y-16687487D01*
X11506694Y-16706534D01*
X11506694Y-16811296D01*
X11630504Y-16811296D02*
X11611456Y-16801772D01*
X11601932Y-16792249D01*
X11592408Y-16773201D01*
X11592408Y-16716058D01*
X11601932Y-16697010D01*
X11611456Y-16687487D01*
X11630504Y-16677963D01*
X11659075Y-16677963D01*
X11678123Y-16687487D01*
X11687647Y-16697010D01*
X11697170Y-16716058D01*
X11697170Y-16773201D01*
X11687647Y-16792249D01*
X11678123Y-16801772D01*
X11659075Y-16811296D01*
X11630504Y-16811296D01*
X11754313Y-16677963D02*
X11830504Y-16677963D01*
X11782885Y-16611296D02*
X11782885Y-16782725D01*
X11792408Y-16801772D01*
X11811456Y-16811296D01*
X11830504Y-16811296D01*
X12049551Y-16677963D02*
X12049551Y-16877963D01*
X12049551Y-16687487D02*
X12068599Y-16677963D01*
X12106694Y-16677963D01*
X12125742Y-16687487D01*
X12135266Y-16697010D01*
X12144789Y-16716058D01*
X12144789Y-16773201D01*
X12135266Y-16792249D01*
X12125742Y-16801772D01*
X12106694Y-16811296D01*
X12068599Y-16811296D01*
X12049551Y-16801772D01*
X12259075Y-16811296D02*
X12240028Y-16801772D01*
X12230504Y-16782725D01*
X12230504Y-16611296D01*
X12420980Y-16811296D02*
X12420980Y-16706534D01*
X12411456Y-16687487D01*
X12392408Y-16677963D01*
X12354313Y-16677963D01*
X12335266Y-16687487D01*
X12420980Y-16801772D02*
X12401932Y-16811296D01*
X12354313Y-16811296D01*
X12335266Y-16801772D01*
X12325742Y-16782725D01*
X12325742Y-16763677D01*
X12335266Y-16744629D01*
X12354313Y-16735106D01*
X12401932Y-16735106D01*
X12420980Y-16725582D01*
X12487647Y-16677963D02*
X12563837Y-16677963D01*
X12516218Y-16611296D02*
X12516218Y-16782725D01*
X12525742Y-16801772D01*
X12544789Y-16811296D01*
X12563837Y-16811296D01*
X12706694Y-16801772D02*
X12687647Y-16811296D01*
X12649551Y-16811296D01*
X12630504Y-16801772D01*
X12620980Y-16782725D01*
X12620980Y-16706534D01*
X12630504Y-16687487D01*
X12649551Y-16677963D01*
X12687647Y-16677963D01*
X12706694Y-16687487D01*
X12716218Y-16706534D01*
X12716218Y-16725582D01*
X12620980Y-16744629D01*
X12887647Y-16811296D02*
X12887647Y-16611296D01*
X12887647Y-16801772D02*
X12868599Y-16811296D01*
X12830504Y-16811296D01*
X12811456Y-16801772D01*
X12801932Y-16792249D01*
X12792408Y-16773201D01*
X12792408Y-16716058D01*
X12801932Y-16697010D01*
X12811456Y-16687487D01*
X12830504Y-16677963D01*
X12868599Y-16677963D01*
X12887647Y-16687487D01*
X12963837Y-16887487D02*
X12973361Y-16877963D01*
X12992408Y-16849391D01*
X13001932Y-16830344D01*
X13011456Y-16801772D01*
X13020980Y-16754153D01*
X13020980Y-16716058D01*
X13011456Y-16668439D01*
X13001932Y-16639868D01*
X12992408Y-16620820D01*
X12973361Y-16592248D01*
X12963837Y-16582725D01*
M02*
