M48
; DRILL file {KiCad (6.0.6)} date Wed Nov  9 14:25:13 2022
; FORMAT={-:-/ absolute / metric / decimal}
; #@! TF.CreationDate,2022-11-09T14:25:13-05:00
; #@! TF.GenerationSoftware,Kicad,Pcbnew,(6.0.6)
; #@! TF.FileFunction,Plated,1,2,PTH
FMAT,2
METRIC
; #@! TA.AperFunction,Plated,PTH,ComponentDrill
T1C0.762
; #@! TA.AperFunction,Plated,PTH,ComponentDrill
T2C0.800
; #@! TA.AperFunction,Plated,PTH,ComponentDrill
T3C1.000
; #@! TA.AperFunction,Plated,PTH,ComponentDrill
T4C1.020
; #@! TA.AperFunction,Plated,PTH,ComponentDrill
T5C1.100
; #@! TA.AperFunction,Plated,PTH,ComponentDrill
T6C1.300
%
G90
G05
T1
X60.452Y-113.03
X60.452Y-115.57
X60.452Y-118.11
X60.452Y-120.65
X60.452Y-123.19
X60.452Y-125.73
X60.452Y-128.27
X68.072Y-113.03
X68.072Y-115.57
X68.072Y-118.11
X68.072Y-120.65
X68.072Y-123.19
X68.072Y-125.73
X68.072Y-128.27
T2
X103.231Y-150.514
X103.231Y-160.674
X104.474Y-121.412
X109.221Y-157.88
X109.221Y-160.421
X109.221Y-162.96
X109.474Y-121.412
T3
X63.754Y-135.392
X63.754Y-137.932
X63.754Y-140.472
X63.754Y-143.012
T4
X77.216Y-111.252
X77.216Y-113.792
X77.216Y-116.332
X77.216Y-118.872
X77.216Y-121.412
X77.216Y-123.952
X77.216Y-126.492
X77.216Y-129.032
X77.216Y-131.572
X77.216Y-134.112
X77.216Y-136.652
X77.216Y-139.192
X77.216Y-141.732
X77.216Y-144.272
X77.216Y-146.812
X77.216Y-149.352
X77.216Y-151.892
X77.216Y-154.432
X77.216Y-156.972
X77.216Y-159.512
X83.566Y-159.282
X86.106Y-159.282
X88.646Y-159.282
X94.996Y-111.252
X94.996Y-113.792
X94.996Y-116.332
X94.996Y-118.872
X94.996Y-121.412
X94.996Y-123.952
X94.996Y-126.492
X94.996Y-129.032
X94.996Y-131.572
X94.996Y-134.112
X94.996Y-136.652
X94.996Y-139.192
X94.996Y-141.732
X94.996Y-144.272
X94.996Y-146.812
X94.996Y-149.352
X94.996Y-151.892
X94.996Y-154.432
X94.996Y-156.972
X94.996Y-159.512
T5
X63.044Y-154.722
X63.044Y-159.222
X69.544Y-154.722
X69.544Y-159.222
T6
X104.474Y-113.792
X106.426Y-127.762
X109.474Y-113.792
X110.236Y-127.762
T0
M30
