%FSLAX45Y45*%
G04 Gerber Fmt 4.5, Leading zero omitted, Abs format (unit mm)*
G04 Created by KiCad (PCBNEW (6.0.6)) date 2022-11-09 14:25:15*
%MOMM*%
%LPD*%
G01*
G04 APERTURE LIST*
%TA.AperFunction,Profile*%
%ADD10C,3.213100*%
%TD*%
%TA.AperFunction,Profile*%
%ADD11C,0.025400*%
%TD*%
%ADD12C,0.200000*%
%ADD13C,0.076200*%
%ADD14C,0.080000*%
%ADD15C,0.100000*%
%ADD16C,0.102000*%
%ADD17C,0.110000*%
%ADD18C,0.130000*%
G04 APERTURE END LIST*
D10*
X10966405Y-14772050D02*
G75*
G03*
X10966405Y-14772050I-160655J0D01*
G01*
D11*
X5791200Y-10693400D02*
X11531600Y-10693400D01*
X11531600Y-10693400D02*
X11531600Y-16891000D01*
X11531600Y-16891000D02*
X5791200Y-16891000D01*
X5791200Y-16891000D02*
X5791200Y-10693400D01*
D10*
X10890205Y-13781450D02*
G75*
G03*
X10890205Y-13781450I-160655J0D01*
G01*
D12*
D13*
X6007100Y-11264900D02*
X6083300Y-11341100D01*
X6083300Y-11264900D02*
X6007100Y-11341100D01*
X6007100Y-11518900D02*
X6083300Y-11595100D01*
X6083300Y-11518900D02*
X6007100Y-11595100D01*
X6007100Y-11772900D02*
X6083300Y-11849100D01*
X6083300Y-11772900D02*
X6007100Y-11849100D01*
X6007100Y-12026900D02*
X6083300Y-12103100D01*
X6083300Y-12026900D02*
X6007100Y-12103100D01*
X6007100Y-12280900D02*
X6083300Y-12357100D01*
X6083300Y-12280900D02*
X6007100Y-12357100D01*
X6007100Y-12534900D02*
X6083300Y-12611100D01*
X6083300Y-12534900D02*
X6007100Y-12611100D01*
X6007100Y-12788900D02*
X6083300Y-12865100D01*
X6083300Y-12788900D02*
X6007100Y-12865100D01*
X6769100Y-11264900D02*
X6845300Y-11341100D01*
X6845300Y-11264900D02*
X6769100Y-11341100D01*
X6769100Y-11518900D02*
X6845300Y-11595100D01*
X6845300Y-11518900D02*
X6769100Y-11595100D01*
X6769100Y-11772900D02*
X6845300Y-11849100D01*
X6845300Y-11772900D02*
X6769100Y-11849100D01*
X6769100Y-12026900D02*
X6845300Y-12103100D01*
X6845300Y-12026900D02*
X6769100Y-12103100D01*
X6769100Y-12280900D02*
X6845300Y-12357100D01*
X6845300Y-12280900D02*
X6769100Y-12357100D01*
X6769100Y-12534900D02*
X6845300Y-12611100D01*
X6845300Y-12534900D02*
X6769100Y-12611100D01*
X6769100Y-12788900D02*
X6845300Y-12865100D01*
X6845300Y-12788900D02*
X6769100Y-12865100D01*
D14*
X10363150Y-15051450D02*
G75*
G03*
X10363150Y-15051450I-40000J0D01*
G01*
X10363150Y-16067450D02*
G75*
G03*
X10363150Y-16067450I-40000J0D01*
G01*
X10487400Y-12141200D02*
G75*
G03*
X10487400Y-12141200I-40000J0D01*
G01*
X10962150Y-15788050D02*
G75*
G03*
X10962150Y-15788050I-40000J0D01*
G01*
X10962150Y-16042050D02*
G75*
G03*
X10962150Y-16042050I-40000J0D01*
G01*
X10962150Y-16296050D02*
G75*
G03*
X10962150Y-16296050I-40000J0D01*
G01*
X10987400Y-12141200D02*
G75*
G03*
X10987400Y-12141200I-40000J0D01*
G01*
D15*
X6375400Y-13489200D02*
X6375400Y-13589200D01*
X6325400Y-13539200D02*
X6425400Y-13539200D01*
X6375400Y-13743200D02*
X6375400Y-13843200D01*
X6325400Y-13793200D02*
X6425400Y-13793200D01*
X6375400Y-13997200D02*
X6375400Y-14097200D01*
X6325400Y-14047200D02*
X6425400Y-14047200D01*
X6375400Y-14251200D02*
X6375400Y-14351200D01*
X6325400Y-14301200D02*
X6425400Y-14301200D01*
D16*
X7757663Y-11161263D02*
X7757663Y-11089137D01*
X7685537Y-11089137D01*
X7685537Y-11161263D01*
X7757663Y-11161263D01*
X7757663Y-11415263D02*
X7757663Y-11343137D01*
X7685537Y-11343137D01*
X7685537Y-11415263D01*
X7757663Y-11415263D01*
X7757663Y-11669263D02*
X7757663Y-11597137D01*
X7685537Y-11597137D01*
X7685537Y-11669263D01*
X7757663Y-11669263D01*
X7757663Y-11923263D02*
X7757663Y-11851137D01*
X7685537Y-11851137D01*
X7685537Y-11923263D01*
X7757663Y-11923263D01*
X7757663Y-12177263D02*
X7757663Y-12105137D01*
X7685537Y-12105137D01*
X7685537Y-12177263D01*
X7757663Y-12177263D01*
X7757663Y-12431263D02*
X7757663Y-12359137D01*
X7685537Y-12359137D01*
X7685537Y-12431263D01*
X7757663Y-12431263D01*
X7757663Y-12685263D02*
X7757663Y-12613137D01*
X7685537Y-12613137D01*
X7685537Y-12685263D01*
X7757663Y-12685263D01*
X7757663Y-12939263D02*
X7757663Y-12867137D01*
X7685537Y-12867137D01*
X7685537Y-12939263D01*
X7757663Y-12939263D01*
X7757663Y-13193263D02*
X7757663Y-13121137D01*
X7685537Y-13121137D01*
X7685537Y-13193263D01*
X7757663Y-13193263D01*
X7757663Y-13447263D02*
X7757663Y-13375137D01*
X7685537Y-13375137D01*
X7685537Y-13447263D01*
X7757663Y-13447263D01*
X7757663Y-13701263D02*
X7757663Y-13629137D01*
X7685537Y-13629137D01*
X7685537Y-13701263D01*
X7757663Y-13701263D01*
X7757663Y-13955263D02*
X7757663Y-13883137D01*
X7685537Y-13883137D01*
X7685537Y-13955263D01*
X7757663Y-13955263D01*
X7757663Y-14209263D02*
X7757663Y-14137137D01*
X7685537Y-14137137D01*
X7685537Y-14209263D01*
X7757663Y-14209263D01*
X7757663Y-14463263D02*
X7757663Y-14391137D01*
X7685537Y-14391137D01*
X7685537Y-14463263D01*
X7757663Y-14463263D01*
X7757663Y-14717263D02*
X7757663Y-14645137D01*
X7685537Y-14645137D01*
X7685537Y-14717263D01*
X7757663Y-14717263D01*
X7757663Y-14971263D02*
X7757663Y-14899137D01*
X7685537Y-14899137D01*
X7685537Y-14971263D01*
X7757663Y-14971263D01*
X7757663Y-15225263D02*
X7757663Y-15153137D01*
X7685537Y-15153137D01*
X7685537Y-15225263D01*
X7757663Y-15225263D01*
X7757663Y-15479263D02*
X7757663Y-15407137D01*
X7685537Y-15407137D01*
X7685537Y-15479263D01*
X7757663Y-15479263D01*
X7757663Y-15733263D02*
X7757663Y-15661137D01*
X7685537Y-15661137D01*
X7685537Y-15733263D01*
X7757663Y-15733263D01*
X7757663Y-15987263D02*
X7757663Y-15915137D01*
X7685537Y-15915137D01*
X7685537Y-15987263D01*
X7757663Y-15987263D01*
X8392663Y-15964263D02*
X8392663Y-15892137D01*
X8320537Y-15892137D01*
X8320537Y-15964263D01*
X8392663Y-15964263D01*
X8646663Y-15964263D02*
X8646663Y-15892137D01*
X8574537Y-15892137D01*
X8574537Y-15964263D01*
X8646663Y-15964263D01*
X8900663Y-15964263D02*
X8900663Y-15892137D01*
X8828537Y-15892137D01*
X8828537Y-15964263D01*
X8900663Y-15964263D01*
X9535663Y-11161263D02*
X9535663Y-11089137D01*
X9463537Y-11089137D01*
X9463537Y-11161263D01*
X9535663Y-11161263D01*
X9535663Y-11415263D02*
X9535663Y-11343137D01*
X9463537Y-11343137D01*
X9463537Y-11415263D01*
X9535663Y-11415263D01*
X9535663Y-11669263D02*
X9535663Y-11597137D01*
X9463537Y-11597137D01*
X9463537Y-11669263D01*
X9535663Y-11669263D01*
X9535663Y-11923263D02*
X9535663Y-11851137D01*
X9463537Y-11851137D01*
X9463537Y-11923263D01*
X9535663Y-11923263D01*
X9535663Y-12177263D02*
X9535663Y-12105137D01*
X9463537Y-12105137D01*
X9463537Y-12177263D01*
X9535663Y-12177263D01*
X9535663Y-12431263D02*
X9535663Y-12359137D01*
X9463537Y-12359137D01*
X9463537Y-12431263D01*
X9535663Y-12431263D01*
X9535663Y-12685263D02*
X9535663Y-12613137D01*
X9463537Y-12613137D01*
X9463537Y-12685263D01*
X9535663Y-12685263D01*
X9535663Y-12939263D02*
X9535663Y-12867137D01*
X9463537Y-12867137D01*
X9463537Y-12939263D01*
X9535663Y-12939263D01*
X9535663Y-13193263D02*
X9535663Y-13121137D01*
X9463537Y-13121137D01*
X9463537Y-13193263D01*
X9535663Y-13193263D01*
X9535663Y-13447263D02*
X9535663Y-13375137D01*
X9463537Y-13375137D01*
X9463537Y-13447263D01*
X9535663Y-13447263D01*
X9535663Y-13701263D02*
X9535663Y-13629137D01*
X9463537Y-13629137D01*
X9463537Y-13701263D01*
X9535663Y-13701263D01*
X9535663Y-13955263D02*
X9535663Y-13883137D01*
X9463537Y-13883137D01*
X9463537Y-13955263D01*
X9535663Y-13955263D01*
X9535663Y-14209263D02*
X9535663Y-14137137D01*
X9463537Y-14137137D01*
X9463537Y-14209263D01*
X9535663Y-14209263D01*
X9535663Y-14463263D02*
X9535663Y-14391137D01*
X9463537Y-14391137D01*
X9463537Y-14463263D01*
X9535663Y-14463263D01*
X9535663Y-14717263D02*
X9535663Y-14645137D01*
X9463537Y-14645137D01*
X9463537Y-14717263D01*
X9535663Y-14717263D01*
X9535663Y-14971263D02*
X9535663Y-14899137D01*
X9463537Y-14899137D01*
X9463537Y-14971263D01*
X9535663Y-14971263D01*
X9535663Y-15225263D02*
X9535663Y-15153137D01*
X9463537Y-15153137D01*
X9463537Y-15225263D01*
X9535663Y-15225263D01*
X9535663Y-15479263D02*
X9535663Y-15407137D01*
X9463537Y-15407137D01*
X9463537Y-15479263D01*
X9535663Y-15479263D01*
X9535663Y-15733263D02*
X9535663Y-15661137D01*
X9463537Y-15661137D01*
X9463537Y-15733263D01*
X9535663Y-15733263D01*
X9535663Y-15987263D02*
X9535663Y-15915137D01*
X9463537Y-15915137D01*
X9463537Y-15987263D01*
X9535663Y-15987263D01*
D17*
X6304400Y-15527200D02*
X6359400Y-15472200D01*
X6304400Y-15417200D01*
X6249400Y-15472200D01*
X6304400Y-15527200D01*
X6304400Y-15977200D02*
X6359400Y-15922200D01*
X6304400Y-15867200D01*
X6249400Y-15922200D01*
X6304400Y-15977200D01*
X6954400Y-15527200D02*
X7009400Y-15472200D01*
X6954400Y-15417200D01*
X6899400Y-15472200D01*
X6954400Y-15527200D01*
X6954400Y-15977200D02*
X7009400Y-15922200D01*
X6954400Y-15867200D01*
X6899400Y-15922200D01*
X6954400Y-15977200D01*
D18*
X10382400Y-11314200D02*
X10512400Y-11444200D01*
X10512400Y-11314200D02*
X10382400Y-11444200D01*
X10512400Y-11379200D02*
G75*
G03*
X10512400Y-11379200I-65000J0D01*
G01*
X10577600Y-12711200D02*
X10707600Y-12841200D01*
X10707600Y-12711200D02*
X10577600Y-12841200D01*
X10707600Y-12776200D02*
G75*
G03*
X10707600Y-12776200I-65000J0D01*
G01*
X10882400Y-11314200D02*
X11012400Y-11444200D01*
X11012400Y-11314200D02*
X10882400Y-11444200D01*
X11012400Y-11379200D02*
G75*
G03*
X11012400Y-11379200I-65000J0D01*
G01*
X10958600Y-12711200D02*
X11088600Y-12841200D01*
X11088600Y-12711200D02*
X10958600Y-12841200D01*
X11088600Y-12776200D02*
G75*
G03*
X11088600Y-12776200I-65000J0D01*
G01*
D12*
X6047549Y-17202746D02*
X6047549Y-17002746D01*
X6095168Y-17002746D01*
X6123739Y-17012270D01*
X6142787Y-17031318D01*
X6152311Y-17050365D01*
X6161835Y-17088460D01*
X6161835Y-17117032D01*
X6152311Y-17155127D01*
X6142787Y-17174175D01*
X6123739Y-17193222D01*
X6095168Y-17202746D01*
X6047549Y-17202746D01*
X6247549Y-17202746D02*
X6247549Y-17069413D01*
X6247549Y-17107508D02*
X6257073Y-17088460D01*
X6266597Y-17078937D01*
X6285644Y-17069413D01*
X6304692Y-17069413D01*
X6371358Y-17202746D02*
X6371358Y-17069413D01*
X6371358Y-17002746D02*
X6361835Y-17012270D01*
X6371358Y-17021794D01*
X6380882Y-17012270D01*
X6371358Y-17002746D01*
X6371358Y-17021794D01*
X6495168Y-17202746D02*
X6476120Y-17193222D01*
X6466597Y-17174175D01*
X6466597Y-17002746D01*
X6599930Y-17202746D02*
X6580882Y-17193222D01*
X6571358Y-17174175D01*
X6571358Y-17002746D01*
X6828501Y-17202746D02*
X6828501Y-17002746D01*
X6895168Y-17145603D01*
X6961835Y-17002746D01*
X6961835Y-17202746D01*
X7142787Y-17202746D02*
X7142787Y-17097984D01*
X7133263Y-17078937D01*
X7114216Y-17069413D01*
X7076120Y-17069413D01*
X7057073Y-17078937D01*
X7142787Y-17193222D02*
X7123739Y-17202746D01*
X7076120Y-17202746D01*
X7057073Y-17193222D01*
X7047549Y-17174175D01*
X7047549Y-17155127D01*
X7057073Y-17136080D01*
X7076120Y-17126556D01*
X7123739Y-17126556D01*
X7142787Y-17117032D01*
X7238025Y-17069413D02*
X7238025Y-17269413D01*
X7238025Y-17078937D02*
X7257073Y-17069413D01*
X7295168Y-17069413D01*
X7314216Y-17078937D01*
X7323739Y-17088460D01*
X7333263Y-17107508D01*
X7333263Y-17164651D01*
X7323739Y-17183699D01*
X7314216Y-17193222D01*
X7295168Y-17202746D01*
X7257073Y-17202746D01*
X7238025Y-17193222D01*
X7418978Y-17183699D02*
X7428501Y-17193222D01*
X7418978Y-17202746D01*
X7409454Y-17193222D01*
X7418978Y-17183699D01*
X7418978Y-17202746D01*
X7418978Y-17078937D02*
X7428501Y-17088460D01*
X7418978Y-17097984D01*
X7409454Y-17088460D01*
X7418978Y-17078937D01*
X7418978Y-17097984D01*
D13*
X5713730Y-17494170D02*
X5789930Y-17570370D01*
X5789930Y-17494170D02*
X5713730Y-17570370D01*
D12*
X6085644Y-17422746D02*
X6104692Y-17422746D01*
X6123739Y-17432270D01*
X6133263Y-17441794D01*
X6142787Y-17460841D01*
X6152311Y-17498937D01*
X6152311Y-17546556D01*
X6142787Y-17584651D01*
X6133263Y-17603699D01*
X6123739Y-17613222D01*
X6104692Y-17622746D01*
X6085644Y-17622746D01*
X6066597Y-17613222D01*
X6057073Y-17603699D01*
X6047549Y-17584651D01*
X6038025Y-17546556D01*
X6038025Y-17498937D01*
X6047549Y-17460841D01*
X6057073Y-17441794D01*
X6066597Y-17432270D01*
X6085644Y-17422746D01*
X6238025Y-17603699D02*
X6247549Y-17613222D01*
X6238025Y-17622746D01*
X6228501Y-17613222D01*
X6238025Y-17603699D01*
X6238025Y-17622746D01*
X6314216Y-17422746D02*
X6447549Y-17422746D01*
X6361835Y-17622746D01*
X6609454Y-17422746D02*
X6571358Y-17422746D01*
X6552311Y-17432270D01*
X6542787Y-17441794D01*
X6523739Y-17470365D01*
X6514216Y-17508460D01*
X6514216Y-17584651D01*
X6523739Y-17603699D01*
X6533263Y-17613222D01*
X6552311Y-17622746D01*
X6590406Y-17622746D01*
X6609454Y-17613222D01*
X6618978Y-17603699D01*
X6628501Y-17584651D01*
X6628501Y-17537032D01*
X6618978Y-17517984D01*
X6609454Y-17508460D01*
X6590406Y-17498937D01*
X6552311Y-17498937D01*
X6533263Y-17508460D01*
X6523739Y-17517984D01*
X6514216Y-17537032D01*
X6704692Y-17441794D02*
X6714216Y-17432270D01*
X6733263Y-17422746D01*
X6780882Y-17422746D01*
X6799930Y-17432270D01*
X6809454Y-17441794D01*
X6818978Y-17460841D01*
X6818978Y-17479889D01*
X6809454Y-17508460D01*
X6695168Y-17622746D01*
X6818978Y-17622746D01*
X6904692Y-17622746D02*
X6904692Y-17489413D01*
X6904692Y-17508460D02*
X6914216Y-17498937D01*
X6933263Y-17489413D01*
X6961835Y-17489413D01*
X6980882Y-17498937D01*
X6990406Y-17517984D01*
X6990406Y-17622746D01*
X6990406Y-17517984D02*
X6999930Y-17498937D01*
X7018978Y-17489413D01*
X7047549Y-17489413D01*
X7066597Y-17498937D01*
X7076120Y-17517984D01*
X7076120Y-17622746D01*
X7171358Y-17622746D02*
X7171358Y-17489413D01*
X7171358Y-17508460D02*
X7180882Y-17498937D01*
X7199930Y-17489413D01*
X7228501Y-17489413D01*
X7247549Y-17498937D01*
X7257073Y-17517984D01*
X7257073Y-17622746D01*
X7257073Y-17517984D02*
X7266597Y-17498937D01*
X7285644Y-17489413D01*
X7314216Y-17489413D01*
X7333263Y-17498937D01*
X7342787Y-17517984D01*
X7342787Y-17622746D01*
X7733263Y-17413222D02*
X7561835Y-17670365D01*
X7990406Y-17422746D02*
X8009454Y-17422746D01*
X8028501Y-17432270D01*
X8038025Y-17441794D01*
X8047549Y-17460841D01*
X8057073Y-17498937D01*
X8057073Y-17546556D01*
X8047549Y-17584651D01*
X8038025Y-17603699D01*
X8028501Y-17613222D01*
X8009454Y-17622746D01*
X7990406Y-17622746D01*
X7971358Y-17613222D01*
X7961835Y-17603699D01*
X7952311Y-17584651D01*
X7942787Y-17546556D01*
X7942787Y-17498937D01*
X7952311Y-17460841D01*
X7961835Y-17441794D01*
X7971358Y-17432270D01*
X7990406Y-17422746D01*
X8142787Y-17603699D02*
X8152311Y-17613222D01*
X8142787Y-17622746D01*
X8133263Y-17613222D01*
X8142787Y-17603699D01*
X8142787Y-17622746D01*
X8276120Y-17422746D02*
X8295168Y-17422746D01*
X8314216Y-17432270D01*
X8323739Y-17441794D01*
X8333263Y-17460841D01*
X8342787Y-17498937D01*
X8342787Y-17546556D01*
X8333263Y-17584651D01*
X8323739Y-17603699D01*
X8314216Y-17613222D01*
X8295168Y-17622746D01*
X8276120Y-17622746D01*
X8257073Y-17613222D01*
X8247549Y-17603699D01*
X8238025Y-17584651D01*
X8228501Y-17546556D01*
X8228501Y-17498937D01*
X8238025Y-17460841D01*
X8247549Y-17441794D01*
X8257073Y-17432270D01*
X8276120Y-17422746D01*
X8409454Y-17422746D02*
X8533263Y-17422746D01*
X8466597Y-17498937D01*
X8495168Y-17498937D01*
X8514216Y-17508460D01*
X8523740Y-17517984D01*
X8533263Y-17537032D01*
X8533263Y-17584651D01*
X8523740Y-17603699D01*
X8514216Y-17613222D01*
X8495168Y-17622746D01*
X8438025Y-17622746D01*
X8418978Y-17613222D01*
X8409454Y-17603699D01*
X8657073Y-17422746D02*
X8676120Y-17422746D01*
X8695168Y-17432270D01*
X8704692Y-17441794D01*
X8714216Y-17460841D01*
X8723740Y-17498937D01*
X8723740Y-17546556D01*
X8714216Y-17584651D01*
X8704692Y-17603699D01*
X8695168Y-17613222D01*
X8676120Y-17622746D01*
X8657073Y-17622746D01*
X8638025Y-17613222D01*
X8628501Y-17603699D01*
X8618978Y-17584651D01*
X8609454Y-17546556D01*
X8609454Y-17498937D01*
X8618978Y-17460841D01*
X8628501Y-17441794D01*
X8638025Y-17432270D01*
X8657073Y-17422746D01*
X8847549Y-17422746D02*
X8866597Y-17422746D01*
X8885644Y-17432270D01*
X8895168Y-17441794D01*
X8904692Y-17460841D01*
X8914216Y-17498937D01*
X8914216Y-17546556D01*
X8904692Y-17584651D01*
X8895168Y-17603699D01*
X8885644Y-17613222D01*
X8866597Y-17622746D01*
X8847549Y-17622746D01*
X8828501Y-17613222D01*
X8818978Y-17603699D01*
X8809454Y-17584651D01*
X8799930Y-17546556D01*
X8799930Y-17498937D01*
X8809454Y-17460841D01*
X8818978Y-17441794D01*
X8828501Y-17432270D01*
X8847549Y-17422746D01*
X8990406Y-17422746D02*
X8990406Y-17460841D01*
X9066597Y-17422746D02*
X9066597Y-17460841D01*
X9361835Y-17698937D02*
X9352311Y-17689413D01*
X9333263Y-17660841D01*
X9323740Y-17641794D01*
X9314216Y-17613222D01*
X9304692Y-17565603D01*
X9304692Y-17527508D01*
X9314216Y-17479889D01*
X9323740Y-17451318D01*
X9333263Y-17432270D01*
X9352311Y-17403699D01*
X9361835Y-17394175D01*
X9542787Y-17622746D02*
X9428501Y-17622746D01*
X9485644Y-17622746D02*
X9485644Y-17422746D01*
X9466597Y-17451318D01*
X9447549Y-17470365D01*
X9428501Y-17479889D01*
X9714216Y-17489413D02*
X9714216Y-17622746D01*
X9666597Y-17413222D02*
X9618978Y-17556080D01*
X9742787Y-17556080D01*
X9971359Y-17622746D02*
X9971359Y-17422746D01*
X10057073Y-17622746D02*
X10057073Y-17517984D01*
X10047549Y-17498937D01*
X10028501Y-17489413D01*
X9999930Y-17489413D01*
X9980882Y-17498937D01*
X9971359Y-17508460D01*
X10180882Y-17622746D02*
X10161835Y-17613222D01*
X10152311Y-17603699D01*
X10142787Y-17584651D01*
X10142787Y-17527508D01*
X10152311Y-17508460D01*
X10161835Y-17498937D01*
X10180882Y-17489413D01*
X10209454Y-17489413D01*
X10228501Y-17498937D01*
X10238025Y-17508460D01*
X10247549Y-17527508D01*
X10247549Y-17584651D01*
X10238025Y-17603699D01*
X10228501Y-17613222D01*
X10209454Y-17622746D01*
X10180882Y-17622746D01*
X10361835Y-17622746D02*
X10342787Y-17613222D01*
X10333263Y-17594175D01*
X10333263Y-17422746D01*
X10514216Y-17613222D02*
X10495168Y-17622746D01*
X10457073Y-17622746D01*
X10438025Y-17613222D01*
X10428501Y-17594175D01*
X10428501Y-17517984D01*
X10438025Y-17498937D01*
X10457073Y-17489413D01*
X10495168Y-17489413D01*
X10514216Y-17498937D01*
X10523740Y-17517984D01*
X10523740Y-17537032D01*
X10428501Y-17556080D01*
X10599930Y-17613222D02*
X10618978Y-17622746D01*
X10657073Y-17622746D01*
X10676120Y-17613222D01*
X10685644Y-17594175D01*
X10685644Y-17584651D01*
X10676120Y-17565603D01*
X10657073Y-17556080D01*
X10628501Y-17556080D01*
X10609454Y-17546556D01*
X10599930Y-17527508D01*
X10599930Y-17517984D01*
X10609454Y-17498937D01*
X10628501Y-17489413D01*
X10657073Y-17489413D01*
X10676120Y-17498937D01*
X10752311Y-17698937D02*
X10761835Y-17689413D01*
X10780882Y-17660841D01*
X10790406Y-17641794D01*
X10799930Y-17613222D01*
X10809454Y-17565603D01*
X10809454Y-17527508D01*
X10799930Y-17479889D01*
X10790406Y-17451318D01*
X10780882Y-17432270D01*
X10761835Y-17403699D01*
X10752311Y-17394175D01*
D14*
X5789930Y-17796270D02*
G75*
G03*
X5789930Y-17796270I-40000J0D01*
G01*
D12*
X6085644Y-17686746D02*
X6104692Y-17686746D01*
X6123739Y-17696270D01*
X6133263Y-17705794D01*
X6142787Y-17724841D01*
X6152311Y-17762937D01*
X6152311Y-17810556D01*
X6142787Y-17848651D01*
X6133263Y-17867699D01*
X6123739Y-17877222D01*
X6104692Y-17886746D01*
X6085644Y-17886746D01*
X6066597Y-17877222D01*
X6057073Y-17867699D01*
X6047549Y-17848651D01*
X6038025Y-17810556D01*
X6038025Y-17762937D01*
X6047549Y-17724841D01*
X6057073Y-17705794D01*
X6066597Y-17696270D01*
X6085644Y-17686746D01*
X6238025Y-17867699D02*
X6247549Y-17877222D01*
X6238025Y-17886746D01*
X6228501Y-17877222D01*
X6238025Y-17867699D01*
X6238025Y-17886746D01*
X6361835Y-17772460D02*
X6342787Y-17762937D01*
X6333263Y-17753413D01*
X6323739Y-17734365D01*
X6323739Y-17724841D01*
X6333263Y-17705794D01*
X6342787Y-17696270D01*
X6361835Y-17686746D01*
X6399930Y-17686746D01*
X6418978Y-17696270D01*
X6428501Y-17705794D01*
X6438025Y-17724841D01*
X6438025Y-17734365D01*
X6428501Y-17753413D01*
X6418978Y-17762937D01*
X6399930Y-17772460D01*
X6361835Y-17772460D01*
X6342787Y-17781984D01*
X6333263Y-17791508D01*
X6323739Y-17810556D01*
X6323739Y-17848651D01*
X6333263Y-17867699D01*
X6342787Y-17877222D01*
X6361835Y-17886746D01*
X6399930Y-17886746D01*
X6418978Y-17877222D01*
X6428501Y-17867699D01*
X6438025Y-17848651D01*
X6438025Y-17810556D01*
X6428501Y-17791508D01*
X6418978Y-17781984D01*
X6399930Y-17772460D01*
X6561835Y-17686746D02*
X6580882Y-17686746D01*
X6599930Y-17696270D01*
X6609454Y-17705794D01*
X6618978Y-17724841D01*
X6628501Y-17762937D01*
X6628501Y-17810556D01*
X6618978Y-17848651D01*
X6609454Y-17867699D01*
X6599930Y-17877222D01*
X6580882Y-17886746D01*
X6561835Y-17886746D01*
X6542787Y-17877222D01*
X6533263Y-17867699D01*
X6523739Y-17848651D01*
X6514216Y-17810556D01*
X6514216Y-17762937D01*
X6523739Y-17724841D01*
X6533263Y-17705794D01*
X6542787Y-17696270D01*
X6561835Y-17686746D01*
X6752311Y-17686746D02*
X6771358Y-17686746D01*
X6790406Y-17696270D01*
X6799930Y-17705794D01*
X6809454Y-17724841D01*
X6818978Y-17762937D01*
X6818978Y-17810556D01*
X6809454Y-17848651D01*
X6799930Y-17867699D01*
X6790406Y-17877222D01*
X6771358Y-17886746D01*
X6752311Y-17886746D01*
X6733263Y-17877222D01*
X6723739Y-17867699D01*
X6714216Y-17848651D01*
X6704692Y-17810556D01*
X6704692Y-17762937D01*
X6714216Y-17724841D01*
X6723739Y-17705794D01*
X6733263Y-17696270D01*
X6752311Y-17686746D01*
X6904692Y-17886746D02*
X6904692Y-17753413D01*
X6904692Y-17772460D02*
X6914216Y-17762937D01*
X6933263Y-17753413D01*
X6961835Y-17753413D01*
X6980882Y-17762937D01*
X6990406Y-17781984D01*
X6990406Y-17886746D01*
X6990406Y-17781984D02*
X6999930Y-17762937D01*
X7018978Y-17753413D01*
X7047549Y-17753413D01*
X7066597Y-17762937D01*
X7076120Y-17781984D01*
X7076120Y-17886746D01*
X7171358Y-17886746D02*
X7171358Y-17753413D01*
X7171358Y-17772460D02*
X7180882Y-17762937D01*
X7199930Y-17753413D01*
X7228501Y-17753413D01*
X7247549Y-17762937D01*
X7257073Y-17781984D01*
X7257073Y-17886746D01*
X7257073Y-17781984D02*
X7266597Y-17762937D01*
X7285644Y-17753413D01*
X7314216Y-17753413D01*
X7333263Y-17762937D01*
X7342787Y-17781984D01*
X7342787Y-17886746D01*
X7733263Y-17677222D02*
X7561835Y-17934365D01*
X7990406Y-17686746D02*
X8009454Y-17686746D01*
X8028501Y-17696270D01*
X8038025Y-17705794D01*
X8047549Y-17724841D01*
X8057073Y-17762937D01*
X8057073Y-17810556D01*
X8047549Y-17848651D01*
X8038025Y-17867699D01*
X8028501Y-17877222D01*
X8009454Y-17886746D01*
X7990406Y-17886746D01*
X7971358Y-17877222D01*
X7961835Y-17867699D01*
X7952311Y-17848651D01*
X7942787Y-17810556D01*
X7942787Y-17762937D01*
X7952311Y-17724841D01*
X7961835Y-17705794D01*
X7971358Y-17696270D01*
X7990406Y-17686746D01*
X8142787Y-17867699D02*
X8152311Y-17877222D01*
X8142787Y-17886746D01*
X8133263Y-17877222D01*
X8142787Y-17867699D01*
X8142787Y-17886746D01*
X8276120Y-17686746D02*
X8295168Y-17686746D01*
X8314216Y-17696270D01*
X8323739Y-17705794D01*
X8333263Y-17724841D01*
X8342787Y-17762937D01*
X8342787Y-17810556D01*
X8333263Y-17848651D01*
X8323739Y-17867699D01*
X8314216Y-17877222D01*
X8295168Y-17886746D01*
X8276120Y-17886746D01*
X8257073Y-17877222D01*
X8247549Y-17867699D01*
X8238025Y-17848651D01*
X8228501Y-17810556D01*
X8228501Y-17762937D01*
X8238025Y-17724841D01*
X8247549Y-17705794D01*
X8257073Y-17696270D01*
X8276120Y-17686746D01*
X8409454Y-17686746D02*
X8533263Y-17686746D01*
X8466597Y-17762937D01*
X8495168Y-17762937D01*
X8514216Y-17772460D01*
X8523740Y-17781984D01*
X8533263Y-17801032D01*
X8533263Y-17848651D01*
X8523740Y-17867699D01*
X8514216Y-17877222D01*
X8495168Y-17886746D01*
X8438025Y-17886746D01*
X8418978Y-17877222D01*
X8409454Y-17867699D01*
X8723740Y-17886746D02*
X8609454Y-17886746D01*
X8666597Y-17886746D02*
X8666597Y-17686746D01*
X8647549Y-17715318D01*
X8628501Y-17734365D01*
X8609454Y-17743889D01*
X8904692Y-17686746D02*
X8809454Y-17686746D01*
X8799930Y-17781984D01*
X8809454Y-17772460D01*
X8828501Y-17762937D01*
X8876120Y-17762937D01*
X8895168Y-17772460D01*
X8904692Y-17781984D01*
X8914216Y-17801032D01*
X8914216Y-17848651D01*
X8904692Y-17867699D01*
X8895168Y-17877222D01*
X8876120Y-17886746D01*
X8828501Y-17886746D01*
X8809454Y-17877222D01*
X8799930Y-17867699D01*
X8990406Y-17686746D02*
X8990406Y-17724841D01*
X9066597Y-17686746D02*
X9066597Y-17724841D01*
X9361835Y-17962937D02*
X9352311Y-17953413D01*
X9333263Y-17924841D01*
X9323740Y-17905794D01*
X9314216Y-17877222D01*
X9304692Y-17829603D01*
X9304692Y-17791508D01*
X9314216Y-17743889D01*
X9323740Y-17715318D01*
X9333263Y-17696270D01*
X9352311Y-17667699D01*
X9361835Y-17658175D01*
X9418978Y-17686746D02*
X9552311Y-17686746D01*
X9466597Y-17886746D01*
X9780882Y-17886746D02*
X9780882Y-17686746D01*
X9866597Y-17886746D02*
X9866597Y-17781984D01*
X9857073Y-17762937D01*
X9838025Y-17753413D01*
X9809454Y-17753413D01*
X9790406Y-17762937D01*
X9780882Y-17772460D01*
X9990406Y-17886746D02*
X9971359Y-17877222D01*
X9961835Y-17867699D01*
X9952311Y-17848651D01*
X9952311Y-17791508D01*
X9961835Y-17772460D01*
X9971359Y-17762937D01*
X9990406Y-17753413D01*
X10018978Y-17753413D01*
X10038025Y-17762937D01*
X10047549Y-17772460D01*
X10057073Y-17791508D01*
X10057073Y-17848651D01*
X10047549Y-17867699D01*
X10038025Y-17877222D01*
X10018978Y-17886746D01*
X9990406Y-17886746D01*
X10171359Y-17886746D02*
X10152311Y-17877222D01*
X10142787Y-17858175D01*
X10142787Y-17686746D01*
X10323740Y-17877222D02*
X10304692Y-17886746D01*
X10266597Y-17886746D01*
X10247549Y-17877222D01*
X10238025Y-17858175D01*
X10238025Y-17781984D01*
X10247549Y-17762937D01*
X10266597Y-17753413D01*
X10304692Y-17753413D01*
X10323740Y-17762937D01*
X10333263Y-17781984D01*
X10333263Y-17801032D01*
X10238025Y-17820080D01*
X10409454Y-17877222D02*
X10428501Y-17886746D01*
X10466597Y-17886746D01*
X10485644Y-17877222D01*
X10495168Y-17858175D01*
X10495168Y-17848651D01*
X10485644Y-17829603D01*
X10466597Y-17820080D01*
X10438025Y-17820080D01*
X10418978Y-17810556D01*
X10409454Y-17791508D01*
X10409454Y-17781984D01*
X10418978Y-17762937D01*
X10438025Y-17753413D01*
X10466597Y-17753413D01*
X10485644Y-17762937D01*
X10561835Y-17962937D02*
X10571359Y-17953413D01*
X10590406Y-17924841D01*
X10599930Y-17905794D01*
X10609454Y-17877222D01*
X10618978Y-17829603D01*
X10618978Y-17791508D01*
X10609454Y-17743889D01*
X10599930Y-17715318D01*
X10590406Y-17696270D01*
X10571359Y-17667699D01*
X10561835Y-17658175D01*
D15*
X5739930Y-18010270D02*
X5739930Y-18110270D01*
X5689930Y-18060270D02*
X5789930Y-18060270D01*
D12*
X6152311Y-18150746D02*
X6038025Y-18150746D01*
X6095168Y-18150746D02*
X6095168Y-17950746D01*
X6076120Y-17979318D01*
X6057073Y-17998365D01*
X6038025Y-18007889D01*
X6238025Y-18131699D02*
X6247549Y-18141222D01*
X6238025Y-18150746D01*
X6228501Y-18141222D01*
X6238025Y-18131699D01*
X6238025Y-18150746D01*
X6371358Y-17950746D02*
X6390406Y-17950746D01*
X6409454Y-17960270D01*
X6418978Y-17969794D01*
X6428501Y-17988841D01*
X6438025Y-18026937D01*
X6438025Y-18074556D01*
X6428501Y-18112651D01*
X6418978Y-18131699D01*
X6409454Y-18141222D01*
X6390406Y-18150746D01*
X6371358Y-18150746D01*
X6352311Y-18141222D01*
X6342787Y-18131699D01*
X6333263Y-18112651D01*
X6323739Y-18074556D01*
X6323739Y-18026937D01*
X6333263Y-17988841D01*
X6342787Y-17969794D01*
X6352311Y-17960270D01*
X6371358Y-17950746D01*
X6561835Y-17950746D02*
X6580882Y-17950746D01*
X6599930Y-17960270D01*
X6609454Y-17969794D01*
X6618978Y-17988841D01*
X6628501Y-18026937D01*
X6628501Y-18074556D01*
X6618978Y-18112651D01*
X6609454Y-18131699D01*
X6599930Y-18141222D01*
X6580882Y-18150746D01*
X6561835Y-18150746D01*
X6542787Y-18141222D01*
X6533263Y-18131699D01*
X6523739Y-18112651D01*
X6514216Y-18074556D01*
X6514216Y-18026937D01*
X6523739Y-17988841D01*
X6533263Y-17969794D01*
X6542787Y-17960270D01*
X6561835Y-17950746D01*
X6752311Y-17950746D02*
X6771358Y-17950746D01*
X6790406Y-17960270D01*
X6799930Y-17969794D01*
X6809454Y-17988841D01*
X6818978Y-18026937D01*
X6818978Y-18074556D01*
X6809454Y-18112651D01*
X6799930Y-18131699D01*
X6790406Y-18141222D01*
X6771358Y-18150746D01*
X6752311Y-18150746D01*
X6733263Y-18141222D01*
X6723739Y-18131699D01*
X6714216Y-18112651D01*
X6704692Y-18074556D01*
X6704692Y-18026937D01*
X6714216Y-17988841D01*
X6723739Y-17969794D01*
X6733263Y-17960270D01*
X6752311Y-17950746D01*
X6904692Y-18150746D02*
X6904692Y-18017413D01*
X6904692Y-18036460D02*
X6914216Y-18026937D01*
X6933263Y-18017413D01*
X6961835Y-18017413D01*
X6980882Y-18026937D01*
X6990406Y-18045984D01*
X6990406Y-18150746D01*
X6990406Y-18045984D02*
X6999930Y-18026937D01*
X7018978Y-18017413D01*
X7047549Y-18017413D01*
X7066597Y-18026937D01*
X7076120Y-18045984D01*
X7076120Y-18150746D01*
X7171358Y-18150746D02*
X7171358Y-18017413D01*
X7171358Y-18036460D02*
X7180882Y-18026937D01*
X7199930Y-18017413D01*
X7228501Y-18017413D01*
X7247549Y-18026937D01*
X7257073Y-18045984D01*
X7257073Y-18150746D01*
X7257073Y-18045984D02*
X7266597Y-18026937D01*
X7285644Y-18017413D01*
X7314216Y-18017413D01*
X7333263Y-18026937D01*
X7342787Y-18045984D01*
X7342787Y-18150746D01*
X7733263Y-17941222D02*
X7561835Y-18198365D01*
X7990406Y-17950746D02*
X8009454Y-17950746D01*
X8028501Y-17960270D01*
X8038025Y-17969794D01*
X8047549Y-17988841D01*
X8057073Y-18026937D01*
X8057073Y-18074556D01*
X8047549Y-18112651D01*
X8038025Y-18131699D01*
X8028501Y-18141222D01*
X8009454Y-18150746D01*
X7990406Y-18150746D01*
X7971358Y-18141222D01*
X7961835Y-18131699D01*
X7952311Y-18112651D01*
X7942787Y-18074556D01*
X7942787Y-18026937D01*
X7952311Y-17988841D01*
X7961835Y-17969794D01*
X7971358Y-17960270D01*
X7990406Y-17950746D01*
X8142787Y-18131699D02*
X8152311Y-18141222D01*
X8142787Y-18150746D01*
X8133263Y-18141222D01*
X8142787Y-18131699D01*
X8142787Y-18150746D01*
X8276120Y-17950746D02*
X8295168Y-17950746D01*
X8314216Y-17960270D01*
X8323739Y-17969794D01*
X8333263Y-17988841D01*
X8342787Y-18026937D01*
X8342787Y-18074556D01*
X8333263Y-18112651D01*
X8323739Y-18131699D01*
X8314216Y-18141222D01*
X8295168Y-18150746D01*
X8276120Y-18150746D01*
X8257073Y-18141222D01*
X8247549Y-18131699D01*
X8238025Y-18112651D01*
X8228501Y-18074556D01*
X8228501Y-18026937D01*
X8238025Y-17988841D01*
X8247549Y-17969794D01*
X8257073Y-17960270D01*
X8276120Y-17950746D01*
X8409454Y-17950746D02*
X8533263Y-17950746D01*
X8466597Y-18026937D01*
X8495168Y-18026937D01*
X8514216Y-18036460D01*
X8523740Y-18045984D01*
X8533263Y-18065032D01*
X8533263Y-18112651D01*
X8523740Y-18131699D01*
X8514216Y-18141222D01*
X8495168Y-18150746D01*
X8438025Y-18150746D01*
X8418978Y-18141222D01*
X8409454Y-18131699D01*
X8628501Y-18150746D02*
X8666597Y-18150746D01*
X8685644Y-18141222D01*
X8695168Y-18131699D01*
X8714216Y-18103127D01*
X8723740Y-18065032D01*
X8723740Y-17988841D01*
X8714216Y-17969794D01*
X8704692Y-17960270D01*
X8685644Y-17950746D01*
X8647549Y-17950746D01*
X8628501Y-17960270D01*
X8618978Y-17969794D01*
X8609454Y-17988841D01*
X8609454Y-18036460D01*
X8618978Y-18055508D01*
X8628501Y-18065032D01*
X8647549Y-18074556D01*
X8685644Y-18074556D01*
X8704692Y-18065032D01*
X8714216Y-18055508D01*
X8723740Y-18036460D01*
X8895168Y-18017413D02*
X8895168Y-18150746D01*
X8847549Y-17941222D02*
X8799930Y-18084080D01*
X8923740Y-18084080D01*
X8990406Y-17950746D02*
X8990406Y-17988841D01*
X9066597Y-17950746D02*
X9066597Y-17988841D01*
X9361835Y-18226937D02*
X9352311Y-18217413D01*
X9333263Y-18188841D01*
X9323740Y-18169794D01*
X9314216Y-18141222D01*
X9304692Y-18093603D01*
X9304692Y-18055508D01*
X9314216Y-18007889D01*
X9323740Y-17979318D01*
X9333263Y-17960270D01*
X9352311Y-17931699D01*
X9361835Y-17922175D01*
X9523740Y-18017413D02*
X9523740Y-18150746D01*
X9476120Y-17941222D02*
X9428501Y-18084080D01*
X9552311Y-18084080D01*
X9780882Y-18150746D02*
X9780882Y-17950746D01*
X9866597Y-18150746D02*
X9866597Y-18045984D01*
X9857073Y-18026937D01*
X9838025Y-18017413D01*
X9809454Y-18017413D01*
X9790406Y-18026937D01*
X9780882Y-18036460D01*
X9990406Y-18150746D02*
X9971359Y-18141222D01*
X9961835Y-18131699D01*
X9952311Y-18112651D01*
X9952311Y-18055508D01*
X9961835Y-18036460D01*
X9971359Y-18026937D01*
X9990406Y-18017413D01*
X10018978Y-18017413D01*
X10038025Y-18026937D01*
X10047549Y-18036460D01*
X10057073Y-18055508D01*
X10057073Y-18112651D01*
X10047549Y-18131699D01*
X10038025Y-18141222D01*
X10018978Y-18150746D01*
X9990406Y-18150746D01*
X10171359Y-18150746D02*
X10152311Y-18141222D01*
X10142787Y-18122175D01*
X10142787Y-17950746D01*
X10323740Y-18141222D02*
X10304692Y-18150746D01*
X10266597Y-18150746D01*
X10247549Y-18141222D01*
X10238025Y-18122175D01*
X10238025Y-18045984D01*
X10247549Y-18026937D01*
X10266597Y-18017413D01*
X10304692Y-18017413D01*
X10323740Y-18026937D01*
X10333263Y-18045984D01*
X10333263Y-18065032D01*
X10238025Y-18084080D01*
X10409454Y-18141222D02*
X10428501Y-18150746D01*
X10466597Y-18150746D01*
X10485644Y-18141222D01*
X10495168Y-18122175D01*
X10495168Y-18112651D01*
X10485644Y-18093603D01*
X10466597Y-18084080D01*
X10438025Y-18084080D01*
X10418978Y-18074556D01*
X10409454Y-18055508D01*
X10409454Y-18045984D01*
X10418978Y-18026937D01*
X10438025Y-18017413D01*
X10466597Y-18017413D01*
X10485644Y-18026937D01*
X10561835Y-18226937D02*
X10571359Y-18217413D01*
X10590406Y-18188841D01*
X10599930Y-18169794D01*
X10609454Y-18141222D01*
X10618978Y-18093603D01*
X10618978Y-18055508D01*
X10609454Y-18007889D01*
X10599930Y-17979318D01*
X10590406Y-17960270D01*
X10571359Y-17931699D01*
X10561835Y-17922175D01*
D16*
X5774993Y-18360333D02*
X5774993Y-18288207D01*
X5702867Y-18288207D01*
X5702867Y-18360333D01*
X5774993Y-18360333D01*
D12*
X6152311Y-18414746D02*
X6038025Y-18414746D01*
X6095168Y-18414746D02*
X6095168Y-18214746D01*
X6076120Y-18243318D01*
X6057073Y-18262365D01*
X6038025Y-18271889D01*
X6238025Y-18395699D02*
X6247549Y-18405222D01*
X6238025Y-18414746D01*
X6228501Y-18405222D01*
X6238025Y-18395699D01*
X6238025Y-18414746D01*
X6371358Y-18214746D02*
X6390406Y-18214746D01*
X6409454Y-18224270D01*
X6418978Y-18233794D01*
X6428501Y-18252841D01*
X6438025Y-18290937D01*
X6438025Y-18338556D01*
X6428501Y-18376651D01*
X6418978Y-18395699D01*
X6409454Y-18405222D01*
X6390406Y-18414746D01*
X6371358Y-18414746D01*
X6352311Y-18405222D01*
X6342787Y-18395699D01*
X6333263Y-18376651D01*
X6323739Y-18338556D01*
X6323739Y-18290937D01*
X6333263Y-18252841D01*
X6342787Y-18233794D01*
X6352311Y-18224270D01*
X6371358Y-18214746D01*
X6514216Y-18233794D02*
X6523739Y-18224270D01*
X6542787Y-18214746D01*
X6590406Y-18214746D01*
X6609454Y-18224270D01*
X6618978Y-18233794D01*
X6628501Y-18252841D01*
X6628501Y-18271889D01*
X6618978Y-18300460D01*
X6504692Y-18414746D01*
X6628501Y-18414746D01*
X6752311Y-18214746D02*
X6771358Y-18214746D01*
X6790406Y-18224270D01*
X6799930Y-18233794D01*
X6809454Y-18252841D01*
X6818978Y-18290937D01*
X6818978Y-18338556D01*
X6809454Y-18376651D01*
X6799930Y-18395699D01*
X6790406Y-18405222D01*
X6771358Y-18414746D01*
X6752311Y-18414746D01*
X6733263Y-18405222D01*
X6723739Y-18395699D01*
X6714216Y-18376651D01*
X6704692Y-18338556D01*
X6704692Y-18290937D01*
X6714216Y-18252841D01*
X6723739Y-18233794D01*
X6733263Y-18224270D01*
X6752311Y-18214746D01*
X6904692Y-18414746D02*
X6904692Y-18281413D01*
X6904692Y-18300460D02*
X6914216Y-18290937D01*
X6933263Y-18281413D01*
X6961835Y-18281413D01*
X6980882Y-18290937D01*
X6990406Y-18309984D01*
X6990406Y-18414746D01*
X6990406Y-18309984D02*
X6999930Y-18290937D01*
X7018978Y-18281413D01*
X7047549Y-18281413D01*
X7066597Y-18290937D01*
X7076120Y-18309984D01*
X7076120Y-18414746D01*
X7171358Y-18414746D02*
X7171358Y-18281413D01*
X7171358Y-18300460D02*
X7180882Y-18290937D01*
X7199930Y-18281413D01*
X7228501Y-18281413D01*
X7247549Y-18290937D01*
X7257073Y-18309984D01*
X7257073Y-18414746D01*
X7257073Y-18309984D02*
X7266597Y-18290937D01*
X7285644Y-18281413D01*
X7314216Y-18281413D01*
X7333263Y-18290937D01*
X7342787Y-18309984D01*
X7342787Y-18414746D01*
X7733263Y-18205222D02*
X7561835Y-18462365D01*
X7990406Y-18214746D02*
X8009454Y-18214746D01*
X8028501Y-18224270D01*
X8038025Y-18233794D01*
X8047549Y-18252841D01*
X8057073Y-18290937D01*
X8057073Y-18338556D01*
X8047549Y-18376651D01*
X8038025Y-18395699D01*
X8028501Y-18405222D01*
X8009454Y-18414746D01*
X7990406Y-18414746D01*
X7971358Y-18405222D01*
X7961835Y-18395699D01*
X7952311Y-18376651D01*
X7942787Y-18338556D01*
X7942787Y-18290937D01*
X7952311Y-18252841D01*
X7961835Y-18233794D01*
X7971358Y-18224270D01*
X7990406Y-18214746D01*
X8142787Y-18395699D02*
X8152311Y-18405222D01*
X8142787Y-18414746D01*
X8133263Y-18405222D01*
X8142787Y-18395699D01*
X8142787Y-18414746D01*
X8276120Y-18214746D02*
X8295168Y-18214746D01*
X8314216Y-18224270D01*
X8323739Y-18233794D01*
X8333263Y-18252841D01*
X8342787Y-18290937D01*
X8342787Y-18338556D01*
X8333263Y-18376651D01*
X8323739Y-18395699D01*
X8314216Y-18405222D01*
X8295168Y-18414746D01*
X8276120Y-18414746D01*
X8257073Y-18405222D01*
X8247549Y-18395699D01*
X8238025Y-18376651D01*
X8228501Y-18338556D01*
X8228501Y-18290937D01*
X8238025Y-18252841D01*
X8247549Y-18233794D01*
X8257073Y-18224270D01*
X8276120Y-18214746D01*
X8514216Y-18281413D02*
X8514216Y-18414746D01*
X8466597Y-18205222D02*
X8418978Y-18348080D01*
X8542787Y-18348080D01*
X8657073Y-18214746D02*
X8676120Y-18214746D01*
X8695168Y-18224270D01*
X8704692Y-18233794D01*
X8714216Y-18252841D01*
X8723740Y-18290937D01*
X8723740Y-18338556D01*
X8714216Y-18376651D01*
X8704692Y-18395699D01*
X8695168Y-18405222D01*
X8676120Y-18414746D01*
X8657073Y-18414746D01*
X8638025Y-18405222D01*
X8628501Y-18395699D01*
X8618978Y-18376651D01*
X8609454Y-18338556D01*
X8609454Y-18290937D01*
X8618978Y-18252841D01*
X8628501Y-18233794D01*
X8638025Y-18224270D01*
X8657073Y-18214746D01*
X8799930Y-18233794D02*
X8809454Y-18224270D01*
X8828501Y-18214746D01*
X8876120Y-18214746D01*
X8895168Y-18224270D01*
X8904692Y-18233794D01*
X8914216Y-18252841D01*
X8914216Y-18271889D01*
X8904692Y-18300460D01*
X8790406Y-18414746D01*
X8914216Y-18414746D01*
X8990406Y-18214746D02*
X8990406Y-18252841D01*
X9066597Y-18214746D02*
X9066597Y-18252841D01*
X9361835Y-18490937D02*
X9352311Y-18481413D01*
X9333263Y-18452841D01*
X9323740Y-18433794D01*
X9314216Y-18405222D01*
X9304692Y-18357603D01*
X9304692Y-18319508D01*
X9314216Y-18271889D01*
X9323740Y-18243318D01*
X9333263Y-18224270D01*
X9352311Y-18195699D01*
X9361835Y-18186175D01*
X9523740Y-18281413D02*
X9523740Y-18414746D01*
X9476120Y-18205222D02*
X9428501Y-18348080D01*
X9552311Y-18348080D01*
X9609454Y-18214746D02*
X9733263Y-18214746D01*
X9666597Y-18290937D01*
X9695168Y-18290937D01*
X9714216Y-18300460D01*
X9723740Y-18309984D01*
X9733263Y-18329032D01*
X9733263Y-18376651D01*
X9723740Y-18395699D01*
X9714216Y-18405222D01*
X9695168Y-18414746D01*
X9638025Y-18414746D01*
X9618978Y-18405222D01*
X9609454Y-18395699D01*
X9971359Y-18414746D02*
X9971359Y-18214746D01*
X10057073Y-18414746D02*
X10057073Y-18309984D01*
X10047549Y-18290937D01*
X10028501Y-18281413D01*
X9999930Y-18281413D01*
X9980882Y-18290937D01*
X9971359Y-18300460D01*
X10180882Y-18414746D02*
X10161835Y-18405222D01*
X10152311Y-18395699D01*
X10142787Y-18376651D01*
X10142787Y-18319508D01*
X10152311Y-18300460D01*
X10161835Y-18290937D01*
X10180882Y-18281413D01*
X10209454Y-18281413D01*
X10228501Y-18290937D01*
X10238025Y-18300460D01*
X10247549Y-18319508D01*
X10247549Y-18376651D01*
X10238025Y-18395699D01*
X10228501Y-18405222D01*
X10209454Y-18414746D01*
X10180882Y-18414746D01*
X10361835Y-18414746D02*
X10342787Y-18405222D01*
X10333263Y-18386175D01*
X10333263Y-18214746D01*
X10514216Y-18405222D02*
X10495168Y-18414746D01*
X10457073Y-18414746D01*
X10438025Y-18405222D01*
X10428501Y-18386175D01*
X10428501Y-18309984D01*
X10438025Y-18290937D01*
X10457073Y-18281413D01*
X10495168Y-18281413D01*
X10514216Y-18290937D01*
X10523740Y-18309984D01*
X10523740Y-18329032D01*
X10428501Y-18348080D01*
X10599930Y-18405222D02*
X10618978Y-18414746D01*
X10657073Y-18414746D01*
X10676120Y-18405222D01*
X10685644Y-18386175D01*
X10685644Y-18376651D01*
X10676120Y-18357603D01*
X10657073Y-18348080D01*
X10628501Y-18348080D01*
X10609454Y-18338556D01*
X10599930Y-18319508D01*
X10599930Y-18309984D01*
X10609454Y-18290937D01*
X10628501Y-18281413D01*
X10657073Y-18281413D01*
X10676120Y-18290937D01*
X10752311Y-18490937D02*
X10761835Y-18481413D01*
X10780882Y-18452841D01*
X10790406Y-18433794D01*
X10799930Y-18405222D01*
X10809454Y-18357603D01*
X10809454Y-18319508D01*
X10799930Y-18271889D01*
X10790406Y-18243318D01*
X10780882Y-18224270D01*
X10761835Y-18195699D01*
X10752311Y-18186175D01*
D17*
X5734930Y-18643270D02*
X5789930Y-18588270D01*
X5734930Y-18533270D01*
X5679930Y-18588270D01*
X5734930Y-18643270D01*
D12*
X6152311Y-18678746D02*
X6038025Y-18678746D01*
X6095168Y-18678746D02*
X6095168Y-18478746D01*
X6076120Y-18507318D01*
X6057073Y-18526365D01*
X6038025Y-18535889D01*
X6238025Y-18659699D02*
X6247549Y-18669222D01*
X6238025Y-18678746D01*
X6228501Y-18669222D01*
X6238025Y-18659699D01*
X6238025Y-18678746D01*
X6438025Y-18678746D02*
X6323739Y-18678746D01*
X6380882Y-18678746D02*
X6380882Y-18478746D01*
X6361835Y-18507318D01*
X6342787Y-18526365D01*
X6323739Y-18535889D01*
X6561835Y-18478746D02*
X6580882Y-18478746D01*
X6599930Y-18488270D01*
X6609454Y-18497794D01*
X6618978Y-18516841D01*
X6628501Y-18554937D01*
X6628501Y-18602556D01*
X6618978Y-18640651D01*
X6609454Y-18659699D01*
X6599930Y-18669222D01*
X6580882Y-18678746D01*
X6561835Y-18678746D01*
X6542787Y-18669222D01*
X6533263Y-18659699D01*
X6523739Y-18640651D01*
X6514216Y-18602556D01*
X6514216Y-18554937D01*
X6523739Y-18516841D01*
X6533263Y-18497794D01*
X6542787Y-18488270D01*
X6561835Y-18478746D01*
X6752311Y-18478746D02*
X6771358Y-18478746D01*
X6790406Y-18488270D01*
X6799930Y-18497794D01*
X6809454Y-18516841D01*
X6818978Y-18554937D01*
X6818978Y-18602556D01*
X6809454Y-18640651D01*
X6799930Y-18659699D01*
X6790406Y-18669222D01*
X6771358Y-18678746D01*
X6752311Y-18678746D01*
X6733263Y-18669222D01*
X6723739Y-18659699D01*
X6714216Y-18640651D01*
X6704692Y-18602556D01*
X6704692Y-18554937D01*
X6714216Y-18516841D01*
X6723739Y-18497794D01*
X6733263Y-18488270D01*
X6752311Y-18478746D01*
X6904692Y-18678746D02*
X6904692Y-18545413D01*
X6904692Y-18564460D02*
X6914216Y-18554937D01*
X6933263Y-18545413D01*
X6961835Y-18545413D01*
X6980882Y-18554937D01*
X6990406Y-18573984D01*
X6990406Y-18678746D01*
X6990406Y-18573984D02*
X6999930Y-18554937D01*
X7018978Y-18545413D01*
X7047549Y-18545413D01*
X7066597Y-18554937D01*
X7076120Y-18573984D01*
X7076120Y-18678746D01*
X7171358Y-18678746D02*
X7171358Y-18545413D01*
X7171358Y-18564460D02*
X7180882Y-18554937D01*
X7199930Y-18545413D01*
X7228501Y-18545413D01*
X7247549Y-18554937D01*
X7257073Y-18573984D01*
X7257073Y-18678746D01*
X7257073Y-18573984D02*
X7266597Y-18554937D01*
X7285644Y-18545413D01*
X7314216Y-18545413D01*
X7333263Y-18554937D01*
X7342787Y-18573984D01*
X7342787Y-18678746D01*
X7733263Y-18469222D02*
X7561835Y-18726365D01*
X7990406Y-18478746D02*
X8009454Y-18478746D01*
X8028501Y-18488270D01*
X8038025Y-18497794D01*
X8047549Y-18516841D01*
X8057073Y-18554937D01*
X8057073Y-18602556D01*
X8047549Y-18640651D01*
X8038025Y-18659699D01*
X8028501Y-18669222D01*
X8009454Y-18678746D01*
X7990406Y-18678746D01*
X7971358Y-18669222D01*
X7961835Y-18659699D01*
X7952311Y-18640651D01*
X7942787Y-18602556D01*
X7942787Y-18554937D01*
X7952311Y-18516841D01*
X7961835Y-18497794D01*
X7971358Y-18488270D01*
X7990406Y-18478746D01*
X8142787Y-18659699D02*
X8152311Y-18669222D01*
X8142787Y-18678746D01*
X8133263Y-18669222D01*
X8142787Y-18659699D01*
X8142787Y-18678746D01*
X8276120Y-18478746D02*
X8295168Y-18478746D01*
X8314216Y-18488270D01*
X8323739Y-18497794D01*
X8333263Y-18516841D01*
X8342787Y-18554937D01*
X8342787Y-18602556D01*
X8333263Y-18640651D01*
X8323739Y-18659699D01*
X8314216Y-18669222D01*
X8295168Y-18678746D01*
X8276120Y-18678746D01*
X8257073Y-18669222D01*
X8247549Y-18659699D01*
X8238025Y-18640651D01*
X8228501Y-18602556D01*
X8228501Y-18554937D01*
X8238025Y-18516841D01*
X8247549Y-18497794D01*
X8257073Y-18488270D01*
X8276120Y-18478746D01*
X8514216Y-18545413D02*
X8514216Y-18678746D01*
X8466597Y-18469222D02*
X8418978Y-18612080D01*
X8542787Y-18612080D01*
X8599930Y-18478746D02*
X8723740Y-18478746D01*
X8657073Y-18554937D01*
X8685644Y-18554937D01*
X8704692Y-18564460D01*
X8714216Y-18573984D01*
X8723740Y-18593032D01*
X8723740Y-18640651D01*
X8714216Y-18659699D01*
X8704692Y-18669222D01*
X8685644Y-18678746D01*
X8628501Y-18678746D01*
X8609454Y-18669222D01*
X8599930Y-18659699D01*
X8790406Y-18478746D02*
X8914216Y-18478746D01*
X8847549Y-18554937D01*
X8876120Y-18554937D01*
X8895168Y-18564460D01*
X8904692Y-18573984D01*
X8914216Y-18593032D01*
X8914216Y-18640651D01*
X8904692Y-18659699D01*
X8895168Y-18669222D01*
X8876120Y-18678746D01*
X8818978Y-18678746D01*
X8799930Y-18669222D01*
X8790406Y-18659699D01*
X8990406Y-18478746D02*
X8990406Y-18516841D01*
X9066597Y-18478746D02*
X9066597Y-18516841D01*
X9361835Y-18754937D02*
X9352311Y-18745413D01*
X9333263Y-18716841D01*
X9323740Y-18697794D01*
X9314216Y-18669222D01*
X9304692Y-18621603D01*
X9304692Y-18583508D01*
X9314216Y-18535889D01*
X9323740Y-18507318D01*
X9333263Y-18488270D01*
X9352311Y-18459699D01*
X9361835Y-18450175D01*
X9523740Y-18545413D02*
X9523740Y-18678746D01*
X9476120Y-18469222D02*
X9428501Y-18612080D01*
X9552311Y-18612080D01*
X9780882Y-18678746D02*
X9780882Y-18478746D01*
X9866597Y-18678746D02*
X9866597Y-18573984D01*
X9857073Y-18554937D01*
X9838025Y-18545413D01*
X9809454Y-18545413D01*
X9790406Y-18554937D01*
X9780882Y-18564460D01*
X9990406Y-18678746D02*
X9971359Y-18669222D01*
X9961835Y-18659699D01*
X9952311Y-18640651D01*
X9952311Y-18583508D01*
X9961835Y-18564460D01*
X9971359Y-18554937D01*
X9990406Y-18545413D01*
X10018978Y-18545413D01*
X10038025Y-18554937D01*
X10047549Y-18564460D01*
X10057073Y-18583508D01*
X10057073Y-18640651D01*
X10047549Y-18659699D01*
X10038025Y-18669222D01*
X10018978Y-18678746D01*
X9990406Y-18678746D01*
X10171359Y-18678746D02*
X10152311Y-18669222D01*
X10142787Y-18650175D01*
X10142787Y-18478746D01*
X10323740Y-18669222D02*
X10304692Y-18678746D01*
X10266597Y-18678746D01*
X10247549Y-18669222D01*
X10238025Y-18650175D01*
X10238025Y-18573984D01*
X10247549Y-18554937D01*
X10266597Y-18545413D01*
X10304692Y-18545413D01*
X10323740Y-18554937D01*
X10333263Y-18573984D01*
X10333263Y-18593032D01*
X10238025Y-18612080D01*
X10409454Y-18669222D02*
X10428501Y-18678746D01*
X10466597Y-18678746D01*
X10485644Y-18669222D01*
X10495168Y-18650175D01*
X10495168Y-18640651D01*
X10485644Y-18621603D01*
X10466597Y-18612080D01*
X10438025Y-18612080D01*
X10418978Y-18602556D01*
X10409454Y-18583508D01*
X10409454Y-18573984D01*
X10418978Y-18554937D01*
X10438025Y-18545413D01*
X10466597Y-18545413D01*
X10485644Y-18554937D01*
X10561835Y-18754937D02*
X10571359Y-18745413D01*
X10590406Y-18716841D01*
X10599930Y-18697794D01*
X10609454Y-18669222D01*
X10618978Y-18621603D01*
X10618978Y-18583508D01*
X10609454Y-18535889D01*
X10599930Y-18507318D01*
X10590406Y-18488270D01*
X10571359Y-18459699D01*
X10561835Y-18450175D01*
D18*
X5659930Y-18787270D02*
X5789930Y-18917270D01*
X5789930Y-18787270D02*
X5659930Y-18917270D01*
X5789930Y-18852270D02*
G75*
G03*
X5789930Y-18852270I-65000J0D01*
G01*
D12*
X6152311Y-18942746D02*
X6038025Y-18942746D01*
X6095168Y-18942746D02*
X6095168Y-18742746D01*
X6076120Y-18771318D01*
X6057073Y-18790365D01*
X6038025Y-18799889D01*
X6238025Y-18923699D02*
X6247549Y-18933222D01*
X6238025Y-18942746D01*
X6228501Y-18933222D01*
X6238025Y-18923699D01*
X6238025Y-18942746D01*
X6314216Y-18742746D02*
X6438025Y-18742746D01*
X6371358Y-18818937D01*
X6399930Y-18818937D01*
X6418978Y-18828460D01*
X6428501Y-18837984D01*
X6438025Y-18857032D01*
X6438025Y-18904651D01*
X6428501Y-18923699D01*
X6418978Y-18933222D01*
X6399930Y-18942746D01*
X6342787Y-18942746D01*
X6323739Y-18933222D01*
X6314216Y-18923699D01*
X6561835Y-18742746D02*
X6580882Y-18742746D01*
X6599930Y-18752270D01*
X6609454Y-18761794D01*
X6618978Y-18780841D01*
X6628501Y-18818937D01*
X6628501Y-18866556D01*
X6618978Y-18904651D01*
X6609454Y-18923699D01*
X6599930Y-18933222D01*
X6580882Y-18942746D01*
X6561835Y-18942746D01*
X6542787Y-18933222D01*
X6533263Y-18923699D01*
X6523739Y-18904651D01*
X6514216Y-18866556D01*
X6514216Y-18818937D01*
X6523739Y-18780841D01*
X6533263Y-18761794D01*
X6542787Y-18752270D01*
X6561835Y-18742746D01*
X6752311Y-18742746D02*
X6771358Y-18742746D01*
X6790406Y-18752270D01*
X6799930Y-18761794D01*
X6809454Y-18780841D01*
X6818978Y-18818937D01*
X6818978Y-18866556D01*
X6809454Y-18904651D01*
X6799930Y-18923699D01*
X6790406Y-18933222D01*
X6771358Y-18942746D01*
X6752311Y-18942746D01*
X6733263Y-18933222D01*
X6723739Y-18923699D01*
X6714216Y-18904651D01*
X6704692Y-18866556D01*
X6704692Y-18818937D01*
X6714216Y-18780841D01*
X6723739Y-18761794D01*
X6733263Y-18752270D01*
X6752311Y-18742746D01*
X6904692Y-18942746D02*
X6904692Y-18809413D01*
X6904692Y-18828460D02*
X6914216Y-18818937D01*
X6933263Y-18809413D01*
X6961835Y-18809413D01*
X6980882Y-18818937D01*
X6990406Y-18837984D01*
X6990406Y-18942746D01*
X6990406Y-18837984D02*
X6999930Y-18818937D01*
X7018978Y-18809413D01*
X7047549Y-18809413D01*
X7066597Y-18818937D01*
X7076120Y-18837984D01*
X7076120Y-18942746D01*
X7171358Y-18942746D02*
X7171358Y-18809413D01*
X7171358Y-18828460D02*
X7180882Y-18818937D01*
X7199930Y-18809413D01*
X7228501Y-18809413D01*
X7247549Y-18818937D01*
X7257073Y-18837984D01*
X7257073Y-18942746D01*
X7257073Y-18837984D02*
X7266597Y-18818937D01*
X7285644Y-18809413D01*
X7314216Y-18809413D01*
X7333263Y-18818937D01*
X7342787Y-18837984D01*
X7342787Y-18942746D01*
X7733263Y-18733222D02*
X7561835Y-18990365D01*
X7990406Y-18742746D02*
X8009454Y-18742746D01*
X8028501Y-18752270D01*
X8038025Y-18761794D01*
X8047549Y-18780841D01*
X8057073Y-18818937D01*
X8057073Y-18866556D01*
X8047549Y-18904651D01*
X8038025Y-18923699D01*
X8028501Y-18933222D01*
X8009454Y-18942746D01*
X7990406Y-18942746D01*
X7971358Y-18933222D01*
X7961835Y-18923699D01*
X7952311Y-18904651D01*
X7942787Y-18866556D01*
X7942787Y-18818937D01*
X7952311Y-18780841D01*
X7961835Y-18761794D01*
X7971358Y-18752270D01*
X7990406Y-18742746D01*
X8142787Y-18923699D02*
X8152311Y-18933222D01*
X8142787Y-18942746D01*
X8133263Y-18933222D01*
X8142787Y-18923699D01*
X8142787Y-18942746D01*
X8276120Y-18742746D02*
X8295168Y-18742746D01*
X8314216Y-18752270D01*
X8323739Y-18761794D01*
X8333263Y-18780841D01*
X8342787Y-18818937D01*
X8342787Y-18866556D01*
X8333263Y-18904651D01*
X8323739Y-18923699D01*
X8314216Y-18933222D01*
X8295168Y-18942746D01*
X8276120Y-18942746D01*
X8257073Y-18933222D01*
X8247549Y-18923699D01*
X8238025Y-18904651D01*
X8228501Y-18866556D01*
X8228501Y-18818937D01*
X8238025Y-18780841D01*
X8247549Y-18761794D01*
X8257073Y-18752270D01*
X8276120Y-18742746D01*
X8523740Y-18742746D02*
X8428501Y-18742746D01*
X8418978Y-18837984D01*
X8428501Y-18828460D01*
X8447549Y-18818937D01*
X8495168Y-18818937D01*
X8514216Y-18828460D01*
X8523740Y-18837984D01*
X8533263Y-18857032D01*
X8533263Y-18904651D01*
X8523740Y-18923699D01*
X8514216Y-18933222D01*
X8495168Y-18942746D01*
X8447549Y-18942746D01*
X8428501Y-18933222D01*
X8418978Y-18923699D01*
X8723740Y-18942746D02*
X8609454Y-18942746D01*
X8666597Y-18942746D02*
X8666597Y-18742746D01*
X8647549Y-18771318D01*
X8628501Y-18790365D01*
X8609454Y-18799889D01*
X8799930Y-18761794D02*
X8809454Y-18752270D01*
X8828501Y-18742746D01*
X8876120Y-18742746D01*
X8895168Y-18752270D01*
X8904692Y-18761794D01*
X8914216Y-18780841D01*
X8914216Y-18799889D01*
X8904692Y-18828460D01*
X8790406Y-18942746D01*
X8914216Y-18942746D01*
X8990406Y-18742746D02*
X8990406Y-18780841D01*
X9066597Y-18742746D02*
X9066597Y-18780841D01*
X9361835Y-19018937D02*
X9352311Y-19009413D01*
X9333263Y-18980841D01*
X9323740Y-18961794D01*
X9314216Y-18933222D01*
X9304692Y-18885603D01*
X9304692Y-18847508D01*
X9314216Y-18799889D01*
X9323740Y-18771318D01*
X9333263Y-18752270D01*
X9352311Y-18723699D01*
X9361835Y-18714175D01*
X9523740Y-18809413D02*
X9523740Y-18942746D01*
X9476120Y-18733222D02*
X9428501Y-18876080D01*
X9552311Y-18876080D01*
X9780882Y-18942746D02*
X9780882Y-18742746D01*
X9866597Y-18942746D02*
X9866597Y-18837984D01*
X9857073Y-18818937D01*
X9838025Y-18809413D01*
X9809454Y-18809413D01*
X9790406Y-18818937D01*
X9780882Y-18828460D01*
X9990406Y-18942746D02*
X9971359Y-18933222D01*
X9961835Y-18923699D01*
X9952311Y-18904651D01*
X9952311Y-18847508D01*
X9961835Y-18828460D01*
X9971359Y-18818937D01*
X9990406Y-18809413D01*
X10018978Y-18809413D01*
X10038025Y-18818937D01*
X10047549Y-18828460D01*
X10057073Y-18847508D01*
X10057073Y-18904651D01*
X10047549Y-18923699D01*
X10038025Y-18933222D01*
X10018978Y-18942746D01*
X9990406Y-18942746D01*
X10171359Y-18942746D02*
X10152311Y-18933222D01*
X10142787Y-18914175D01*
X10142787Y-18742746D01*
X10323740Y-18933222D02*
X10304692Y-18942746D01*
X10266597Y-18942746D01*
X10247549Y-18933222D01*
X10238025Y-18914175D01*
X10238025Y-18837984D01*
X10247549Y-18818937D01*
X10266597Y-18809413D01*
X10304692Y-18809413D01*
X10323740Y-18818937D01*
X10333263Y-18837984D01*
X10333263Y-18857032D01*
X10238025Y-18876080D01*
X10409454Y-18933222D02*
X10428501Y-18942746D01*
X10466597Y-18942746D01*
X10485644Y-18933222D01*
X10495168Y-18914175D01*
X10495168Y-18904651D01*
X10485644Y-18885603D01*
X10466597Y-18876080D01*
X10438025Y-18876080D01*
X10418978Y-18866556D01*
X10409454Y-18847508D01*
X10409454Y-18837984D01*
X10418978Y-18818937D01*
X10438025Y-18809413D01*
X10466597Y-18809413D01*
X10485644Y-18818937D01*
X10561835Y-19018937D02*
X10571359Y-19009413D01*
X10590406Y-18980841D01*
X10599930Y-18961794D01*
X10609454Y-18933222D01*
X10618978Y-18885603D01*
X10618978Y-18847508D01*
X10609454Y-18799889D01*
X10599930Y-18771318D01*
X10590406Y-18752270D01*
X10571359Y-18723699D01*
X10561835Y-18714175D01*
M02*
