G04 #@! TF.GenerationSoftware,KiCad,Pcbnew,(6.0.6)*
G04 #@! TF.CreationDate,2022-11-08T17:25:53-05:00*
G04 #@! TF.ProjectId,pov_display,706f765f-6469-4737-906c-61792e6b6963,v01*
G04 #@! TF.SameCoordinates,Original*
G04 #@! TF.FileFunction,Legend,Top*
G04 #@! TF.FilePolarity,Positive*
%FSLAX46Y46*%
G04 Gerber Fmt 4.6, Leading zero omitted, Abs format (unit mm)*
G04 Created by KiCad (PCBNEW (6.0.6)) date 2022-11-08 17:25:53*
%MOMM*%
%LPD*%
G01*
G04 APERTURE LIST*
G04 Aperture macros list*
%AMRoundRect*
0 Rectangle with rounded corners*
0 $1 Rounding radius*
0 $2 $3 $4 $5 $6 $7 $8 $9 X,Y pos of 4 corners*
0 Add a 4 corners polygon primitive as box body*
4,1,4,$2,$3,$4,$5,$6,$7,$8,$9,$2,$3,0*
0 Add four circle primitives for the rounded corners*
1,1,$1+$1,$2,$3*
1,1,$1+$1,$4,$5*
1,1,$1+$1,$6,$7*
1,1,$1+$1,$8,$9*
0 Add four rect primitives between the rounded corners*
20,1,$1+$1,$2,$3,$4,$5,0*
20,1,$1+$1,$4,$5,$6,$7,0*
20,1,$1+$1,$6,$7,$8,$9,0*
20,1,$1+$1,$8,$9,$2,$3,0*%
G04 Aperture macros list end*
%ADD10C,0.300000*%
%ADD11C,0.150000*%
%ADD12C,0.203200*%
%ADD13C,0.120000*%
%ADD14C,1.625600*%
%ADD15C,2.101600*%
%ADD16RoundRect,0.050800X-1.300000X-1.300000X1.300000X-1.300000X1.300000X1.300000X-1.300000X1.300000X0*%
%ADD17O,2.701600X2.701600*%
%ADD18RoundRect,0.050800X1.300000X1.300000X-1.300000X1.300000X-1.300000X-1.300000X1.300000X-1.300000X0*%
%ADD19C,2.701600*%
%ADD20RoundRect,0.050800X-0.750000X-0.750000X0.750000X-0.750000X0.750000X0.750000X-0.750000X0.750000X0*%
%ADD21C,1.601600*%
%ADD22C,1.701600*%
%ADD23O,1.601600X1.601600*%
%ADD24O,1.901600X1.901600*%
%ADD25O,1.801600X1.801600*%
%ADD26RoundRect,0.050800X-1.750000X-0.850000X1.750000X-0.850000X1.750000X0.850000X-1.750000X0.850000X0*%
%ADD27RoundRect,0.050800X-0.850000X-0.850000X0.850000X-0.850000X0.850000X0.850000X-0.850000X0.850000X0*%
%ADD28RoundRect,0.050800X0.850000X-1.750000X0.850000X1.750000X-0.850000X1.750000X-0.850000X-1.750000X0*%
G04 APERTURE END LIST*
D10*
X71195357Y-130326071D02*
X71195357Y-128826071D01*
X71695357Y-129897500D01*
X72195357Y-128826071D01*
X72195357Y-130326071D01*
X73195357Y-128826071D02*
X73481071Y-128826071D01*
X73623928Y-128897500D01*
X73766785Y-129040357D01*
X73838214Y-129326071D01*
X73838214Y-129826071D01*
X73766785Y-130111785D01*
X73623928Y-130254642D01*
X73481071Y-130326071D01*
X73195357Y-130326071D01*
X73052500Y-130254642D01*
X72909642Y-130111785D01*
X72838214Y-129826071D01*
X72838214Y-129326071D01*
X72909642Y-129040357D01*
X73052500Y-128897500D01*
X73195357Y-128826071D01*
X74409642Y-130254642D02*
X74623928Y-130326071D01*
X74981071Y-130326071D01*
X75123928Y-130254642D01*
X75195357Y-130183214D01*
X75266785Y-130040357D01*
X75266785Y-129897500D01*
X75195357Y-129754642D01*
X75123928Y-129683214D01*
X74981071Y-129611785D01*
X74695357Y-129540357D01*
X74552500Y-129468928D01*
X74481071Y-129397500D01*
X74409642Y-129254642D01*
X74409642Y-129111785D01*
X74481071Y-128968928D01*
X74552500Y-128897500D01*
X74695357Y-128826071D01*
X75052500Y-128826071D01*
X75266785Y-128897500D01*
X75909642Y-130326071D02*
X75909642Y-128826071D01*
X65227071Y-155075214D02*
X65155642Y-155146642D01*
X64941357Y-155218071D01*
X64798500Y-155218071D01*
X64584214Y-155146642D01*
X64441357Y-155003785D01*
X64369928Y-154860928D01*
X64298500Y-154575214D01*
X64298500Y-154360928D01*
X64369928Y-154075214D01*
X64441357Y-153932357D01*
X64584214Y-153789500D01*
X64798500Y-153718071D01*
X64941357Y-153718071D01*
X65155642Y-153789500D01*
X65227071Y-153860928D01*
X66155642Y-153718071D02*
X66441357Y-153718071D01*
X66584214Y-153789500D01*
X66727071Y-153932357D01*
X66798500Y-154218071D01*
X66798500Y-154718071D01*
X66727071Y-155003785D01*
X66584214Y-155146642D01*
X66441357Y-155218071D01*
X66155642Y-155218071D01*
X66012785Y-155146642D01*
X65869928Y-155003785D01*
X65798500Y-154718071D01*
X65798500Y-154218071D01*
X65869928Y-153932357D01*
X66012785Y-153789500D01*
X66155642Y-153718071D01*
X67441357Y-155218071D02*
X67441357Y-153718071D01*
X68298500Y-155218071D01*
X68298500Y-153718071D01*
X68798500Y-153718071D02*
X69655642Y-153718071D01*
X69227071Y-155218071D02*
X69227071Y-153718071D01*
X71012785Y-155218071D02*
X70512785Y-154503785D01*
X70155642Y-155218071D02*
X70155642Y-153718071D01*
X70727071Y-153718071D01*
X70869928Y-153789500D01*
X70941357Y-153860928D01*
X71012785Y-154003785D01*
X71012785Y-154218071D01*
X70941357Y-154360928D01*
X70869928Y-154432357D01*
X70727071Y-154503785D01*
X70155642Y-154503785D01*
X71941357Y-153718071D02*
X72227071Y-153718071D01*
X72369928Y-153789500D01*
X72512785Y-153932357D01*
X72584214Y-154218071D01*
X72584214Y-154718071D01*
X72512785Y-155003785D01*
X72369928Y-155146642D01*
X72227071Y-155218071D01*
X71941357Y-155218071D01*
X71798500Y-155146642D01*
X71655642Y-155003785D01*
X71584214Y-154718071D01*
X71584214Y-154218071D01*
X71655642Y-153932357D01*
X71798500Y-153789500D01*
X71941357Y-153718071D01*
X73941357Y-155218071D02*
X73227071Y-155218071D01*
X73227071Y-153718071D01*
X76084214Y-154432357D02*
X76298500Y-154503785D01*
X76369928Y-154575214D01*
X76441357Y-154718071D01*
X76441357Y-154932357D01*
X76369928Y-155075214D01*
X76298500Y-155146642D01*
X76155642Y-155218071D01*
X75584214Y-155218071D01*
X75584214Y-153718071D01*
X76084214Y-153718071D01*
X76227071Y-153789500D01*
X76298500Y-153860928D01*
X76369928Y-154003785D01*
X76369928Y-154146642D01*
X76298500Y-154289500D01*
X76227071Y-154360928D01*
X76084214Y-154432357D01*
X75584214Y-154432357D01*
X77369928Y-153718071D02*
X77655642Y-153718071D01*
X77798500Y-153789500D01*
X77941357Y-153932357D01*
X78012785Y-154218071D01*
X78012785Y-154718071D01*
X77941357Y-155003785D01*
X77798500Y-155146642D01*
X77655642Y-155218071D01*
X77369928Y-155218071D01*
X77227071Y-155146642D01*
X77084214Y-155003785D01*
X77012785Y-154718071D01*
X77012785Y-154218071D01*
X77084214Y-153932357D01*
X77227071Y-153789500D01*
X77369928Y-153718071D01*
X78584214Y-154789500D02*
X79298500Y-154789500D01*
X78441357Y-155218071D02*
X78941357Y-153718071D01*
X79441357Y-155218071D01*
X80798500Y-155218071D02*
X80298500Y-154503785D01*
X79941357Y-155218071D02*
X79941357Y-153718071D01*
X80512785Y-153718071D01*
X80655642Y-153789500D01*
X80727071Y-153860928D01*
X80798500Y-154003785D01*
X80798500Y-154218071D01*
X80727071Y-154360928D01*
X80655642Y-154432357D01*
X80512785Y-154503785D01*
X79941357Y-154503785D01*
X81441357Y-155218071D02*
X81441357Y-153718071D01*
X81798500Y-153718071D01*
X82012785Y-153789500D01*
X82155642Y-153932357D01*
X82227071Y-154075214D01*
X82298500Y-154360928D01*
X82298500Y-154575214D01*
X82227071Y-154860928D01*
X82155642Y-155003785D01*
X82012785Y-155146642D01*
X81798500Y-155218071D01*
X81441357Y-155218071D01*
X71877928Y-127206642D02*
X72092214Y-127278071D01*
X72449357Y-127278071D01*
X72592214Y-127206642D01*
X72663642Y-127135214D01*
X72735071Y-126992357D01*
X72735071Y-126849500D01*
X72663642Y-126706642D01*
X72592214Y-126635214D01*
X72449357Y-126563785D01*
X72163642Y-126492357D01*
X72020785Y-126420928D01*
X71949357Y-126349500D01*
X71877928Y-126206642D01*
X71877928Y-126063785D01*
X71949357Y-125920928D01*
X72020785Y-125849500D01*
X72163642Y-125778071D01*
X72520785Y-125778071D01*
X72735071Y-125849500D01*
X74235071Y-127135214D02*
X74163642Y-127206642D01*
X73949357Y-127278071D01*
X73806500Y-127278071D01*
X73592214Y-127206642D01*
X73449357Y-127063785D01*
X73377928Y-126920928D01*
X73306500Y-126635214D01*
X73306500Y-126420928D01*
X73377928Y-126135214D01*
X73449357Y-125992357D01*
X73592214Y-125849500D01*
X73806500Y-125778071D01*
X73949357Y-125778071D01*
X74163642Y-125849500D01*
X74235071Y-125920928D01*
X74877928Y-127278071D02*
X74877928Y-125778071D01*
X75735071Y-127278071D02*
X75092214Y-126420928D01*
X75735071Y-125778071D02*
X74877928Y-126635214D01*
X72663642Y-131691500D02*
X72520785Y-131620071D01*
X72306500Y-131620071D01*
X72092214Y-131691500D01*
X71949357Y-131834357D01*
X71877928Y-131977214D01*
X71806500Y-132262928D01*
X71806500Y-132477214D01*
X71877928Y-132762928D01*
X71949357Y-132905785D01*
X72092214Y-133048642D01*
X72306500Y-133120071D01*
X72449357Y-133120071D01*
X72663642Y-133048642D01*
X72735071Y-132977214D01*
X72735071Y-132477214D01*
X72449357Y-132477214D01*
X73377928Y-133120071D02*
X73377928Y-131620071D01*
X74235071Y-133120071D01*
X74235071Y-131620071D01*
X74949357Y-133120071D02*
X74949357Y-131620071D01*
X75306500Y-131620071D01*
X75520785Y-131691500D01*
X75663642Y-131834357D01*
X75735071Y-131977214D01*
X75806500Y-132262928D01*
X75806500Y-132477214D01*
X75735071Y-132762928D01*
X75663642Y-132905785D01*
X75520785Y-133048642D01*
X75306500Y-133120071D01*
X74949357Y-133120071D01*
X103267357Y-154432357D02*
X103767357Y-154432357D01*
X103981642Y-155218071D02*
X103267357Y-155218071D01*
X103267357Y-153718071D01*
X103981642Y-153718071D01*
X105481642Y-155075214D02*
X105410214Y-155146642D01*
X105195928Y-155218071D01*
X105053071Y-155218071D01*
X104838785Y-155146642D01*
X104695928Y-155003785D01*
X104624500Y-154860928D01*
X104553071Y-154575214D01*
X104553071Y-154360928D01*
X104624500Y-154075214D01*
X104695928Y-153932357D01*
X104838785Y-153789500D01*
X105053071Y-153718071D01*
X105195928Y-153718071D01*
X105410214Y-153789500D01*
X105481642Y-153860928D01*
X106124500Y-154432357D02*
X106624500Y-154432357D01*
X106838785Y-155218071D02*
X106124500Y-155218071D01*
X106124500Y-153718071D01*
X106838785Y-153718071D01*
X109267357Y-154218071D02*
X109267357Y-155218071D01*
X108910214Y-153646642D02*
X108553071Y-154718071D01*
X109481642Y-154718071D01*
X109910214Y-153718071D02*
X110910214Y-153718071D01*
X110267357Y-155218071D01*
X112124500Y-153718071D02*
X111838785Y-153718071D01*
X111695928Y-153789500D01*
X111624500Y-153860928D01*
X111481642Y-154075214D01*
X111410214Y-154360928D01*
X111410214Y-154932357D01*
X111481642Y-155075214D01*
X111553071Y-155146642D01*
X111695928Y-155218071D01*
X111981642Y-155218071D01*
X112124500Y-155146642D01*
X112195928Y-155075214D01*
X112267357Y-154932357D01*
X112267357Y-154575214D01*
X112195928Y-154432357D01*
X112124500Y-154360928D01*
X111981642Y-154289500D01*
X111695928Y-154289500D01*
X111553071Y-154360928D01*
X111481642Y-154432357D01*
X111410214Y-154575214D01*
X113195928Y-153718071D02*
X113338785Y-153718071D01*
X113481642Y-153789500D01*
X113553071Y-153860928D01*
X113624500Y-154003785D01*
X113695928Y-154289500D01*
X113695928Y-154646642D01*
X113624500Y-154932357D01*
X113553071Y-155075214D01*
X113481642Y-155146642D01*
X113338785Y-155218071D01*
X113195928Y-155218071D01*
X113053071Y-155146642D01*
X112981642Y-155075214D01*
X112910214Y-154932357D01*
X112838785Y-154646642D01*
X112838785Y-154289500D01*
X112910214Y-154003785D01*
X112981642Y-153860928D01*
X113053071Y-153789500D01*
X113195928Y-153718071D01*
X115481642Y-155075214D02*
X115553071Y-155146642D01*
X115481642Y-155218071D01*
X115410214Y-155146642D01*
X115481642Y-155075214D01*
X115481642Y-155218071D01*
X115481642Y-154289500D02*
X115553071Y-154360928D01*
X115481642Y-154432357D01*
X115410214Y-154360928D01*
X115481642Y-154289500D01*
X115481642Y-154432357D01*
X116053071Y-155789500D02*
X116124500Y-155718071D01*
X116267357Y-155503785D01*
X116338785Y-155360928D01*
X116410214Y-155146642D01*
X116481642Y-154789500D01*
X116481642Y-154503785D01*
X116410214Y-154146642D01*
X116338785Y-153932357D01*
X116267357Y-153789500D01*
X116124500Y-153575214D01*
X116053071Y-153503785D01*
X72219071Y-124166642D02*
X73361928Y-124166642D01*
X72790500Y-124738071D02*
X72790500Y-123595214D01*
D11*
X61828880Y-110597404D02*
X62638404Y-110597404D01*
X62733642Y-110549785D01*
X62781261Y-110502166D01*
X62828880Y-110406928D01*
X62828880Y-110216452D01*
X62781261Y-110121214D01*
X62733642Y-110073595D01*
X62638404Y-110025976D01*
X61828880Y-110025976D01*
X61924119Y-109597404D02*
X61876500Y-109549785D01*
X61828880Y-109454547D01*
X61828880Y-109216452D01*
X61876500Y-109121214D01*
X61924119Y-109073595D01*
X62019357Y-109025976D01*
X62114595Y-109025976D01*
X62257452Y-109073595D01*
X62828880Y-109645023D01*
X62828880Y-109025976D01*
X69171166Y-142312261D02*
X69314023Y-142359880D01*
X69552119Y-142359880D01*
X69647357Y-142312261D01*
X69694976Y-142264642D01*
X69742595Y-142169404D01*
X69742595Y-142074166D01*
X69694976Y-141978928D01*
X69647357Y-141931309D01*
X69552119Y-141883690D01*
X69361642Y-141836071D01*
X69266404Y-141788452D01*
X69218785Y-141740833D01*
X69171166Y-141645595D01*
X69171166Y-141550357D01*
X69218785Y-141455119D01*
X69266404Y-141407500D01*
X69361642Y-141359880D01*
X69599738Y-141359880D01*
X69742595Y-141407500D01*
X70075928Y-141359880D02*
X70314023Y-142359880D01*
X70504500Y-141645595D01*
X70694976Y-142359880D01*
X70933071Y-141359880D01*
X71837833Y-142359880D02*
X71266404Y-142359880D01*
X71552119Y-142359880D02*
X71552119Y-141359880D01*
X71456880Y-141502738D01*
X71361642Y-141597976D01*
X71266404Y-141645595D01*
X111327214Y-113629880D02*
X111327214Y-112629880D01*
X111565309Y-112629880D01*
X111708166Y-112677500D01*
X111803404Y-112772738D01*
X111851023Y-112867976D01*
X111898642Y-113058452D01*
X111898642Y-113201309D01*
X111851023Y-113391785D01*
X111803404Y-113487023D01*
X111708166Y-113582261D01*
X111565309Y-113629880D01*
X111327214Y-113629880D01*
X112755785Y-112963214D02*
X112755785Y-113629880D01*
X112517690Y-112582261D02*
X112279595Y-113296547D01*
X112898642Y-113296547D01*
X113803404Y-113629880D02*
X113231976Y-113629880D01*
X113517690Y-113629880D02*
X113517690Y-112629880D01*
X113422452Y-112772738D01*
X113327214Y-112867976D01*
X113231976Y-112915595D01*
X114208404Y-119414166D02*
X114684595Y-119414166D01*
X114113166Y-119699880D02*
X114446500Y-118699880D01*
X114779833Y-119699880D01*
X110851166Y-107489880D02*
X110851166Y-108204166D01*
X110803547Y-108347023D01*
X110708309Y-108442261D01*
X110565452Y-108489880D01*
X110470214Y-108489880D01*
X111232119Y-107489880D02*
X111851166Y-107489880D01*
X111517833Y-107870833D01*
X111660690Y-107870833D01*
X111755928Y-107918452D01*
X111803547Y-107966071D01*
X111851166Y-108061309D01*
X111851166Y-108299404D01*
X111803547Y-108394642D01*
X111755928Y-108442261D01*
X111660690Y-108489880D01*
X111374976Y-108489880D01*
X111279738Y-108442261D01*
X111232119Y-108394642D01*
X110382595Y-144589880D02*
X110382595Y-145399404D01*
X110430214Y-145494642D01*
X110477833Y-145542261D01*
X110573071Y-145589880D01*
X110763547Y-145589880D01*
X110858785Y-145542261D01*
X110906404Y-145494642D01*
X110954023Y-145399404D01*
X110954023Y-144589880D01*
X111334976Y-144589880D02*
X111954023Y-144589880D01*
X111620690Y-144970833D01*
X111763547Y-144970833D01*
X111858785Y-145018452D01*
X111906404Y-145066071D01*
X111954023Y-145161309D01*
X111954023Y-145399404D01*
X111906404Y-145494642D01*
X111858785Y-145542261D01*
X111763547Y-145589880D01*
X111477833Y-145589880D01*
X111382595Y-145542261D01*
X111334976Y-145494642D01*
X111017833Y-113454642D02*
X110970214Y-113502261D01*
X110827357Y-113549880D01*
X110732119Y-113549880D01*
X110589261Y-113502261D01*
X110494023Y-113407023D01*
X110446404Y-113311785D01*
X110398785Y-113121309D01*
X110398785Y-112978452D01*
X110446404Y-112787976D01*
X110494023Y-112692738D01*
X110589261Y-112597500D01*
X110732119Y-112549880D01*
X110827357Y-112549880D01*
X110970214Y-112597500D01*
X111017833Y-112645119D01*
X111970214Y-113549880D02*
X111398785Y-113549880D01*
X111684500Y-113549880D02*
X111684500Y-112549880D01*
X111589261Y-112692738D01*
X111494023Y-112787976D01*
X111398785Y-112835595D01*
X89554595Y-124019880D02*
X89554595Y-124829404D01*
X89602214Y-124924642D01*
X89649833Y-124972261D01*
X89745071Y-125019880D01*
X89935547Y-125019880D01*
X90030785Y-124972261D01*
X90078404Y-124924642D01*
X90126023Y-124829404D01*
X90126023Y-124019880D01*
X91126023Y-125019880D02*
X90554595Y-125019880D01*
X90840309Y-125019880D02*
X90840309Y-124019880D01*
X90745071Y-124162738D01*
X90649833Y-124257976D01*
X90554595Y-124305595D01*
X102402658Y-105665655D02*
X102321846Y-105692593D01*
X102241034Y-105773405D01*
X102187159Y-105881154D01*
X102187159Y-105988904D01*
X102214097Y-106069716D01*
X102294909Y-106204403D01*
X102375721Y-106285215D01*
X102510408Y-106366028D01*
X102591220Y-106392965D01*
X102698970Y-106392965D01*
X102806719Y-106339090D01*
X102860594Y-106285215D01*
X102914469Y-106177466D01*
X102914469Y-106123591D01*
X102725907Y-105935029D01*
X102618158Y-106042779D01*
X103210780Y-105935029D02*
X102645095Y-105369344D01*
X103534029Y-105611780D01*
X102968344Y-105046095D01*
X103803403Y-105342406D02*
X103237718Y-104776721D01*
X103372405Y-104642034D01*
X103480154Y-104588159D01*
X103587904Y-104588159D01*
X103668716Y-104615097D01*
X103803403Y-104695909D01*
X103884215Y-104776721D01*
X103965028Y-104911408D01*
X103991965Y-104992220D01*
X103991965Y-105099970D01*
X103938090Y-105207719D01*
X103803403Y-105342406D01*
X102414222Y-149088092D02*
X102333410Y-149115029D01*
X102252597Y-149195841D01*
X102198723Y-149303591D01*
X102198723Y-149411341D01*
X102225660Y-149492153D01*
X102306472Y-149626840D01*
X102387284Y-149707652D01*
X102521971Y-149788464D01*
X102602784Y-149815402D01*
X102710533Y-149815402D01*
X102818283Y-149761527D01*
X102872158Y-149707652D01*
X102926032Y-149599902D01*
X102926032Y-149546028D01*
X102737471Y-149357466D01*
X102629721Y-149465215D01*
X103222344Y-149357466D02*
X102656658Y-148791780D01*
X102872158Y-148576281D01*
X102952970Y-148549344D01*
X103006845Y-148549344D01*
X103087657Y-148576281D01*
X103168469Y-148657093D01*
X103195406Y-148737906D01*
X103195406Y-148791780D01*
X103168469Y-148872593D01*
X102952970Y-149088092D01*
X104084341Y-148495469D02*
X103761092Y-148818718D01*
X103922716Y-148657093D02*
X103357031Y-148091408D01*
X103383968Y-148226095D01*
X103383968Y-148333845D01*
X103357031Y-148414657D01*
X104003528Y-147444910D02*
X103895779Y-147552660D01*
X103868841Y-147633472D01*
X103868841Y-147687347D01*
X103895779Y-147822034D01*
X103976591Y-147956721D01*
X104192090Y-148172220D01*
X104272902Y-148199158D01*
X104326777Y-148199158D01*
X104407589Y-148172220D01*
X104515339Y-148064471D01*
X104542276Y-147983658D01*
X104542276Y-147929784D01*
X104515339Y-147848971D01*
X104380652Y-147714284D01*
X104299840Y-147687347D01*
X104245965Y-147687347D01*
X104165153Y-147714284D01*
X104057403Y-147822034D01*
X104030466Y-147902846D01*
X104030466Y-147956721D01*
X104057403Y-148037533D01*
X102414222Y-123688092D02*
X102333410Y-123715029D01*
X102252597Y-123795841D01*
X102198723Y-123903591D01*
X102198723Y-124011341D01*
X102225660Y-124092153D01*
X102306472Y-124226840D01*
X102387284Y-124307652D01*
X102521971Y-124388464D01*
X102602784Y-124415402D01*
X102710533Y-124415402D01*
X102818283Y-124361527D01*
X102872158Y-124307652D01*
X102926032Y-124199902D01*
X102926032Y-124146028D01*
X102737471Y-123957466D01*
X102629721Y-124065215D01*
X103222344Y-123957466D02*
X102656658Y-123391780D01*
X102872158Y-123176281D01*
X102952970Y-123149344D01*
X103006845Y-123149344D01*
X103087657Y-123176281D01*
X103168469Y-123257093D01*
X103195406Y-123337906D01*
X103195406Y-123391780D01*
X103168469Y-123472593D01*
X102952970Y-123688092D01*
X103249281Y-122906907D02*
X103249281Y-122853032D01*
X103276219Y-122772220D01*
X103410906Y-122637533D01*
X103491718Y-122610596D01*
X103545593Y-122610596D01*
X103626405Y-122637533D01*
X103680280Y-122691408D01*
X103734154Y-122799158D01*
X103734154Y-123445655D01*
X104084341Y-123095469D01*
X104003528Y-122044910D02*
X103895779Y-122152660D01*
X103868841Y-122233472D01*
X103868841Y-122287347D01*
X103895779Y-122422034D01*
X103976591Y-122556721D01*
X104192090Y-122772220D01*
X104272902Y-122799158D01*
X104326777Y-122799158D01*
X104407589Y-122772220D01*
X104515339Y-122664471D01*
X104542276Y-122583658D01*
X104542276Y-122529784D01*
X104515339Y-122448971D01*
X104380652Y-122314284D01*
X104299840Y-122287347D01*
X104245965Y-122287347D01*
X104165153Y-122314284D01*
X104057403Y-122422034D01*
X104030466Y-122502846D01*
X104030466Y-122556721D01*
X104057403Y-122637533D01*
X102414222Y-141468092D02*
X102333410Y-141495029D01*
X102252597Y-141575841D01*
X102198723Y-141683591D01*
X102198723Y-141791341D01*
X102225660Y-141872153D01*
X102306472Y-142006840D01*
X102387284Y-142087652D01*
X102521971Y-142168464D01*
X102602784Y-142195402D01*
X102710533Y-142195402D01*
X102818283Y-142141527D01*
X102872158Y-142087652D01*
X102926032Y-141979902D01*
X102926032Y-141926028D01*
X102737471Y-141737466D01*
X102629721Y-141845215D01*
X103222344Y-141737466D02*
X102656658Y-141171780D01*
X102872158Y-140956281D01*
X102952970Y-140929344D01*
X103006845Y-140929344D01*
X103087657Y-140956281D01*
X103168469Y-141037093D01*
X103195406Y-141117906D01*
X103195406Y-141171780D01*
X103168469Y-141252593D01*
X102952970Y-141468092D01*
X104084341Y-140875469D02*
X103761092Y-141198718D01*
X103922716Y-141037093D02*
X103357031Y-140471408D01*
X103383968Y-140606095D01*
X103383968Y-140713845D01*
X103357031Y-140794657D01*
X104084341Y-140228971D02*
X104003528Y-140255909D01*
X103949654Y-140255909D01*
X103868841Y-140228971D01*
X103841904Y-140202034D01*
X103814967Y-140121222D01*
X103814967Y-140067347D01*
X103841904Y-139986535D01*
X103949654Y-139878785D01*
X104030466Y-139851848D01*
X104084341Y-139851848D01*
X104165153Y-139878785D01*
X104192090Y-139905723D01*
X104219028Y-139986535D01*
X104219028Y-140040410D01*
X104192090Y-140121222D01*
X104084341Y-140228971D01*
X104057403Y-140309784D01*
X104057403Y-140363658D01*
X104084341Y-140444471D01*
X104192090Y-140552220D01*
X104272902Y-140579158D01*
X104326777Y-140579158D01*
X104407589Y-140552220D01*
X104515339Y-140444471D01*
X104542276Y-140363658D01*
X104542276Y-140309784D01*
X104515339Y-140228971D01*
X104407589Y-140121222D01*
X104326777Y-140094284D01*
X104272902Y-140094284D01*
X104192090Y-140121222D01*
X102402658Y-143765655D02*
X102321846Y-143792593D01*
X102241034Y-143873405D01*
X102187159Y-143981154D01*
X102187159Y-144088904D01*
X102214097Y-144169716D01*
X102294909Y-144304403D01*
X102375721Y-144385215D01*
X102510408Y-144466028D01*
X102591220Y-144492965D01*
X102698970Y-144492965D01*
X102806719Y-144439090D01*
X102860594Y-144385215D01*
X102914469Y-144277466D01*
X102914469Y-144223591D01*
X102725907Y-144035029D01*
X102618158Y-144142779D01*
X103210780Y-144035029D02*
X102645095Y-143469344D01*
X103534029Y-143711780D01*
X102968344Y-143146095D01*
X103803403Y-143442406D02*
X103237718Y-142876721D01*
X103372405Y-142742034D01*
X103480154Y-142688159D01*
X103587904Y-142688159D01*
X103668716Y-142715097D01*
X103803403Y-142795909D01*
X103884215Y-142876721D01*
X103965028Y-143011408D01*
X103991965Y-143092220D01*
X103991965Y-143199970D01*
X103938090Y-143307719D01*
X103803403Y-143442406D01*
X76729596Y-108178718D02*
X76648784Y-108205655D01*
X76567971Y-108286467D01*
X76514097Y-108394217D01*
X76514097Y-108501967D01*
X76541034Y-108582779D01*
X76621846Y-108717466D01*
X76702658Y-108798278D01*
X76837345Y-108879090D01*
X76918158Y-108906028D01*
X77025907Y-108906028D01*
X77133657Y-108852153D01*
X77187532Y-108798278D01*
X77241406Y-108690528D01*
X77241406Y-108636654D01*
X77052845Y-108448092D01*
X76945095Y-108555841D01*
X77537718Y-108448092D02*
X76972032Y-107882406D01*
X77187532Y-107666907D01*
X77268344Y-107639970D01*
X77322219Y-107639970D01*
X77403031Y-107666907D01*
X77483843Y-107747719D01*
X77510780Y-107828532D01*
X77510780Y-107882406D01*
X77483843Y-107963219D01*
X77268344Y-108178718D01*
X77564655Y-107397533D02*
X77564655Y-107343658D01*
X77591593Y-107262846D01*
X77726280Y-107128159D01*
X77807092Y-107101222D01*
X77860967Y-107101222D01*
X77941779Y-107128159D01*
X77995654Y-107182034D01*
X78049528Y-107289784D01*
X78049528Y-107936281D01*
X78399715Y-107586095D01*
X76802658Y-131065655D02*
X76721846Y-131092593D01*
X76641034Y-131173405D01*
X76587159Y-131281154D01*
X76587159Y-131388904D01*
X76614097Y-131469716D01*
X76694909Y-131604403D01*
X76775721Y-131685215D01*
X76910408Y-131766028D01*
X76991220Y-131792965D01*
X77098970Y-131792965D01*
X77206719Y-131739090D01*
X77260594Y-131685215D01*
X77314469Y-131577466D01*
X77314469Y-131523591D01*
X77125907Y-131335029D01*
X77018158Y-131442779D01*
X77610780Y-131335029D02*
X77045095Y-130769344D01*
X77934029Y-131011780D01*
X77368344Y-130446095D01*
X78203403Y-130742406D02*
X77637718Y-130176721D01*
X77772405Y-130042034D01*
X77880154Y-129988159D01*
X77987904Y-129988159D01*
X78068716Y-130015097D01*
X78203403Y-130095909D01*
X78284215Y-130176721D01*
X78365028Y-130311408D01*
X78391965Y-130392220D01*
X78391965Y-130499970D01*
X78338090Y-130607719D01*
X78203403Y-130742406D01*
X102414222Y-121158092D02*
X102333410Y-121185029D01*
X102252597Y-121265841D01*
X102198723Y-121373591D01*
X102198723Y-121481341D01*
X102225660Y-121562153D01*
X102306472Y-121696840D01*
X102387284Y-121777652D01*
X102521971Y-121858464D01*
X102602784Y-121885402D01*
X102710533Y-121885402D01*
X102818283Y-121831527D01*
X102872158Y-121777652D01*
X102926032Y-121669902D01*
X102926032Y-121616028D01*
X102737471Y-121427466D01*
X102629721Y-121535215D01*
X103222344Y-121427466D02*
X102656658Y-120861780D01*
X102872158Y-120646281D01*
X102952970Y-120619344D01*
X103006845Y-120619344D01*
X103087657Y-120646281D01*
X103168469Y-120727093D01*
X103195406Y-120807906D01*
X103195406Y-120861780D01*
X103168469Y-120942593D01*
X102952970Y-121158092D01*
X103249281Y-120376907D02*
X103249281Y-120323032D01*
X103276219Y-120242220D01*
X103410906Y-120107533D01*
X103491718Y-120080596D01*
X103545593Y-120080596D01*
X103626405Y-120107533D01*
X103680280Y-120161408D01*
X103734154Y-120269158D01*
X103734154Y-120915655D01*
X104084341Y-120565469D01*
X103707217Y-119811222D02*
X104084341Y-119434098D01*
X104407589Y-120242220D01*
X76829596Y-120878718D02*
X76748784Y-120905655D01*
X76667971Y-120986467D01*
X76614097Y-121094217D01*
X76614097Y-121201967D01*
X76641034Y-121282779D01*
X76721846Y-121417466D01*
X76802658Y-121498278D01*
X76937345Y-121579090D01*
X77018158Y-121606028D01*
X77125907Y-121606028D01*
X77233657Y-121552153D01*
X77287532Y-121498278D01*
X77341406Y-121390528D01*
X77341406Y-121336654D01*
X77152845Y-121148092D01*
X77045095Y-121255841D01*
X77637718Y-121148092D02*
X77072032Y-120582406D01*
X77287532Y-120366907D01*
X77368344Y-120339970D01*
X77422219Y-120339970D01*
X77503031Y-120366907D01*
X77583843Y-120447719D01*
X77610780Y-120528532D01*
X77610780Y-120582406D01*
X77583843Y-120663219D01*
X77368344Y-120878718D01*
X77880154Y-119774284D02*
X77772405Y-119882034D01*
X77745467Y-119962846D01*
X77745467Y-120016721D01*
X77772405Y-120151408D01*
X77853217Y-120286095D01*
X78068716Y-120501594D01*
X78149528Y-120528532D01*
X78203403Y-120528532D01*
X78284215Y-120501594D01*
X78391965Y-120393845D01*
X78418902Y-120313032D01*
X78418902Y-120259158D01*
X78391965Y-120178345D01*
X78257278Y-120043658D01*
X78176466Y-120016721D01*
X78122591Y-120016721D01*
X78041779Y-120043658D01*
X77934029Y-120151408D01*
X77907092Y-120232220D01*
X77907092Y-120286095D01*
X77934029Y-120366907D01*
X102414222Y-115814092D02*
X102333410Y-115841029D01*
X102252597Y-115921841D01*
X102198723Y-116029591D01*
X102198723Y-116137341D01*
X102225660Y-116218153D01*
X102306472Y-116352840D01*
X102387284Y-116433652D01*
X102521971Y-116514464D01*
X102602784Y-116541402D01*
X102710533Y-116541402D01*
X102818283Y-116487527D01*
X102872158Y-116433652D01*
X102926032Y-116325902D01*
X102926032Y-116272028D01*
X102737471Y-116083466D01*
X102629721Y-116191215D01*
X103222344Y-116083466D02*
X102656658Y-115517780D01*
X102872158Y-115302281D01*
X102952970Y-115275344D01*
X103006845Y-115275344D01*
X103087657Y-115302281D01*
X103168469Y-115383093D01*
X103195406Y-115463906D01*
X103195406Y-115517780D01*
X103168469Y-115598593D01*
X102952970Y-115814092D01*
X103249281Y-115032907D02*
X103249281Y-114979032D01*
X103276219Y-114898220D01*
X103410906Y-114763533D01*
X103491718Y-114736596D01*
X103545593Y-114736596D01*
X103626405Y-114763533D01*
X103680280Y-114817408D01*
X103734154Y-114925158D01*
X103734154Y-115571655D01*
X104084341Y-115221469D01*
X104084341Y-114574971D02*
X104003528Y-114601909D01*
X103949654Y-114601909D01*
X103868841Y-114574971D01*
X103841904Y-114548034D01*
X103814967Y-114467222D01*
X103814967Y-114413347D01*
X103841904Y-114332535D01*
X103949654Y-114224785D01*
X104030466Y-114197848D01*
X104084341Y-114197848D01*
X104165153Y-114224785D01*
X104192090Y-114251723D01*
X104219028Y-114332535D01*
X104219028Y-114386410D01*
X104192090Y-114467222D01*
X104084341Y-114574971D01*
X104057403Y-114655784D01*
X104057403Y-114709658D01*
X104084341Y-114790471D01*
X104192090Y-114898220D01*
X104272902Y-114925158D01*
X104326777Y-114925158D01*
X104407589Y-114898220D01*
X104515339Y-114790471D01*
X104542276Y-114709658D01*
X104542276Y-114655784D01*
X104515339Y-114574971D01*
X104407589Y-114467222D01*
X104326777Y-114440284D01*
X104272902Y-114440284D01*
X104192090Y-114467222D01*
X76802658Y-105665655D02*
X76721846Y-105692593D01*
X76641034Y-105773405D01*
X76587159Y-105881154D01*
X76587159Y-105988904D01*
X76614097Y-106069716D01*
X76694909Y-106204403D01*
X76775721Y-106285215D01*
X76910408Y-106366028D01*
X76991220Y-106392965D01*
X77098970Y-106392965D01*
X77206719Y-106339090D01*
X77260594Y-106285215D01*
X77314469Y-106177466D01*
X77314469Y-106123591D01*
X77125907Y-105935029D01*
X77018158Y-106042779D01*
X77610780Y-105935029D02*
X77045095Y-105369344D01*
X77934029Y-105611780D01*
X77368344Y-105046095D01*
X78203403Y-105342406D02*
X77637718Y-104776721D01*
X77772405Y-104642034D01*
X77880154Y-104588159D01*
X77987904Y-104588159D01*
X78068716Y-104615097D01*
X78203403Y-104695909D01*
X78284215Y-104776721D01*
X78365028Y-104911408D01*
X78391965Y-104992220D01*
X78391965Y-105099970D01*
X78338090Y-105207719D01*
X78203403Y-105342406D01*
X76802658Y-118365655D02*
X76721846Y-118392593D01*
X76641034Y-118473405D01*
X76587159Y-118581154D01*
X76587159Y-118688904D01*
X76614097Y-118769716D01*
X76694909Y-118904403D01*
X76775721Y-118985215D01*
X76910408Y-119066028D01*
X76991220Y-119092965D01*
X77098970Y-119092965D01*
X77206719Y-119039090D01*
X77260594Y-118985215D01*
X77314469Y-118877466D01*
X77314469Y-118823591D01*
X77125907Y-118635029D01*
X77018158Y-118742779D01*
X77610780Y-118635029D02*
X77045095Y-118069344D01*
X77934029Y-118311780D01*
X77368344Y-117746095D01*
X78203403Y-118042406D02*
X77637718Y-117476721D01*
X77772405Y-117342034D01*
X77880154Y-117288159D01*
X77987904Y-117288159D01*
X78068716Y-117315097D01*
X78203403Y-117395909D01*
X78284215Y-117476721D01*
X78365028Y-117611408D01*
X78391965Y-117692220D01*
X78391965Y-117799970D01*
X78338090Y-117907719D01*
X78203403Y-118042406D01*
X76829596Y-115798718D02*
X76748784Y-115825655D01*
X76667971Y-115906467D01*
X76614097Y-116014217D01*
X76614097Y-116121967D01*
X76641034Y-116202779D01*
X76721846Y-116337466D01*
X76802658Y-116418278D01*
X76937345Y-116499090D01*
X77018158Y-116526028D01*
X77125907Y-116526028D01*
X77233657Y-116472153D01*
X77287532Y-116418278D01*
X77341406Y-116310528D01*
X77341406Y-116256654D01*
X77152845Y-116068092D01*
X77045095Y-116175841D01*
X77637718Y-116068092D02*
X77072032Y-115502406D01*
X77287532Y-115286907D01*
X77368344Y-115259970D01*
X77422219Y-115259970D01*
X77503031Y-115286907D01*
X77583843Y-115367719D01*
X77610780Y-115448532D01*
X77610780Y-115502406D01*
X77583843Y-115583219D01*
X77368344Y-115798718D01*
X77907092Y-114667347D02*
X77637718Y-114936721D01*
X77880154Y-115233032D01*
X77880154Y-115179158D01*
X77907092Y-115098345D01*
X78041779Y-114963658D01*
X78122591Y-114936721D01*
X78176466Y-114936721D01*
X78257278Y-114963658D01*
X78391965Y-115098345D01*
X78418902Y-115179158D01*
X78418902Y-115233032D01*
X78391965Y-115313845D01*
X78257278Y-115448532D01*
X78176466Y-115475469D01*
X78122591Y-115475469D01*
X82806976Y-151091309D02*
X82921261Y-151129404D01*
X83111738Y-151129404D01*
X83187928Y-151091309D01*
X83226023Y-151053214D01*
X83264119Y-150977023D01*
X83264119Y-150900833D01*
X83226023Y-150824642D01*
X83187928Y-150786547D01*
X83111738Y-150748452D01*
X82959357Y-150710357D01*
X82883166Y-150672261D01*
X82845071Y-150634166D01*
X82806976Y-150557976D01*
X82806976Y-150481785D01*
X82845071Y-150405595D01*
X82883166Y-150367500D01*
X82959357Y-150329404D01*
X83149833Y-150329404D01*
X83264119Y-150367500D01*
X83530785Y-150329404D02*
X83721261Y-151129404D01*
X83873642Y-150557976D01*
X84026023Y-151129404D01*
X84216500Y-150329404D01*
X84978404Y-151053214D02*
X84940309Y-151091309D01*
X84826023Y-151129404D01*
X84749833Y-151129404D01*
X84635547Y-151091309D01*
X84559357Y-151015119D01*
X84521261Y-150938928D01*
X84483166Y-150786547D01*
X84483166Y-150672261D01*
X84521261Y-150519880D01*
X84559357Y-150443690D01*
X84635547Y-150367500D01*
X84749833Y-150329404D01*
X84826023Y-150329404D01*
X84940309Y-150367500D01*
X84978404Y-150405595D01*
X85702214Y-151129404D02*
X85321261Y-151129404D01*
X85321261Y-150329404D01*
X85968880Y-151129404D02*
X85968880Y-150329404D01*
X86426023Y-151129404D02*
X86083166Y-150672261D01*
X86426023Y-150329404D02*
X85968880Y-150786547D01*
X76829596Y-125958718D02*
X76748784Y-125985655D01*
X76667971Y-126066467D01*
X76614097Y-126174217D01*
X76614097Y-126281967D01*
X76641034Y-126362779D01*
X76721846Y-126497466D01*
X76802658Y-126578278D01*
X76937345Y-126659090D01*
X77018158Y-126686028D01*
X77125907Y-126686028D01*
X77233657Y-126632153D01*
X77287532Y-126578278D01*
X77341406Y-126470528D01*
X77341406Y-126416654D01*
X77152845Y-126228092D01*
X77045095Y-126335841D01*
X77637718Y-126228092D02*
X77072032Y-125662406D01*
X77287532Y-125446907D01*
X77368344Y-125419970D01*
X77422219Y-125419970D01*
X77503031Y-125446907D01*
X77583843Y-125527719D01*
X77610780Y-125608532D01*
X77610780Y-125662406D01*
X77583843Y-125743219D01*
X77368344Y-125958718D01*
X77960967Y-125258345D02*
X77880154Y-125285283D01*
X77826280Y-125285283D01*
X77745467Y-125258345D01*
X77718530Y-125231408D01*
X77691593Y-125150596D01*
X77691593Y-125096721D01*
X77718530Y-125015909D01*
X77826280Y-124908159D01*
X77907092Y-124881222D01*
X77960967Y-124881222D01*
X78041779Y-124908159D01*
X78068716Y-124935097D01*
X78095654Y-125015909D01*
X78095654Y-125069784D01*
X78068716Y-125150596D01*
X77960967Y-125258345D01*
X77934029Y-125339158D01*
X77934029Y-125393032D01*
X77960967Y-125473845D01*
X78068716Y-125581594D01*
X78149528Y-125608532D01*
X78203403Y-125608532D01*
X78284215Y-125581594D01*
X78391965Y-125473845D01*
X78418902Y-125393032D01*
X78418902Y-125339158D01*
X78391965Y-125258345D01*
X78284215Y-125150596D01*
X78203403Y-125123658D01*
X78149528Y-125123658D01*
X78068716Y-125150596D01*
X102238631Y-108525808D02*
X102588817Y-108175622D01*
X102615755Y-108579683D01*
X102696567Y-108498870D01*
X102777379Y-108471933D01*
X102831254Y-108471933D01*
X102912066Y-108498870D01*
X103046753Y-108633557D01*
X103073690Y-108714370D01*
X103073690Y-108768244D01*
X103046753Y-108849057D01*
X102885129Y-109010681D01*
X102804316Y-109037618D01*
X102750442Y-109037618D01*
X102750442Y-108013997D02*
X103504689Y-108391121D01*
X103127565Y-107636874D01*
X103262252Y-107502187D02*
X103612438Y-107152000D01*
X103639376Y-107556061D01*
X103720188Y-107475249D01*
X103801000Y-107448312D01*
X103854875Y-107448312D01*
X103935687Y-107475249D01*
X104070374Y-107609936D01*
X104097312Y-107690748D01*
X104097312Y-107744623D01*
X104070374Y-107825435D01*
X103908750Y-107987060D01*
X103827938Y-108013997D01*
X103774063Y-108013997D01*
X104339748Y-107663811D02*
X104770747Y-107232812D01*
X104555248Y-106747939D02*
X104743809Y-106559377D01*
X105120933Y-106774877D02*
X104851559Y-107044251D01*
X104285874Y-106478565D01*
X104555248Y-106209191D01*
X105363370Y-106532440D02*
X104797684Y-105966755D01*
X105686618Y-106209191D01*
X105120933Y-105643506D01*
X102236973Y-103637466D02*
X102991220Y-104014589D01*
X102614097Y-103260342D01*
X103314469Y-103637466D02*
X103422219Y-103583591D01*
X103556906Y-103448904D01*
X103583843Y-103368092D01*
X103583843Y-103314217D01*
X103556906Y-103233405D01*
X103503031Y-103179530D01*
X103422219Y-103152593D01*
X103368344Y-103152593D01*
X103287532Y-103179530D01*
X103152845Y-103260342D01*
X103072032Y-103287280D01*
X103018158Y-103287280D01*
X102937345Y-103260342D01*
X102883471Y-103206467D01*
X102856533Y-103125655D01*
X102856533Y-103071780D01*
X102883471Y-102990968D01*
X103018158Y-102856281D01*
X103125907Y-102802406D01*
X103745467Y-102721594D02*
X104014841Y-102990968D01*
X103260594Y-102613845D02*
X103745467Y-102721594D01*
X103637718Y-102236721D01*
X104338090Y-102613845D02*
X104445840Y-102559970D01*
X104580527Y-102425283D01*
X104607464Y-102344471D01*
X104607464Y-102290596D01*
X104580527Y-102209784D01*
X104526652Y-102155909D01*
X104445840Y-102128971D01*
X104391965Y-102128971D01*
X104311153Y-102155909D01*
X104176466Y-102236721D01*
X104095654Y-102263658D01*
X104041779Y-102263658D01*
X103960967Y-102236721D01*
X103907092Y-102182846D01*
X103880154Y-102102034D01*
X103880154Y-102048159D01*
X103907092Y-101967347D01*
X104041779Y-101832660D01*
X104149528Y-101778785D01*
X76260222Y-146548092D02*
X76179410Y-146575029D01*
X76098597Y-146655841D01*
X76044723Y-146763591D01*
X76044723Y-146871341D01*
X76071660Y-146952153D01*
X76152472Y-147086840D01*
X76233284Y-147167652D01*
X76367971Y-147248464D01*
X76448784Y-147275402D01*
X76556533Y-147275402D01*
X76664283Y-147221527D01*
X76718158Y-147167652D01*
X76772032Y-147059902D01*
X76772032Y-147006028D01*
X76583471Y-146817466D01*
X76475721Y-146925215D01*
X77068344Y-146817466D02*
X76502658Y-146251780D01*
X76718158Y-146036281D01*
X76798970Y-146009344D01*
X76852845Y-146009344D01*
X76933657Y-146036281D01*
X77014469Y-146117093D01*
X77041406Y-146197906D01*
X77041406Y-146251780D01*
X77014469Y-146332593D01*
X76798970Y-146548092D01*
X77930341Y-145955469D02*
X77607092Y-146278718D01*
X77768716Y-146117093D02*
X77203031Y-145551408D01*
X77229968Y-145686095D01*
X77229968Y-145793845D01*
X77203031Y-145874657D01*
X78038090Y-145093472D02*
X78415214Y-145470596D01*
X77687904Y-145012660D02*
X77957278Y-145551408D01*
X78307464Y-145201222D01*
X76829596Y-100558718D02*
X76748784Y-100585655D01*
X76667971Y-100666467D01*
X76614097Y-100774217D01*
X76614097Y-100881967D01*
X76641034Y-100962779D01*
X76721846Y-101097466D01*
X76802658Y-101178278D01*
X76937345Y-101259090D01*
X77018158Y-101286028D01*
X77125907Y-101286028D01*
X77233657Y-101232153D01*
X77287532Y-101178278D01*
X77341406Y-101070528D01*
X77341406Y-101016654D01*
X77152845Y-100828092D01*
X77045095Y-100935841D01*
X77637718Y-100828092D02*
X77072032Y-100262406D01*
X77287532Y-100046907D01*
X77368344Y-100019970D01*
X77422219Y-100019970D01*
X77503031Y-100046907D01*
X77583843Y-100127719D01*
X77610780Y-100208532D01*
X77610780Y-100262406D01*
X77583843Y-100343219D01*
X77368344Y-100558718D01*
X77745467Y-99588971D02*
X77799342Y-99535097D01*
X77880154Y-99508159D01*
X77934029Y-99508159D01*
X78014841Y-99535097D01*
X78149528Y-99615909D01*
X78284215Y-99750596D01*
X78365028Y-99885283D01*
X78391965Y-99966095D01*
X78391965Y-100019970D01*
X78365028Y-100100782D01*
X78311153Y-100154657D01*
X78230341Y-100181594D01*
X78176466Y-100181594D01*
X78095654Y-100154657D01*
X77960967Y-100073845D01*
X77826280Y-99939158D01*
X77745467Y-99804471D01*
X77718530Y-99723658D01*
X77718530Y-99669784D01*
X77745467Y-99588971D01*
X102414222Y-128768092D02*
X102333410Y-128795029D01*
X102252597Y-128875841D01*
X102198723Y-128983591D01*
X102198723Y-129091341D01*
X102225660Y-129172153D01*
X102306472Y-129306840D01*
X102387284Y-129387652D01*
X102521971Y-129468464D01*
X102602784Y-129495402D01*
X102710533Y-129495402D01*
X102818283Y-129441527D01*
X102872158Y-129387652D01*
X102926032Y-129279902D01*
X102926032Y-129226028D01*
X102737471Y-129037466D01*
X102629721Y-129145215D01*
X103222344Y-129037466D02*
X102656658Y-128471780D01*
X102872158Y-128256281D01*
X102952970Y-128229344D01*
X103006845Y-128229344D01*
X103087657Y-128256281D01*
X103168469Y-128337093D01*
X103195406Y-128417906D01*
X103195406Y-128471780D01*
X103168469Y-128552593D01*
X102952970Y-128768092D01*
X103249281Y-127986907D02*
X103249281Y-127933032D01*
X103276219Y-127852220D01*
X103410906Y-127717533D01*
X103491718Y-127690596D01*
X103545593Y-127690596D01*
X103626405Y-127717533D01*
X103680280Y-127771408D01*
X103734154Y-127879158D01*
X103734154Y-128525655D01*
X104084341Y-128175469D01*
X103788029Y-127448159D02*
X103788029Y-127394284D01*
X103814967Y-127313472D01*
X103949654Y-127178785D01*
X104030466Y-127151848D01*
X104084341Y-127151848D01*
X104165153Y-127178785D01*
X104219028Y-127232660D01*
X104272902Y-127340410D01*
X104272902Y-127986907D01*
X104623089Y-127636721D01*
X76829596Y-110718718D02*
X76748784Y-110745655D01*
X76667971Y-110826467D01*
X76614097Y-110934217D01*
X76614097Y-111041967D01*
X76641034Y-111122779D01*
X76721846Y-111257466D01*
X76802658Y-111338278D01*
X76937345Y-111419090D01*
X77018158Y-111446028D01*
X77125907Y-111446028D01*
X77233657Y-111392153D01*
X77287532Y-111338278D01*
X77341406Y-111230528D01*
X77341406Y-111176654D01*
X77152845Y-110988092D01*
X77045095Y-111095841D01*
X77637718Y-110988092D02*
X77072032Y-110422406D01*
X77287532Y-110206907D01*
X77368344Y-110179970D01*
X77422219Y-110179970D01*
X77503031Y-110206907D01*
X77583843Y-110287719D01*
X77610780Y-110368532D01*
X77610780Y-110422406D01*
X77583843Y-110503219D01*
X77368344Y-110718718D01*
X77583843Y-109910596D02*
X77934029Y-109560410D01*
X77960967Y-109964471D01*
X78041779Y-109883658D01*
X78122591Y-109856721D01*
X78176466Y-109856721D01*
X78257278Y-109883658D01*
X78391965Y-110018345D01*
X78418902Y-110099158D01*
X78418902Y-110153032D01*
X78391965Y-110233845D01*
X78230341Y-110395469D01*
X78149528Y-110422406D01*
X78095654Y-110422406D01*
X102414222Y-133858092D02*
X102333410Y-133885029D01*
X102252597Y-133965841D01*
X102198723Y-134073591D01*
X102198723Y-134181341D01*
X102225660Y-134262153D01*
X102306472Y-134396840D01*
X102387284Y-134477652D01*
X102521971Y-134558464D01*
X102602784Y-134585402D01*
X102710533Y-134585402D01*
X102818283Y-134531527D01*
X102872158Y-134477652D01*
X102926032Y-134369902D01*
X102926032Y-134316028D01*
X102737471Y-134127466D01*
X102629721Y-134235215D01*
X103222344Y-134127466D02*
X102656658Y-133561780D01*
X102872158Y-133346281D01*
X102952970Y-133319344D01*
X103006845Y-133319344D01*
X103087657Y-133346281D01*
X103168469Y-133427093D01*
X103195406Y-133507906D01*
X103195406Y-133561780D01*
X103168469Y-133642593D01*
X102952970Y-133858092D01*
X103249281Y-133076907D02*
X103249281Y-133023032D01*
X103276219Y-132942220D01*
X103410906Y-132807533D01*
X103491718Y-132780596D01*
X103545593Y-132780596D01*
X103626405Y-132807533D01*
X103680280Y-132861408D01*
X103734154Y-132969158D01*
X103734154Y-133615655D01*
X104084341Y-133265469D01*
X104623089Y-132726721D02*
X104299840Y-133049970D01*
X104461464Y-132888345D02*
X103895779Y-132322660D01*
X103922716Y-132457347D01*
X103922716Y-132565097D01*
X103895779Y-132645909D01*
X103154875Y-126510935D02*
X102696939Y-126430122D01*
X102831626Y-126834183D02*
X102265941Y-126268498D01*
X102481440Y-126052999D01*
X102562252Y-126026061D01*
X102616127Y-126026061D01*
X102696939Y-126052999D01*
X102777751Y-126133811D01*
X102804689Y-126214623D01*
X102804689Y-126268498D01*
X102777751Y-126349310D01*
X102562252Y-126564809D01*
X102831626Y-125702812D02*
X103289562Y-126160748D01*
X103370374Y-126187686D01*
X103424249Y-126187686D01*
X103505061Y-126160748D01*
X103612811Y-126052999D01*
X103639748Y-125972187D01*
X103639748Y-125918312D01*
X103612811Y-125837500D01*
X103154875Y-125379564D01*
X103989935Y-125675875D02*
X103424249Y-125110190D01*
X104313183Y-125352626D01*
X103747498Y-124786941D01*
X76729596Y-103088718D02*
X76648784Y-103115655D01*
X76567971Y-103196467D01*
X76514097Y-103304217D01*
X76514097Y-103411967D01*
X76541034Y-103492779D01*
X76621846Y-103627466D01*
X76702658Y-103708278D01*
X76837345Y-103789090D01*
X76918158Y-103816028D01*
X77025907Y-103816028D01*
X77133657Y-103762153D01*
X77187532Y-103708278D01*
X77241406Y-103600528D01*
X77241406Y-103546654D01*
X77052845Y-103358092D01*
X76945095Y-103465841D01*
X77537718Y-103358092D02*
X76972032Y-102792406D01*
X77187532Y-102576907D01*
X77268344Y-102549970D01*
X77322219Y-102549970D01*
X77403031Y-102576907D01*
X77483843Y-102657719D01*
X77510780Y-102738532D01*
X77510780Y-102792406D01*
X77483843Y-102873219D01*
X77268344Y-103088718D01*
X78399715Y-102496095D02*
X78076466Y-102819344D01*
X78238090Y-102657719D02*
X77672405Y-102092034D01*
X77699342Y-102226721D01*
X77699342Y-102334471D01*
X77672405Y-102415283D01*
X102402658Y-131065655D02*
X102321846Y-131092593D01*
X102241034Y-131173405D01*
X102187159Y-131281154D01*
X102187159Y-131388904D01*
X102214097Y-131469716D01*
X102294909Y-131604403D01*
X102375721Y-131685215D01*
X102510408Y-131766028D01*
X102591220Y-131792965D01*
X102698970Y-131792965D01*
X102806719Y-131739090D01*
X102860594Y-131685215D01*
X102914469Y-131577466D01*
X102914469Y-131523591D01*
X102725907Y-131335029D01*
X102618158Y-131442779D01*
X103210780Y-131335029D02*
X102645095Y-130769344D01*
X103534029Y-131011780D01*
X102968344Y-130446095D01*
X103803403Y-130742406D02*
X103237718Y-130176721D01*
X103372405Y-130042034D01*
X103480154Y-129988159D01*
X103587904Y-129988159D01*
X103668716Y-130015097D01*
X103803403Y-130095909D01*
X103884215Y-130176721D01*
X103965028Y-130311408D01*
X103991965Y-130392220D01*
X103991965Y-130499970D01*
X103938090Y-130607719D01*
X103803403Y-130742406D01*
X76160222Y-136388092D02*
X76079410Y-136415029D01*
X75998597Y-136495841D01*
X75944723Y-136603591D01*
X75944723Y-136711341D01*
X75971660Y-136792153D01*
X76052472Y-136926840D01*
X76133284Y-137007652D01*
X76267971Y-137088464D01*
X76348784Y-137115402D01*
X76456533Y-137115402D01*
X76564283Y-137061527D01*
X76618158Y-137007652D01*
X76672032Y-136899902D01*
X76672032Y-136846028D01*
X76483471Y-136657466D01*
X76375721Y-136765215D01*
X76968344Y-136657466D02*
X76402658Y-136091780D01*
X76618158Y-135876281D01*
X76698970Y-135849344D01*
X76752845Y-135849344D01*
X76833657Y-135876281D01*
X76914469Y-135957093D01*
X76941406Y-136037906D01*
X76941406Y-136091780D01*
X76914469Y-136172593D01*
X76698970Y-136388092D01*
X77830341Y-135795469D02*
X77507092Y-136118718D01*
X77668716Y-135957093D02*
X77103031Y-135391408D01*
X77129968Y-135526095D01*
X77129968Y-135633845D01*
X77103031Y-135714657D01*
X78369089Y-135256721D02*
X78045840Y-135579970D01*
X78207464Y-135418345D02*
X77641779Y-134852660D01*
X77668716Y-134987347D01*
X77668716Y-135095097D01*
X77641779Y-135175909D01*
X102269629Y-101094809D02*
X103023877Y-101471933D01*
X102646753Y-100717686D01*
X103293251Y-100609936D02*
X103401000Y-100556061D01*
X103454875Y-100556061D01*
X103535687Y-100582999D01*
X103616499Y-100663811D01*
X103643437Y-100744623D01*
X103643437Y-100798498D01*
X103616500Y-100879310D01*
X103401000Y-101094809D01*
X102835315Y-100529124D01*
X103023877Y-100340562D01*
X103104689Y-100313625D01*
X103158564Y-100313625D01*
X103239376Y-100340562D01*
X103293251Y-100394437D01*
X103320188Y-100475249D01*
X103320188Y-100529124D01*
X103293251Y-100609936D01*
X103104689Y-100798498D01*
X103401000Y-99963438D02*
X103858936Y-100421374D01*
X103939748Y-100448312D01*
X103993623Y-100448312D01*
X104074435Y-100421374D01*
X104182185Y-100313625D01*
X104209122Y-100232812D01*
X104209122Y-100178938D01*
X104182185Y-100098125D01*
X103724249Y-99640190D01*
X104505434Y-99936501D02*
X104613183Y-99882626D01*
X104747870Y-99747939D01*
X104774808Y-99667127D01*
X104774808Y-99613252D01*
X104747870Y-99532440D01*
X104693996Y-99478565D01*
X104613183Y-99451628D01*
X104559309Y-99451628D01*
X104478496Y-99478565D01*
X104343809Y-99559377D01*
X104262997Y-99586315D01*
X104209122Y-99586315D01*
X104128310Y-99559377D01*
X104074435Y-99505503D01*
X104047498Y-99424690D01*
X104047498Y-99370816D01*
X104074435Y-99290003D01*
X104209122Y-99155316D01*
X104316872Y-99101442D01*
X76802658Y-143765655D02*
X76721846Y-143792593D01*
X76641034Y-143873405D01*
X76587159Y-143981154D01*
X76587159Y-144088904D01*
X76614097Y-144169716D01*
X76694909Y-144304403D01*
X76775721Y-144385215D01*
X76910408Y-144466028D01*
X76991220Y-144492965D01*
X77098970Y-144492965D01*
X77206719Y-144439090D01*
X77260594Y-144385215D01*
X77314469Y-144277466D01*
X77314469Y-144223591D01*
X77125907Y-144035029D01*
X77018158Y-144142779D01*
X77610780Y-144035029D02*
X77045095Y-143469344D01*
X77934029Y-143711780D01*
X77368344Y-143146095D01*
X78203403Y-143442406D02*
X77637718Y-142876721D01*
X77772405Y-142742034D01*
X77880154Y-142688159D01*
X77987904Y-142688159D01*
X78068716Y-142715097D01*
X78203403Y-142795909D01*
X78284215Y-142876721D01*
X78365028Y-143011408D01*
X78391965Y-143092220D01*
X78391965Y-143199970D01*
X78338090Y-143307719D01*
X78203403Y-143442406D01*
X102414222Y-138928092D02*
X102333410Y-138955029D01*
X102252597Y-139035841D01*
X102198723Y-139143591D01*
X102198723Y-139251341D01*
X102225660Y-139332153D01*
X102306472Y-139466840D01*
X102387284Y-139547652D01*
X102521971Y-139628464D01*
X102602784Y-139655402D01*
X102710533Y-139655402D01*
X102818283Y-139601527D01*
X102872158Y-139547652D01*
X102926032Y-139439902D01*
X102926032Y-139386028D01*
X102737471Y-139197466D01*
X102629721Y-139305215D01*
X103222344Y-139197466D02*
X102656658Y-138631780D01*
X102872158Y-138416281D01*
X102952970Y-138389344D01*
X103006845Y-138389344D01*
X103087657Y-138416281D01*
X103168469Y-138497093D01*
X103195406Y-138577906D01*
X103195406Y-138631780D01*
X103168469Y-138712593D01*
X102952970Y-138928092D01*
X104084341Y-138335469D02*
X103761092Y-138658718D01*
X103922716Y-138497093D02*
X103357031Y-137931408D01*
X103383968Y-138066095D01*
X103383968Y-138173845D01*
X103357031Y-138254657D01*
X104353715Y-138066095D02*
X104461464Y-137958345D01*
X104488402Y-137877533D01*
X104488402Y-137823658D01*
X104461464Y-137688971D01*
X104380652Y-137554284D01*
X104165153Y-137338785D01*
X104084341Y-137311848D01*
X104030466Y-137311848D01*
X103949654Y-137338785D01*
X103841904Y-137446535D01*
X103814967Y-137527347D01*
X103814967Y-137581222D01*
X103841904Y-137662034D01*
X103976591Y-137796721D01*
X104057403Y-137823658D01*
X104111278Y-137823658D01*
X104192090Y-137796721D01*
X104299840Y-137688971D01*
X104326777Y-137608159D01*
X104326777Y-137554284D01*
X104299840Y-137473472D01*
X76829596Y-128498718D02*
X76748784Y-128525655D01*
X76667971Y-128606467D01*
X76614097Y-128714217D01*
X76614097Y-128821967D01*
X76641034Y-128902779D01*
X76721846Y-129037466D01*
X76802658Y-129118278D01*
X76937345Y-129199090D01*
X77018158Y-129226028D01*
X77125907Y-129226028D01*
X77233657Y-129172153D01*
X77287532Y-129118278D01*
X77341406Y-129010528D01*
X77341406Y-128956654D01*
X77152845Y-128768092D01*
X77045095Y-128875841D01*
X77637718Y-128768092D02*
X77072032Y-128202406D01*
X77287532Y-127986907D01*
X77368344Y-127959970D01*
X77422219Y-127959970D01*
X77503031Y-127986907D01*
X77583843Y-128067719D01*
X77610780Y-128148532D01*
X77610780Y-128202406D01*
X77583843Y-128283219D01*
X77368344Y-128498718D01*
X78230341Y-128175469D02*
X78338090Y-128067719D01*
X78365028Y-127986907D01*
X78365028Y-127933032D01*
X78338090Y-127798345D01*
X78257278Y-127663658D01*
X78041779Y-127448159D01*
X77960967Y-127421222D01*
X77907092Y-127421222D01*
X77826280Y-127448159D01*
X77718530Y-127555909D01*
X77691593Y-127636721D01*
X77691593Y-127690596D01*
X77718530Y-127771408D01*
X77853217Y-127906095D01*
X77934029Y-127933032D01*
X77987904Y-127933032D01*
X78068716Y-127906095D01*
X78176466Y-127798345D01*
X78203403Y-127717533D01*
X78203403Y-127663658D01*
X78176466Y-127582846D01*
X94221261Y-151091309D02*
X94335547Y-151129404D01*
X94526023Y-151129404D01*
X94602214Y-151091309D01*
X94640309Y-151053214D01*
X94678404Y-150977023D01*
X94678404Y-150900833D01*
X94640309Y-150824642D01*
X94602214Y-150786547D01*
X94526023Y-150748452D01*
X94373642Y-150710357D01*
X94297452Y-150672261D01*
X94259357Y-150634166D01*
X94221261Y-150557976D01*
X94221261Y-150481785D01*
X94259357Y-150405595D01*
X94297452Y-150367500D01*
X94373642Y-150329404D01*
X94564119Y-150329404D01*
X94678404Y-150367500D01*
X94945071Y-150329404D02*
X95135547Y-151129404D01*
X95287928Y-150557976D01*
X95440309Y-151129404D01*
X95630785Y-150329404D01*
X95935547Y-151129404D02*
X95935547Y-150329404D01*
X96126023Y-150329404D01*
X96240309Y-150367500D01*
X96316500Y-150443690D01*
X96354595Y-150519880D01*
X96392690Y-150672261D01*
X96392690Y-150786547D01*
X96354595Y-150938928D01*
X96316500Y-151015119D01*
X96240309Y-151091309D01*
X96126023Y-151129404D01*
X95935547Y-151129404D01*
X96735547Y-151129404D02*
X96735547Y-150329404D01*
X97268880Y-150329404D02*
X97421261Y-150329404D01*
X97497452Y-150367500D01*
X97573642Y-150443690D01*
X97611738Y-150596071D01*
X97611738Y-150862738D01*
X97573642Y-151015119D01*
X97497452Y-151091309D01*
X97421261Y-151129404D01*
X97268880Y-151129404D01*
X97192690Y-151091309D01*
X97116500Y-151015119D01*
X97078404Y-150862738D01*
X97078404Y-150596071D01*
X97116500Y-150443690D01*
X97192690Y-150367500D01*
X97268880Y-150329404D01*
X102468097Y-119308464D02*
X102737471Y-119039090D01*
X102575846Y-119523963D02*
X102198723Y-118769716D01*
X102952970Y-119146840D01*
X102899095Y-118123219D02*
X102818283Y-118150156D01*
X102737471Y-118230968D01*
X102683596Y-118338718D01*
X102683596Y-118446467D01*
X102710533Y-118527280D01*
X102791345Y-118661967D01*
X102872158Y-118742779D01*
X103006845Y-118823591D01*
X103087657Y-118850528D01*
X103195406Y-118850528D01*
X103303156Y-118796654D01*
X103357031Y-118742779D01*
X103410906Y-118635029D01*
X103410906Y-118581154D01*
X103222344Y-118392593D01*
X103114594Y-118500342D01*
X103707217Y-118392593D02*
X103141532Y-117826907D01*
X104030466Y-118069344D01*
X103464780Y-117503658D01*
X104299840Y-117799970D02*
X103734154Y-117234284D01*
X103868841Y-117099597D01*
X103976591Y-117045723D01*
X104084341Y-117045723D01*
X104165153Y-117072660D01*
X104299840Y-117153472D01*
X104380652Y-117234284D01*
X104461464Y-117368971D01*
X104488402Y-117449784D01*
X104488402Y-117557533D01*
X104434527Y-117665283D01*
X104299840Y-117799970D01*
X102206347Y-111058092D02*
X102556533Y-110707906D01*
X102583471Y-111111967D01*
X102664283Y-111031154D01*
X102745095Y-111004217D01*
X102798970Y-111004217D01*
X102879782Y-111031154D01*
X103014469Y-111165841D01*
X103041406Y-111246654D01*
X103041406Y-111300528D01*
X103014469Y-111381341D01*
X102852845Y-111542965D01*
X102772032Y-111569902D01*
X102718158Y-111569902D01*
X102718158Y-110546281D02*
X103472405Y-110923405D01*
X103095281Y-110169158D01*
X103229968Y-110034471D02*
X103580154Y-109684284D01*
X103607092Y-110088345D01*
X103687904Y-110007533D01*
X103768716Y-109980596D01*
X103822591Y-109980596D01*
X103903403Y-110007533D01*
X104038090Y-110142220D01*
X104065028Y-110223032D01*
X104065028Y-110276907D01*
X104038090Y-110357719D01*
X103876466Y-110519344D01*
X103795654Y-110546281D01*
X103741779Y-110546281D01*
X102471288Y-114101273D02*
X102740662Y-113831899D01*
X102579037Y-114316772D02*
X102201914Y-113562525D01*
X102956161Y-113939649D01*
X103144723Y-113751087D02*
X102579037Y-113185402D01*
X102713724Y-113050715D01*
X102821474Y-112996840D01*
X102929223Y-112996840D01*
X103010036Y-113023777D01*
X103144723Y-113104589D01*
X103225535Y-113185402D01*
X103306347Y-113320089D01*
X103333284Y-113400901D01*
X103333284Y-113508650D01*
X103279410Y-113616400D01*
X103144723Y-113751087D01*
X103979782Y-112808278D02*
X103979782Y-112862153D01*
X103925907Y-112969902D01*
X103872032Y-113023777D01*
X103764283Y-113077652D01*
X103656533Y-113077652D01*
X103575721Y-113050715D01*
X103441034Y-112969902D01*
X103360222Y-112889090D01*
X103279410Y-112754403D01*
X103252472Y-112673591D01*
X103252472Y-112565841D01*
X103306347Y-112458092D01*
X103360222Y-112404217D01*
X103467971Y-112350342D01*
X103521846Y-112350342D01*
X104195281Y-112808278D02*
X104626280Y-112377280D01*
X104060594Y-111703845D02*
X104814841Y-112080968D01*
X104437718Y-111326721D01*
X105515214Y-111380596D02*
X105057278Y-111299784D01*
X105191965Y-111703845D02*
X104626280Y-111138159D01*
X104841779Y-110922660D01*
X104922591Y-110895723D01*
X104976466Y-110895723D01*
X105057278Y-110922660D01*
X105138090Y-111003472D01*
X105165028Y-111084284D01*
X105165028Y-111138159D01*
X105138090Y-111218971D01*
X104922591Y-111434471D01*
X105461339Y-110841848D02*
X105649901Y-110653286D01*
X106027024Y-110868785D02*
X105757650Y-111138159D01*
X105191965Y-110572474D01*
X105461339Y-110303100D01*
X106161711Y-110141475D02*
X105973150Y-110330037D01*
X106269461Y-110626349D02*
X105703776Y-110060663D01*
X105973150Y-109791289D01*
X102414222Y-146548092D02*
X102333410Y-146575029D01*
X102252597Y-146655841D01*
X102198723Y-146763591D01*
X102198723Y-146871341D01*
X102225660Y-146952153D01*
X102306472Y-147086840D01*
X102387284Y-147167652D01*
X102521971Y-147248464D01*
X102602784Y-147275402D01*
X102710533Y-147275402D01*
X102818283Y-147221527D01*
X102872158Y-147167652D01*
X102926032Y-147059902D01*
X102926032Y-147006028D01*
X102737471Y-146817466D01*
X102629721Y-146925215D01*
X103222344Y-146817466D02*
X102656658Y-146251780D01*
X102872158Y-146036281D01*
X102952970Y-146009344D01*
X103006845Y-146009344D01*
X103087657Y-146036281D01*
X103168469Y-146117093D01*
X103195406Y-146197906D01*
X103195406Y-146251780D01*
X103168469Y-146332593D01*
X102952970Y-146548092D01*
X104084341Y-145955469D02*
X103761092Y-146278718D01*
X103922716Y-146117093D02*
X103357031Y-145551408D01*
X103383968Y-145686095D01*
X103383968Y-145793845D01*
X103357031Y-145874657D01*
X103707217Y-145201222D02*
X104084341Y-144824098D01*
X104407589Y-145632220D01*
X76306222Y-141468092D02*
X76225410Y-141495029D01*
X76144597Y-141575841D01*
X76090723Y-141683591D01*
X76090723Y-141791341D01*
X76117660Y-141872153D01*
X76198472Y-142006840D01*
X76279284Y-142087652D01*
X76413971Y-142168464D01*
X76494784Y-142195402D01*
X76602533Y-142195402D01*
X76710283Y-142141527D01*
X76764158Y-142087652D01*
X76818032Y-141979902D01*
X76818032Y-141926028D01*
X76629471Y-141737466D01*
X76521721Y-141845215D01*
X77114344Y-141737466D02*
X76548658Y-141171780D01*
X76764158Y-140956281D01*
X76844970Y-140929344D01*
X76898845Y-140929344D01*
X76979657Y-140956281D01*
X77060469Y-141037093D01*
X77087406Y-141117906D01*
X77087406Y-141171780D01*
X77060469Y-141252593D01*
X76844970Y-141468092D01*
X77976341Y-140875469D02*
X77653092Y-141198718D01*
X77814716Y-141037093D02*
X77249031Y-140471408D01*
X77275968Y-140606095D01*
X77275968Y-140713845D01*
X77249031Y-140794657D01*
X77599217Y-140121222D02*
X77949403Y-139771036D01*
X77976341Y-140175097D01*
X78057153Y-140094284D01*
X78137965Y-140067347D01*
X78191840Y-140067347D01*
X78272652Y-140094284D01*
X78407339Y-140228971D01*
X78434276Y-140309784D01*
X78434276Y-140363658D01*
X78407339Y-140444471D01*
X78245715Y-140606095D01*
X78164902Y-140633032D01*
X78111028Y-140633032D01*
X76929596Y-123388718D02*
X76848784Y-123415655D01*
X76767971Y-123496467D01*
X76714097Y-123604217D01*
X76714097Y-123711967D01*
X76741034Y-123792779D01*
X76821846Y-123927466D01*
X76902658Y-124008278D01*
X77037345Y-124089090D01*
X77118158Y-124116028D01*
X77225907Y-124116028D01*
X77333657Y-124062153D01*
X77387532Y-124008278D01*
X77441406Y-123900528D01*
X77441406Y-123846654D01*
X77252845Y-123658092D01*
X77145095Y-123765841D01*
X77737718Y-123658092D02*
X77172032Y-123092406D01*
X77387532Y-122876907D01*
X77468344Y-122849970D01*
X77522219Y-122849970D01*
X77603031Y-122876907D01*
X77683843Y-122957719D01*
X77710780Y-123038532D01*
X77710780Y-123092406D01*
X77683843Y-123173219D01*
X77468344Y-123388718D01*
X77683843Y-122580596D02*
X78060967Y-122203472D01*
X78384215Y-123011594D01*
X76160222Y-138928092D02*
X76079410Y-138955029D01*
X75998597Y-139035841D01*
X75944723Y-139143591D01*
X75944723Y-139251341D01*
X75971660Y-139332153D01*
X76052472Y-139466840D01*
X76133284Y-139547652D01*
X76267971Y-139628464D01*
X76348784Y-139655402D01*
X76456533Y-139655402D01*
X76564283Y-139601527D01*
X76618158Y-139547652D01*
X76672032Y-139439902D01*
X76672032Y-139386028D01*
X76483471Y-139197466D01*
X76375721Y-139305215D01*
X76968344Y-139197466D02*
X76402658Y-138631780D01*
X76618158Y-138416281D01*
X76698970Y-138389344D01*
X76752845Y-138389344D01*
X76833657Y-138416281D01*
X76914469Y-138497093D01*
X76941406Y-138577906D01*
X76941406Y-138631780D01*
X76914469Y-138712593D01*
X76698970Y-138928092D01*
X77830341Y-138335469D02*
X77507092Y-138658718D01*
X77668716Y-138497093D02*
X77103031Y-137931408D01*
X77129968Y-138066095D01*
X77129968Y-138173845D01*
X77103031Y-138254657D01*
X77534029Y-137608159D02*
X77534029Y-137554284D01*
X77560967Y-137473472D01*
X77695654Y-137338785D01*
X77776466Y-137311848D01*
X77830341Y-137311848D01*
X77911153Y-137338785D01*
X77965028Y-137392660D01*
X78018902Y-137500410D01*
X78018902Y-138146907D01*
X78369089Y-137796721D01*
X102414222Y-136388092D02*
X102333410Y-136415029D01*
X102252597Y-136495841D01*
X102198723Y-136603591D01*
X102198723Y-136711341D01*
X102225660Y-136792153D01*
X102306472Y-136926840D01*
X102387284Y-137007652D01*
X102521971Y-137088464D01*
X102602784Y-137115402D01*
X102710533Y-137115402D01*
X102818283Y-137061527D01*
X102872158Y-137007652D01*
X102926032Y-136899902D01*
X102926032Y-136846028D01*
X102737471Y-136657466D01*
X102629721Y-136765215D01*
X103222344Y-136657466D02*
X102656658Y-136091780D01*
X102872158Y-135876281D01*
X102952970Y-135849344D01*
X103006845Y-135849344D01*
X103087657Y-135876281D01*
X103168469Y-135957093D01*
X103195406Y-136037906D01*
X103195406Y-136091780D01*
X103168469Y-136172593D01*
X102952970Y-136388092D01*
X103249281Y-135606907D02*
X103249281Y-135553032D01*
X103276219Y-135472220D01*
X103410906Y-135337533D01*
X103491718Y-135310596D01*
X103545593Y-135310596D01*
X103626405Y-135337533D01*
X103680280Y-135391408D01*
X103734154Y-135499158D01*
X103734154Y-136145655D01*
X104084341Y-135795469D01*
X103868841Y-134879597D02*
X103922716Y-134825723D01*
X104003528Y-134798785D01*
X104057403Y-134798785D01*
X104138215Y-134825723D01*
X104272902Y-134906535D01*
X104407589Y-135041222D01*
X104488402Y-135175909D01*
X104515339Y-135256721D01*
X104515339Y-135310596D01*
X104488402Y-135391408D01*
X104434527Y-135445283D01*
X104353715Y-135472220D01*
X104299840Y-135472220D01*
X104219028Y-135445283D01*
X104084341Y-135364471D01*
X103949654Y-135229784D01*
X103868841Y-135095097D01*
X103841904Y-135014284D01*
X103841904Y-134960410D01*
X103868841Y-134879597D01*
X76306222Y-133848092D02*
X76225410Y-133875029D01*
X76144597Y-133955841D01*
X76090723Y-134063591D01*
X76090723Y-134171341D01*
X76117660Y-134252153D01*
X76198472Y-134386840D01*
X76279284Y-134467652D01*
X76413971Y-134548464D01*
X76494784Y-134575402D01*
X76602533Y-134575402D01*
X76710283Y-134521527D01*
X76764158Y-134467652D01*
X76818032Y-134359902D01*
X76818032Y-134306028D01*
X76629471Y-134117466D01*
X76521721Y-134225215D01*
X77114344Y-134117466D02*
X76548658Y-133551780D01*
X76764158Y-133336281D01*
X76844970Y-133309344D01*
X76898845Y-133309344D01*
X76979657Y-133336281D01*
X77060469Y-133417093D01*
X77087406Y-133497906D01*
X77087406Y-133551780D01*
X77060469Y-133632593D01*
X76844970Y-133848092D01*
X77976341Y-133255469D02*
X77653092Y-133578718D01*
X77814716Y-133417093D02*
X77249031Y-132851408D01*
X77275968Y-132986095D01*
X77275968Y-133093845D01*
X77249031Y-133174657D01*
X77760841Y-132339597D02*
X77814716Y-132285723D01*
X77895528Y-132258785D01*
X77949403Y-132258785D01*
X78030215Y-132285723D01*
X78164902Y-132366535D01*
X78299589Y-132501222D01*
X78380402Y-132635909D01*
X78407339Y-132716721D01*
X78407339Y-132770596D01*
X78380402Y-132851408D01*
X78326527Y-132905283D01*
X78245715Y-132932220D01*
X78191840Y-132932220D01*
X78111028Y-132905283D01*
X77976341Y-132824471D01*
X77841654Y-132689784D01*
X77760841Y-132555097D01*
X77733904Y-132474284D01*
X77733904Y-132420410D01*
X77760841Y-132339597D01*
X76829596Y-113258718D02*
X76748784Y-113285655D01*
X76667971Y-113366467D01*
X76614097Y-113474217D01*
X76614097Y-113581967D01*
X76641034Y-113662779D01*
X76721846Y-113797466D01*
X76802658Y-113878278D01*
X76937345Y-113959090D01*
X77018158Y-113986028D01*
X77125907Y-113986028D01*
X77233657Y-113932153D01*
X77287532Y-113878278D01*
X77341406Y-113770528D01*
X77341406Y-113716654D01*
X77152845Y-113528092D01*
X77045095Y-113635841D01*
X77637718Y-113528092D02*
X77072032Y-112962406D01*
X77287532Y-112746907D01*
X77368344Y-112719970D01*
X77422219Y-112719970D01*
X77503031Y-112746907D01*
X77583843Y-112827719D01*
X77610780Y-112908532D01*
X77610780Y-112962406D01*
X77583843Y-113043219D01*
X77368344Y-113258718D01*
X78068716Y-112342846D02*
X78445840Y-112719970D01*
X77718530Y-112262034D02*
X77987904Y-112800782D01*
X78338090Y-112450596D01*
X76306222Y-149088092D02*
X76225410Y-149115029D01*
X76144597Y-149195841D01*
X76090723Y-149303591D01*
X76090723Y-149411341D01*
X76117660Y-149492153D01*
X76198472Y-149626840D01*
X76279284Y-149707652D01*
X76413971Y-149788464D01*
X76494784Y-149815402D01*
X76602533Y-149815402D01*
X76710283Y-149761527D01*
X76764158Y-149707652D01*
X76818032Y-149599902D01*
X76818032Y-149546028D01*
X76629471Y-149357466D01*
X76521721Y-149465215D01*
X77114344Y-149357466D02*
X76548658Y-148791780D01*
X76764158Y-148576281D01*
X76844970Y-148549344D01*
X76898845Y-148549344D01*
X76979657Y-148576281D01*
X77060469Y-148657093D01*
X77087406Y-148737906D01*
X77087406Y-148791780D01*
X77060469Y-148872593D01*
X76844970Y-149088092D01*
X77976341Y-148495469D02*
X77653092Y-148818718D01*
X77814716Y-148657093D02*
X77249031Y-148091408D01*
X77275968Y-148226095D01*
X77275968Y-148333845D01*
X77249031Y-148414657D01*
X77922466Y-147417973D02*
X77653092Y-147687347D01*
X77895528Y-147983658D01*
X77895528Y-147929784D01*
X77922466Y-147848971D01*
X78057153Y-147714284D01*
X78137965Y-147687347D01*
X78191840Y-147687347D01*
X78272652Y-147714284D01*
X78407339Y-147848971D01*
X78434276Y-147929784D01*
X78434276Y-147983658D01*
X78407339Y-148064471D01*
X78272652Y-148199158D01*
X78191840Y-148226095D01*
X78137965Y-148226095D01*
X67631166Y-121699880D02*
X67631166Y-122414166D01*
X67583547Y-122557023D01*
X67488309Y-122652261D01*
X67345452Y-122699880D01*
X67250214Y-122699880D01*
X68631166Y-122699880D02*
X68059738Y-122699880D01*
X68345452Y-122699880D02*
X68345452Y-121699880D01*
X68250214Y-121842738D01*
X68154976Y-121937976D01*
X68059738Y-121985595D01*
D12*
X72028500Y-118979500D02*
X64916500Y-118979500D01*
X72028500Y-100691500D02*
X64916500Y-100691500D01*
X72790500Y-119233500D02*
G75*
G03*
X72790500Y-119233500I-254000J0D01*
G01*
D13*
X68254500Y-149407500D02*
X72754500Y-149407500D01*
X74004500Y-146907500D02*
X74004500Y-145407500D01*
X72754500Y-142907500D02*
X68254500Y-142907500D01*
X67004500Y-145407500D02*
X67004500Y-146907500D01*
X113049651Y-115647500D02*
G75*
G03*
X112998282Y-118338644I-2413151J-1300000D01*
G01*
X116244500Y-99477500D02*
X106124500Y-99477500D01*
X109942500Y-101985500D02*
X110337500Y-101589500D01*
X116244500Y-98377500D02*
X106124500Y-98377500D01*
X107030500Y-104365500D02*
X107425500Y-103969500D01*
X116244500Y-107037500D02*
X116244500Y-97917500D01*
X107296500Y-104631500D02*
X107676500Y-104251500D01*
X112030500Y-104365500D02*
X112137500Y-104258500D01*
X116244500Y-107037500D02*
X106124500Y-107037500D01*
X116484500Y-97677500D02*
X116084500Y-97677500D01*
X106124500Y-107037500D02*
X106124500Y-97917500D01*
X115232500Y-101696500D02*
X115338500Y-101589500D01*
X114966500Y-101430500D02*
X115072500Y-101323500D01*
X109691500Y-101703500D02*
X110071500Y-101323500D01*
X116484500Y-98317500D02*
X116484500Y-97677500D01*
X112296500Y-104631500D02*
X112403500Y-104524500D01*
X116244500Y-97917500D02*
X106124500Y-97917500D01*
X110864500Y-102977500D02*
G75*
G03*
X110864500Y-102977500I-2180000J0D01*
G01*
X115864500Y-102977500D02*
G75*
G03*
X115864500Y-102977500I-2180000J0D01*
G01*
X109344500Y-150547500D02*
X112944500Y-150547500D01*
X112944500Y-150547500D02*
G75*
G03*
X113468684Y-149820295I-1800000J1850000D01*
G01*
X111144500Y-146097500D02*
G75*
G03*
X108788100Y-147598693I0J-2600000D01*
G01*
X108820316Y-149820295D02*
G75*
G03*
X109344500Y-150547500I2324184J1122795D01*
G01*
X113500900Y-147598693D02*
G75*
G03*
X111144500Y-146097500I-2356400J-1098807D01*
G01*
X114804500Y-109227500D02*
X107564500Y-109227500D01*
X114804500Y-111967500D02*
X107564500Y-111967500D01*
X114804500Y-111967500D02*
X114804500Y-109227500D01*
X107564500Y-111967500D02*
X107564500Y-109227500D01*
X79816500Y-137067500D02*
X79816500Y-137467500D01*
X88816500Y-150067500D02*
X89216500Y-150067500D01*
X79816500Y-101467500D02*
X79816500Y-101867500D01*
X100816500Y-124367500D02*
X100816500Y-124767500D01*
X79816500Y-124367500D02*
X79816500Y-124767500D01*
X100816500Y-144667500D02*
X100816500Y-145067500D01*
X100816500Y-101467500D02*
X100816500Y-101867500D01*
X79816500Y-126867500D02*
X79816500Y-127267500D01*
X79816500Y-99067500D02*
X79816500Y-99367500D01*
X79816500Y-99067500D02*
X100816500Y-99067500D01*
X79816500Y-109167500D02*
X79816500Y-109567500D01*
X79816500Y-106567500D02*
X79816500Y-106967500D01*
X100816500Y-104067500D02*
X100816500Y-104467500D01*
X100816500Y-142167500D02*
X100816500Y-142567500D01*
X79816500Y-104067500D02*
X79816500Y-104467500D01*
X79816500Y-111667500D02*
X79816500Y-112067500D01*
X100816500Y-147267500D02*
X100816500Y-147667500D01*
X79816500Y-134567500D02*
X79816500Y-134967500D01*
X100816500Y-111667500D02*
X100816500Y-112067500D01*
X79816500Y-142167500D02*
X79816500Y-142567500D01*
X79816500Y-129467500D02*
X79816500Y-129867500D01*
X91416500Y-150067500D02*
X91816500Y-150067500D01*
X86616500Y-150067500D02*
X79816500Y-150067500D01*
X79816500Y-101734500D02*
X82823500Y-101734500D01*
X100816500Y-119267500D02*
X100816500Y-119667500D01*
X79816500Y-139667500D02*
X79816500Y-140067500D01*
X100816500Y-114167500D02*
X100816500Y-114567500D01*
X100816500Y-131967500D02*
X100816500Y-132367500D01*
X79816500Y-121867500D02*
X79816500Y-122267500D01*
X79816500Y-131967500D02*
X79816500Y-132367500D01*
X100816500Y-134567500D02*
X100816500Y-134967500D01*
X79816500Y-116767500D02*
X79816500Y-117167500D01*
X79816500Y-119267500D02*
X79816500Y-119667500D01*
X100816500Y-139667500D02*
X100816500Y-140067500D01*
X79816500Y-114167500D02*
X79816500Y-114567500D01*
X100816500Y-106567500D02*
X100816500Y-106967500D01*
X82823500Y-101734500D02*
X82823500Y-99067500D01*
X100816500Y-109167500D02*
X100816500Y-109567500D01*
X100816500Y-99067500D02*
X100816500Y-99367500D01*
X79816500Y-144667500D02*
X79816500Y-145067500D01*
X100816500Y-137067500D02*
X100816500Y-137467500D01*
X79816500Y-147267500D02*
X79816500Y-147667500D01*
X100816500Y-129467500D02*
X100816500Y-129867500D01*
X100816500Y-116767500D02*
X100816500Y-117167500D01*
X100816500Y-121867500D02*
X100816500Y-122267500D01*
X100816500Y-150067500D02*
X94016500Y-150067500D01*
X100816500Y-126867500D02*
X100816500Y-127267500D01*
X66634500Y-133527500D02*
X69294500Y-133527500D01*
X66634500Y-123247500D02*
X67964500Y-123247500D01*
X66634500Y-124577500D02*
X66634500Y-123247500D01*
X66634500Y-125847500D02*
X66634500Y-133527500D01*
X66634500Y-125847500D02*
X69294500Y-125847500D01*
X69294500Y-125847500D02*
X69294500Y-133527500D01*
%LPC*%
D14*
X72282500Y-117455500D03*
X72282500Y-114915500D03*
X72282500Y-112375500D03*
X72282500Y-109835500D03*
X72282500Y-107295500D03*
X72282500Y-104755500D03*
X72282500Y-102215500D03*
X64662500Y-102215500D03*
X64662500Y-104755500D03*
X64662500Y-107295500D03*
X64662500Y-109835500D03*
X64662500Y-112375500D03*
X64662500Y-114915500D03*
X64662500Y-117455500D03*
D15*
X73754500Y-143907500D03*
X67254500Y-143907500D03*
X73754500Y-148407500D03*
X67254500Y-148407500D03*
D16*
X110636500Y-116947500D03*
D17*
X114446500Y-116947500D03*
D18*
X113684500Y-102977500D03*
D19*
X108684500Y-102977500D03*
D20*
X108604500Y-148697500D03*
D21*
X111144500Y-148697500D03*
X113684500Y-148697500D03*
D22*
X113684500Y-110597500D03*
X108684500Y-110597500D03*
D23*
X92741500Y-103597500D03*
D24*
X87591500Y-100567500D03*
X93041500Y-100567500D03*
D23*
X87891500Y-103597500D03*
D25*
X81426500Y-100437500D03*
D26*
X80526500Y-100437500D03*
X80526500Y-102977500D03*
D25*
X81426500Y-102977500D03*
D26*
X80526500Y-105517500D03*
D27*
X81426500Y-105517500D03*
D26*
X80526500Y-108057500D03*
D25*
X81426500Y-108057500D03*
D26*
X80526500Y-110597500D03*
D25*
X81426500Y-110597500D03*
X81426500Y-113137500D03*
D26*
X80526500Y-113137500D03*
X80526500Y-115677500D03*
D25*
X81426500Y-115677500D03*
D26*
X80526500Y-118217500D03*
D27*
X81426500Y-118217500D03*
D25*
X81426500Y-120757500D03*
D26*
X80526500Y-120757500D03*
X80526500Y-123297500D03*
D25*
X81426500Y-123297500D03*
X81426500Y-125837500D03*
D26*
X80526500Y-125837500D03*
D25*
X81426500Y-128377500D03*
D26*
X80526500Y-128377500D03*
X80526500Y-130917500D03*
D27*
X81426500Y-130917500D03*
D25*
X81426500Y-133457500D03*
D26*
X80526500Y-133457500D03*
X80526500Y-135997500D03*
D25*
X81426500Y-135997500D03*
D26*
X80526500Y-138537500D03*
D25*
X81426500Y-138537500D03*
D26*
X80526500Y-141077500D03*
D25*
X81426500Y-141077500D03*
D27*
X81426500Y-143617500D03*
D26*
X80526500Y-143617500D03*
D25*
X81426500Y-146157500D03*
D26*
X80526500Y-146157500D03*
D25*
X81426500Y-148697500D03*
D26*
X80526500Y-148697500D03*
X100106500Y-148697500D03*
D25*
X99206500Y-148697500D03*
D26*
X100106500Y-146157500D03*
D25*
X99206500Y-146157500D03*
D27*
X99206500Y-143617500D03*
D26*
X100106500Y-143617500D03*
D25*
X99206500Y-141077500D03*
D26*
X100106500Y-141077500D03*
X100106500Y-138537500D03*
D25*
X99206500Y-138537500D03*
D26*
X100106500Y-135997500D03*
D25*
X99206500Y-135997500D03*
D26*
X100106500Y-133457500D03*
D25*
X99206500Y-133457500D03*
D27*
X99206500Y-130917500D03*
D26*
X100106500Y-130917500D03*
X100106500Y-128377500D03*
D25*
X99206500Y-128377500D03*
D26*
X100106500Y-125837500D03*
D25*
X99206500Y-125837500D03*
X99206500Y-123297500D03*
D26*
X100106500Y-123297500D03*
D25*
X99206500Y-120757500D03*
D26*
X100106500Y-120757500D03*
X100106500Y-118217500D03*
D27*
X99206500Y-118217500D03*
D26*
X100106500Y-115677500D03*
D25*
X99206500Y-115677500D03*
D26*
X100106500Y-113137500D03*
D25*
X99206500Y-113137500D03*
X99206500Y-110597500D03*
D26*
X100106500Y-110597500D03*
D25*
X99206500Y-108057500D03*
D26*
X100106500Y-108057500D03*
D27*
X99206500Y-105517500D03*
D26*
X100106500Y-105517500D03*
D25*
X99206500Y-102977500D03*
D26*
X100106500Y-102977500D03*
D25*
X99206500Y-100437500D03*
D26*
X100106500Y-100437500D03*
D25*
X87776500Y-148467500D03*
D28*
X87776500Y-149367500D03*
D27*
X90316500Y-148467500D03*
D28*
X90316500Y-149367500D03*
X92856500Y-149367500D03*
D25*
X92856500Y-148467500D03*
D27*
X67964500Y-124577500D03*
D25*
X67964500Y-127117500D03*
X67964500Y-129657500D03*
X67964500Y-132197500D03*
M02*
