G04 #@! TF.GenerationSoftware,KiCad,Pcbnew,(6.0.6)*
G04 #@! TF.CreationDate,2022-11-09T14:25:10-05:00*
G04 #@! TF.ProjectId,pov_display,706f765f-6469-4737-906c-61792e6b6963,v01*
G04 #@! TF.SameCoordinates,Original*
G04 #@! TF.FileFunction,Copper,L1,Top*
G04 #@! TF.FilePolarity,Positive*
%FSLAX46Y46*%
G04 Gerber Fmt 4.6, Leading zero omitted, Abs format (unit mm)*
G04 Created by KiCad (PCBNEW (6.0.6)) date 2022-11-09 14:25:10*
%MOMM*%
%LPD*%
G01*
G04 APERTURE LIST*
G04 #@! TA.AperFunction,ComponentPad*
%ADD10C,1.600000*%
G04 #@! TD*
G04 #@! TA.AperFunction,ComponentPad*
%ADD11O,1.600000X1.600000*%
G04 #@! TD*
G04 #@! TA.AperFunction,ComponentPad*
%ADD12C,1.524000*%
G04 #@! TD*
G04 #@! TA.AperFunction,ComponentPad*
%ADD13R,2.600000X2.600000*%
G04 #@! TD*
G04 #@! TA.AperFunction,ComponentPad*
%ADD14C,2.600000*%
G04 #@! TD*
G04 #@! TA.AperFunction,ComponentPad*
%ADD15R,1.500000X1.500000*%
G04 #@! TD*
G04 #@! TA.AperFunction,ComponentPad*
%ADD16C,1.500000*%
G04 #@! TD*
G04 #@! TA.AperFunction,ComponentPad*
%ADD17O,1.700000X1.700000*%
G04 #@! TD*
G04 #@! TA.AperFunction,SMDPad,CuDef*
%ADD18R,3.500000X1.700000*%
G04 #@! TD*
G04 #@! TA.AperFunction,ComponentPad*
%ADD19R,1.700000X1.700000*%
G04 #@! TD*
G04 #@! TA.AperFunction,SMDPad,CuDef*
%ADD20R,1.700000X3.500000*%
G04 #@! TD*
G04 #@! TA.AperFunction,ComponentPad*
%ADD21O,2.600000X2.600000*%
G04 #@! TD*
G04 #@! TA.AperFunction,ComponentPad*
%ADD22C,2.000000*%
G04 #@! TD*
G04 #@! TA.AperFunction,Conductor*
%ADD23C,0.254000*%
G04 #@! TD*
G04 #@! TA.AperFunction,Conductor*
%ADD24C,1.016000*%
G04 #@! TD*
G04 APERTURE END LIST*
D10*
X103231500Y-150514500D03*
D11*
X103231500Y-160674500D03*
D12*
X68072000Y-128270000D03*
X68072000Y-125730000D03*
X68072000Y-123190000D03*
X68072000Y-120650000D03*
X68072000Y-118110000D03*
X68072000Y-115570000D03*
X68072000Y-113030000D03*
X60452000Y-113030000D03*
X60452000Y-115570000D03*
X60452000Y-118110000D03*
X60452000Y-120650000D03*
X60452000Y-123190000D03*
X60452000Y-125730000D03*
X60452000Y-128270000D03*
D10*
X109474000Y-121412000D03*
X104474000Y-121412000D03*
D13*
X109474000Y-113792000D03*
D14*
X104474000Y-113792000D03*
D15*
X109221500Y-157880500D03*
D16*
X109221500Y-160420500D03*
X109221500Y-162960500D03*
D17*
X77216000Y-111252000D03*
D18*
X76316000Y-111252000D03*
X76316000Y-113792000D03*
D17*
X77216000Y-113792000D03*
D18*
X76316000Y-116332000D03*
D19*
X77216000Y-116332000D03*
D18*
X76316000Y-118872000D03*
D17*
X77216000Y-118872000D03*
D18*
X76316000Y-121412000D03*
D17*
X77216000Y-121412000D03*
X77216000Y-123952000D03*
D18*
X76316000Y-123952000D03*
X76316000Y-126492000D03*
D17*
X77216000Y-126492000D03*
D18*
X76316000Y-129032000D03*
D19*
X77216000Y-129032000D03*
D17*
X77216000Y-131572000D03*
D18*
X76316000Y-131572000D03*
X76316000Y-134112000D03*
D17*
X77216000Y-134112000D03*
X77216000Y-136652000D03*
D18*
X76316000Y-136652000D03*
D17*
X77216000Y-139192000D03*
D18*
X76316000Y-139192000D03*
X76316000Y-141732000D03*
D19*
X77216000Y-141732000D03*
D17*
X77216000Y-144272000D03*
D18*
X76316000Y-144272000D03*
X76316000Y-146812000D03*
D17*
X77216000Y-146812000D03*
D18*
X76316000Y-149352000D03*
D17*
X77216000Y-149352000D03*
D18*
X76316000Y-151892000D03*
D17*
X77216000Y-151892000D03*
D19*
X77216000Y-154432000D03*
D18*
X76316000Y-154432000D03*
D17*
X77216000Y-156972000D03*
D18*
X76316000Y-156972000D03*
D17*
X77216000Y-159512000D03*
D18*
X76316000Y-159512000D03*
X95896000Y-159512000D03*
D17*
X94996000Y-159512000D03*
D18*
X95896000Y-156972000D03*
D17*
X94996000Y-156972000D03*
D19*
X94996000Y-154432000D03*
D18*
X95896000Y-154432000D03*
D17*
X94996000Y-151892000D03*
D18*
X95896000Y-151892000D03*
X95896000Y-149352000D03*
D17*
X94996000Y-149352000D03*
D18*
X95896000Y-146812000D03*
D17*
X94996000Y-146812000D03*
D18*
X95896000Y-144272000D03*
D17*
X94996000Y-144272000D03*
D19*
X94996000Y-141732000D03*
D18*
X95896000Y-141732000D03*
X95896000Y-139192000D03*
D17*
X94996000Y-139192000D03*
D18*
X95896000Y-136652000D03*
D17*
X94996000Y-136652000D03*
X94996000Y-134112000D03*
D18*
X95896000Y-134112000D03*
D17*
X94996000Y-131572000D03*
D18*
X95896000Y-131572000D03*
X95896000Y-129032000D03*
D19*
X94996000Y-129032000D03*
D18*
X95896000Y-126492000D03*
D17*
X94996000Y-126492000D03*
D18*
X95896000Y-123952000D03*
D17*
X94996000Y-123952000D03*
X94996000Y-121412000D03*
D18*
X95896000Y-121412000D03*
D17*
X94996000Y-118872000D03*
D18*
X95896000Y-118872000D03*
D19*
X94996000Y-116332000D03*
D18*
X95896000Y-116332000D03*
D17*
X94996000Y-113792000D03*
D18*
X95896000Y-113792000D03*
D17*
X94996000Y-111252000D03*
D18*
X95896000Y-111252000D03*
D17*
X83566000Y-159282000D03*
D20*
X83566000Y-160182000D03*
D19*
X86106000Y-159282000D03*
D20*
X86106000Y-160182000D03*
X88646000Y-160182000D03*
D17*
X88646000Y-159282000D03*
D19*
X63754000Y-135392000D03*
D17*
X63754000Y-137932000D03*
X63754000Y-140472000D03*
X63754000Y-143012000D03*
D13*
X106426000Y-127762000D03*
D21*
X110236000Y-127762000D03*
D22*
X69544000Y-154722000D03*
X63044000Y-154722000D03*
X69544000Y-159222000D03*
X63044000Y-159222000D03*
D23*
X101346000Y-123952000D02*
X101346000Y-144526000D01*
X101346000Y-144526000D02*
X103124000Y-146304000D01*
X105302500Y-157880500D02*
X109221500Y-157880500D01*
X103124000Y-155702000D02*
X105302500Y-157880500D01*
X98806000Y-121412000D02*
X101346000Y-123952000D01*
X94996000Y-121412000D02*
X98806000Y-121412000D01*
X103124000Y-146304000D02*
X103124000Y-155702000D01*
X94996000Y-144272000D02*
X98552000Y-144272000D01*
X98552000Y-144272000D02*
X101600000Y-147320000D01*
X101600000Y-147320000D02*
X101600000Y-159258000D01*
X105302500Y-162960500D02*
X109221500Y-162960500D01*
X101600000Y-159258000D02*
X105302500Y-162960500D01*
X66802000Y-137424000D02*
X66802000Y-131572000D01*
X78447000Y-149137000D02*
X78447000Y-150583000D01*
X90932000Y-136652000D02*
X78447000Y-149137000D01*
X61595000Y-135763000D02*
X61595000Y-132461000D01*
X106426000Y-127762000D02*
X99568000Y-120904000D01*
X62484000Y-118872000D02*
X65786000Y-115570000D01*
X63754000Y-140472000D02*
X66802000Y-137424000D01*
X65786000Y-115570000D02*
X68072000Y-115570000D01*
X61595000Y-132461000D02*
X62484000Y-131572000D01*
X66802000Y-131572000D02*
X66040000Y-130810000D01*
X62484000Y-131572000D02*
X62484000Y-118872000D01*
X77216000Y-118872000D02*
X68833999Y-118871999D01*
X68833999Y-118871999D02*
X68072000Y-118110000D01*
X60706000Y-136652000D02*
X61595000Y-135763000D01*
X77216000Y-121412000D02*
X72390000Y-121412000D01*
X72390000Y-121412000D02*
X68072000Y-125730000D01*
X78447000Y-150583000D02*
X73683000Y-150583000D01*
X99568000Y-120904000D02*
X99568000Y-116642000D01*
X66040000Y-125222000D02*
X68072000Y-123190000D01*
X63754000Y-137932000D02*
X61986000Y-137932000D01*
X73683000Y-150583000D02*
X69544000Y-154722000D01*
X69544000Y-154722000D02*
X63044000Y-154722000D01*
X94996000Y-136652000D02*
X90932000Y-136652000D01*
X66040000Y-130810000D02*
X66040000Y-125222000D01*
X99568000Y-116642000D02*
X96718000Y-113792000D01*
X61986000Y-137932000D02*
X60706000Y-136652000D01*
X96718000Y-113792000D02*
X94996000Y-113792000D01*
D24*
X60462000Y-143012000D02*
X63754000Y-143012000D01*
X109474000Y-121412000D02*
X109474000Y-113792000D01*
X59436000Y-129286000D02*
X59436000Y-141986000D01*
X60452000Y-128270000D02*
X59436000Y-129286000D01*
X109474000Y-127000000D02*
X110236000Y-127762000D01*
X109474000Y-121412000D02*
X109474000Y-127000000D01*
X59436000Y-141986000D02*
X60462000Y-143012000D01*
G04 #@! TA.AperFunction,Conductor*
G36*
X114749621Y-107462502D02*
G01*
X114796114Y-107516158D01*
X114807500Y-107568500D01*
X114807500Y-168275500D01*
X114787498Y-168343621D01*
X114733842Y-168390114D01*
X114681500Y-168401500D01*
X58546500Y-168401500D01*
X58478379Y-168381498D01*
X58431886Y-168327842D01*
X58420500Y-168275500D01*
X58420500Y-160454670D01*
X62176160Y-160454670D01*
X62181887Y-160462320D01*
X62353042Y-160567205D01*
X62361837Y-160571687D01*
X62571988Y-160658734D01*
X62581373Y-160661783D01*
X62802554Y-160714885D01*
X62812301Y-160716428D01*
X63039070Y-160734275D01*
X63048930Y-160734275D01*
X63275699Y-160716428D01*
X63285446Y-160714885D01*
X63506627Y-160661783D01*
X63516012Y-160658734D01*
X63726163Y-160571687D01*
X63734958Y-160567205D01*
X63902445Y-160464568D01*
X63911400Y-160454670D01*
X68676160Y-160454670D01*
X68681887Y-160462320D01*
X68853042Y-160567205D01*
X68861837Y-160571687D01*
X69071988Y-160658734D01*
X69081373Y-160661783D01*
X69302554Y-160714885D01*
X69312301Y-160716428D01*
X69539070Y-160734275D01*
X69548930Y-160734275D01*
X69775699Y-160716428D01*
X69785446Y-160714885D01*
X70006627Y-160661783D01*
X70016012Y-160658734D01*
X70226163Y-160571687D01*
X70234958Y-160567205D01*
X70402445Y-160464568D01*
X70411907Y-160454110D01*
X70408124Y-160445334D01*
X70372924Y-160410134D01*
X74057500Y-160410134D01*
X74064255Y-160472316D01*
X74115385Y-160608705D01*
X74202739Y-160725261D01*
X74319295Y-160812615D01*
X74455684Y-160863745D01*
X74517866Y-160870500D01*
X77186826Y-160870500D01*
X77191443Y-160870585D01*
X77272673Y-160873564D01*
X77272677Y-160873564D01*
X77277837Y-160873753D01*
X77282957Y-160873097D01*
X77282959Y-160873097D01*
X77295261Y-160871521D01*
X77311271Y-160870500D01*
X78114134Y-160870500D01*
X78176316Y-160863745D01*
X78312705Y-160812615D01*
X78429261Y-160725261D01*
X78516615Y-160608705D01*
X78567745Y-160472316D01*
X78574500Y-160410134D01*
X78574500Y-159609856D01*
X78575578Y-159593409D01*
X78577092Y-159581908D01*
X78577529Y-159578590D01*
X78577822Y-159566588D01*
X78579074Y-159515365D01*
X78579074Y-159515361D01*
X78579156Y-159512000D01*
X78574924Y-159460524D01*
X78574500Y-159450200D01*
X78574500Y-159248695D01*
X82203251Y-159248695D01*
X82203548Y-159253848D01*
X82203548Y-159253851D01*
X82207291Y-159318763D01*
X82207500Y-159326016D01*
X82207500Y-161980134D01*
X82214255Y-162042316D01*
X82265385Y-162178705D01*
X82352739Y-162295261D01*
X82469295Y-162382615D01*
X82605684Y-162433745D01*
X82667866Y-162440500D01*
X84464134Y-162440500D01*
X84526316Y-162433745D01*
X84662705Y-162382615D01*
X84760436Y-162309370D01*
X84826941Y-162284522D01*
X84896324Y-162299575D01*
X84911562Y-162309368D01*
X85009295Y-162382615D01*
X85145684Y-162433745D01*
X85207866Y-162440500D01*
X87004134Y-162440500D01*
X87066316Y-162433745D01*
X87202705Y-162382615D01*
X87300436Y-162309370D01*
X87366941Y-162284522D01*
X87436324Y-162299575D01*
X87451562Y-162309368D01*
X87549295Y-162382615D01*
X87685684Y-162433745D01*
X87747866Y-162440500D01*
X89544134Y-162440500D01*
X89606316Y-162433745D01*
X89742705Y-162382615D01*
X89859261Y-162295261D01*
X89946615Y-162178705D01*
X89997745Y-162042316D01*
X90004500Y-161980134D01*
X90004500Y-159478695D01*
X93633251Y-159478695D01*
X93633548Y-159483848D01*
X93633548Y-159483851D01*
X93637291Y-159548763D01*
X93637500Y-159556016D01*
X93637500Y-160410134D01*
X93644255Y-160472316D01*
X93695385Y-160608705D01*
X93782739Y-160725261D01*
X93899295Y-160812615D01*
X94035684Y-160863745D01*
X94097866Y-160870500D01*
X94966826Y-160870500D01*
X94971443Y-160870585D01*
X95052673Y-160873564D01*
X95052677Y-160873564D01*
X95057837Y-160873753D01*
X95062957Y-160873097D01*
X95062959Y-160873097D01*
X95075261Y-160871521D01*
X95091271Y-160870500D01*
X97694134Y-160870500D01*
X97756316Y-160863745D01*
X97892705Y-160812615D01*
X98009261Y-160725261D01*
X98096615Y-160608705D01*
X98147745Y-160472316D01*
X98154500Y-160410134D01*
X98154500Y-158613866D01*
X98147745Y-158551684D01*
X98096615Y-158415295D01*
X98023370Y-158317564D01*
X97998522Y-158251059D01*
X98013575Y-158181676D01*
X98023370Y-158166435D01*
X98091229Y-158075891D01*
X98096615Y-158068705D01*
X98147745Y-157932316D01*
X98154500Y-157870134D01*
X98154500Y-156073866D01*
X98147745Y-156011684D01*
X98096615Y-155875295D01*
X98023058Y-155777148D01*
X97998210Y-155710642D01*
X98013263Y-155641259D01*
X98023058Y-155626018D01*
X98090786Y-155535649D01*
X98099324Y-155520054D01*
X98144478Y-155399606D01*
X98148105Y-155384351D01*
X98153631Y-155333486D01*
X98154000Y-155326672D01*
X98154000Y-154704115D01*
X98149525Y-154688876D01*
X98148135Y-154687671D01*
X98140452Y-154686000D01*
X93656116Y-154686000D01*
X93640877Y-154690475D01*
X93639672Y-154691865D01*
X93638001Y-154699548D01*
X93638001Y-155326669D01*
X93638371Y-155333490D01*
X93643895Y-155384352D01*
X93647521Y-155399604D01*
X93692676Y-155520054D01*
X93701214Y-155535649D01*
X93768942Y-155626018D01*
X93793790Y-155692525D01*
X93778737Y-155761907D01*
X93768942Y-155777148D01*
X93695385Y-155875295D01*
X93644255Y-156011684D01*
X93637500Y-156073866D01*
X93637500Y-156892219D01*
X93636787Y-156905607D01*
X93633251Y-156938695D01*
X93633548Y-156943848D01*
X93633548Y-156943851D01*
X93637291Y-157008763D01*
X93637500Y-157016016D01*
X93637500Y-157870134D01*
X93644255Y-157932316D01*
X93695385Y-158068705D01*
X93700771Y-158075891D01*
X93768630Y-158166435D01*
X93793478Y-158232941D01*
X93778425Y-158302324D01*
X93768632Y-158317562D01*
X93695385Y-158415295D01*
X93644255Y-158551684D01*
X93637500Y-158613866D01*
X93637500Y-159432219D01*
X93636787Y-159445607D01*
X93633251Y-159478695D01*
X90004500Y-159478695D01*
X90004500Y-159379856D01*
X90005578Y-159363409D01*
X90007092Y-159351908D01*
X90007529Y-159348590D01*
X90008378Y-159313856D01*
X90009074Y-159285365D01*
X90009074Y-159285361D01*
X90009156Y-159282000D01*
X90004924Y-159230524D01*
X90004500Y-159220200D01*
X90004500Y-158383866D01*
X89997745Y-158321684D01*
X89946615Y-158185295D01*
X89859261Y-158068739D01*
X89742705Y-157981385D01*
X89606316Y-157930255D01*
X89544134Y-157923500D01*
X88660985Y-157923500D01*
X88659446Y-157923491D01*
X88556081Y-157922228D01*
X88556079Y-157922228D01*
X88550911Y-157922165D01*
X88545797Y-157922948D01*
X88542289Y-157923193D01*
X88533496Y-157923500D01*
X87747866Y-157923500D01*
X87685684Y-157930255D01*
X87549295Y-157981385D01*
X87451565Y-158054630D01*
X87385059Y-158079478D01*
X87315676Y-158064425D01*
X87300435Y-158054630D01*
X87202705Y-157981385D01*
X87066316Y-157930255D01*
X87004134Y-157923500D01*
X85207866Y-157923500D01*
X85145684Y-157930255D01*
X85009295Y-157981385D01*
X84911565Y-158054630D01*
X84845059Y-158079478D01*
X84775676Y-158064425D01*
X84760435Y-158054630D01*
X84662705Y-157981385D01*
X84526316Y-157930255D01*
X84464134Y-157923500D01*
X83580985Y-157923500D01*
X83579446Y-157923491D01*
X83476081Y-157922228D01*
X83476079Y-157922228D01*
X83470911Y-157922165D01*
X83465797Y-157922948D01*
X83462289Y-157923193D01*
X83453496Y-157923500D01*
X82667866Y-157923500D01*
X82605684Y-157930255D01*
X82469295Y-157981385D01*
X82352739Y-158068739D01*
X82265385Y-158185295D01*
X82214255Y-158321684D01*
X82207500Y-158383866D01*
X82207500Y-159202219D01*
X82206787Y-159215607D01*
X82203251Y-159248695D01*
X78574500Y-159248695D01*
X78574500Y-158613866D01*
X78567745Y-158551684D01*
X78516615Y-158415295D01*
X78443370Y-158317564D01*
X78418522Y-158251059D01*
X78433575Y-158181676D01*
X78443370Y-158166435D01*
X78511229Y-158075891D01*
X78516615Y-158068705D01*
X78567745Y-157932316D01*
X78574500Y-157870134D01*
X78574500Y-157069856D01*
X78575578Y-157053409D01*
X78577092Y-157041908D01*
X78577529Y-157038590D01*
X78578081Y-157016016D01*
X78579074Y-156975365D01*
X78579074Y-156975361D01*
X78579156Y-156972000D01*
X78574924Y-156920524D01*
X78574500Y-156910200D01*
X78574500Y-156073866D01*
X78567745Y-156011684D01*
X78516615Y-155875295D01*
X78443058Y-155777148D01*
X78418210Y-155710642D01*
X78433263Y-155641259D01*
X78443058Y-155626018D01*
X78510786Y-155535649D01*
X78519324Y-155520054D01*
X78564478Y-155399606D01*
X78568105Y-155384351D01*
X78573631Y-155333486D01*
X78574000Y-155326672D01*
X78574000Y-154704115D01*
X78569525Y-154688876D01*
X78568135Y-154687671D01*
X78560452Y-154686000D01*
X74076116Y-154686000D01*
X74060877Y-154690475D01*
X74059672Y-154691865D01*
X74058001Y-154699548D01*
X74058001Y-155326669D01*
X74058371Y-155333490D01*
X74063895Y-155384352D01*
X74067521Y-155399604D01*
X74112676Y-155520054D01*
X74121214Y-155535649D01*
X74188942Y-155626018D01*
X74213790Y-155692525D01*
X74198737Y-155761907D01*
X74188942Y-155777148D01*
X74115385Y-155875295D01*
X74064255Y-156011684D01*
X74057500Y-156073866D01*
X74057500Y-157870134D01*
X74064255Y-157932316D01*
X74115385Y-158068705D01*
X74120771Y-158075891D01*
X74188630Y-158166435D01*
X74213478Y-158232941D01*
X74198425Y-158302324D01*
X74188632Y-158317562D01*
X74115385Y-158415295D01*
X74064255Y-158551684D01*
X74057500Y-158613866D01*
X74057500Y-160410134D01*
X70372924Y-160410134D01*
X69556812Y-159594022D01*
X69542868Y-159586408D01*
X69541035Y-159586539D01*
X69534420Y-159590790D01*
X68682920Y-160442290D01*
X68676160Y-160454670D01*
X63911400Y-160454670D01*
X63911907Y-160454110D01*
X63908124Y-160445334D01*
X63056812Y-159594022D01*
X63042868Y-159586408D01*
X63041035Y-159586539D01*
X63034420Y-159590790D01*
X62182920Y-160442290D01*
X62176160Y-160454670D01*
X58420500Y-160454670D01*
X58420500Y-159226930D01*
X61531725Y-159226930D01*
X61549572Y-159453699D01*
X61551115Y-159463446D01*
X61604217Y-159684627D01*
X61607266Y-159694012D01*
X61694313Y-159904163D01*
X61698795Y-159912958D01*
X61801432Y-160080445D01*
X61811890Y-160089907D01*
X61820666Y-160086124D01*
X62671978Y-159234812D01*
X62678356Y-159223132D01*
X63408408Y-159223132D01*
X63408539Y-159224965D01*
X63412790Y-159231580D01*
X64264290Y-160083080D01*
X64276670Y-160089840D01*
X64284320Y-160084113D01*
X64389205Y-159912958D01*
X64393687Y-159904163D01*
X64480734Y-159694012D01*
X64483783Y-159684627D01*
X64536885Y-159463446D01*
X64538428Y-159453699D01*
X64556275Y-159226930D01*
X68031725Y-159226930D01*
X68049572Y-159453699D01*
X68051115Y-159463446D01*
X68104217Y-159684627D01*
X68107266Y-159694012D01*
X68194313Y-159904163D01*
X68198795Y-159912958D01*
X68301432Y-160080445D01*
X68311890Y-160089907D01*
X68320666Y-160086124D01*
X69171978Y-159234812D01*
X69178356Y-159223132D01*
X69908408Y-159223132D01*
X69908539Y-159224965D01*
X69912790Y-159231580D01*
X70764290Y-160083080D01*
X70776670Y-160089840D01*
X70784320Y-160084113D01*
X70889205Y-159912958D01*
X70893687Y-159904163D01*
X70980734Y-159694012D01*
X70983783Y-159684627D01*
X71036885Y-159463446D01*
X71038428Y-159453699D01*
X71056275Y-159226930D01*
X71056275Y-159217070D01*
X71038428Y-158990301D01*
X71036885Y-158980554D01*
X70983783Y-158759373D01*
X70980734Y-158749988D01*
X70893687Y-158539837D01*
X70889205Y-158531042D01*
X70786568Y-158363555D01*
X70776110Y-158354093D01*
X70767334Y-158357876D01*
X69916022Y-159209188D01*
X69908408Y-159223132D01*
X69178356Y-159223132D01*
X69179592Y-159220868D01*
X69179461Y-159219035D01*
X69175210Y-159212420D01*
X68323710Y-158360920D01*
X68311330Y-158354160D01*
X68303680Y-158359887D01*
X68198795Y-158531042D01*
X68194313Y-158539837D01*
X68107266Y-158749988D01*
X68104217Y-158759373D01*
X68051115Y-158980554D01*
X68049572Y-158990301D01*
X68031725Y-159217070D01*
X68031725Y-159226930D01*
X64556275Y-159226930D01*
X64556275Y-159217070D01*
X64538428Y-158990301D01*
X64536885Y-158980554D01*
X64483783Y-158759373D01*
X64480734Y-158749988D01*
X64393687Y-158539837D01*
X64389205Y-158531042D01*
X64286568Y-158363555D01*
X64276110Y-158354093D01*
X64267334Y-158357876D01*
X63416022Y-159209188D01*
X63408408Y-159223132D01*
X62678356Y-159223132D01*
X62679592Y-159220868D01*
X62679461Y-159219035D01*
X62675210Y-159212420D01*
X61823710Y-158360920D01*
X61811330Y-158354160D01*
X61803680Y-158359887D01*
X61698795Y-158531042D01*
X61694313Y-158539837D01*
X61607266Y-158749988D01*
X61604217Y-158759373D01*
X61551115Y-158980554D01*
X61549572Y-158990301D01*
X61531725Y-159217070D01*
X61531725Y-159226930D01*
X58420500Y-159226930D01*
X58420500Y-157989890D01*
X62176093Y-157989890D01*
X62179876Y-157998666D01*
X63031188Y-158849978D01*
X63045132Y-158857592D01*
X63046965Y-158857461D01*
X63053580Y-158853210D01*
X63905080Y-158001710D01*
X63911534Y-157989890D01*
X68676093Y-157989890D01*
X68679876Y-157998666D01*
X69531188Y-158849978D01*
X69545132Y-158857592D01*
X69546965Y-158857461D01*
X69553580Y-158853210D01*
X70405080Y-158001710D01*
X70411840Y-157989330D01*
X70406113Y-157981680D01*
X70234958Y-157876795D01*
X70226163Y-157872313D01*
X70016012Y-157785266D01*
X70006627Y-157782217D01*
X69785446Y-157729115D01*
X69775699Y-157727572D01*
X69548930Y-157709725D01*
X69539070Y-157709725D01*
X69312301Y-157727572D01*
X69302554Y-157729115D01*
X69081373Y-157782217D01*
X69071988Y-157785266D01*
X68861837Y-157872313D01*
X68853042Y-157876795D01*
X68685555Y-157979432D01*
X68676093Y-157989890D01*
X63911534Y-157989890D01*
X63911840Y-157989330D01*
X63906113Y-157981680D01*
X63734958Y-157876795D01*
X63726163Y-157872313D01*
X63516012Y-157785266D01*
X63506627Y-157782217D01*
X63285446Y-157729115D01*
X63275699Y-157727572D01*
X63048930Y-157709725D01*
X63039070Y-157709725D01*
X62812301Y-157727572D01*
X62802554Y-157729115D01*
X62581373Y-157782217D01*
X62571988Y-157785266D01*
X62361837Y-157872313D01*
X62353042Y-157876795D01*
X62185555Y-157979432D01*
X62176093Y-157989890D01*
X58420500Y-157989890D01*
X58420500Y-154722000D01*
X61530835Y-154722000D01*
X61549465Y-154958711D01*
X61604895Y-155189594D01*
X61606788Y-155194165D01*
X61606789Y-155194167D01*
X61685566Y-155384352D01*
X61695760Y-155408963D01*
X61698346Y-155413183D01*
X61817241Y-155607202D01*
X61817245Y-155607208D01*
X61819824Y-155611416D01*
X61974031Y-155791969D01*
X62154584Y-155946176D01*
X62158792Y-155948755D01*
X62158798Y-155948759D01*
X62352817Y-156067654D01*
X62357037Y-156070240D01*
X62361607Y-156072133D01*
X62361611Y-156072135D01*
X62571833Y-156159211D01*
X62576406Y-156161105D01*
X62624124Y-156172561D01*
X62802476Y-156215380D01*
X62802482Y-156215381D01*
X62807289Y-156216535D01*
X63044000Y-156235165D01*
X63280711Y-156216535D01*
X63285518Y-156215381D01*
X63285524Y-156215380D01*
X63463876Y-156172561D01*
X63511594Y-156161105D01*
X63516167Y-156159211D01*
X63726389Y-156072135D01*
X63726393Y-156072133D01*
X63730963Y-156070240D01*
X63735183Y-156067654D01*
X63929202Y-155948759D01*
X63929208Y-155948755D01*
X63933416Y-155946176D01*
X64113969Y-155791969D01*
X64268176Y-155611416D01*
X64386908Y-155417664D01*
X64439555Y-155370034D01*
X64494340Y-155357500D01*
X68093660Y-155357500D01*
X68161781Y-155377502D01*
X68201092Y-155417664D01*
X68319824Y-155611416D01*
X68474031Y-155791969D01*
X68654584Y-155946176D01*
X68658792Y-155948755D01*
X68658798Y-155948759D01*
X68852817Y-156067654D01*
X68857037Y-156070240D01*
X68861607Y-156072133D01*
X68861611Y-156072135D01*
X69071833Y-156159211D01*
X69076406Y-156161105D01*
X69124124Y-156172561D01*
X69302476Y-156215380D01*
X69302482Y-156215381D01*
X69307289Y-156216535D01*
X69544000Y-156235165D01*
X69780711Y-156216535D01*
X69785518Y-156215381D01*
X69785524Y-156215380D01*
X69963876Y-156172561D01*
X70011594Y-156161105D01*
X70016167Y-156159211D01*
X70226389Y-156072135D01*
X70226393Y-156072133D01*
X70230963Y-156070240D01*
X70235183Y-156067654D01*
X70429202Y-155948759D01*
X70429208Y-155948755D01*
X70433416Y-155946176D01*
X70613969Y-155791969D01*
X70768176Y-155611416D01*
X70770755Y-155607208D01*
X70770759Y-155607202D01*
X70889654Y-155413183D01*
X70892240Y-155408963D01*
X70902435Y-155384352D01*
X70981211Y-155194167D01*
X70981212Y-155194165D01*
X70983105Y-155189594D01*
X71038535Y-154958711D01*
X71057165Y-154722000D01*
X71038535Y-154485289D01*
X70985488Y-154264330D01*
X70989035Y-154193422D01*
X71018912Y-154145821D01*
X73842405Y-151322328D01*
X73904717Y-151288302D01*
X73975532Y-151293367D01*
X74032368Y-151335914D01*
X74057179Y-151402434D01*
X74057500Y-151411423D01*
X74057500Y-152790134D01*
X74064255Y-152852316D01*
X74115385Y-152988705D01*
X74120771Y-152995891D01*
X74188942Y-153086852D01*
X74213790Y-153153358D01*
X74198737Y-153222741D01*
X74188942Y-153237982D01*
X74121214Y-153328351D01*
X74112676Y-153343946D01*
X74067522Y-153464394D01*
X74063895Y-153479649D01*
X74058369Y-153530514D01*
X74058000Y-153537328D01*
X74058000Y-154159885D01*
X74062475Y-154175124D01*
X74063865Y-154176329D01*
X74071548Y-154178000D01*
X78555884Y-154178000D01*
X78571123Y-154173525D01*
X78572328Y-154172135D01*
X78573999Y-154164452D01*
X78573999Y-153537331D01*
X78573629Y-153530510D01*
X78568105Y-153479648D01*
X78564479Y-153464396D01*
X78519324Y-153343946D01*
X78510786Y-153328351D01*
X78443058Y-153237982D01*
X78418210Y-153171475D01*
X78433263Y-153102093D01*
X78443058Y-153086852D01*
X78511229Y-152995891D01*
X78516615Y-152988705D01*
X78567745Y-152852316D01*
X78574500Y-152790134D01*
X78574500Y-151989856D01*
X78575578Y-151973409D01*
X78577092Y-151961908D01*
X78577529Y-151958590D01*
X78579156Y-151892000D01*
X78576418Y-151858695D01*
X93633251Y-151858695D01*
X93633548Y-151863848D01*
X93633548Y-151863851D01*
X93637291Y-151928763D01*
X93637500Y-151936016D01*
X93637500Y-152790134D01*
X93644255Y-152852316D01*
X93695385Y-152988705D01*
X93700771Y-152995891D01*
X93768942Y-153086852D01*
X93793790Y-153153358D01*
X93778737Y-153222741D01*
X93768942Y-153237982D01*
X93701214Y-153328351D01*
X93692676Y-153343946D01*
X93647522Y-153464394D01*
X93643895Y-153479649D01*
X93638369Y-153530514D01*
X93638000Y-153537328D01*
X93638000Y-154159885D01*
X93642475Y-154175124D01*
X93643865Y-154176329D01*
X93651548Y-154178000D01*
X98135884Y-154178000D01*
X98151123Y-154173525D01*
X98152328Y-154172135D01*
X98153999Y-154164452D01*
X98153999Y-153537331D01*
X98153629Y-153530510D01*
X98148105Y-153479648D01*
X98144479Y-153464396D01*
X98099324Y-153343946D01*
X98090786Y-153328351D01*
X98023058Y-153237982D01*
X97998210Y-153171475D01*
X98013263Y-153102093D01*
X98023058Y-153086852D01*
X98091229Y-152995891D01*
X98096615Y-152988705D01*
X98147745Y-152852316D01*
X98154500Y-152790134D01*
X98154500Y-150993866D01*
X98147745Y-150931684D01*
X98096615Y-150795295D01*
X98023370Y-150697564D01*
X97998522Y-150631059D01*
X98013575Y-150561676D01*
X98023370Y-150546435D01*
X98047304Y-150514500D01*
X98096615Y-150448705D01*
X98147745Y-150312316D01*
X98154500Y-150250134D01*
X98154500Y-148453866D01*
X98147745Y-148391684D01*
X98096615Y-148255295D01*
X98023370Y-148157564D01*
X97998522Y-148091059D01*
X98013575Y-148021676D01*
X98023370Y-148006435D01*
X98096615Y-147908705D01*
X98147745Y-147772316D01*
X98154500Y-147710134D01*
X98154500Y-145913866D01*
X98147745Y-145851684D01*
X98096615Y-145715295D01*
X98023370Y-145617564D01*
X97998522Y-145551059D01*
X98013575Y-145481676D01*
X98023370Y-145466435D01*
X98091229Y-145375891D01*
X98096615Y-145368705D01*
X98147745Y-145232316D01*
X98154500Y-145170134D01*
X98154500Y-145077422D01*
X98174502Y-145009301D01*
X98228158Y-144962808D01*
X98298432Y-144952704D01*
X98363012Y-144982198D01*
X98369595Y-144988327D01*
X99649250Y-146267983D01*
X100927595Y-147546328D01*
X100961621Y-147608640D01*
X100964500Y-147635423D01*
X100964500Y-159178980D01*
X100963970Y-159190214D01*
X100962292Y-159197719D01*
X100963091Y-159223132D01*
X100964438Y-159266012D01*
X100964500Y-159269969D01*
X100964500Y-159297983D01*
X100964996Y-159301908D01*
X100964996Y-159301909D01*
X100965008Y-159302004D01*
X100965941Y-159313849D01*
X100967335Y-159358205D01*
X100971226Y-159371597D01*
X100973013Y-159377748D01*
X100977023Y-159397112D01*
X100979573Y-159417299D01*
X100982489Y-159424663D01*
X100982490Y-159424668D01*
X100995907Y-159458556D01*
X100999752Y-159469785D01*
X101002341Y-159478695D01*
X101012131Y-159512393D01*
X101016169Y-159519220D01*
X101016170Y-159519223D01*
X101022488Y-159529906D01*
X101031188Y-159547664D01*
X101035761Y-159559215D01*
X101035765Y-159559221D01*
X101038681Y-159566588D01*
X101043339Y-159572999D01*
X101043340Y-159573001D01*
X101053081Y-159586408D01*
X101064117Y-159601597D01*
X101064764Y-159602488D01*
X101071281Y-159612410D01*
X101089826Y-159643768D01*
X101089829Y-159643772D01*
X101093866Y-159650598D01*
X101108250Y-159664982D01*
X101121091Y-159680016D01*
X101133058Y-159696487D01*
X101139166Y-159701540D01*
X101167255Y-159724777D01*
X101176035Y-159732767D01*
X101892526Y-160449258D01*
X101926552Y-160511570D01*
X101928952Y-160549334D01*
X101921519Y-160634304D01*
X101918002Y-160674500D01*
X101937957Y-160902587D01*
X101939381Y-160907900D01*
X101939381Y-160907902D01*
X101990000Y-161096811D01*
X101997216Y-161123743D01*
X101999539Y-161128724D01*
X101999539Y-161128725D01*
X102091651Y-161326262D01*
X102091654Y-161326267D01*
X102093977Y-161331249D01*
X102097134Y-161335757D01*
X102192261Y-161471612D01*
X102225302Y-161518800D01*
X102387200Y-161680698D01*
X102391708Y-161683855D01*
X102391711Y-161683857D01*
X102410757Y-161697193D01*
X102574751Y-161812023D01*
X102579733Y-161814346D01*
X102579738Y-161814349D01*
X102698228Y-161869601D01*
X102782257Y-161908784D01*
X102787565Y-161910206D01*
X102787567Y-161910207D01*
X102998098Y-161966619D01*
X102998100Y-161966619D01*
X103003413Y-161968043D01*
X103231500Y-161987998D01*
X103236975Y-161987519D01*
X103236976Y-161987519D01*
X103356665Y-161977048D01*
X103426270Y-161991037D01*
X103456741Y-162013474D01*
X104797250Y-163353983D01*
X104804826Y-163362309D01*
X104808947Y-163368803D01*
X104814722Y-163374226D01*
X104858765Y-163415585D01*
X104861607Y-163418340D01*
X104881406Y-163438139D01*
X104884531Y-163440563D01*
X104884540Y-163440571D01*
X104884626Y-163440637D01*
X104893651Y-163448345D01*
X104925994Y-163478717D01*
X104932938Y-163482535D01*
X104932940Y-163482536D01*
X104943829Y-163488522D01*
X104960347Y-163499373D01*
X104976433Y-163511850D01*
X105017166Y-163529476D01*
X105027814Y-163534693D01*
X105066697Y-163556069D01*
X105074372Y-163558040D01*
X105074378Y-163558042D01*
X105086411Y-163561131D01*
X105105113Y-163567534D01*
X105123792Y-163575617D01*
X105157628Y-163580976D01*
X105167627Y-163582560D01*
X105179240Y-163584965D01*
X105222218Y-163596000D01*
X105242565Y-163596000D01*
X105262277Y-163597551D01*
X105282379Y-163600735D01*
X105290271Y-163599989D01*
X105326556Y-163596559D01*
X105338414Y-163596000D01*
X108064546Y-163596000D01*
X108132667Y-163616002D01*
X108167759Y-163649729D01*
X108253751Y-163772538D01*
X108409462Y-163928249D01*
X108589846Y-164054556D01*
X108789424Y-164147620D01*
X109002129Y-164204615D01*
X109221500Y-164223807D01*
X109440871Y-164204615D01*
X109653576Y-164147620D01*
X109853154Y-164054556D01*
X110033538Y-163928249D01*
X110189249Y-163772538D01*
X110311777Y-163597551D01*
X110312399Y-163596662D01*
X110312400Y-163596660D01*
X110315556Y-163592153D01*
X110317879Y-163587171D01*
X110317882Y-163587166D01*
X110368452Y-163478717D01*
X110408620Y-163392576D01*
X110465615Y-163179871D01*
X110484807Y-162960500D01*
X110465615Y-162741129D01*
X110408620Y-162528424D01*
X110342098Y-162385767D01*
X110317882Y-162333834D01*
X110317879Y-162333829D01*
X110315556Y-162328847D01*
X110287021Y-162288095D01*
X110192408Y-162152973D01*
X110192406Y-162152970D01*
X110189249Y-162148462D01*
X110033538Y-161992751D01*
X110026751Y-161987998D01*
X109954259Y-161937239D01*
X109853154Y-161866444D01*
X109848172Y-161864121D01*
X109848167Y-161864118D01*
X109720141Y-161804419D01*
X109666856Y-161757502D01*
X109647395Y-161689224D01*
X109667937Y-161621264D01*
X109720141Y-161576029D01*
X109847916Y-161516447D01*
X109857412Y-161510964D01*
X109898648Y-161482090D01*
X109907023Y-161471612D01*
X109899957Y-161458168D01*
X109234311Y-160792521D01*
X109220368Y-160784908D01*
X109218534Y-160785039D01*
X109211920Y-160789290D01*
X108542320Y-161458891D01*
X108535893Y-161470661D01*
X108545187Y-161482675D01*
X108585588Y-161510964D01*
X108595084Y-161516447D01*
X108722859Y-161576029D01*
X108776144Y-161622946D01*
X108795605Y-161691224D01*
X108775063Y-161759184D01*
X108722859Y-161804419D01*
X108594834Y-161864118D01*
X108594829Y-161864121D01*
X108589847Y-161866444D01*
X108585340Y-161869600D01*
X108585338Y-161869601D01*
X108413973Y-161989592D01*
X108413970Y-161989594D01*
X108409462Y-161992751D01*
X108253751Y-162148462D01*
X108250594Y-162152970D01*
X108250592Y-162152973D01*
X108167759Y-162271271D01*
X108112302Y-162315599D01*
X108064546Y-162325000D01*
X105617923Y-162325000D01*
X105549802Y-162304998D01*
X105528828Y-162288095D01*
X104495137Y-161254404D01*
X104461111Y-161192092D01*
X104465716Y-161123888D01*
X104465784Y-161123743D01*
X104473001Y-161096811D01*
X104523619Y-160907902D01*
X104523619Y-160907900D01*
X104525043Y-160902587D01*
X104544998Y-160674500D01*
X104525043Y-160446413D01*
X104519567Y-160425975D01*
X107959174Y-160425975D01*
X107977401Y-160634304D01*
X107979304Y-160645099D01*
X108033428Y-160847095D01*
X108037174Y-160857387D01*
X108125554Y-161046917D01*
X108131034Y-161056407D01*
X108159911Y-161097649D01*
X108170387Y-161106023D01*
X108183834Y-161098955D01*
X108849479Y-160433311D01*
X108855856Y-160421632D01*
X109585908Y-160421632D01*
X109586039Y-160423466D01*
X109590290Y-160430080D01*
X110259891Y-161099680D01*
X110271661Y-161106107D01*
X110283676Y-161096811D01*
X110311966Y-161056407D01*
X110317446Y-161046917D01*
X110405826Y-160857387D01*
X110409572Y-160847095D01*
X110463696Y-160645099D01*
X110465599Y-160634304D01*
X110483826Y-160425975D01*
X110483826Y-160415025D01*
X110465599Y-160206696D01*
X110463696Y-160195901D01*
X110409572Y-159993905D01*
X110405826Y-159983613D01*
X110317446Y-159794083D01*
X110311966Y-159784593D01*
X110283089Y-159743351D01*
X110272613Y-159734977D01*
X110259166Y-159742045D01*
X109593521Y-160407689D01*
X109585908Y-160421632D01*
X108855856Y-160421632D01*
X108857092Y-160419368D01*
X108856961Y-160417534D01*
X108852710Y-160410920D01*
X108183109Y-159741320D01*
X108171339Y-159734893D01*
X108159324Y-159744189D01*
X108131034Y-159784593D01*
X108125554Y-159794083D01*
X108037174Y-159983613D01*
X108033428Y-159993905D01*
X107979304Y-160195901D01*
X107977401Y-160206696D01*
X107959174Y-160415025D01*
X107959174Y-160425975D01*
X104519567Y-160425975D01*
X104514667Y-160407689D01*
X104467207Y-160230567D01*
X104467206Y-160230565D01*
X104465784Y-160225257D01*
X104402670Y-160089907D01*
X104371349Y-160022738D01*
X104371346Y-160022733D01*
X104369023Y-160017751D01*
X104237698Y-159830200D01*
X104075800Y-159668302D01*
X104071292Y-159665145D01*
X104071289Y-159665143D01*
X103965102Y-159590790D01*
X103888249Y-159536977D01*
X103883267Y-159534654D01*
X103883262Y-159534651D01*
X103685725Y-159442539D01*
X103685724Y-159442539D01*
X103680743Y-159440216D01*
X103675435Y-159438794D01*
X103675433Y-159438793D01*
X103464902Y-159382381D01*
X103464900Y-159382381D01*
X103459587Y-159380957D01*
X103231500Y-159361002D01*
X103003413Y-159380957D01*
X102998100Y-159382381D01*
X102998098Y-159382381D01*
X102787567Y-159438793D01*
X102787565Y-159438794D01*
X102782257Y-159440216D01*
X102782128Y-159440276D01*
X102712928Y-159444671D01*
X102651596Y-159410863D01*
X102272405Y-159031672D01*
X102238379Y-158969360D01*
X102235500Y-158942577D01*
X102235500Y-155682146D01*
X102240945Y-155663604D01*
X102237799Y-155657516D01*
X102235500Y-155633556D01*
X102235500Y-151656520D01*
X102255502Y-151588399D01*
X102309158Y-151541906D01*
X102379432Y-151531802D01*
X102433825Y-151553345D01*
X102434825Y-151554046D01*
X102479125Y-151609527D01*
X102488500Y-151657221D01*
X102488500Y-155622980D01*
X102487971Y-155634208D01*
X102486292Y-155641719D01*
X102486447Y-155646654D01*
X102483555Y-155653898D01*
X102487438Y-155678189D01*
X102488438Y-155710012D01*
X102488500Y-155713969D01*
X102488500Y-155741983D01*
X102488996Y-155745908D01*
X102488996Y-155745909D01*
X102489008Y-155746004D01*
X102489941Y-155757849D01*
X102491335Y-155802205D01*
X102493547Y-155809817D01*
X102497013Y-155821748D01*
X102501023Y-155841112D01*
X102503573Y-155861299D01*
X102506489Y-155868663D01*
X102506490Y-155868668D01*
X102519907Y-155902556D01*
X102523752Y-155913785D01*
X102536131Y-155956393D01*
X102540169Y-155963220D01*
X102540170Y-155963223D01*
X102546488Y-155973906D01*
X102555188Y-155991664D01*
X102559761Y-156003215D01*
X102559765Y-156003221D01*
X102562681Y-156010588D01*
X102567339Y-156016999D01*
X102567340Y-156017001D01*
X102588764Y-156046488D01*
X102595281Y-156056410D01*
X102613826Y-156087768D01*
X102613829Y-156087772D01*
X102617866Y-156094598D01*
X102632250Y-156108982D01*
X102645091Y-156124016D01*
X102657058Y-156140487D01*
X102663166Y-156145540D01*
X102691255Y-156168777D01*
X102700035Y-156176767D01*
X104797245Y-158273977D01*
X104804822Y-158282303D01*
X104808947Y-158288803D01*
X104814725Y-158294229D01*
X104814726Y-158294230D01*
X104858781Y-158335600D01*
X104861623Y-158338355D01*
X104881406Y-158358138D01*
X104884614Y-158360626D01*
X104893643Y-158368337D01*
X104925994Y-158398717D01*
X104932943Y-158402537D01*
X104943829Y-158408522D01*
X104960353Y-158419376D01*
X104976433Y-158431849D01*
X104983710Y-158434998D01*
X105017150Y-158449469D01*
X105027811Y-158454692D01*
X105059747Y-158472249D01*
X105059752Y-158472251D01*
X105066697Y-158476069D01*
X105074371Y-158478039D01*
X105074378Y-158478042D01*
X105086413Y-158481132D01*
X105105118Y-158487536D01*
X105116513Y-158492467D01*
X105123792Y-158495617D01*
X105150842Y-158499901D01*
X105167627Y-158502560D01*
X105179240Y-158504965D01*
X105222218Y-158516000D01*
X105242565Y-158516000D01*
X105262277Y-158517551D01*
X105282379Y-158520735D01*
X105290271Y-158519989D01*
X105326556Y-158516559D01*
X105338414Y-158516000D01*
X107837000Y-158516000D01*
X107905121Y-158536002D01*
X107951614Y-158589658D01*
X107963000Y-158642000D01*
X107963000Y-158678634D01*
X107969755Y-158740816D01*
X108020885Y-158877205D01*
X108108239Y-158993761D01*
X108224795Y-159081115D01*
X108361184Y-159132245D01*
X108423366Y-159139000D01*
X108458794Y-159139000D01*
X108526915Y-159159002D01*
X108573408Y-159212658D01*
X108583512Y-159282932D01*
X108555379Y-159344532D01*
X108555663Y-159344759D01*
X108554759Y-159345890D01*
X108554018Y-159347512D01*
X108552027Y-159349308D01*
X108535977Y-159369387D01*
X108543045Y-159382834D01*
X109208689Y-160048479D01*
X109222632Y-160056092D01*
X109224466Y-160055961D01*
X109231080Y-160051710D01*
X109900680Y-159382109D01*
X109907107Y-159370339D01*
X109886102Y-159343188D01*
X109889704Y-159340402D01*
X109867608Y-159312762D01*
X109860295Y-159242143D01*
X109892323Y-159178781D01*
X109953522Y-159142793D01*
X109984205Y-159139000D01*
X110019634Y-159139000D01*
X110081816Y-159132245D01*
X110218205Y-159081115D01*
X110334761Y-158993761D01*
X110422115Y-158877205D01*
X110473245Y-158740816D01*
X110480000Y-158678634D01*
X110480000Y-157082366D01*
X110473245Y-157020184D01*
X110422115Y-156883795D01*
X110334761Y-156767239D01*
X110218205Y-156679885D01*
X110081816Y-156628755D01*
X110019634Y-156622000D01*
X108423366Y-156622000D01*
X108361184Y-156628755D01*
X108224795Y-156679885D01*
X108108239Y-156767239D01*
X108020885Y-156883795D01*
X107969755Y-157020184D01*
X107963000Y-157082366D01*
X107963000Y-157119000D01*
X107942998Y-157187121D01*
X107889342Y-157233614D01*
X107837000Y-157245000D01*
X105617923Y-157245000D01*
X105549802Y-157224998D01*
X105528828Y-157208095D01*
X103796405Y-155475672D01*
X103762379Y-155413360D01*
X103759500Y-155386577D01*
X103759500Y-151792330D01*
X103779502Y-151724209D01*
X103832251Y-151678135D01*
X103883265Y-151654347D01*
X103888249Y-151652023D01*
X103979113Y-151588399D01*
X104071289Y-151523857D01*
X104071292Y-151523855D01*
X104075800Y-151520698D01*
X104237698Y-151358800D01*
X104369023Y-151171249D01*
X104371346Y-151166267D01*
X104371349Y-151166262D01*
X104463461Y-150968725D01*
X104463461Y-150968724D01*
X104465784Y-150963743D01*
X104468781Y-150952560D01*
X104523619Y-150747902D01*
X104523619Y-150747900D01*
X104525043Y-150742587D01*
X104544998Y-150514500D01*
X104525043Y-150286413D01*
X104515322Y-150250134D01*
X104467207Y-150070567D01*
X104467206Y-150070565D01*
X104465784Y-150065257D01*
X104447637Y-150026340D01*
X104371349Y-149862738D01*
X104371346Y-149862733D01*
X104369023Y-149857751D01*
X104237698Y-149670200D01*
X104075800Y-149508302D01*
X104071292Y-149505145D01*
X104071289Y-149505143D01*
X103905081Y-149388763D01*
X103888249Y-149376977D01*
X103832251Y-149350865D01*
X103778965Y-149303948D01*
X103759500Y-149236670D01*
X103759500Y-147720500D01*
X104343510Y-147720500D01*
X104363856Y-148108718D01*
X104364369Y-148111958D01*
X104364370Y-148111966D01*
X104388403Y-148263703D01*
X104424670Y-148492682D01*
X104525286Y-148868186D01*
X104664601Y-149231116D01*
X104841090Y-149577495D01*
X105052819Y-149903529D01*
X105054897Y-149906095D01*
X105259725Y-150159035D01*
X105297468Y-150205644D01*
X105572356Y-150480532D01*
X105574914Y-150482604D01*
X105574918Y-150482607D01*
X105787784Y-150654983D01*
X105874471Y-150725181D01*
X106200505Y-150936910D01*
X106546884Y-151113399D01*
X106909814Y-151252714D01*
X107285318Y-151353330D01*
X107489336Y-151385643D01*
X107666034Y-151413630D01*
X107666042Y-151413631D01*
X107669282Y-151414144D01*
X108057500Y-151434490D01*
X108445718Y-151414144D01*
X108448958Y-151413631D01*
X108448966Y-151413630D01*
X108625664Y-151385643D01*
X108829682Y-151353330D01*
X109205186Y-151252714D01*
X109568116Y-151113399D01*
X109914495Y-150936910D01*
X110240529Y-150725181D01*
X110327216Y-150654983D01*
X110540082Y-150482607D01*
X110540086Y-150482604D01*
X110542644Y-150480532D01*
X110817532Y-150205644D01*
X110855276Y-150159035D01*
X111060103Y-149906095D01*
X111062181Y-149903529D01*
X111273910Y-149577495D01*
X111450399Y-149231116D01*
X111589714Y-148868186D01*
X111690330Y-148492682D01*
X111726597Y-148263703D01*
X111750630Y-148111966D01*
X111750631Y-148111958D01*
X111751144Y-148108718D01*
X111771490Y-147720500D01*
X111751144Y-147332282D01*
X111747615Y-147309997D01*
X111706133Y-147048094D01*
X111690330Y-146948318D01*
X111589714Y-146572814D01*
X111450399Y-146209884D01*
X111273910Y-145863505D01*
X111062181Y-145537471D01*
X110931336Y-145375891D01*
X110819607Y-145237918D01*
X110819604Y-145237914D01*
X110817532Y-145235356D01*
X110542644Y-144960468D01*
X110539687Y-144958073D01*
X110243095Y-144717897D01*
X110240529Y-144715819D01*
X109914495Y-144504090D01*
X109568116Y-144327601D01*
X109275735Y-144215367D01*
X109208276Y-144189472D01*
X109208274Y-144189471D01*
X109205186Y-144188286D01*
X108829682Y-144087670D01*
X108588870Y-144049529D01*
X108448966Y-144027370D01*
X108448958Y-144027369D01*
X108445718Y-144026856D01*
X108057500Y-144006510D01*
X107669282Y-144026856D01*
X107666042Y-144027369D01*
X107666034Y-144027370D01*
X107526130Y-144049529D01*
X107285318Y-144087670D01*
X106909814Y-144188286D01*
X106906726Y-144189471D01*
X106906724Y-144189472D01*
X106839265Y-144215367D01*
X106546884Y-144327601D01*
X106200505Y-144504090D01*
X105874471Y-144715819D01*
X105871905Y-144717897D01*
X105575314Y-144958073D01*
X105572356Y-144960468D01*
X105297468Y-145235356D01*
X105295396Y-145237914D01*
X105295393Y-145237918D01*
X105183664Y-145375891D01*
X105052819Y-145537471D01*
X104841090Y-145863505D01*
X104664601Y-146209884D01*
X104525286Y-146572814D01*
X104424670Y-146948318D01*
X104408867Y-147048094D01*
X104367386Y-147309997D01*
X104363856Y-147332282D01*
X104343510Y-147720500D01*
X103759500Y-147720500D01*
X103759500Y-146383032D01*
X103760030Y-146371793D01*
X103761709Y-146364281D01*
X103759562Y-146295969D01*
X103759500Y-146292012D01*
X103759500Y-146264017D01*
X103758992Y-146259994D01*
X103758059Y-146248152D01*
X103756914Y-146211720D01*
X103756665Y-146203795D01*
X103750987Y-146184251D01*
X103746977Y-146164888D01*
X103745420Y-146152560D01*
X103745420Y-146152558D01*
X103744427Y-146144701D01*
X103741511Y-146137337D01*
X103741510Y-146137332D01*
X103728093Y-146103444D01*
X103724248Y-146092215D01*
X103714080Y-146057219D01*
X103711869Y-146049607D01*
X103701510Y-146032091D01*
X103692813Y-146014341D01*
X103685319Y-145995412D01*
X103659238Y-145959514D01*
X103652722Y-145949594D01*
X103634173Y-145918229D01*
X103634171Y-145918226D01*
X103630135Y-145911402D01*
X103615747Y-145897014D01*
X103602906Y-145881980D01*
X103595602Y-145871927D01*
X103590942Y-145865513D01*
X103556750Y-145837227D01*
X103547971Y-145829238D01*
X102018405Y-144299672D01*
X101984379Y-144237360D01*
X101981500Y-144210577D01*
X101981500Y-137814500D01*
X103581510Y-137814500D01*
X103601856Y-138202718D01*
X103602369Y-138205958D01*
X103602370Y-138205966D01*
X103621299Y-138325477D01*
X103662670Y-138586682D01*
X103763286Y-138962186D01*
X103764471Y-138965274D01*
X103764472Y-138965276D01*
X103817033Y-139102203D01*
X103902601Y-139325116D01*
X104079090Y-139671495D01*
X104290819Y-139997529D01*
X104292897Y-140000095D01*
X104526610Y-140288705D01*
X104535468Y-140299644D01*
X104810356Y-140574532D01*
X104812914Y-140576604D01*
X104812918Y-140576607D01*
X104924256Y-140666767D01*
X105112471Y-140819181D01*
X105438505Y-141030910D01*
X105784884Y-141207399D01*
X106147814Y-141346714D01*
X106523318Y-141447330D01*
X106716961Y-141478000D01*
X106904034Y-141507630D01*
X106904042Y-141507631D01*
X106907282Y-141508144D01*
X107295500Y-141528490D01*
X107683718Y-141508144D01*
X107686958Y-141507631D01*
X107686966Y-141507630D01*
X107874039Y-141478000D01*
X108067682Y-141447330D01*
X108443186Y-141346714D01*
X108806116Y-141207399D01*
X109152495Y-141030910D01*
X109478529Y-140819181D01*
X109666744Y-140666767D01*
X109778082Y-140576607D01*
X109778086Y-140576604D01*
X109780644Y-140574532D01*
X110055532Y-140299644D01*
X110064391Y-140288705D01*
X110298103Y-140000095D01*
X110300181Y-139997529D01*
X110511910Y-139671495D01*
X110688399Y-139325116D01*
X110773967Y-139102203D01*
X110826528Y-138965276D01*
X110826529Y-138965274D01*
X110827714Y-138962186D01*
X110928330Y-138586682D01*
X110969701Y-138325477D01*
X110988630Y-138205966D01*
X110988631Y-138205958D01*
X110989144Y-138202718D01*
X111009490Y-137814500D01*
X110989144Y-137426282D01*
X110984973Y-137399944D01*
X110949614Y-137176699D01*
X110928330Y-137042318D01*
X110827714Y-136666814D01*
X110822028Y-136652000D01*
X110756024Y-136480054D01*
X110688399Y-136303884D01*
X110511910Y-135957505D01*
X110300181Y-135631471D01*
X110238495Y-135555295D01*
X110057607Y-135331918D01*
X110057604Y-135331914D01*
X110055532Y-135329356D01*
X109780644Y-135054468D01*
X109730092Y-135013531D01*
X109481095Y-134811897D01*
X109478529Y-134809819D01*
X109152495Y-134598090D01*
X108806116Y-134421601D01*
X108443186Y-134282286D01*
X108067682Y-134181670D01*
X107859916Y-134148763D01*
X107686966Y-134121370D01*
X107686958Y-134121369D01*
X107683718Y-134120856D01*
X107295500Y-134100510D01*
X106907282Y-134120856D01*
X106904042Y-134121369D01*
X106904034Y-134121370D01*
X106731084Y-134148763D01*
X106523318Y-134181670D01*
X106147814Y-134282286D01*
X105784884Y-134421601D01*
X105438505Y-134598090D01*
X105112471Y-134809819D01*
X105109905Y-134811897D01*
X104860909Y-135013531D01*
X104810356Y-135054468D01*
X104535468Y-135329356D01*
X104533396Y-135331914D01*
X104533393Y-135331918D01*
X104352505Y-135555295D01*
X104290819Y-135631471D01*
X104079090Y-135957505D01*
X103902601Y-136303884D01*
X103834976Y-136480054D01*
X103768973Y-136652000D01*
X103763286Y-136666814D01*
X103662670Y-137042318D01*
X103641386Y-137176699D01*
X103606028Y-137399944D01*
X103601856Y-137426282D01*
X103581510Y-137814500D01*
X101981500Y-137814500D01*
X101981500Y-124520422D01*
X102001502Y-124452301D01*
X102055158Y-124405808D01*
X102125432Y-124395704D01*
X102190012Y-124425198D01*
X102196594Y-124431326D01*
X103489792Y-125724525D01*
X104580595Y-126815328D01*
X104614621Y-126877640D01*
X104617500Y-126904423D01*
X104617500Y-129110134D01*
X104624255Y-129172316D01*
X104675385Y-129308705D01*
X104762739Y-129425261D01*
X104879295Y-129512615D01*
X105015684Y-129563745D01*
X105077866Y-129570500D01*
X107774134Y-129570500D01*
X107836316Y-129563745D01*
X107972705Y-129512615D01*
X108089261Y-129425261D01*
X108176615Y-129308705D01*
X108227745Y-129172316D01*
X108234500Y-129110134D01*
X108234500Y-128249575D01*
X108254502Y-128181454D01*
X108308158Y-128134961D01*
X108378432Y-128124857D01*
X108443012Y-128154351D01*
X108481396Y-128214077D01*
X108484079Y-128224994D01*
X108488388Y-128246656D01*
X108579220Y-128499646D01*
X108581432Y-128503762D01*
X108581433Y-128503765D01*
X108609621Y-128556225D01*
X108706450Y-128736431D01*
X108709241Y-128740168D01*
X108709245Y-128740175D01*
X108793820Y-128853434D01*
X108867281Y-128951810D01*
X108870590Y-128955090D01*
X108870595Y-128955096D01*
X109054863Y-129137762D01*
X109058180Y-129141050D01*
X109061942Y-129143808D01*
X109061945Y-129143811D01*
X109202646Y-129246977D01*
X109274954Y-129299995D01*
X109279089Y-129302171D01*
X109279093Y-129302173D01*
X109508698Y-129422975D01*
X109512840Y-129425154D01*
X109766613Y-129513775D01*
X109771206Y-129514647D01*
X110026109Y-129563042D01*
X110026112Y-129563042D01*
X110030698Y-129563913D01*
X110158370Y-129568929D01*
X110294625Y-129574283D01*
X110294630Y-129574283D01*
X110299293Y-129574466D01*
X110403607Y-129563042D01*
X110561844Y-129545713D01*
X110561850Y-129545712D01*
X110566497Y-129545203D01*
X110635530Y-129527028D01*
X110821918Y-129477956D01*
X110821920Y-129477955D01*
X110826441Y-129476765D01*
X110842506Y-129469863D01*
X111069120Y-129372502D01*
X111069122Y-129372501D01*
X111073414Y-129370657D01*
X111207518Y-129287671D01*
X111298017Y-129231669D01*
X111298021Y-129231666D01*
X111301990Y-129229210D01*
X111507149Y-129055530D01*
X111684382Y-128853434D01*
X111719799Y-128798373D01*
X111822446Y-128638790D01*
X111829797Y-128627361D01*
X111940199Y-128382278D01*
X111941469Y-128377775D01*
X112011893Y-128128072D01*
X112011894Y-128128069D01*
X112013163Y-128123568D01*
X112037998Y-127928351D01*
X112046688Y-127860045D01*
X112046688Y-127860041D01*
X112047086Y-127856915D01*
X112049571Y-127762000D01*
X112036423Y-127585074D01*
X112029996Y-127498592D01*
X112029996Y-127498591D01*
X112029650Y-127493937D01*
X112028619Y-127489379D01*
X111971361Y-127236331D01*
X111971360Y-127236326D01*
X111970327Y-127231763D01*
X111872902Y-126981238D01*
X111739518Y-126747864D01*
X111707286Y-126706977D01*
X111601989Y-126573409D01*
X111573105Y-126536769D01*
X111377317Y-126352591D01*
X111179407Y-126215295D01*
X111160299Y-126202039D01*
X111160296Y-126202037D01*
X111156457Y-126199374D01*
X111127484Y-126185086D01*
X110919564Y-126082551D01*
X110919561Y-126082550D01*
X110915376Y-126080486D01*
X110659370Y-125998538D01*
X110596247Y-125988258D01*
X110532227Y-125957566D01*
X110494963Y-125897135D01*
X110490500Y-125863896D01*
X110490500Y-122281315D01*
X110513287Y-122209044D01*
X110572688Y-122124211D01*
X110611523Y-122068749D01*
X110613846Y-122063767D01*
X110613849Y-122063762D01*
X110705961Y-121866225D01*
X110705961Y-121866224D01*
X110708284Y-121861243D01*
X110728976Y-121784022D01*
X110766119Y-121645402D01*
X110766119Y-121645400D01*
X110767543Y-121640087D01*
X110787498Y-121412000D01*
X110767543Y-121183913D01*
X110751583Y-121124350D01*
X110709707Y-120968067D01*
X110709706Y-120968065D01*
X110708284Y-120962757D01*
X110694452Y-120933094D01*
X110613849Y-120760238D01*
X110613846Y-120760233D01*
X110611523Y-120755251D01*
X110513287Y-120614956D01*
X110490500Y-120542685D01*
X110490500Y-115726500D01*
X110510502Y-115658379D01*
X110564158Y-115611886D01*
X110616500Y-115600500D01*
X110822134Y-115600500D01*
X110884316Y-115593745D01*
X111020705Y-115542615D01*
X111137261Y-115455261D01*
X111224615Y-115338705D01*
X111275745Y-115202316D01*
X111282500Y-115140134D01*
X111282500Y-112443866D01*
X111275745Y-112381684D01*
X111224615Y-112245295D01*
X111137261Y-112128739D01*
X111020705Y-112041385D01*
X110884316Y-111990255D01*
X110822134Y-111983500D01*
X108125866Y-111983500D01*
X108063684Y-111990255D01*
X107927295Y-112041385D01*
X107810739Y-112128739D01*
X107723385Y-112245295D01*
X107672255Y-112381684D01*
X107665500Y-112443866D01*
X107665500Y-115140134D01*
X107672255Y-115202316D01*
X107723385Y-115338705D01*
X107810739Y-115455261D01*
X107927295Y-115542615D01*
X108063684Y-115593745D01*
X108125866Y-115600500D01*
X108331500Y-115600500D01*
X108399621Y-115620502D01*
X108446114Y-115674158D01*
X108457500Y-115726500D01*
X108457500Y-120542685D01*
X108434713Y-120614956D01*
X108336477Y-120755251D01*
X108334154Y-120760233D01*
X108334151Y-120760238D01*
X108253548Y-120933094D01*
X108239716Y-120962757D01*
X108238294Y-120968065D01*
X108238293Y-120968067D01*
X108196417Y-121124350D01*
X108180457Y-121183913D01*
X108160502Y-121412000D01*
X108180457Y-121640087D01*
X108181881Y-121645400D01*
X108181881Y-121645402D01*
X108219025Y-121784022D01*
X108239716Y-121861243D01*
X108242039Y-121866224D01*
X108242039Y-121866225D01*
X108334151Y-122063762D01*
X108334154Y-122063767D01*
X108336477Y-122068749D01*
X108375312Y-122124211D01*
X108434713Y-122209044D01*
X108457500Y-122281315D01*
X108457500Y-126269504D01*
X108437498Y-126337625D01*
X108383842Y-126384118D01*
X108313568Y-126394222D01*
X108248988Y-126364728D01*
X108213518Y-126313733D01*
X108179768Y-126223705D01*
X108179767Y-126223704D01*
X108176615Y-126215295D01*
X108089261Y-126098739D01*
X107972705Y-126011385D01*
X107836316Y-125960255D01*
X107774134Y-125953500D01*
X105568423Y-125953500D01*
X105500302Y-125933498D01*
X105479328Y-125916595D01*
X102060795Y-122498062D01*
X103752493Y-122498062D01*
X103761789Y-122510077D01*
X103812994Y-122545931D01*
X103822489Y-122551414D01*
X104019947Y-122643490D01*
X104030239Y-122647236D01*
X104240688Y-122703625D01*
X104251481Y-122705528D01*
X104468525Y-122724517D01*
X104479475Y-122724517D01*
X104696519Y-122705528D01*
X104707312Y-122703625D01*
X104917761Y-122647236D01*
X104928053Y-122643490D01*
X105125511Y-122551414D01*
X105135006Y-122545931D01*
X105187048Y-122509491D01*
X105195424Y-122499012D01*
X105188356Y-122485566D01*
X104486812Y-121784022D01*
X104472868Y-121776408D01*
X104471035Y-121776539D01*
X104464420Y-121780790D01*
X103758923Y-122486287D01*
X103752493Y-122498062D01*
X102060795Y-122498062D01*
X100980208Y-121417475D01*
X103161483Y-121417475D01*
X103180472Y-121634519D01*
X103182375Y-121645312D01*
X103238764Y-121855761D01*
X103242510Y-121866053D01*
X103334586Y-122063511D01*
X103340069Y-122073006D01*
X103376509Y-122125048D01*
X103386988Y-122133424D01*
X103400434Y-122126356D01*
X104101978Y-121424812D01*
X104108356Y-121413132D01*
X104838408Y-121413132D01*
X104838539Y-121414965D01*
X104842790Y-121421580D01*
X105548287Y-122127077D01*
X105560062Y-122133507D01*
X105572077Y-122124211D01*
X105607931Y-122073006D01*
X105613414Y-122063511D01*
X105705490Y-121866053D01*
X105709236Y-121855761D01*
X105765625Y-121645312D01*
X105767528Y-121634519D01*
X105786517Y-121417475D01*
X105786517Y-121406525D01*
X105767528Y-121189481D01*
X105765625Y-121178688D01*
X105709236Y-120968239D01*
X105705490Y-120957947D01*
X105613414Y-120760489D01*
X105607931Y-120750994D01*
X105571491Y-120698952D01*
X105561012Y-120690576D01*
X105547566Y-120697644D01*
X104846022Y-121399188D01*
X104838408Y-121413132D01*
X104108356Y-121413132D01*
X104109592Y-121410868D01*
X104109461Y-121409035D01*
X104105210Y-121402420D01*
X103399713Y-120696923D01*
X103387938Y-120690493D01*
X103375923Y-120699789D01*
X103340069Y-120750994D01*
X103334586Y-120760489D01*
X103242510Y-120957947D01*
X103238764Y-120968239D01*
X103182375Y-121178688D01*
X103180472Y-121189481D01*
X103161483Y-121406525D01*
X103161483Y-121417475D01*
X100980208Y-121417475D01*
X100240405Y-120677672D01*
X100206379Y-120615360D01*
X100203500Y-120588577D01*
X100203500Y-120324988D01*
X103752576Y-120324988D01*
X103759644Y-120338434D01*
X104461188Y-121039978D01*
X104475132Y-121047592D01*
X104476965Y-121047461D01*
X104483580Y-121043210D01*
X105189077Y-120337713D01*
X105195507Y-120325938D01*
X105186211Y-120313923D01*
X105135006Y-120278069D01*
X105125511Y-120272586D01*
X104928053Y-120180510D01*
X104917761Y-120176764D01*
X104707312Y-120120375D01*
X104696519Y-120118472D01*
X104479475Y-120099483D01*
X104468525Y-120099483D01*
X104251481Y-120118472D01*
X104240688Y-120120375D01*
X104030239Y-120176764D01*
X104019947Y-120180510D01*
X103822489Y-120272586D01*
X103812994Y-120278069D01*
X103760952Y-120314509D01*
X103752576Y-120324988D01*
X100203500Y-120324988D01*
X100203500Y-116721032D01*
X100204030Y-116709793D01*
X100205709Y-116702281D01*
X100204836Y-116674488D01*
X100203562Y-116633970D01*
X100203500Y-116630012D01*
X100203500Y-116602017D01*
X100202992Y-116597994D01*
X100202059Y-116586152D01*
X100202055Y-116586000D01*
X100200665Y-116541795D01*
X100194987Y-116522251D01*
X100190977Y-116502888D01*
X100189420Y-116490560D01*
X100189420Y-116490558D01*
X100188427Y-116482701D01*
X100185511Y-116475337D01*
X100185510Y-116475332D01*
X100172093Y-116441444D01*
X100168248Y-116430215D01*
X100158080Y-116395219D01*
X100155869Y-116387607D01*
X100145510Y-116370091D01*
X100136813Y-116352341D01*
X100129319Y-116333412D01*
X100103238Y-116297514D01*
X100096722Y-116287594D01*
X100078173Y-116256229D01*
X100078171Y-116256226D01*
X100074135Y-116249402D01*
X100059747Y-116235014D01*
X100046906Y-116219980D01*
X100039602Y-116209927D01*
X100034942Y-116203513D01*
X100000750Y-116175227D01*
X99991971Y-116167238D01*
X99061639Y-115236906D01*
X103393839Y-115236906D01*
X103402553Y-115248427D01*
X103509452Y-115326809D01*
X103517351Y-115331745D01*
X103746905Y-115452519D01*
X103755454Y-115456236D01*
X104000327Y-115541749D01*
X104009336Y-115544163D01*
X104264166Y-115592544D01*
X104273423Y-115593598D01*
X104532607Y-115603783D01*
X104541921Y-115603457D01*
X104799753Y-115575220D01*
X104808930Y-115573519D01*
X105059758Y-115507481D01*
X105068574Y-115504445D01*
X105306880Y-115402062D01*
X105315167Y-115397748D01*
X105535718Y-115261266D01*
X105543268Y-115255780D01*
X105548559Y-115251301D01*
X105556997Y-115238497D01*
X105550935Y-115228145D01*
X104486812Y-114164022D01*
X104472868Y-114156408D01*
X104471035Y-114156539D01*
X104464420Y-114160790D01*
X103400497Y-115224713D01*
X103393839Y-115236906D01*
X99061639Y-115236906D01*
X98191405Y-114366672D01*
X98157379Y-114304360D01*
X98154500Y-114277577D01*
X98154500Y-113749211D01*
X102661775Y-113749211D01*
X102674220Y-114008288D01*
X102675356Y-114017543D01*
X102725961Y-114271945D01*
X102728449Y-114280917D01*
X102816095Y-114525033D01*
X102819895Y-114533568D01*
X102942658Y-114762042D01*
X102947666Y-114769904D01*
X103017720Y-114863716D01*
X103028979Y-114872165D01*
X103041397Y-114865393D01*
X104101978Y-113804812D01*
X104108356Y-113793132D01*
X104838408Y-113793132D01*
X104838539Y-113794965D01*
X104842790Y-113801580D01*
X105910094Y-114868884D01*
X105922474Y-114875644D01*
X105930815Y-114869400D01*
X106064832Y-114661048D01*
X106069275Y-114652864D01*
X106175807Y-114416370D01*
X106178997Y-114407605D01*
X106249402Y-114157972D01*
X106251262Y-114148830D01*
X106284187Y-113890019D01*
X106284668Y-113883733D01*
X106286987Y-113795160D01*
X106286836Y-113788851D01*
X106267501Y-113528663D01*
X106266125Y-113519457D01*
X106208878Y-113266467D01*
X106206154Y-113257556D01*
X106112143Y-113015806D01*
X106108132Y-113007397D01*
X105979422Y-112782202D01*
X105974211Y-112774476D01*
X105930996Y-112719658D01*
X105919071Y-112711187D01*
X105907537Y-112717673D01*
X104846022Y-113779188D01*
X104838408Y-113793132D01*
X104108356Y-113793132D01*
X104109592Y-113790868D01*
X104109461Y-113789035D01*
X104105210Y-113782420D01*
X103039816Y-112717026D01*
X103026507Y-112709758D01*
X103016472Y-112716878D01*
X103000937Y-112735556D01*
X102995531Y-112743135D01*
X102860965Y-112964891D01*
X102856736Y-112973192D01*
X102756432Y-113212389D01*
X102753471Y-113221239D01*
X102689628Y-113472625D01*
X102688006Y-113481822D01*
X102662020Y-113739885D01*
X102661775Y-113749211D01*
X98154500Y-113749211D01*
X98154500Y-112893866D01*
X98147745Y-112831684D01*
X98096615Y-112695295D01*
X98023370Y-112597564D01*
X97998522Y-112531059D01*
X98013575Y-112461676D01*
X98023370Y-112446435D01*
X98096615Y-112348705D01*
X98098121Y-112344689D01*
X103391102Y-112344689D01*
X103395675Y-112354465D01*
X104461188Y-113419978D01*
X104475132Y-113427592D01*
X104476965Y-113427461D01*
X104483580Y-113423210D01*
X105548349Y-112358441D01*
X105554733Y-112346751D01*
X105545321Y-112334641D01*
X105398045Y-112232471D01*
X105390010Y-112227738D01*
X105157376Y-112113016D01*
X105148743Y-112109528D01*
X104901703Y-112030450D01*
X104892643Y-112028274D01*
X104636630Y-111986580D01*
X104627343Y-111985768D01*
X104367992Y-111982373D01*
X104358681Y-111982943D01*
X104101682Y-112017919D01*
X104092546Y-112019860D01*
X103843543Y-112092439D01*
X103834800Y-112095707D01*
X103599252Y-112204296D01*
X103591097Y-112208816D01*
X103400240Y-112333947D01*
X103391102Y-112344689D01*
X98098121Y-112344689D01*
X98147745Y-112212316D01*
X98154500Y-112150134D01*
X98154500Y-110353866D01*
X98147745Y-110291684D01*
X98096615Y-110155295D01*
X98009261Y-110038739D01*
X97892705Y-109951385D01*
X97756316Y-109900255D01*
X97694134Y-109893500D01*
X95010985Y-109893500D01*
X95009446Y-109893491D01*
X94906081Y-109892228D01*
X94906079Y-109892228D01*
X94900911Y-109892165D01*
X94895797Y-109892948D01*
X94892289Y-109893193D01*
X94883496Y-109893500D01*
X94097866Y-109893500D01*
X94035684Y-109900255D01*
X93899295Y-109951385D01*
X93782739Y-110038739D01*
X93695385Y-110155295D01*
X93644255Y-110291684D01*
X93637500Y-110353866D01*
X93637500Y-111172219D01*
X93636787Y-111185607D01*
X93633251Y-111218695D01*
X93633548Y-111223848D01*
X93633548Y-111223851D01*
X93637291Y-111288763D01*
X93637500Y-111296016D01*
X93637500Y-112150134D01*
X93644255Y-112212316D01*
X93695385Y-112348705D01*
X93768630Y-112446435D01*
X93793478Y-112512941D01*
X93778425Y-112582324D01*
X93768632Y-112597562D01*
X93695385Y-112695295D01*
X93644255Y-112831684D01*
X93637500Y-112893866D01*
X93637500Y-113712219D01*
X93636787Y-113725607D01*
X93633251Y-113758695D01*
X93633548Y-113763848D01*
X93633548Y-113763851D01*
X93637291Y-113828763D01*
X93637500Y-113836016D01*
X93637500Y-114690134D01*
X93644255Y-114752316D01*
X93695385Y-114888705D01*
X93730078Y-114934996D01*
X93768942Y-114986852D01*
X93793790Y-115053358D01*
X93778737Y-115122741D01*
X93768942Y-115137982D01*
X93701214Y-115228351D01*
X93692676Y-115243946D01*
X93647522Y-115364394D01*
X93643895Y-115379649D01*
X93638369Y-115430514D01*
X93638000Y-115437328D01*
X93638000Y-116059885D01*
X93642475Y-116075124D01*
X93643865Y-116076329D01*
X93651548Y-116078000D01*
X98053077Y-116078000D01*
X98121198Y-116098002D01*
X98142172Y-116114905D01*
X98895595Y-116868328D01*
X98929621Y-116930640D01*
X98932500Y-116957423D01*
X98932500Y-120647058D01*
X98912498Y-120715179D01*
X98858842Y-120761672D01*
X98818357Y-120772499D01*
X98806161Y-120773652D01*
X98781943Y-120775941D01*
X98770086Y-120776500D01*
X98280500Y-120776500D01*
X98212379Y-120756498D01*
X98165886Y-120702842D01*
X98154500Y-120650500D01*
X98154500Y-120513866D01*
X98147745Y-120451684D01*
X98096615Y-120315295D01*
X98023370Y-120217564D01*
X97998522Y-120151059D01*
X98013575Y-120081676D01*
X98023370Y-120066435D01*
X98060001Y-120017559D01*
X98096615Y-119968705D01*
X98147745Y-119832316D01*
X98154500Y-119770134D01*
X98154500Y-117973866D01*
X98147745Y-117911684D01*
X98096615Y-117775295D01*
X98023058Y-117677148D01*
X97998210Y-117610642D01*
X98013263Y-117541259D01*
X98023058Y-117526018D01*
X98090786Y-117435649D01*
X98099324Y-117420054D01*
X98144478Y-117299606D01*
X98148105Y-117284351D01*
X98153631Y-117233486D01*
X98154000Y-117226672D01*
X98154000Y-116604115D01*
X98149525Y-116588876D01*
X98148135Y-116587671D01*
X98140452Y-116586000D01*
X93656116Y-116586000D01*
X93640877Y-116590475D01*
X93639672Y-116591865D01*
X93638001Y-116599548D01*
X93638001Y-117226669D01*
X93638371Y-117233490D01*
X93643895Y-117284352D01*
X93647521Y-117299604D01*
X93692676Y-117420054D01*
X93701214Y-117435649D01*
X93768942Y-117526018D01*
X93793790Y-117592525D01*
X93778737Y-117661907D01*
X93768942Y-117677148D01*
X93695385Y-117775295D01*
X93644255Y-117911684D01*
X93637500Y-117973866D01*
X93637500Y-118792219D01*
X93636787Y-118805607D01*
X93633251Y-118838695D01*
X93633548Y-118843848D01*
X93633548Y-118843851D01*
X93637291Y-118908763D01*
X93637500Y-118916016D01*
X93637500Y-119770134D01*
X93644255Y-119832316D01*
X93695385Y-119968705D01*
X93731999Y-120017559D01*
X93768630Y-120066435D01*
X93793478Y-120132941D01*
X93778425Y-120202324D01*
X93768632Y-120217562D01*
X93695385Y-120315295D01*
X93644255Y-120451684D01*
X93637500Y-120513866D01*
X93637500Y-121332219D01*
X93636787Y-121345607D01*
X93633251Y-121378695D01*
X93633548Y-121383848D01*
X93633548Y-121383851D01*
X93637291Y-121448763D01*
X93637500Y-121456016D01*
X93637500Y-122310134D01*
X93644255Y-122372316D01*
X93695385Y-122508705D01*
X93768630Y-122606435D01*
X93793478Y-122672941D01*
X93778425Y-122742324D01*
X93768632Y-122757562D01*
X93695385Y-122855295D01*
X93644255Y-122991684D01*
X93637500Y-123053866D01*
X93637500Y-123872219D01*
X93636787Y-123885607D01*
X93633251Y-123918695D01*
X93633548Y-123923848D01*
X93633548Y-123923851D01*
X93637291Y-123988763D01*
X93637500Y-123996016D01*
X93637500Y-124850134D01*
X93644255Y-124912316D01*
X93695385Y-125048705D01*
X93768630Y-125146435D01*
X93793478Y-125212941D01*
X93778425Y-125282324D01*
X93768632Y-125297562D01*
X93695385Y-125395295D01*
X93644255Y-125531684D01*
X93637500Y-125593866D01*
X93637500Y-126412219D01*
X93636787Y-126425607D01*
X93633251Y-126458695D01*
X93633548Y-126463848D01*
X93633548Y-126463851D01*
X93637291Y-126528763D01*
X93637500Y-126536016D01*
X93637500Y-127390134D01*
X93644255Y-127452316D01*
X93695385Y-127588705D01*
X93724886Y-127628068D01*
X93768942Y-127686852D01*
X93793790Y-127753358D01*
X93778737Y-127822741D01*
X93768942Y-127837982D01*
X93701214Y-127928351D01*
X93692676Y-127943946D01*
X93647522Y-128064394D01*
X93643895Y-128079649D01*
X93638369Y-128130514D01*
X93638000Y-128137328D01*
X93638000Y-128759885D01*
X93642475Y-128775124D01*
X93643865Y-128776329D01*
X93651548Y-128778000D01*
X98135884Y-128778000D01*
X98151123Y-128773525D01*
X98152328Y-128772135D01*
X98153999Y-128764452D01*
X98153999Y-128137331D01*
X98153629Y-128130510D01*
X98148105Y-128079648D01*
X98144479Y-128064396D01*
X98099324Y-127943946D01*
X98090786Y-127928351D01*
X98023058Y-127837982D01*
X97998210Y-127771475D01*
X98013263Y-127702093D01*
X98023058Y-127686852D01*
X98067114Y-127628068D01*
X98096615Y-127588705D01*
X98147745Y-127452316D01*
X98154500Y-127390134D01*
X98154500Y-125593866D01*
X98147745Y-125531684D01*
X98096615Y-125395295D01*
X98023370Y-125297564D01*
X97998522Y-125231059D01*
X98013575Y-125161676D01*
X98023370Y-125146435D01*
X98096615Y-125048705D01*
X98147745Y-124912316D01*
X98154500Y-124850134D01*
X98154500Y-123053866D01*
X98147745Y-122991684D01*
X98096615Y-122855295D01*
X98023370Y-122757564D01*
X97998522Y-122691059D01*
X98013575Y-122621676D01*
X98023370Y-122606435D01*
X98096615Y-122508705D01*
X98147745Y-122372316D01*
X98154500Y-122310134D01*
X98154500Y-122173500D01*
X98174502Y-122105379D01*
X98228158Y-122058886D01*
X98280500Y-122047500D01*
X98490578Y-122047500D01*
X98558699Y-122067502D01*
X98579673Y-122084405D01*
X100673595Y-124178327D01*
X100707621Y-124240639D01*
X100710500Y-124267422D01*
X100710500Y-144446980D01*
X100709970Y-144458214D01*
X100708292Y-144465719D01*
X100708541Y-144473638D01*
X100710438Y-144534012D01*
X100710500Y-144537969D01*
X100710500Y-144565983D01*
X100710996Y-144569908D01*
X100710996Y-144569909D01*
X100711008Y-144570004D01*
X100711941Y-144581849D01*
X100713335Y-144626205D01*
X100715547Y-144633817D01*
X100719013Y-144645748D01*
X100723023Y-144665112D01*
X100725573Y-144685299D01*
X100728489Y-144692663D01*
X100728490Y-144692668D01*
X100741907Y-144726556D01*
X100745752Y-144737785D01*
X100758131Y-144780393D01*
X100762169Y-144787220D01*
X100762170Y-144787223D01*
X100768488Y-144797906D01*
X100777188Y-144815664D01*
X100781761Y-144827215D01*
X100781765Y-144827221D01*
X100784681Y-144834588D01*
X100789339Y-144840999D01*
X100789340Y-144841001D01*
X100810764Y-144870488D01*
X100817281Y-144880410D01*
X100835826Y-144911768D01*
X100835829Y-144911772D01*
X100839866Y-144918598D01*
X100854250Y-144932982D01*
X100867091Y-144948016D01*
X100879058Y-144964487D01*
X100885166Y-144969540D01*
X100913255Y-144992777D01*
X100922035Y-145000767D01*
X102451595Y-146530328D01*
X102485621Y-146592640D01*
X102488500Y-146619423D01*
X102488500Y-147339829D01*
X102483049Y-147358394D01*
X102486201Y-147364494D01*
X102488500Y-147388455D01*
X102488500Y-149371779D01*
X102468498Y-149439900D01*
X102434825Y-149474954D01*
X102433825Y-149475655D01*
X102366564Y-149498378D01*
X102297694Y-149481130D01*
X102249082Y-149429386D01*
X102235500Y-149372480D01*
X102235500Y-147399032D01*
X102236030Y-147387793D01*
X102237709Y-147380281D01*
X102237554Y-147375355D01*
X102240449Y-147368104D01*
X102236562Y-147343787D01*
X102235562Y-147311970D01*
X102235500Y-147308012D01*
X102235500Y-147280017D01*
X102234992Y-147275994D01*
X102234059Y-147264152D01*
X102232914Y-147227720D01*
X102232665Y-147219795D01*
X102226987Y-147200251D01*
X102222977Y-147180888D01*
X102221420Y-147168560D01*
X102221420Y-147168558D01*
X102220427Y-147160701D01*
X102217511Y-147153337D01*
X102217510Y-147153332D01*
X102204093Y-147119444D01*
X102200248Y-147108215D01*
X102190081Y-147073222D01*
X102187869Y-147065607D01*
X102183830Y-147058777D01*
X102177512Y-147048094D01*
X102168812Y-147030336D01*
X102164239Y-147018785D01*
X102164235Y-147018779D01*
X102161319Y-147011412D01*
X102135234Y-146975509D01*
X102128719Y-146965590D01*
X102110174Y-146934232D01*
X102110171Y-146934228D01*
X102106134Y-146927402D01*
X102091750Y-146913018D01*
X102078909Y-146897984D01*
X102071602Y-146887927D01*
X102066942Y-146881513D01*
X102032744Y-146853222D01*
X102023965Y-146845233D01*
X99057250Y-143878517D01*
X99049674Y-143870191D01*
X99045553Y-143863697D01*
X98995734Y-143816914D01*
X98992893Y-143814160D01*
X98973094Y-143794361D01*
X98969969Y-143791937D01*
X98969960Y-143791929D01*
X98969874Y-143791863D01*
X98960849Y-143784155D01*
X98934285Y-143759210D01*
X98928506Y-143753783D01*
X98910669Y-143743977D01*
X98894153Y-143733127D01*
X98878067Y-143720650D01*
X98837334Y-143703024D01*
X98826686Y-143697807D01*
X98806542Y-143686733D01*
X98787803Y-143676431D01*
X98780128Y-143674460D01*
X98780122Y-143674458D01*
X98768089Y-143671369D01*
X98749387Y-143664966D01*
X98730708Y-143656883D01*
X98696872Y-143651524D01*
X98686873Y-143649940D01*
X98675260Y-143647535D01*
X98632282Y-143636500D01*
X98611935Y-143636500D01*
X98592224Y-143634949D01*
X98579950Y-143633005D01*
X98572121Y-143631765D01*
X98564229Y-143632511D01*
X98527944Y-143635941D01*
X98516086Y-143636500D01*
X98280500Y-143636500D01*
X98212379Y-143616498D01*
X98165886Y-143562842D01*
X98154500Y-143510500D01*
X98154500Y-143373866D01*
X98147745Y-143311684D01*
X98096615Y-143175295D01*
X98023058Y-143077148D01*
X97998210Y-143010642D01*
X98013263Y-142941259D01*
X98023058Y-142926018D01*
X98090786Y-142835649D01*
X98099324Y-142820054D01*
X98144478Y-142699606D01*
X98148105Y-142684351D01*
X98153631Y-142633486D01*
X98154000Y-142626672D01*
X98154000Y-142004115D01*
X98149525Y-141988876D01*
X98148135Y-141987671D01*
X98140452Y-141986000D01*
X93656116Y-141986000D01*
X93640877Y-141990475D01*
X93639672Y-141991865D01*
X93638001Y-141999548D01*
X93638001Y-142626669D01*
X93638371Y-142633490D01*
X93643895Y-142684352D01*
X93647521Y-142699604D01*
X93692676Y-142820054D01*
X93701214Y-142835649D01*
X93768942Y-142926018D01*
X93793790Y-142992525D01*
X93778737Y-143061907D01*
X93768942Y-143077148D01*
X93695385Y-143175295D01*
X93644255Y-143311684D01*
X93637500Y-143373866D01*
X93637500Y-144192219D01*
X93636787Y-144205607D01*
X93633251Y-144238695D01*
X93633548Y-144243848D01*
X93633548Y-144243851D01*
X93637291Y-144308763D01*
X93637500Y-144316016D01*
X93637500Y-145170134D01*
X93644255Y-145232316D01*
X93695385Y-145368705D01*
X93700771Y-145375891D01*
X93768630Y-145466435D01*
X93793478Y-145532941D01*
X93778425Y-145602324D01*
X93768632Y-145617562D01*
X93695385Y-145715295D01*
X93644255Y-145851684D01*
X93637500Y-145913866D01*
X93637500Y-146732219D01*
X93636787Y-146745607D01*
X93633251Y-146778695D01*
X93633548Y-146783848D01*
X93633548Y-146783851D01*
X93637291Y-146848763D01*
X93637500Y-146856016D01*
X93637500Y-147710134D01*
X93644255Y-147772316D01*
X93695385Y-147908705D01*
X93768630Y-148006435D01*
X93793478Y-148072941D01*
X93778425Y-148142324D01*
X93768632Y-148157562D01*
X93695385Y-148255295D01*
X93644255Y-148391684D01*
X93637500Y-148453866D01*
X93637500Y-149272219D01*
X93636787Y-149285607D01*
X93633251Y-149318695D01*
X93633548Y-149323848D01*
X93633548Y-149323851D01*
X93637291Y-149388763D01*
X93637500Y-149396016D01*
X93637500Y-150250134D01*
X93644255Y-150312316D01*
X93695385Y-150448705D01*
X93744696Y-150514500D01*
X93768630Y-150546435D01*
X93793478Y-150612941D01*
X93778425Y-150682324D01*
X93768632Y-150697562D01*
X93695385Y-150795295D01*
X93644255Y-150931684D01*
X93637500Y-150993866D01*
X93637500Y-151812219D01*
X93636787Y-151825607D01*
X93633251Y-151858695D01*
X78576418Y-151858695D01*
X78574924Y-151840524D01*
X78574500Y-151830200D01*
X78574500Y-151301647D01*
X78594502Y-151233526D01*
X78654102Y-151184501D01*
X78658687Y-151182685D01*
X78666150Y-151179998D01*
X78712194Y-151165038D01*
X78712197Y-151165037D01*
X78719733Y-151162588D01*
X78726420Y-151158345D01*
X78726423Y-151158343D01*
X78726742Y-151158140D01*
X78747872Y-151147374D01*
X78755588Y-151144319D01*
X78801179Y-151111196D01*
X78807723Y-151106749D01*
X78848604Y-151080805D01*
X78848607Y-151080802D01*
X78855303Y-151076553D01*
X78860983Y-151070504D01*
X78878776Y-151054818D01*
X78879073Y-151054602D01*
X78885487Y-151049942D01*
X78921406Y-151006523D01*
X78926636Y-151000592D01*
X78959791Y-150965284D01*
X78965217Y-150959506D01*
X78969216Y-150952232D01*
X78982544Y-150932621D01*
X78982778Y-150932338D01*
X78982781Y-150932334D01*
X78987835Y-150926224D01*
X79011828Y-150875236D01*
X79015410Y-150868204D01*
X79042569Y-150818803D01*
X79044633Y-150810765D01*
X79052666Y-150788452D01*
X79052824Y-150788116D01*
X79052825Y-150788113D01*
X79056200Y-150780941D01*
X79062503Y-150747902D01*
X79066759Y-150725588D01*
X79068486Y-150717863D01*
X79080528Y-150670961D01*
X79082500Y-150663282D01*
X79082500Y-150654983D01*
X79084732Y-150631374D01*
X79084802Y-150631009D01*
X79084802Y-150631004D01*
X79086287Y-150623221D01*
X79082749Y-150566986D01*
X79082500Y-150559075D01*
X79082500Y-149452422D01*
X79102502Y-149384301D01*
X79119405Y-149363327D01*
X91158327Y-137324405D01*
X91220639Y-137290379D01*
X91247422Y-137287500D01*
X93511500Y-137287500D01*
X93579621Y-137307502D01*
X93626114Y-137361158D01*
X93637500Y-137413500D01*
X93637500Y-137550134D01*
X93644255Y-137612316D01*
X93695385Y-137748705D01*
X93765276Y-137841960D01*
X93768630Y-137846435D01*
X93793478Y-137912941D01*
X93778425Y-137982324D01*
X93768632Y-137997562D01*
X93695385Y-138095295D01*
X93644255Y-138231684D01*
X93637500Y-138293866D01*
X93637500Y-139112219D01*
X93636787Y-139125607D01*
X93633251Y-139158695D01*
X93633548Y-139163848D01*
X93633548Y-139163851D01*
X93637291Y-139228763D01*
X93637500Y-139236016D01*
X93637500Y-140090134D01*
X93644255Y-140152316D01*
X93695385Y-140288705D01*
X93705335Y-140301981D01*
X93768942Y-140386852D01*
X93793790Y-140453358D01*
X93778737Y-140522741D01*
X93768942Y-140537982D01*
X93701214Y-140628351D01*
X93692676Y-140643946D01*
X93647522Y-140764394D01*
X93643895Y-140779649D01*
X93638369Y-140830514D01*
X93638000Y-140837328D01*
X93638000Y-141459885D01*
X93642475Y-141475124D01*
X93643865Y-141476329D01*
X93651548Y-141478000D01*
X98135884Y-141478000D01*
X98151123Y-141473525D01*
X98152328Y-141472135D01*
X98153999Y-141464452D01*
X98153999Y-140837331D01*
X98153629Y-140830510D01*
X98148105Y-140779648D01*
X98144479Y-140764396D01*
X98099324Y-140643946D01*
X98090786Y-140628351D01*
X98023058Y-140537982D01*
X97998210Y-140471475D01*
X98013263Y-140402093D01*
X98023058Y-140386852D01*
X98086665Y-140301981D01*
X98096615Y-140288705D01*
X98147745Y-140152316D01*
X98154500Y-140090134D01*
X98154500Y-138293866D01*
X98147745Y-138231684D01*
X98096615Y-138095295D01*
X98023370Y-137997564D01*
X97998522Y-137931059D01*
X98013575Y-137861676D01*
X98023370Y-137846435D01*
X98026724Y-137841960D01*
X98096615Y-137748705D01*
X98147745Y-137612316D01*
X98154500Y-137550134D01*
X98154500Y-135753866D01*
X98147745Y-135691684D01*
X98096615Y-135555295D01*
X98023370Y-135457564D01*
X97998522Y-135391059D01*
X98013575Y-135321676D01*
X98023370Y-135306435D01*
X98091229Y-135215891D01*
X98096615Y-135208705D01*
X98147745Y-135072316D01*
X98154500Y-135010134D01*
X98154500Y-133213866D01*
X98147745Y-133151684D01*
X98096615Y-133015295D01*
X98023370Y-132917564D01*
X97998522Y-132851059D01*
X98013575Y-132781676D01*
X98023370Y-132766435D01*
X98096615Y-132668705D01*
X98147745Y-132532316D01*
X98154500Y-132470134D01*
X98154500Y-130673866D01*
X98147745Y-130611684D01*
X98096615Y-130475295D01*
X98023058Y-130377148D01*
X97998210Y-130310642D01*
X98013263Y-130241259D01*
X98023058Y-130226018D01*
X98090786Y-130135649D01*
X98099324Y-130120054D01*
X98144478Y-129999606D01*
X98148105Y-129984351D01*
X98153631Y-129933486D01*
X98154000Y-129926672D01*
X98154000Y-129304115D01*
X98149525Y-129288876D01*
X98148135Y-129287671D01*
X98140452Y-129286000D01*
X93656116Y-129286000D01*
X93640877Y-129290475D01*
X93639672Y-129291865D01*
X93638001Y-129299548D01*
X93638001Y-129926669D01*
X93638371Y-129933490D01*
X93643895Y-129984352D01*
X93647521Y-129999604D01*
X93692676Y-130120054D01*
X93701214Y-130135649D01*
X93768942Y-130226018D01*
X93793790Y-130292525D01*
X93778737Y-130361907D01*
X93768942Y-130377148D01*
X93695385Y-130475295D01*
X93644255Y-130611684D01*
X93637500Y-130673866D01*
X93637500Y-131492219D01*
X93636787Y-131505607D01*
X93633251Y-131538695D01*
X93633548Y-131543848D01*
X93633548Y-131543851D01*
X93637291Y-131608763D01*
X93637500Y-131616016D01*
X93637500Y-132470134D01*
X93644255Y-132532316D01*
X93695385Y-132668705D01*
X93768630Y-132766435D01*
X93793478Y-132832941D01*
X93778425Y-132902324D01*
X93768632Y-132917562D01*
X93695385Y-133015295D01*
X93644255Y-133151684D01*
X93637500Y-133213866D01*
X93637500Y-134032219D01*
X93636787Y-134045607D01*
X93633251Y-134078695D01*
X93633548Y-134083848D01*
X93633548Y-134083851D01*
X93637291Y-134148763D01*
X93637500Y-134156016D01*
X93637500Y-135010134D01*
X93644255Y-135072316D01*
X93695385Y-135208705D01*
X93700771Y-135215891D01*
X93768630Y-135306435D01*
X93793478Y-135372941D01*
X93778425Y-135442324D01*
X93768632Y-135457562D01*
X93695385Y-135555295D01*
X93644255Y-135691684D01*
X93637500Y-135753866D01*
X93637500Y-135890500D01*
X93617498Y-135958621D01*
X93563842Y-136005114D01*
X93511500Y-136016500D01*
X91011020Y-136016500D01*
X90999791Y-136015971D01*
X90992281Y-136014292D01*
X90984355Y-136014541D01*
X90984354Y-136014541D01*
X90924002Y-136016438D01*
X90920044Y-136016500D01*
X90892017Y-136016500D01*
X90887971Y-136017011D01*
X90876143Y-136017942D01*
X90831795Y-136019336D01*
X90824177Y-136021549D01*
X90824178Y-136021549D01*
X90812254Y-136025013D01*
X90792894Y-136029022D01*
X90780566Y-136030579D01*
X90780563Y-136030580D01*
X90772701Y-136031573D01*
X90765335Y-136034490D01*
X90765329Y-136034491D01*
X90731439Y-136047909D01*
X90720212Y-136051753D01*
X90677607Y-136064131D01*
X90670788Y-136068164D01*
X90670783Y-136068166D01*
X90660091Y-136074490D01*
X90642341Y-136083187D01*
X90623412Y-136090681D01*
X90616996Y-136095342D01*
X90616995Y-136095343D01*
X90587519Y-136116759D01*
X90577595Y-136123278D01*
X90546224Y-136141830D01*
X90546219Y-136141834D01*
X90539401Y-136145866D01*
X90525014Y-136160253D01*
X90509980Y-136173094D01*
X90493513Y-136185058D01*
X90488460Y-136191166D01*
X90465228Y-136219249D01*
X90457238Y-136228029D01*
X78771941Y-147913326D01*
X78709629Y-147947352D01*
X78638814Y-147942287D01*
X78581978Y-147899740D01*
X78557167Y-147833220D01*
X78563772Y-147787549D01*
X78563144Y-147787400D01*
X78564803Y-147780423D01*
X78564864Y-147780001D01*
X78564971Y-147779715D01*
X78567745Y-147772316D01*
X78574500Y-147710134D01*
X78574500Y-146909856D01*
X78575578Y-146893409D01*
X78577092Y-146881908D01*
X78577529Y-146878590D01*
X78579156Y-146812000D01*
X78574924Y-146760524D01*
X78574500Y-146750200D01*
X78574500Y-145913866D01*
X78567745Y-145851684D01*
X78516615Y-145715295D01*
X78443370Y-145617564D01*
X78418522Y-145551059D01*
X78433575Y-145481676D01*
X78443370Y-145466435D01*
X78511229Y-145375891D01*
X78516615Y-145368705D01*
X78567745Y-145232316D01*
X78574500Y-145170134D01*
X78574500Y-144369856D01*
X78575578Y-144353409D01*
X78577092Y-144341908D01*
X78577529Y-144338590D01*
X78577761Y-144329099D01*
X78579074Y-144275365D01*
X78579074Y-144275361D01*
X78579156Y-144272000D01*
X78574924Y-144220524D01*
X78574500Y-144210200D01*
X78574500Y-143373866D01*
X78567745Y-143311684D01*
X78516615Y-143175295D01*
X78443058Y-143077148D01*
X78418210Y-143010642D01*
X78433263Y-142941259D01*
X78443058Y-142926018D01*
X78510786Y-142835649D01*
X78519324Y-142820054D01*
X78564478Y-142699606D01*
X78568105Y-142684351D01*
X78573631Y-142633486D01*
X78574000Y-142626672D01*
X78574000Y-142004115D01*
X78569525Y-141988876D01*
X78568135Y-141987671D01*
X78560452Y-141986000D01*
X74076116Y-141986000D01*
X74060877Y-141990475D01*
X74059672Y-141991865D01*
X74058001Y-141999548D01*
X74058001Y-142626669D01*
X74058371Y-142633490D01*
X74063895Y-142684352D01*
X74067521Y-142699604D01*
X74112676Y-142820054D01*
X74121214Y-142835649D01*
X74188942Y-142926018D01*
X74213790Y-142992525D01*
X74198737Y-143061907D01*
X74188942Y-143077148D01*
X74115385Y-143175295D01*
X74064255Y-143311684D01*
X74057500Y-143373866D01*
X74057500Y-145170134D01*
X74064255Y-145232316D01*
X74115385Y-145368705D01*
X74120771Y-145375891D01*
X74188630Y-145466435D01*
X74213478Y-145532941D01*
X74198425Y-145602324D01*
X74188632Y-145617562D01*
X74115385Y-145715295D01*
X74064255Y-145851684D01*
X74057500Y-145913866D01*
X74057500Y-147710134D01*
X74064255Y-147772316D01*
X74115385Y-147908705D01*
X74188630Y-148006435D01*
X74213478Y-148072941D01*
X74198425Y-148142324D01*
X74188632Y-148157562D01*
X74115385Y-148255295D01*
X74064255Y-148391684D01*
X74057500Y-148453866D01*
X74057500Y-149821500D01*
X74037498Y-149889621D01*
X73983842Y-149936114D01*
X73931500Y-149947500D01*
X73762032Y-149947500D01*
X73750793Y-149946970D01*
X73743281Y-149945291D01*
X73735356Y-149945540D01*
X73735355Y-149945540D01*
X73674970Y-149947438D01*
X73671012Y-149947500D01*
X73643017Y-149947500D01*
X73639083Y-149947997D01*
X73639081Y-149947997D01*
X73638994Y-149948008D01*
X73627160Y-149948940D01*
X73582795Y-149950335D01*
X73575182Y-149952547D01*
X73575181Y-149952547D01*
X73563252Y-149956013D01*
X73543888Y-149960023D01*
X73531560Y-149961580D01*
X73531558Y-149961580D01*
X73523701Y-149962573D01*
X73516337Y-149965489D01*
X73516332Y-149965490D01*
X73482444Y-149978907D01*
X73471215Y-149982752D01*
X73454535Y-149987598D01*
X73428607Y-149995131D01*
X73421780Y-149999169D01*
X73421777Y-149999170D01*
X73411094Y-150005488D01*
X73393336Y-150014188D01*
X73381785Y-150018761D01*
X73381779Y-150018765D01*
X73374412Y-150021681D01*
X73368001Y-150026339D01*
X73367999Y-150026340D01*
X73338512Y-150047764D01*
X73328590Y-150054281D01*
X73297232Y-150072826D01*
X73297228Y-150072829D01*
X73290402Y-150076866D01*
X73276018Y-150091250D01*
X73260984Y-150104091D01*
X73244513Y-150116058D01*
X73239460Y-150122166D01*
X73216223Y-150150255D01*
X73208233Y-150159035D01*
X70120179Y-153247088D01*
X70057867Y-153281114D01*
X70001670Y-153280512D01*
X69785524Y-153228620D01*
X69785518Y-153228619D01*
X69780711Y-153227465D01*
X69544000Y-153208835D01*
X69307289Y-153227465D01*
X69302482Y-153228619D01*
X69302476Y-153228620D01*
X69197791Y-153253753D01*
X69076406Y-153282895D01*
X69071835Y-153284788D01*
X69071833Y-153284789D01*
X68861611Y-153371865D01*
X68861607Y-153371867D01*
X68857037Y-153373760D01*
X68852817Y-153376346D01*
X68658798Y-153495241D01*
X68658792Y-153495245D01*
X68654584Y-153497824D01*
X68474031Y-153652031D01*
X68319824Y-153832584D01*
X68317242Y-153836798D01*
X68201093Y-154026335D01*
X68148445Y-154073966D01*
X68093660Y-154086500D01*
X64494340Y-154086500D01*
X64426219Y-154066498D01*
X64386907Y-154026335D01*
X64270758Y-153836798D01*
X64268176Y-153832584D01*
X64113969Y-153652031D01*
X63933416Y-153497824D01*
X63929208Y-153495245D01*
X63929202Y-153495241D01*
X63735183Y-153376346D01*
X63730963Y-153373760D01*
X63726393Y-153371867D01*
X63726389Y-153371865D01*
X63516167Y-153284789D01*
X63516165Y-153284788D01*
X63511594Y-153282895D01*
X63390209Y-153253753D01*
X63285524Y-153228620D01*
X63285518Y-153228619D01*
X63280711Y-153227465D01*
X63044000Y-153208835D01*
X62807289Y-153227465D01*
X62802482Y-153228619D01*
X62802476Y-153228620D01*
X62697791Y-153253753D01*
X62576406Y-153282895D01*
X62571835Y-153284788D01*
X62571833Y-153284789D01*
X62361611Y-153371865D01*
X62361607Y-153371867D01*
X62357037Y-153373760D01*
X62352817Y-153376346D01*
X62158798Y-153495241D01*
X62158792Y-153495245D01*
X62154584Y-153497824D01*
X61974031Y-153652031D01*
X61819824Y-153832584D01*
X61817245Y-153836792D01*
X61817241Y-153836798D01*
X61701093Y-154026335D01*
X61695760Y-154035037D01*
X61693867Y-154039607D01*
X61693865Y-154039611D01*
X61638397Y-154173525D01*
X61604895Y-154254406D01*
X61549465Y-154485289D01*
X61530835Y-154722000D01*
X58420500Y-154722000D01*
X58420500Y-142703103D01*
X58440502Y-142634982D01*
X58494158Y-142588489D01*
X58564432Y-142578385D01*
X58629012Y-142607879D01*
X58644175Y-142623506D01*
X58644470Y-142623868D01*
X58645266Y-142624855D01*
X58674571Y-142661564D01*
X58676768Y-142664316D01*
X58679263Y-142666811D01*
X58679973Y-142667605D01*
X58683693Y-142671960D01*
X58707337Y-142700951D01*
X58707340Y-142700954D01*
X58711232Y-142705726D01*
X58715980Y-142709654D01*
X58715981Y-142709655D01*
X58746873Y-142735211D01*
X58755652Y-142743200D01*
X59699185Y-143686733D01*
X59708286Y-143696875D01*
X59732225Y-143726649D01*
X59771002Y-143759187D01*
X59774629Y-143762351D01*
X59776498Y-143764046D01*
X59778692Y-143766240D01*
X59812258Y-143793812D01*
X59813055Y-143794474D01*
X59884933Y-143854786D01*
X59889639Y-143857373D01*
X59893789Y-143860782D01*
X59899213Y-143863690D01*
X59899223Y-143863697D01*
X59976368Y-143905061D01*
X59977528Y-143905690D01*
X60059621Y-143950821D01*
X60064741Y-143952445D01*
X60069474Y-143954983D01*
X60148716Y-143979210D01*
X60158993Y-143982352D01*
X60160252Y-143982744D01*
X60243761Y-144009235D01*
X60243765Y-144009236D01*
X60249635Y-144011098D01*
X60254973Y-144011697D01*
X60260109Y-144013267D01*
X60266239Y-144013890D01*
X60266241Y-144013890D01*
X60293737Y-144016683D01*
X60353368Y-144022739D01*
X60354508Y-144022861D01*
X60404784Y-144028500D01*
X60408290Y-144028500D01*
X60409416Y-144028563D01*
X60415110Y-144029011D01*
X60452305Y-144032789D01*
X60452311Y-144032789D01*
X60458435Y-144033411D01*
X60504477Y-144029059D01*
X60516334Y-144028500D01*
X62806029Y-144028500D01*
X62874150Y-144048502D01*
X62886513Y-144057555D01*
X62972126Y-144128632D01*
X63165000Y-144241338D01*
X63373692Y-144321030D01*
X63378760Y-144322061D01*
X63378763Y-144322062D01*
X63476310Y-144341908D01*
X63592597Y-144365567D01*
X63597772Y-144365757D01*
X63597774Y-144365757D01*
X63810673Y-144373564D01*
X63810677Y-144373564D01*
X63815837Y-144373753D01*
X63820957Y-144373097D01*
X63820959Y-144373097D01*
X64032288Y-144346025D01*
X64032289Y-144346025D01*
X64037416Y-144345368D01*
X64060008Y-144338590D01*
X64246429Y-144282661D01*
X64246434Y-144282659D01*
X64251384Y-144281174D01*
X64451994Y-144182896D01*
X64633860Y-144053173D01*
X64638548Y-144048502D01*
X64788435Y-143899137D01*
X64792096Y-143895489D01*
X64817036Y-143860782D01*
X64919435Y-143718277D01*
X64922453Y-143714077D01*
X64927913Y-143703031D01*
X65019136Y-143518453D01*
X65019137Y-143518451D01*
X65021430Y-143513811D01*
X65086370Y-143300069D01*
X65115529Y-143078590D01*
X65117156Y-143012000D01*
X65098852Y-142789361D01*
X65044431Y-142572702D01*
X64955354Y-142367840D01*
X64834014Y-142180277D01*
X64683670Y-142015051D01*
X64679619Y-142011852D01*
X64679615Y-142011848D01*
X64512414Y-141879800D01*
X64512410Y-141879798D01*
X64508359Y-141876598D01*
X64467053Y-141853796D01*
X64417084Y-141803364D01*
X64402312Y-141733921D01*
X64427428Y-141667516D01*
X64454780Y-141640909D01*
X64509529Y-141601857D01*
X64633860Y-141513173D01*
X64639423Y-141507630D01*
X64788435Y-141359137D01*
X64792096Y-141355489D01*
X64798402Y-141346714D01*
X64919435Y-141178277D01*
X64922453Y-141174077D01*
X65021430Y-140973811D01*
X65080421Y-140779649D01*
X65084865Y-140765023D01*
X65084865Y-140765021D01*
X65086370Y-140760069D01*
X65115529Y-140538590D01*
X65115916Y-140522741D01*
X65117074Y-140475365D01*
X65117074Y-140475361D01*
X65117156Y-140472000D01*
X65098852Y-140249361D01*
X65071389Y-140140024D01*
X65073362Y-140090134D01*
X74057500Y-140090134D01*
X74064255Y-140152316D01*
X74115385Y-140288705D01*
X74125335Y-140301981D01*
X74188942Y-140386852D01*
X74213790Y-140453358D01*
X74198737Y-140522741D01*
X74188942Y-140537982D01*
X74121214Y-140628351D01*
X74112676Y-140643946D01*
X74067522Y-140764394D01*
X74063895Y-140779649D01*
X74058369Y-140830514D01*
X74058000Y-140837328D01*
X74058000Y-141459885D01*
X74062475Y-141475124D01*
X74063865Y-141476329D01*
X74071548Y-141478000D01*
X78555884Y-141478000D01*
X78571123Y-141473525D01*
X78572328Y-141472135D01*
X78573999Y-141464452D01*
X78573999Y-140837331D01*
X78573629Y-140830510D01*
X78568105Y-140779648D01*
X78564479Y-140764396D01*
X78519324Y-140643946D01*
X78510786Y-140628351D01*
X78443058Y-140537982D01*
X78418210Y-140471475D01*
X78433263Y-140402093D01*
X78443058Y-140386852D01*
X78506665Y-140301981D01*
X78516615Y-140288705D01*
X78567745Y-140152316D01*
X78574500Y-140090134D01*
X78574500Y-139289856D01*
X78575578Y-139273409D01*
X78577092Y-139261908D01*
X78577529Y-139258590D01*
X78578258Y-139228763D01*
X78579074Y-139195365D01*
X78579074Y-139195361D01*
X78579156Y-139192000D01*
X78574924Y-139140524D01*
X78574500Y-139130200D01*
X78574500Y-138293866D01*
X78567745Y-138231684D01*
X78516615Y-138095295D01*
X78443370Y-137997564D01*
X78418522Y-137931059D01*
X78433575Y-137861676D01*
X78443370Y-137846435D01*
X78446724Y-137841960D01*
X78516615Y-137748705D01*
X78567745Y-137612316D01*
X78574500Y-137550134D01*
X78574500Y-136749856D01*
X78575578Y-136733409D01*
X78577092Y-136721908D01*
X78577529Y-136718590D01*
X78577611Y-136715240D01*
X78579074Y-136655365D01*
X78579074Y-136655361D01*
X78579156Y-136652000D01*
X78574924Y-136600524D01*
X78574500Y-136590200D01*
X78574500Y-135753866D01*
X78567745Y-135691684D01*
X78516615Y-135555295D01*
X78443370Y-135457564D01*
X78418522Y-135391059D01*
X78433575Y-135321676D01*
X78443370Y-135306435D01*
X78511229Y-135215891D01*
X78516615Y-135208705D01*
X78567745Y-135072316D01*
X78574500Y-135010134D01*
X78574500Y-134209856D01*
X78575578Y-134193409D01*
X78577092Y-134181908D01*
X78577529Y-134178590D01*
X78579156Y-134112000D01*
X78574924Y-134060524D01*
X78574500Y-134050200D01*
X78574500Y-133213866D01*
X78567745Y-133151684D01*
X78516615Y-133015295D01*
X78443370Y-132917564D01*
X78418522Y-132851059D01*
X78433575Y-132781676D01*
X78443370Y-132766435D01*
X78516615Y-132668705D01*
X78567745Y-132532316D01*
X78574500Y-132470134D01*
X78574500Y-131669856D01*
X78575578Y-131653409D01*
X78576770Y-131644355D01*
X78577529Y-131638590D01*
X78578473Y-131599950D01*
X78579074Y-131575365D01*
X78579074Y-131575361D01*
X78579156Y-131572000D01*
X78574924Y-131520524D01*
X78574500Y-131510200D01*
X78574500Y-130673866D01*
X78567745Y-130611684D01*
X78516615Y-130475295D01*
X78443058Y-130377148D01*
X78418210Y-130310642D01*
X78433263Y-130241259D01*
X78443058Y-130226018D01*
X78510786Y-130135649D01*
X78519324Y-130120054D01*
X78564478Y-129999606D01*
X78568105Y-129984351D01*
X78573631Y-129933486D01*
X78574000Y-129926672D01*
X78574000Y-129304115D01*
X78569525Y-129288876D01*
X78568135Y-129287671D01*
X78560452Y-129286000D01*
X74076116Y-129286000D01*
X74060877Y-129290475D01*
X74059672Y-129291865D01*
X74058001Y-129299548D01*
X74058001Y-129926669D01*
X74058371Y-129933490D01*
X74063895Y-129984352D01*
X74067521Y-129999604D01*
X74112676Y-130120054D01*
X74121214Y-130135649D01*
X74188942Y-130226018D01*
X74213790Y-130292525D01*
X74198737Y-130361907D01*
X74188942Y-130377148D01*
X74115385Y-130475295D01*
X74064255Y-130611684D01*
X74057500Y-130673866D01*
X74057500Y-132470134D01*
X74064255Y-132532316D01*
X74115385Y-132668705D01*
X74188630Y-132766435D01*
X74213478Y-132832941D01*
X74198425Y-132902324D01*
X74188632Y-132917562D01*
X74115385Y-133015295D01*
X74064255Y-133151684D01*
X74057500Y-133213866D01*
X74057500Y-135010134D01*
X74064255Y-135072316D01*
X74115385Y-135208705D01*
X74120771Y-135215891D01*
X74188630Y-135306435D01*
X74213478Y-135372941D01*
X74198425Y-135442324D01*
X74188632Y-135457562D01*
X74115385Y-135555295D01*
X74064255Y-135691684D01*
X74057500Y-135753866D01*
X74057500Y-137550134D01*
X74064255Y-137612316D01*
X74115385Y-137748705D01*
X74185276Y-137841960D01*
X74188630Y-137846435D01*
X74213478Y-137912941D01*
X74198425Y-137982324D01*
X74188632Y-137997562D01*
X74115385Y-138095295D01*
X74064255Y-138231684D01*
X74057500Y-138293866D01*
X74057500Y-140090134D01*
X65073362Y-140090134D01*
X65074194Y-140069083D01*
X65104498Y-140020234D01*
X67195483Y-137929250D01*
X67203809Y-137921674D01*
X67210303Y-137917553D01*
X67257086Y-137867734D01*
X67259840Y-137864893D01*
X67279639Y-137845094D01*
X67282063Y-137841969D01*
X67282071Y-137841960D01*
X67282137Y-137841874D01*
X67289845Y-137832849D01*
X67307076Y-137814500D01*
X67320217Y-137800506D01*
X67330023Y-137782669D01*
X67340873Y-137766153D01*
X67353350Y-137750067D01*
X67370976Y-137709334D01*
X67376193Y-137698686D01*
X67393749Y-137666751D01*
X67397569Y-137659803D01*
X67399540Y-137652128D01*
X67399542Y-137652122D01*
X67402631Y-137640089D01*
X67409034Y-137621387D01*
X67417117Y-137602708D01*
X67424060Y-137558873D01*
X67426467Y-137547251D01*
X67437500Y-137504282D01*
X67437500Y-137483935D01*
X67439051Y-137464224D01*
X67440995Y-137451950D01*
X67442235Y-137444121D01*
X67438059Y-137399944D01*
X67437500Y-137388086D01*
X67437500Y-131651032D01*
X67438030Y-131639793D01*
X67439709Y-131632281D01*
X67437562Y-131563969D01*
X67437500Y-131560012D01*
X67437500Y-131532017D01*
X67436992Y-131527994D01*
X67436059Y-131516152D01*
X67436035Y-131515367D01*
X67434665Y-131471795D01*
X67428987Y-131452251D01*
X67424977Y-131432888D01*
X67423420Y-131420560D01*
X67423420Y-131420558D01*
X67422427Y-131412701D01*
X67419511Y-131405337D01*
X67419510Y-131405332D01*
X67406093Y-131371444D01*
X67402248Y-131360215D01*
X67392081Y-131325222D01*
X67389869Y-131317607D01*
X67385830Y-131310777D01*
X67379512Y-131300094D01*
X67370812Y-131282336D01*
X67366239Y-131270785D01*
X67366235Y-131270779D01*
X67363319Y-131263412D01*
X67352476Y-131248487D01*
X67345901Y-131239438D01*
X67337234Y-131227509D01*
X67330719Y-131217590D01*
X67312174Y-131186232D01*
X67312171Y-131186228D01*
X67308134Y-131179402D01*
X67293750Y-131165018D01*
X67280909Y-131149984D01*
X67273602Y-131139927D01*
X67268942Y-131133513D01*
X67234750Y-131105227D01*
X67225969Y-131097237D01*
X66712404Y-130583671D01*
X66678379Y-130521359D01*
X66675500Y-130494576D01*
X66675500Y-129328777D01*
X67377777Y-129328777D01*
X67387074Y-129340793D01*
X67430069Y-129370898D01*
X67439555Y-129376376D01*
X67630993Y-129465645D01*
X67641285Y-129469391D01*
X67845309Y-129524059D01*
X67856104Y-129525962D01*
X68066525Y-129544372D01*
X68077475Y-129544372D01*
X68287896Y-129525962D01*
X68298691Y-129524059D01*
X68502715Y-129469391D01*
X68513007Y-129465645D01*
X68704445Y-129376376D01*
X68713931Y-129370898D01*
X68757764Y-129340207D01*
X68766139Y-129329729D01*
X68759071Y-129316281D01*
X68084812Y-128642022D01*
X68070868Y-128634408D01*
X68069035Y-128634539D01*
X68062420Y-128638790D01*
X67384207Y-129317003D01*
X67377777Y-129328777D01*
X66675500Y-129328777D01*
X66675500Y-128848621D01*
X66695502Y-128780500D01*
X66749158Y-128734007D01*
X66819432Y-128723903D01*
X66884012Y-128753397D01*
X66915695Y-128795371D01*
X66965623Y-128902441D01*
X66971103Y-128911932D01*
X67001794Y-128955765D01*
X67012271Y-128964140D01*
X67025718Y-128957072D01*
X67699978Y-128282812D01*
X67706356Y-128271132D01*
X68436408Y-128271132D01*
X68436539Y-128272965D01*
X68440790Y-128279580D01*
X69119003Y-128957793D01*
X69130777Y-128964223D01*
X69142793Y-128954926D01*
X69172897Y-128911932D01*
X69178377Y-128902441D01*
X69267645Y-128711007D01*
X69271391Y-128700715D01*
X69326059Y-128496691D01*
X69327962Y-128485896D01*
X69346372Y-128275475D01*
X69346372Y-128264525D01*
X69327962Y-128054104D01*
X69326059Y-128043309D01*
X69271391Y-127839285D01*
X69267645Y-127828993D01*
X69178377Y-127637559D01*
X69172897Y-127628068D01*
X69142206Y-127584235D01*
X69131729Y-127575860D01*
X69118282Y-127582928D01*
X68444022Y-128257188D01*
X68436408Y-128271132D01*
X67706356Y-128271132D01*
X67707592Y-128268868D01*
X67707461Y-128267035D01*
X67703210Y-128260420D01*
X67024997Y-127582207D01*
X67013223Y-127575777D01*
X67001207Y-127585074D01*
X66971103Y-127628068D01*
X66965623Y-127637559D01*
X66915695Y-127744629D01*
X66868777Y-127797914D01*
X66800500Y-127817375D01*
X66732540Y-127796833D01*
X66686475Y-127742810D01*
X66675500Y-127691379D01*
X66675500Y-126309804D01*
X66695502Y-126241683D01*
X66749158Y-126195190D01*
X66819432Y-126185086D01*
X66884012Y-126214580D01*
X66915694Y-126256553D01*
X66930653Y-126288631D01*
X66965186Y-126362689D01*
X66965189Y-126362694D01*
X66967512Y-126367676D01*
X66970668Y-126372183D01*
X66970669Y-126372185D01*
X67085385Y-126536016D01*
X67095023Y-126549781D01*
X67252219Y-126706977D01*
X67256727Y-126710134D01*
X67256730Y-126710136D01*
X67316407Y-126751922D01*
X67434323Y-126834488D01*
X67439305Y-126836811D01*
X67439310Y-126836814D01*
X67544965Y-126886081D01*
X67598250Y-126932998D01*
X67617711Y-127001275D01*
X67597169Y-127069235D01*
X67544965Y-127114471D01*
X67439559Y-127163623D01*
X67430068Y-127169103D01*
X67386235Y-127199794D01*
X67377860Y-127210271D01*
X67384928Y-127223718D01*
X68059188Y-127897978D01*
X68073132Y-127905592D01*
X68074965Y-127905461D01*
X68081580Y-127901210D01*
X68759793Y-127222997D01*
X68766223Y-127211223D01*
X68756926Y-127199207D01*
X68713931Y-127169102D01*
X68704445Y-127163624D01*
X68599035Y-127114471D01*
X68545750Y-127067554D01*
X68526289Y-126999277D01*
X68546831Y-126931317D01*
X68599035Y-126886081D01*
X68704690Y-126836814D01*
X68704695Y-126836811D01*
X68709677Y-126834488D01*
X68827593Y-126751922D01*
X68887270Y-126710136D01*
X68887273Y-126710134D01*
X68891781Y-126706977D01*
X69048977Y-126549781D01*
X69058616Y-126536016D01*
X69173331Y-126372185D01*
X69173332Y-126372183D01*
X69176488Y-126367676D01*
X69178811Y-126362694D01*
X69178814Y-126362689D01*
X69268117Y-126171178D01*
X69268118Y-126171177D01*
X69270440Y-126166196D01*
X69327978Y-125951463D01*
X69347353Y-125730000D01*
X69327978Y-125508537D01*
X69318111Y-125471714D01*
X69319801Y-125400738D01*
X69350723Y-125350009D01*
X72616327Y-122084405D01*
X72678639Y-122050379D01*
X72705422Y-122047500D01*
X73931500Y-122047500D01*
X73999621Y-122067502D01*
X74046114Y-122121158D01*
X74057500Y-122173500D01*
X74057500Y-122310134D01*
X74064255Y-122372316D01*
X74115385Y-122508705D01*
X74188630Y-122606435D01*
X74213478Y-122672941D01*
X74198425Y-122742324D01*
X74188632Y-122757562D01*
X74115385Y-122855295D01*
X74064255Y-122991684D01*
X74057500Y-123053866D01*
X74057500Y-124850134D01*
X74064255Y-124912316D01*
X74115385Y-125048705D01*
X74188630Y-125146435D01*
X74213478Y-125212941D01*
X74198425Y-125282324D01*
X74188632Y-125297562D01*
X74115385Y-125395295D01*
X74064255Y-125531684D01*
X74057500Y-125593866D01*
X74057500Y-127390134D01*
X74064255Y-127452316D01*
X74115385Y-127588705D01*
X74144886Y-127628068D01*
X74188942Y-127686852D01*
X74213790Y-127753358D01*
X74198737Y-127822741D01*
X74188942Y-127837982D01*
X74121214Y-127928351D01*
X74112676Y-127943946D01*
X74067522Y-128064394D01*
X74063895Y-128079649D01*
X74058369Y-128130514D01*
X74058000Y-128137328D01*
X74058000Y-128759885D01*
X74062475Y-128775124D01*
X74063865Y-128776329D01*
X74071548Y-128778000D01*
X78555884Y-128778000D01*
X78571123Y-128773525D01*
X78572328Y-128772135D01*
X78573999Y-128764452D01*
X78573999Y-128137331D01*
X78573629Y-128130510D01*
X78568105Y-128079648D01*
X78564479Y-128064396D01*
X78519324Y-127943946D01*
X78510786Y-127928351D01*
X78443058Y-127837982D01*
X78418210Y-127771475D01*
X78433263Y-127702093D01*
X78443058Y-127686852D01*
X78487114Y-127628068D01*
X78516615Y-127588705D01*
X78567745Y-127452316D01*
X78574500Y-127390134D01*
X78574500Y-126589856D01*
X78575578Y-126573409D01*
X78577092Y-126561908D01*
X78577529Y-126558590D01*
X78577744Y-126549781D01*
X78579074Y-126495365D01*
X78579074Y-126495361D01*
X78579156Y-126492000D01*
X78574924Y-126440524D01*
X78574500Y-126430200D01*
X78574500Y-125593866D01*
X78567745Y-125531684D01*
X78516615Y-125395295D01*
X78443370Y-125297564D01*
X78418522Y-125231059D01*
X78433575Y-125161676D01*
X78443370Y-125146435D01*
X78516615Y-125048705D01*
X78567745Y-124912316D01*
X78574500Y-124850134D01*
X78574500Y-124049856D01*
X78575578Y-124033409D01*
X78577092Y-124021908D01*
X78577529Y-124018590D01*
X78577744Y-124009781D01*
X78579074Y-123955365D01*
X78579074Y-123955361D01*
X78579156Y-123952000D01*
X78574924Y-123900524D01*
X78574500Y-123890200D01*
X78574500Y-123053866D01*
X78567745Y-122991684D01*
X78516615Y-122855295D01*
X78443370Y-122757564D01*
X78418522Y-122691059D01*
X78433575Y-122621676D01*
X78443370Y-122606435D01*
X78516615Y-122508705D01*
X78567745Y-122372316D01*
X78574500Y-122310134D01*
X78574500Y-121509856D01*
X78575578Y-121493409D01*
X78577092Y-121481908D01*
X78577529Y-121478590D01*
X78577744Y-121469781D01*
X78579074Y-121415365D01*
X78579074Y-121415361D01*
X78579156Y-121412000D01*
X78574924Y-121360524D01*
X78574500Y-121350200D01*
X78574500Y-120513866D01*
X78567745Y-120451684D01*
X78516615Y-120315295D01*
X78443370Y-120217564D01*
X78418522Y-120151059D01*
X78433575Y-120081676D01*
X78443370Y-120066435D01*
X78480001Y-120017559D01*
X78516615Y-119968705D01*
X78567745Y-119832316D01*
X78574500Y-119770134D01*
X78574500Y-118969856D01*
X78575578Y-118953409D01*
X78577092Y-118941908D01*
X78577529Y-118938590D01*
X78577744Y-118929781D01*
X78579074Y-118875365D01*
X78579074Y-118875361D01*
X78579156Y-118872000D01*
X78574924Y-118820524D01*
X78574500Y-118810200D01*
X78574500Y-117973866D01*
X78567745Y-117911684D01*
X78516615Y-117775295D01*
X78443058Y-117677148D01*
X78418210Y-117610642D01*
X78433263Y-117541259D01*
X78443058Y-117526018D01*
X78510786Y-117435649D01*
X78519324Y-117420054D01*
X78564478Y-117299606D01*
X78568105Y-117284351D01*
X78573631Y-117233486D01*
X78574000Y-117226672D01*
X78574000Y-116604115D01*
X78569525Y-116588876D01*
X78568135Y-116587671D01*
X78560452Y-116586000D01*
X74076116Y-116586000D01*
X74060877Y-116590475D01*
X74059672Y-116591865D01*
X74058001Y-116599548D01*
X74058001Y-117226669D01*
X74058371Y-117233490D01*
X74063895Y-117284352D01*
X74067521Y-117299604D01*
X74112676Y-117420054D01*
X74121214Y-117435649D01*
X74188942Y-117526018D01*
X74213790Y-117592525D01*
X74198737Y-117661907D01*
X74188942Y-117677148D01*
X74115385Y-117775295D01*
X74064255Y-117911684D01*
X74057500Y-117973866D01*
X74057500Y-118110500D01*
X74037498Y-118178621D01*
X73983842Y-118225114D01*
X73931500Y-118236500D01*
X71792077Y-118236500D01*
X69472874Y-118236499D01*
X69404753Y-118216497D01*
X69358260Y-118162841D01*
X69347184Y-118111926D01*
X69347353Y-118110000D01*
X69327978Y-117888537D01*
X69270440Y-117673804D01*
X69195689Y-117513500D01*
X69178814Y-117477311D01*
X69178811Y-117477306D01*
X69176488Y-117472324D01*
X69150808Y-117435649D01*
X69052136Y-117294730D01*
X69052134Y-117294727D01*
X69048977Y-117290219D01*
X68891781Y-117133023D01*
X68887273Y-117129866D01*
X68887270Y-117129864D01*
X68811505Y-117076813D01*
X68709677Y-117005512D01*
X68704695Y-117003189D01*
X68704690Y-117003186D01*
X68599627Y-116954195D01*
X68546342Y-116907278D01*
X68526881Y-116839001D01*
X68547423Y-116771041D01*
X68599627Y-116725805D01*
X68704690Y-116676814D01*
X68704695Y-116676811D01*
X68709677Y-116674488D01*
X68827356Y-116592088D01*
X68887270Y-116550136D01*
X68887273Y-116550134D01*
X68891781Y-116546977D01*
X69048977Y-116389781D01*
X69052140Y-116385265D01*
X69173331Y-116212185D01*
X69173332Y-116212183D01*
X69176488Y-116207676D01*
X69178811Y-116202694D01*
X69178814Y-116202689D01*
X69268117Y-116011178D01*
X69268118Y-116011177D01*
X69270440Y-116006196D01*
X69327978Y-115791463D01*
X69347353Y-115570000D01*
X69327978Y-115348537D01*
X69286693Y-115194460D01*
X69271863Y-115139114D01*
X69271862Y-115139112D01*
X69270440Y-115133804D01*
X69244536Y-115078253D01*
X69178814Y-114937311D01*
X69178811Y-114937306D01*
X69176488Y-114932324D01*
X69171429Y-114925099D01*
X69052136Y-114754730D01*
X69052134Y-114754727D01*
X69048977Y-114750219D01*
X68988892Y-114690134D01*
X74057500Y-114690134D01*
X74064255Y-114752316D01*
X74115385Y-114888705D01*
X74150078Y-114934996D01*
X74188942Y-114986852D01*
X74213790Y-115053358D01*
X74198737Y-115122741D01*
X74188942Y-115137982D01*
X74121214Y-115228351D01*
X74112676Y-115243946D01*
X74067522Y-115364394D01*
X74063895Y-115379649D01*
X74058369Y-115430514D01*
X74058000Y-115437328D01*
X74058000Y-116059885D01*
X74062475Y-116075124D01*
X74063865Y-116076329D01*
X74071548Y-116078000D01*
X78555884Y-116078000D01*
X78571123Y-116073525D01*
X78572328Y-116072135D01*
X78573999Y-116064452D01*
X78573999Y-115437331D01*
X78573629Y-115430510D01*
X78568105Y-115379648D01*
X78564479Y-115364396D01*
X78519324Y-115243946D01*
X78510786Y-115228351D01*
X78443058Y-115137982D01*
X78418210Y-115071475D01*
X78433263Y-115002093D01*
X78443058Y-114986852D01*
X78481922Y-114934996D01*
X78516615Y-114888705D01*
X78567745Y-114752316D01*
X78574500Y-114690134D01*
X78574500Y-114412000D01*
X82417693Y-114412000D01*
X82436885Y-114631371D01*
X82493880Y-114844076D01*
X82510770Y-114880297D01*
X82584618Y-115038666D01*
X82584621Y-115038671D01*
X82586944Y-115043653D01*
X82590100Y-115048160D01*
X82590101Y-115048162D01*
X82654501Y-115140134D01*
X82713251Y-115224038D01*
X82868962Y-115379749D01*
X83049346Y-115506056D01*
X83248924Y-115599120D01*
X83461629Y-115656115D01*
X83681000Y-115675307D01*
X83900371Y-115656115D01*
X84113076Y-115599120D01*
X84312654Y-115506056D01*
X84493038Y-115379749D01*
X84648749Y-115224038D01*
X84707500Y-115140134D01*
X84771899Y-115048162D01*
X84771900Y-115048160D01*
X84775056Y-115043653D01*
X84777379Y-115038671D01*
X84777382Y-115038666D01*
X84851230Y-114880297D01*
X84868120Y-114844076D01*
X84925115Y-114631371D01*
X84944307Y-114412000D01*
X87267693Y-114412000D01*
X87286885Y-114631371D01*
X87343880Y-114844076D01*
X87360770Y-114880297D01*
X87434618Y-115038666D01*
X87434621Y-115038671D01*
X87436944Y-115043653D01*
X87440100Y-115048160D01*
X87440101Y-115048162D01*
X87504501Y-115140134D01*
X87563251Y-115224038D01*
X87718962Y-115379749D01*
X87899346Y-115506056D01*
X88098924Y-115599120D01*
X88311629Y-115656115D01*
X88531000Y-115675307D01*
X88750371Y-115656115D01*
X88963076Y-115599120D01*
X89162654Y-115506056D01*
X89343038Y-115379749D01*
X89498749Y-115224038D01*
X89557500Y-115140134D01*
X89621899Y-115048162D01*
X89621900Y-115048160D01*
X89625056Y-115043653D01*
X89627379Y-115038671D01*
X89627382Y-115038666D01*
X89701230Y-114880297D01*
X89718120Y-114844076D01*
X89775115Y-114631371D01*
X89794307Y-114412000D01*
X89775115Y-114192629D01*
X89718120Y-113979924D01*
X89668451Y-113873409D01*
X89627382Y-113785334D01*
X89627379Y-113785329D01*
X89625056Y-113780347D01*
X89621899Y-113775838D01*
X89501908Y-113604473D01*
X89501906Y-113604470D01*
X89498749Y-113599962D01*
X89343038Y-113444251D01*
X89162654Y-113317944D01*
X88963076Y-113224880D01*
X88750371Y-113167885D01*
X88531000Y-113148693D01*
X88311629Y-113167885D01*
X88098924Y-113224880D01*
X88030705Y-113256691D01*
X87904334Y-113315618D01*
X87904329Y-113315621D01*
X87899347Y-113317944D01*
X87894840Y-113321100D01*
X87894838Y-113321101D01*
X87723473Y-113441092D01*
X87723470Y-113441094D01*
X87718962Y-113444251D01*
X87563251Y-113599962D01*
X87560094Y-113604470D01*
X87560092Y-113604473D01*
X87440101Y-113775838D01*
X87436944Y-113780347D01*
X87434621Y-113785329D01*
X87434618Y-113785334D01*
X87393549Y-113873409D01*
X87343880Y-113979924D01*
X87286885Y-114192629D01*
X87267693Y-114412000D01*
X84944307Y-114412000D01*
X84925115Y-114192629D01*
X84868120Y-113979924D01*
X84818451Y-113873409D01*
X84777382Y-113785334D01*
X84777379Y-113785329D01*
X84775056Y-113780347D01*
X84771899Y-113775838D01*
X84651908Y-113604473D01*
X84651906Y-113604470D01*
X84648749Y-113599962D01*
X84493038Y-113444251D01*
X84312654Y-113317944D01*
X84113076Y-113224880D01*
X83900371Y-113167885D01*
X83681000Y-113148693D01*
X83461629Y-113167885D01*
X83248924Y-113224880D01*
X83180705Y-113256691D01*
X83054334Y-113315618D01*
X83054329Y-113315621D01*
X83049347Y-113317944D01*
X83044840Y-113321100D01*
X83044838Y-113321101D01*
X82873473Y-113441092D01*
X82873470Y-113441094D01*
X82868962Y-113444251D01*
X82713251Y-113599962D01*
X82710094Y-113604470D01*
X82710092Y-113604473D01*
X82590101Y-113775838D01*
X82586944Y-113780347D01*
X82584621Y-113785329D01*
X82584618Y-113785334D01*
X82543549Y-113873409D01*
X82493880Y-113979924D01*
X82436885Y-114192629D01*
X82417693Y-114412000D01*
X78574500Y-114412000D01*
X78574500Y-113889856D01*
X78575578Y-113873409D01*
X78577092Y-113861908D01*
X78577529Y-113858590D01*
X78577744Y-113849781D01*
X78579074Y-113795365D01*
X78579074Y-113795361D01*
X78579156Y-113792000D01*
X78574924Y-113740524D01*
X78574500Y-113730200D01*
X78574500Y-112893866D01*
X78567745Y-112831684D01*
X78516615Y-112695295D01*
X78443370Y-112597564D01*
X78418522Y-112531059D01*
X78433575Y-112461676D01*
X78443370Y-112446435D01*
X78516615Y-112348705D01*
X78567745Y-112212316D01*
X78574500Y-112150134D01*
X78574500Y-111349856D01*
X78574656Y-111347469D01*
X81968095Y-111347469D01*
X81968392Y-111352622D01*
X81968392Y-111352625D01*
X81974067Y-111451041D01*
X81981427Y-111578697D01*
X81982564Y-111583743D01*
X81982565Y-111583749D01*
X82014741Y-111726523D01*
X82032346Y-111804642D01*
X82034288Y-111809424D01*
X82034289Y-111809428D01*
X82108842Y-111993029D01*
X82119484Y-112019237D01*
X82240501Y-112216719D01*
X82392147Y-112391784D01*
X82570349Y-112539730D01*
X82770322Y-112656584D01*
X82986694Y-112739209D01*
X82991760Y-112740240D01*
X82991761Y-112740240D01*
X83005991Y-112743135D01*
X83213656Y-112785385D01*
X83344324Y-112790176D01*
X83439949Y-112793683D01*
X83439953Y-112793683D01*
X83445113Y-112793872D01*
X83450233Y-112793216D01*
X83450235Y-112793216D01*
X83536210Y-112782202D01*
X83674847Y-112764442D01*
X83679795Y-112762957D01*
X83679802Y-112762956D01*
X83891747Y-112699369D01*
X83896690Y-112697886D01*
X83901979Y-112695295D01*
X84100049Y-112598262D01*
X84100052Y-112598260D01*
X84104684Y-112595991D01*
X84293243Y-112461494D01*
X84457303Y-112298005D01*
X84592458Y-112109917D01*
X84626329Y-112041385D01*
X84692784Y-111906922D01*
X84692785Y-111906920D01*
X84695078Y-111902280D01*
X84762408Y-111680671D01*
X84792640Y-111451041D01*
X84794327Y-111382000D01*
X84791488Y-111347469D01*
X87418095Y-111347469D01*
X87418392Y-111352622D01*
X87418392Y-111352625D01*
X87424067Y-111451041D01*
X87431427Y-111578697D01*
X87432564Y-111583743D01*
X87432565Y-111583749D01*
X87464741Y-111726523D01*
X87482346Y-111804642D01*
X87484288Y-111809424D01*
X87484289Y-111809428D01*
X87558842Y-111993029D01*
X87569484Y-112019237D01*
X87690501Y-112216719D01*
X87842147Y-112391784D01*
X88020349Y-112539730D01*
X88220322Y-112656584D01*
X88436694Y-112739209D01*
X88441760Y-112740240D01*
X88441761Y-112740240D01*
X88455991Y-112743135D01*
X88663656Y-112785385D01*
X88794324Y-112790176D01*
X88889949Y-112793683D01*
X88889953Y-112793683D01*
X88895113Y-112793872D01*
X88900233Y-112793216D01*
X88900235Y-112793216D01*
X88986210Y-112782202D01*
X89124847Y-112764442D01*
X89129795Y-112762957D01*
X89129802Y-112762956D01*
X89341747Y-112699369D01*
X89346690Y-112697886D01*
X89351979Y-112695295D01*
X89550049Y-112598262D01*
X89550052Y-112598260D01*
X89554684Y-112595991D01*
X89743243Y-112461494D01*
X89907303Y-112298005D01*
X90042458Y-112109917D01*
X90076329Y-112041385D01*
X90142784Y-111906922D01*
X90142785Y-111906920D01*
X90145078Y-111902280D01*
X90212408Y-111680671D01*
X90242640Y-111451041D01*
X90244327Y-111382000D01*
X90236960Y-111292388D01*
X90225773Y-111156318D01*
X90225772Y-111156312D01*
X90225349Y-111151167D01*
X90168925Y-110926533D01*
X90166866Y-110921797D01*
X90078630Y-110718868D01*
X90078628Y-110718865D01*
X90076570Y-110714131D01*
X89950764Y-110519665D01*
X89794887Y-110348358D01*
X89790836Y-110345159D01*
X89790832Y-110345155D01*
X89617177Y-110208011D01*
X89617172Y-110208008D01*
X89613123Y-110204810D01*
X89608607Y-110202317D01*
X89608604Y-110202315D01*
X89414879Y-110095373D01*
X89414875Y-110095371D01*
X89410355Y-110092876D01*
X89405486Y-110091152D01*
X89405482Y-110091150D01*
X89196903Y-110017288D01*
X89196899Y-110017287D01*
X89192028Y-110015562D01*
X89186935Y-110014655D01*
X89186932Y-110014654D01*
X88969095Y-109975851D01*
X88969089Y-109975850D01*
X88964006Y-109974945D01*
X88891096Y-109974054D01*
X88737581Y-109972179D01*
X88737579Y-109972179D01*
X88732411Y-109972116D01*
X88503464Y-110007150D01*
X88283314Y-110079106D01*
X88278726Y-110081494D01*
X88278722Y-110081496D01*
X88120804Y-110163703D01*
X88077872Y-110186052D01*
X88073739Y-110189155D01*
X88073736Y-110189157D01*
X87926720Y-110299540D01*
X87892655Y-110325117D01*
X87732639Y-110492564D01*
X87729725Y-110496836D01*
X87729724Y-110496837D01*
X87714152Y-110519665D01*
X87602119Y-110683899D01*
X87504602Y-110893981D01*
X87442707Y-111117169D01*
X87418095Y-111347469D01*
X84791488Y-111347469D01*
X84786960Y-111292388D01*
X84775773Y-111156318D01*
X84775772Y-111156312D01*
X84775349Y-111151167D01*
X84718925Y-110926533D01*
X84716866Y-110921797D01*
X84628630Y-110718868D01*
X84628628Y-110718865D01*
X84626570Y-110714131D01*
X84500764Y-110519665D01*
X84344887Y-110348358D01*
X84340836Y-110345159D01*
X84340832Y-110345155D01*
X84167177Y-110208011D01*
X84167172Y-110208008D01*
X84163123Y-110204810D01*
X84158607Y-110202317D01*
X84158604Y-110202315D01*
X83964879Y-110095373D01*
X83964875Y-110095371D01*
X83960355Y-110092876D01*
X83955486Y-110091152D01*
X83955482Y-110091150D01*
X83746903Y-110017288D01*
X83746899Y-110017287D01*
X83742028Y-110015562D01*
X83736935Y-110014655D01*
X83736932Y-110014654D01*
X83519095Y-109975851D01*
X83519089Y-109975850D01*
X83514006Y-109974945D01*
X83441096Y-109974054D01*
X83287581Y-109972179D01*
X83287579Y-109972179D01*
X83282411Y-109972116D01*
X83053464Y-110007150D01*
X82833314Y-110079106D01*
X82828726Y-110081494D01*
X82828722Y-110081496D01*
X82670804Y-110163703D01*
X82627872Y-110186052D01*
X82623739Y-110189155D01*
X82623736Y-110189157D01*
X82476720Y-110299540D01*
X82442655Y-110325117D01*
X82282639Y-110492564D01*
X82279725Y-110496836D01*
X82279724Y-110496837D01*
X82264152Y-110519665D01*
X82152119Y-110683899D01*
X82054602Y-110893981D01*
X81992707Y-111117169D01*
X81968095Y-111347469D01*
X78574656Y-111347469D01*
X78575578Y-111333409D01*
X78577092Y-111321908D01*
X78577529Y-111318590D01*
X78579156Y-111252000D01*
X78574924Y-111200524D01*
X78574500Y-111190200D01*
X78574500Y-110353866D01*
X78567745Y-110291684D01*
X78516615Y-110155295D01*
X78429261Y-110038739D01*
X78312705Y-109951385D01*
X78176316Y-109900255D01*
X78114134Y-109893500D01*
X77230985Y-109893500D01*
X77229446Y-109893491D01*
X77126081Y-109892228D01*
X77126079Y-109892228D01*
X77120911Y-109892165D01*
X77115797Y-109892948D01*
X77112289Y-109893193D01*
X77103496Y-109893500D01*
X74517866Y-109893500D01*
X74455684Y-109900255D01*
X74319295Y-109951385D01*
X74202739Y-110038739D01*
X74115385Y-110155295D01*
X74064255Y-110291684D01*
X74057500Y-110353866D01*
X74057500Y-112150134D01*
X74064255Y-112212316D01*
X74115385Y-112348705D01*
X74188630Y-112446435D01*
X74213478Y-112512941D01*
X74198425Y-112582324D01*
X74188632Y-112597562D01*
X74115385Y-112695295D01*
X74064255Y-112831684D01*
X74057500Y-112893866D01*
X74057500Y-114690134D01*
X68988892Y-114690134D01*
X68891781Y-114593023D01*
X68887273Y-114589866D01*
X68887270Y-114589864D01*
X68806871Y-114533568D01*
X68709677Y-114465512D01*
X68704695Y-114463189D01*
X68704690Y-114463186D01*
X68599035Y-114413919D01*
X68545750Y-114367002D01*
X68526289Y-114298725D01*
X68546831Y-114230765D01*
X68599035Y-114185529D01*
X68704445Y-114136376D01*
X68713931Y-114130898D01*
X68757764Y-114100207D01*
X68766139Y-114089729D01*
X68759071Y-114076281D01*
X68084812Y-113402022D01*
X68070868Y-113394408D01*
X68069035Y-113394539D01*
X68062420Y-113398790D01*
X67384207Y-114077003D01*
X67377777Y-114088777D01*
X67387074Y-114100793D01*
X67430069Y-114130898D01*
X67439555Y-114136376D01*
X67544965Y-114185529D01*
X67598250Y-114232446D01*
X67617711Y-114300723D01*
X67597169Y-114368683D01*
X67544965Y-114413919D01*
X67439311Y-114463186D01*
X67439306Y-114463189D01*
X67434324Y-114465512D01*
X67429817Y-114468668D01*
X67429815Y-114468669D01*
X67256730Y-114589864D01*
X67256727Y-114589866D01*
X67252219Y-114593023D01*
X67095023Y-114750219D01*
X67091865Y-114754729D01*
X67091860Y-114754735D01*
X67003610Y-114880770D01*
X66948153Y-114925099D01*
X66900397Y-114934500D01*
X65865020Y-114934500D01*
X65853786Y-114933970D01*
X65846281Y-114932292D01*
X65778571Y-114934420D01*
X65777988Y-114934438D01*
X65774031Y-114934500D01*
X65746017Y-114934500D01*
X65742092Y-114934996D01*
X65742091Y-114934996D01*
X65741996Y-114935008D01*
X65730151Y-114935941D01*
X65700330Y-114936878D01*
X65693718Y-114937086D01*
X65693717Y-114937086D01*
X65685795Y-114937335D01*
X65666252Y-114943013D01*
X65646888Y-114947023D01*
X65634560Y-114948580D01*
X65634558Y-114948580D01*
X65626701Y-114949573D01*
X65619337Y-114952489D01*
X65619332Y-114952490D01*
X65585444Y-114965907D01*
X65574215Y-114969752D01*
X65560241Y-114973812D01*
X65531607Y-114982131D01*
X65524781Y-114986168D01*
X65514091Y-114992490D01*
X65496341Y-115001187D01*
X65477412Y-115008681D01*
X65470996Y-115013342D01*
X65470995Y-115013343D01*
X65441519Y-115034759D01*
X65431595Y-115041278D01*
X65400224Y-115059830D01*
X65400219Y-115059834D01*
X65393401Y-115063866D01*
X65379014Y-115078253D01*
X65363980Y-115091094D01*
X65347513Y-115103058D01*
X65342460Y-115109166D01*
X65319228Y-115137249D01*
X65311238Y-115146029D01*
X62090517Y-118366750D01*
X62082191Y-118374326D01*
X62075697Y-118378447D01*
X62070274Y-118384222D01*
X62028915Y-118428265D01*
X62026160Y-118431107D01*
X62006361Y-118450906D01*
X62003937Y-118454031D01*
X62003929Y-118454040D01*
X62003863Y-118454126D01*
X61996155Y-118463151D01*
X61965783Y-118495494D01*
X61961965Y-118502438D01*
X61961964Y-118502440D01*
X61955978Y-118513329D01*
X61945127Y-118529847D01*
X61932650Y-118545933D01*
X61915024Y-118586666D01*
X61909807Y-118597314D01*
X61888431Y-118636197D01*
X61886460Y-118643872D01*
X61886458Y-118643878D01*
X61883369Y-118655911D01*
X61876966Y-118674613D01*
X61868883Y-118693292D01*
X61867644Y-118701117D01*
X61861940Y-118737127D01*
X61859535Y-118748740D01*
X61848500Y-118791718D01*
X61848500Y-118812065D01*
X61846949Y-118831776D01*
X61843765Y-118851879D01*
X61844511Y-118859771D01*
X61847941Y-118896056D01*
X61848500Y-118907914D01*
X61848500Y-120070196D01*
X61828498Y-120138317D01*
X61774842Y-120184810D01*
X61704568Y-120194914D01*
X61639988Y-120165420D01*
X61608305Y-120123446D01*
X61558814Y-120017311D01*
X61558811Y-120017306D01*
X61556488Y-120012324D01*
X61553331Y-120007815D01*
X61432136Y-119834730D01*
X61432134Y-119834727D01*
X61428977Y-119830219D01*
X61271781Y-119673023D01*
X61267273Y-119669866D01*
X61267270Y-119669864D01*
X61191505Y-119616813D01*
X61089677Y-119545512D01*
X61084695Y-119543189D01*
X61084690Y-119543186D01*
X60994217Y-119500998D01*
X60979627Y-119494195D01*
X60926342Y-119447278D01*
X60906881Y-119379001D01*
X60927423Y-119311041D01*
X60979627Y-119265805D01*
X61084690Y-119216814D01*
X61084695Y-119216811D01*
X61089677Y-119214488D01*
X61255572Y-119098327D01*
X61267270Y-119090136D01*
X61267273Y-119090134D01*
X61271781Y-119086977D01*
X61428977Y-118929781D01*
X61438616Y-118916016D01*
X61553331Y-118752185D01*
X61553332Y-118752183D01*
X61556488Y-118747676D01*
X61558811Y-118742694D01*
X61558814Y-118742689D01*
X61648117Y-118551178D01*
X61648118Y-118551177D01*
X61650440Y-118546196D01*
X61662165Y-118502440D01*
X61693841Y-118384222D01*
X61707978Y-118331463D01*
X61727353Y-118110000D01*
X61707978Y-117888537D01*
X61650440Y-117673804D01*
X61575689Y-117513500D01*
X61558814Y-117477311D01*
X61558811Y-117477306D01*
X61556488Y-117472324D01*
X61530808Y-117435649D01*
X61432136Y-117294730D01*
X61432134Y-117294727D01*
X61428977Y-117290219D01*
X61271781Y-117133023D01*
X61267273Y-117129866D01*
X61267270Y-117129864D01*
X61191505Y-117076813D01*
X61089677Y-117005512D01*
X61084695Y-117003189D01*
X61084690Y-117003186D01*
X60979627Y-116954195D01*
X60926342Y-116907278D01*
X60906881Y-116839001D01*
X60927423Y-116771041D01*
X60979627Y-116725805D01*
X61084690Y-116676814D01*
X61084695Y-116676811D01*
X61089677Y-116674488D01*
X61207356Y-116592088D01*
X61267270Y-116550136D01*
X61267273Y-116550134D01*
X61271781Y-116546977D01*
X61428977Y-116389781D01*
X61432140Y-116385265D01*
X61553331Y-116212185D01*
X61553332Y-116212183D01*
X61556488Y-116207676D01*
X61558811Y-116202694D01*
X61558814Y-116202689D01*
X61648117Y-116011178D01*
X61648118Y-116011177D01*
X61650440Y-116006196D01*
X61707978Y-115791463D01*
X61727353Y-115570000D01*
X61707978Y-115348537D01*
X61666693Y-115194460D01*
X61651863Y-115139114D01*
X61651862Y-115139112D01*
X61650440Y-115133804D01*
X61624536Y-115078253D01*
X61558814Y-114937311D01*
X61558811Y-114937306D01*
X61556488Y-114932324D01*
X61551429Y-114925099D01*
X61432136Y-114754730D01*
X61432134Y-114754727D01*
X61428977Y-114750219D01*
X61271781Y-114593023D01*
X61267273Y-114589866D01*
X61267270Y-114589864D01*
X61186871Y-114533568D01*
X61089677Y-114465512D01*
X61084695Y-114463189D01*
X61084690Y-114463186D01*
X60979627Y-114414195D01*
X60926342Y-114367278D01*
X60906881Y-114299001D01*
X60927423Y-114231041D01*
X60979627Y-114185805D01*
X61084690Y-114136814D01*
X61084695Y-114136811D01*
X61089677Y-114134488D01*
X61191505Y-114063187D01*
X61267270Y-114010136D01*
X61267273Y-114010134D01*
X61271781Y-114006977D01*
X61428977Y-113849781D01*
X61438616Y-113836016D01*
X61553331Y-113672185D01*
X61553332Y-113672183D01*
X61556488Y-113667676D01*
X61558811Y-113662694D01*
X61558814Y-113662689D01*
X61648117Y-113471178D01*
X61648118Y-113471177D01*
X61650440Y-113466196D01*
X61707978Y-113251463D01*
X61726874Y-113035475D01*
X66797628Y-113035475D01*
X66816038Y-113245896D01*
X66817941Y-113256691D01*
X66872609Y-113460715D01*
X66876355Y-113471007D01*
X66965623Y-113662441D01*
X66971103Y-113671932D01*
X67001794Y-113715765D01*
X67012271Y-113724140D01*
X67025718Y-113717072D01*
X67699978Y-113042812D01*
X67706356Y-113031132D01*
X68436408Y-113031132D01*
X68436539Y-113032965D01*
X68440790Y-113039580D01*
X69119003Y-113717793D01*
X69130777Y-113724223D01*
X69142793Y-113714926D01*
X69172897Y-113671932D01*
X69178377Y-113662441D01*
X69267645Y-113471007D01*
X69271391Y-113460715D01*
X69326059Y-113256691D01*
X69327962Y-113245896D01*
X69346372Y-113035475D01*
X69346372Y-113024525D01*
X69327962Y-112814104D01*
X69326059Y-112803309D01*
X69271391Y-112599285D01*
X69267645Y-112588993D01*
X69178377Y-112397559D01*
X69172897Y-112388068D01*
X69142206Y-112344235D01*
X69131729Y-112335860D01*
X69118282Y-112342928D01*
X68444022Y-113017188D01*
X68436408Y-113031132D01*
X67706356Y-113031132D01*
X67707592Y-113028868D01*
X67707461Y-113027035D01*
X67703210Y-113020420D01*
X67024997Y-112342207D01*
X67013223Y-112335777D01*
X67001207Y-112345074D01*
X66971103Y-112388068D01*
X66965623Y-112397559D01*
X66876355Y-112588993D01*
X66872609Y-112599285D01*
X66817941Y-112803309D01*
X66816038Y-112814104D01*
X66797628Y-113024525D01*
X66797628Y-113035475D01*
X61726874Y-113035475D01*
X61727353Y-113030000D01*
X61707978Y-112808537D01*
X61650440Y-112593804D01*
X61623684Y-112536425D01*
X61558814Y-112397311D01*
X61558811Y-112397306D01*
X61556488Y-112392324D01*
X61532763Y-112358441D01*
X61432136Y-112214730D01*
X61432134Y-112214727D01*
X61428977Y-112210219D01*
X61271781Y-112053023D01*
X61267273Y-112049866D01*
X61267270Y-112049864D01*
X61173019Y-111983869D01*
X61153599Y-111970271D01*
X67377860Y-111970271D01*
X67384928Y-111983718D01*
X68059188Y-112657978D01*
X68073132Y-112665592D01*
X68074965Y-112665461D01*
X68081580Y-112661210D01*
X68759793Y-111982997D01*
X68766223Y-111971223D01*
X68756926Y-111959207D01*
X68713931Y-111929102D01*
X68704445Y-111923624D01*
X68513007Y-111834355D01*
X68502715Y-111830609D01*
X68298691Y-111775941D01*
X68287896Y-111774038D01*
X68077475Y-111755628D01*
X68066525Y-111755628D01*
X67856104Y-111774038D01*
X67845309Y-111775941D01*
X67641285Y-111830609D01*
X67630993Y-111834355D01*
X67439559Y-111923623D01*
X67430068Y-111929103D01*
X67386235Y-111959794D01*
X67377860Y-111970271D01*
X61153599Y-111970271D01*
X61089677Y-111925512D01*
X61084695Y-111923189D01*
X61084690Y-111923186D01*
X60893178Y-111833883D01*
X60893177Y-111833882D01*
X60888196Y-111831560D01*
X60882888Y-111830138D01*
X60882886Y-111830137D01*
X60787737Y-111804642D01*
X60673463Y-111774022D01*
X60452000Y-111754647D01*
X60230537Y-111774022D01*
X60116263Y-111804642D01*
X60021114Y-111830137D01*
X60021112Y-111830138D01*
X60015804Y-111831560D01*
X60010823Y-111833882D01*
X60010822Y-111833883D01*
X59819311Y-111923186D01*
X59819306Y-111923189D01*
X59814324Y-111925512D01*
X59809817Y-111928668D01*
X59809815Y-111928669D01*
X59636730Y-112049864D01*
X59636727Y-112049866D01*
X59632219Y-112053023D01*
X59475023Y-112210219D01*
X59471866Y-112214727D01*
X59471864Y-112214730D01*
X59371237Y-112358441D01*
X59347512Y-112392324D01*
X59345189Y-112397306D01*
X59345186Y-112397311D01*
X59280316Y-112536425D01*
X59253560Y-112593804D01*
X59196022Y-112808537D01*
X59176647Y-113030000D01*
X59196022Y-113251463D01*
X59253560Y-113466196D01*
X59255882Y-113471177D01*
X59255883Y-113471178D01*
X59345186Y-113662689D01*
X59345189Y-113662694D01*
X59347512Y-113667676D01*
X59350668Y-113672183D01*
X59350669Y-113672185D01*
X59465385Y-113836016D01*
X59475023Y-113849781D01*
X59632219Y-114006977D01*
X59636727Y-114010134D01*
X59636730Y-114010136D01*
X59712495Y-114063187D01*
X59814323Y-114134488D01*
X59819305Y-114136811D01*
X59819310Y-114136814D01*
X59924373Y-114185805D01*
X59977658Y-114232722D01*
X59997119Y-114300999D01*
X59976577Y-114368959D01*
X59924373Y-114414195D01*
X59819311Y-114463186D01*
X59819306Y-114463189D01*
X59814324Y-114465512D01*
X59809817Y-114468668D01*
X59809815Y-114468669D01*
X59636730Y-114589864D01*
X59636727Y-114589866D01*
X59632219Y-114593023D01*
X59475023Y-114750219D01*
X59471866Y-114754727D01*
X59471864Y-114754730D01*
X59352571Y-114925099D01*
X59347512Y-114932324D01*
X59345189Y-114937306D01*
X59345186Y-114937311D01*
X59279464Y-115078253D01*
X59253560Y-115133804D01*
X59252138Y-115139112D01*
X59252137Y-115139114D01*
X59237307Y-115194460D01*
X59196022Y-115348537D01*
X59176647Y-115570000D01*
X59196022Y-115791463D01*
X59253560Y-116006196D01*
X59255882Y-116011177D01*
X59255883Y-116011178D01*
X59345186Y-116202689D01*
X59345189Y-116202694D01*
X59347512Y-116207676D01*
X59350668Y-116212183D01*
X59350669Y-116212185D01*
X59471861Y-116385265D01*
X59475023Y-116389781D01*
X59632219Y-116546977D01*
X59636727Y-116550134D01*
X59636730Y-116550136D01*
X59696644Y-116592088D01*
X59814323Y-116674488D01*
X59819305Y-116676811D01*
X59819310Y-116676814D01*
X59924373Y-116725805D01*
X59977658Y-116772722D01*
X59997119Y-116840999D01*
X59976577Y-116908959D01*
X59924373Y-116954195D01*
X59819311Y-117003186D01*
X59819306Y-117003189D01*
X59814324Y-117005512D01*
X59809817Y-117008668D01*
X59809815Y-117008669D01*
X59636730Y-117129864D01*
X59636727Y-117129866D01*
X59632219Y-117133023D01*
X59475023Y-117290219D01*
X59471866Y-117294727D01*
X59471864Y-117294730D01*
X59373192Y-117435649D01*
X59347512Y-117472324D01*
X59345189Y-117477306D01*
X59345186Y-117477311D01*
X59328311Y-117513500D01*
X59253560Y-117673804D01*
X59196022Y-117888537D01*
X59176647Y-118110000D01*
X59196022Y-118331463D01*
X59210159Y-118384222D01*
X59241836Y-118502440D01*
X59253560Y-118546196D01*
X59255882Y-118551177D01*
X59255883Y-118551178D01*
X59345186Y-118742689D01*
X59345189Y-118742694D01*
X59347512Y-118747676D01*
X59350668Y-118752183D01*
X59350669Y-118752185D01*
X59465385Y-118916016D01*
X59475023Y-118929781D01*
X59632219Y-119086977D01*
X59636727Y-119090134D01*
X59636730Y-119090136D01*
X59648428Y-119098327D01*
X59814323Y-119214488D01*
X59819305Y-119216811D01*
X59819310Y-119216814D01*
X59924373Y-119265805D01*
X59977658Y-119312722D01*
X59997119Y-119380999D01*
X59976577Y-119448959D01*
X59924373Y-119494195D01*
X59819311Y-119543186D01*
X59819306Y-119543189D01*
X59814324Y-119545512D01*
X59809817Y-119548668D01*
X59809815Y-119548669D01*
X59636730Y-119669864D01*
X59636727Y-119669866D01*
X59632219Y-119673023D01*
X59475023Y-119830219D01*
X59471866Y-119834727D01*
X59471864Y-119834730D01*
X59350669Y-120007815D01*
X59347512Y-120012324D01*
X59345189Y-120017306D01*
X59345186Y-120017311D01*
X59260585Y-120198739D01*
X59253560Y-120213804D01*
X59196022Y-120428537D01*
X59176647Y-120650000D01*
X59196022Y-120871463D01*
X59253560Y-121086196D01*
X59255882Y-121091177D01*
X59255883Y-121091178D01*
X59345186Y-121282689D01*
X59345189Y-121282694D01*
X59347512Y-121287676D01*
X59350668Y-121292183D01*
X59350669Y-121292185D01*
X59465385Y-121456016D01*
X59475023Y-121469781D01*
X59632219Y-121626977D01*
X59636727Y-121630134D01*
X59636730Y-121630136D01*
X59712495Y-121683187D01*
X59814323Y-121754488D01*
X59819305Y-121756811D01*
X59819310Y-121756814D01*
X59924373Y-121805805D01*
X59977658Y-121852722D01*
X59997119Y-121920999D01*
X59976577Y-121988959D01*
X59924373Y-122034195D01*
X59819311Y-122083186D01*
X59819306Y-122083189D01*
X59814324Y-122085512D01*
X59809817Y-122088668D01*
X59809815Y-122088669D01*
X59636730Y-122209864D01*
X59636727Y-122209866D01*
X59632219Y-122213023D01*
X59475023Y-122370219D01*
X59471866Y-122374727D01*
X59471864Y-122374730D01*
X59351988Y-122545931D01*
X59347512Y-122552324D01*
X59345189Y-122557306D01*
X59345186Y-122557311D01*
X59260585Y-122738739D01*
X59253560Y-122753804D01*
X59196022Y-122968537D01*
X59176647Y-123190000D01*
X59196022Y-123411463D01*
X59253560Y-123626196D01*
X59255882Y-123631177D01*
X59255883Y-123631178D01*
X59345186Y-123822689D01*
X59345189Y-123822694D01*
X59347512Y-123827676D01*
X59350668Y-123832183D01*
X59350669Y-123832185D01*
X59465385Y-123996016D01*
X59475023Y-124009781D01*
X59632219Y-124166977D01*
X59636727Y-124170134D01*
X59636730Y-124170136D01*
X59648428Y-124178327D01*
X59814323Y-124294488D01*
X59819305Y-124296811D01*
X59819310Y-124296814D01*
X59924373Y-124345805D01*
X59977658Y-124392722D01*
X59997119Y-124460999D01*
X59976577Y-124528959D01*
X59924373Y-124574195D01*
X59819311Y-124623186D01*
X59819306Y-124623189D01*
X59814324Y-124625512D01*
X59809817Y-124628668D01*
X59809815Y-124628669D01*
X59636730Y-124749864D01*
X59636727Y-124749866D01*
X59632219Y-124753023D01*
X59475023Y-124910219D01*
X59471866Y-124914727D01*
X59471864Y-124914730D01*
X59351151Y-125087127D01*
X59347512Y-125092324D01*
X59345189Y-125097306D01*
X59345186Y-125097311D01*
X59260585Y-125278739D01*
X59253560Y-125293804D01*
X59196022Y-125508537D01*
X59176647Y-125730000D01*
X59196022Y-125951463D01*
X59253560Y-126166196D01*
X59255882Y-126171177D01*
X59255883Y-126171178D01*
X59345186Y-126362689D01*
X59345189Y-126362694D01*
X59347512Y-126367676D01*
X59350668Y-126372183D01*
X59350669Y-126372185D01*
X59465385Y-126536016D01*
X59475023Y-126549781D01*
X59632219Y-126706977D01*
X59636727Y-126710134D01*
X59636730Y-126710136D01*
X59696407Y-126751922D01*
X59814323Y-126834488D01*
X59819305Y-126836811D01*
X59819310Y-126836814D01*
X59924373Y-126885805D01*
X59977658Y-126932722D01*
X59997119Y-127000999D01*
X59976577Y-127068959D01*
X59924373Y-127114195D01*
X59819311Y-127163186D01*
X59819306Y-127163189D01*
X59814324Y-127165512D01*
X59809817Y-127168668D01*
X59809815Y-127168669D01*
X59636730Y-127289864D01*
X59636727Y-127289866D01*
X59632219Y-127293023D01*
X59475023Y-127450219D01*
X59471866Y-127454727D01*
X59471864Y-127454730D01*
X59350669Y-127627815D01*
X59347512Y-127632324D01*
X59345189Y-127637306D01*
X59345186Y-127637311D01*
X59261221Y-127817375D01*
X59253560Y-127833804D01*
X59252138Y-127839112D01*
X59252137Y-127839114D01*
X59248213Y-127853758D01*
X59196022Y-128048537D01*
X59195543Y-128054014D01*
X59194972Y-128057252D01*
X59159981Y-128124471D01*
X58761267Y-128523185D01*
X58751125Y-128532286D01*
X58721351Y-128556225D01*
X58688813Y-128595002D01*
X58685649Y-128598629D01*
X58683954Y-128600498D01*
X58681760Y-128602692D01*
X58654195Y-128636249D01*
X58653479Y-128637111D01*
X58643019Y-128649576D01*
X58583908Y-128688901D01*
X58512921Y-128690025D01*
X58452594Y-128652592D01*
X58422082Y-128588487D01*
X58420500Y-128568582D01*
X58420500Y-107568500D01*
X58440502Y-107500379D01*
X58494158Y-107453886D01*
X58546500Y-107442500D01*
X114681500Y-107442500D01*
X114749621Y-107462502D01*
G37*
G04 #@! TD.AperFunction*
G04 #@! TA.AperFunction,Conductor*
G36*
X66968518Y-116225502D02*
G01*
X67003610Y-116259230D01*
X67091860Y-116385265D01*
X67091864Y-116385270D01*
X67095023Y-116389781D01*
X67252219Y-116546977D01*
X67256727Y-116550134D01*
X67256730Y-116550136D01*
X67316644Y-116592088D01*
X67434323Y-116674488D01*
X67439305Y-116676811D01*
X67439310Y-116676814D01*
X67544373Y-116725805D01*
X67597658Y-116772722D01*
X67617119Y-116840999D01*
X67596577Y-116908959D01*
X67544373Y-116954195D01*
X67439311Y-117003186D01*
X67439306Y-117003189D01*
X67434324Y-117005512D01*
X67429817Y-117008668D01*
X67429815Y-117008669D01*
X67256730Y-117129864D01*
X67256727Y-117129866D01*
X67252219Y-117133023D01*
X67095023Y-117290219D01*
X67091866Y-117294727D01*
X67091864Y-117294730D01*
X66993192Y-117435649D01*
X66967512Y-117472324D01*
X66965189Y-117477306D01*
X66965186Y-117477311D01*
X66948311Y-117513500D01*
X66873560Y-117673804D01*
X66816022Y-117888537D01*
X66796647Y-118110000D01*
X66816022Y-118331463D01*
X66830159Y-118384222D01*
X66861836Y-118502440D01*
X66873560Y-118546196D01*
X66875882Y-118551177D01*
X66875883Y-118551178D01*
X66965186Y-118742689D01*
X66965189Y-118742694D01*
X66967512Y-118747676D01*
X66970668Y-118752183D01*
X66970669Y-118752185D01*
X67085385Y-118916016D01*
X67095023Y-118929781D01*
X67252219Y-119086977D01*
X67256727Y-119090134D01*
X67256730Y-119090136D01*
X67268428Y-119098327D01*
X67434323Y-119214488D01*
X67439305Y-119216811D01*
X67439310Y-119216814D01*
X67544965Y-119266081D01*
X67598250Y-119312998D01*
X67617711Y-119381275D01*
X67597169Y-119449235D01*
X67544965Y-119494471D01*
X67439559Y-119543623D01*
X67430068Y-119549103D01*
X67386235Y-119579794D01*
X67377860Y-119590271D01*
X67384928Y-119603718D01*
X68059188Y-120277978D01*
X68073132Y-120285592D01*
X68074965Y-120285461D01*
X68081580Y-120281210D01*
X68759793Y-119602997D01*
X68776112Y-119573112D01*
X68826315Y-119522911D01*
X68886699Y-119507499D01*
X69657740Y-119507499D01*
X73931500Y-119507500D01*
X73999621Y-119527502D01*
X74046114Y-119581158D01*
X74057500Y-119633500D01*
X74057500Y-119770134D01*
X74064255Y-119832316D01*
X74115385Y-119968705D01*
X74151999Y-120017559D01*
X74188630Y-120066435D01*
X74213478Y-120132941D01*
X74198425Y-120202324D01*
X74188632Y-120217562D01*
X74115385Y-120315295D01*
X74064255Y-120451684D01*
X74057500Y-120513866D01*
X74057500Y-120650500D01*
X74037498Y-120718621D01*
X73983842Y-120765114D01*
X73931500Y-120776500D01*
X72469020Y-120776500D01*
X72457786Y-120775970D01*
X72450281Y-120774292D01*
X72382571Y-120776420D01*
X72381988Y-120776438D01*
X72378031Y-120776500D01*
X72350017Y-120776500D01*
X72346092Y-120776996D01*
X72346091Y-120776996D01*
X72345996Y-120777008D01*
X72334151Y-120777941D01*
X72304330Y-120778878D01*
X72297718Y-120779086D01*
X72297717Y-120779086D01*
X72289795Y-120779335D01*
X72270252Y-120785013D01*
X72250888Y-120789023D01*
X72238560Y-120790580D01*
X72238558Y-120790580D01*
X72230701Y-120791573D01*
X72223337Y-120794489D01*
X72223332Y-120794490D01*
X72189444Y-120807907D01*
X72178215Y-120811752D01*
X72164241Y-120815812D01*
X72135607Y-120824131D01*
X72128781Y-120828168D01*
X72118091Y-120834490D01*
X72100341Y-120843187D01*
X72081412Y-120850681D01*
X72045613Y-120876691D01*
X72045519Y-120876759D01*
X72035595Y-120883278D01*
X72004224Y-120901830D01*
X72004219Y-120901834D01*
X71997401Y-120905866D01*
X71983014Y-120920253D01*
X71967980Y-120933094D01*
X71951513Y-120945058D01*
X71946460Y-120951166D01*
X71923228Y-120979249D01*
X71915238Y-120988029D01*
X69557058Y-123346209D01*
X69494746Y-123380235D01*
X69423931Y-123375170D01*
X69367095Y-123332623D01*
X69342284Y-123266103D01*
X69342442Y-123246132D01*
X69346874Y-123195474D01*
X69347353Y-123190000D01*
X69327978Y-122968537D01*
X69270440Y-122753804D01*
X69263415Y-122738739D01*
X69178814Y-122557311D01*
X69178811Y-122557306D01*
X69176488Y-122552324D01*
X69172012Y-122545931D01*
X69052136Y-122374730D01*
X69052134Y-122374727D01*
X69048977Y-122370219D01*
X68891781Y-122213023D01*
X68887273Y-122209866D01*
X68887270Y-122209864D01*
X68778102Y-122133424D01*
X68709677Y-122085512D01*
X68704695Y-122083189D01*
X68704690Y-122083186D01*
X68599035Y-122033919D01*
X68545750Y-121987002D01*
X68526289Y-121918725D01*
X68546831Y-121850765D01*
X68599035Y-121805529D01*
X68704445Y-121756376D01*
X68713931Y-121750898D01*
X68757764Y-121720207D01*
X68766139Y-121709729D01*
X68759071Y-121696281D01*
X68084812Y-121022022D01*
X68070868Y-121014408D01*
X68069035Y-121014539D01*
X68062420Y-121018790D01*
X67384207Y-121697003D01*
X67377777Y-121708777D01*
X67387074Y-121720793D01*
X67430069Y-121750898D01*
X67439555Y-121756376D01*
X67544965Y-121805529D01*
X67598250Y-121852446D01*
X67617711Y-121920723D01*
X67597169Y-121988683D01*
X67544965Y-122033919D01*
X67439311Y-122083186D01*
X67439306Y-122083189D01*
X67434324Y-122085512D01*
X67429817Y-122088668D01*
X67429815Y-122088669D01*
X67256730Y-122209864D01*
X67256727Y-122209866D01*
X67252219Y-122213023D01*
X67095023Y-122370219D01*
X67091866Y-122374727D01*
X67091864Y-122374730D01*
X66971988Y-122545931D01*
X66967512Y-122552324D01*
X66965189Y-122557306D01*
X66965186Y-122557311D01*
X66880585Y-122738739D01*
X66873560Y-122753804D01*
X66816022Y-122968537D01*
X66796647Y-123190000D01*
X66816022Y-123411463D01*
X66817445Y-123416773D01*
X66817446Y-123416780D01*
X66825888Y-123448286D01*
X66824198Y-123519263D01*
X66793276Y-123569991D01*
X65646517Y-124716750D01*
X65638191Y-124724326D01*
X65631697Y-124728447D01*
X65626274Y-124734222D01*
X65584915Y-124778265D01*
X65582160Y-124781107D01*
X65562361Y-124800906D01*
X65559937Y-124804031D01*
X65559929Y-124804040D01*
X65559863Y-124804126D01*
X65552155Y-124813151D01*
X65521783Y-124845494D01*
X65517965Y-124852438D01*
X65517964Y-124852440D01*
X65511978Y-124863329D01*
X65501127Y-124879847D01*
X65488650Y-124895933D01*
X65471024Y-124936666D01*
X65465807Y-124947314D01*
X65444431Y-124986197D01*
X65442460Y-124993872D01*
X65442458Y-124993878D01*
X65439369Y-125005911D01*
X65432966Y-125024613D01*
X65424883Y-125043292D01*
X65419524Y-125077128D01*
X65417940Y-125087127D01*
X65415535Y-125098740D01*
X65404500Y-125141718D01*
X65404500Y-125162065D01*
X65402949Y-125181776D01*
X65399765Y-125201879D01*
X65400511Y-125209771D01*
X65403941Y-125246056D01*
X65404500Y-125257914D01*
X65404500Y-130730980D01*
X65403970Y-130742214D01*
X65402292Y-130749719D01*
X65402541Y-130757638D01*
X65404438Y-130818012D01*
X65404500Y-130821969D01*
X65404500Y-130849983D01*
X65404996Y-130853908D01*
X65404996Y-130853909D01*
X65405008Y-130854004D01*
X65405941Y-130865849D01*
X65407335Y-130910205D01*
X65409547Y-130917817D01*
X65413013Y-130929748D01*
X65417023Y-130949112D01*
X65419573Y-130969299D01*
X65422489Y-130976663D01*
X65422490Y-130976668D01*
X65435907Y-131010556D01*
X65439752Y-131021785D01*
X65452131Y-131064393D01*
X65456169Y-131071220D01*
X65456170Y-131071223D01*
X65462488Y-131081906D01*
X65471188Y-131099664D01*
X65475761Y-131111215D01*
X65475765Y-131111221D01*
X65478681Y-131118588D01*
X65483339Y-131124999D01*
X65483340Y-131125001D01*
X65494185Y-131139927D01*
X65501492Y-131149984D01*
X65504764Y-131154488D01*
X65511281Y-131164410D01*
X65529826Y-131195768D01*
X65529829Y-131195772D01*
X65533866Y-131202598D01*
X65548250Y-131216982D01*
X65561091Y-131232016D01*
X65573058Y-131248487D01*
X65600012Y-131270785D01*
X65607250Y-131276773D01*
X65616031Y-131284763D01*
X66129596Y-131798329D01*
X66163621Y-131860641D01*
X66166500Y-131887424D01*
X66166500Y-137108578D01*
X66146498Y-137176699D01*
X66129595Y-137197673D01*
X65330662Y-137996606D01*
X65268350Y-138030632D01*
X65197535Y-138025567D01*
X65140699Y-137983020D01*
X65115991Y-137917835D01*
X65111873Y-137867735D01*
X65098852Y-137709361D01*
X65044431Y-137492702D01*
X64955354Y-137287840D01*
X64883454Y-137176699D01*
X64836822Y-137104617D01*
X64836820Y-137104614D01*
X64834014Y-137100277D01*
X64830540Y-137096459D01*
X64830533Y-137096450D01*
X64686435Y-136938088D01*
X64655383Y-136874242D01*
X64663779Y-136803744D01*
X64708956Y-136748976D01*
X64735400Y-136735307D01*
X64842052Y-136695325D01*
X64857649Y-136686786D01*
X64959724Y-136610285D01*
X64972285Y-136597724D01*
X65048786Y-136495649D01*
X65057324Y-136480054D01*
X65102478Y-136359606D01*
X65106105Y-136344351D01*
X65111631Y-136293486D01*
X65112000Y-136286672D01*
X65112000Y-135664115D01*
X65107525Y-135648876D01*
X65106135Y-135647671D01*
X65098452Y-135646000D01*
X63626000Y-135646000D01*
X63557879Y-135625998D01*
X63511386Y-135572342D01*
X63500000Y-135520000D01*
X63500000Y-135119885D01*
X64008000Y-135119885D01*
X64012475Y-135135124D01*
X64013865Y-135136329D01*
X64021548Y-135138000D01*
X65093884Y-135138000D01*
X65109123Y-135133525D01*
X65110328Y-135132135D01*
X65111999Y-135124452D01*
X65111999Y-134497331D01*
X65111629Y-134490510D01*
X65106105Y-134439648D01*
X65102479Y-134424396D01*
X65057324Y-134303946D01*
X65048786Y-134288351D01*
X64972285Y-134186276D01*
X64959724Y-134173715D01*
X64857649Y-134097214D01*
X64842054Y-134088676D01*
X64721606Y-134043522D01*
X64706351Y-134039895D01*
X64655486Y-134034369D01*
X64648672Y-134034000D01*
X64026115Y-134034000D01*
X64010876Y-134038475D01*
X64009671Y-134039865D01*
X64008000Y-134047548D01*
X64008000Y-135119885D01*
X63500000Y-135119885D01*
X63500000Y-134052116D01*
X63495525Y-134036877D01*
X63494135Y-134035672D01*
X63486452Y-134034001D01*
X62859331Y-134034001D01*
X62852510Y-134034371D01*
X62801648Y-134039895D01*
X62786396Y-134043521D01*
X62665946Y-134088676D01*
X62650351Y-134097214D01*
X62548276Y-134173715D01*
X62535719Y-134186272D01*
X62457327Y-134290871D01*
X62400467Y-134333386D01*
X62329649Y-134338412D01*
X62267355Y-134304352D01*
X62233365Y-134242021D01*
X62230500Y-134215306D01*
X62230500Y-132776423D01*
X62250502Y-132708302D01*
X62267405Y-132687327D01*
X62566088Y-132388645D01*
X62877488Y-132077245D01*
X62885807Y-132069675D01*
X62892303Y-132065553D01*
X62939086Y-132015734D01*
X62941840Y-132012893D01*
X62961639Y-131993094D01*
X62964063Y-131989969D01*
X62964071Y-131989960D01*
X62964137Y-131989874D01*
X62971845Y-131980849D01*
X62984430Y-131967447D01*
X63002217Y-131948506D01*
X63012023Y-131930669D01*
X63022873Y-131914153D01*
X63035350Y-131898067D01*
X63052976Y-131857334D01*
X63058193Y-131846686D01*
X63075749Y-131814751D01*
X63079569Y-131807803D01*
X63081540Y-131800128D01*
X63081542Y-131800122D01*
X63084631Y-131788089D01*
X63091034Y-131769387D01*
X63099117Y-131750708D01*
X63106060Y-131706873D01*
X63108467Y-131695251D01*
X63119500Y-131652282D01*
X63119500Y-131631935D01*
X63121051Y-131612224D01*
X63122995Y-131599950D01*
X63124235Y-131592121D01*
X63120059Y-131547944D01*
X63119500Y-131536086D01*
X63119500Y-120655475D01*
X66797628Y-120655475D01*
X66816038Y-120865896D01*
X66817941Y-120876691D01*
X66872609Y-121080715D01*
X66876355Y-121091007D01*
X66965623Y-121282441D01*
X66971103Y-121291932D01*
X67001794Y-121335765D01*
X67012271Y-121344140D01*
X67025718Y-121337072D01*
X67699978Y-120662812D01*
X67706356Y-120651132D01*
X68436408Y-120651132D01*
X68436539Y-120652965D01*
X68440790Y-120659580D01*
X69119003Y-121337793D01*
X69130777Y-121344223D01*
X69142793Y-121334926D01*
X69172897Y-121291932D01*
X69178377Y-121282441D01*
X69267645Y-121091007D01*
X69271391Y-121080715D01*
X69326059Y-120876691D01*
X69327962Y-120865896D01*
X69346372Y-120655475D01*
X69346372Y-120644525D01*
X69327962Y-120434104D01*
X69326059Y-120423309D01*
X69271391Y-120219285D01*
X69267645Y-120208993D01*
X69178377Y-120017559D01*
X69172897Y-120008068D01*
X69142206Y-119964235D01*
X69131729Y-119955860D01*
X69118282Y-119962928D01*
X68444022Y-120637188D01*
X68436408Y-120651132D01*
X67706356Y-120651132D01*
X67707592Y-120648868D01*
X67707461Y-120647035D01*
X67703210Y-120640420D01*
X67024997Y-119962207D01*
X67013223Y-119955777D01*
X67001207Y-119965074D01*
X66971103Y-120008068D01*
X66965623Y-120017559D01*
X66876355Y-120208993D01*
X66872609Y-120219285D01*
X66817941Y-120423309D01*
X66816038Y-120434104D01*
X66797628Y-120644525D01*
X66797628Y-120655475D01*
X63119500Y-120655475D01*
X63119500Y-119187422D01*
X63139502Y-119119301D01*
X63156405Y-119098327D01*
X66012327Y-116242405D01*
X66074639Y-116208379D01*
X66101422Y-116205500D01*
X66900397Y-116205500D01*
X66968518Y-116225502D01*
G37*
G04 #@! TD.AperFunction*
M02*
