%FSLAX45Y45*%
G04 Gerber Fmt 4.5, Leading zero omitted, Abs format (unit mm)*
G04 Created by KiCad (PCBNEW (6.0.6)) date 2022-11-09 14:25:15*
%MOMM*%
%LPD*%
G01*
G04 APERTURE LIST*
%TA.AperFunction,Profile*%
%ADD10C,3.213100*%
%TD*%
%TA.AperFunction,Profile*%
%ADD11C,0.025400*%
%TD*%
%ADD12C,0.200000*%
%ADD13C,0.150000*%
%ADD14C,0.180000*%
G04 APERTURE END LIST*
D10*
X10966405Y-14772050D02*
G75*
G03*
X10966405Y-14772050I-160655J0D01*
G01*
D11*
X5791200Y-10693400D02*
X11531600Y-10693400D01*
X11531600Y-10693400D02*
X11531600Y-16891000D01*
X11531600Y-16891000D02*
X5791200Y-16891000D01*
X5791200Y-16891000D02*
X5791200Y-10693400D01*
D10*
X10890205Y-13781450D02*
G75*
G03*
X10890205Y-13781450I-160655J0D01*
G01*
D12*
D13*
X8293100Y-11366200D02*
X8443100Y-11516200D01*
X8443100Y-11366200D02*
X8293100Y-11516200D01*
X8778100Y-11366200D02*
X8928100Y-11516200D01*
X8928100Y-11366200D02*
X8778100Y-11516200D01*
D14*
X8428100Y-11138200D02*
G75*
G03*
X8428100Y-11138200I-90000J0D01*
G01*
X8973100Y-11138200D02*
G75*
G03*
X8973100Y-11138200I-90000J0D01*
G01*
D12*
X6047549Y-17202746D02*
X6047549Y-17002746D01*
X6095168Y-17002746D01*
X6123739Y-17012270D01*
X6142787Y-17031318D01*
X6152311Y-17050365D01*
X6161835Y-17088460D01*
X6161835Y-17117032D01*
X6152311Y-17155127D01*
X6142787Y-17174175D01*
X6123739Y-17193222D01*
X6095168Y-17202746D01*
X6047549Y-17202746D01*
X6247549Y-17202746D02*
X6247549Y-17069413D01*
X6247549Y-17107508D02*
X6257073Y-17088460D01*
X6266597Y-17078937D01*
X6285644Y-17069413D01*
X6304692Y-17069413D01*
X6371358Y-17202746D02*
X6371358Y-17069413D01*
X6371358Y-17002746D02*
X6361835Y-17012270D01*
X6371358Y-17021794D01*
X6380882Y-17012270D01*
X6371358Y-17002746D01*
X6371358Y-17021794D01*
X6495168Y-17202746D02*
X6476120Y-17193222D01*
X6466597Y-17174175D01*
X6466597Y-17002746D01*
X6599930Y-17202746D02*
X6580882Y-17193222D01*
X6571358Y-17174175D01*
X6571358Y-17002746D01*
X6828501Y-17202746D02*
X6828501Y-17002746D01*
X6895168Y-17145603D01*
X6961835Y-17002746D01*
X6961835Y-17202746D01*
X7142787Y-17202746D02*
X7142787Y-17097984D01*
X7133263Y-17078937D01*
X7114216Y-17069413D01*
X7076120Y-17069413D01*
X7057073Y-17078937D01*
X7142787Y-17193222D02*
X7123739Y-17202746D01*
X7076120Y-17202746D01*
X7057073Y-17193222D01*
X7047549Y-17174175D01*
X7047549Y-17155127D01*
X7057073Y-17136080D01*
X7076120Y-17126556D01*
X7123739Y-17126556D01*
X7142787Y-17117032D01*
X7238025Y-17069413D02*
X7238025Y-17269413D01*
X7238025Y-17078937D02*
X7257073Y-17069413D01*
X7295168Y-17069413D01*
X7314216Y-17078937D01*
X7323739Y-17088460D01*
X7333263Y-17107508D01*
X7333263Y-17164651D01*
X7323739Y-17183699D01*
X7314216Y-17193222D01*
X7295168Y-17202746D01*
X7257073Y-17202746D01*
X7238025Y-17193222D01*
X7418978Y-17183699D02*
X7428501Y-17193222D01*
X7418978Y-17202746D01*
X7409454Y-17193222D01*
X7418978Y-17183699D01*
X7418978Y-17202746D01*
X7418978Y-17078937D02*
X7428501Y-17088460D01*
X7418978Y-17097984D01*
X7409454Y-17088460D01*
X7418978Y-17078937D01*
X7418978Y-17097984D01*
D13*
X5639930Y-17457270D02*
X5789930Y-17607270D01*
X5789930Y-17457270D02*
X5639930Y-17607270D01*
D12*
X6152311Y-17622746D02*
X6038025Y-17622746D01*
X6095168Y-17622746D02*
X6095168Y-17422746D01*
X6076120Y-17451318D01*
X6057073Y-17470365D01*
X6038025Y-17479889D01*
X6238025Y-17603699D02*
X6247549Y-17613222D01*
X6238025Y-17622746D01*
X6228501Y-17613222D01*
X6238025Y-17603699D01*
X6238025Y-17622746D01*
X6428501Y-17422746D02*
X6333263Y-17422746D01*
X6323739Y-17517984D01*
X6333263Y-17508460D01*
X6352311Y-17498937D01*
X6399930Y-17498937D01*
X6418978Y-17508460D01*
X6428501Y-17517984D01*
X6438025Y-17537032D01*
X6438025Y-17584651D01*
X6428501Y-17603699D01*
X6418978Y-17613222D01*
X6399930Y-17622746D01*
X6352311Y-17622746D01*
X6333263Y-17613222D01*
X6323739Y-17603699D01*
X6561835Y-17422746D02*
X6580882Y-17422746D01*
X6599930Y-17432270D01*
X6609454Y-17441794D01*
X6618978Y-17460841D01*
X6628501Y-17498937D01*
X6628501Y-17546556D01*
X6618978Y-17584651D01*
X6609454Y-17603699D01*
X6599930Y-17613222D01*
X6580882Y-17622746D01*
X6561835Y-17622746D01*
X6542787Y-17613222D01*
X6533263Y-17603699D01*
X6523739Y-17584651D01*
X6514216Y-17546556D01*
X6514216Y-17498937D01*
X6523739Y-17460841D01*
X6533263Y-17441794D01*
X6542787Y-17432270D01*
X6561835Y-17422746D01*
X6752311Y-17422746D02*
X6771358Y-17422746D01*
X6790406Y-17432270D01*
X6799930Y-17441794D01*
X6809454Y-17460841D01*
X6818978Y-17498937D01*
X6818978Y-17546556D01*
X6809454Y-17584651D01*
X6799930Y-17603699D01*
X6790406Y-17613222D01*
X6771358Y-17622746D01*
X6752311Y-17622746D01*
X6733263Y-17613222D01*
X6723739Y-17603699D01*
X6714216Y-17584651D01*
X6704692Y-17546556D01*
X6704692Y-17498937D01*
X6714216Y-17460841D01*
X6723739Y-17441794D01*
X6733263Y-17432270D01*
X6752311Y-17422746D01*
X6904692Y-17622746D02*
X6904692Y-17489413D01*
X6904692Y-17508460D02*
X6914216Y-17498937D01*
X6933263Y-17489413D01*
X6961835Y-17489413D01*
X6980882Y-17498937D01*
X6990406Y-17517984D01*
X6990406Y-17622746D01*
X6990406Y-17517984D02*
X6999930Y-17498937D01*
X7018978Y-17489413D01*
X7047549Y-17489413D01*
X7066597Y-17498937D01*
X7076120Y-17517984D01*
X7076120Y-17622746D01*
X7171358Y-17622746D02*
X7171358Y-17489413D01*
X7171358Y-17508460D02*
X7180882Y-17498937D01*
X7199930Y-17489413D01*
X7228501Y-17489413D01*
X7247549Y-17498937D01*
X7257073Y-17517984D01*
X7257073Y-17622746D01*
X7257073Y-17517984D02*
X7266597Y-17498937D01*
X7285644Y-17489413D01*
X7314216Y-17489413D01*
X7333263Y-17498937D01*
X7342787Y-17517984D01*
X7342787Y-17622746D01*
X7733263Y-17413222D02*
X7561835Y-17670365D01*
X7990406Y-17422746D02*
X8009454Y-17422746D01*
X8028501Y-17432270D01*
X8038025Y-17441794D01*
X8047549Y-17460841D01*
X8057073Y-17498937D01*
X8057073Y-17546556D01*
X8047549Y-17584651D01*
X8038025Y-17603699D01*
X8028501Y-17613222D01*
X8009454Y-17622746D01*
X7990406Y-17622746D01*
X7971358Y-17613222D01*
X7961835Y-17603699D01*
X7952311Y-17584651D01*
X7942787Y-17546556D01*
X7942787Y-17498937D01*
X7952311Y-17460841D01*
X7961835Y-17441794D01*
X7971358Y-17432270D01*
X7990406Y-17422746D01*
X8142787Y-17603699D02*
X8152311Y-17613222D01*
X8142787Y-17622746D01*
X8133263Y-17613222D01*
X8142787Y-17603699D01*
X8142787Y-17622746D01*
X8276120Y-17422746D02*
X8295168Y-17422746D01*
X8314216Y-17432270D01*
X8323739Y-17441794D01*
X8333263Y-17460841D01*
X8342787Y-17498937D01*
X8342787Y-17546556D01*
X8333263Y-17584651D01*
X8323739Y-17603699D01*
X8314216Y-17613222D01*
X8295168Y-17622746D01*
X8276120Y-17622746D01*
X8257073Y-17613222D01*
X8247549Y-17603699D01*
X8238025Y-17584651D01*
X8228501Y-17546556D01*
X8228501Y-17498937D01*
X8238025Y-17460841D01*
X8247549Y-17441794D01*
X8257073Y-17432270D01*
X8276120Y-17422746D01*
X8523740Y-17422746D02*
X8428501Y-17422746D01*
X8418978Y-17517984D01*
X8428501Y-17508460D01*
X8447549Y-17498937D01*
X8495168Y-17498937D01*
X8514216Y-17508460D01*
X8523740Y-17517984D01*
X8533263Y-17537032D01*
X8533263Y-17584651D01*
X8523740Y-17603699D01*
X8514216Y-17613222D01*
X8495168Y-17622746D01*
X8447549Y-17622746D01*
X8428501Y-17613222D01*
X8418978Y-17603699D01*
X8628501Y-17622746D02*
X8666597Y-17622746D01*
X8685644Y-17613222D01*
X8695168Y-17603699D01*
X8714216Y-17575127D01*
X8723740Y-17537032D01*
X8723740Y-17460841D01*
X8714216Y-17441794D01*
X8704692Y-17432270D01*
X8685644Y-17422746D01*
X8647549Y-17422746D01*
X8628501Y-17432270D01*
X8618978Y-17441794D01*
X8609454Y-17460841D01*
X8609454Y-17508460D01*
X8618978Y-17527508D01*
X8628501Y-17537032D01*
X8647549Y-17546556D01*
X8685644Y-17546556D01*
X8704692Y-17537032D01*
X8714216Y-17527508D01*
X8723740Y-17508460D01*
X8914216Y-17622746D02*
X8799930Y-17622746D01*
X8857073Y-17622746D02*
X8857073Y-17422746D01*
X8838025Y-17451318D01*
X8818978Y-17470365D01*
X8799930Y-17479889D01*
X8990406Y-17422746D02*
X8990406Y-17460841D01*
X9066597Y-17422746D02*
X9066597Y-17460841D01*
X9361835Y-17698937D02*
X9352311Y-17689413D01*
X9333263Y-17660841D01*
X9323740Y-17641794D01*
X9314216Y-17613222D01*
X9304692Y-17565603D01*
X9304692Y-17527508D01*
X9314216Y-17479889D01*
X9323740Y-17451318D01*
X9333263Y-17432270D01*
X9352311Y-17403699D01*
X9361835Y-17394175D01*
X9428501Y-17441794D02*
X9438025Y-17432270D01*
X9457073Y-17422746D01*
X9504692Y-17422746D01*
X9523740Y-17432270D01*
X9533263Y-17441794D01*
X9542787Y-17460841D01*
X9542787Y-17479889D01*
X9533263Y-17508460D01*
X9418978Y-17622746D01*
X9542787Y-17622746D01*
X9780882Y-17622746D02*
X9780882Y-17422746D01*
X9866597Y-17622746D02*
X9866597Y-17517984D01*
X9857073Y-17498937D01*
X9838025Y-17489413D01*
X9809454Y-17489413D01*
X9790406Y-17498937D01*
X9780882Y-17508460D01*
X9990406Y-17622746D02*
X9971359Y-17613222D01*
X9961835Y-17603699D01*
X9952311Y-17584651D01*
X9952311Y-17527508D01*
X9961835Y-17508460D01*
X9971359Y-17498937D01*
X9990406Y-17489413D01*
X10018978Y-17489413D01*
X10038025Y-17498937D01*
X10047549Y-17508460D01*
X10057073Y-17527508D01*
X10057073Y-17584651D01*
X10047549Y-17603699D01*
X10038025Y-17613222D01*
X10018978Y-17622746D01*
X9990406Y-17622746D01*
X10171359Y-17622746D02*
X10152311Y-17613222D01*
X10142787Y-17594175D01*
X10142787Y-17422746D01*
X10323740Y-17613222D02*
X10304692Y-17622746D01*
X10266597Y-17622746D01*
X10247549Y-17613222D01*
X10238025Y-17594175D01*
X10238025Y-17517984D01*
X10247549Y-17498937D01*
X10266597Y-17489413D01*
X10304692Y-17489413D01*
X10323740Y-17498937D01*
X10333263Y-17517984D01*
X10333263Y-17537032D01*
X10238025Y-17556080D01*
X10409454Y-17613222D02*
X10428501Y-17622746D01*
X10466597Y-17622746D01*
X10485644Y-17613222D01*
X10495168Y-17594175D01*
X10495168Y-17584651D01*
X10485644Y-17565603D01*
X10466597Y-17556080D01*
X10438025Y-17556080D01*
X10418978Y-17546556D01*
X10409454Y-17527508D01*
X10409454Y-17517984D01*
X10418978Y-17498937D01*
X10438025Y-17489413D01*
X10466597Y-17489413D01*
X10485644Y-17498937D01*
X10561835Y-17698937D02*
X10571359Y-17689413D01*
X10590406Y-17660841D01*
X10599930Y-17641794D01*
X10609454Y-17613222D01*
X10618978Y-17565603D01*
X10618978Y-17527508D01*
X10609454Y-17479889D01*
X10599930Y-17451318D01*
X10590406Y-17432270D01*
X10571359Y-17403699D01*
X10561835Y-17394175D01*
X10923740Y-17698937D02*
X10914216Y-17689413D01*
X10895168Y-17660841D01*
X10885644Y-17641794D01*
X10876120Y-17613222D01*
X10866597Y-17565603D01*
X10866597Y-17527508D01*
X10876120Y-17479889D01*
X10885644Y-17451318D01*
X10895168Y-17432270D01*
X10914216Y-17403699D01*
X10923740Y-17394175D01*
X10999930Y-17489413D02*
X10999930Y-17622746D01*
X10999930Y-17508460D02*
X11009454Y-17498937D01*
X11028501Y-17489413D01*
X11057073Y-17489413D01*
X11076120Y-17498937D01*
X11085644Y-17517984D01*
X11085644Y-17622746D01*
X11209454Y-17622746D02*
X11190406Y-17613222D01*
X11180882Y-17603699D01*
X11171359Y-17584651D01*
X11171359Y-17527508D01*
X11180882Y-17508460D01*
X11190406Y-17498937D01*
X11209454Y-17489413D01*
X11238025Y-17489413D01*
X11257073Y-17498937D01*
X11266597Y-17508460D01*
X11276120Y-17527508D01*
X11276120Y-17584651D01*
X11266597Y-17603699D01*
X11257073Y-17613222D01*
X11238025Y-17622746D01*
X11209454Y-17622746D01*
X11333263Y-17489413D02*
X11409454Y-17489413D01*
X11361835Y-17422746D02*
X11361835Y-17594175D01*
X11371358Y-17613222D01*
X11390406Y-17622746D01*
X11409454Y-17622746D01*
X11628501Y-17489413D02*
X11628501Y-17689413D01*
X11628501Y-17498937D02*
X11647549Y-17489413D01*
X11685644Y-17489413D01*
X11704692Y-17498937D01*
X11714216Y-17508460D01*
X11723739Y-17527508D01*
X11723739Y-17584651D01*
X11714216Y-17603699D01*
X11704692Y-17613222D01*
X11685644Y-17622746D01*
X11647549Y-17622746D01*
X11628501Y-17613222D01*
X11838025Y-17622746D02*
X11818978Y-17613222D01*
X11809454Y-17594175D01*
X11809454Y-17422746D01*
X11999930Y-17622746D02*
X11999930Y-17517984D01*
X11990406Y-17498937D01*
X11971358Y-17489413D01*
X11933263Y-17489413D01*
X11914216Y-17498937D01*
X11999930Y-17613222D02*
X11980882Y-17622746D01*
X11933263Y-17622746D01*
X11914216Y-17613222D01*
X11904692Y-17594175D01*
X11904692Y-17575127D01*
X11914216Y-17556080D01*
X11933263Y-17546556D01*
X11980882Y-17546556D01*
X11999930Y-17537032D01*
X12066597Y-17489413D02*
X12142787Y-17489413D01*
X12095168Y-17422746D02*
X12095168Y-17594175D01*
X12104692Y-17613222D01*
X12123739Y-17622746D01*
X12142787Y-17622746D01*
X12285644Y-17613222D02*
X12266597Y-17622746D01*
X12228501Y-17622746D01*
X12209454Y-17613222D01*
X12199930Y-17594175D01*
X12199930Y-17517984D01*
X12209454Y-17498937D01*
X12228501Y-17489413D01*
X12266597Y-17489413D01*
X12285644Y-17498937D01*
X12295168Y-17517984D01*
X12295168Y-17537032D01*
X12199930Y-17556080D01*
X12466597Y-17622746D02*
X12466597Y-17422746D01*
X12466597Y-17613222D02*
X12447549Y-17622746D01*
X12409454Y-17622746D01*
X12390406Y-17613222D01*
X12380882Y-17603699D01*
X12371358Y-17584651D01*
X12371358Y-17527508D01*
X12380882Y-17508460D01*
X12390406Y-17498937D01*
X12409454Y-17489413D01*
X12447549Y-17489413D01*
X12466597Y-17498937D01*
X12542787Y-17698937D02*
X12552311Y-17689413D01*
X12571358Y-17660841D01*
X12580882Y-17641794D01*
X12590406Y-17613222D01*
X12599930Y-17565603D01*
X12599930Y-17527508D01*
X12590406Y-17479889D01*
X12580882Y-17451318D01*
X12571358Y-17432270D01*
X12552311Y-17403699D01*
X12542787Y-17394175D01*
D14*
X5789930Y-17802270D02*
G75*
G03*
X5789930Y-17802270I-90000J0D01*
G01*
D12*
X6152311Y-17892746D02*
X6038025Y-17892746D01*
X6095168Y-17892746D02*
X6095168Y-17692746D01*
X6076120Y-17721318D01*
X6057073Y-17740365D01*
X6038025Y-17749889D01*
X6238025Y-17873699D02*
X6247549Y-17883222D01*
X6238025Y-17892746D01*
X6228501Y-17883222D01*
X6238025Y-17873699D01*
X6238025Y-17892746D01*
X6361835Y-17778460D02*
X6342787Y-17768937D01*
X6333263Y-17759413D01*
X6323739Y-17740365D01*
X6323739Y-17730841D01*
X6333263Y-17711794D01*
X6342787Y-17702270D01*
X6361835Y-17692746D01*
X6399930Y-17692746D01*
X6418978Y-17702270D01*
X6428501Y-17711794D01*
X6438025Y-17730841D01*
X6438025Y-17740365D01*
X6428501Y-17759413D01*
X6418978Y-17768937D01*
X6399930Y-17778460D01*
X6361835Y-17778460D01*
X6342787Y-17787984D01*
X6333263Y-17797508D01*
X6323739Y-17816556D01*
X6323739Y-17854651D01*
X6333263Y-17873699D01*
X6342787Y-17883222D01*
X6361835Y-17892746D01*
X6399930Y-17892746D01*
X6418978Y-17883222D01*
X6428501Y-17873699D01*
X6438025Y-17854651D01*
X6438025Y-17816556D01*
X6428501Y-17797508D01*
X6418978Y-17787984D01*
X6399930Y-17778460D01*
X6561835Y-17692746D02*
X6580882Y-17692746D01*
X6599930Y-17702270D01*
X6609454Y-17711794D01*
X6618978Y-17730841D01*
X6628501Y-17768937D01*
X6628501Y-17816556D01*
X6618978Y-17854651D01*
X6609454Y-17873699D01*
X6599930Y-17883222D01*
X6580882Y-17892746D01*
X6561835Y-17892746D01*
X6542787Y-17883222D01*
X6533263Y-17873699D01*
X6523739Y-17854651D01*
X6514216Y-17816556D01*
X6514216Y-17768937D01*
X6523739Y-17730841D01*
X6533263Y-17711794D01*
X6542787Y-17702270D01*
X6561835Y-17692746D01*
X6752311Y-17692746D02*
X6771358Y-17692746D01*
X6790406Y-17702270D01*
X6799930Y-17711794D01*
X6809454Y-17730841D01*
X6818978Y-17768937D01*
X6818978Y-17816556D01*
X6809454Y-17854651D01*
X6799930Y-17873699D01*
X6790406Y-17883222D01*
X6771358Y-17892746D01*
X6752311Y-17892746D01*
X6733263Y-17883222D01*
X6723739Y-17873699D01*
X6714216Y-17854651D01*
X6704692Y-17816556D01*
X6704692Y-17768937D01*
X6714216Y-17730841D01*
X6723739Y-17711794D01*
X6733263Y-17702270D01*
X6752311Y-17692746D01*
X6904692Y-17892746D02*
X6904692Y-17759413D01*
X6904692Y-17778460D02*
X6914216Y-17768937D01*
X6933263Y-17759413D01*
X6961835Y-17759413D01*
X6980882Y-17768937D01*
X6990406Y-17787984D01*
X6990406Y-17892746D01*
X6990406Y-17787984D02*
X6999930Y-17768937D01*
X7018978Y-17759413D01*
X7047549Y-17759413D01*
X7066597Y-17768937D01*
X7076120Y-17787984D01*
X7076120Y-17892746D01*
X7171358Y-17892746D02*
X7171358Y-17759413D01*
X7171358Y-17778460D02*
X7180882Y-17768937D01*
X7199930Y-17759413D01*
X7228501Y-17759413D01*
X7247549Y-17768937D01*
X7257073Y-17787984D01*
X7257073Y-17892746D01*
X7257073Y-17787984D02*
X7266597Y-17768937D01*
X7285644Y-17759413D01*
X7314216Y-17759413D01*
X7333263Y-17768937D01*
X7342787Y-17787984D01*
X7342787Y-17892746D01*
X7733263Y-17683222D02*
X7561835Y-17940365D01*
X7990406Y-17692746D02*
X8009454Y-17692746D01*
X8028501Y-17702270D01*
X8038025Y-17711794D01*
X8047549Y-17730841D01*
X8057073Y-17768937D01*
X8057073Y-17816556D01*
X8047549Y-17854651D01*
X8038025Y-17873699D01*
X8028501Y-17883222D01*
X8009454Y-17892746D01*
X7990406Y-17892746D01*
X7971358Y-17883222D01*
X7961835Y-17873699D01*
X7952311Y-17854651D01*
X7942787Y-17816556D01*
X7942787Y-17768937D01*
X7952311Y-17730841D01*
X7961835Y-17711794D01*
X7971358Y-17702270D01*
X7990406Y-17692746D01*
X8142787Y-17873699D02*
X8152311Y-17883222D01*
X8142787Y-17892746D01*
X8133263Y-17883222D01*
X8142787Y-17873699D01*
X8142787Y-17892746D01*
X8276120Y-17692746D02*
X8295168Y-17692746D01*
X8314216Y-17702270D01*
X8323739Y-17711794D01*
X8333263Y-17730841D01*
X8342787Y-17768937D01*
X8342787Y-17816556D01*
X8333263Y-17854651D01*
X8323739Y-17873699D01*
X8314216Y-17883222D01*
X8295168Y-17892746D01*
X8276120Y-17892746D01*
X8257073Y-17883222D01*
X8247549Y-17873699D01*
X8238025Y-17854651D01*
X8228501Y-17816556D01*
X8228501Y-17768937D01*
X8238025Y-17730841D01*
X8247549Y-17711794D01*
X8257073Y-17702270D01*
X8276120Y-17692746D01*
X8409454Y-17692746D02*
X8542787Y-17692746D01*
X8457073Y-17892746D01*
X8657073Y-17692746D02*
X8676120Y-17692746D01*
X8695168Y-17702270D01*
X8704692Y-17711794D01*
X8714216Y-17730841D01*
X8723740Y-17768937D01*
X8723740Y-17816556D01*
X8714216Y-17854651D01*
X8704692Y-17873699D01*
X8695168Y-17883222D01*
X8676120Y-17892746D01*
X8657073Y-17892746D01*
X8638025Y-17883222D01*
X8628501Y-17873699D01*
X8618978Y-17854651D01*
X8609454Y-17816556D01*
X8609454Y-17768937D01*
X8618978Y-17730841D01*
X8628501Y-17711794D01*
X8638025Y-17702270D01*
X8657073Y-17692746D01*
X8818978Y-17892746D02*
X8857073Y-17892746D01*
X8876120Y-17883222D01*
X8885644Y-17873699D01*
X8904692Y-17845127D01*
X8914216Y-17807032D01*
X8914216Y-17730841D01*
X8904692Y-17711794D01*
X8895168Y-17702270D01*
X8876120Y-17692746D01*
X8838025Y-17692746D01*
X8818978Y-17702270D01*
X8809454Y-17711794D01*
X8799930Y-17730841D01*
X8799930Y-17778460D01*
X8809454Y-17797508D01*
X8818978Y-17807032D01*
X8838025Y-17816556D01*
X8876120Y-17816556D01*
X8895168Y-17807032D01*
X8904692Y-17797508D01*
X8914216Y-17778460D01*
X8990406Y-17692746D02*
X8990406Y-17730841D01*
X9066597Y-17692746D02*
X9066597Y-17730841D01*
X9361835Y-17968937D02*
X9352311Y-17959413D01*
X9333263Y-17930841D01*
X9323740Y-17911794D01*
X9314216Y-17883222D01*
X9304692Y-17835603D01*
X9304692Y-17797508D01*
X9314216Y-17749889D01*
X9323740Y-17721318D01*
X9333263Y-17702270D01*
X9352311Y-17673699D01*
X9361835Y-17664175D01*
X9428501Y-17711794D02*
X9438025Y-17702270D01*
X9457073Y-17692746D01*
X9504692Y-17692746D01*
X9523740Y-17702270D01*
X9533263Y-17711794D01*
X9542787Y-17730841D01*
X9542787Y-17749889D01*
X9533263Y-17778460D01*
X9418978Y-17892746D01*
X9542787Y-17892746D01*
X9780882Y-17892746D02*
X9780882Y-17692746D01*
X9866597Y-17892746D02*
X9866597Y-17787984D01*
X9857073Y-17768937D01*
X9838025Y-17759413D01*
X9809454Y-17759413D01*
X9790406Y-17768937D01*
X9780882Y-17778460D01*
X9990406Y-17892746D02*
X9971359Y-17883222D01*
X9961835Y-17873699D01*
X9952311Y-17854651D01*
X9952311Y-17797508D01*
X9961835Y-17778460D01*
X9971359Y-17768937D01*
X9990406Y-17759413D01*
X10018978Y-17759413D01*
X10038025Y-17768937D01*
X10047549Y-17778460D01*
X10057073Y-17797508D01*
X10057073Y-17854651D01*
X10047549Y-17873699D01*
X10038025Y-17883222D01*
X10018978Y-17892746D01*
X9990406Y-17892746D01*
X10171359Y-17892746D02*
X10152311Y-17883222D01*
X10142787Y-17864175D01*
X10142787Y-17692746D01*
X10323740Y-17883222D02*
X10304692Y-17892746D01*
X10266597Y-17892746D01*
X10247549Y-17883222D01*
X10238025Y-17864175D01*
X10238025Y-17787984D01*
X10247549Y-17768937D01*
X10266597Y-17759413D01*
X10304692Y-17759413D01*
X10323740Y-17768937D01*
X10333263Y-17787984D01*
X10333263Y-17807032D01*
X10238025Y-17826080D01*
X10409454Y-17883222D02*
X10428501Y-17892746D01*
X10466597Y-17892746D01*
X10485644Y-17883222D01*
X10495168Y-17864175D01*
X10495168Y-17854651D01*
X10485644Y-17835603D01*
X10466597Y-17826080D01*
X10438025Y-17826080D01*
X10418978Y-17816556D01*
X10409454Y-17797508D01*
X10409454Y-17787984D01*
X10418978Y-17768937D01*
X10438025Y-17759413D01*
X10466597Y-17759413D01*
X10485644Y-17768937D01*
X10561835Y-17968937D02*
X10571359Y-17959413D01*
X10590406Y-17930841D01*
X10599930Y-17911794D01*
X10609454Y-17883222D01*
X10618978Y-17835603D01*
X10618978Y-17797508D01*
X10609454Y-17749889D01*
X10599930Y-17721318D01*
X10590406Y-17702270D01*
X10571359Y-17673699D01*
X10561835Y-17664175D01*
X10923740Y-17968937D02*
X10914216Y-17959413D01*
X10895168Y-17930841D01*
X10885644Y-17911794D01*
X10876120Y-17883222D01*
X10866597Y-17835603D01*
X10866597Y-17797508D01*
X10876120Y-17749889D01*
X10885644Y-17721318D01*
X10895168Y-17702270D01*
X10914216Y-17673699D01*
X10923740Y-17664175D01*
X10999930Y-17759413D02*
X10999930Y-17892746D01*
X10999930Y-17778460D02*
X11009454Y-17768937D01*
X11028501Y-17759413D01*
X11057073Y-17759413D01*
X11076120Y-17768937D01*
X11085644Y-17787984D01*
X11085644Y-17892746D01*
X11209454Y-17892746D02*
X11190406Y-17883222D01*
X11180882Y-17873699D01*
X11171359Y-17854651D01*
X11171359Y-17797508D01*
X11180882Y-17778460D01*
X11190406Y-17768937D01*
X11209454Y-17759413D01*
X11238025Y-17759413D01*
X11257073Y-17768937D01*
X11266597Y-17778460D01*
X11276120Y-17797508D01*
X11276120Y-17854651D01*
X11266597Y-17873699D01*
X11257073Y-17883222D01*
X11238025Y-17892746D01*
X11209454Y-17892746D01*
X11333263Y-17759413D02*
X11409454Y-17759413D01*
X11361835Y-17692746D02*
X11361835Y-17864175D01*
X11371358Y-17883222D01*
X11390406Y-17892746D01*
X11409454Y-17892746D01*
X11628501Y-17759413D02*
X11628501Y-17959413D01*
X11628501Y-17768937D02*
X11647549Y-17759413D01*
X11685644Y-17759413D01*
X11704692Y-17768937D01*
X11714216Y-17778460D01*
X11723739Y-17797508D01*
X11723739Y-17854651D01*
X11714216Y-17873699D01*
X11704692Y-17883222D01*
X11685644Y-17892746D01*
X11647549Y-17892746D01*
X11628501Y-17883222D01*
X11838025Y-17892746D02*
X11818978Y-17883222D01*
X11809454Y-17864175D01*
X11809454Y-17692746D01*
X11999930Y-17892746D02*
X11999930Y-17787984D01*
X11990406Y-17768937D01*
X11971358Y-17759413D01*
X11933263Y-17759413D01*
X11914216Y-17768937D01*
X11999930Y-17883222D02*
X11980882Y-17892746D01*
X11933263Y-17892746D01*
X11914216Y-17883222D01*
X11904692Y-17864175D01*
X11904692Y-17845127D01*
X11914216Y-17826080D01*
X11933263Y-17816556D01*
X11980882Y-17816556D01*
X11999930Y-17807032D01*
X12066597Y-17759413D02*
X12142787Y-17759413D01*
X12095168Y-17692746D02*
X12095168Y-17864175D01*
X12104692Y-17883222D01*
X12123739Y-17892746D01*
X12142787Y-17892746D01*
X12285644Y-17883222D02*
X12266597Y-17892746D01*
X12228501Y-17892746D01*
X12209454Y-17883222D01*
X12199930Y-17864175D01*
X12199930Y-17787984D01*
X12209454Y-17768937D01*
X12228501Y-17759413D01*
X12266597Y-17759413D01*
X12285644Y-17768937D01*
X12295168Y-17787984D01*
X12295168Y-17807032D01*
X12199930Y-17826080D01*
X12466597Y-17892746D02*
X12466597Y-17692746D01*
X12466597Y-17883222D02*
X12447549Y-17892746D01*
X12409454Y-17892746D01*
X12390406Y-17883222D01*
X12380882Y-17873699D01*
X12371358Y-17854651D01*
X12371358Y-17797508D01*
X12380882Y-17778460D01*
X12390406Y-17768937D01*
X12409454Y-17759413D01*
X12447549Y-17759413D01*
X12466597Y-17768937D01*
X12542787Y-17968937D02*
X12552311Y-17959413D01*
X12571358Y-17930841D01*
X12580882Y-17911794D01*
X12590406Y-17883222D01*
X12599930Y-17835603D01*
X12599930Y-17797508D01*
X12590406Y-17749889D01*
X12580882Y-17721318D01*
X12571358Y-17702270D01*
X12552311Y-17673699D01*
X12542787Y-17664175D01*
M02*
