M48
; DRILL file {KiCad (6.0.6)} date Tue Nov  8 17:25:58 2022
; FORMAT={-:-/ absolute / metric / decimal}
; #@! TF.CreationDate,2022-11-08T17:25:58-05:00
; #@! TF.GenerationSoftware,Kicad,Pcbnew,(6.0.6)
; #@! TF.FileFunction,Plated,1,2,PTH
FMAT,2
METRIC
; #@! TA.AperFunction,Plated,PTH,ComponentDrill
T1C0.762
; #@! TA.AperFunction,Plated,PTH,ComponentDrill
T2C0.800
; #@! TA.AperFunction,Plated,PTH,ComponentDrill
T3C1.000
; #@! TA.AperFunction,Plated,PTH,ComponentDrill
T4C1.020
; #@! TA.AperFunction,Plated,PTH,ComponentDrill
T5C1.100
; #@! TA.AperFunction,Plated,PTH,ComponentDrill
T6C1.300
%
G90
G05
T1
X64.662Y-102.215
X64.662Y-104.755
X64.662Y-107.295
X64.662Y-109.835
X64.662Y-112.375
X64.662Y-114.915
X64.662Y-117.456
X72.282Y-102.215
X72.282Y-104.755
X72.282Y-107.295
X72.282Y-109.835
X72.282Y-112.375
X72.282Y-114.915
X72.282Y-117.456
T2
X108.605Y-148.697
X108.684Y-110.597
X111.144Y-148.697
X113.684Y-110.597
X113.684Y-148.697
T3
X67.965Y-124.578
X67.965Y-127.117
X67.965Y-129.657
X67.965Y-132.197
T4
X81.426Y-100.438
X81.426Y-102.977
X81.426Y-105.517
X81.426Y-108.057
X81.426Y-110.597
X81.426Y-113.137
X81.426Y-115.677
X81.426Y-118.218
X81.426Y-120.757
X81.426Y-123.297
X81.426Y-125.837
X81.426Y-128.377
X81.426Y-130.917
X81.426Y-133.457
X81.426Y-135.998
X81.426Y-138.537
X81.426Y-141.077
X81.426Y-143.618
X81.426Y-146.157
X81.426Y-148.697
X87.776Y-148.468
X90.316Y-148.468
X92.856Y-148.468
X99.206Y-100.438
X99.206Y-102.977
X99.206Y-105.517
X99.206Y-108.057
X99.206Y-110.597
X99.206Y-113.137
X99.206Y-115.677
X99.206Y-118.218
X99.206Y-120.757
X99.206Y-123.297
X99.206Y-125.837
X99.206Y-128.377
X99.206Y-130.917
X99.206Y-133.457
X99.206Y-135.998
X99.206Y-138.537
X99.206Y-141.077
X99.206Y-143.618
X99.206Y-146.157
X99.206Y-148.697
T5
X67.254Y-143.907
X67.254Y-148.407
X73.754Y-143.907
X73.754Y-148.407
T6
X108.684Y-102.977
X110.636Y-116.947
X113.684Y-102.977
X114.447Y-116.947
T0
M30
