G04 #@! TF.GenerationSoftware,KiCad,Pcbnew,(6.0.6)*
G04 #@! TF.CreationDate,2022-11-09T14:25:10-05:00*
G04 #@! TF.ProjectId,pov_display,706f765f-6469-4737-906c-61792e6b6963,v01*
G04 #@! TF.SameCoordinates,Original*
G04 #@! TF.FileFunction,Copper,L2,Bot*
G04 #@! TF.FilePolarity,Positive*
%FSLAX46Y46*%
G04 Gerber Fmt 4.6, Leading zero omitted, Abs format (unit mm)*
G04 Created by KiCad (PCBNEW (6.0.6)) date 2022-11-09 14:25:10*
%MOMM*%
%LPD*%
G01*
G04 APERTURE LIST*
G04 #@! TA.AperFunction,ComponentPad*
%ADD10C,1.600000*%
G04 #@! TD*
G04 #@! TA.AperFunction,ComponentPad*
%ADD11O,1.600000X1.600000*%
G04 #@! TD*
G04 #@! TA.AperFunction,ComponentPad*
%ADD12C,1.524000*%
G04 #@! TD*
G04 #@! TA.AperFunction,ComponentPad*
%ADD13R,2.600000X2.600000*%
G04 #@! TD*
G04 #@! TA.AperFunction,ComponentPad*
%ADD14C,2.600000*%
G04 #@! TD*
G04 #@! TA.AperFunction,ComponentPad*
%ADD15R,1.500000X1.500000*%
G04 #@! TD*
G04 #@! TA.AperFunction,ComponentPad*
%ADD16C,1.500000*%
G04 #@! TD*
G04 #@! TA.AperFunction,ComponentPad*
%ADD17O,1.700000X1.700000*%
G04 #@! TD*
G04 #@! TA.AperFunction,ComponentPad*
%ADD18R,1.700000X1.700000*%
G04 #@! TD*
G04 #@! TA.AperFunction,ComponentPad*
%ADD19O,2.600000X2.600000*%
G04 #@! TD*
G04 #@! TA.AperFunction,ComponentPad*
%ADD20C,2.000000*%
G04 #@! TD*
G04 #@! TA.AperFunction,Conductor*
%ADD21C,1.016000*%
G04 #@! TD*
G04 APERTURE END LIST*
D10*
X103231500Y-150514500D03*
D11*
X103231500Y-160674500D03*
D12*
X68072000Y-128270000D03*
X68072000Y-125730000D03*
X68072000Y-123190000D03*
X68072000Y-120650000D03*
X68072000Y-118110000D03*
X68072000Y-115570000D03*
X68072000Y-113030000D03*
X60452000Y-113030000D03*
X60452000Y-115570000D03*
X60452000Y-118110000D03*
X60452000Y-120650000D03*
X60452000Y-123190000D03*
X60452000Y-125730000D03*
X60452000Y-128270000D03*
D10*
X109474000Y-121412000D03*
X104474000Y-121412000D03*
D13*
X109474000Y-113792000D03*
D14*
X104474000Y-113792000D03*
D15*
X109221500Y-157880500D03*
D16*
X109221500Y-160420500D03*
X109221500Y-162960500D03*
D17*
X77216000Y-111252000D03*
X77216000Y-113792000D03*
D18*
X77216000Y-116332000D03*
D17*
X77216000Y-118872000D03*
X77216000Y-121412000D03*
X77216000Y-123952000D03*
X77216000Y-126492000D03*
D18*
X77216000Y-129032000D03*
D17*
X77216000Y-131572000D03*
X77216000Y-134112000D03*
X77216000Y-136652000D03*
X77216000Y-139192000D03*
D18*
X77216000Y-141732000D03*
D17*
X77216000Y-144272000D03*
X77216000Y-146812000D03*
X77216000Y-149352000D03*
X77216000Y-151892000D03*
D18*
X77216000Y-154432000D03*
D17*
X77216000Y-156972000D03*
X77216000Y-159512000D03*
X94996000Y-159512000D03*
X94996000Y-156972000D03*
D18*
X94996000Y-154432000D03*
D17*
X94996000Y-151892000D03*
X94996000Y-149352000D03*
X94996000Y-146812000D03*
X94996000Y-144272000D03*
D18*
X94996000Y-141732000D03*
D17*
X94996000Y-139192000D03*
X94996000Y-136652000D03*
X94996000Y-134112000D03*
X94996000Y-131572000D03*
D18*
X94996000Y-129032000D03*
D17*
X94996000Y-126492000D03*
X94996000Y-123952000D03*
X94996000Y-121412000D03*
X94996000Y-118872000D03*
D18*
X94996000Y-116332000D03*
D17*
X94996000Y-113792000D03*
X94996000Y-111252000D03*
X83566000Y-159282000D03*
D18*
X86106000Y-159282000D03*
D17*
X88646000Y-159282000D03*
D18*
X63754000Y-135392000D03*
D17*
X63754000Y-137932000D03*
X63754000Y-140472000D03*
X63754000Y-143012000D03*
D13*
X106426000Y-127762000D03*
D19*
X110236000Y-127762000D03*
D20*
X69544000Y-154722000D03*
X63044000Y-154722000D03*
X69544000Y-159222000D03*
X63044000Y-159222000D03*
D21*
X111760000Y-167278500D02*
X106787500Y-167278500D01*
X59182000Y-163830000D02*
X59182000Y-147584000D01*
X113289900Y-165748600D02*
X111760000Y-167278500D01*
X106787500Y-167278500D02*
X103339000Y-163830000D01*
X59182000Y-147584000D02*
X63754000Y-143012000D01*
X113289900Y-137655930D02*
X113289900Y-165748600D01*
X112522000Y-130048000D02*
X112522000Y-136888030D01*
X110236000Y-127762000D02*
X112522000Y-130048000D01*
X112522000Y-136888030D02*
X113289900Y-137655930D01*
X103339000Y-163830000D02*
X59182000Y-163830000D01*
G04 #@! TA.AperFunction,Conductor*
G36*
X114749621Y-107462502D02*
G01*
X114796114Y-107516158D01*
X114807500Y-107568500D01*
X114807500Y-168275500D01*
X114787498Y-168343621D01*
X114733842Y-168390114D01*
X114681500Y-168401500D01*
X112319305Y-168401500D01*
X112251184Y-168381498D01*
X112204691Y-168327842D01*
X112194587Y-168257568D01*
X112224081Y-168192988D01*
X112261320Y-168163635D01*
X112265874Y-168161274D01*
X112316304Y-168135134D01*
X112320503Y-168131782D01*
X112325244Y-168129261D01*
X112339880Y-168117324D01*
X112397829Y-168070062D01*
X112398855Y-168069234D01*
X112435564Y-168039929D01*
X112435565Y-168039928D01*
X112438316Y-168037732D01*
X112440811Y-168035237D01*
X112441605Y-168034527D01*
X112445960Y-168030807D01*
X112474951Y-168007163D01*
X112474954Y-168007160D01*
X112479726Y-168003268D01*
X112509211Y-167967627D01*
X112517200Y-167958848D01*
X113964633Y-166511415D01*
X113974776Y-166502313D01*
X113999749Y-166482234D01*
X114004549Y-166478375D01*
X114037087Y-166439598D01*
X114040251Y-166435971D01*
X114041946Y-166434102D01*
X114044140Y-166431908D01*
X114071712Y-166398342D01*
X114072418Y-166397492D01*
X114128724Y-166330389D01*
X114128725Y-166330388D01*
X114132686Y-166325667D01*
X114135273Y-166320961D01*
X114138682Y-166316811D01*
X114169616Y-166259121D01*
X114182975Y-166234206D01*
X114183604Y-166233048D01*
X114225749Y-166156386D01*
X114225751Y-166156382D01*
X114228721Y-166150979D01*
X114230344Y-166145861D01*
X114232883Y-166141127D01*
X114260279Y-166051520D01*
X114260665Y-166050280D01*
X114287136Y-165966834D01*
X114288998Y-165960965D01*
X114289597Y-165955627D01*
X114291167Y-165950491D01*
X114300639Y-165857232D01*
X114300761Y-165856092D01*
X114306400Y-165805816D01*
X114306400Y-165802310D01*
X114306463Y-165801184D01*
X114306911Y-165795490D01*
X114310689Y-165758295D01*
X114310689Y-165758289D01*
X114311311Y-165752165D01*
X114306959Y-165706123D01*
X114306400Y-165694266D01*
X114306400Y-137718206D01*
X114307137Y-137704598D01*
X114310597Y-137672751D01*
X114310597Y-137672747D01*
X114311262Y-137666626D01*
X114307702Y-137625938D01*
X114306854Y-137616240D01*
X114306525Y-137611412D01*
X114306400Y-137608858D01*
X114306400Y-137605773D01*
X114302176Y-137562689D01*
X114302057Y-137561411D01*
X114294425Y-137474175D01*
X114294425Y-137474173D01*
X114293888Y-137468039D01*
X114292389Y-137462879D01*
X114291865Y-137457536D01*
X114264761Y-137367764D01*
X114264419Y-137366608D01*
X114239992Y-137282527D01*
X114239990Y-137282521D01*
X114238272Y-137276609D01*
X114235801Y-137271842D01*
X114234248Y-137266698D01*
X114190228Y-137183908D01*
X114189662Y-137182830D01*
X114186153Y-137176061D01*
X114146534Y-137099626D01*
X114143182Y-137095427D01*
X114140661Y-137090686D01*
X114124117Y-137070401D01*
X114081462Y-137018101D01*
X114080634Y-137017075D01*
X114051329Y-136980366D01*
X114051328Y-136980365D01*
X114049132Y-136977614D01*
X114046637Y-136975119D01*
X114045927Y-136974325D01*
X114042207Y-136969970D01*
X114018563Y-136940979D01*
X114018560Y-136940976D01*
X114014668Y-136936204D01*
X113979027Y-136906719D01*
X113970248Y-136898730D01*
X113575405Y-136503887D01*
X113541379Y-136441575D01*
X113538500Y-136414792D01*
X113538500Y-130110276D01*
X113539237Y-130096668D01*
X113542697Y-130064821D01*
X113542697Y-130064817D01*
X113543362Y-130058696D01*
X113538954Y-130008310D01*
X113538625Y-130003482D01*
X113538500Y-130000927D01*
X113538500Y-129997843D01*
X113536992Y-129982469D01*
X113534278Y-129954781D01*
X113534156Y-129953468D01*
X113526524Y-129866240D01*
X113525988Y-129860108D01*
X113524489Y-129854948D01*
X113523965Y-129849606D01*
X113496896Y-129759948D01*
X113496521Y-129758684D01*
X113472090Y-129674593D01*
X113472088Y-129674589D01*
X113470371Y-129668678D01*
X113467902Y-129663914D01*
X113466348Y-129658768D01*
X113422319Y-129575961D01*
X113421753Y-129574883D01*
X113414542Y-129560971D01*
X113378634Y-129491696D01*
X113375282Y-129487497D01*
X113372761Y-129482756D01*
X113359190Y-129466117D01*
X113313562Y-129410171D01*
X113312734Y-129409145D01*
X113283429Y-129372436D01*
X113283428Y-129372435D01*
X113281232Y-129369684D01*
X113278737Y-129367189D01*
X113278027Y-129366395D01*
X113274307Y-129362040D01*
X113250663Y-129333049D01*
X113250660Y-129333046D01*
X113246768Y-129328274D01*
X113211127Y-129298789D01*
X113202348Y-129290800D01*
X112059337Y-128147789D01*
X112025311Y-128085477D01*
X112023439Y-128042793D01*
X112031044Y-127983019D01*
X112047086Y-127856915D01*
X112049571Y-127762000D01*
X112036423Y-127585074D01*
X112029996Y-127498592D01*
X112029996Y-127498591D01*
X112029650Y-127493937D01*
X112028619Y-127489379D01*
X111971361Y-127236331D01*
X111971360Y-127236326D01*
X111970327Y-127231763D01*
X111872902Y-126981238D01*
X111739518Y-126747864D01*
X111707286Y-126706977D01*
X111673416Y-126664014D01*
X111573105Y-126536769D01*
X111377317Y-126352591D01*
X111217479Y-126241707D01*
X111160299Y-126202039D01*
X111160296Y-126202037D01*
X111156457Y-126199374D01*
X111152264Y-126197306D01*
X110919564Y-126082551D01*
X110919561Y-126082550D01*
X110915376Y-126080486D01*
X110867745Y-126065239D01*
X110689657Y-126008233D01*
X110659370Y-125998538D01*
X110654763Y-125997788D01*
X110654760Y-125997787D01*
X110441337Y-125963029D01*
X110394063Y-125955330D01*
X110263719Y-125953624D01*
X110129961Y-125951873D01*
X110129958Y-125951873D01*
X110125284Y-125951812D01*
X109858937Y-125988060D01*
X109600874Y-126063278D01*
X109356763Y-126175815D01*
X109352854Y-126178378D01*
X109135881Y-126320631D01*
X109135876Y-126320635D01*
X109131968Y-126323197D01*
X109128476Y-126326314D01*
X108939071Y-126495365D01*
X108931426Y-126502188D01*
X108807340Y-126651385D01*
X108777914Y-126686767D01*
X108759544Y-126708854D01*
X108620096Y-126938656D01*
X108618287Y-126942970D01*
X108618285Y-126942974D01*
X108566045Y-127067554D01*
X108516148Y-127186545D01*
X108506707Y-127223718D01*
X108482623Y-127318550D01*
X108446468Y-127379651D01*
X108383019Y-127411505D01*
X108312420Y-127404000D01*
X108257086Y-127359518D01*
X108234500Y-127287534D01*
X108234500Y-126413866D01*
X108227745Y-126351684D01*
X108176615Y-126215295D01*
X108089261Y-126098739D01*
X107972705Y-126011385D01*
X107836316Y-125960255D01*
X107774134Y-125953500D01*
X105077866Y-125953500D01*
X105015684Y-125960255D01*
X104879295Y-126011385D01*
X104762739Y-126098739D01*
X104675385Y-126215295D01*
X104624255Y-126351684D01*
X104617500Y-126413866D01*
X104617500Y-129110134D01*
X104624255Y-129172316D01*
X104675385Y-129308705D01*
X104762739Y-129425261D01*
X104879295Y-129512615D01*
X105015684Y-129563745D01*
X105077866Y-129570500D01*
X107774134Y-129570500D01*
X107836316Y-129563745D01*
X107972705Y-129512615D01*
X108089261Y-129425261D01*
X108176615Y-129308705D01*
X108227745Y-129172316D01*
X108234500Y-129110134D01*
X108234500Y-128249575D01*
X108254502Y-128181454D01*
X108308158Y-128134961D01*
X108378432Y-128124857D01*
X108443012Y-128154351D01*
X108481396Y-128214077D01*
X108484079Y-128224994D01*
X108488388Y-128246656D01*
X108579220Y-128499646D01*
X108706450Y-128736431D01*
X108709241Y-128740168D01*
X108709245Y-128740175D01*
X108821720Y-128890796D01*
X108867281Y-128951810D01*
X108870590Y-128955090D01*
X108870595Y-128955096D01*
X109054863Y-129137762D01*
X109058180Y-129141050D01*
X109061942Y-129143808D01*
X109061945Y-129143811D01*
X109202646Y-129246977D01*
X109274954Y-129299995D01*
X109279089Y-129302171D01*
X109279093Y-129302173D01*
X109508698Y-129422975D01*
X109512840Y-129425154D01*
X109628789Y-129465645D01*
X109693177Y-129488130D01*
X109766613Y-129513775D01*
X109771206Y-129514647D01*
X110026109Y-129563042D01*
X110026112Y-129563042D01*
X110030698Y-129563913D01*
X110158370Y-129568929D01*
X110294625Y-129574283D01*
X110294630Y-129574283D01*
X110299293Y-129574466D01*
X110520083Y-129550286D01*
X110589975Y-129562753D01*
X110622894Y-129586442D01*
X111468595Y-130432143D01*
X111502621Y-130494455D01*
X111505500Y-130521238D01*
X111505500Y-136825754D01*
X111504763Y-136839362D01*
X111503959Y-136846767D01*
X111500638Y-136877334D01*
X111501175Y-136883469D01*
X111505046Y-136927720D01*
X111505375Y-136932548D01*
X111505500Y-136935103D01*
X111505500Y-136938187D01*
X111507008Y-136953561D01*
X111509722Y-136981249D01*
X111509844Y-136982562D01*
X111513352Y-137022659D01*
X111518012Y-137075922D01*
X111519511Y-137081082D01*
X111520035Y-137086424D01*
X111538885Y-137148857D01*
X111547098Y-137176061D01*
X111547455Y-137177266D01*
X111573628Y-137267352D01*
X111576100Y-137272120D01*
X111577652Y-137277262D01*
X111580547Y-137282707D01*
X111580550Y-137282714D01*
X111621633Y-137359980D01*
X111622213Y-137361084D01*
X111665366Y-137444334D01*
X111668718Y-137448533D01*
X111671239Y-137453274D01*
X111675131Y-137458046D01*
X111730438Y-137525859D01*
X111731266Y-137526885D01*
X111760571Y-137563594D01*
X111762768Y-137566346D01*
X111765263Y-137568841D01*
X111765973Y-137569635D01*
X111769693Y-137573990D01*
X111793337Y-137602981D01*
X111793340Y-137602984D01*
X111797232Y-137607756D01*
X111801980Y-137611684D01*
X111801981Y-137611685D01*
X111832873Y-137637241D01*
X111841652Y-137645230D01*
X112236495Y-138040073D01*
X112270521Y-138102385D01*
X112273400Y-138129168D01*
X112273400Y-165275362D01*
X112253398Y-165343483D01*
X112236495Y-165364457D01*
X111375857Y-166225095D01*
X111313545Y-166259121D01*
X111286762Y-166262000D01*
X107260739Y-166262000D01*
X107192618Y-166241998D01*
X107171644Y-166225095D01*
X104101815Y-163155267D01*
X104092713Y-163145124D01*
X104072634Y-163120151D01*
X104068775Y-163115351D01*
X104029998Y-163082813D01*
X104026371Y-163079649D01*
X104024502Y-163077954D01*
X104022308Y-163075760D01*
X103988742Y-163048188D01*
X103987945Y-163047526D01*
X103916067Y-162987214D01*
X103911361Y-162984627D01*
X103907211Y-162981218D01*
X103901787Y-162978310D01*
X103901777Y-162978303D01*
X103868574Y-162960500D01*
X107958193Y-162960500D01*
X107977385Y-163179871D01*
X108034380Y-163392576D01*
X108036705Y-163397561D01*
X108125118Y-163587166D01*
X108125121Y-163587171D01*
X108127444Y-163592153D01*
X108253751Y-163772538D01*
X108409462Y-163928249D01*
X108589846Y-164054556D01*
X108789424Y-164147620D01*
X109002129Y-164204615D01*
X109221500Y-164223807D01*
X109440871Y-164204615D01*
X109653576Y-164147620D01*
X109853154Y-164054556D01*
X110033538Y-163928249D01*
X110189249Y-163772538D01*
X110315556Y-163592153D01*
X110317879Y-163587171D01*
X110317882Y-163587166D01*
X110406295Y-163397561D01*
X110408620Y-163392576D01*
X110465615Y-163179871D01*
X110484807Y-162960500D01*
X110465615Y-162741129D01*
X110408620Y-162528424D01*
X110365085Y-162435062D01*
X110317882Y-162333834D01*
X110317879Y-162333829D01*
X110315556Y-162328847D01*
X110189249Y-162148462D01*
X110033538Y-161992751D01*
X110026751Y-161987998D01*
X109954259Y-161937239D01*
X109853154Y-161866444D01*
X109848172Y-161864121D01*
X109848167Y-161864118D01*
X109720141Y-161804419D01*
X109666856Y-161757502D01*
X109647395Y-161689224D01*
X109667937Y-161621264D01*
X109720141Y-161576029D01*
X109847916Y-161516447D01*
X109857412Y-161510964D01*
X109898648Y-161482090D01*
X109907023Y-161471612D01*
X109899957Y-161458168D01*
X109234311Y-160792521D01*
X109220368Y-160784908D01*
X109218534Y-160785039D01*
X109211920Y-160789290D01*
X108542320Y-161458891D01*
X108535893Y-161470661D01*
X108545187Y-161482675D01*
X108585588Y-161510964D01*
X108595084Y-161516447D01*
X108722859Y-161576029D01*
X108776144Y-161622946D01*
X108795605Y-161691224D01*
X108775063Y-161759184D01*
X108722859Y-161804419D01*
X108594834Y-161864118D01*
X108594829Y-161864121D01*
X108589847Y-161866444D01*
X108585340Y-161869600D01*
X108585338Y-161869601D01*
X108413973Y-161989592D01*
X108413970Y-161989594D01*
X108409462Y-161992751D01*
X108253751Y-162148462D01*
X108127444Y-162328847D01*
X108125121Y-162333829D01*
X108125118Y-162333834D01*
X108077915Y-162435062D01*
X108034380Y-162528424D01*
X107977385Y-162741129D01*
X107958193Y-162960500D01*
X103868574Y-162960500D01*
X103824632Y-162936939D01*
X103823472Y-162936310D01*
X103805972Y-162926689D01*
X103741379Y-162891179D01*
X103736259Y-162889555D01*
X103731526Y-162887017D01*
X103642007Y-162859648D01*
X103640748Y-162859256D01*
X103557239Y-162832765D01*
X103557235Y-162832764D01*
X103551365Y-162830902D01*
X103546027Y-162830303D01*
X103540891Y-162828733D01*
X103534760Y-162828110D01*
X103534759Y-162828110D01*
X103515456Y-162826149D01*
X103447569Y-162819254D01*
X103446449Y-162819134D01*
X103396216Y-162813500D01*
X103392711Y-162813500D01*
X103391603Y-162813438D01*
X103385908Y-162812990D01*
X103348695Y-162809210D01*
X103348688Y-162809210D01*
X103342565Y-162808588D01*
X103296515Y-162812941D01*
X103284657Y-162813500D01*
X60324500Y-162813500D01*
X60256379Y-162793498D01*
X60209886Y-162739842D01*
X60198500Y-162687500D01*
X60198500Y-160454670D01*
X62176160Y-160454670D01*
X62181887Y-160462320D01*
X62353042Y-160567205D01*
X62361837Y-160571687D01*
X62571988Y-160658734D01*
X62581373Y-160661783D01*
X62802554Y-160714885D01*
X62812301Y-160716428D01*
X63039070Y-160734275D01*
X63048930Y-160734275D01*
X63275699Y-160716428D01*
X63285446Y-160714885D01*
X63506627Y-160661783D01*
X63516012Y-160658734D01*
X63726163Y-160571687D01*
X63734958Y-160567205D01*
X63902445Y-160464568D01*
X63911400Y-160454670D01*
X68676160Y-160454670D01*
X68681887Y-160462320D01*
X68853042Y-160567205D01*
X68861837Y-160571687D01*
X69071988Y-160658734D01*
X69081373Y-160661783D01*
X69302554Y-160714885D01*
X69312301Y-160716428D01*
X69539070Y-160734275D01*
X69548930Y-160734275D01*
X69775699Y-160716428D01*
X69785446Y-160714885D01*
X70006627Y-160661783D01*
X70016012Y-160658734D01*
X70226163Y-160571687D01*
X70234958Y-160567205D01*
X70402445Y-160464568D01*
X70411907Y-160454110D01*
X70408124Y-160445334D01*
X69556812Y-159594022D01*
X69542868Y-159586408D01*
X69541035Y-159586539D01*
X69534420Y-159590790D01*
X68682920Y-160442290D01*
X68676160Y-160454670D01*
X63911400Y-160454670D01*
X63911907Y-160454110D01*
X63908124Y-160445334D01*
X63056812Y-159594022D01*
X63042868Y-159586408D01*
X63041035Y-159586539D01*
X63034420Y-159590790D01*
X62182920Y-160442290D01*
X62176160Y-160454670D01*
X60198500Y-160454670D01*
X60198500Y-159226930D01*
X61531725Y-159226930D01*
X61549572Y-159453699D01*
X61551115Y-159463446D01*
X61604217Y-159684627D01*
X61607266Y-159694012D01*
X61694313Y-159904163D01*
X61698795Y-159912958D01*
X61801432Y-160080445D01*
X61811890Y-160089907D01*
X61820666Y-160086124D01*
X62671978Y-159234812D01*
X62678356Y-159223132D01*
X63408408Y-159223132D01*
X63408539Y-159224965D01*
X63412790Y-159231580D01*
X64264290Y-160083080D01*
X64276670Y-160089840D01*
X64284320Y-160084113D01*
X64389205Y-159912958D01*
X64393687Y-159904163D01*
X64480734Y-159694012D01*
X64483783Y-159684627D01*
X64536885Y-159463446D01*
X64538428Y-159453699D01*
X64556275Y-159226930D01*
X68031725Y-159226930D01*
X68049572Y-159453699D01*
X68051115Y-159463446D01*
X68104217Y-159684627D01*
X68107266Y-159694012D01*
X68194313Y-159904163D01*
X68198795Y-159912958D01*
X68301432Y-160080445D01*
X68311890Y-160089907D01*
X68320666Y-160086124D01*
X69171978Y-159234812D01*
X69178356Y-159223132D01*
X69908408Y-159223132D01*
X69908539Y-159224965D01*
X69912790Y-159231580D01*
X70764290Y-160083080D01*
X70776670Y-160089840D01*
X70784320Y-160084113D01*
X70889205Y-159912958D01*
X70893687Y-159904163D01*
X70980734Y-159694012D01*
X70983783Y-159684627D01*
X71033224Y-159478695D01*
X75853251Y-159478695D01*
X75853548Y-159483848D01*
X75853548Y-159483851D01*
X75864001Y-159665143D01*
X75866110Y-159701715D01*
X75867247Y-159706761D01*
X75867248Y-159706767D01*
X75886926Y-159794083D01*
X75915222Y-159919639D01*
X75999266Y-160126616D01*
X76023087Y-160165489D01*
X76081213Y-160260341D01*
X76115987Y-160317088D01*
X76262250Y-160485938D01*
X76434126Y-160628632D01*
X76627000Y-160741338D01*
X76835692Y-160821030D01*
X76840760Y-160822061D01*
X76840763Y-160822062D01*
X76948017Y-160843883D01*
X77054597Y-160865567D01*
X77059772Y-160865757D01*
X77059774Y-160865757D01*
X77272673Y-160873564D01*
X77272677Y-160873564D01*
X77277837Y-160873753D01*
X77282957Y-160873097D01*
X77282959Y-160873097D01*
X77494288Y-160846025D01*
X77494289Y-160846025D01*
X77499416Y-160845368D01*
X77504366Y-160843883D01*
X77708429Y-160782661D01*
X77708434Y-160782659D01*
X77713384Y-160781174D01*
X77913994Y-160682896D01*
X78095860Y-160553173D01*
X78137842Y-160511338D01*
X78196488Y-160452896D01*
X78254096Y-160395489D01*
X78266157Y-160378705D01*
X78381435Y-160218277D01*
X78384453Y-160214077D01*
X78401336Y-160179918D01*
X78481136Y-160018453D01*
X78481137Y-160018451D01*
X78483430Y-160013811D01*
X78537845Y-159834711D01*
X78546865Y-159805023D01*
X78546865Y-159805021D01*
X78548370Y-159800069D01*
X78577529Y-159578590D01*
X78579156Y-159512000D01*
X78560852Y-159289361D01*
X78550637Y-159248695D01*
X82203251Y-159248695D01*
X82203548Y-159253848D01*
X82203548Y-159253851D01*
X82209011Y-159348590D01*
X82216110Y-159471715D01*
X82217247Y-159476761D01*
X82217248Y-159476767D01*
X82231529Y-159540134D01*
X82265222Y-159689639D01*
X82349266Y-159896616D01*
X82366307Y-159924425D01*
X82446993Y-160056092D01*
X82465987Y-160087088D01*
X82612250Y-160255938D01*
X82784126Y-160398632D01*
X82977000Y-160511338D01*
X83185692Y-160591030D01*
X83190760Y-160592061D01*
X83190763Y-160592062D01*
X83298017Y-160613883D01*
X83404597Y-160635567D01*
X83409772Y-160635757D01*
X83409774Y-160635757D01*
X83622673Y-160643564D01*
X83622677Y-160643564D01*
X83627837Y-160643753D01*
X83632957Y-160643097D01*
X83632959Y-160643097D01*
X83844288Y-160616025D01*
X83844289Y-160616025D01*
X83849416Y-160615368D01*
X83854366Y-160613883D01*
X84058429Y-160552661D01*
X84058434Y-160552659D01*
X84063384Y-160551174D01*
X84263994Y-160452896D01*
X84445860Y-160323173D01*
X84554091Y-160215319D01*
X84616462Y-160181404D01*
X84687268Y-160186592D01*
X84744030Y-160229238D01*
X84761012Y-160260341D01*
X84784567Y-160323173D01*
X84805385Y-160378705D01*
X84892739Y-160495261D01*
X85009295Y-160582615D01*
X85145684Y-160633745D01*
X85207866Y-160640500D01*
X87004134Y-160640500D01*
X87066316Y-160633745D01*
X87202705Y-160582615D01*
X87319261Y-160495261D01*
X87406615Y-160378705D01*
X87427433Y-160323173D01*
X87450598Y-160261382D01*
X87493240Y-160204618D01*
X87559802Y-160179918D01*
X87629150Y-160195126D01*
X87663817Y-160223114D01*
X87692250Y-160255938D01*
X87864126Y-160398632D01*
X88057000Y-160511338D01*
X88265692Y-160591030D01*
X88270760Y-160592061D01*
X88270763Y-160592062D01*
X88378017Y-160613883D01*
X88484597Y-160635567D01*
X88489772Y-160635757D01*
X88489774Y-160635757D01*
X88702673Y-160643564D01*
X88702677Y-160643564D01*
X88707837Y-160643753D01*
X88712957Y-160643097D01*
X88712959Y-160643097D01*
X88924288Y-160616025D01*
X88924289Y-160616025D01*
X88929416Y-160615368D01*
X88934366Y-160613883D01*
X89138429Y-160552661D01*
X89138434Y-160552659D01*
X89143384Y-160551174D01*
X89343994Y-160452896D01*
X89525860Y-160323173D01*
X89531967Y-160317088D01*
X89631123Y-160218277D01*
X89684096Y-160165489D01*
X89743594Y-160082689D01*
X89811435Y-159988277D01*
X89814453Y-159984077D01*
X89848793Y-159914596D01*
X89911136Y-159788453D01*
X89911137Y-159788451D01*
X89913430Y-159783811D01*
X89949484Y-159665143D01*
X89976865Y-159575023D01*
X89976865Y-159575021D01*
X89978370Y-159570069D01*
X89990400Y-159478695D01*
X93633251Y-159478695D01*
X93633548Y-159483848D01*
X93633548Y-159483851D01*
X93644001Y-159665143D01*
X93646110Y-159701715D01*
X93647247Y-159706761D01*
X93647248Y-159706767D01*
X93666926Y-159794083D01*
X93695222Y-159919639D01*
X93779266Y-160126616D01*
X93803087Y-160165489D01*
X93861213Y-160260341D01*
X93895987Y-160317088D01*
X94042250Y-160485938D01*
X94214126Y-160628632D01*
X94407000Y-160741338D01*
X94615692Y-160821030D01*
X94620760Y-160822061D01*
X94620763Y-160822062D01*
X94728017Y-160843883D01*
X94834597Y-160865567D01*
X94839772Y-160865757D01*
X94839774Y-160865757D01*
X95052673Y-160873564D01*
X95052677Y-160873564D01*
X95057837Y-160873753D01*
X95062957Y-160873097D01*
X95062959Y-160873097D01*
X95274288Y-160846025D01*
X95274289Y-160846025D01*
X95279416Y-160845368D01*
X95284366Y-160843883D01*
X95488429Y-160782661D01*
X95488434Y-160782659D01*
X95493384Y-160781174D01*
X95693994Y-160682896D01*
X95705765Y-160674500D01*
X101918002Y-160674500D01*
X101937957Y-160902587D01*
X101939381Y-160907900D01*
X101939381Y-160907902D01*
X101990000Y-161096811D01*
X101997216Y-161123743D01*
X101999539Y-161128724D01*
X101999539Y-161128725D01*
X102091651Y-161326262D01*
X102091654Y-161326267D01*
X102093977Y-161331249D01*
X102097134Y-161335757D01*
X102192261Y-161471612D01*
X102225302Y-161518800D01*
X102387200Y-161680698D01*
X102391708Y-161683855D01*
X102391711Y-161683857D01*
X102410757Y-161697193D01*
X102574751Y-161812023D01*
X102579733Y-161814346D01*
X102579738Y-161814349D01*
X102698228Y-161869601D01*
X102782257Y-161908784D01*
X102787565Y-161910206D01*
X102787567Y-161910207D01*
X102998098Y-161966619D01*
X102998100Y-161966619D01*
X103003413Y-161968043D01*
X103231500Y-161987998D01*
X103459587Y-161968043D01*
X103464900Y-161966619D01*
X103464902Y-161966619D01*
X103675433Y-161910207D01*
X103675435Y-161910206D01*
X103680743Y-161908784D01*
X103764772Y-161869601D01*
X103883262Y-161814349D01*
X103883267Y-161814346D01*
X103888249Y-161812023D01*
X104052243Y-161697193D01*
X104071289Y-161683857D01*
X104071292Y-161683855D01*
X104075800Y-161680698D01*
X104237698Y-161518800D01*
X104270740Y-161471612D01*
X104365866Y-161335757D01*
X104369023Y-161331249D01*
X104371346Y-161326267D01*
X104371349Y-161326262D01*
X104463461Y-161128725D01*
X104463461Y-161128724D01*
X104465784Y-161123743D01*
X104473001Y-161096811D01*
X104523619Y-160907902D01*
X104523619Y-160907900D01*
X104525043Y-160902587D01*
X104544998Y-160674500D01*
X104525043Y-160446413D01*
X104519567Y-160425975D01*
X107959174Y-160425975D01*
X107977401Y-160634304D01*
X107979304Y-160645099D01*
X108033428Y-160847095D01*
X108037174Y-160857387D01*
X108125554Y-161046917D01*
X108131034Y-161056407D01*
X108159911Y-161097649D01*
X108170387Y-161106023D01*
X108183834Y-161098955D01*
X108849479Y-160433311D01*
X108855856Y-160421632D01*
X109585908Y-160421632D01*
X109586039Y-160423466D01*
X109590290Y-160430080D01*
X110259891Y-161099680D01*
X110271661Y-161106107D01*
X110283676Y-161096811D01*
X110311966Y-161056407D01*
X110317446Y-161046917D01*
X110405826Y-160857387D01*
X110409572Y-160847095D01*
X110463696Y-160645099D01*
X110465599Y-160634304D01*
X110483826Y-160425975D01*
X110483826Y-160415025D01*
X110465599Y-160206696D01*
X110463696Y-160195901D01*
X110409572Y-159993905D01*
X110405826Y-159983613D01*
X110317446Y-159794083D01*
X110311966Y-159784593D01*
X110283089Y-159743351D01*
X110272613Y-159734977D01*
X110259166Y-159742045D01*
X109593521Y-160407689D01*
X109585908Y-160421632D01*
X108855856Y-160421632D01*
X108857092Y-160419368D01*
X108856961Y-160417534D01*
X108852710Y-160410920D01*
X108183109Y-159741320D01*
X108171339Y-159734893D01*
X108159324Y-159744189D01*
X108131034Y-159784593D01*
X108125554Y-159794083D01*
X108037174Y-159983613D01*
X108033428Y-159993905D01*
X107979304Y-160195901D01*
X107977401Y-160206696D01*
X107959174Y-160415025D01*
X107959174Y-160425975D01*
X104519567Y-160425975D01*
X104514667Y-160407689D01*
X104467207Y-160230567D01*
X104467206Y-160230565D01*
X104465784Y-160225257D01*
X104451734Y-160195126D01*
X104371349Y-160022738D01*
X104371346Y-160022733D01*
X104369023Y-160017751D01*
X104237698Y-159830200D01*
X104075800Y-159668302D01*
X104071292Y-159665145D01*
X104071289Y-159665143D01*
X103965102Y-159590790D01*
X103888249Y-159536977D01*
X103883267Y-159534654D01*
X103883262Y-159534651D01*
X103685725Y-159442539D01*
X103685724Y-159442539D01*
X103680743Y-159440216D01*
X103675435Y-159438794D01*
X103675433Y-159438793D01*
X103464902Y-159382381D01*
X103464900Y-159382381D01*
X103459587Y-159380957D01*
X103231500Y-159361002D01*
X103003413Y-159380957D01*
X102998100Y-159382381D01*
X102998098Y-159382381D01*
X102787567Y-159438793D01*
X102787565Y-159438794D01*
X102782257Y-159440216D01*
X102777276Y-159442539D01*
X102777275Y-159442539D01*
X102579738Y-159534651D01*
X102579733Y-159534654D01*
X102574751Y-159536977D01*
X102497898Y-159590790D01*
X102391711Y-159665143D01*
X102391708Y-159665145D01*
X102387200Y-159668302D01*
X102225302Y-159830200D01*
X102093977Y-160017751D01*
X102091654Y-160022733D01*
X102091651Y-160022738D01*
X102011266Y-160195126D01*
X101997216Y-160225257D01*
X101995794Y-160230565D01*
X101995793Y-160230567D01*
X101948333Y-160407689D01*
X101937957Y-160446413D01*
X101918002Y-160674500D01*
X95705765Y-160674500D01*
X95875860Y-160553173D01*
X95917842Y-160511338D01*
X95976488Y-160452896D01*
X96034096Y-160395489D01*
X96046157Y-160378705D01*
X96161435Y-160218277D01*
X96164453Y-160214077D01*
X96181336Y-160179918D01*
X96261136Y-160018453D01*
X96261137Y-160018451D01*
X96263430Y-160013811D01*
X96317845Y-159834711D01*
X96326865Y-159805023D01*
X96326865Y-159805021D01*
X96328370Y-159800069D01*
X96357529Y-159578590D01*
X96359156Y-159512000D01*
X96340852Y-159289361D01*
X96286431Y-159072702D01*
X96197354Y-158867840D01*
X96119965Y-158748215D01*
X96078822Y-158684617D01*
X96078820Y-158684614D01*
X96076014Y-158680277D01*
X96074519Y-158678634D01*
X107963000Y-158678634D01*
X107969755Y-158740816D01*
X108020885Y-158877205D01*
X108108239Y-158993761D01*
X108224795Y-159081115D01*
X108361184Y-159132245D01*
X108423366Y-159139000D01*
X108458794Y-159139000D01*
X108526915Y-159159002D01*
X108573408Y-159212658D01*
X108583512Y-159282932D01*
X108555379Y-159344532D01*
X108555663Y-159344759D01*
X108554759Y-159345890D01*
X108554018Y-159347512D01*
X108552027Y-159349308D01*
X108535977Y-159369387D01*
X108543045Y-159382834D01*
X109208689Y-160048479D01*
X109222632Y-160056092D01*
X109224466Y-160055961D01*
X109231080Y-160051710D01*
X109900680Y-159382109D01*
X109907107Y-159370339D01*
X109886102Y-159343188D01*
X109889704Y-159340402D01*
X109867608Y-159312762D01*
X109860295Y-159242143D01*
X109892323Y-159178781D01*
X109953522Y-159142793D01*
X109984205Y-159139000D01*
X110019634Y-159139000D01*
X110081816Y-159132245D01*
X110218205Y-159081115D01*
X110334761Y-158993761D01*
X110422115Y-158877205D01*
X110473245Y-158740816D01*
X110480000Y-158678634D01*
X110480000Y-157082366D01*
X110473245Y-157020184D01*
X110422115Y-156883795D01*
X110334761Y-156767239D01*
X110218205Y-156679885D01*
X110081816Y-156628755D01*
X110019634Y-156622000D01*
X108423366Y-156622000D01*
X108361184Y-156628755D01*
X108224795Y-156679885D01*
X108108239Y-156767239D01*
X108020885Y-156883795D01*
X107969755Y-157020184D01*
X107963000Y-157082366D01*
X107963000Y-158678634D01*
X96074519Y-158678634D01*
X95925670Y-158515051D01*
X95921619Y-158511852D01*
X95921615Y-158511848D01*
X95754414Y-158379800D01*
X95754410Y-158379798D01*
X95750359Y-158376598D01*
X95709053Y-158353796D01*
X95659084Y-158303364D01*
X95644312Y-158233921D01*
X95669428Y-158167516D01*
X95696780Y-158140909D01*
X95740603Y-158109650D01*
X95875860Y-158013173D01*
X95899787Y-157989330D01*
X96030435Y-157859137D01*
X96034096Y-157855489D01*
X96093594Y-157772689D01*
X96161435Y-157678277D01*
X96164453Y-157674077D01*
X96263430Y-157473811D01*
X96328370Y-157260069D01*
X96357529Y-157038590D01*
X96357979Y-157020184D01*
X96359074Y-156975365D01*
X96359074Y-156975361D01*
X96359156Y-156972000D01*
X96340852Y-156749361D01*
X96286431Y-156532702D01*
X96197354Y-156327840D01*
X96124600Y-156215380D01*
X96078822Y-156144617D01*
X96078820Y-156144614D01*
X96076014Y-156140277D01*
X96072540Y-156136459D01*
X96072533Y-156136450D01*
X95928435Y-155978088D01*
X95897383Y-155914242D01*
X95905779Y-155843744D01*
X95950956Y-155788976D01*
X95977400Y-155775307D01*
X96084052Y-155735325D01*
X96099649Y-155726786D01*
X96201724Y-155650285D01*
X96214285Y-155637724D01*
X96290786Y-155535649D01*
X96299324Y-155520054D01*
X96344478Y-155399606D01*
X96348105Y-155384351D01*
X96353631Y-155333486D01*
X96354000Y-155326672D01*
X96354000Y-154704115D01*
X96349525Y-154688876D01*
X96348135Y-154687671D01*
X96340452Y-154686000D01*
X93656116Y-154686000D01*
X93640877Y-154690475D01*
X93639672Y-154691865D01*
X93638001Y-154699548D01*
X93638001Y-155326669D01*
X93638371Y-155333490D01*
X93643895Y-155384352D01*
X93647521Y-155399604D01*
X93692676Y-155520054D01*
X93701214Y-155535649D01*
X93777715Y-155637724D01*
X93790276Y-155650285D01*
X93892351Y-155726786D01*
X93907946Y-155735324D01*
X94016827Y-155776142D01*
X94073591Y-155818784D01*
X94098291Y-155885345D01*
X94083083Y-155954694D01*
X94063691Y-155981175D01*
X93981050Y-156067654D01*
X93936629Y-156114138D01*
X93933715Y-156118410D01*
X93933714Y-156118411D01*
X93866514Y-156216923D01*
X93810743Y-156298680D01*
X93716688Y-156501305D01*
X93656989Y-156716570D01*
X93633251Y-156938695D01*
X93633548Y-156943848D01*
X93633548Y-156943851D01*
X93639011Y-157038590D01*
X93646110Y-157161715D01*
X93647247Y-157166761D01*
X93647248Y-157166767D01*
X93667119Y-157254939D01*
X93695222Y-157379639D01*
X93779266Y-157586616D01*
X93781965Y-157591020D01*
X93865644Y-157727572D01*
X93895987Y-157777088D01*
X94042250Y-157945938D01*
X94214126Y-158088632D01*
X94278276Y-158126118D01*
X94287445Y-158131476D01*
X94336169Y-158183114D01*
X94349240Y-158252897D01*
X94322509Y-158318669D01*
X94282055Y-158352027D01*
X94269607Y-158358507D01*
X94265474Y-158361610D01*
X94265471Y-158361612D01*
X94141600Y-158454617D01*
X94090965Y-158492635D01*
X94087393Y-158496373D01*
X93947665Y-158642590D01*
X93936629Y-158654138D01*
X93810743Y-158838680D01*
X93789525Y-158884391D01*
X93723528Y-159026570D01*
X93716688Y-159041305D01*
X93656989Y-159256570D01*
X93633251Y-159478695D01*
X89990400Y-159478695D01*
X90007529Y-159348590D01*
X90007729Y-159340402D01*
X90009074Y-159285365D01*
X90009074Y-159285361D01*
X90009156Y-159282000D01*
X89990852Y-159059361D01*
X89936431Y-158842702D01*
X89847354Y-158637840D01*
X89726014Y-158450277D01*
X89575670Y-158285051D01*
X89571619Y-158281852D01*
X89571615Y-158281848D01*
X89404414Y-158149800D01*
X89404410Y-158149798D01*
X89400359Y-158146598D01*
X89390054Y-158140909D01*
X89289366Y-158085327D01*
X89204789Y-158038638D01*
X89199920Y-158036914D01*
X89199916Y-158036912D01*
X88999087Y-157965795D01*
X88999083Y-157965794D01*
X88994212Y-157964069D01*
X88989119Y-157963162D01*
X88989116Y-157963161D01*
X88779373Y-157925800D01*
X88779367Y-157925799D01*
X88774284Y-157924894D01*
X88700452Y-157923992D01*
X88556081Y-157922228D01*
X88556079Y-157922228D01*
X88550911Y-157922165D01*
X88330091Y-157955955D01*
X88117756Y-158025357D01*
X87919607Y-158128507D01*
X87915474Y-158131610D01*
X87915471Y-158131612D01*
X87750658Y-158255357D01*
X87740965Y-158262635D01*
X87684537Y-158321684D01*
X87660283Y-158347064D01*
X87598759Y-158382494D01*
X87527846Y-158379037D01*
X87470060Y-158337791D01*
X87451207Y-158304243D01*
X87409767Y-158193703D01*
X87406615Y-158185295D01*
X87319261Y-158068739D01*
X87202705Y-157981385D01*
X87066316Y-157930255D01*
X87004134Y-157923500D01*
X85207866Y-157923500D01*
X85145684Y-157930255D01*
X85009295Y-157981385D01*
X84892739Y-158068739D01*
X84805385Y-158185295D01*
X84802233Y-158193703D01*
X84760919Y-158303907D01*
X84718277Y-158360671D01*
X84651716Y-158385371D01*
X84582367Y-158370163D01*
X84549743Y-158344476D01*
X84499151Y-158288875D01*
X84499142Y-158288866D01*
X84495670Y-158285051D01*
X84491619Y-158281852D01*
X84491615Y-158281848D01*
X84324414Y-158149800D01*
X84324410Y-158149798D01*
X84320359Y-158146598D01*
X84310054Y-158140909D01*
X84209366Y-158085327D01*
X84124789Y-158038638D01*
X84119920Y-158036914D01*
X84119916Y-158036912D01*
X83919087Y-157965795D01*
X83919083Y-157965794D01*
X83914212Y-157964069D01*
X83909119Y-157963162D01*
X83909116Y-157963161D01*
X83699373Y-157925800D01*
X83699367Y-157925799D01*
X83694284Y-157924894D01*
X83620452Y-157923992D01*
X83476081Y-157922228D01*
X83476079Y-157922228D01*
X83470911Y-157922165D01*
X83250091Y-157955955D01*
X83037756Y-158025357D01*
X82839607Y-158128507D01*
X82835474Y-158131610D01*
X82835471Y-158131612D01*
X82670658Y-158255357D01*
X82660965Y-158262635D01*
X82622043Y-158303364D01*
X82549729Y-158379037D01*
X82506629Y-158424138D01*
X82503715Y-158428410D01*
X82503714Y-158428411D01*
X82418556Y-158553249D01*
X82380743Y-158608680D01*
X82286688Y-158811305D01*
X82226989Y-159026570D01*
X82203251Y-159248695D01*
X78550637Y-159248695D01*
X78506431Y-159072702D01*
X78417354Y-158867840D01*
X78339965Y-158748215D01*
X78298822Y-158684617D01*
X78298820Y-158684614D01*
X78296014Y-158680277D01*
X78145670Y-158515051D01*
X78141619Y-158511852D01*
X78141615Y-158511848D01*
X77974414Y-158379800D01*
X77974410Y-158379798D01*
X77970359Y-158376598D01*
X77929053Y-158353796D01*
X77879084Y-158303364D01*
X77864312Y-158233921D01*
X77889428Y-158167516D01*
X77916780Y-158140909D01*
X77960603Y-158109650D01*
X78095860Y-158013173D01*
X78119787Y-157989330D01*
X78250435Y-157859137D01*
X78254096Y-157855489D01*
X78313594Y-157772689D01*
X78381435Y-157678277D01*
X78384453Y-157674077D01*
X78483430Y-157473811D01*
X78548370Y-157260069D01*
X78577529Y-157038590D01*
X78577979Y-157020184D01*
X78579074Y-156975365D01*
X78579074Y-156975361D01*
X78579156Y-156972000D01*
X78560852Y-156749361D01*
X78506431Y-156532702D01*
X78417354Y-156327840D01*
X78344600Y-156215380D01*
X78298822Y-156144617D01*
X78298820Y-156144614D01*
X78296014Y-156140277D01*
X78292540Y-156136459D01*
X78292533Y-156136450D01*
X78148435Y-155978088D01*
X78117383Y-155914242D01*
X78125779Y-155843744D01*
X78170956Y-155788976D01*
X78197400Y-155775307D01*
X78304052Y-155735325D01*
X78319649Y-155726786D01*
X78421724Y-155650285D01*
X78434285Y-155637724D01*
X78510786Y-155535649D01*
X78519324Y-155520054D01*
X78564478Y-155399606D01*
X78568105Y-155384351D01*
X78573631Y-155333486D01*
X78574000Y-155326672D01*
X78574000Y-154704115D01*
X78569525Y-154688876D01*
X78568135Y-154687671D01*
X78560452Y-154686000D01*
X75876116Y-154686000D01*
X75860877Y-154690475D01*
X75859672Y-154691865D01*
X75858001Y-154699548D01*
X75858001Y-155326669D01*
X75858371Y-155333490D01*
X75863895Y-155384352D01*
X75867521Y-155399604D01*
X75912676Y-155520054D01*
X75921214Y-155535649D01*
X75997715Y-155637724D01*
X76010276Y-155650285D01*
X76112351Y-155726786D01*
X76127946Y-155735324D01*
X76236827Y-155776142D01*
X76293591Y-155818784D01*
X76318291Y-155885345D01*
X76303083Y-155954694D01*
X76283691Y-155981175D01*
X76201050Y-156067654D01*
X76156629Y-156114138D01*
X76153715Y-156118410D01*
X76153714Y-156118411D01*
X76086514Y-156216923D01*
X76030743Y-156298680D01*
X75936688Y-156501305D01*
X75876989Y-156716570D01*
X75853251Y-156938695D01*
X75853548Y-156943848D01*
X75853548Y-156943851D01*
X75859011Y-157038590D01*
X75866110Y-157161715D01*
X75867247Y-157166761D01*
X75867248Y-157166767D01*
X75887119Y-157254939D01*
X75915222Y-157379639D01*
X75999266Y-157586616D01*
X76001965Y-157591020D01*
X76085644Y-157727572D01*
X76115987Y-157777088D01*
X76262250Y-157945938D01*
X76434126Y-158088632D01*
X76498276Y-158126118D01*
X76507445Y-158131476D01*
X76556169Y-158183114D01*
X76569240Y-158252897D01*
X76542509Y-158318669D01*
X76502055Y-158352027D01*
X76489607Y-158358507D01*
X76485474Y-158361610D01*
X76485471Y-158361612D01*
X76361600Y-158454617D01*
X76310965Y-158492635D01*
X76307393Y-158496373D01*
X76167665Y-158642590D01*
X76156629Y-158654138D01*
X76030743Y-158838680D01*
X76009525Y-158884391D01*
X75943528Y-159026570D01*
X75936688Y-159041305D01*
X75876989Y-159256570D01*
X75853251Y-159478695D01*
X71033224Y-159478695D01*
X71036885Y-159463446D01*
X71038428Y-159453699D01*
X71056275Y-159226930D01*
X71056275Y-159217070D01*
X71038428Y-158990301D01*
X71036885Y-158980554D01*
X70983783Y-158759373D01*
X70980734Y-158749988D01*
X70893687Y-158539837D01*
X70889205Y-158531042D01*
X70786568Y-158363555D01*
X70776110Y-158354093D01*
X70767334Y-158357876D01*
X69916022Y-159209188D01*
X69908408Y-159223132D01*
X69178356Y-159223132D01*
X69179592Y-159220868D01*
X69179461Y-159219035D01*
X69175210Y-159212420D01*
X68323710Y-158360920D01*
X68311330Y-158354160D01*
X68303680Y-158359887D01*
X68198795Y-158531042D01*
X68194313Y-158539837D01*
X68107266Y-158749988D01*
X68104217Y-158759373D01*
X68051115Y-158980554D01*
X68049572Y-158990301D01*
X68031725Y-159217070D01*
X68031725Y-159226930D01*
X64556275Y-159226930D01*
X64556275Y-159217070D01*
X64538428Y-158990301D01*
X64536885Y-158980554D01*
X64483783Y-158759373D01*
X64480734Y-158749988D01*
X64393687Y-158539837D01*
X64389205Y-158531042D01*
X64286568Y-158363555D01*
X64276110Y-158354093D01*
X64267334Y-158357876D01*
X63416022Y-159209188D01*
X63408408Y-159223132D01*
X62678356Y-159223132D01*
X62679592Y-159220868D01*
X62679461Y-159219035D01*
X62675210Y-159212420D01*
X61823710Y-158360920D01*
X61811330Y-158354160D01*
X61803680Y-158359887D01*
X61698795Y-158531042D01*
X61694313Y-158539837D01*
X61607266Y-158749988D01*
X61604217Y-158759373D01*
X61551115Y-158980554D01*
X61549572Y-158990301D01*
X61531725Y-159217070D01*
X61531725Y-159226930D01*
X60198500Y-159226930D01*
X60198500Y-157989890D01*
X62176093Y-157989890D01*
X62179876Y-157998666D01*
X63031188Y-158849978D01*
X63045132Y-158857592D01*
X63046965Y-158857461D01*
X63053580Y-158853210D01*
X63905080Y-158001710D01*
X63911534Y-157989890D01*
X68676093Y-157989890D01*
X68679876Y-157998666D01*
X69531188Y-158849978D01*
X69545132Y-158857592D01*
X69546965Y-158857461D01*
X69553580Y-158853210D01*
X70405080Y-158001710D01*
X70411840Y-157989330D01*
X70406113Y-157981680D01*
X70234958Y-157876795D01*
X70226163Y-157872313D01*
X70016012Y-157785266D01*
X70006627Y-157782217D01*
X69785446Y-157729115D01*
X69775699Y-157727572D01*
X69548930Y-157709725D01*
X69539070Y-157709725D01*
X69312301Y-157727572D01*
X69302554Y-157729115D01*
X69081373Y-157782217D01*
X69071988Y-157785266D01*
X68861837Y-157872313D01*
X68853042Y-157876795D01*
X68685555Y-157979432D01*
X68676093Y-157989890D01*
X63911534Y-157989890D01*
X63911840Y-157989330D01*
X63906113Y-157981680D01*
X63734958Y-157876795D01*
X63726163Y-157872313D01*
X63516012Y-157785266D01*
X63506627Y-157782217D01*
X63285446Y-157729115D01*
X63275699Y-157727572D01*
X63048930Y-157709725D01*
X63039070Y-157709725D01*
X62812301Y-157727572D01*
X62802554Y-157729115D01*
X62581373Y-157782217D01*
X62571988Y-157785266D01*
X62361837Y-157872313D01*
X62353042Y-157876795D01*
X62185555Y-157979432D01*
X62176093Y-157989890D01*
X60198500Y-157989890D01*
X60198500Y-154722000D01*
X61530835Y-154722000D01*
X61549465Y-154958711D01*
X61604895Y-155189594D01*
X61606788Y-155194165D01*
X61606789Y-155194167D01*
X61685566Y-155384352D01*
X61695760Y-155408963D01*
X61698346Y-155413183D01*
X61817241Y-155607202D01*
X61817245Y-155607208D01*
X61819824Y-155611416D01*
X61974031Y-155791969D01*
X62154584Y-155946176D01*
X62158792Y-155948755D01*
X62158798Y-155948759D01*
X62352817Y-156067654D01*
X62357037Y-156070240D01*
X62361607Y-156072133D01*
X62361611Y-156072135D01*
X62516883Y-156136450D01*
X62576406Y-156161105D01*
X62656609Y-156180360D01*
X62802476Y-156215380D01*
X62802482Y-156215381D01*
X62807289Y-156216535D01*
X63044000Y-156235165D01*
X63280711Y-156216535D01*
X63285518Y-156215381D01*
X63285524Y-156215380D01*
X63431391Y-156180360D01*
X63511594Y-156161105D01*
X63571117Y-156136450D01*
X63726389Y-156072135D01*
X63726393Y-156072133D01*
X63730963Y-156070240D01*
X63735183Y-156067654D01*
X63929202Y-155948759D01*
X63929208Y-155948755D01*
X63933416Y-155946176D01*
X64113969Y-155791969D01*
X64268176Y-155611416D01*
X64270755Y-155607208D01*
X64270759Y-155607202D01*
X64389654Y-155413183D01*
X64392240Y-155408963D01*
X64402435Y-155384352D01*
X64481211Y-155194167D01*
X64481212Y-155194165D01*
X64483105Y-155189594D01*
X64538535Y-154958711D01*
X64557165Y-154722000D01*
X68030835Y-154722000D01*
X68049465Y-154958711D01*
X68104895Y-155189594D01*
X68106788Y-155194165D01*
X68106789Y-155194167D01*
X68185566Y-155384352D01*
X68195760Y-155408963D01*
X68198346Y-155413183D01*
X68317241Y-155607202D01*
X68317245Y-155607208D01*
X68319824Y-155611416D01*
X68474031Y-155791969D01*
X68654584Y-155946176D01*
X68658792Y-155948755D01*
X68658798Y-155948759D01*
X68852817Y-156067654D01*
X68857037Y-156070240D01*
X68861607Y-156072133D01*
X68861611Y-156072135D01*
X69016883Y-156136450D01*
X69076406Y-156161105D01*
X69156609Y-156180360D01*
X69302476Y-156215380D01*
X69302482Y-156215381D01*
X69307289Y-156216535D01*
X69544000Y-156235165D01*
X69780711Y-156216535D01*
X69785518Y-156215381D01*
X69785524Y-156215380D01*
X69931391Y-156180360D01*
X70011594Y-156161105D01*
X70071117Y-156136450D01*
X70226389Y-156072135D01*
X70226393Y-156072133D01*
X70230963Y-156070240D01*
X70235183Y-156067654D01*
X70429202Y-155948759D01*
X70429208Y-155948755D01*
X70433416Y-155946176D01*
X70613969Y-155791969D01*
X70768176Y-155611416D01*
X70770755Y-155607208D01*
X70770759Y-155607202D01*
X70889654Y-155413183D01*
X70892240Y-155408963D01*
X70902435Y-155384352D01*
X70981211Y-155194167D01*
X70981212Y-155194165D01*
X70983105Y-155189594D01*
X71038535Y-154958711D01*
X71057165Y-154722000D01*
X71038535Y-154485289D01*
X70983105Y-154254406D01*
X70949603Y-154173525D01*
X70894135Y-154039611D01*
X70894133Y-154039607D01*
X70892240Y-154035037D01*
X70889654Y-154030817D01*
X70770759Y-153836798D01*
X70770755Y-153836792D01*
X70768176Y-153832584D01*
X70613969Y-153652031D01*
X70433416Y-153497824D01*
X70429208Y-153495245D01*
X70429202Y-153495241D01*
X70235183Y-153376346D01*
X70230963Y-153373760D01*
X70226393Y-153371867D01*
X70226389Y-153371865D01*
X70016167Y-153284789D01*
X70016165Y-153284788D01*
X70011594Y-153282895D01*
X69890209Y-153253753D01*
X69785524Y-153228620D01*
X69785518Y-153228619D01*
X69780711Y-153227465D01*
X69544000Y-153208835D01*
X69307289Y-153227465D01*
X69302482Y-153228619D01*
X69302476Y-153228620D01*
X69197791Y-153253753D01*
X69076406Y-153282895D01*
X69071835Y-153284788D01*
X69071833Y-153284789D01*
X68861611Y-153371865D01*
X68861607Y-153371867D01*
X68857037Y-153373760D01*
X68852817Y-153376346D01*
X68658798Y-153495241D01*
X68658792Y-153495245D01*
X68654584Y-153497824D01*
X68474031Y-153652031D01*
X68319824Y-153832584D01*
X68317245Y-153836792D01*
X68317241Y-153836798D01*
X68198346Y-154030817D01*
X68195760Y-154035037D01*
X68193867Y-154039607D01*
X68193865Y-154039611D01*
X68138397Y-154173525D01*
X68104895Y-154254406D01*
X68049465Y-154485289D01*
X68030835Y-154722000D01*
X64557165Y-154722000D01*
X64538535Y-154485289D01*
X64483105Y-154254406D01*
X64449603Y-154173525D01*
X64394135Y-154039611D01*
X64394133Y-154039607D01*
X64392240Y-154035037D01*
X64389654Y-154030817D01*
X64270759Y-153836798D01*
X64270755Y-153836792D01*
X64268176Y-153832584D01*
X64113969Y-153652031D01*
X63933416Y-153497824D01*
X63929208Y-153495245D01*
X63929202Y-153495241D01*
X63735183Y-153376346D01*
X63730963Y-153373760D01*
X63726393Y-153371867D01*
X63726389Y-153371865D01*
X63516167Y-153284789D01*
X63516165Y-153284788D01*
X63511594Y-153282895D01*
X63390209Y-153253753D01*
X63285524Y-153228620D01*
X63285518Y-153228619D01*
X63280711Y-153227465D01*
X63044000Y-153208835D01*
X62807289Y-153227465D01*
X62802482Y-153228619D01*
X62802476Y-153228620D01*
X62697791Y-153253753D01*
X62576406Y-153282895D01*
X62571835Y-153284788D01*
X62571833Y-153284789D01*
X62361611Y-153371865D01*
X62361607Y-153371867D01*
X62357037Y-153373760D01*
X62352817Y-153376346D01*
X62158798Y-153495241D01*
X62158792Y-153495245D01*
X62154584Y-153497824D01*
X61974031Y-153652031D01*
X61819824Y-153832584D01*
X61817245Y-153836792D01*
X61817241Y-153836798D01*
X61698346Y-154030817D01*
X61695760Y-154035037D01*
X61693867Y-154039607D01*
X61693865Y-154039611D01*
X61638397Y-154173525D01*
X61604895Y-154254406D01*
X61549465Y-154485289D01*
X61530835Y-154722000D01*
X60198500Y-154722000D01*
X60198500Y-151858695D01*
X75853251Y-151858695D01*
X75853548Y-151863848D01*
X75853548Y-151863851D01*
X75859011Y-151958590D01*
X75866110Y-152081715D01*
X75867247Y-152086761D01*
X75867248Y-152086767D01*
X75887119Y-152174939D01*
X75915222Y-152299639D01*
X75999266Y-152506616D01*
X76115987Y-152697088D01*
X76262250Y-152865938D01*
X76266225Y-152869238D01*
X76266231Y-152869244D01*
X76271425Y-152873556D01*
X76311059Y-152932460D01*
X76312555Y-153003441D01*
X76275439Y-153063962D01*
X76235168Y-153088480D01*
X76127946Y-153128676D01*
X76112351Y-153137214D01*
X76010276Y-153213715D01*
X75997715Y-153226276D01*
X75921214Y-153328351D01*
X75912676Y-153343946D01*
X75867522Y-153464394D01*
X75863895Y-153479649D01*
X75858369Y-153530514D01*
X75858000Y-153537328D01*
X75858000Y-154159885D01*
X75862475Y-154175124D01*
X75863865Y-154176329D01*
X75871548Y-154178000D01*
X78555884Y-154178000D01*
X78571123Y-154173525D01*
X78572328Y-154172135D01*
X78573999Y-154164452D01*
X78573999Y-153537331D01*
X78573629Y-153530510D01*
X78568105Y-153479648D01*
X78564479Y-153464396D01*
X78519324Y-153343946D01*
X78510786Y-153328351D01*
X78434285Y-153226276D01*
X78421724Y-153213715D01*
X78319649Y-153137214D01*
X78304054Y-153128676D01*
X78193813Y-153087348D01*
X78137049Y-153044706D01*
X78112349Y-152978145D01*
X78127557Y-152908796D01*
X78149104Y-152880115D01*
X78250430Y-152779144D01*
X78250440Y-152779132D01*
X78254096Y-152775489D01*
X78313594Y-152692689D01*
X78381435Y-152598277D01*
X78384453Y-152594077D01*
X78483430Y-152393811D01*
X78548370Y-152180069D01*
X78577529Y-151958590D01*
X78579156Y-151892000D01*
X78576418Y-151858695D01*
X93633251Y-151858695D01*
X93633548Y-151863848D01*
X93633548Y-151863851D01*
X93639011Y-151958590D01*
X93646110Y-152081715D01*
X93647247Y-152086761D01*
X93647248Y-152086767D01*
X93667119Y-152174939D01*
X93695222Y-152299639D01*
X93779266Y-152506616D01*
X93895987Y-152697088D01*
X94042250Y-152865938D01*
X94046225Y-152869238D01*
X94046231Y-152869244D01*
X94051425Y-152873556D01*
X94091059Y-152932460D01*
X94092555Y-153003441D01*
X94055439Y-153063962D01*
X94015168Y-153088480D01*
X93907946Y-153128676D01*
X93892351Y-153137214D01*
X93790276Y-153213715D01*
X93777715Y-153226276D01*
X93701214Y-153328351D01*
X93692676Y-153343946D01*
X93647522Y-153464394D01*
X93643895Y-153479649D01*
X93638369Y-153530514D01*
X93638000Y-153537328D01*
X93638000Y-154159885D01*
X93642475Y-154175124D01*
X93643865Y-154176329D01*
X93651548Y-154178000D01*
X96335884Y-154178000D01*
X96351123Y-154173525D01*
X96352328Y-154172135D01*
X96353999Y-154164452D01*
X96353999Y-153537331D01*
X96353629Y-153530510D01*
X96348105Y-153479648D01*
X96344479Y-153464396D01*
X96299324Y-153343946D01*
X96290786Y-153328351D01*
X96214285Y-153226276D01*
X96201724Y-153213715D01*
X96099649Y-153137214D01*
X96084054Y-153128676D01*
X95973813Y-153087348D01*
X95917049Y-153044706D01*
X95892349Y-152978145D01*
X95907557Y-152908796D01*
X95929104Y-152880115D01*
X96030430Y-152779144D01*
X96030440Y-152779132D01*
X96034096Y-152775489D01*
X96093594Y-152692689D01*
X96161435Y-152598277D01*
X96164453Y-152594077D01*
X96263430Y-152393811D01*
X96328370Y-152180069D01*
X96357529Y-151958590D01*
X96359156Y-151892000D01*
X96340852Y-151669361D01*
X96286431Y-151452702D01*
X96197354Y-151247840D01*
X96076014Y-151060277D01*
X95925670Y-150895051D01*
X95921619Y-150891852D01*
X95921615Y-150891848D01*
X95754414Y-150759800D01*
X95754410Y-150759798D01*
X95750359Y-150756598D01*
X95709053Y-150733796D01*
X95659084Y-150683364D01*
X95644312Y-150613921D01*
X95669428Y-150547516D01*
X95696780Y-150520909D01*
X95705765Y-150514500D01*
X101918002Y-150514500D01*
X101937957Y-150742587D01*
X101939381Y-150747900D01*
X101939381Y-150747902D01*
X101977952Y-150891848D01*
X101997216Y-150963743D01*
X101999539Y-150968724D01*
X101999539Y-150968725D01*
X102091651Y-151166262D01*
X102091654Y-151166267D01*
X102093977Y-151171249D01*
X102225302Y-151358800D01*
X102387200Y-151520698D01*
X102391708Y-151523855D01*
X102391711Y-151523857D01*
X102469889Y-151578598D01*
X102574751Y-151652023D01*
X102579733Y-151654346D01*
X102579738Y-151654349D01*
X102777275Y-151746461D01*
X102782257Y-151748784D01*
X102787565Y-151750206D01*
X102787567Y-151750207D01*
X102998098Y-151806619D01*
X102998100Y-151806619D01*
X103003413Y-151808043D01*
X103231500Y-151827998D01*
X103459587Y-151808043D01*
X103464900Y-151806619D01*
X103464902Y-151806619D01*
X103675433Y-151750207D01*
X103675435Y-151750206D01*
X103680743Y-151748784D01*
X103685725Y-151746461D01*
X103883262Y-151654349D01*
X103883267Y-151654346D01*
X103888249Y-151652023D01*
X103993111Y-151578598D01*
X104071289Y-151523857D01*
X104071292Y-151523855D01*
X104075800Y-151520698D01*
X104237698Y-151358800D01*
X104369023Y-151171249D01*
X104371346Y-151166267D01*
X104371349Y-151166262D01*
X104463461Y-150968725D01*
X104463461Y-150968724D01*
X104465784Y-150963743D01*
X104485049Y-150891848D01*
X104523619Y-150747902D01*
X104523619Y-150747900D01*
X104525043Y-150742587D01*
X104544998Y-150514500D01*
X104525043Y-150286413D01*
X104523619Y-150281098D01*
X104467207Y-150070567D01*
X104467206Y-150070565D01*
X104465784Y-150065257D01*
X104421841Y-149971020D01*
X104371349Y-149862738D01*
X104371346Y-149862733D01*
X104369023Y-149857751D01*
X104237698Y-149670200D01*
X104075800Y-149508302D01*
X104071292Y-149505145D01*
X104071289Y-149505143D01*
X103942894Y-149415240D01*
X103888249Y-149376977D01*
X103883267Y-149374654D01*
X103883262Y-149374651D01*
X103685725Y-149282539D01*
X103685724Y-149282539D01*
X103680743Y-149280216D01*
X103675435Y-149278794D01*
X103675433Y-149278793D01*
X103464902Y-149222381D01*
X103464900Y-149222381D01*
X103459587Y-149220957D01*
X103231500Y-149201002D01*
X103003413Y-149220957D01*
X102998100Y-149222381D01*
X102998098Y-149222381D01*
X102787567Y-149278793D01*
X102787565Y-149278794D01*
X102782257Y-149280216D01*
X102777276Y-149282539D01*
X102777275Y-149282539D01*
X102579738Y-149374651D01*
X102579733Y-149374654D01*
X102574751Y-149376977D01*
X102520106Y-149415240D01*
X102391711Y-149505143D01*
X102391708Y-149505145D01*
X102387200Y-149508302D01*
X102225302Y-149670200D01*
X102093977Y-149857751D01*
X102091654Y-149862733D01*
X102091651Y-149862738D01*
X102041159Y-149971020D01*
X101997216Y-150065257D01*
X101995794Y-150070565D01*
X101995793Y-150070567D01*
X101939381Y-150281098D01*
X101937957Y-150286413D01*
X101918002Y-150514500D01*
X95705765Y-150514500D01*
X95756663Y-150478195D01*
X95875860Y-150393173D01*
X96034096Y-150235489D01*
X96053863Y-150207981D01*
X96161435Y-150058277D01*
X96164453Y-150054077D01*
X96240228Y-149900758D01*
X96261136Y-149858453D01*
X96261137Y-149858451D01*
X96263430Y-149853811D01*
X96317845Y-149674711D01*
X96326865Y-149645023D01*
X96326865Y-149645021D01*
X96328370Y-149640069D01*
X96357529Y-149418590D01*
X96359156Y-149352000D01*
X96340852Y-149129361D01*
X96286431Y-148912702D01*
X96197354Y-148707840D01*
X96076014Y-148520277D01*
X95925670Y-148355051D01*
X95921619Y-148351852D01*
X95921615Y-148351848D01*
X95754414Y-148219800D01*
X95754410Y-148219798D01*
X95750359Y-148216598D01*
X95709053Y-148193796D01*
X95659084Y-148143364D01*
X95644312Y-148073921D01*
X95669428Y-148007516D01*
X95696780Y-147980909D01*
X95740603Y-147949650D01*
X95875860Y-147853173D01*
X96008997Y-147720500D01*
X104343510Y-147720500D01*
X104363856Y-148108718D01*
X104364369Y-148111958D01*
X104364370Y-148111966D01*
X104381450Y-148219800D01*
X104424670Y-148492682D01*
X104525286Y-148868186D01*
X104664601Y-149231116D01*
X104841090Y-149577495D01*
X105052819Y-149903529D01*
X105054897Y-149906095D01*
X105261308Y-150160990D01*
X105297468Y-150205644D01*
X105572356Y-150480532D01*
X105574914Y-150482604D01*
X105574918Y-150482607D01*
X105746034Y-150621174D01*
X105874471Y-150725181D01*
X106200505Y-150936910D01*
X106546884Y-151113399D01*
X106684598Y-151166262D01*
X106897117Y-151247840D01*
X106909814Y-151252714D01*
X107285318Y-151353330D01*
X107489336Y-151385643D01*
X107666034Y-151413630D01*
X107666042Y-151413631D01*
X107669282Y-151414144D01*
X108057500Y-151434490D01*
X108445718Y-151414144D01*
X108448958Y-151413631D01*
X108448966Y-151413630D01*
X108625664Y-151385643D01*
X108829682Y-151353330D01*
X109205186Y-151252714D01*
X109217884Y-151247840D01*
X109430402Y-151166262D01*
X109568116Y-151113399D01*
X109914495Y-150936910D01*
X110240529Y-150725181D01*
X110368966Y-150621174D01*
X110540082Y-150482607D01*
X110540086Y-150482604D01*
X110542644Y-150480532D01*
X110817532Y-150205644D01*
X110853693Y-150160990D01*
X111060103Y-149906095D01*
X111062181Y-149903529D01*
X111273910Y-149577495D01*
X111450399Y-149231116D01*
X111589714Y-148868186D01*
X111690330Y-148492682D01*
X111733550Y-148219800D01*
X111750630Y-148111966D01*
X111750631Y-148111958D01*
X111751144Y-148108718D01*
X111771490Y-147720500D01*
X111751144Y-147332282D01*
X111748219Y-147313811D01*
X111714365Y-147100069D01*
X111690330Y-146948318D01*
X111589714Y-146572814D01*
X111585451Y-146561707D01*
X111502763Y-146346297D01*
X111450399Y-146209884D01*
X111273910Y-145863505D01*
X111062181Y-145537471D01*
X110880547Y-145313173D01*
X110819607Y-145237918D01*
X110819604Y-145237914D01*
X110817532Y-145235356D01*
X110542644Y-144960468D01*
X110456884Y-144891020D01*
X110243095Y-144717897D01*
X110240529Y-144715819D01*
X109914495Y-144504090D01*
X109568116Y-144327601D01*
X109205186Y-144188286D01*
X108829682Y-144087670D01*
X108587809Y-144049361D01*
X108448966Y-144027370D01*
X108448958Y-144027369D01*
X108445718Y-144026856D01*
X108057500Y-144006510D01*
X107669282Y-144026856D01*
X107666042Y-144027369D01*
X107666034Y-144027370D01*
X107527191Y-144049361D01*
X107285318Y-144087670D01*
X106909814Y-144188286D01*
X106546884Y-144327601D01*
X106200505Y-144504090D01*
X105874471Y-144715819D01*
X105871905Y-144717897D01*
X105658117Y-144891020D01*
X105572356Y-144960468D01*
X105297468Y-145235356D01*
X105295396Y-145237914D01*
X105295393Y-145237918D01*
X105234453Y-145313173D01*
X105052819Y-145537471D01*
X104841090Y-145863505D01*
X104664601Y-146209884D01*
X104612237Y-146346297D01*
X104529550Y-146561707D01*
X104525286Y-146572814D01*
X104424670Y-146948318D01*
X104400635Y-147100069D01*
X104366782Y-147313811D01*
X104363856Y-147332282D01*
X104343510Y-147720500D01*
X96008997Y-147720500D01*
X96034096Y-147695489D01*
X96093594Y-147612689D01*
X96161435Y-147518277D01*
X96164453Y-147514077D01*
X96255907Y-147329034D01*
X96261136Y-147318453D01*
X96261137Y-147318451D01*
X96263430Y-147313811D01*
X96328370Y-147100069D01*
X96357529Y-146878590D01*
X96359156Y-146812000D01*
X96340852Y-146589361D01*
X96286431Y-146372702D01*
X96197354Y-146167840D01*
X96076014Y-145980277D01*
X95925670Y-145815051D01*
X95921619Y-145811852D01*
X95921615Y-145811848D01*
X95754414Y-145679800D01*
X95754410Y-145679798D01*
X95750359Y-145676598D01*
X95709053Y-145653796D01*
X95659084Y-145603364D01*
X95644312Y-145533921D01*
X95669428Y-145467516D01*
X95696780Y-145440909D01*
X95740603Y-145409650D01*
X95875860Y-145313173D01*
X96034096Y-145155489D01*
X96093594Y-145072689D01*
X96161435Y-144978277D01*
X96164453Y-144974077D01*
X96172205Y-144958393D01*
X96261136Y-144778453D01*
X96261137Y-144778451D01*
X96263430Y-144773811D01*
X96328370Y-144560069D01*
X96357529Y-144338590D01*
X96357761Y-144329099D01*
X96359074Y-144275365D01*
X96359074Y-144275361D01*
X96359156Y-144272000D01*
X96340852Y-144049361D01*
X96286431Y-143832702D01*
X96197354Y-143627840D01*
X96123585Y-143513811D01*
X96078822Y-143444617D01*
X96078820Y-143444614D01*
X96076014Y-143440277D01*
X96072540Y-143436459D01*
X96072533Y-143436450D01*
X95928435Y-143278088D01*
X95897383Y-143214242D01*
X95905779Y-143143744D01*
X95950956Y-143088976D01*
X95977400Y-143075307D01*
X96084052Y-143035325D01*
X96099649Y-143026786D01*
X96201724Y-142950285D01*
X96214285Y-142937724D01*
X96290786Y-142835649D01*
X96299324Y-142820054D01*
X96344478Y-142699606D01*
X96348105Y-142684351D01*
X96353631Y-142633486D01*
X96354000Y-142626672D01*
X96354000Y-142004115D01*
X96349525Y-141988876D01*
X96348135Y-141987671D01*
X96340452Y-141986000D01*
X93656116Y-141986000D01*
X93640877Y-141990475D01*
X93639672Y-141991865D01*
X93638001Y-141999548D01*
X93638001Y-142626669D01*
X93638371Y-142633490D01*
X93643895Y-142684352D01*
X93647521Y-142699604D01*
X93692676Y-142820054D01*
X93701214Y-142835649D01*
X93777715Y-142937724D01*
X93790276Y-142950285D01*
X93892351Y-143026786D01*
X93907946Y-143035324D01*
X94016827Y-143076142D01*
X94073591Y-143118784D01*
X94098291Y-143185345D01*
X94083083Y-143254694D01*
X94063691Y-143281175D01*
X93940200Y-143410401D01*
X93936629Y-143414138D01*
X93810743Y-143598680D01*
X93716688Y-143801305D01*
X93656989Y-144016570D01*
X93633251Y-144238695D01*
X93633548Y-144243848D01*
X93633548Y-144243851D01*
X93639439Y-144346025D01*
X93646110Y-144461715D01*
X93647247Y-144466761D01*
X93647248Y-144466767D01*
X93656065Y-144505889D01*
X93695222Y-144679639D01*
X93779266Y-144886616D01*
X93895987Y-145077088D01*
X94042250Y-145245938D01*
X94214126Y-145388632D01*
X94284595Y-145429811D01*
X94287445Y-145431476D01*
X94336169Y-145483114D01*
X94349240Y-145552897D01*
X94322509Y-145618669D01*
X94282055Y-145652027D01*
X94269607Y-145658507D01*
X94265474Y-145661610D01*
X94265471Y-145661612D01*
X94241247Y-145679800D01*
X94090965Y-145792635D01*
X93936629Y-145954138D01*
X93810743Y-146138680D01*
X93716688Y-146341305D01*
X93656989Y-146556570D01*
X93633251Y-146778695D01*
X93633548Y-146783848D01*
X93633548Y-146783851D01*
X93639011Y-146878590D01*
X93646110Y-147001715D01*
X93647247Y-147006761D01*
X93647248Y-147006767D01*
X93667119Y-147094939D01*
X93695222Y-147219639D01*
X93779266Y-147426616D01*
X93895987Y-147617088D01*
X94042250Y-147785938D01*
X94214126Y-147928632D01*
X94281741Y-147968143D01*
X94287445Y-147971476D01*
X94336169Y-148023114D01*
X94349240Y-148092897D01*
X94322509Y-148158669D01*
X94282055Y-148192027D01*
X94269607Y-148198507D01*
X94265474Y-148201610D01*
X94265471Y-148201612D01*
X94241247Y-148219800D01*
X94090965Y-148332635D01*
X93936629Y-148494138D01*
X93810743Y-148678680D01*
X93795003Y-148712590D01*
X93722778Y-148868186D01*
X93716688Y-148881305D01*
X93656989Y-149096570D01*
X93633251Y-149318695D01*
X93633548Y-149323848D01*
X93633548Y-149323851D01*
X93639011Y-149418590D01*
X93646110Y-149541715D01*
X93647247Y-149546761D01*
X93647248Y-149546767D01*
X93667119Y-149634939D01*
X93695222Y-149759639D01*
X93779266Y-149966616D01*
X93895987Y-150157088D01*
X94042250Y-150325938D01*
X94214126Y-150468632D01*
X94283251Y-150509025D01*
X94287445Y-150511476D01*
X94336169Y-150563114D01*
X94349240Y-150632897D01*
X94322509Y-150698669D01*
X94282055Y-150732027D01*
X94269607Y-150738507D01*
X94265474Y-150741610D01*
X94265471Y-150741612D01*
X94241247Y-150759800D01*
X94090965Y-150872635D01*
X93936629Y-151034138D01*
X93810743Y-151218680D01*
X93795496Y-151251528D01*
X93720251Y-151413630D01*
X93716688Y-151421305D01*
X93656989Y-151636570D01*
X93633251Y-151858695D01*
X78576418Y-151858695D01*
X78560852Y-151669361D01*
X78506431Y-151452702D01*
X78417354Y-151247840D01*
X78296014Y-151060277D01*
X78145670Y-150895051D01*
X78141619Y-150891852D01*
X78141615Y-150891848D01*
X77974414Y-150759800D01*
X77974410Y-150759798D01*
X77970359Y-150756598D01*
X77929053Y-150733796D01*
X77879084Y-150683364D01*
X77864312Y-150613921D01*
X77889428Y-150547516D01*
X77916780Y-150520909D01*
X77976663Y-150478195D01*
X78095860Y-150393173D01*
X78254096Y-150235489D01*
X78273863Y-150207981D01*
X78381435Y-150058277D01*
X78384453Y-150054077D01*
X78460228Y-149900758D01*
X78481136Y-149858453D01*
X78481137Y-149858451D01*
X78483430Y-149853811D01*
X78537845Y-149674711D01*
X78546865Y-149645023D01*
X78546865Y-149645021D01*
X78548370Y-149640069D01*
X78577529Y-149418590D01*
X78579156Y-149352000D01*
X78560852Y-149129361D01*
X78506431Y-148912702D01*
X78417354Y-148707840D01*
X78296014Y-148520277D01*
X78145670Y-148355051D01*
X78141619Y-148351852D01*
X78141615Y-148351848D01*
X77974414Y-148219800D01*
X77974410Y-148219798D01*
X77970359Y-148216598D01*
X77929053Y-148193796D01*
X77879084Y-148143364D01*
X77864312Y-148073921D01*
X77889428Y-148007516D01*
X77916780Y-147980909D01*
X77960603Y-147949650D01*
X78095860Y-147853173D01*
X78254096Y-147695489D01*
X78313594Y-147612689D01*
X78381435Y-147518277D01*
X78384453Y-147514077D01*
X78475907Y-147329034D01*
X78481136Y-147318453D01*
X78481137Y-147318451D01*
X78483430Y-147313811D01*
X78548370Y-147100069D01*
X78577529Y-146878590D01*
X78579156Y-146812000D01*
X78560852Y-146589361D01*
X78506431Y-146372702D01*
X78417354Y-146167840D01*
X78296014Y-145980277D01*
X78145670Y-145815051D01*
X78141619Y-145811852D01*
X78141615Y-145811848D01*
X77974414Y-145679800D01*
X77974410Y-145679798D01*
X77970359Y-145676598D01*
X77929053Y-145653796D01*
X77879084Y-145603364D01*
X77864312Y-145533921D01*
X77889428Y-145467516D01*
X77916780Y-145440909D01*
X77960603Y-145409650D01*
X78095860Y-145313173D01*
X78254096Y-145155489D01*
X78313594Y-145072689D01*
X78381435Y-144978277D01*
X78384453Y-144974077D01*
X78392205Y-144958393D01*
X78481136Y-144778453D01*
X78481137Y-144778451D01*
X78483430Y-144773811D01*
X78548370Y-144560069D01*
X78577529Y-144338590D01*
X78577761Y-144329099D01*
X78579074Y-144275365D01*
X78579074Y-144275361D01*
X78579156Y-144272000D01*
X78560852Y-144049361D01*
X78506431Y-143832702D01*
X78417354Y-143627840D01*
X78343585Y-143513811D01*
X78298822Y-143444617D01*
X78298820Y-143444614D01*
X78296014Y-143440277D01*
X78292540Y-143436459D01*
X78292533Y-143436450D01*
X78148435Y-143278088D01*
X78117383Y-143214242D01*
X78125779Y-143143744D01*
X78170956Y-143088976D01*
X78197400Y-143075307D01*
X78304052Y-143035325D01*
X78319649Y-143026786D01*
X78421724Y-142950285D01*
X78434285Y-142937724D01*
X78510786Y-142835649D01*
X78519324Y-142820054D01*
X78564478Y-142699606D01*
X78568105Y-142684351D01*
X78573631Y-142633486D01*
X78574000Y-142626672D01*
X78574000Y-142004115D01*
X78569525Y-141988876D01*
X78568135Y-141987671D01*
X78560452Y-141986000D01*
X75876116Y-141986000D01*
X75860877Y-141990475D01*
X75859672Y-141991865D01*
X75858001Y-141999548D01*
X75858001Y-142626669D01*
X75858371Y-142633490D01*
X75863895Y-142684352D01*
X75867521Y-142699604D01*
X75912676Y-142820054D01*
X75921214Y-142835649D01*
X75997715Y-142937724D01*
X76010276Y-142950285D01*
X76112351Y-143026786D01*
X76127946Y-143035324D01*
X76236827Y-143076142D01*
X76293591Y-143118784D01*
X76318291Y-143185345D01*
X76303083Y-143254694D01*
X76283691Y-143281175D01*
X76160200Y-143410401D01*
X76156629Y-143414138D01*
X76030743Y-143598680D01*
X75936688Y-143801305D01*
X75876989Y-144016570D01*
X75853251Y-144238695D01*
X75853548Y-144243848D01*
X75853548Y-144243851D01*
X75859439Y-144346025D01*
X75866110Y-144461715D01*
X75867247Y-144466761D01*
X75867248Y-144466767D01*
X75876065Y-144505889D01*
X75915222Y-144679639D01*
X75999266Y-144886616D01*
X76115987Y-145077088D01*
X76262250Y-145245938D01*
X76434126Y-145388632D01*
X76504595Y-145429811D01*
X76507445Y-145431476D01*
X76556169Y-145483114D01*
X76569240Y-145552897D01*
X76542509Y-145618669D01*
X76502055Y-145652027D01*
X76489607Y-145658507D01*
X76485474Y-145661610D01*
X76485471Y-145661612D01*
X76461247Y-145679800D01*
X76310965Y-145792635D01*
X76156629Y-145954138D01*
X76030743Y-146138680D01*
X75936688Y-146341305D01*
X75876989Y-146556570D01*
X75853251Y-146778695D01*
X75853548Y-146783848D01*
X75853548Y-146783851D01*
X75859011Y-146878590D01*
X75866110Y-147001715D01*
X75867247Y-147006761D01*
X75867248Y-147006767D01*
X75887119Y-147094939D01*
X75915222Y-147219639D01*
X75999266Y-147426616D01*
X76115987Y-147617088D01*
X76262250Y-147785938D01*
X76434126Y-147928632D01*
X76501741Y-147968143D01*
X76507445Y-147971476D01*
X76556169Y-148023114D01*
X76569240Y-148092897D01*
X76542509Y-148158669D01*
X76502055Y-148192027D01*
X76489607Y-148198507D01*
X76485474Y-148201610D01*
X76485471Y-148201612D01*
X76461247Y-148219800D01*
X76310965Y-148332635D01*
X76156629Y-148494138D01*
X76030743Y-148678680D01*
X76015003Y-148712590D01*
X75942778Y-148868186D01*
X75936688Y-148881305D01*
X75876989Y-149096570D01*
X75853251Y-149318695D01*
X75853548Y-149323848D01*
X75853548Y-149323851D01*
X75859011Y-149418590D01*
X75866110Y-149541715D01*
X75867247Y-149546761D01*
X75867248Y-149546767D01*
X75887119Y-149634939D01*
X75915222Y-149759639D01*
X75999266Y-149966616D01*
X76115987Y-150157088D01*
X76262250Y-150325938D01*
X76434126Y-150468632D01*
X76503251Y-150509025D01*
X76507445Y-150511476D01*
X76556169Y-150563114D01*
X76569240Y-150632897D01*
X76542509Y-150698669D01*
X76502055Y-150732027D01*
X76489607Y-150738507D01*
X76485474Y-150741610D01*
X76485471Y-150741612D01*
X76461247Y-150759800D01*
X76310965Y-150872635D01*
X76156629Y-151034138D01*
X76030743Y-151218680D01*
X76015496Y-151251528D01*
X75940251Y-151413630D01*
X75936688Y-151421305D01*
X75876989Y-151636570D01*
X75853251Y-151858695D01*
X60198500Y-151858695D01*
X60198500Y-148057238D01*
X60218502Y-147989117D01*
X60235405Y-147968143D01*
X63801428Y-144402120D01*
X63863740Y-144368094D01*
X63874507Y-144366237D01*
X63959661Y-144355329D01*
X64032289Y-144346025D01*
X64032292Y-144346024D01*
X64037416Y-144345368D01*
X64060008Y-144338590D01*
X64246429Y-144282661D01*
X64246434Y-144282659D01*
X64251384Y-144281174D01*
X64451994Y-144182896D01*
X64633860Y-144053173D01*
X64637686Y-144049361D01*
X64788435Y-143899137D01*
X64792096Y-143895489D01*
X64922453Y-143714077D01*
X64979486Y-143598680D01*
X65019136Y-143518453D01*
X65019137Y-143518451D01*
X65021430Y-143513811D01*
X65086370Y-143300069D01*
X65115529Y-143078590D01*
X65116586Y-143035324D01*
X65117074Y-143015365D01*
X65117074Y-143015357D01*
X65117156Y-143012000D01*
X65098852Y-142789361D01*
X65044431Y-142572702D01*
X64955354Y-142367840D01*
X64834014Y-142180277D01*
X64683670Y-142015051D01*
X64679619Y-142011852D01*
X64679615Y-142011848D01*
X64512414Y-141879800D01*
X64512410Y-141879798D01*
X64508359Y-141876598D01*
X64467053Y-141853796D01*
X64417084Y-141803364D01*
X64402312Y-141733921D01*
X64427428Y-141667516D01*
X64454780Y-141640909D01*
X64498603Y-141609650D01*
X64633860Y-141513173D01*
X64639423Y-141507630D01*
X64788435Y-141359137D01*
X64792096Y-141355489D01*
X64798402Y-141346714D01*
X64919435Y-141178277D01*
X64922453Y-141174077D01*
X65021430Y-140973811D01*
X65080421Y-140779649D01*
X65084865Y-140765023D01*
X65084865Y-140765021D01*
X65086370Y-140760069D01*
X65115529Y-140538590D01*
X65117156Y-140472000D01*
X65098852Y-140249361D01*
X65044431Y-140032702D01*
X64955354Y-139827840D01*
X64834014Y-139640277D01*
X64683670Y-139475051D01*
X64679619Y-139471852D01*
X64679615Y-139471848D01*
X64512414Y-139339800D01*
X64512410Y-139339798D01*
X64508359Y-139336598D01*
X64467053Y-139313796D01*
X64417084Y-139263364D01*
X64402312Y-139193921D01*
X64415635Y-139158695D01*
X75853251Y-139158695D01*
X75853548Y-139163848D01*
X75853548Y-139163851D01*
X75862669Y-139322031D01*
X75866110Y-139381715D01*
X75867247Y-139386761D01*
X75867248Y-139386767D01*
X75881393Y-139449530D01*
X75915222Y-139599639D01*
X75953461Y-139693811D01*
X75996044Y-139798680D01*
X75999266Y-139806616D01*
X76115987Y-139997088D01*
X76262250Y-140165938D01*
X76266225Y-140169238D01*
X76266231Y-140169244D01*
X76271425Y-140173556D01*
X76311059Y-140232460D01*
X76312555Y-140303441D01*
X76275439Y-140363962D01*
X76235168Y-140388480D01*
X76127946Y-140428676D01*
X76112351Y-140437214D01*
X76010276Y-140513715D01*
X75997715Y-140526276D01*
X75921214Y-140628351D01*
X75912676Y-140643946D01*
X75867522Y-140764394D01*
X75863895Y-140779649D01*
X75858369Y-140830514D01*
X75858000Y-140837328D01*
X75858000Y-141459885D01*
X75862475Y-141475124D01*
X75863865Y-141476329D01*
X75871548Y-141478000D01*
X78555884Y-141478000D01*
X78571123Y-141473525D01*
X78572328Y-141472135D01*
X78573999Y-141464452D01*
X78573999Y-140837331D01*
X78573629Y-140830510D01*
X78568105Y-140779648D01*
X78564479Y-140764396D01*
X78519324Y-140643946D01*
X78510786Y-140628351D01*
X78434285Y-140526276D01*
X78421724Y-140513715D01*
X78319649Y-140437214D01*
X78304054Y-140428676D01*
X78193813Y-140387348D01*
X78137049Y-140344706D01*
X78112349Y-140278145D01*
X78127557Y-140208796D01*
X78149104Y-140180115D01*
X78250430Y-140079144D01*
X78250440Y-140079132D01*
X78254096Y-140075489D01*
X78284842Y-140032702D01*
X78381435Y-139898277D01*
X78384453Y-139894077D01*
X78429281Y-139803375D01*
X78481136Y-139698453D01*
X78481137Y-139698451D01*
X78483430Y-139693811D01*
X78548370Y-139480069D01*
X78577529Y-139258590D01*
X78578261Y-139228638D01*
X78579074Y-139195365D01*
X78579074Y-139195361D01*
X78579156Y-139192000D01*
X78576418Y-139158695D01*
X93633251Y-139158695D01*
X93633548Y-139163848D01*
X93633548Y-139163851D01*
X93642669Y-139322031D01*
X93646110Y-139381715D01*
X93647247Y-139386761D01*
X93647248Y-139386767D01*
X93661393Y-139449530D01*
X93695222Y-139599639D01*
X93733461Y-139693811D01*
X93776044Y-139798680D01*
X93779266Y-139806616D01*
X93895987Y-139997088D01*
X94042250Y-140165938D01*
X94046225Y-140169238D01*
X94046231Y-140169244D01*
X94051425Y-140173556D01*
X94091059Y-140232460D01*
X94092555Y-140303441D01*
X94055439Y-140363962D01*
X94015168Y-140388480D01*
X93907946Y-140428676D01*
X93892351Y-140437214D01*
X93790276Y-140513715D01*
X93777715Y-140526276D01*
X93701214Y-140628351D01*
X93692676Y-140643946D01*
X93647522Y-140764394D01*
X93643895Y-140779649D01*
X93638369Y-140830514D01*
X93638000Y-140837328D01*
X93638000Y-141459885D01*
X93642475Y-141475124D01*
X93643865Y-141476329D01*
X93651548Y-141478000D01*
X96335884Y-141478000D01*
X96351123Y-141473525D01*
X96352328Y-141472135D01*
X96353999Y-141464452D01*
X96353999Y-140837331D01*
X96353629Y-140830510D01*
X96348105Y-140779648D01*
X96344479Y-140764396D01*
X96299324Y-140643946D01*
X96290786Y-140628351D01*
X96214285Y-140526276D01*
X96201724Y-140513715D01*
X96099649Y-140437214D01*
X96084054Y-140428676D01*
X95973813Y-140387348D01*
X95917049Y-140344706D01*
X95892349Y-140278145D01*
X95907557Y-140208796D01*
X95929104Y-140180115D01*
X96030430Y-140079144D01*
X96030440Y-140079132D01*
X96034096Y-140075489D01*
X96064842Y-140032702D01*
X96161435Y-139898277D01*
X96164453Y-139894077D01*
X96209281Y-139803375D01*
X96261136Y-139698453D01*
X96261137Y-139698451D01*
X96263430Y-139693811D01*
X96328370Y-139480069D01*
X96357529Y-139258590D01*
X96358261Y-139228638D01*
X96359074Y-139195365D01*
X96359074Y-139195361D01*
X96359156Y-139192000D01*
X96340852Y-138969361D01*
X96286431Y-138752702D01*
X96197354Y-138547840D01*
X96123585Y-138433811D01*
X96078822Y-138364617D01*
X96078820Y-138364614D01*
X96076014Y-138360277D01*
X95925670Y-138195051D01*
X95921619Y-138191852D01*
X95921615Y-138191848D01*
X95754414Y-138059800D01*
X95754410Y-138059798D01*
X95750359Y-138056598D01*
X95709053Y-138033796D01*
X95659084Y-137983364D01*
X95644312Y-137913921D01*
X95669428Y-137847516D01*
X95696780Y-137820909D01*
X95705765Y-137814500D01*
X103581510Y-137814500D01*
X103601856Y-138202718D01*
X103602369Y-138205958D01*
X103602370Y-138205966D01*
X103622079Y-138330401D01*
X103662670Y-138586682D01*
X103763286Y-138962186D01*
X103764471Y-138965274D01*
X103764472Y-138965276D01*
X103816536Y-139100909D01*
X103902601Y-139325116D01*
X104079090Y-139671495D01*
X104290819Y-139997529D01*
X104292897Y-140000095D01*
X104498929Y-140254522D01*
X104535468Y-140299644D01*
X104810356Y-140574532D01*
X104812914Y-140576604D01*
X104812918Y-140576607D01*
X104924256Y-140666767D01*
X105112471Y-140819181D01*
X105438505Y-141030910D01*
X105784884Y-141207399D01*
X106147814Y-141346714D01*
X106523318Y-141447330D01*
X106716961Y-141478000D01*
X106904034Y-141507630D01*
X106904042Y-141507631D01*
X106907282Y-141508144D01*
X107295500Y-141528490D01*
X107683718Y-141508144D01*
X107686958Y-141507631D01*
X107686966Y-141507630D01*
X107874039Y-141478000D01*
X108067682Y-141447330D01*
X108443186Y-141346714D01*
X108806116Y-141207399D01*
X109152495Y-141030910D01*
X109478529Y-140819181D01*
X109666744Y-140666767D01*
X109778082Y-140576607D01*
X109778086Y-140576604D01*
X109780644Y-140574532D01*
X110055532Y-140299644D01*
X110092072Y-140254522D01*
X110298103Y-140000095D01*
X110300181Y-139997529D01*
X110511910Y-139671495D01*
X110688399Y-139325116D01*
X110774464Y-139100909D01*
X110826528Y-138965276D01*
X110826529Y-138965274D01*
X110827714Y-138962186D01*
X110928330Y-138586682D01*
X110968921Y-138330401D01*
X110988630Y-138205966D01*
X110988631Y-138205958D01*
X110989144Y-138202718D01*
X111009490Y-137814500D01*
X110989144Y-137426282D01*
X110979894Y-137367875D01*
X110938197Y-137104617D01*
X110928330Y-137042318D01*
X110827714Y-136666814D01*
X110822028Y-136652000D01*
X110730972Y-136414792D01*
X110688399Y-136303884D01*
X110511910Y-135957505D01*
X110300181Y-135631471D01*
X110097494Y-135381174D01*
X110057607Y-135331918D01*
X110057604Y-135331914D01*
X110055532Y-135329356D01*
X109780644Y-135054468D01*
X109712317Y-134999137D01*
X109481095Y-134811897D01*
X109478529Y-134809819D01*
X109152495Y-134598090D01*
X108806116Y-134421601D01*
X108493801Y-134301715D01*
X108446276Y-134283472D01*
X108446274Y-134283471D01*
X108443186Y-134282286D01*
X108067682Y-134181670D01*
X107863664Y-134149357D01*
X107686966Y-134121370D01*
X107686958Y-134121369D01*
X107683718Y-134120856D01*
X107295500Y-134100510D01*
X106907282Y-134120856D01*
X106904042Y-134121369D01*
X106904034Y-134121370D01*
X106727336Y-134149357D01*
X106523318Y-134181670D01*
X106147814Y-134282286D01*
X106144726Y-134283471D01*
X106144724Y-134283472D01*
X106097199Y-134301715D01*
X105784884Y-134421601D01*
X105438505Y-134598090D01*
X105112471Y-134809819D01*
X105109905Y-134811897D01*
X104878684Y-134999137D01*
X104810356Y-135054468D01*
X104535468Y-135329356D01*
X104533396Y-135331914D01*
X104533393Y-135331918D01*
X104493506Y-135381174D01*
X104290819Y-135631471D01*
X104079090Y-135957505D01*
X103902601Y-136303884D01*
X103860028Y-136414792D01*
X103768973Y-136652000D01*
X103763286Y-136666814D01*
X103662670Y-137042318D01*
X103652803Y-137104617D01*
X103611107Y-137367875D01*
X103601856Y-137426282D01*
X103581510Y-137814500D01*
X95705765Y-137814500D01*
X95740603Y-137789650D01*
X95875860Y-137693173D01*
X95896354Y-137672751D01*
X96003131Y-137566346D01*
X96034096Y-137535489D01*
X96064842Y-137492702D01*
X96161435Y-137358277D01*
X96164453Y-137354077D01*
X96202051Y-137278004D01*
X96261136Y-137158453D01*
X96261137Y-137158451D01*
X96263430Y-137153811D01*
X96328370Y-136940069D01*
X96357529Y-136718590D01*
X96357611Y-136715240D01*
X96359074Y-136655365D01*
X96359074Y-136655361D01*
X96359156Y-136652000D01*
X96340852Y-136429361D01*
X96286431Y-136212702D01*
X96197354Y-136007840D01*
X96076014Y-135820277D01*
X95925670Y-135655051D01*
X95921619Y-135651852D01*
X95921615Y-135651848D01*
X95754414Y-135519800D01*
X95754410Y-135519798D01*
X95750359Y-135516598D01*
X95709053Y-135493796D01*
X95659084Y-135443364D01*
X95644312Y-135373921D01*
X95669428Y-135307516D01*
X95696780Y-135280909D01*
X95740603Y-135249650D01*
X95875860Y-135153173D01*
X96034096Y-134995489D01*
X96093594Y-134912689D01*
X96161435Y-134818277D01*
X96164453Y-134814077D01*
X96263430Y-134613811D01*
X96320979Y-134424396D01*
X96326865Y-134405023D01*
X96326865Y-134405021D01*
X96328370Y-134400069D01*
X96357529Y-134178590D01*
X96359156Y-134112000D01*
X96340852Y-133889361D01*
X96286431Y-133672702D01*
X96197354Y-133467840D01*
X96076014Y-133280277D01*
X95925670Y-133115051D01*
X95921619Y-133111852D01*
X95921615Y-133111848D01*
X95754414Y-132979800D01*
X95754410Y-132979798D01*
X95750359Y-132976598D01*
X95709053Y-132953796D01*
X95659084Y-132903364D01*
X95644312Y-132833921D01*
X95669428Y-132767516D01*
X95696780Y-132740909D01*
X95740603Y-132709650D01*
X95875860Y-132613173D01*
X96034096Y-132455489D01*
X96093594Y-132372689D01*
X96161435Y-132278277D01*
X96164453Y-132274077D01*
X96263430Y-132073811D01*
X96328370Y-131860069D01*
X96357529Y-131638590D01*
X96359156Y-131572000D01*
X96340852Y-131349361D01*
X96286431Y-131132702D01*
X96197354Y-130927840D01*
X96076014Y-130740277D01*
X96072540Y-130736459D01*
X96072533Y-130736450D01*
X95928435Y-130578088D01*
X95897383Y-130514242D01*
X95905779Y-130443744D01*
X95950956Y-130388976D01*
X95977400Y-130375307D01*
X96084052Y-130335325D01*
X96099649Y-130326786D01*
X96201724Y-130250285D01*
X96214285Y-130237724D01*
X96290786Y-130135649D01*
X96299324Y-130120054D01*
X96344478Y-129999606D01*
X96348105Y-129984351D01*
X96353631Y-129933486D01*
X96354000Y-129926672D01*
X96354000Y-129304115D01*
X96349525Y-129288876D01*
X96348135Y-129287671D01*
X96340452Y-129286000D01*
X93656116Y-129286000D01*
X93640877Y-129290475D01*
X93639672Y-129291865D01*
X93638001Y-129299548D01*
X93638001Y-129926669D01*
X93638371Y-129933490D01*
X93643895Y-129984352D01*
X93647521Y-129999604D01*
X93692676Y-130120054D01*
X93701214Y-130135649D01*
X93777715Y-130237724D01*
X93790276Y-130250285D01*
X93892351Y-130326786D01*
X93907946Y-130335324D01*
X94016827Y-130376142D01*
X94073591Y-130418784D01*
X94098291Y-130485345D01*
X94083083Y-130554694D01*
X94063691Y-130581175D01*
X93940200Y-130710401D01*
X93936629Y-130714138D01*
X93810743Y-130898680D01*
X93716688Y-131101305D01*
X93656989Y-131316570D01*
X93633251Y-131538695D01*
X93633548Y-131543848D01*
X93633548Y-131543851D01*
X93639011Y-131638590D01*
X93646110Y-131761715D01*
X93647247Y-131766761D01*
X93647248Y-131766767D01*
X93667119Y-131854939D01*
X93695222Y-131979639D01*
X93779266Y-132186616D01*
X93895987Y-132377088D01*
X94042250Y-132545938D01*
X94214126Y-132688632D01*
X94284595Y-132729811D01*
X94287445Y-132731476D01*
X94336169Y-132783114D01*
X94349240Y-132852897D01*
X94322509Y-132918669D01*
X94282055Y-132952027D01*
X94269607Y-132958507D01*
X94265474Y-132961610D01*
X94265471Y-132961612D01*
X94241247Y-132979800D01*
X94090965Y-133092635D01*
X93936629Y-133254138D01*
X93810743Y-133438680D01*
X93716688Y-133641305D01*
X93656989Y-133856570D01*
X93633251Y-134078695D01*
X93633548Y-134083848D01*
X93633548Y-134083851D01*
X93639188Y-134181670D01*
X93646110Y-134301715D01*
X93647247Y-134306761D01*
X93647248Y-134306767D01*
X93667119Y-134394939D01*
X93695222Y-134519639D01*
X93779266Y-134726616D01*
X93895987Y-134917088D01*
X94042250Y-135085938D01*
X94214126Y-135228632D01*
X94284595Y-135269811D01*
X94287445Y-135271476D01*
X94336169Y-135323114D01*
X94349240Y-135392897D01*
X94322509Y-135458669D01*
X94282055Y-135492027D01*
X94269607Y-135498507D01*
X94265474Y-135501610D01*
X94265471Y-135501612D01*
X94095100Y-135629530D01*
X94090965Y-135632635D01*
X93936629Y-135794138D01*
X93810743Y-135978680D01*
X93716688Y-136181305D01*
X93656989Y-136396570D01*
X93633251Y-136618695D01*
X93633548Y-136623848D01*
X93633548Y-136623851D01*
X93642481Y-136778784D01*
X93646110Y-136841715D01*
X93647247Y-136846761D01*
X93647248Y-136846767D01*
X93667119Y-136934939D01*
X93695222Y-137059639D01*
X93745244Y-137182830D01*
X93776044Y-137258680D01*
X93779266Y-137266616D01*
X93782639Y-137272120D01*
X93890745Y-137448533D01*
X93895987Y-137457088D01*
X94042250Y-137625938D01*
X94214126Y-137768632D01*
X94284595Y-137809811D01*
X94287445Y-137811476D01*
X94336169Y-137863114D01*
X94349240Y-137932897D01*
X94322509Y-137998669D01*
X94282055Y-138032027D01*
X94269607Y-138038507D01*
X94265474Y-138041610D01*
X94265471Y-138041612D01*
X94095100Y-138169530D01*
X94090965Y-138172635D01*
X93936629Y-138334138D01*
X93810743Y-138518680D01*
X93716688Y-138721305D01*
X93656989Y-138936570D01*
X93633251Y-139158695D01*
X78576418Y-139158695D01*
X78560852Y-138969361D01*
X78506431Y-138752702D01*
X78417354Y-138547840D01*
X78343585Y-138433811D01*
X78298822Y-138364617D01*
X78298820Y-138364614D01*
X78296014Y-138360277D01*
X78145670Y-138195051D01*
X78141619Y-138191852D01*
X78141615Y-138191848D01*
X77974414Y-138059800D01*
X77974410Y-138059798D01*
X77970359Y-138056598D01*
X77929053Y-138033796D01*
X77879084Y-137983364D01*
X77864312Y-137913921D01*
X77889428Y-137847516D01*
X77916780Y-137820909D01*
X77960603Y-137789650D01*
X78095860Y-137693173D01*
X78116354Y-137672751D01*
X78223131Y-137566346D01*
X78254096Y-137535489D01*
X78284842Y-137492702D01*
X78381435Y-137358277D01*
X78384453Y-137354077D01*
X78422051Y-137278004D01*
X78481136Y-137158453D01*
X78481137Y-137158451D01*
X78483430Y-137153811D01*
X78548370Y-136940069D01*
X78577529Y-136718590D01*
X78577611Y-136715240D01*
X78579074Y-136655365D01*
X78579074Y-136655361D01*
X78579156Y-136652000D01*
X78560852Y-136429361D01*
X78506431Y-136212702D01*
X78417354Y-136007840D01*
X78296014Y-135820277D01*
X78145670Y-135655051D01*
X78141619Y-135651852D01*
X78141615Y-135651848D01*
X77974414Y-135519800D01*
X77974410Y-135519798D01*
X77970359Y-135516598D01*
X77929053Y-135493796D01*
X77879084Y-135443364D01*
X77864312Y-135373921D01*
X77889428Y-135307516D01*
X77916780Y-135280909D01*
X77960603Y-135249650D01*
X78095860Y-135153173D01*
X78254096Y-134995489D01*
X78313594Y-134912689D01*
X78381435Y-134818277D01*
X78384453Y-134814077D01*
X78483430Y-134613811D01*
X78540979Y-134424396D01*
X78546865Y-134405023D01*
X78546865Y-134405021D01*
X78548370Y-134400069D01*
X78577529Y-134178590D01*
X78579156Y-134112000D01*
X78560852Y-133889361D01*
X78506431Y-133672702D01*
X78417354Y-133467840D01*
X78296014Y-133280277D01*
X78145670Y-133115051D01*
X78141619Y-133111852D01*
X78141615Y-133111848D01*
X77974414Y-132979800D01*
X77974410Y-132979798D01*
X77970359Y-132976598D01*
X77929053Y-132953796D01*
X77879084Y-132903364D01*
X77864312Y-132833921D01*
X77889428Y-132767516D01*
X77916780Y-132740909D01*
X77960603Y-132709650D01*
X78095860Y-132613173D01*
X78254096Y-132455489D01*
X78313594Y-132372689D01*
X78381435Y-132278277D01*
X78384453Y-132274077D01*
X78483430Y-132073811D01*
X78548370Y-131860069D01*
X78577529Y-131638590D01*
X78579156Y-131572000D01*
X78560852Y-131349361D01*
X78506431Y-131132702D01*
X78417354Y-130927840D01*
X78296014Y-130740277D01*
X78292540Y-130736459D01*
X78292533Y-130736450D01*
X78148435Y-130578088D01*
X78117383Y-130514242D01*
X78125779Y-130443744D01*
X78170956Y-130388976D01*
X78197400Y-130375307D01*
X78304052Y-130335325D01*
X78319649Y-130326786D01*
X78421724Y-130250285D01*
X78434285Y-130237724D01*
X78510786Y-130135649D01*
X78519324Y-130120054D01*
X78564478Y-129999606D01*
X78568105Y-129984351D01*
X78573631Y-129933486D01*
X78574000Y-129926672D01*
X78574000Y-129304115D01*
X78569525Y-129288876D01*
X78568135Y-129287671D01*
X78560452Y-129286000D01*
X75876116Y-129286000D01*
X75860877Y-129290475D01*
X75859672Y-129291865D01*
X75858001Y-129299548D01*
X75858001Y-129926669D01*
X75858371Y-129933490D01*
X75863895Y-129984352D01*
X75867521Y-129999604D01*
X75912676Y-130120054D01*
X75921214Y-130135649D01*
X75997715Y-130237724D01*
X76010276Y-130250285D01*
X76112351Y-130326786D01*
X76127946Y-130335324D01*
X76236827Y-130376142D01*
X76293591Y-130418784D01*
X76318291Y-130485345D01*
X76303083Y-130554694D01*
X76283691Y-130581175D01*
X76160200Y-130710401D01*
X76156629Y-130714138D01*
X76030743Y-130898680D01*
X75936688Y-131101305D01*
X75876989Y-131316570D01*
X75853251Y-131538695D01*
X75853548Y-131543848D01*
X75853548Y-131543851D01*
X75859011Y-131638590D01*
X75866110Y-131761715D01*
X75867247Y-131766761D01*
X75867248Y-131766767D01*
X75887119Y-131854939D01*
X75915222Y-131979639D01*
X75999266Y-132186616D01*
X76115987Y-132377088D01*
X76262250Y-132545938D01*
X76434126Y-132688632D01*
X76504595Y-132729811D01*
X76507445Y-132731476D01*
X76556169Y-132783114D01*
X76569240Y-132852897D01*
X76542509Y-132918669D01*
X76502055Y-132952027D01*
X76489607Y-132958507D01*
X76485474Y-132961610D01*
X76485471Y-132961612D01*
X76461247Y-132979800D01*
X76310965Y-133092635D01*
X76156629Y-133254138D01*
X76030743Y-133438680D01*
X75936688Y-133641305D01*
X75876989Y-133856570D01*
X75853251Y-134078695D01*
X75853548Y-134083848D01*
X75853548Y-134083851D01*
X75859188Y-134181670D01*
X75866110Y-134301715D01*
X75867247Y-134306761D01*
X75867248Y-134306767D01*
X75887119Y-134394939D01*
X75915222Y-134519639D01*
X75999266Y-134726616D01*
X76115987Y-134917088D01*
X76262250Y-135085938D01*
X76434126Y-135228632D01*
X76504595Y-135269811D01*
X76507445Y-135271476D01*
X76556169Y-135323114D01*
X76569240Y-135392897D01*
X76542509Y-135458669D01*
X76502055Y-135492027D01*
X76489607Y-135498507D01*
X76485474Y-135501610D01*
X76485471Y-135501612D01*
X76315100Y-135629530D01*
X76310965Y-135632635D01*
X76156629Y-135794138D01*
X76030743Y-135978680D01*
X75936688Y-136181305D01*
X75876989Y-136396570D01*
X75853251Y-136618695D01*
X75853548Y-136623848D01*
X75853548Y-136623851D01*
X75862481Y-136778784D01*
X75866110Y-136841715D01*
X75867247Y-136846761D01*
X75867248Y-136846767D01*
X75887119Y-136934939D01*
X75915222Y-137059639D01*
X75965244Y-137182830D01*
X75996044Y-137258680D01*
X75999266Y-137266616D01*
X76002639Y-137272120D01*
X76110745Y-137448533D01*
X76115987Y-137457088D01*
X76262250Y-137625938D01*
X76434126Y-137768632D01*
X76504595Y-137809811D01*
X76507445Y-137811476D01*
X76556169Y-137863114D01*
X76569240Y-137932897D01*
X76542509Y-137998669D01*
X76502055Y-138032027D01*
X76489607Y-138038507D01*
X76485474Y-138041610D01*
X76485471Y-138041612D01*
X76315100Y-138169530D01*
X76310965Y-138172635D01*
X76156629Y-138334138D01*
X76030743Y-138518680D01*
X75936688Y-138721305D01*
X75876989Y-138936570D01*
X75853251Y-139158695D01*
X64415635Y-139158695D01*
X64427428Y-139127516D01*
X64454780Y-139100909D01*
X64498603Y-139069650D01*
X64633860Y-138973173D01*
X64637686Y-138969361D01*
X64788435Y-138819137D01*
X64792096Y-138815489D01*
X64851594Y-138732689D01*
X64919435Y-138638277D01*
X64922453Y-138634077D01*
X64979486Y-138518680D01*
X65019136Y-138438453D01*
X65019137Y-138438451D01*
X65021430Y-138433811D01*
X65086370Y-138220069D01*
X65115529Y-137998590D01*
X65115901Y-137983364D01*
X65117074Y-137935365D01*
X65117074Y-137935357D01*
X65117156Y-137932000D01*
X65098852Y-137709361D01*
X65044431Y-137492702D01*
X64955354Y-137287840D01*
X64888176Y-137183998D01*
X64836822Y-137104617D01*
X64836820Y-137104614D01*
X64834014Y-137100277D01*
X64830540Y-137096459D01*
X64830533Y-137096450D01*
X64686435Y-136938088D01*
X64655383Y-136874242D01*
X64663779Y-136803744D01*
X64708956Y-136748976D01*
X64735400Y-136735307D01*
X64842052Y-136695325D01*
X64857649Y-136686786D01*
X64959724Y-136610285D01*
X64972285Y-136597724D01*
X65048786Y-136495649D01*
X65057324Y-136480054D01*
X65102478Y-136359606D01*
X65106105Y-136344351D01*
X65111631Y-136293486D01*
X65112000Y-136286672D01*
X65112000Y-135664115D01*
X65107525Y-135648876D01*
X65106135Y-135647671D01*
X65098452Y-135646000D01*
X62414116Y-135646000D01*
X62398877Y-135650475D01*
X62397672Y-135651865D01*
X62396001Y-135659548D01*
X62396001Y-136286669D01*
X62396371Y-136293490D01*
X62401895Y-136344352D01*
X62405521Y-136359604D01*
X62450676Y-136480054D01*
X62459214Y-136495649D01*
X62535715Y-136597724D01*
X62548276Y-136610285D01*
X62650351Y-136686786D01*
X62665946Y-136695324D01*
X62774827Y-136736142D01*
X62831591Y-136778784D01*
X62856291Y-136845345D01*
X62841083Y-136914694D01*
X62821691Y-136941175D01*
X62703911Y-137064425D01*
X62694629Y-137074138D01*
X62691715Y-137078410D01*
X62691714Y-137078411D01*
X62643659Y-137148857D01*
X62568743Y-137258680D01*
X62553003Y-137292590D01*
X62480402Y-137448996D01*
X62474688Y-137461305D01*
X62414989Y-137676570D01*
X62391251Y-137898695D01*
X62391548Y-137903848D01*
X62391548Y-137903851D01*
X62402995Y-138102385D01*
X62404110Y-138121715D01*
X62405247Y-138126761D01*
X62405248Y-138126767D01*
X62422365Y-138202718D01*
X62453222Y-138339639D01*
X62537266Y-138546616D01*
X62653987Y-138737088D01*
X62800250Y-138905938D01*
X62972126Y-139048632D01*
X63042595Y-139089811D01*
X63045445Y-139091476D01*
X63094169Y-139143114D01*
X63107240Y-139212897D01*
X63080509Y-139278669D01*
X63040055Y-139312027D01*
X63027607Y-139318507D01*
X63023474Y-139321610D01*
X63023471Y-139321612D01*
X62936693Y-139386767D01*
X62848965Y-139452635D01*
X62818014Y-139485023D01*
X62708485Y-139599639D01*
X62694629Y-139614138D01*
X62691715Y-139618410D01*
X62691714Y-139618411D01*
X62655503Y-139671495D01*
X62568743Y-139798680D01*
X62474688Y-140001305D01*
X62414989Y-140216570D01*
X62391251Y-140438695D01*
X62391548Y-140443848D01*
X62391548Y-140443851D01*
X62397011Y-140538590D01*
X62404110Y-140661715D01*
X62405247Y-140666761D01*
X62405248Y-140666767D01*
X62425119Y-140754939D01*
X62453222Y-140879639D01*
X62537266Y-141086616D01*
X62653987Y-141277088D01*
X62800250Y-141445938D01*
X62972126Y-141588632D01*
X63042595Y-141629811D01*
X63045445Y-141631476D01*
X63094169Y-141683114D01*
X63107240Y-141752897D01*
X63080509Y-141818669D01*
X63040055Y-141852027D01*
X63027607Y-141858507D01*
X63023474Y-141861610D01*
X63023471Y-141861612D01*
X62853100Y-141989530D01*
X62848965Y-141992635D01*
X62694629Y-142154138D01*
X62568743Y-142338680D01*
X62474688Y-142541305D01*
X62414989Y-142756570D01*
X62414440Y-142761707D01*
X62400944Y-142887993D01*
X62373816Y-142953603D01*
X62364752Y-142963699D01*
X58635595Y-146692857D01*
X58573283Y-146726883D01*
X58502468Y-146721818D01*
X58445632Y-146679271D01*
X58420821Y-146612751D01*
X58420500Y-146603762D01*
X58420500Y-135119885D01*
X62396000Y-135119885D01*
X62400475Y-135135124D01*
X62401865Y-135136329D01*
X62409548Y-135138000D01*
X63481885Y-135138000D01*
X63497124Y-135133525D01*
X63498329Y-135132135D01*
X63500000Y-135124452D01*
X63500000Y-135119885D01*
X64008000Y-135119885D01*
X64012475Y-135135124D01*
X64013865Y-135136329D01*
X64021548Y-135138000D01*
X65093884Y-135138000D01*
X65109123Y-135133525D01*
X65110328Y-135132135D01*
X65111999Y-135124452D01*
X65111999Y-134497331D01*
X65111629Y-134490510D01*
X65106105Y-134439648D01*
X65102479Y-134424396D01*
X65057324Y-134303946D01*
X65048786Y-134288351D01*
X64972285Y-134186276D01*
X64959724Y-134173715D01*
X64857649Y-134097214D01*
X64842054Y-134088676D01*
X64721606Y-134043522D01*
X64706351Y-134039895D01*
X64655486Y-134034369D01*
X64648672Y-134034000D01*
X64026115Y-134034000D01*
X64010876Y-134038475D01*
X64009671Y-134039865D01*
X64008000Y-134047548D01*
X64008000Y-135119885D01*
X63500000Y-135119885D01*
X63500000Y-134052116D01*
X63495525Y-134036877D01*
X63494135Y-134035672D01*
X63486452Y-134034001D01*
X62859331Y-134034001D01*
X62852510Y-134034371D01*
X62801648Y-134039895D01*
X62786396Y-134043521D01*
X62665946Y-134088676D01*
X62650351Y-134097214D01*
X62548276Y-134173715D01*
X62535715Y-134186276D01*
X62459214Y-134288351D01*
X62450676Y-134303946D01*
X62405522Y-134424394D01*
X62401895Y-134439649D01*
X62396369Y-134490514D01*
X62396000Y-134497328D01*
X62396000Y-135119885D01*
X58420500Y-135119885D01*
X58420500Y-128270000D01*
X59176647Y-128270000D01*
X59196022Y-128491463D01*
X59253560Y-128706196D01*
X59255882Y-128711177D01*
X59255883Y-128711178D01*
X59345186Y-128902689D01*
X59345189Y-128902694D01*
X59347512Y-128907676D01*
X59350668Y-128912183D01*
X59350669Y-128912185D01*
X59387107Y-128964223D01*
X59475023Y-129089781D01*
X59632219Y-129246977D01*
X59636727Y-129250134D01*
X59636730Y-129250136D01*
X59700810Y-129295005D01*
X59814323Y-129374488D01*
X59819305Y-129376811D01*
X59819310Y-129376814D01*
X60009810Y-129465645D01*
X60015804Y-129468440D01*
X60021112Y-129469862D01*
X60021114Y-129469863D01*
X60070974Y-129483223D01*
X60230537Y-129525978D01*
X60452000Y-129545353D01*
X60673463Y-129525978D01*
X60833026Y-129483223D01*
X60882886Y-129469863D01*
X60882888Y-129469862D01*
X60888196Y-129468440D01*
X60894190Y-129465645D01*
X61084690Y-129376814D01*
X61084695Y-129376811D01*
X61089677Y-129374488D01*
X61154959Y-129328777D01*
X67377777Y-129328777D01*
X67387074Y-129340793D01*
X67430069Y-129370898D01*
X67439555Y-129376376D01*
X67630993Y-129465645D01*
X67641285Y-129469391D01*
X67845309Y-129524059D01*
X67856104Y-129525962D01*
X68066525Y-129544372D01*
X68077475Y-129544372D01*
X68287896Y-129525962D01*
X68298691Y-129524059D01*
X68502715Y-129469391D01*
X68513007Y-129465645D01*
X68704445Y-129376376D01*
X68713931Y-129370898D01*
X68757764Y-129340207D01*
X68766139Y-129329729D01*
X68759071Y-129316281D01*
X68084812Y-128642022D01*
X68070868Y-128634408D01*
X68069035Y-128634539D01*
X68062420Y-128638790D01*
X67384207Y-129317003D01*
X67377777Y-129328777D01*
X61154959Y-129328777D01*
X61203190Y-129295005D01*
X61267270Y-129250136D01*
X61267273Y-129250134D01*
X61271781Y-129246977D01*
X61428977Y-129089781D01*
X61516894Y-128964223D01*
X61553331Y-128912185D01*
X61553332Y-128912183D01*
X61556488Y-128907676D01*
X61558811Y-128902694D01*
X61558814Y-128902689D01*
X61648117Y-128711178D01*
X61648118Y-128711177D01*
X61650440Y-128706196D01*
X61707978Y-128491463D01*
X61726874Y-128275475D01*
X66797628Y-128275475D01*
X66816038Y-128485896D01*
X66817941Y-128496691D01*
X66872609Y-128700715D01*
X66876355Y-128711007D01*
X66965623Y-128902441D01*
X66971103Y-128911932D01*
X67001794Y-128955765D01*
X67012271Y-128964140D01*
X67025718Y-128957072D01*
X67699978Y-128282812D01*
X67706356Y-128271132D01*
X68436408Y-128271132D01*
X68436539Y-128272965D01*
X68440790Y-128279580D01*
X69119003Y-128957793D01*
X69130777Y-128964223D01*
X69142793Y-128954926D01*
X69172897Y-128911932D01*
X69178377Y-128902441D01*
X69267645Y-128711007D01*
X69271391Y-128700715D01*
X69326059Y-128496691D01*
X69327962Y-128485896D01*
X69346372Y-128275475D01*
X69346372Y-128264525D01*
X69327962Y-128054104D01*
X69326059Y-128043309D01*
X69271391Y-127839285D01*
X69267645Y-127828993D01*
X69178377Y-127637559D01*
X69172897Y-127628068D01*
X69142206Y-127584235D01*
X69131729Y-127575860D01*
X69118282Y-127582928D01*
X68444022Y-128257188D01*
X68436408Y-128271132D01*
X67706356Y-128271132D01*
X67707592Y-128268868D01*
X67707461Y-128267035D01*
X67703210Y-128260420D01*
X67024997Y-127582207D01*
X67013223Y-127575777D01*
X67001207Y-127585074D01*
X66971103Y-127628068D01*
X66965623Y-127637559D01*
X66876355Y-127828993D01*
X66872609Y-127839285D01*
X66817941Y-128043309D01*
X66816038Y-128054104D01*
X66797628Y-128264525D01*
X66797628Y-128275475D01*
X61726874Y-128275475D01*
X61727353Y-128270000D01*
X61707978Y-128048537D01*
X61655787Y-127853758D01*
X61651863Y-127839114D01*
X61651862Y-127839112D01*
X61650440Y-127833804D01*
X61615489Y-127758851D01*
X61558814Y-127637311D01*
X61558811Y-127637306D01*
X61556488Y-127632324D01*
X61536264Y-127603441D01*
X61432136Y-127454730D01*
X61432134Y-127454727D01*
X61428977Y-127450219D01*
X61271781Y-127293023D01*
X61267273Y-127289866D01*
X61267270Y-127289864D01*
X61178065Y-127227402D01*
X61089677Y-127165512D01*
X61084695Y-127163189D01*
X61084690Y-127163186D01*
X60979627Y-127114195D01*
X60926342Y-127067278D01*
X60906881Y-126999001D01*
X60927423Y-126931041D01*
X60979627Y-126885805D01*
X61084690Y-126836814D01*
X61084695Y-126836811D01*
X61089677Y-126834488D01*
X61207593Y-126751922D01*
X61267270Y-126710136D01*
X61267273Y-126710134D01*
X61271781Y-126706977D01*
X61428977Y-126549781D01*
X61464485Y-126499071D01*
X61553331Y-126372185D01*
X61553332Y-126372183D01*
X61556488Y-126367676D01*
X61558811Y-126362694D01*
X61558814Y-126362689D01*
X61648117Y-126171178D01*
X61648118Y-126171177D01*
X61650440Y-126166196D01*
X61707978Y-125951463D01*
X61727353Y-125730000D01*
X66796647Y-125730000D01*
X66816022Y-125951463D01*
X66873560Y-126166196D01*
X66875882Y-126171177D01*
X66875883Y-126171178D01*
X66965186Y-126362689D01*
X66965189Y-126362694D01*
X66967512Y-126367676D01*
X66970668Y-126372183D01*
X66970669Y-126372185D01*
X67059516Y-126499071D01*
X67095023Y-126549781D01*
X67252219Y-126706977D01*
X67256727Y-126710134D01*
X67256730Y-126710136D01*
X67316407Y-126751922D01*
X67434323Y-126834488D01*
X67439305Y-126836811D01*
X67439310Y-126836814D01*
X67544965Y-126886081D01*
X67598250Y-126932998D01*
X67617711Y-127001275D01*
X67597169Y-127069235D01*
X67544965Y-127114471D01*
X67439559Y-127163623D01*
X67430068Y-127169103D01*
X67386235Y-127199794D01*
X67377860Y-127210271D01*
X67384928Y-127223718D01*
X68059188Y-127897978D01*
X68073132Y-127905592D01*
X68074965Y-127905461D01*
X68081580Y-127901210D01*
X68759793Y-127222997D01*
X68766223Y-127211223D01*
X68756926Y-127199207D01*
X68713931Y-127169102D01*
X68704445Y-127163624D01*
X68599035Y-127114471D01*
X68545750Y-127067554D01*
X68526289Y-126999277D01*
X68546831Y-126931317D01*
X68599035Y-126886081D01*
X68704690Y-126836814D01*
X68704695Y-126836811D01*
X68709677Y-126834488D01*
X68827593Y-126751922D01*
X68887270Y-126710136D01*
X68887273Y-126710134D01*
X68891781Y-126706977D01*
X69048977Y-126549781D01*
X69084485Y-126499071D01*
X69112756Y-126458695D01*
X75853251Y-126458695D01*
X75853548Y-126463848D01*
X75853548Y-126463851D01*
X75859011Y-126558590D01*
X75866110Y-126681715D01*
X75867247Y-126686761D01*
X75867248Y-126686767D01*
X75881932Y-126751922D01*
X75915222Y-126899639D01*
X75999266Y-127106616D01*
X76035357Y-127165512D01*
X76073284Y-127227402D01*
X76115987Y-127297088D01*
X76262250Y-127465938D01*
X76266225Y-127469238D01*
X76266231Y-127469244D01*
X76271425Y-127473556D01*
X76311059Y-127532460D01*
X76312555Y-127603441D01*
X76275439Y-127663962D01*
X76235168Y-127688480D01*
X76127946Y-127728676D01*
X76112351Y-127737214D01*
X76010276Y-127813715D01*
X75997715Y-127826276D01*
X75921214Y-127928351D01*
X75912676Y-127943946D01*
X75867522Y-128064394D01*
X75863895Y-128079649D01*
X75858369Y-128130514D01*
X75858000Y-128137328D01*
X75858000Y-128759885D01*
X75862475Y-128775124D01*
X75863865Y-128776329D01*
X75871548Y-128778000D01*
X78555884Y-128778000D01*
X78571123Y-128773525D01*
X78572328Y-128772135D01*
X78573999Y-128764452D01*
X78573999Y-128137331D01*
X78573629Y-128130510D01*
X78568105Y-128079648D01*
X78564479Y-128064396D01*
X78519324Y-127943946D01*
X78510786Y-127928351D01*
X78434285Y-127826276D01*
X78421724Y-127813715D01*
X78319649Y-127737214D01*
X78304054Y-127728676D01*
X78193813Y-127687348D01*
X78137049Y-127644706D01*
X78112349Y-127578145D01*
X78127557Y-127508796D01*
X78149104Y-127480115D01*
X78250430Y-127379144D01*
X78250440Y-127379132D01*
X78254096Y-127375489D01*
X78313354Y-127293023D01*
X78381435Y-127198277D01*
X78384453Y-127194077D01*
X78396797Y-127169102D01*
X78481136Y-126998453D01*
X78481137Y-126998451D01*
X78483430Y-126993811D01*
X78516245Y-126885805D01*
X78546865Y-126785023D01*
X78546865Y-126785021D01*
X78548370Y-126780069D01*
X78577529Y-126558590D01*
X78577744Y-126549781D01*
X78579074Y-126495365D01*
X78579074Y-126495361D01*
X78579156Y-126492000D01*
X78576418Y-126458695D01*
X93633251Y-126458695D01*
X93633548Y-126463848D01*
X93633548Y-126463851D01*
X93639011Y-126558590D01*
X93646110Y-126681715D01*
X93647247Y-126686761D01*
X93647248Y-126686767D01*
X93661932Y-126751922D01*
X93695222Y-126899639D01*
X93779266Y-127106616D01*
X93815357Y-127165512D01*
X93853284Y-127227402D01*
X93895987Y-127297088D01*
X94042250Y-127465938D01*
X94046225Y-127469238D01*
X94046231Y-127469244D01*
X94051425Y-127473556D01*
X94091059Y-127532460D01*
X94092555Y-127603441D01*
X94055439Y-127663962D01*
X94015168Y-127688480D01*
X93907946Y-127728676D01*
X93892351Y-127737214D01*
X93790276Y-127813715D01*
X93777715Y-127826276D01*
X93701214Y-127928351D01*
X93692676Y-127943946D01*
X93647522Y-128064394D01*
X93643895Y-128079649D01*
X93638369Y-128130514D01*
X93638000Y-128137328D01*
X93638000Y-128759885D01*
X93642475Y-128775124D01*
X93643865Y-128776329D01*
X93651548Y-128778000D01*
X96335884Y-128778000D01*
X96351123Y-128773525D01*
X96352328Y-128772135D01*
X96353999Y-128764452D01*
X96353999Y-128137331D01*
X96353629Y-128130510D01*
X96348105Y-128079648D01*
X96344479Y-128064396D01*
X96299324Y-127943946D01*
X96290786Y-127928351D01*
X96214285Y-127826276D01*
X96201724Y-127813715D01*
X96099649Y-127737214D01*
X96084054Y-127728676D01*
X95973813Y-127687348D01*
X95917049Y-127644706D01*
X95892349Y-127578145D01*
X95907557Y-127508796D01*
X95929104Y-127480115D01*
X96030430Y-127379144D01*
X96030440Y-127379132D01*
X96034096Y-127375489D01*
X96093354Y-127293023D01*
X96161435Y-127198277D01*
X96164453Y-127194077D01*
X96176797Y-127169102D01*
X96261136Y-126998453D01*
X96261137Y-126998451D01*
X96263430Y-126993811D01*
X96296245Y-126885805D01*
X96326865Y-126785023D01*
X96326865Y-126785021D01*
X96328370Y-126780069D01*
X96357529Y-126558590D01*
X96357744Y-126549781D01*
X96359074Y-126495365D01*
X96359074Y-126495361D01*
X96359156Y-126492000D01*
X96340852Y-126269361D01*
X96286431Y-126052702D01*
X96197354Y-125847840D01*
X96076014Y-125660277D01*
X95925670Y-125495051D01*
X95921619Y-125491852D01*
X95921615Y-125491848D01*
X95754414Y-125359800D01*
X95754410Y-125359798D01*
X95750359Y-125356598D01*
X95709053Y-125333796D01*
X95659084Y-125283364D01*
X95644312Y-125213921D01*
X95669428Y-125147516D01*
X95696780Y-125120909D01*
X95743176Y-125087815D01*
X95875860Y-124993173D01*
X96034096Y-124835489D01*
X96093354Y-124753023D01*
X96161435Y-124658277D01*
X96164453Y-124654077D01*
X96177011Y-124628669D01*
X96261136Y-124458453D01*
X96261137Y-124458451D01*
X96263430Y-124453811D01*
X96296245Y-124345805D01*
X96326865Y-124245023D01*
X96326865Y-124245021D01*
X96328370Y-124240069D01*
X96357529Y-124018590D01*
X96357744Y-124009781D01*
X96359074Y-123955365D01*
X96359074Y-123955361D01*
X96359156Y-123952000D01*
X96340852Y-123729361D01*
X96286431Y-123512702D01*
X96197354Y-123307840D01*
X96076014Y-123120277D01*
X95925670Y-122955051D01*
X95921619Y-122951852D01*
X95921615Y-122951848D01*
X95754414Y-122819800D01*
X95754410Y-122819798D01*
X95750359Y-122816598D01*
X95709053Y-122793796D01*
X95659084Y-122743364D01*
X95644312Y-122673921D01*
X95669428Y-122607516D01*
X95696780Y-122580909D01*
X95745817Y-122545931D01*
X95812927Y-122498062D01*
X103752493Y-122498062D01*
X103761789Y-122510077D01*
X103812994Y-122545931D01*
X103822489Y-122551414D01*
X104019947Y-122643490D01*
X104030239Y-122647236D01*
X104240688Y-122703625D01*
X104251481Y-122705528D01*
X104468525Y-122724517D01*
X104479475Y-122724517D01*
X104696519Y-122705528D01*
X104707312Y-122703625D01*
X104917761Y-122647236D01*
X104928053Y-122643490D01*
X105125511Y-122551414D01*
X105135006Y-122545931D01*
X105187048Y-122509491D01*
X105195424Y-122499012D01*
X105188356Y-122485566D01*
X104486812Y-121784022D01*
X104472868Y-121776408D01*
X104471035Y-121776539D01*
X104464420Y-121780790D01*
X103758923Y-122486287D01*
X103752493Y-122498062D01*
X95812927Y-122498062D01*
X95875860Y-122453173D01*
X95907788Y-122421357D01*
X96030435Y-122299137D01*
X96034096Y-122295489D01*
X96065498Y-122251789D01*
X96161435Y-122118277D01*
X96164453Y-122114077D01*
X96177011Y-122088669D01*
X96261136Y-121918453D01*
X96261137Y-121918451D01*
X96263430Y-121913811D01*
X96305176Y-121776408D01*
X96326865Y-121705023D01*
X96326865Y-121705021D01*
X96328370Y-121700069D01*
X96357529Y-121478590D01*
X96357744Y-121469781D01*
X96359022Y-121417475D01*
X103161483Y-121417475D01*
X103180472Y-121634519D01*
X103182375Y-121645312D01*
X103238764Y-121855761D01*
X103242510Y-121866053D01*
X103334586Y-122063511D01*
X103340069Y-122073006D01*
X103376509Y-122125048D01*
X103386988Y-122133424D01*
X103400434Y-122126356D01*
X104101978Y-121424812D01*
X104108356Y-121413132D01*
X104838408Y-121413132D01*
X104838539Y-121414965D01*
X104842790Y-121421580D01*
X105548287Y-122127077D01*
X105560062Y-122133507D01*
X105572077Y-122124211D01*
X105607931Y-122073006D01*
X105613414Y-122063511D01*
X105705490Y-121866053D01*
X105709236Y-121855761D01*
X105765625Y-121645312D01*
X105767528Y-121634519D01*
X105786517Y-121417475D01*
X105786517Y-121412000D01*
X108160502Y-121412000D01*
X108180457Y-121640087D01*
X108181881Y-121645400D01*
X108181881Y-121645402D01*
X108229851Y-121824425D01*
X108239716Y-121861243D01*
X108242039Y-121866224D01*
X108242039Y-121866225D01*
X108334151Y-122063762D01*
X108334154Y-122063767D01*
X108336477Y-122068749D01*
X108364968Y-122109438D01*
X108443078Y-122220990D01*
X108467802Y-122256300D01*
X108629700Y-122418198D01*
X108634208Y-122421355D01*
X108634211Y-122421357D01*
X108674445Y-122449529D01*
X108817251Y-122549523D01*
X108822233Y-122551846D01*
X108822238Y-122551849D01*
X108941618Y-122607516D01*
X109024757Y-122646284D01*
X109030065Y-122647706D01*
X109030067Y-122647707D01*
X109240598Y-122704119D01*
X109240600Y-122704119D01*
X109245913Y-122705543D01*
X109474000Y-122725498D01*
X109702087Y-122705543D01*
X109707400Y-122704119D01*
X109707402Y-122704119D01*
X109917933Y-122647707D01*
X109917935Y-122647706D01*
X109923243Y-122646284D01*
X110006382Y-122607516D01*
X110125762Y-122551849D01*
X110125767Y-122551846D01*
X110130749Y-122549523D01*
X110273555Y-122449529D01*
X110313789Y-122421357D01*
X110313792Y-122421355D01*
X110318300Y-122418198D01*
X110480198Y-122256300D01*
X110504923Y-122220990D01*
X110583032Y-122109438D01*
X110611523Y-122068749D01*
X110613846Y-122063767D01*
X110613849Y-122063762D01*
X110705961Y-121866225D01*
X110705961Y-121866224D01*
X110708284Y-121861243D01*
X110718150Y-121824425D01*
X110766119Y-121645402D01*
X110766119Y-121645400D01*
X110767543Y-121640087D01*
X110787498Y-121412000D01*
X110767543Y-121183913D01*
X110761593Y-121161707D01*
X110709707Y-120968067D01*
X110709706Y-120968065D01*
X110708284Y-120962757D01*
X110665713Y-120871463D01*
X110613849Y-120760238D01*
X110613846Y-120760233D01*
X110611523Y-120755251D01*
X110528854Y-120637188D01*
X110483357Y-120572211D01*
X110483355Y-120572208D01*
X110480198Y-120567700D01*
X110318300Y-120405802D01*
X110313792Y-120402645D01*
X110313789Y-120402643D01*
X110187920Y-120314509D01*
X110130749Y-120274477D01*
X110125767Y-120272154D01*
X110125762Y-120272151D01*
X109928225Y-120180039D01*
X109928224Y-120180039D01*
X109923243Y-120177716D01*
X109917935Y-120176294D01*
X109917933Y-120176293D01*
X109707402Y-120119881D01*
X109707400Y-120119881D01*
X109702087Y-120118457D01*
X109474000Y-120098502D01*
X109245913Y-120118457D01*
X109240600Y-120119881D01*
X109240598Y-120119881D01*
X109030067Y-120176293D01*
X109030065Y-120176294D01*
X109024757Y-120177716D01*
X109019776Y-120180039D01*
X109019775Y-120180039D01*
X108822238Y-120272151D01*
X108822233Y-120272154D01*
X108817251Y-120274477D01*
X108760080Y-120314509D01*
X108634211Y-120402643D01*
X108634208Y-120402645D01*
X108629700Y-120405802D01*
X108467802Y-120567700D01*
X108464645Y-120572208D01*
X108464643Y-120572211D01*
X108419146Y-120637188D01*
X108336477Y-120755251D01*
X108334154Y-120760233D01*
X108334151Y-120760238D01*
X108282287Y-120871463D01*
X108239716Y-120962757D01*
X108238294Y-120968065D01*
X108238293Y-120968067D01*
X108186407Y-121161707D01*
X108180457Y-121183913D01*
X108160502Y-121412000D01*
X105786517Y-121412000D01*
X105786517Y-121406525D01*
X105767528Y-121189481D01*
X105765625Y-121178688D01*
X105709236Y-120968239D01*
X105705490Y-120957947D01*
X105613414Y-120760489D01*
X105607931Y-120750994D01*
X105571491Y-120698952D01*
X105561012Y-120690576D01*
X105547566Y-120697644D01*
X104846022Y-121399188D01*
X104838408Y-121413132D01*
X104108356Y-121413132D01*
X104109592Y-121410868D01*
X104109461Y-121409035D01*
X104105210Y-121402420D01*
X103399713Y-120696923D01*
X103387938Y-120690493D01*
X103375923Y-120699789D01*
X103340069Y-120750994D01*
X103334586Y-120760489D01*
X103242510Y-120957947D01*
X103238764Y-120968239D01*
X103182375Y-121178688D01*
X103180472Y-121189481D01*
X103161483Y-121406525D01*
X103161483Y-121417475D01*
X96359022Y-121417475D01*
X96359074Y-121415365D01*
X96359074Y-121415361D01*
X96359156Y-121412000D01*
X96340852Y-121189361D01*
X96286431Y-120972702D01*
X96197354Y-120767840D01*
X96129408Y-120662812D01*
X96078822Y-120584617D01*
X96078820Y-120584614D01*
X96076014Y-120580277D01*
X95925670Y-120415051D01*
X95921619Y-120411852D01*
X95921615Y-120411848D01*
X95811632Y-120324988D01*
X103752576Y-120324988D01*
X103759644Y-120338434D01*
X104461188Y-121039978D01*
X104475132Y-121047592D01*
X104476965Y-121047461D01*
X104483580Y-121043210D01*
X105189077Y-120337713D01*
X105195507Y-120325938D01*
X105186211Y-120313923D01*
X105135006Y-120278069D01*
X105125511Y-120272586D01*
X104928053Y-120180510D01*
X104917761Y-120176764D01*
X104707312Y-120120375D01*
X104696519Y-120118472D01*
X104479475Y-120099483D01*
X104468525Y-120099483D01*
X104251481Y-120118472D01*
X104240688Y-120120375D01*
X104030239Y-120176764D01*
X104019947Y-120180510D01*
X103822489Y-120272586D01*
X103812994Y-120278069D01*
X103760952Y-120314509D01*
X103752576Y-120324988D01*
X95811632Y-120324988D01*
X95754414Y-120279800D01*
X95754410Y-120279798D01*
X95750359Y-120276598D01*
X95709053Y-120253796D01*
X95659084Y-120203364D01*
X95644312Y-120133921D01*
X95669428Y-120067516D01*
X95696780Y-120040909D01*
X95743176Y-120007815D01*
X95875860Y-119913173D01*
X96034096Y-119755489D01*
X96093354Y-119673023D01*
X96161435Y-119578277D01*
X96164453Y-119574077D01*
X96176797Y-119549102D01*
X96261136Y-119378453D01*
X96261137Y-119378451D01*
X96263430Y-119373811D01*
X96296245Y-119265805D01*
X96326865Y-119165023D01*
X96326865Y-119165021D01*
X96328370Y-119160069D01*
X96357529Y-118938590D01*
X96357744Y-118929781D01*
X96359074Y-118875365D01*
X96359074Y-118875361D01*
X96359156Y-118872000D01*
X96340852Y-118649361D01*
X96286431Y-118432702D01*
X96197354Y-118227840D01*
X96076014Y-118040277D01*
X96072540Y-118036459D01*
X96072533Y-118036450D01*
X95928435Y-117878088D01*
X95897383Y-117814242D01*
X95905779Y-117743744D01*
X95950956Y-117688976D01*
X95977400Y-117675307D01*
X96084052Y-117635325D01*
X96099649Y-117626786D01*
X96201724Y-117550285D01*
X96214285Y-117537724D01*
X96290786Y-117435649D01*
X96299324Y-117420054D01*
X96344478Y-117299606D01*
X96348105Y-117284351D01*
X96353631Y-117233486D01*
X96354000Y-117226672D01*
X96354000Y-116604115D01*
X96349525Y-116588876D01*
X96348135Y-116587671D01*
X96340452Y-116586000D01*
X93656116Y-116586000D01*
X93640877Y-116590475D01*
X93639672Y-116591865D01*
X93638001Y-116599548D01*
X93638001Y-117226669D01*
X93638371Y-117233490D01*
X93643895Y-117284352D01*
X93647521Y-117299604D01*
X93692676Y-117420054D01*
X93701214Y-117435649D01*
X93777715Y-117537724D01*
X93790276Y-117550285D01*
X93892351Y-117626786D01*
X93907946Y-117635324D01*
X94016827Y-117676142D01*
X94073591Y-117718784D01*
X94098291Y-117785345D01*
X94083083Y-117854694D01*
X94063691Y-117881175D01*
X94061733Y-117883224D01*
X93936629Y-118014138D01*
X93810743Y-118198680D01*
X93716688Y-118401305D01*
X93656989Y-118616570D01*
X93633251Y-118838695D01*
X93633548Y-118843848D01*
X93633548Y-118843851D01*
X93639011Y-118938590D01*
X93646110Y-119061715D01*
X93647247Y-119066761D01*
X93647248Y-119066767D01*
X93651803Y-119086977D01*
X93695222Y-119279639D01*
X93779266Y-119486616D01*
X93895987Y-119677088D01*
X94042250Y-119845938D01*
X94214126Y-119988632D01*
X94263629Y-120017559D01*
X94287445Y-120031476D01*
X94336169Y-120083114D01*
X94349240Y-120152897D01*
X94322509Y-120218669D01*
X94282055Y-120252027D01*
X94269607Y-120258507D01*
X94265474Y-120261610D01*
X94265471Y-120261612D01*
X94195019Y-120314509D01*
X94090965Y-120392635D01*
X93936629Y-120554138D01*
X93933715Y-120558410D01*
X93933714Y-120558411D01*
X93924300Y-120572211D01*
X93810743Y-120738680D01*
X93795003Y-120772590D01*
X93751692Y-120865896D01*
X93716688Y-120941305D01*
X93656989Y-121156570D01*
X93633251Y-121378695D01*
X93633548Y-121383848D01*
X93633548Y-121383851D01*
X93639011Y-121478590D01*
X93646110Y-121601715D01*
X93647247Y-121606761D01*
X93647248Y-121606767D01*
X93655935Y-121645312D01*
X93695222Y-121819639D01*
X93735974Y-121920000D01*
X93763181Y-121987002D01*
X93779266Y-122026616D01*
X93895987Y-122217088D01*
X94042250Y-122385938D01*
X94214126Y-122528632D01*
X94284595Y-122569811D01*
X94287445Y-122571476D01*
X94336169Y-122623114D01*
X94349240Y-122692897D01*
X94322509Y-122758669D01*
X94282055Y-122792027D01*
X94269607Y-122798507D01*
X94265474Y-122801610D01*
X94265471Y-122801612D01*
X94241247Y-122819800D01*
X94090965Y-122932635D01*
X93936629Y-123094138D01*
X93810743Y-123278680D01*
X93716688Y-123481305D01*
X93656989Y-123696570D01*
X93633251Y-123918695D01*
X93633548Y-123923848D01*
X93633548Y-123923851D01*
X93639011Y-124018590D01*
X93646110Y-124141715D01*
X93647247Y-124146761D01*
X93647248Y-124146767D01*
X93651803Y-124166977D01*
X93695222Y-124359639D01*
X93779266Y-124566616D01*
X93895987Y-124757088D01*
X94042250Y-124925938D01*
X94214126Y-125068632D01*
X94284595Y-125109811D01*
X94287445Y-125111476D01*
X94336169Y-125163114D01*
X94349240Y-125232897D01*
X94322509Y-125298669D01*
X94282055Y-125332027D01*
X94269607Y-125338507D01*
X94265474Y-125341610D01*
X94265471Y-125341612D01*
X94241247Y-125359800D01*
X94090965Y-125472635D01*
X93936629Y-125634138D01*
X93810743Y-125818680D01*
X93795003Y-125852590D01*
X93721293Y-126011385D01*
X93716688Y-126021305D01*
X93656989Y-126236570D01*
X93633251Y-126458695D01*
X78576418Y-126458695D01*
X78560852Y-126269361D01*
X78506431Y-126052702D01*
X78417354Y-125847840D01*
X78296014Y-125660277D01*
X78145670Y-125495051D01*
X78141619Y-125491852D01*
X78141615Y-125491848D01*
X77974414Y-125359800D01*
X77974410Y-125359798D01*
X77970359Y-125356598D01*
X77929053Y-125333796D01*
X77879084Y-125283364D01*
X77864312Y-125213921D01*
X77889428Y-125147516D01*
X77916780Y-125120909D01*
X77963176Y-125087815D01*
X78095860Y-124993173D01*
X78254096Y-124835489D01*
X78313354Y-124753023D01*
X78381435Y-124658277D01*
X78384453Y-124654077D01*
X78397011Y-124628669D01*
X78481136Y-124458453D01*
X78481137Y-124458451D01*
X78483430Y-124453811D01*
X78516245Y-124345805D01*
X78546865Y-124245023D01*
X78546865Y-124245021D01*
X78548370Y-124240069D01*
X78577529Y-124018590D01*
X78577744Y-124009781D01*
X78579074Y-123955365D01*
X78579074Y-123955361D01*
X78579156Y-123952000D01*
X78560852Y-123729361D01*
X78506431Y-123512702D01*
X78417354Y-123307840D01*
X78296014Y-123120277D01*
X78145670Y-122955051D01*
X78141619Y-122951852D01*
X78141615Y-122951848D01*
X77974414Y-122819800D01*
X77974410Y-122819798D01*
X77970359Y-122816598D01*
X77929053Y-122793796D01*
X77879084Y-122743364D01*
X77864312Y-122673921D01*
X77889428Y-122607516D01*
X77916780Y-122580909D01*
X77965817Y-122545931D01*
X78095860Y-122453173D01*
X78127788Y-122421357D01*
X78250435Y-122299137D01*
X78254096Y-122295489D01*
X78285498Y-122251789D01*
X78381435Y-122118277D01*
X78384453Y-122114077D01*
X78397011Y-122088669D01*
X78481136Y-121918453D01*
X78481137Y-121918451D01*
X78483430Y-121913811D01*
X78525176Y-121776408D01*
X78546865Y-121705023D01*
X78546865Y-121705021D01*
X78548370Y-121700069D01*
X78577529Y-121478590D01*
X78577744Y-121469781D01*
X78579074Y-121415365D01*
X78579074Y-121415361D01*
X78579156Y-121412000D01*
X78560852Y-121189361D01*
X78506431Y-120972702D01*
X78417354Y-120767840D01*
X78349408Y-120662812D01*
X78298822Y-120584617D01*
X78298820Y-120584614D01*
X78296014Y-120580277D01*
X78145670Y-120415051D01*
X78141619Y-120411852D01*
X78141615Y-120411848D01*
X77974414Y-120279800D01*
X77974410Y-120279798D01*
X77970359Y-120276598D01*
X77929053Y-120253796D01*
X77879084Y-120203364D01*
X77864312Y-120133921D01*
X77889428Y-120067516D01*
X77916780Y-120040909D01*
X77963176Y-120007815D01*
X78095860Y-119913173D01*
X78254096Y-119755489D01*
X78313354Y-119673023D01*
X78381435Y-119578277D01*
X78384453Y-119574077D01*
X78396797Y-119549102D01*
X78481136Y-119378453D01*
X78481137Y-119378451D01*
X78483430Y-119373811D01*
X78516245Y-119265805D01*
X78546865Y-119165023D01*
X78546865Y-119165021D01*
X78548370Y-119160069D01*
X78577529Y-118938590D01*
X78577744Y-118929781D01*
X78579074Y-118875365D01*
X78579074Y-118875361D01*
X78579156Y-118872000D01*
X78560852Y-118649361D01*
X78506431Y-118432702D01*
X78417354Y-118227840D01*
X78296014Y-118040277D01*
X78292540Y-118036459D01*
X78292533Y-118036450D01*
X78148435Y-117878088D01*
X78117383Y-117814242D01*
X78125779Y-117743744D01*
X78170956Y-117688976D01*
X78197400Y-117675307D01*
X78304052Y-117635325D01*
X78319649Y-117626786D01*
X78421724Y-117550285D01*
X78434285Y-117537724D01*
X78510786Y-117435649D01*
X78519324Y-117420054D01*
X78564478Y-117299606D01*
X78568105Y-117284351D01*
X78573631Y-117233486D01*
X78574000Y-117226672D01*
X78574000Y-116604115D01*
X78569525Y-116588876D01*
X78568135Y-116587671D01*
X78560452Y-116586000D01*
X75876116Y-116586000D01*
X75860877Y-116590475D01*
X75859672Y-116591865D01*
X75858001Y-116599548D01*
X75858001Y-117226669D01*
X75858371Y-117233490D01*
X75863895Y-117284352D01*
X75867521Y-117299604D01*
X75912676Y-117420054D01*
X75921214Y-117435649D01*
X75997715Y-117537724D01*
X76010276Y-117550285D01*
X76112351Y-117626786D01*
X76127946Y-117635324D01*
X76236827Y-117676142D01*
X76293591Y-117718784D01*
X76318291Y-117785345D01*
X76303083Y-117854694D01*
X76283691Y-117881175D01*
X76281733Y-117883224D01*
X76156629Y-118014138D01*
X76030743Y-118198680D01*
X75936688Y-118401305D01*
X75876989Y-118616570D01*
X75853251Y-118838695D01*
X75853548Y-118843848D01*
X75853548Y-118843851D01*
X75859011Y-118938590D01*
X75866110Y-119061715D01*
X75867247Y-119066761D01*
X75867248Y-119066767D01*
X75871803Y-119086977D01*
X75915222Y-119279639D01*
X75999266Y-119486616D01*
X76115987Y-119677088D01*
X76262250Y-119845938D01*
X76434126Y-119988632D01*
X76483629Y-120017559D01*
X76507445Y-120031476D01*
X76556169Y-120083114D01*
X76569240Y-120152897D01*
X76542509Y-120218669D01*
X76502055Y-120252027D01*
X76489607Y-120258507D01*
X76485474Y-120261610D01*
X76485471Y-120261612D01*
X76415019Y-120314509D01*
X76310965Y-120392635D01*
X76156629Y-120554138D01*
X76153715Y-120558410D01*
X76153714Y-120558411D01*
X76144300Y-120572211D01*
X76030743Y-120738680D01*
X76015003Y-120772590D01*
X75971692Y-120865896D01*
X75936688Y-120941305D01*
X75876989Y-121156570D01*
X75853251Y-121378695D01*
X75853548Y-121383848D01*
X75853548Y-121383851D01*
X75859011Y-121478590D01*
X75866110Y-121601715D01*
X75867247Y-121606761D01*
X75867248Y-121606767D01*
X75875935Y-121645312D01*
X75915222Y-121819639D01*
X75955974Y-121920000D01*
X75983181Y-121987002D01*
X75999266Y-122026616D01*
X76115987Y-122217088D01*
X76262250Y-122385938D01*
X76434126Y-122528632D01*
X76504595Y-122569811D01*
X76507445Y-122571476D01*
X76556169Y-122623114D01*
X76569240Y-122692897D01*
X76542509Y-122758669D01*
X76502055Y-122792027D01*
X76489607Y-122798507D01*
X76485474Y-122801610D01*
X76485471Y-122801612D01*
X76461247Y-122819800D01*
X76310965Y-122932635D01*
X76156629Y-123094138D01*
X76030743Y-123278680D01*
X75936688Y-123481305D01*
X75876989Y-123696570D01*
X75853251Y-123918695D01*
X75853548Y-123923848D01*
X75853548Y-123923851D01*
X75859011Y-124018590D01*
X75866110Y-124141715D01*
X75867247Y-124146761D01*
X75867248Y-124146767D01*
X75871803Y-124166977D01*
X75915222Y-124359639D01*
X75999266Y-124566616D01*
X76115987Y-124757088D01*
X76262250Y-124925938D01*
X76434126Y-125068632D01*
X76504595Y-125109811D01*
X76507445Y-125111476D01*
X76556169Y-125163114D01*
X76569240Y-125232897D01*
X76542509Y-125298669D01*
X76502055Y-125332027D01*
X76489607Y-125338507D01*
X76485474Y-125341610D01*
X76485471Y-125341612D01*
X76461247Y-125359800D01*
X76310965Y-125472635D01*
X76156629Y-125634138D01*
X76030743Y-125818680D01*
X76015003Y-125852590D01*
X75941293Y-126011385D01*
X75936688Y-126021305D01*
X75876989Y-126236570D01*
X75853251Y-126458695D01*
X69112756Y-126458695D01*
X69173331Y-126372185D01*
X69173332Y-126372183D01*
X69176488Y-126367676D01*
X69178811Y-126362694D01*
X69178814Y-126362689D01*
X69268117Y-126171178D01*
X69268118Y-126171177D01*
X69270440Y-126166196D01*
X69327978Y-125951463D01*
X69347353Y-125730000D01*
X69327978Y-125508537D01*
X69270440Y-125293804D01*
X69243186Y-125235357D01*
X69178814Y-125097311D01*
X69178811Y-125097306D01*
X69176488Y-125092324D01*
X69173331Y-125087815D01*
X69052136Y-124914730D01*
X69052134Y-124914727D01*
X69048977Y-124910219D01*
X68891781Y-124753023D01*
X68887273Y-124749866D01*
X68887270Y-124749864D01*
X68750472Y-124654077D01*
X68709677Y-124625512D01*
X68704695Y-124623189D01*
X68704690Y-124623186D01*
X68599627Y-124574195D01*
X68546342Y-124527278D01*
X68526881Y-124459001D01*
X68547423Y-124391041D01*
X68599627Y-124345805D01*
X68704690Y-124296814D01*
X68704695Y-124296811D01*
X68709677Y-124294488D01*
X68811505Y-124223187D01*
X68887270Y-124170136D01*
X68887273Y-124170134D01*
X68891781Y-124166977D01*
X69048977Y-124009781D01*
X69087080Y-123955365D01*
X69173331Y-123832185D01*
X69173332Y-123832183D01*
X69176488Y-123827676D01*
X69178811Y-123822694D01*
X69178814Y-123822689D01*
X69268117Y-123631178D01*
X69268118Y-123631177D01*
X69270440Y-123626196D01*
X69327978Y-123411463D01*
X69347353Y-123190000D01*
X69327978Y-122968537D01*
X69270440Y-122753804D01*
X69248159Y-122706022D01*
X69178814Y-122557311D01*
X69178811Y-122557306D01*
X69176488Y-122552324D01*
X69172012Y-122545931D01*
X69052136Y-122374730D01*
X69052134Y-122374727D01*
X69048977Y-122370219D01*
X68891781Y-122213023D01*
X68887273Y-122209866D01*
X68887270Y-122209864D01*
X68778102Y-122133424D01*
X68709677Y-122085512D01*
X68704695Y-122083189D01*
X68704690Y-122083186D01*
X68599035Y-122033919D01*
X68545750Y-121987002D01*
X68526289Y-121918725D01*
X68546831Y-121850765D01*
X68599035Y-121805529D01*
X68704445Y-121756376D01*
X68713931Y-121750898D01*
X68757764Y-121720207D01*
X68766139Y-121709729D01*
X68759071Y-121696281D01*
X68084812Y-121022022D01*
X68070868Y-121014408D01*
X68069035Y-121014539D01*
X68062420Y-121018790D01*
X67384207Y-121697003D01*
X67377777Y-121708777D01*
X67387074Y-121720793D01*
X67430069Y-121750898D01*
X67439555Y-121756376D01*
X67544965Y-121805529D01*
X67598250Y-121852446D01*
X67617711Y-121920723D01*
X67597169Y-121988683D01*
X67544965Y-122033919D01*
X67439311Y-122083186D01*
X67439306Y-122083189D01*
X67434324Y-122085512D01*
X67429817Y-122088668D01*
X67429815Y-122088669D01*
X67256730Y-122209864D01*
X67256727Y-122209866D01*
X67252219Y-122213023D01*
X67095023Y-122370219D01*
X67091866Y-122374727D01*
X67091864Y-122374730D01*
X66971988Y-122545931D01*
X66967512Y-122552324D01*
X66965189Y-122557306D01*
X66965186Y-122557311D01*
X66895841Y-122706022D01*
X66873560Y-122753804D01*
X66816022Y-122968537D01*
X66796647Y-123190000D01*
X66816022Y-123411463D01*
X66873560Y-123626196D01*
X66875882Y-123631177D01*
X66875883Y-123631178D01*
X66965186Y-123822689D01*
X66965189Y-123822694D01*
X66967512Y-123827676D01*
X66970668Y-123832183D01*
X66970669Y-123832185D01*
X67056921Y-123955365D01*
X67095023Y-124009781D01*
X67252219Y-124166977D01*
X67256727Y-124170134D01*
X67256730Y-124170136D01*
X67332495Y-124223187D01*
X67434323Y-124294488D01*
X67439305Y-124296811D01*
X67439310Y-124296814D01*
X67544373Y-124345805D01*
X67597658Y-124392722D01*
X67617119Y-124460999D01*
X67596577Y-124528959D01*
X67544373Y-124574195D01*
X67439311Y-124623186D01*
X67439306Y-124623189D01*
X67434324Y-124625512D01*
X67429817Y-124628668D01*
X67429815Y-124628669D01*
X67256730Y-124749864D01*
X67256727Y-124749866D01*
X67252219Y-124753023D01*
X67095023Y-124910219D01*
X67091866Y-124914727D01*
X67091864Y-124914730D01*
X66970669Y-125087815D01*
X66967512Y-125092324D01*
X66965189Y-125097306D01*
X66965186Y-125097311D01*
X66900814Y-125235357D01*
X66873560Y-125293804D01*
X66816022Y-125508537D01*
X66796647Y-125730000D01*
X61727353Y-125730000D01*
X61707978Y-125508537D01*
X61650440Y-125293804D01*
X61623186Y-125235357D01*
X61558814Y-125097311D01*
X61558811Y-125097306D01*
X61556488Y-125092324D01*
X61553331Y-125087815D01*
X61432136Y-124914730D01*
X61432134Y-124914727D01*
X61428977Y-124910219D01*
X61271781Y-124753023D01*
X61267273Y-124749866D01*
X61267270Y-124749864D01*
X61130472Y-124654077D01*
X61089677Y-124625512D01*
X61084695Y-124623189D01*
X61084690Y-124623186D01*
X60979627Y-124574195D01*
X60926342Y-124527278D01*
X60906881Y-124459001D01*
X60927423Y-124391041D01*
X60979627Y-124345805D01*
X61084690Y-124296814D01*
X61084695Y-124296811D01*
X61089677Y-124294488D01*
X61191505Y-124223187D01*
X61267270Y-124170136D01*
X61267273Y-124170134D01*
X61271781Y-124166977D01*
X61428977Y-124009781D01*
X61467080Y-123955365D01*
X61553331Y-123832185D01*
X61553332Y-123832183D01*
X61556488Y-123827676D01*
X61558811Y-123822694D01*
X61558814Y-123822689D01*
X61648117Y-123631178D01*
X61648118Y-123631177D01*
X61650440Y-123626196D01*
X61707978Y-123411463D01*
X61727353Y-123190000D01*
X61707978Y-122968537D01*
X61650440Y-122753804D01*
X61628159Y-122706022D01*
X61558814Y-122557311D01*
X61558811Y-122557306D01*
X61556488Y-122552324D01*
X61552012Y-122545931D01*
X61432136Y-122374730D01*
X61432134Y-122374727D01*
X61428977Y-122370219D01*
X61271781Y-122213023D01*
X61267273Y-122209866D01*
X61267270Y-122209864D01*
X61158102Y-122133424D01*
X61089677Y-122085512D01*
X61084695Y-122083189D01*
X61084690Y-122083186D01*
X60979627Y-122034195D01*
X60926342Y-121987278D01*
X60906881Y-121919001D01*
X60927423Y-121851041D01*
X60979627Y-121805805D01*
X61084690Y-121756814D01*
X61084695Y-121756811D01*
X61089677Y-121754488D01*
X61191505Y-121683187D01*
X61267270Y-121630136D01*
X61267273Y-121630134D01*
X61271781Y-121626977D01*
X61428977Y-121469781D01*
X61467080Y-121415365D01*
X61553331Y-121292185D01*
X61553332Y-121292183D01*
X61556488Y-121287676D01*
X61558811Y-121282694D01*
X61558814Y-121282689D01*
X61648117Y-121091178D01*
X61648118Y-121091177D01*
X61650440Y-121086196D01*
X61707978Y-120871463D01*
X61726874Y-120655475D01*
X66797628Y-120655475D01*
X66816038Y-120865896D01*
X66817941Y-120876691D01*
X66872609Y-121080715D01*
X66876355Y-121091007D01*
X66965623Y-121282441D01*
X66971103Y-121291932D01*
X67001794Y-121335765D01*
X67012271Y-121344140D01*
X67025718Y-121337072D01*
X67699978Y-120662812D01*
X67706356Y-120651132D01*
X68436408Y-120651132D01*
X68436539Y-120652965D01*
X68440790Y-120659580D01*
X69119003Y-121337793D01*
X69130777Y-121344223D01*
X69142793Y-121334926D01*
X69172897Y-121291932D01*
X69178377Y-121282441D01*
X69267645Y-121091007D01*
X69271391Y-121080715D01*
X69326059Y-120876691D01*
X69327962Y-120865896D01*
X69346372Y-120655475D01*
X69346372Y-120644525D01*
X69327962Y-120434104D01*
X69326059Y-120423309D01*
X69271391Y-120219285D01*
X69267645Y-120208993D01*
X69178377Y-120017559D01*
X69172897Y-120008068D01*
X69142206Y-119964235D01*
X69131729Y-119955860D01*
X69118282Y-119962928D01*
X68444022Y-120637188D01*
X68436408Y-120651132D01*
X67706356Y-120651132D01*
X67707592Y-120648868D01*
X67707461Y-120647035D01*
X67703210Y-120640420D01*
X67024997Y-119962207D01*
X67013223Y-119955777D01*
X67001207Y-119965074D01*
X66971103Y-120008068D01*
X66965623Y-120017559D01*
X66876355Y-120208993D01*
X66872609Y-120219285D01*
X66817941Y-120423309D01*
X66816038Y-120434104D01*
X66797628Y-120644525D01*
X66797628Y-120655475D01*
X61726874Y-120655475D01*
X61727353Y-120650000D01*
X61707978Y-120428537D01*
X61650440Y-120213804D01*
X61623186Y-120155357D01*
X61558814Y-120017311D01*
X61558811Y-120017306D01*
X61556488Y-120012324D01*
X61553331Y-120007815D01*
X61432136Y-119834730D01*
X61432134Y-119834727D01*
X61428977Y-119830219D01*
X61271781Y-119673023D01*
X61267273Y-119669866D01*
X61267270Y-119669864D01*
X61191505Y-119616813D01*
X61089677Y-119545512D01*
X61084695Y-119543189D01*
X61084690Y-119543186D01*
X60979627Y-119494195D01*
X60926342Y-119447278D01*
X60906881Y-119379001D01*
X60927423Y-119311041D01*
X60979627Y-119265805D01*
X61084690Y-119216814D01*
X61084695Y-119216811D01*
X61089677Y-119214488D01*
X61191505Y-119143187D01*
X61267270Y-119090136D01*
X61267273Y-119090134D01*
X61271781Y-119086977D01*
X61428977Y-118929781D01*
X61467080Y-118875365D01*
X61553331Y-118752185D01*
X61553332Y-118752183D01*
X61556488Y-118747676D01*
X61558811Y-118742694D01*
X61558814Y-118742689D01*
X61648117Y-118551178D01*
X61648118Y-118551177D01*
X61650440Y-118546196D01*
X61707978Y-118331463D01*
X61727353Y-118110000D01*
X66796647Y-118110000D01*
X66816022Y-118331463D01*
X66873560Y-118546196D01*
X66875882Y-118551177D01*
X66875883Y-118551178D01*
X66965186Y-118742689D01*
X66965189Y-118742694D01*
X66967512Y-118747676D01*
X66970668Y-118752183D01*
X66970669Y-118752185D01*
X67056921Y-118875365D01*
X67095023Y-118929781D01*
X67252219Y-119086977D01*
X67256727Y-119090134D01*
X67256730Y-119090136D01*
X67332495Y-119143187D01*
X67434323Y-119214488D01*
X67439305Y-119216811D01*
X67439310Y-119216814D01*
X67544965Y-119266081D01*
X67598250Y-119312998D01*
X67617711Y-119381275D01*
X67597169Y-119449235D01*
X67544965Y-119494471D01*
X67439559Y-119543623D01*
X67430068Y-119549103D01*
X67386235Y-119579794D01*
X67377860Y-119590271D01*
X67384928Y-119603718D01*
X68059188Y-120277978D01*
X68073132Y-120285592D01*
X68074965Y-120285461D01*
X68081580Y-120281210D01*
X68759793Y-119602997D01*
X68766223Y-119591223D01*
X68756926Y-119579207D01*
X68713931Y-119549102D01*
X68704445Y-119543624D01*
X68599035Y-119494471D01*
X68545750Y-119447554D01*
X68526289Y-119379277D01*
X68546831Y-119311317D01*
X68599035Y-119266081D01*
X68704690Y-119216814D01*
X68704695Y-119216811D01*
X68709677Y-119214488D01*
X68811505Y-119143187D01*
X68887270Y-119090136D01*
X68887273Y-119090134D01*
X68891781Y-119086977D01*
X69048977Y-118929781D01*
X69087080Y-118875365D01*
X69173331Y-118752185D01*
X69173332Y-118752183D01*
X69176488Y-118747676D01*
X69178811Y-118742694D01*
X69178814Y-118742689D01*
X69268117Y-118551178D01*
X69268118Y-118551177D01*
X69270440Y-118546196D01*
X69327978Y-118331463D01*
X69347353Y-118110000D01*
X69327978Y-117888537D01*
X69287266Y-117736598D01*
X69271863Y-117679114D01*
X69271862Y-117679112D01*
X69270440Y-117673804D01*
X69252497Y-117635325D01*
X69178814Y-117477311D01*
X69178811Y-117477306D01*
X69176488Y-117472324D01*
X69150808Y-117435649D01*
X69052136Y-117294730D01*
X69052134Y-117294727D01*
X69048977Y-117290219D01*
X68891781Y-117133023D01*
X68887273Y-117129866D01*
X68887270Y-117129864D01*
X68811505Y-117076813D01*
X68709677Y-117005512D01*
X68704695Y-117003189D01*
X68704690Y-117003186D01*
X68599627Y-116954195D01*
X68546342Y-116907278D01*
X68526881Y-116839001D01*
X68547423Y-116771041D01*
X68599627Y-116725805D01*
X68704690Y-116676814D01*
X68704695Y-116676811D01*
X68709677Y-116674488D01*
X68816702Y-116599548D01*
X68887270Y-116550136D01*
X68887273Y-116550134D01*
X68891781Y-116546977D01*
X69048977Y-116389781D01*
X69176488Y-116207676D01*
X69178811Y-116202694D01*
X69178814Y-116202689D01*
X69268117Y-116011178D01*
X69268118Y-116011177D01*
X69270440Y-116006196D01*
X69327978Y-115791463D01*
X69347353Y-115570000D01*
X69327978Y-115348537D01*
X69286693Y-115194460D01*
X69271863Y-115139114D01*
X69271862Y-115139112D01*
X69270440Y-115133804D01*
X69236572Y-115061174D01*
X69178814Y-114937311D01*
X69178811Y-114937306D01*
X69176488Y-114932324D01*
X69138552Y-114878145D01*
X69052136Y-114754730D01*
X69052134Y-114754727D01*
X69048977Y-114750219D01*
X68891781Y-114593023D01*
X68887273Y-114589866D01*
X68887270Y-114589864D01*
X68806871Y-114533568D01*
X68709677Y-114465512D01*
X68704695Y-114463189D01*
X68704690Y-114463186D01*
X68599035Y-114413919D01*
X68545750Y-114367002D01*
X68526289Y-114298725D01*
X68546831Y-114230765D01*
X68599035Y-114185529D01*
X68704445Y-114136376D01*
X68713931Y-114130898D01*
X68757764Y-114100207D01*
X68766139Y-114089729D01*
X68759071Y-114076281D01*
X68441485Y-113758695D01*
X75853251Y-113758695D01*
X75853548Y-113763848D01*
X75853548Y-113763851D01*
X75860823Y-113890019D01*
X75866110Y-113981715D01*
X75867247Y-113986761D01*
X75867248Y-113986767D01*
X75872515Y-114010136D01*
X75915222Y-114199639D01*
X75955974Y-114300000D01*
X75983181Y-114367002D01*
X75999266Y-114406616D01*
X76115987Y-114597088D01*
X76262250Y-114765938D01*
X76266225Y-114769238D01*
X76266231Y-114769244D01*
X76271425Y-114773556D01*
X76311059Y-114832460D01*
X76312555Y-114903441D01*
X76275439Y-114963962D01*
X76235168Y-114988480D01*
X76127946Y-115028676D01*
X76112351Y-115037214D01*
X76010276Y-115113715D01*
X75997715Y-115126276D01*
X75921214Y-115228351D01*
X75912676Y-115243946D01*
X75867522Y-115364394D01*
X75863895Y-115379649D01*
X75858369Y-115430514D01*
X75858000Y-115437328D01*
X75858000Y-116059885D01*
X75862475Y-116075124D01*
X75863865Y-116076329D01*
X75871548Y-116078000D01*
X78555884Y-116078000D01*
X78571123Y-116073525D01*
X78572328Y-116072135D01*
X78573999Y-116064452D01*
X78573999Y-115437331D01*
X78573629Y-115430510D01*
X78568105Y-115379648D01*
X78564479Y-115364396D01*
X78519324Y-115243946D01*
X78510786Y-115228351D01*
X78434285Y-115126276D01*
X78421724Y-115113715D01*
X78319649Y-115037214D01*
X78304054Y-115028676D01*
X78193813Y-114987348D01*
X78137049Y-114944706D01*
X78112349Y-114878145D01*
X78127557Y-114808796D01*
X78149104Y-114780115D01*
X78250430Y-114679144D01*
X78250440Y-114679132D01*
X78254096Y-114675489D01*
X78289734Y-114625894D01*
X78381435Y-114498277D01*
X78384453Y-114494077D01*
X78397011Y-114468669D01*
X78425018Y-114412000D01*
X82417693Y-114412000D01*
X82436885Y-114631371D01*
X82493880Y-114844076D01*
X82509767Y-114878145D01*
X82584618Y-115038666D01*
X82584621Y-115038671D01*
X82586944Y-115043653D01*
X82590100Y-115048160D01*
X82590101Y-115048162D01*
X82654501Y-115140134D01*
X82713251Y-115224038D01*
X82868962Y-115379749D01*
X83049346Y-115506056D01*
X83248924Y-115599120D01*
X83461629Y-115656115D01*
X83681000Y-115675307D01*
X83900371Y-115656115D01*
X84113076Y-115599120D01*
X84312654Y-115506056D01*
X84493038Y-115379749D01*
X84648749Y-115224038D01*
X84707500Y-115140134D01*
X84771899Y-115048162D01*
X84771900Y-115048160D01*
X84775056Y-115043653D01*
X84777379Y-115038671D01*
X84777382Y-115038666D01*
X84852233Y-114878145D01*
X84868120Y-114844076D01*
X84925115Y-114631371D01*
X84944307Y-114412000D01*
X87267693Y-114412000D01*
X87286885Y-114631371D01*
X87343880Y-114844076D01*
X87359767Y-114878145D01*
X87434618Y-115038666D01*
X87434621Y-115038671D01*
X87436944Y-115043653D01*
X87440100Y-115048160D01*
X87440101Y-115048162D01*
X87504501Y-115140134D01*
X87563251Y-115224038D01*
X87718962Y-115379749D01*
X87899346Y-115506056D01*
X88098924Y-115599120D01*
X88311629Y-115656115D01*
X88531000Y-115675307D01*
X88750371Y-115656115D01*
X88963076Y-115599120D01*
X89162654Y-115506056D01*
X89343038Y-115379749D01*
X89498749Y-115224038D01*
X89557500Y-115140134D01*
X89621899Y-115048162D01*
X89621900Y-115048160D01*
X89625056Y-115043653D01*
X89627379Y-115038671D01*
X89627382Y-115038666D01*
X89702233Y-114878145D01*
X89718120Y-114844076D01*
X89775115Y-114631371D01*
X89794307Y-114412000D01*
X89775115Y-114192629D01*
X89718120Y-113979924D01*
X89673266Y-113883733D01*
X89627382Y-113785334D01*
X89627379Y-113785329D01*
X89625056Y-113780347D01*
X89621899Y-113775838D01*
X89609895Y-113758695D01*
X93633251Y-113758695D01*
X93633548Y-113763848D01*
X93633548Y-113763851D01*
X93640823Y-113890019D01*
X93646110Y-113981715D01*
X93647247Y-113986761D01*
X93647248Y-113986767D01*
X93652515Y-114010136D01*
X93695222Y-114199639D01*
X93735974Y-114300000D01*
X93763181Y-114367002D01*
X93779266Y-114406616D01*
X93895987Y-114597088D01*
X94042250Y-114765938D01*
X94046225Y-114769238D01*
X94046231Y-114769244D01*
X94051425Y-114773556D01*
X94091059Y-114832460D01*
X94092555Y-114903441D01*
X94055439Y-114963962D01*
X94015168Y-114988480D01*
X93907946Y-115028676D01*
X93892351Y-115037214D01*
X93790276Y-115113715D01*
X93777715Y-115126276D01*
X93701214Y-115228351D01*
X93692676Y-115243946D01*
X93647522Y-115364394D01*
X93643895Y-115379649D01*
X93638369Y-115430514D01*
X93638000Y-115437328D01*
X93638000Y-116059885D01*
X93642475Y-116075124D01*
X93643865Y-116076329D01*
X93651548Y-116078000D01*
X96335884Y-116078000D01*
X96351123Y-116073525D01*
X96352328Y-116072135D01*
X96353999Y-116064452D01*
X96353999Y-115437331D01*
X96353629Y-115430510D01*
X96348105Y-115379648D01*
X96344479Y-115364396D01*
X96299324Y-115243946D01*
X96295470Y-115236906D01*
X103393839Y-115236906D01*
X103402553Y-115248427D01*
X103509452Y-115326809D01*
X103517351Y-115331745D01*
X103746905Y-115452519D01*
X103755454Y-115456236D01*
X104000327Y-115541749D01*
X104009336Y-115544163D01*
X104264166Y-115592544D01*
X104273423Y-115593598D01*
X104532607Y-115603783D01*
X104541921Y-115603457D01*
X104799753Y-115575220D01*
X104808930Y-115573519D01*
X105059758Y-115507481D01*
X105068574Y-115504445D01*
X105306880Y-115402062D01*
X105315167Y-115397748D01*
X105535718Y-115261266D01*
X105543268Y-115255780D01*
X105548559Y-115251301D01*
X105556997Y-115238497D01*
X105550935Y-115228145D01*
X105462924Y-115140134D01*
X107665500Y-115140134D01*
X107672255Y-115202316D01*
X107723385Y-115338705D01*
X107810739Y-115455261D01*
X107927295Y-115542615D01*
X108063684Y-115593745D01*
X108125866Y-115600500D01*
X110822134Y-115600500D01*
X110884316Y-115593745D01*
X111020705Y-115542615D01*
X111137261Y-115455261D01*
X111224615Y-115338705D01*
X111275745Y-115202316D01*
X111282500Y-115140134D01*
X111282500Y-112443866D01*
X111275745Y-112381684D01*
X111224615Y-112245295D01*
X111137261Y-112128739D01*
X111020705Y-112041385D01*
X110884316Y-111990255D01*
X110822134Y-111983500D01*
X108125866Y-111983500D01*
X108063684Y-111990255D01*
X107927295Y-112041385D01*
X107810739Y-112128739D01*
X107723385Y-112245295D01*
X107672255Y-112381684D01*
X107665500Y-112443866D01*
X107665500Y-115140134D01*
X105462924Y-115140134D01*
X104486812Y-114164022D01*
X104472868Y-114156408D01*
X104471035Y-114156539D01*
X104464420Y-114160790D01*
X103400497Y-115224713D01*
X103393839Y-115236906D01*
X96295470Y-115236906D01*
X96290786Y-115228351D01*
X96214285Y-115126276D01*
X96201724Y-115113715D01*
X96099649Y-115037214D01*
X96084054Y-115028676D01*
X95973813Y-114987348D01*
X95917049Y-114944706D01*
X95892349Y-114878145D01*
X95907557Y-114808796D01*
X95929104Y-114780115D01*
X96030430Y-114679144D01*
X96030440Y-114679132D01*
X96034096Y-114675489D01*
X96069734Y-114625894D01*
X96161435Y-114498277D01*
X96164453Y-114494077D01*
X96177011Y-114468669D01*
X96261136Y-114298453D01*
X96261137Y-114298451D01*
X96263430Y-114293811D01*
X96307479Y-114148830D01*
X96326865Y-114085023D01*
X96326865Y-114085021D01*
X96328370Y-114080069D01*
X96357529Y-113858590D01*
X96357744Y-113849781D01*
X96359074Y-113795365D01*
X96359074Y-113795361D01*
X96359156Y-113792000D01*
X96355638Y-113749211D01*
X102661775Y-113749211D01*
X102674220Y-114008288D01*
X102675356Y-114017543D01*
X102725961Y-114271945D01*
X102728449Y-114280917D01*
X102816095Y-114525033D01*
X102819895Y-114533568D01*
X102942658Y-114762042D01*
X102947666Y-114769904D01*
X103017720Y-114863716D01*
X103028979Y-114872165D01*
X103041397Y-114865393D01*
X104101978Y-113804812D01*
X104108356Y-113793132D01*
X104838408Y-113793132D01*
X104838539Y-113794965D01*
X104842790Y-113801580D01*
X105910094Y-114868884D01*
X105922474Y-114875644D01*
X105930815Y-114869400D01*
X106064832Y-114661048D01*
X106069275Y-114652864D01*
X106175807Y-114416370D01*
X106178997Y-114407605D01*
X106249402Y-114157972D01*
X106251262Y-114148830D01*
X106284187Y-113890019D01*
X106284668Y-113883733D01*
X106286987Y-113795160D01*
X106286836Y-113788851D01*
X106267501Y-113528663D01*
X106266125Y-113519457D01*
X106208878Y-113266467D01*
X106206154Y-113257556D01*
X106112143Y-113015806D01*
X106108132Y-113007397D01*
X105979422Y-112782202D01*
X105974211Y-112774476D01*
X105930996Y-112719658D01*
X105919071Y-112711187D01*
X105907537Y-112717673D01*
X104846022Y-113779188D01*
X104838408Y-113793132D01*
X104108356Y-113793132D01*
X104109592Y-113790868D01*
X104109461Y-113789035D01*
X104105210Y-113782420D01*
X103039816Y-112717026D01*
X103026507Y-112709758D01*
X103016472Y-112716878D01*
X103000937Y-112735556D01*
X102995531Y-112743135D01*
X102860965Y-112964891D01*
X102856736Y-112973192D01*
X102756432Y-113212389D01*
X102753471Y-113221239D01*
X102689628Y-113472625D01*
X102688006Y-113481822D01*
X102662020Y-113739885D01*
X102661775Y-113749211D01*
X96355638Y-113749211D01*
X96340852Y-113569361D01*
X96286431Y-113352702D01*
X96197354Y-113147840D01*
X96129408Y-113042812D01*
X96078822Y-112964617D01*
X96078820Y-112964614D01*
X96076014Y-112960277D01*
X95925670Y-112795051D01*
X95921619Y-112791852D01*
X95921615Y-112791848D01*
X95754414Y-112659800D01*
X95754410Y-112659798D01*
X95750359Y-112656598D01*
X95709053Y-112633796D01*
X95659084Y-112583364D01*
X95644312Y-112513921D01*
X95669428Y-112447516D01*
X95696780Y-112420909D01*
X95751771Y-112381684D01*
X95803637Y-112344689D01*
X103391102Y-112344689D01*
X103395675Y-112354465D01*
X104461188Y-113419978D01*
X104475132Y-113427592D01*
X104476965Y-113427461D01*
X104483580Y-113423210D01*
X105548349Y-112358441D01*
X105554733Y-112346751D01*
X105545321Y-112334641D01*
X105398045Y-112232471D01*
X105390010Y-112227738D01*
X105157376Y-112113016D01*
X105148743Y-112109528D01*
X104901703Y-112030450D01*
X104892643Y-112028274D01*
X104636630Y-111986580D01*
X104627343Y-111985768D01*
X104367992Y-111982373D01*
X104358681Y-111982943D01*
X104101682Y-112017919D01*
X104092546Y-112019860D01*
X103843543Y-112092439D01*
X103834800Y-112095707D01*
X103599252Y-112204296D01*
X103591097Y-112208816D01*
X103400240Y-112333947D01*
X103391102Y-112344689D01*
X95803637Y-112344689D01*
X95875860Y-112293173D01*
X95936775Y-112232471D01*
X96030435Y-112139137D01*
X96034096Y-112135489D01*
X96038947Y-112128739D01*
X96161435Y-111958277D01*
X96164453Y-111954077D01*
X96176797Y-111929102D01*
X96261136Y-111758453D01*
X96261137Y-111758451D01*
X96263430Y-111753811D01*
X96328370Y-111540069D01*
X96357529Y-111318590D01*
X96359156Y-111252000D01*
X96340852Y-111029361D01*
X96286431Y-110812702D01*
X96197354Y-110607840D01*
X96076014Y-110420277D01*
X95925670Y-110255051D01*
X95921619Y-110251852D01*
X95921615Y-110251848D01*
X95754414Y-110119800D01*
X95754410Y-110119798D01*
X95750359Y-110116598D01*
X95707387Y-110092876D01*
X95698136Y-110087769D01*
X95554789Y-110008638D01*
X95549920Y-110006914D01*
X95549916Y-110006912D01*
X95349087Y-109935795D01*
X95349083Y-109935794D01*
X95344212Y-109934069D01*
X95339119Y-109933162D01*
X95339116Y-109933161D01*
X95129373Y-109895800D01*
X95129367Y-109895799D01*
X95124284Y-109894894D01*
X95050452Y-109893992D01*
X94906081Y-109892228D01*
X94906079Y-109892228D01*
X94900911Y-109892165D01*
X94680091Y-109925955D01*
X94467756Y-109995357D01*
X94442015Y-110008757D01*
X94283740Y-110091150D01*
X94269607Y-110098507D01*
X94265474Y-110101610D01*
X94265471Y-110101612D01*
X94128024Y-110204810D01*
X94090965Y-110232635D01*
X93936629Y-110394138D01*
X93933715Y-110398410D01*
X93933714Y-110398411D01*
X93853611Y-110515838D01*
X93810743Y-110578680D01*
X93716688Y-110781305D01*
X93656989Y-110996570D01*
X93633251Y-111218695D01*
X93633548Y-111223848D01*
X93633548Y-111223851D01*
X93642667Y-111382000D01*
X93646110Y-111441715D01*
X93647247Y-111446761D01*
X93647248Y-111446767D01*
X93648959Y-111454359D01*
X93695222Y-111659639D01*
X93733995Y-111755126D01*
X93764454Y-111830137D01*
X93779266Y-111866616D01*
X93815357Y-111925512D01*
X93889665Y-112046771D01*
X93895987Y-112057088D01*
X94042250Y-112225938D01*
X94214126Y-112368632D01*
X94263629Y-112397559D01*
X94287445Y-112411476D01*
X94336169Y-112463114D01*
X94349240Y-112532897D01*
X94322509Y-112598669D01*
X94282055Y-112632027D01*
X94269607Y-112638507D01*
X94265474Y-112641610D01*
X94265471Y-112641612D01*
X94135484Y-112739209D01*
X94090965Y-112772635D01*
X93936629Y-112934138D01*
X93810743Y-113118680D01*
X93767245Y-113212389D01*
X93719328Y-113315618D01*
X93716688Y-113321305D01*
X93656989Y-113536570D01*
X93633251Y-113758695D01*
X89609895Y-113758695D01*
X89501908Y-113604473D01*
X89501906Y-113604470D01*
X89498749Y-113599962D01*
X89343038Y-113444251D01*
X89162654Y-113317944D01*
X88963076Y-113224880D01*
X88750371Y-113167885D01*
X88531000Y-113148693D01*
X88311629Y-113167885D01*
X88098924Y-113224880D01*
X88030705Y-113256691D01*
X87904334Y-113315618D01*
X87904329Y-113315621D01*
X87899347Y-113317944D01*
X87894840Y-113321100D01*
X87894838Y-113321101D01*
X87723473Y-113441092D01*
X87723470Y-113441094D01*
X87718962Y-113444251D01*
X87563251Y-113599962D01*
X87560094Y-113604470D01*
X87560092Y-113604473D01*
X87440101Y-113775838D01*
X87436944Y-113780347D01*
X87434621Y-113785329D01*
X87434618Y-113785334D01*
X87388734Y-113883733D01*
X87343880Y-113979924D01*
X87286885Y-114192629D01*
X87267693Y-114412000D01*
X84944307Y-114412000D01*
X84925115Y-114192629D01*
X84868120Y-113979924D01*
X84823266Y-113883733D01*
X84777382Y-113785334D01*
X84777379Y-113785329D01*
X84775056Y-113780347D01*
X84771899Y-113775838D01*
X84651908Y-113604473D01*
X84651906Y-113604470D01*
X84648749Y-113599962D01*
X84493038Y-113444251D01*
X84312654Y-113317944D01*
X84113076Y-113224880D01*
X83900371Y-113167885D01*
X83681000Y-113148693D01*
X83461629Y-113167885D01*
X83248924Y-113224880D01*
X83180705Y-113256691D01*
X83054334Y-113315618D01*
X83054329Y-113315621D01*
X83049347Y-113317944D01*
X83044840Y-113321100D01*
X83044838Y-113321101D01*
X82873473Y-113441092D01*
X82873470Y-113441094D01*
X82868962Y-113444251D01*
X82713251Y-113599962D01*
X82710094Y-113604470D01*
X82710092Y-113604473D01*
X82590101Y-113775838D01*
X82586944Y-113780347D01*
X82584621Y-113785329D01*
X82584618Y-113785334D01*
X82538734Y-113883733D01*
X82493880Y-113979924D01*
X82436885Y-114192629D01*
X82417693Y-114412000D01*
X78425018Y-114412000D01*
X78481136Y-114298453D01*
X78481137Y-114298451D01*
X78483430Y-114293811D01*
X78527479Y-114148830D01*
X78546865Y-114085023D01*
X78546865Y-114085021D01*
X78548370Y-114080069D01*
X78577529Y-113858590D01*
X78577744Y-113849781D01*
X78579074Y-113795365D01*
X78579074Y-113795361D01*
X78579156Y-113792000D01*
X78560852Y-113569361D01*
X78506431Y-113352702D01*
X78417354Y-113147840D01*
X78349408Y-113042812D01*
X78298822Y-112964617D01*
X78298820Y-112964614D01*
X78296014Y-112960277D01*
X78145670Y-112795051D01*
X78141619Y-112791852D01*
X78141615Y-112791848D01*
X77974414Y-112659800D01*
X77974410Y-112659798D01*
X77970359Y-112656598D01*
X77929053Y-112633796D01*
X77879084Y-112583364D01*
X77864312Y-112513921D01*
X77889428Y-112447516D01*
X77916780Y-112420909D01*
X77971771Y-112381684D01*
X78095860Y-112293173D01*
X78156775Y-112232471D01*
X78250435Y-112139137D01*
X78254096Y-112135489D01*
X78258947Y-112128739D01*
X78381435Y-111958277D01*
X78384453Y-111954077D01*
X78396797Y-111929102D01*
X78481136Y-111758453D01*
X78481137Y-111758451D01*
X78483430Y-111753811D01*
X78548370Y-111540069D01*
X78573727Y-111347469D01*
X81968095Y-111347469D01*
X81968392Y-111352622D01*
X81968392Y-111352625D01*
X81974067Y-111451041D01*
X81981427Y-111578697D01*
X81982564Y-111583743D01*
X81982565Y-111583749D01*
X82014741Y-111726523D01*
X82032346Y-111804642D01*
X82034288Y-111809424D01*
X82034289Y-111809428D01*
X82108842Y-111993029D01*
X82119484Y-112019237D01*
X82240501Y-112216719D01*
X82392147Y-112391784D01*
X82570349Y-112539730D01*
X82770322Y-112656584D01*
X82986694Y-112739209D01*
X82991760Y-112740240D01*
X82991761Y-112740240D01*
X83005991Y-112743135D01*
X83213656Y-112785385D01*
X83344324Y-112790176D01*
X83439949Y-112793683D01*
X83439953Y-112793683D01*
X83445113Y-112793872D01*
X83450233Y-112793216D01*
X83450235Y-112793216D01*
X83536210Y-112782202D01*
X83674847Y-112764442D01*
X83679795Y-112762957D01*
X83679802Y-112762956D01*
X83891747Y-112699369D01*
X83896690Y-112697886D01*
X83901324Y-112695616D01*
X84100049Y-112598262D01*
X84100052Y-112598260D01*
X84104684Y-112595991D01*
X84293243Y-112461494D01*
X84457303Y-112298005D01*
X84592458Y-112109917D01*
X84626329Y-112041385D01*
X84692784Y-111906922D01*
X84692785Y-111906920D01*
X84695078Y-111902280D01*
X84762408Y-111680671D01*
X84792640Y-111451041D01*
X84792722Y-111447691D01*
X84794245Y-111385365D01*
X84794245Y-111385361D01*
X84794327Y-111382000D01*
X84791488Y-111347469D01*
X87418095Y-111347469D01*
X87418392Y-111352622D01*
X87418392Y-111352625D01*
X87424067Y-111451041D01*
X87431427Y-111578697D01*
X87432564Y-111583743D01*
X87432565Y-111583749D01*
X87464741Y-111726523D01*
X87482346Y-111804642D01*
X87484288Y-111809424D01*
X87484289Y-111809428D01*
X87558842Y-111993029D01*
X87569484Y-112019237D01*
X87690501Y-112216719D01*
X87842147Y-112391784D01*
X88020349Y-112539730D01*
X88220322Y-112656584D01*
X88436694Y-112739209D01*
X88441760Y-112740240D01*
X88441761Y-112740240D01*
X88455991Y-112743135D01*
X88663656Y-112785385D01*
X88794324Y-112790176D01*
X88889949Y-112793683D01*
X88889953Y-112793683D01*
X88895113Y-112793872D01*
X88900233Y-112793216D01*
X88900235Y-112793216D01*
X88986210Y-112782202D01*
X89124847Y-112764442D01*
X89129795Y-112762957D01*
X89129802Y-112762956D01*
X89341747Y-112699369D01*
X89346690Y-112697886D01*
X89351324Y-112695616D01*
X89550049Y-112598262D01*
X89550052Y-112598260D01*
X89554684Y-112595991D01*
X89743243Y-112461494D01*
X89907303Y-112298005D01*
X90042458Y-112109917D01*
X90076329Y-112041385D01*
X90142784Y-111906922D01*
X90142785Y-111906920D01*
X90145078Y-111902280D01*
X90212408Y-111680671D01*
X90242640Y-111451041D01*
X90242722Y-111447691D01*
X90244245Y-111385365D01*
X90244245Y-111385361D01*
X90244327Y-111382000D01*
X90230479Y-111213562D01*
X90225773Y-111156318D01*
X90225772Y-111156312D01*
X90225349Y-111151167D01*
X90168925Y-110926533D01*
X90166866Y-110921797D01*
X90078630Y-110718868D01*
X90078628Y-110718865D01*
X90076570Y-110714131D01*
X89950764Y-110519665D01*
X89794887Y-110348358D01*
X89790836Y-110345159D01*
X89790832Y-110345155D01*
X89617177Y-110208011D01*
X89617172Y-110208008D01*
X89613123Y-110204810D01*
X89608607Y-110202317D01*
X89608604Y-110202315D01*
X89414879Y-110095373D01*
X89414875Y-110095371D01*
X89410355Y-110092876D01*
X89405486Y-110091152D01*
X89405482Y-110091150D01*
X89196903Y-110017288D01*
X89196899Y-110017287D01*
X89192028Y-110015562D01*
X89186935Y-110014655D01*
X89186932Y-110014654D01*
X88969095Y-109975851D01*
X88969089Y-109975850D01*
X88964006Y-109974945D01*
X88891096Y-109974054D01*
X88737581Y-109972179D01*
X88737579Y-109972179D01*
X88732411Y-109972116D01*
X88503464Y-110007150D01*
X88283314Y-110079106D01*
X88278726Y-110081494D01*
X88278722Y-110081496D01*
X88211292Y-110116598D01*
X88077872Y-110186052D01*
X88073739Y-110189155D01*
X88073736Y-110189157D01*
X87896790Y-110322012D01*
X87892655Y-110325117D01*
X87889083Y-110328855D01*
X87805369Y-110416457D01*
X87732639Y-110492564D01*
X87729725Y-110496836D01*
X87729724Y-110496837D01*
X87673895Y-110578680D01*
X87602119Y-110683899D01*
X87504602Y-110893981D01*
X87442707Y-111117169D01*
X87418095Y-111347469D01*
X84791488Y-111347469D01*
X84780479Y-111213562D01*
X84775773Y-111156318D01*
X84775772Y-111156312D01*
X84775349Y-111151167D01*
X84718925Y-110926533D01*
X84716866Y-110921797D01*
X84628630Y-110718868D01*
X84628628Y-110718865D01*
X84626570Y-110714131D01*
X84500764Y-110519665D01*
X84344887Y-110348358D01*
X84340836Y-110345159D01*
X84340832Y-110345155D01*
X84167177Y-110208011D01*
X84167172Y-110208008D01*
X84163123Y-110204810D01*
X84158607Y-110202317D01*
X84158604Y-110202315D01*
X83964879Y-110095373D01*
X83964875Y-110095371D01*
X83960355Y-110092876D01*
X83955486Y-110091152D01*
X83955482Y-110091150D01*
X83746903Y-110017288D01*
X83746899Y-110017287D01*
X83742028Y-110015562D01*
X83736935Y-110014655D01*
X83736932Y-110014654D01*
X83519095Y-109975851D01*
X83519089Y-109975850D01*
X83514006Y-109974945D01*
X83441096Y-109974054D01*
X83287581Y-109972179D01*
X83287579Y-109972179D01*
X83282411Y-109972116D01*
X83053464Y-110007150D01*
X82833314Y-110079106D01*
X82828726Y-110081494D01*
X82828722Y-110081496D01*
X82761292Y-110116598D01*
X82627872Y-110186052D01*
X82623739Y-110189155D01*
X82623736Y-110189157D01*
X82446790Y-110322012D01*
X82442655Y-110325117D01*
X82439083Y-110328855D01*
X82355369Y-110416457D01*
X82282639Y-110492564D01*
X82279725Y-110496836D01*
X82279724Y-110496837D01*
X82223895Y-110578680D01*
X82152119Y-110683899D01*
X82054602Y-110893981D01*
X81992707Y-111117169D01*
X81968095Y-111347469D01*
X78573727Y-111347469D01*
X78577529Y-111318590D01*
X78579156Y-111252000D01*
X78560852Y-111029361D01*
X78506431Y-110812702D01*
X78417354Y-110607840D01*
X78296014Y-110420277D01*
X78145670Y-110255051D01*
X78141619Y-110251852D01*
X78141615Y-110251848D01*
X77974414Y-110119800D01*
X77974410Y-110119798D01*
X77970359Y-110116598D01*
X77927387Y-110092876D01*
X77918136Y-110087769D01*
X77774789Y-110008638D01*
X77769920Y-110006914D01*
X77769916Y-110006912D01*
X77569087Y-109935795D01*
X77569083Y-109935794D01*
X77564212Y-109934069D01*
X77559119Y-109933162D01*
X77559116Y-109933161D01*
X77349373Y-109895800D01*
X77349367Y-109895799D01*
X77344284Y-109894894D01*
X77270452Y-109893992D01*
X77126081Y-109892228D01*
X77126079Y-109892228D01*
X77120911Y-109892165D01*
X76900091Y-109925955D01*
X76687756Y-109995357D01*
X76662015Y-110008757D01*
X76503740Y-110091150D01*
X76489607Y-110098507D01*
X76485474Y-110101610D01*
X76485471Y-110101612D01*
X76348024Y-110204810D01*
X76310965Y-110232635D01*
X76156629Y-110394138D01*
X76153715Y-110398410D01*
X76153714Y-110398411D01*
X76073611Y-110515838D01*
X76030743Y-110578680D01*
X75936688Y-110781305D01*
X75876989Y-110996570D01*
X75853251Y-111218695D01*
X75853548Y-111223848D01*
X75853548Y-111223851D01*
X75862667Y-111382000D01*
X75866110Y-111441715D01*
X75867247Y-111446761D01*
X75867248Y-111446767D01*
X75868959Y-111454359D01*
X75915222Y-111659639D01*
X75953995Y-111755126D01*
X75984454Y-111830137D01*
X75999266Y-111866616D01*
X76035357Y-111925512D01*
X76109665Y-112046771D01*
X76115987Y-112057088D01*
X76262250Y-112225938D01*
X76434126Y-112368632D01*
X76483629Y-112397559D01*
X76507445Y-112411476D01*
X76556169Y-112463114D01*
X76569240Y-112532897D01*
X76542509Y-112598669D01*
X76502055Y-112632027D01*
X76489607Y-112638507D01*
X76485474Y-112641610D01*
X76485471Y-112641612D01*
X76355484Y-112739209D01*
X76310965Y-112772635D01*
X76156629Y-112934138D01*
X76030743Y-113118680D01*
X75987245Y-113212389D01*
X75939328Y-113315618D01*
X75936688Y-113321305D01*
X75876989Y-113536570D01*
X75853251Y-113758695D01*
X68441485Y-113758695D01*
X68084812Y-113402022D01*
X68070868Y-113394408D01*
X68069035Y-113394539D01*
X68062420Y-113398790D01*
X67384207Y-114077003D01*
X67377777Y-114088777D01*
X67387074Y-114100793D01*
X67430069Y-114130898D01*
X67439555Y-114136376D01*
X67544965Y-114185529D01*
X67598250Y-114232446D01*
X67617711Y-114300723D01*
X67597169Y-114368683D01*
X67544965Y-114413919D01*
X67439311Y-114463186D01*
X67439306Y-114463189D01*
X67434324Y-114465512D01*
X67429817Y-114468668D01*
X67429815Y-114468669D01*
X67256730Y-114589864D01*
X67256727Y-114589866D01*
X67252219Y-114593023D01*
X67095023Y-114750219D01*
X67091866Y-114754727D01*
X67091864Y-114754730D01*
X67005448Y-114878145D01*
X66967512Y-114932324D01*
X66965189Y-114937306D01*
X66965186Y-114937311D01*
X66907428Y-115061174D01*
X66873560Y-115133804D01*
X66872138Y-115139112D01*
X66872137Y-115139114D01*
X66857307Y-115194460D01*
X66816022Y-115348537D01*
X66796647Y-115570000D01*
X66816022Y-115791463D01*
X66873560Y-116006196D01*
X66875882Y-116011177D01*
X66875883Y-116011178D01*
X66965186Y-116202689D01*
X66965189Y-116202694D01*
X66967512Y-116207676D01*
X67095023Y-116389781D01*
X67252219Y-116546977D01*
X67256727Y-116550134D01*
X67256730Y-116550136D01*
X67327298Y-116599548D01*
X67434323Y-116674488D01*
X67439305Y-116676811D01*
X67439310Y-116676814D01*
X67544373Y-116725805D01*
X67597658Y-116772722D01*
X67617119Y-116840999D01*
X67596577Y-116908959D01*
X67544373Y-116954195D01*
X67439311Y-117003186D01*
X67439306Y-117003189D01*
X67434324Y-117005512D01*
X67429817Y-117008668D01*
X67429815Y-117008669D01*
X67256730Y-117129864D01*
X67256727Y-117129866D01*
X67252219Y-117133023D01*
X67095023Y-117290219D01*
X67091866Y-117294727D01*
X67091864Y-117294730D01*
X66993192Y-117435649D01*
X66967512Y-117472324D01*
X66965189Y-117477306D01*
X66965186Y-117477311D01*
X66891503Y-117635325D01*
X66873560Y-117673804D01*
X66872138Y-117679112D01*
X66872137Y-117679114D01*
X66856734Y-117736598D01*
X66816022Y-117888537D01*
X66796647Y-118110000D01*
X61727353Y-118110000D01*
X61707978Y-117888537D01*
X61667266Y-117736598D01*
X61651863Y-117679114D01*
X61651862Y-117679112D01*
X61650440Y-117673804D01*
X61632497Y-117635325D01*
X61558814Y-117477311D01*
X61558811Y-117477306D01*
X61556488Y-117472324D01*
X61530808Y-117435649D01*
X61432136Y-117294730D01*
X61432134Y-117294727D01*
X61428977Y-117290219D01*
X61271781Y-117133023D01*
X61267273Y-117129866D01*
X61267270Y-117129864D01*
X61191505Y-117076813D01*
X61089677Y-117005512D01*
X61084695Y-117003189D01*
X61084690Y-117003186D01*
X60979627Y-116954195D01*
X60926342Y-116907278D01*
X60906881Y-116839001D01*
X60927423Y-116771041D01*
X60979627Y-116725805D01*
X61084690Y-116676814D01*
X61084695Y-116676811D01*
X61089677Y-116674488D01*
X61196702Y-116599548D01*
X61267270Y-116550136D01*
X61267273Y-116550134D01*
X61271781Y-116546977D01*
X61428977Y-116389781D01*
X61556488Y-116207676D01*
X61558811Y-116202694D01*
X61558814Y-116202689D01*
X61648117Y-116011178D01*
X61648118Y-116011177D01*
X61650440Y-116006196D01*
X61707978Y-115791463D01*
X61727353Y-115570000D01*
X61707978Y-115348537D01*
X61666693Y-115194460D01*
X61651863Y-115139114D01*
X61651862Y-115139112D01*
X61650440Y-115133804D01*
X61616572Y-115061174D01*
X61558814Y-114937311D01*
X61558811Y-114937306D01*
X61556488Y-114932324D01*
X61518552Y-114878145D01*
X61432136Y-114754730D01*
X61432134Y-114754727D01*
X61428977Y-114750219D01*
X61271781Y-114593023D01*
X61267273Y-114589866D01*
X61267270Y-114589864D01*
X61186871Y-114533568D01*
X61089677Y-114465512D01*
X61084695Y-114463189D01*
X61084690Y-114463186D01*
X60979627Y-114414195D01*
X60926342Y-114367278D01*
X60906881Y-114299001D01*
X60927423Y-114231041D01*
X60979627Y-114185805D01*
X61084690Y-114136814D01*
X61084695Y-114136811D01*
X61089677Y-114134488D01*
X61191505Y-114063187D01*
X61267270Y-114010136D01*
X61267273Y-114010134D01*
X61271781Y-114006977D01*
X61428977Y-113849781D01*
X61467080Y-113795365D01*
X61553331Y-113672185D01*
X61553332Y-113672183D01*
X61556488Y-113667676D01*
X61558811Y-113662694D01*
X61558814Y-113662689D01*
X61648117Y-113471178D01*
X61648118Y-113471177D01*
X61650440Y-113466196D01*
X61707978Y-113251463D01*
X61726874Y-113035475D01*
X66797628Y-113035475D01*
X66816038Y-113245896D01*
X66817941Y-113256691D01*
X66872609Y-113460715D01*
X66876355Y-113471007D01*
X66965623Y-113662441D01*
X66971103Y-113671932D01*
X67001794Y-113715765D01*
X67012271Y-113724140D01*
X67025718Y-113717072D01*
X67699978Y-113042812D01*
X67706356Y-113031132D01*
X68436408Y-113031132D01*
X68436539Y-113032965D01*
X68440790Y-113039580D01*
X69119003Y-113717793D01*
X69130777Y-113724223D01*
X69142793Y-113714926D01*
X69172897Y-113671932D01*
X69178377Y-113662441D01*
X69267645Y-113471007D01*
X69271391Y-113460715D01*
X69326059Y-113256691D01*
X69327962Y-113245896D01*
X69346372Y-113035475D01*
X69346372Y-113024525D01*
X69327962Y-112814104D01*
X69326059Y-112803309D01*
X69271391Y-112599285D01*
X69267645Y-112588993D01*
X69178377Y-112397559D01*
X69172897Y-112388068D01*
X69142206Y-112344235D01*
X69131729Y-112335860D01*
X69118282Y-112342928D01*
X68444022Y-113017188D01*
X68436408Y-113031132D01*
X67706356Y-113031132D01*
X67707592Y-113028868D01*
X67707461Y-113027035D01*
X67703210Y-113020420D01*
X67024997Y-112342207D01*
X67013223Y-112335777D01*
X67001207Y-112345074D01*
X66971103Y-112388068D01*
X66965623Y-112397559D01*
X66876355Y-112588993D01*
X66872609Y-112599285D01*
X66817941Y-112803309D01*
X66816038Y-112814104D01*
X66797628Y-113024525D01*
X66797628Y-113035475D01*
X61726874Y-113035475D01*
X61727353Y-113030000D01*
X61707978Y-112808537D01*
X61650440Y-112593804D01*
X61623186Y-112535357D01*
X61558814Y-112397311D01*
X61558811Y-112397306D01*
X61556488Y-112392324D01*
X61543857Y-112374285D01*
X61432136Y-112214730D01*
X61432134Y-112214727D01*
X61428977Y-112210219D01*
X61271781Y-112053023D01*
X61267273Y-112049866D01*
X61267270Y-112049864D01*
X61173019Y-111983869D01*
X61153599Y-111970271D01*
X67377860Y-111970271D01*
X67384928Y-111983718D01*
X68059188Y-112657978D01*
X68073132Y-112665592D01*
X68074965Y-112665461D01*
X68081580Y-112661210D01*
X68759793Y-111982997D01*
X68766223Y-111971223D01*
X68756926Y-111959207D01*
X68713931Y-111929102D01*
X68704445Y-111923624D01*
X68513007Y-111834355D01*
X68502715Y-111830609D01*
X68298691Y-111775941D01*
X68287896Y-111774038D01*
X68077475Y-111755628D01*
X68066525Y-111755628D01*
X67856104Y-111774038D01*
X67845309Y-111775941D01*
X67641285Y-111830609D01*
X67630993Y-111834355D01*
X67439559Y-111923623D01*
X67430068Y-111929103D01*
X67386235Y-111959794D01*
X67377860Y-111970271D01*
X61153599Y-111970271D01*
X61089677Y-111925512D01*
X61084695Y-111923189D01*
X61084690Y-111923186D01*
X60893178Y-111833883D01*
X60893177Y-111833882D01*
X60888196Y-111831560D01*
X60882888Y-111830138D01*
X60882886Y-111830137D01*
X60787737Y-111804642D01*
X60673463Y-111774022D01*
X60452000Y-111754647D01*
X60230537Y-111774022D01*
X60116263Y-111804642D01*
X60021114Y-111830137D01*
X60021112Y-111830138D01*
X60015804Y-111831560D01*
X60010823Y-111833882D01*
X60010822Y-111833883D01*
X59819311Y-111923186D01*
X59819306Y-111923189D01*
X59814324Y-111925512D01*
X59809817Y-111928668D01*
X59809815Y-111928669D01*
X59636730Y-112049864D01*
X59636727Y-112049866D01*
X59632219Y-112053023D01*
X59475023Y-112210219D01*
X59471866Y-112214727D01*
X59471864Y-112214730D01*
X59360143Y-112374285D01*
X59347512Y-112392324D01*
X59345189Y-112397306D01*
X59345186Y-112397311D01*
X59280814Y-112535357D01*
X59253560Y-112593804D01*
X59196022Y-112808537D01*
X59176647Y-113030000D01*
X59196022Y-113251463D01*
X59253560Y-113466196D01*
X59255882Y-113471177D01*
X59255883Y-113471178D01*
X59345186Y-113662689D01*
X59345189Y-113662694D01*
X59347512Y-113667676D01*
X59350668Y-113672183D01*
X59350669Y-113672185D01*
X59436921Y-113795365D01*
X59475023Y-113849781D01*
X59632219Y-114006977D01*
X59636727Y-114010134D01*
X59636730Y-114010136D01*
X59712495Y-114063187D01*
X59814323Y-114134488D01*
X59819305Y-114136811D01*
X59819310Y-114136814D01*
X59924373Y-114185805D01*
X59977658Y-114232722D01*
X59997119Y-114300999D01*
X59976577Y-114368959D01*
X59924373Y-114414195D01*
X59819311Y-114463186D01*
X59819306Y-114463189D01*
X59814324Y-114465512D01*
X59809817Y-114468668D01*
X59809815Y-114468669D01*
X59636730Y-114589864D01*
X59636727Y-114589866D01*
X59632219Y-114593023D01*
X59475023Y-114750219D01*
X59471866Y-114754727D01*
X59471864Y-114754730D01*
X59385448Y-114878145D01*
X59347512Y-114932324D01*
X59345189Y-114937306D01*
X59345186Y-114937311D01*
X59287428Y-115061174D01*
X59253560Y-115133804D01*
X59252138Y-115139112D01*
X59252137Y-115139114D01*
X59237307Y-115194460D01*
X59196022Y-115348537D01*
X59176647Y-115570000D01*
X59196022Y-115791463D01*
X59253560Y-116006196D01*
X59255882Y-116011177D01*
X59255883Y-116011178D01*
X59345186Y-116202689D01*
X59345189Y-116202694D01*
X59347512Y-116207676D01*
X59475023Y-116389781D01*
X59632219Y-116546977D01*
X59636727Y-116550134D01*
X59636730Y-116550136D01*
X59707298Y-116599548D01*
X59814323Y-116674488D01*
X59819305Y-116676811D01*
X59819310Y-116676814D01*
X59924373Y-116725805D01*
X59977658Y-116772722D01*
X59997119Y-116840999D01*
X59976577Y-116908959D01*
X59924373Y-116954195D01*
X59819311Y-117003186D01*
X59819306Y-117003189D01*
X59814324Y-117005512D01*
X59809817Y-117008668D01*
X59809815Y-117008669D01*
X59636730Y-117129864D01*
X59636727Y-117129866D01*
X59632219Y-117133023D01*
X59475023Y-117290219D01*
X59471866Y-117294727D01*
X59471864Y-117294730D01*
X59373192Y-117435649D01*
X59347512Y-117472324D01*
X59345189Y-117477306D01*
X59345186Y-117477311D01*
X59271503Y-117635325D01*
X59253560Y-117673804D01*
X59252138Y-117679112D01*
X59252137Y-117679114D01*
X59236734Y-117736598D01*
X59196022Y-117888537D01*
X59176647Y-118110000D01*
X59196022Y-118331463D01*
X59253560Y-118546196D01*
X59255882Y-118551177D01*
X59255883Y-118551178D01*
X59345186Y-118742689D01*
X59345189Y-118742694D01*
X59347512Y-118747676D01*
X59350668Y-118752183D01*
X59350669Y-118752185D01*
X59436921Y-118875365D01*
X59475023Y-118929781D01*
X59632219Y-119086977D01*
X59636727Y-119090134D01*
X59636730Y-119090136D01*
X59712495Y-119143187D01*
X59814323Y-119214488D01*
X59819305Y-119216811D01*
X59819310Y-119216814D01*
X59924373Y-119265805D01*
X59977658Y-119312722D01*
X59997119Y-119380999D01*
X59976577Y-119448959D01*
X59924373Y-119494195D01*
X59819311Y-119543186D01*
X59819306Y-119543189D01*
X59814324Y-119545512D01*
X59809817Y-119548668D01*
X59809815Y-119548669D01*
X59636730Y-119669864D01*
X59636727Y-119669866D01*
X59632219Y-119673023D01*
X59475023Y-119830219D01*
X59471866Y-119834727D01*
X59471864Y-119834730D01*
X59350669Y-120007815D01*
X59347512Y-120012324D01*
X59345189Y-120017306D01*
X59345186Y-120017311D01*
X59280814Y-120155357D01*
X59253560Y-120213804D01*
X59196022Y-120428537D01*
X59176647Y-120650000D01*
X59196022Y-120871463D01*
X59253560Y-121086196D01*
X59255882Y-121091177D01*
X59255883Y-121091178D01*
X59345186Y-121282689D01*
X59345189Y-121282694D01*
X59347512Y-121287676D01*
X59350668Y-121292183D01*
X59350669Y-121292185D01*
X59436921Y-121415365D01*
X59475023Y-121469781D01*
X59632219Y-121626977D01*
X59636727Y-121630134D01*
X59636730Y-121630136D01*
X59712495Y-121683187D01*
X59814323Y-121754488D01*
X59819305Y-121756811D01*
X59819310Y-121756814D01*
X59924373Y-121805805D01*
X59977658Y-121852722D01*
X59997119Y-121920999D01*
X59976577Y-121988959D01*
X59924373Y-122034195D01*
X59819311Y-122083186D01*
X59819306Y-122083189D01*
X59814324Y-122085512D01*
X59809817Y-122088668D01*
X59809815Y-122088669D01*
X59636730Y-122209864D01*
X59636727Y-122209866D01*
X59632219Y-122213023D01*
X59475023Y-122370219D01*
X59471866Y-122374727D01*
X59471864Y-122374730D01*
X59351988Y-122545931D01*
X59347512Y-122552324D01*
X59345189Y-122557306D01*
X59345186Y-122557311D01*
X59275841Y-122706022D01*
X59253560Y-122753804D01*
X59196022Y-122968537D01*
X59176647Y-123190000D01*
X59196022Y-123411463D01*
X59253560Y-123626196D01*
X59255882Y-123631177D01*
X59255883Y-123631178D01*
X59345186Y-123822689D01*
X59345189Y-123822694D01*
X59347512Y-123827676D01*
X59350668Y-123832183D01*
X59350669Y-123832185D01*
X59436921Y-123955365D01*
X59475023Y-124009781D01*
X59632219Y-124166977D01*
X59636727Y-124170134D01*
X59636730Y-124170136D01*
X59712495Y-124223187D01*
X59814323Y-124294488D01*
X59819305Y-124296811D01*
X59819310Y-124296814D01*
X59924373Y-124345805D01*
X59977658Y-124392722D01*
X59997119Y-124460999D01*
X59976577Y-124528959D01*
X59924373Y-124574195D01*
X59819311Y-124623186D01*
X59819306Y-124623189D01*
X59814324Y-124625512D01*
X59809817Y-124628668D01*
X59809815Y-124628669D01*
X59636730Y-124749864D01*
X59636727Y-124749866D01*
X59632219Y-124753023D01*
X59475023Y-124910219D01*
X59471866Y-124914727D01*
X59471864Y-124914730D01*
X59350669Y-125087815D01*
X59347512Y-125092324D01*
X59345189Y-125097306D01*
X59345186Y-125097311D01*
X59280814Y-125235357D01*
X59253560Y-125293804D01*
X59196022Y-125508537D01*
X59176647Y-125730000D01*
X59196022Y-125951463D01*
X59253560Y-126166196D01*
X59255882Y-126171177D01*
X59255883Y-126171178D01*
X59345186Y-126362689D01*
X59345189Y-126362694D01*
X59347512Y-126367676D01*
X59350668Y-126372183D01*
X59350669Y-126372185D01*
X59439516Y-126499071D01*
X59475023Y-126549781D01*
X59632219Y-126706977D01*
X59636727Y-126710134D01*
X59636730Y-126710136D01*
X59696407Y-126751922D01*
X59814323Y-126834488D01*
X59819305Y-126836811D01*
X59819310Y-126836814D01*
X59924373Y-126885805D01*
X59977658Y-126932722D01*
X59997119Y-127000999D01*
X59976577Y-127068959D01*
X59924373Y-127114195D01*
X59819311Y-127163186D01*
X59819306Y-127163189D01*
X59814324Y-127165512D01*
X59809817Y-127168668D01*
X59809815Y-127168669D01*
X59636730Y-127289864D01*
X59636727Y-127289866D01*
X59632219Y-127293023D01*
X59475023Y-127450219D01*
X59471866Y-127454727D01*
X59471864Y-127454730D01*
X59367736Y-127603441D01*
X59347512Y-127632324D01*
X59345189Y-127637306D01*
X59345186Y-127637311D01*
X59288511Y-127758851D01*
X59253560Y-127833804D01*
X59252138Y-127839112D01*
X59252137Y-127839114D01*
X59248213Y-127853758D01*
X59196022Y-128048537D01*
X59176647Y-128270000D01*
X58420500Y-128270000D01*
X58420500Y-107568500D01*
X58440502Y-107500379D01*
X58494158Y-107453886D01*
X58546500Y-107442500D01*
X114681500Y-107442500D01*
X114749621Y-107462502D01*
G37*
G04 #@! TD.AperFunction*
M02*
