%FSLAX45Y45*%
G04 Gerber Fmt 4.5, Leading zero omitted, Abs format (unit mm)*
G04 Created by KiCad (PCBNEW (6.0.6)) date 2022-11-08 17:25:59*
%MOMM*%
%LPD*%
G01*
G04 APERTURE LIST*
%TA.AperFunction,Profile*%
%ADD10C,3.213100*%
%TD*%
%TA.AperFunction,Profile*%
%ADD11C,0.025400*%
%TD*%
%ADD12C,0.200000*%
%ADD13C,0.076200*%
%ADD14C,0.080000*%
%ADD15C,0.100000*%
%ADD16C,0.102000*%
%ADD17C,0.110000*%
%ADD18C,0.130000*%
G04 APERTURE END LIST*
D10*
X11351305Y-13980750D02*
G75*
G03*
X11351305Y-13980750I-160655J0D01*
G01*
X11351305Y-12837750D02*
G75*
G03*
X11351305Y-12837750I-160655J0D01*
G01*
D11*
X6212250Y-9662750D02*
X11927250Y-9662750D01*
X11927250Y-9662750D02*
X11927250Y-15809550D01*
X11927250Y-15809550D02*
X6212250Y-15809550D01*
X6212250Y-15809550D02*
X6212250Y-9662750D01*
D12*
D13*
X6428150Y-10183450D02*
X6504350Y-10259650D01*
X6504350Y-10183450D02*
X6428150Y-10259650D01*
X6428150Y-10437450D02*
X6504350Y-10513650D01*
X6504350Y-10437450D02*
X6428150Y-10513650D01*
X6428150Y-10691450D02*
X6504350Y-10767650D01*
X6504350Y-10691450D02*
X6428150Y-10767650D01*
X6428150Y-10945450D02*
X6504350Y-11021650D01*
X6504350Y-10945450D02*
X6428150Y-11021650D01*
X6428150Y-11199450D02*
X6504350Y-11275650D01*
X6504350Y-11199450D02*
X6428150Y-11275650D01*
X6428150Y-11453450D02*
X6504350Y-11529650D01*
X6504350Y-11453450D02*
X6428150Y-11529650D01*
X6428150Y-11707450D02*
X6504350Y-11783650D01*
X6504350Y-11707450D02*
X6428150Y-11783650D01*
X7190150Y-10183450D02*
X7266350Y-10259650D01*
X7266350Y-10183450D02*
X7190150Y-10259650D01*
X7190150Y-10437450D02*
X7266350Y-10513650D01*
X7266350Y-10437450D02*
X7190150Y-10513650D01*
X7190150Y-10691450D02*
X7266350Y-10767650D01*
X7266350Y-10691450D02*
X7190150Y-10767650D01*
X7190150Y-10945450D02*
X7266350Y-11021650D01*
X7266350Y-10945450D02*
X7190150Y-11021650D01*
X7190150Y-11199450D02*
X7266350Y-11275650D01*
X7266350Y-11199450D02*
X7190150Y-11275650D01*
X7190150Y-11453450D02*
X7266350Y-11529650D01*
X7266350Y-11453450D02*
X7190150Y-11529650D01*
X7190150Y-11707450D02*
X7266350Y-11783650D01*
X7266350Y-11707450D02*
X7190150Y-11783650D01*
D14*
X10900450Y-14869750D02*
G75*
G03*
X10900450Y-14869750I-40000J0D01*
G01*
X10908450Y-11059750D02*
G75*
G03*
X10908450Y-11059750I-40000J0D01*
G01*
X11154450Y-14869750D02*
G75*
G03*
X11154450Y-14869750I-40000J0D01*
G01*
X11408450Y-11059750D02*
G75*
G03*
X11408450Y-11059750I-40000J0D01*
G01*
X11408450Y-14869750D02*
G75*
G03*
X11408450Y-14869750I-40000J0D01*
G01*
D15*
X6796450Y-12407750D02*
X6796450Y-12507750D01*
X6746450Y-12457750D02*
X6846450Y-12457750D01*
X6796450Y-12661750D02*
X6796450Y-12761750D01*
X6746450Y-12711750D02*
X6846450Y-12711750D01*
X6796450Y-12915750D02*
X6796450Y-13015750D01*
X6746450Y-12965750D02*
X6846450Y-12965750D01*
X6796450Y-13169750D02*
X6796450Y-13269750D01*
X6746450Y-13219750D02*
X6846450Y-13219750D01*
D16*
X8178713Y-10079813D02*
X8178713Y-10007687D01*
X8106587Y-10007687D01*
X8106587Y-10079813D01*
X8178713Y-10079813D01*
X8178713Y-10333813D02*
X8178713Y-10261687D01*
X8106587Y-10261687D01*
X8106587Y-10333813D01*
X8178713Y-10333813D01*
X8178713Y-10587813D02*
X8178713Y-10515687D01*
X8106587Y-10515687D01*
X8106587Y-10587813D01*
X8178713Y-10587813D01*
X8178713Y-10841813D02*
X8178713Y-10769687D01*
X8106587Y-10769687D01*
X8106587Y-10841813D01*
X8178713Y-10841813D01*
X8178713Y-11095813D02*
X8178713Y-11023687D01*
X8106587Y-11023687D01*
X8106587Y-11095813D01*
X8178713Y-11095813D01*
X8178713Y-11349813D02*
X8178713Y-11277687D01*
X8106587Y-11277687D01*
X8106587Y-11349813D01*
X8178713Y-11349813D01*
X8178713Y-11603813D02*
X8178713Y-11531687D01*
X8106587Y-11531687D01*
X8106587Y-11603813D01*
X8178713Y-11603813D01*
X8178713Y-11857813D02*
X8178713Y-11785687D01*
X8106587Y-11785687D01*
X8106587Y-11857813D01*
X8178713Y-11857813D01*
X8178713Y-12111813D02*
X8178713Y-12039687D01*
X8106587Y-12039687D01*
X8106587Y-12111813D01*
X8178713Y-12111813D01*
X8178713Y-12365813D02*
X8178713Y-12293687D01*
X8106587Y-12293687D01*
X8106587Y-12365813D01*
X8178713Y-12365813D01*
X8178713Y-12619813D02*
X8178713Y-12547687D01*
X8106587Y-12547687D01*
X8106587Y-12619813D01*
X8178713Y-12619813D01*
X8178713Y-12873813D02*
X8178713Y-12801687D01*
X8106587Y-12801687D01*
X8106587Y-12873813D01*
X8178713Y-12873813D01*
X8178713Y-13127813D02*
X8178713Y-13055687D01*
X8106587Y-13055687D01*
X8106587Y-13127813D01*
X8178713Y-13127813D01*
X8178713Y-13381813D02*
X8178713Y-13309687D01*
X8106587Y-13309687D01*
X8106587Y-13381813D01*
X8178713Y-13381813D01*
X8178713Y-13635813D02*
X8178713Y-13563687D01*
X8106587Y-13563687D01*
X8106587Y-13635813D01*
X8178713Y-13635813D01*
X8178713Y-13889813D02*
X8178713Y-13817687D01*
X8106587Y-13817687D01*
X8106587Y-13889813D01*
X8178713Y-13889813D01*
X8178713Y-14143813D02*
X8178713Y-14071687D01*
X8106587Y-14071687D01*
X8106587Y-14143813D01*
X8178713Y-14143813D01*
X8178713Y-14397813D02*
X8178713Y-14325687D01*
X8106587Y-14325687D01*
X8106587Y-14397813D01*
X8178713Y-14397813D01*
X8178713Y-14651813D02*
X8178713Y-14579687D01*
X8106587Y-14579687D01*
X8106587Y-14651813D01*
X8178713Y-14651813D01*
X8178713Y-14905813D02*
X8178713Y-14833687D01*
X8106587Y-14833687D01*
X8106587Y-14905813D01*
X8178713Y-14905813D01*
X8813713Y-14882813D02*
X8813713Y-14810687D01*
X8741587Y-14810687D01*
X8741587Y-14882813D01*
X8813713Y-14882813D01*
X9067713Y-14882813D02*
X9067713Y-14810687D01*
X8995587Y-14810687D01*
X8995587Y-14882813D01*
X9067713Y-14882813D01*
X9321713Y-14882813D02*
X9321713Y-14810687D01*
X9249587Y-14810687D01*
X9249587Y-14882813D01*
X9321713Y-14882813D01*
X9956713Y-10079813D02*
X9956713Y-10007687D01*
X9884587Y-10007687D01*
X9884587Y-10079813D01*
X9956713Y-10079813D01*
X9956713Y-10333813D02*
X9956713Y-10261687D01*
X9884587Y-10261687D01*
X9884587Y-10333813D01*
X9956713Y-10333813D01*
X9956713Y-10587813D02*
X9956713Y-10515687D01*
X9884587Y-10515687D01*
X9884587Y-10587813D01*
X9956713Y-10587813D01*
X9956713Y-10841813D02*
X9956713Y-10769687D01*
X9884587Y-10769687D01*
X9884587Y-10841813D01*
X9956713Y-10841813D01*
X9956713Y-11095813D02*
X9956713Y-11023687D01*
X9884587Y-11023687D01*
X9884587Y-11095813D01*
X9956713Y-11095813D01*
X9956713Y-11349813D02*
X9956713Y-11277687D01*
X9884587Y-11277687D01*
X9884587Y-11349813D01*
X9956713Y-11349813D01*
X9956713Y-11603813D02*
X9956713Y-11531687D01*
X9884587Y-11531687D01*
X9884587Y-11603813D01*
X9956713Y-11603813D01*
X9956713Y-11857813D02*
X9956713Y-11785687D01*
X9884587Y-11785687D01*
X9884587Y-11857813D01*
X9956713Y-11857813D01*
X9956713Y-12111813D02*
X9956713Y-12039687D01*
X9884587Y-12039687D01*
X9884587Y-12111813D01*
X9956713Y-12111813D01*
X9956713Y-12365813D02*
X9956713Y-12293687D01*
X9884587Y-12293687D01*
X9884587Y-12365813D01*
X9956713Y-12365813D01*
X9956713Y-12619813D02*
X9956713Y-12547687D01*
X9884587Y-12547687D01*
X9884587Y-12619813D01*
X9956713Y-12619813D01*
X9956713Y-12873813D02*
X9956713Y-12801687D01*
X9884587Y-12801687D01*
X9884587Y-12873813D01*
X9956713Y-12873813D01*
X9956713Y-13127813D02*
X9956713Y-13055687D01*
X9884587Y-13055687D01*
X9884587Y-13127813D01*
X9956713Y-13127813D01*
X9956713Y-13381813D02*
X9956713Y-13309687D01*
X9884587Y-13309687D01*
X9884587Y-13381813D01*
X9956713Y-13381813D01*
X9956713Y-13635813D02*
X9956713Y-13563687D01*
X9884587Y-13563687D01*
X9884587Y-13635813D01*
X9956713Y-13635813D01*
X9956713Y-13889813D02*
X9956713Y-13817687D01*
X9884587Y-13817687D01*
X9884587Y-13889813D01*
X9956713Y-13889813D01*
X9956713Y-14143813D02*
X9956713Y-14071687D01*
X9884587Y-14071687D01*
X9884587Y-14143813D01*
X9956713Y-14143813D01*
X9956713Y-14397813D02*
X9956713Y-14325687D01*
X9884587Y-14325687D01*
X9884587Y-14397813D01*
X9956713Y-14397813D01*
X9956713Y-14651813D02*
X9956713Y-14579687D01*
X9884587Y-14579687D01*
X9884587Y-14651813D01*
X9956713Y-14651813D01*
X9956713Y-14905813D02*
X9956713Y-14833687D01*
X9884587Y-14833687D01*
X9884587Y-14905813D01*
X9956713Y-14905813D01*
D17*
X6725450Y-14445750D02*
X6780450Y-14390750D01*
X6725450Y-14335750D01*
X6670450Y-14390750D01*
X6725450Y-14445750D01*
X6725450Y-14895750D02*
X6780450Y-14840750D01*
X6725450Y-14785750D01*
X6670450Y-14840750D01*
X6725450Y-14895750D01*
X7375450Y-14445750D02*
X7430450Y-14390750D01*
X7375450Y-14335750D01*
X7320450Y-14390750D01*
X7375450Y-14445750D01*
X7375450Y-14895750D02*
X7430450Y-14840750D01*
X7375450Y-14785750D01*
X7320450Y-14840750D01*
X7375450Y-14895750D01*
D18*
X10803450Y-10232750D02*
X10933450Y-10362750D01*
X10933450Y-10232750D02*
X10803450Y-10362750D01*
X10933450Y-10297750D02*
G75*
G03*
X10933450Y-10297750I-65000J0D01*
G01*
X10998650Y-11629750D02*
X11128650Y-11759750D01*
X11128650Y-11629750D02*
X10998650Y-11759750D01*
X11128650Y-11694750D02*
G75*
G03*
X11128650Y-11694750I-65000J0D01*
G01*
X11303450Y-10232750D02*
X11433450Y-10362750D01*
X11433450Y-10232750D02*
X11303450Y-10362750D01*
X11433450Y-10297750D02*
G75*
G03*
X11433450Y-10297750I-65000J0D01*
G01*
X11379650Y-11629750D02*
X11509650Y-11759750D01*
X11509650Y-11629750D02*
X11379650Y-11759750D01*
X11509650Y-11694750D02*
G75*
G03*
X11509650Y-11694750I-65000J0D01*
G01*
D12*
X6468599Y-16121296D02*
X6468599Y-15921296D01*
X6516218Y-15921296D01*
X6544789Y-15930820D01*
X6563837Y-15949868D01*
X6573361Y-15968915D01*
X6582885Y-16007010D01*
X6582885Y-16035582D01*
X6573361Y-16073677D01*
X6563837Y-16092725D01*
X6544789Y-16111772D01*
X6516218Y-16121296D01*
X6468599Y-16121296D01*
X6668599Y-16121296D02*
X6668599Y-15987963D01*
X6668599Y-16026058D02*
X6678123Y-16007010D01*
X6687647Y-15997487D01*
X6706694Y-15987963D01*
X6725742Y-15987963D01*
X6792408Y-16121296D02*
X6792408Y-15987963D01*
X6792408Y-15921296D02*
X6782885Y-15930820D01*
X6792408Y-15940344D01*
X6801932Y-15930820D01*
X6792408Y-15921296D01*
X6792408Y-15940344D01*
X6916218Y-16121296D02*
X6897170Y-16111772D01*
X6887647Y-16092725D01*
X6887647Y-15921296D01*
X7020980Y-16121296D02*
X7001932Y-16111772D01*
X6992408Y-16092725D01*
X6992408Y-15921296D01*
X7249551Y-16121296D02*
X7249551Y-15921296D01*
X7316218Y-16064153D01*
X7382885Y-15921296D01*
X7382885Y-16121296D01*
X7563837Y-16121296D02*
X7563837Y-16016534D01*
X7554313Y-15997487D01*
X7535266Y-15987963D01*
X7497170Y-15987963D01*
X7478123Y-15997487D01*
X7563837Y-16111772D02*
X7544789Y-16121296D01*
X7497170Y-16121296D01*
X7478123Y-16111772D01*
X7468599Y-16092725D01*
X7468599Y-16073677D01*
X7478123Y-16054629D01*
X7497170Y-16045106D01*
X7544789Y-16045106D01*
X7563837Y-16035582D01*
X7659075Y-15987963D02*
X7659075Y-16187963D01*
X7659075Y-15997487D02*
X7678123Y-15987963D01*
X7716218Y-15987963D01*
X7735266Y-15997487D01*
X7744789Y-16007010D01*
X7754313Y-16026058D01*
X7754313Y-16083201D01*
X7744789Y-16102248D01*
X7735266Y-16111772D01*
X7716218Y-16121296D01*
X7678123Y-16121296D01*
X7659075Y-16111772D01*
X7840028Y-16102248D02*
X7849551Y-16111772D01*
X7840028Y-16121296D01*
X7830504Y-16111772D01*
X7840028Y-16102248D01*
X7840028Y-16121296D01*
X7840028Y-15997487D02*
X7849551Y-16007010D01*
X7840028Y-16016534D01*
X7830504Y-16007010D01*
X7840028Y-15997487D01*
X7840028Y-16016534D01*
D13*
X6134780Y-16412720D02*
X6210980Y-16488920D01*
X6210980Y-16412720D02*
X6134780Y-16488920D01*
D12*
X6506694Y-16341296D02*
X6525742Y-16341296D01*
X6544789Y-16350820D01*
X6554313Y-16360344D01*
X6563837Y-16379391D01*
X6573361Y-16417487D01*
X6573361Y-16465106D01*
X6563837Y-16503201D01*
X6554313Y-16522248D01*
X6544789Y-16531772D01*
X6525742Y-16541296D01*
X6506694Y-16541296D01*
X6487647Y-16531772D01*
X6478123Y-16522248D01*
X6468599Y-16503201D01*
X6459075Y-16465106D01*
X6459075Y-16417487D01*
X6468599Y-16379391D01*
X6478123Y-16360344D01*
X6487647Y-16350820D01*
X6506694Y-16341296D01*
X6659075Y-16522248D02*
X6668599Y-16531772D01*
X6659075Y-16541296D01*
X6649551Y-16531772D01*
X6659075Y-16522248D01*
X6659075Y-16541296D01*
X6735266Y-16341296D02*
X6868599Y-16341296D01*
X6782885Y-16541296D01*
X7030504Y-16341296D02*
X6992408Y-16341296D01*
X6973361Y-16350820D01*
X6963837Y-16360344D01*
X6944789Y-16388915D01*
X6935266Y-16427010D01*
X6935266Y-16503201D01*
X6944789Y-16522248D01*
X6954313Y-16531772D01*
X6973361Y-16541296D01*
X7011456Y-16541296D01*
X7030504Y-16531772D01*
X7040028Y-16522248D01*
X7049551Y-16503201D01*
X7049551Y-16455582D01*
X7040028Y-16436534D01*
X7030504Y-16427010D01*
X7011456Y-16417487D01*
X6973361Y-16417487D01*
X6954313Y-16427010D01*
X6944789Y-16436534D01*
X6935266Y-16455582D01*
X7125742Y-16360344D02*
X7135266Y-16350820D01*
X7154313Y-16341296D01*
X7201932Y-16341296D01*
X7220980Y-16350820D01*
X7230504Y-16360344D01*
X7240028Y-16379391D01*
X7240028Y-16398439D01*
X7230504Y-16427010D01*
X7116218Y-16541296D01*
X7240028Y-16541296D01*
X7325742Y-16541296D02*
X7325742Y-16407963D01*
X7325742Y-16427010D02*
X7335266Y-16417487D01*
X7354313Y-16407963D01*
X7382885Y-16407963D01*
X7401932Y-16417487D01*
X7411456Y-16436534D01*
X7411456Y-16541296D01*
X7411456Y-16436534D02*
X7420980Y-16417487D01*
X7440028Y-16407963D01*
X7468599Y-16407963D01*
X7487647Y-16417487D01*
X7497170Y-16436534D01*
X7497170Y-16541296D01*
X7592408Y-16541296D02*
X7592408Y-16407963D01*
X7592408Y-16427010D02*
X7601932Y-16417487D01*
X7620980Y-16407963D01*
X7649551Y-16407963D01*
X7668599Y-16417487D01*
X7678123Y-16436534D01*
X7678123Y-16541296D01*
X7678123Y-16436534D02*
X7687647Y-16417487D01*
X7706694Y-16407963D01*
X7735266Y-16407963D01*
X7754313Y-16417487D01*
X7763837Y-16436534D01*
X7763837Y-16541296D01*
X8154313Y-16331772D02*
X7982885Y-16588915D01*
X8411456Y-16341296D02*
X8430504Y-16341296D01*
X8449551Y-16350820D01*
X8459075Y-16360344D01*
X8468599Y-16379391D01*
X8478123Y-16417487D01*
X8478123Y-16465106D01*
X8468599Y-16503201D01*
X8459075Y-16522248D01*
X8449551Y-16531772D01*
X8430504Y-16541296D01*
X8411456Y-16541296D01*
X8392409Y-16531772D01*
X8382885Y-16522248D01*
X8373361Y-16503201D01*
X8363837Y-16465106D01*
X8363837Y-16417487D01*
X8373361Y-16379391D01*
X8382885Y-16360344D01*
X8392409Y-16350820D01*
X8411456Y-16341296D01*
X8563837Y-16522248D02*
X8573361Y-16531772D01*
X8563837Y-16541296D01*
X8554313Y-16531772D01*
X8563837Y-16522248D01*
X8563837Y-16541296D01*
X8697170Y-16341296D02*
X8716218Y-16341296D01*
X8735266Y-16350820D01*
X8744790Y-16360344D01*
X8754313Y-16379391D01*
X8763837Y-16417487D01*
X8763837Y-16465106D01*
X8754313Y-16503201D01*
X8744790Y-16522248D01*
X8735266Y-16531772D01*
X8716218Y-16541296D01*
X8697170Y-16541296D01*
X8678123Y-16531772D01*
X8668599Y-16522248D01*
X8659075Y-16503201D01*
X8649551Y-16465106D01*
X8649551Y-16417487D01*
X8659075Y-16379391D01*
X8668599Y-16360344D01*
X8678123Y-16350820D01*
X8697170Y-16341296D01*
X8830504Y-16341296D02*
X8954313Y-16341296D01*
X8887647Y-16417487D01*
X8916218Y-16417487D01*
X8935266Y-16427010D01*
X8944790Y-16436534D01*
X8954313Y-16455582D01*
X8954313Y-16503201D01*
X8944790Y-16522248D01*
X8935266Y-16531772D01*
X8916218Y-16541296D01*
X8859075Y-16541296D01*
X8840028Y-16531772D01*
X8830504Y-16522248D01*
X9078123Y-16341296D02*
X9097170Y-16341296D01*
X9116218Y-16350820D01*
X9125742Y-16360344D01*
X9135266Y-16379391D01*
X9144790Y-16417487D01*
X9144790Y-16465106D01*
X9135266Y-16503201D01*
X9125742Y-16522248D01*
X9116218Y-16531772D01*
X9097170Y-16541296D01*
X9078123Y-16541296D01*
X9059075Y-16531772D01*
X9049551Y-16522248D01*
X9040028Y-16503201D01*
X9030504Y-16465106D01*
X9030504Y-16417487D01*
X9040028Y-16379391D01*
X9049551Y-16360344D01*
X9059075Y-16350820D01*
X9078123Y-16341296D01*
X9268599Y-16341296D02*
X9287647Y-16341296D01*
X9306694Y-16350820D01*
X9316218Y-16360344D01*
X9325742Y-16379391D01*
X9335266Y-16417487D01*
X9335266Y-16465106D01*
X9325742Y-16503201D01*
X9316218Y-16522248D01*
X9306694Y-16531772D01*
X9287647Y-16541296D01*
X9268599Y-16541296D01*
X9249551Y-16531772D01*
X9240028Y-16522248D01*
X9230504Y-16503201D01*
X9220980Y-16465106D01*
X9220980Y-16417487D01*
X9230504Y-16379391D01*
X9240028Y-16360344D01*
X9249551Y-16350820D01*
X9268599Y-16341296D01*
X9411456Y-16341296D02*
X9411456Y-16379391D01*
X9487647Y-16341296D02*
X9487647Y-16379391D01*
X9782885Y-16617487D02*
X9773361Y-16607963D01*
X9754313Y-16579391D01*
X9744790Y-16560344D01*
X9735266Y-16531772D01*
X9725742Y-16484153D01*
X9725742Y-16446058D01*
X9735266Y-16398439D01*
X9744790Y-16369868D01*
X9754313Y-16350820D01*
X9773361Y-16322248D01*
X9782885Y-16312725D01*
X9963837Y-16541296D02*
X9849551Y-16541296D01*
X9906694Y-16541296D02*
X9906694Y-16341296D01*
X9887647Y-16369868D01*
X9868599Y-16388915D01*
X9849551Y-16398439D01*
X10135266Y-16407963D02*
X10135266Y-16541296D01*
X10087647Y-16331772D02*
X10040028Y-16474629D01*
X10163837Y-16474629D01*
X10392409Y-16541296D02*
X10392409Y-16341296D01*
X10478123Y-16541296D02*
X10478123Y-16436534D01*
X10468599Y-16417487D01*
X10449551Y-16407963D01*
X10420980Y-16407963D01*
X10401932Y-16417487D01*
X10392409Y-16427010D01*
X10601932Y-16541296D02*
X10582885Y-16531772D01*
X10573361Y-16522248D01*
X10563837Y-16503201D01*
X10563837Y-16446058D01*
X10573361Y-16427010D01*
X10582885Y-16417487D01*
X10601932Y-16407963D01*
X10630504Y-16407963D01*
X10649551Y-16417487D01*
X10659075Y-16427010D01*
X10668599Y-16446058D01*
X10668599Y-16503201D01*
X10659075Y-16522248D01*
X10649551Y-16531772D01*
X10630504Y-16541296D01*
X10601932Y-16541296D01*
X10782885Y-16541296D02*
X10763837Y-16531772D01*
X10754313Y-16512725D01*
X10754313Y-16341296D01*
X10935266Y-16531772D02*
X10916218Y-16541296D01*
X10878123Y-16541296D01*
X10859075Y-16531772D01*
X10849551Y-16512725D01*
X10849551Y-16436534D01*
X10859075Y-16417487D01*
X10878123Y-16407963D01*
X10916218Y-16407963D01*
X10935266Y-16417487D01*
X10944790Y-16436534D01*
X10944790Y-16455582D01*
X10849551Y-16474629D01*
X11020980Y-16531772D02*
X11040028Y-16541296D01*
X11078123Y-16541296D01*
X11097170Y-16531772D01*
X11106694Y-16512725D01*
X11106694Y-16503201D01*
X11097170Y-16484153D01*
X11078123Y-16474629D01*
X11049551Y-16474629D01*
X11030504Y-16465106D01*
X11020980Y-16446058D01*
X11020980Y-16436534D01*
X11030504Y-16417487D01*
X11049551Y-16407963D01*
X11078123Y-16407963D01*
X11097170Y-16417487D01*
X11173361Y-16617487D02*
X11182885Y-16607963D01*
X11201932Y-16579391D01*
X11211456Y-16560344D01*
X11220980Y-16531772D01*
X11230504Y-16484153D01*
X11230504Y-16446058D01*
X11220980Y-16398439D01*
X11211456Y-16369868D01*
X11201932Y-16350820D01*
X11182885Y-16322248D01*
X11173361Y-16312725D01*
D14*
X6210980Y-16714820D02*
G75*
G03*
X6210980Y-16714820I-40000J0D01*
G01*
D12*
X6506694Y-16605296D02*
X6525742Y-16605296D01*
X6544789Y-16614820D01*
X6554313Y-16624344D01*
X6563837Y-16643391D01*
X6573361Y-16681487D01*
X6573361Y-16729106D01*
X6563837Y-16767201D01*
X6554313Y-16786249D01*
X6544789Y-16795772D01*
X6525742Y-16805296D01*
X6506694Y-16805296D01*
X6487647Y-16795772D01*
X6478123Y-16786249D01*
X6468599Y-16767201D01*
X6459075Y-16729106D01*
X6459075Y-16681487D01*
X6468599Y-16643391D01*
X6478123Y-16624344D01*
X6487647Y-16614820D01*
X6506694Y-16605296D01*
X6659075Y-16786249D02*
X6668599Y-16795772D01*
X6659075Y-16805296D01*
X6649551Y-16795772D01*
X6659075Y-16786249D01*
X6659075Y-16805296D01*
X6782885Y-16691010D02*
X6763837Y-16681487D01*
X6754313Y-16671963D01*
X6744789Y-16652915D01*
X6744789Y-16643391D01*
X6754313Y-16624344D01*
X6763837Y-16614820D01*
X6782885Y-16605296D01*
X6820980Y-16605296D01*
X6840028Y-16614820D01*
X6849551Y-16624344D01*
X6859075Y-16643391D01*
X6859075Y-16652915D01*
X6849551Y-16671963D01*
X6840028Y-16681487D01*
X6820980Y-16691010D01*
X6782885Y-16691010D01*
X6763837Y-16700534D01*
X6754313Y-16710058D01*
X6744789Y-16729106D01*
X6744789Y-16767201D01*
X6754313Y-16786249D01*
X6763837Y-16795772D01*
X6782885Y-16805296D01*
X6820980Y-16805296D01*
X6840028Y-16795772D01*
X6849551Y-16786249D01*
X6859075Y-16767201D01*
X6859075Y-16729106D01*
X6849551Y-16710058D01*
X6840028Y-16700534D01*
X6820980Y-16691010D01*
X6982885Y-16605296D02*
X7001932Y-16605296D01*
X7020980Y-16614820D01*
X7030504Y-16624344D01*
X7040028Y-16643391D01*
X7049551Y-16681487D01*
X7049551Y-16729106D01*
X7040028Y-16767201D01*
X7030504Y-16786249D01*
X7020980Y-16795772D01*
X7001932Y-16805296D01*
X6982885Y-16805296D01*
X6963837Y-16795772D01*
X6954313Y-16786249D01*
X6944789Y-16767201D01*
X6935266Y-16729106D01*
X6935266Y-16681487D01*
X6944789Y-16643391D01*
X6954313Y-16624344D01*
X6963837Y-16614820D01*
X6982885Y-16605296D01*
X7173361Y-16605296D02*
X7192408Y-16605296D01*
X7211456Y-16614820D01*
X7220980Y-16624344D01*
X7230504Y-16643391D01*
X7240028Y-16681487D01*
X7240028Y-16729106D01*
X7230504Y-16767201D01*
X7220980Y-16786249D01*
X7211456Y-16795772D01*
X7192408Y-16805296D01*
X7173361Y-16805296D01*
X7154313Y-16795772D01*
X7144789Y-16786249D01*
X7135266Y-16767201D01*
X7125742Y-16729106D01*
X7125742Y-16681487D01*
X7135266Y-16643391D01*
X7144789Y-16624344D01*
X7154313Y-16614820D01*
X7173361Y-16605296D01*
X7325742Y-16805296D02*
X7325742Y-16671963D01*
X7325742Y-16691010D02*
X7335266Y-16681487D01*
X7354313Y-16671963D01*
X7382885Y-16671963D01*
X7401932Y-16681487D01*
X7411456Y-16700534D01*
X7411456Y-16805296D01*
X7411456Y-16700534D02*
X7420980Y-16681487D01*
X7440028Y-16671963D01*
X7468599Y-16671963D01*
X7487647Y-16681487D01*
X7497170Y-16700534D01*
X7497170Y-16805296D01*
X7592408Y-16805296D02*
X7592408Y-16671963D01*
X7592408Y-16691010D02*
X7601932Y-16681487D01*
X7620980Y-16671963D01*
X7649551Y-16671963D01*
X7668599Y-16681487D01*
X7678123Y-16700534D01*
X7678123Y-16805296D01*
X7678123Y-16700534D02*
X7687647Y-16681487D01*
X7706694Y-16671963D01*
X7735266Y-16671963D01*
X7754313Y-16681487D01*
X7763837Y-16700534D01*
X7763837Y-16805296D01*
X8154313Y-16595772D02*
X7982885Y-16852915D01*
X8411456Y-16605296D02*
X8430504Y-16605296D01*
X8449551Y-16614820D01*
X8459075Y-16624344D01*
X8468599Y-16643391D01*
X8478123Y-16681487D01*
X8478123Y-16729106D01*
X8468599Y-16767201D01*
X8459075Y-16786249D01*
X8449551Y-16795772D01*
X8430504Y-16805296D01*
X8411456Y-16805296D01*
X8392409Y-16795772D01*
X8382885Y-16786249D01*
X8373361Y-16767201D01*
X8363837Y-16729106D01*
X8363837Y-16681487D01*
X8373361Y-16643391D01*
X8382885Y-16624344D01*
X8392409Y-16614820D01*
X8411456Y-16605296D01*
X8563837Y-16786249D02*
X8573361Y-16795772D01*
X8563837Y-16805296D01*
X8554313Y-16795772D01*
X8563837Y-16786249D01*
X8563837Y-16805296D01*
X8697170Y-16605296D02*
X8716218Y-16605296D01*
X8735266Y-16614820D01*
X8744790Y-16624344D01*
X8754313Y-16643391D01*
X8763837Y-16681487D01*
X8763837Y-16729106D01*
X8754313Y-16767201D01*
X8744790Y-16786249D01*
X8735266Y-16795772D01*
X8716218Y-16805296D01*
X8697170Y-16805296D01*
X8678123Y-16795772D01*
X8668599Y-16786249D01*
X8659075Y-16767201D01*
X8649551Y-16729106D01*
X8649551Y-16681487D01*
X8659075Y-16643391D01*
X8668599Y-16624344D01*
X8678123Y-16614820D01*
X8697170Y-16605296D01*
X8830504Y-16605296D02*
X8954313Y-16605296D01*
X8887647Y-16681487D01*
X8916218Y-16681487D01*
X8935266Y-16691010D01*
X8944790Y-16700534D01*
X8954313Y-16719582D01*
X8954313Y-16767201D01*
X8944790Y-16786249D01*
X8935266Y-16795772D01*
X8916218Y-16805296D01*
X8859075Y-16805296D01*
X8840028Y-16795772D01*
X8830504Y-16786249D01*
X9144790Y-16805296D02*
X9030504Y-16805296D01*
X9087647Y-16805296D02*
X9087647Y-16605296D01*
X9068599Y-16633868D01*
X9049551Y-16652915D01*
X9030504Y-16662439D01*
X9325742Y-16605296D02*
X9230504Y-16605296D01*
X9220980Y-16700534D01*
X9230504Y-16691010D01*
X9249551Y-16681487D01*
X9297170Y-16681487D01*
X9316218Y-16691010D01*
X9325742Y-16700534D01*
X9335266Y-16719582D01*
X9335266Y-16767201D01*
X9325742Y-16786249D01*
X9316218Y-16795772D01*
X9297170Y-16805296D01*
X9249551Y-16805296D01*
X9230504Y-16795772D01*
X9220980Y-16786249D01*
X9411456Y-16605296D02*
X9411456Y-16643391D01*
X9487647Y-16605296D02*
X9487647Y-16643391D01*
X9782885Y-16881487D02*
X9773361Y-16871963D01*
X9754313Y-16843391D01*
X9744790Y-16824344D01*
X9735266Y-16795772D01*
X9725742Y-16748153D01*
X9725742Y-16710058D01*
X9735266Y-16662439D01*
X9744790Y-16633868D01*
X9754313Y-16614820D01*
X9773361Y-16586248D01*
X9782885Y-16576725D01*
X9954313Y-16605296D02*
X9859075Y-16605296D01*
X9849551Y-16700534D01*
X9859075Y-16691010D01*
X9878123Y-16681487D01*
X9925742Y-16681487D01*
X9944790Y-16691010D01*
X9954313Y-16700534D01*
X9963837Y-16719582D01*
X9963837Y-16767201D01*
X9954313Y-16786249D01*
X9944790Y-16795772D01*
X9925742Y-16805296D01*
X9878123Y-16805296D01*
X9859075Y-16795772D01*
X9849551Y-16786249D01*
X10201932Y-16805296D02*
X10201932Y-16605296D01*
X10287647Y-16805296D02*
X10287647Y-16700534D01*
X10278123Y-16681487D01*
X10259075Y-16671963D01*
X10230504Y-16671963D01*
X10211456Y-16681487D01*
X10201932Y-16691010D01*
X10411456Y-16805296D02*
X10392409Y-16795772D01*
X10382885Y-16786249D01*
X10373361Y-16767201D01*
X10373361Y-16710058D01*
X10382885Y-16691010D01*
X10392409Y-16681487D01*
X10411456Y-16671963D01*
X10440028Y-16671963D01*
X10459075Y-16681487D01*
X10468599Y-16691010D01*
X10478123Y-16710058D01*
X10478123Y-16767201D01*
X10468599Y-16786249D01*
X10459075Y-16795772D01*
X10440028Y-16805296D01*
X10411456Y-16805296D01*
X10592409Y-16805296D02*
X10573361Y-16795772D01*
X10563837Y-16776725D01*
X10563837Y-16605296D01*
X10744790Y-16795772D02*
X10725742Y-16805296D01*
X10687647Y-16805296D01*
X10668599Y-16795772D01*
X10659075Y-16776725D01*
X10659075Y-16700534D01*
X10668599Y-16681487D01*
X10687647Y-16671963D01*
X10725742Y-16671963D01*
X10744790Y-16681487D01*
X10754313Y-16700534D01*
X10754313Y-16719582D01*
X10659075Y-16738629D01*
X10830504Y-16795772D02*
X10849551Y-16805296D01*
X10887647Y-16805296D01*
X10906694Y-16795772D01*
X10916218Y-16776725D01*
X10916218Y-16767201D01*
X10906694Y-16748153D01*
X10887647Y-16738629D01*
X10859075Y-16738629D01*
X10840028Y-16729106D01*
X10830504Y-16710058D01*
X10830504Y-16700534D01*
X10840028Y-16681487D01*
X10859075Y-16671963D01*
X10887647Y-16671963D01*
X10906694Y-16681487D01*
X10982885Y-16881487D02*
X10992409Y-16871963D01*
X11011456Y-16843391D01*
X11020980Y-16824344D01*
X11030504Y-16795772D01*
X11040028Y-16748153D01*
X11040028Y-16710058D01*
X11030504Y-16662439D01*
X11020980Y-16633868D01*
X11011456Y-16614820D01*
X10992409Y-16586248D01*
X10982885Y-16576725D01*
D15*
X6160980Y-16928820D02*
X6160980Y-17028820D01*
X6110980Y-16978820D02*
X6210980Y-16978820D01*
D12*
X6573361Y-17069296D02*
X6459075Y-17069296D01*
X6516218Y-17069296D02*
X6516218Y-16869296D01*
X6497170Y-16897868D01*
X6478123Y-16916915D01*
X6459075Y-16926439D01*
X6659075Y-17050249D02*
X6668599Y-17059772D01*
X6659075Y-17069296D01*
X6649551Y-17059772D01*
X6659075Y-17050249D01*
X6659075Y-17069296D01*
X6792408Y-16869296D02*
X6811456Y-16869296D01*
X6830504Y-16878820D01*
X6840028Y-16888344D01*
X6849551Y-16907391D01*
X6859075Y-16945487D01*
X6859075Y-16993106D01*
X6849551Y-17031201D01*
X6840028Y-17050249D01*
X6830504Y-17059772D01*
X6811456Y-17069296D01*
X6792408Y-17069296D01*
X6773361Y-17059772D01*
X6763837Y-17050249D01*
X6754313Y-17031201D01*
X6744789Y-16993106D01*
X6744789Y-16945487D01*
X6754313Y-16907391D01*
X6763837Y-16888344D01*
X6773361Y-16878820D01*
X6792408Y-16869296D01*
X6982885Y-16869296D02*
X7001932Y-16869296D01*
X7020980Y-16878820D01*
X7030504Y-16888344D01*
X7040028Y-16907391D01*
X7049551Y-16945487D01*
X7049551Y-16993106D01*
X7040028Y-17031201D01*
X7030504Y-17050249D01*
X7020980Y-17059772D01*
X7001932Y-17069296D01*
X6982885Y-17069296D01*
X6963837Y-17059772D01*
X6954313Y-17050249D01*
X6944789Y-17031201D01*
X6935266Y-16993106D01*
X6935266Y-16945487D01*
X6944789Y-16907391D01*
X6954313Y-16888344D01*
X6963837Y-16878820D01*
X6982885Y-16869296D01*
X7173361Y-16869296D02*
X7192408Y-16869296D01*
X7211456Y-16878820D01*
X7220980Y-16888344D01*
X7230504Y-16907391D01*
X7240028Y-16945487D01*
X7240028Y-16993106D01*
X7230504Y-17031201D01*
X7220980Y-17050249D01*
X7211456Y-17059772D01*
X7192408Y-17069296D01*
X7173361Y-17069296D01*
X7154313Y-17059772D01*
X7144789Y-17050249D01*
X7135266Y-17031201D01*
X7125742Y-16993106D01*
X7125742Y-16945487D01*
X7135266Y-16907391D01*
X7144789Y-16888344D01*
X7154313Y-16878820D01*
X7173361Y-16869296D01*
X7325742Y-17069296D02*
X7325742Y-16935963D01*
X7325742Y-16955010D02*
X7335266Y-16945487D01*
X7354313Y-16935963D01*
X7382885Y-16935963D01*
X7401932Y-16945487D01*
X7411456Y-16964534D01*
X7411456Y-17069296D01*
X7411456Y-16964534D02*
X7420980Y-16945487D01*
X7440028Y-16935963D01*
X7468599Y-16935963D01*
X7487647Y-16945487D01*
X7497170Y-16964534D01*
X7497170Y-17069296D01*
X7592408Y-17069296D02*
X7592408Y-16935963D01*
X7592408Y-16955010D02*
X7601932Y-16945487D01*
X7620980Y-16935963D01*
X7649551Y-16935963D01*
X7668599Y-16945487D01*
X7678123Y-16964534D01*
X7678123Y-17069296D01*
X7678123Y-16964534D02*
X7687647Y-16945487D01*
X7706694Y-16935963D01*
X7735266Y-16935963D01*
X7754313Y-16945487D01*
X7763837Y-16964534D01*
X7763837Y-17069296D01*
X8154313Y-16859772D02*
X7982885Y-17116915D01*
X8411456Y-16869296D02*
X8430504Y-16869296D01*
X8449551Y-16878820D01*
X8459075Y-16888344D01*
X8468599Y-16907391D01*
X8478123Y-16945487D01*
X8478123Y-16993106D01*
X8468599Y-17031201D01*
X8459075Y-17050249D01*
X8449551Y-17059772D01*
X8430504Y-17069296D01*
X8411456Y-17069296D01*
X8392409Y-17059772D01*
X8382885Y-17050249D01*
X8373361Y-17031201D01*
X8363837Y-16993106D01*
X8363837Y-16945487D01*
X8373361Y-16907391D01*
X8382885Y-16888344D01*
X8392409Y-16878820D01*
X8411456Y-16869296D01*
X8563837Y-17050249D02*
X8573361Y-17059772D01*
X8563837Y-17069296D01*
X8554313Y-17059772D01*
X8563837Y-17050249D01*
X8563837Y-17069296D01*
X8697170Y-16869296D02*
X8716218Y-16869296D01*
X8735266Y-16878820D01*
X8744790Y-16888344D01*
X8754313Y-16907391D01*
X8763837Y-16945487D01*
X8763837Y-16993106D01*
X8754313Y-17031201D01*
X8744790Y-17050249D01*
X8735266Y-17059772D01*
X8716218Y-17069296D01*
X8697170Y-17069296D01*
X8678123Y-17059772D01*
X8668599Y-17050249D01*
X8659075Y-17031201D01*
X8649551Y-16993106D01*
X8649551Y-16945487D01*
X8659075Y-16907391D01*
X8668599Y-16888344D01*
X8678123Y-16878820D01*
X8697170Y-16869296D01*
X8830504Y-16869296D02*
X8954313Y-16869296D01*
X8887647Y-16945487D01*
X8916218Y-16945487D01*
X8935266Y-16955010D01*
X8944790Y-16964534D01*
X8954313Y-16983582D01*
X8954313Y-17031201D01*
X8944790Y-17050249D01*
X8935266Y-17059772D01*
X8916218Y-17069296D01*
X8859075Y-17069296D01*
X8840028Y-17059772D01*
X8830504Y-17050249D01*
X9049551Y-17069296D02*
X9087647Y-17069296D01*
X9106694Y-17059772D01*
X9116218Y-17050249D01*
X9135266Y-17021677D01*
X9144790Y-16983582D01*
X9144790Y-16907391D01*
X9135266Y-16888344D01*
X9125742Y-16878820D01*
X9106694Y-16869296D01*
X9068599Y-16869296D01*
X9049551Y-16878820D01*
X9040028Y-16888344D01*
X9030504Y-16907391D01*
X9030504Y-16955010D01*
X9040028Y-16974058D01*
X9049551Y-16983582D01*
X9068599Y-16993106D01*
X9106694Y-16993106D01*
X9125742Y-16983582D01*
X9135266Y-16974058D01*
X9144790Y-16955010D01*
X9316218Y-16935963D02*
X9316218Y-17069296D01*
X9268599Y-16859772D02*
X9220980Y-17002630D01*
X9344790Y-17002630D01*
X9411456Y-16869296D02*
X9411456Y-16907391D01*
X9487647Y-16869296D02*
X9487647Y-16907391D01*
X9782885Y-17145487D02*
X9773361Y-17135963D01*
X9754313Y-17107391D01*
X9744790Y-17088344D01*
X9735266Y-17059772D01*
X9725742Y-17012153D01*
X9725742Y-16974058D01*
X9735266Y-16926439D01*
X9744790Y-16897868D01*
X9754313Y-16878820D01*
X9773361Y-16850249D01*
X9782885Y-16840725D01*
X9944790Y-16935963D02*
X9944790Y-17069296D01*
X9897170Y-16859772D02*
X9849551Y-17002630D01*
X9973361Y-17002630D01*
X10201932Y-17069296D02*
X10201932Y-16869296D01*
X10287647Y-17069296D02*
X10287647Y-16964534D01*
X10278123Y-16945487D01*
X10259075Y-16935963D01*
X10230504Y-16935963D01*
X10211456Y-16945487D01*
X10201932Y-16955010D01*
X10411456Y-17069296D02*
X10392409Y-17059772D01*
X10382885Y-17050249D01*
X10373361Y-17031201D01*
X10373361Y-16974058D01*
X10382885Y-16955010D01*
X10392409Y-16945487D01*
X10411456Y-16935963D01*
X10440028Y-16935963D01*
X10459075Y-16945487D01*
X10468599Y-16955010D01*
X10478123Y-16974058D01*
X10478123Y-17031201D01*
X10468599Y-17050249D01*
X10459075Y-17059772D01*
X10440028Y-17069296D01*
X10411456Y-17069296D01*
X10592409Y-17069296D02*
X10573361Y-17059772D01*
X10563837Y-17040725D01*
X10563837Y-16869296D01*
X10744790Y-17059772D02*
X10725742Y-17069296D01*
X10687647Y-17069296D01*
X10668599Y-17059772D01*
X10659075Y-17040725D01*
X10659075Y-16964534D01*
X10668599Y-16945487D01*
X10687647Y-16935963D01*
X10725742Y-16935963D01*
X10744790Y-16945487D01*
X10754313Y-16964534D01*
X10754313Y-16983582D01*
X10659075Y-17002630D01*
X10830504Y-17059772D02*
X10849551Y-17069296D01*
X10887647Y-17069296D01*
X10906694Y-17059772D01*
X10916218Y-17040725D01*
X10916218Y-17031201D01*
X10906694Y-17012153D01*
X10887647Y-17002630D01*
X10859075Y-17002630D01*
X10840028Y-16993106D01*
X10830504Y-16974058D01*
X10830504Y-16964534D01*
X10840028Y-16945487D01*
X10859075Y-16935963D01*
X10887647Y-16935963D01*
X10906694Y-16945487D01*
X10982885Y-17145487D02*
X10992409Y-17135963D01*
X11011456Y-17107391D01*
X11020980Y-17088344D01*
X11030504Y-17059772D01*
X11040028Y-17012153D01*
X11040028Y-16974058D01*
X11030504Y-16926439D01*
X11020980Y-16897868D01*
X11011456Y-16878820D01*
X10992409Y-16850249D01*
X10982885Y-16840725D01*
D16*
X6196043Y-17278883D02*
X6196043Y-17206757D01*
X6123917Y-17206757D01*
X6123917Y-17278883D01*
X6196043Y-17278883D01*
D12*
X6573361Y-17333296D02*
X6459075Y-17333296D01*
X6516218Y-17333296D02*
X6516218Y-17133296D01*
X6497170Y-17161868D01*
X6478123Y-17180915D01*
X6459075Y-17190439D01*
X6659075Y-17314249D02*
X6668599Y-17323772D01*
X6659075Y-17333296D01*
X6649551Y-17323772D01*
X6659075Y-17314249D01*
X6659075Y-17333296D01*
X6792408Y-17133296D02*
X6811456Y-17133296D01*
X6830504Y-17142820D01*
X6840028Y-17152344D01*
X6849551Y-17171391D01*
X6859075Y-17209487D01*
X6859075Y-17257106D01*
X6849551Y-17295201D01*
X6840028Y-17314249D01*
X6830504Y-17323772D01*
X6811456Y-17333296D01*
X6792408Y-17333296D01*
X6773361Y-17323772D01*
X6763837Y-17314249D01*
X6754313Y-17295201D01*
X6744789Y-17257106D01*
X6744789Y-17209487D01*
X6754313Y-17171391D01*
X6763837Y-17152344D01*
X6773361Y-17142820D01*
X6792408Y-17133296D01*
X6935266Y-17152344D02*
X6944789Y-17142820D01*
X6963837Y-17133296D01*
X7011456Y-17133296D01*
X7030504Y-17142820D01*
X7040028Y-17152344D01*
X7049551Y-17171391D01*
X7049551Y-17190439D01*
X7040028Y-17219010D01*
X6925742Y-17333296D01*
X7049551Y-17333296D01*
X7173361Y-17133296D02*
X7192408Y-17133296D01*
X7211456Y-17142820D01*
X7220980Y-17152344D01*
X7230504Y-17171391D01*
X7240028Y-17209487D01*
X7240028Y-17257106D01*
X7230504Y-17295201D01*
X7220980Y-17314249D01*
X7211456Y-17323772D01*
X7192408Y-17333296D01*
X7173361Y-17333296D01*
X7154313Y-17323772D01*
X7144789Y-17314249D01*
X7135266Y-17295201D01*
X7125742Y-17257106D01*
X7125742Y-17209487D01*
X7135266Y-17171391D01*
X7144789Y-17152344D01*
X7154313Y-17142820D01*
X7173361Y-17133296D01*
X7325742Y-17333296D02*
X7325742Y-17199963D01*
X7325742Y-17219010D02*
X7335266Y-17209487D01*
X7354313Y-17199963D01*
X7382885Y-17199963D01*
X7401932Y-17209487D01*
X7411456Y-17228534D01*
X7411456Y-17333296D01*
X7411456Y-17228534D02*
X7420980Y-17209487D01*
X7440028Y-17199963D01*
X7468599Y-17199963D01*
X7487647Y-17209487D01*
X7497170Y-17228534D01*
X7497170Y-17333296D01*
X7592408Y-17333296D02*
X7592408Y-17199963D01*
X7592408Y-17219010D02*
X7601932Y-17209487D01*
X7620980Y-17199963D01*
X7649551Y-17199963D01*
X7668599Y-17209487D01*
X7678123Y-17228534D01*
X7678123Y-17333296D01*
X7678123Y-17228534D02*
X7687647Y-17209487D01*
X7706694Y-17199963D01*
X7735266Y-17199963D01*
X7754313Y-17209487D01*
X7763837Y-17228534D01*
X7763837Y-17333296D01*
X8154313Y-17123772D02*
X7982885Y-17380915D01*
X8411456Y-17133296D02*
X8430504Y-17133296D01*
X8449551Y-17142820D01*
X8459075Y-17152344D01*
X8468599Y-17171391D01*
X8478123Y-17209487D01*
X8478123Y-17257106D01*
X8468599Y-17295201D01*
X8459075Y-17314249D01*
X8449551Y-17323772D01*
X8430504Y-17333296D01*
X8411456Y-17333296D01*
X8392409Y-17323772D01*
X8382885Y-17314249D01*
X8373361Y-17295201D01*
X8363837Y-17257106D01*
X8363837Y-17209487D01*
X8373361Y-17171391D01*
X8382885Y-17152344D01*
X8392409Y-17142820D01*
X8411456Y-17133296D01*
X8563837Y-17314249D02*
X8573361Y-17323772D01*
X8563837Y-17333296D01*
X8554313Y-17323772D01*
X8563837Y-17314249D01*
X8563837Y-17333296D01*
X8697170Y-17133296D02*
X8716218Y-17133296D01*
X8735266Y-17142820D01*
X8744790Y-17152344D01*
X8754313Y-17171391D01*
X8763837Y-17209487D01*
X8763837Y-17257106D01*
X8754313Y-17295201D01*
X8744790Y-17314249D01*
X8735266Y-17323772D01*
X8716218Y-17333296D01*
X8697170Y-17333296D01*
X8678123Y-17323772D01*
X8668599Y-17314249D01*
X8659075Y-17295201D01*
X8649551Y-17257106D01*
X8649551Y-17209487D01*
X8659075Y-17171391D01*
X8668599Y-17152344D01*
X8678123Y-17142820D01*
X8697170Y-17133296D01*
X8935266Y-17199963D02*
X8935266Y-17333296D01*
X8887647Y-17123772D02*
X8840028Y-17266630D01*
X8963837Y-17266630D01*
X9078123Y-17133296D02*
X9097170Y-17133296D01*
X9116218Y-17142820D01*
X9125742Y-17152344D01*
X9135266Y-17171391D01*
X9144790Y-17209487D01*
X9144790Y-17257106D01*
X9135266Y-17295201D01*
X9125742Y-17314249D01*
X9116218Y-17323772D01*
X9097170Y-17333296D01*
X9078123Y-17333296D01*
X9059075Y-17323772D01*
X9049551Y-17314249D01*
X9040028Y-17295201D01*
X9030504Y-17257106D01*
X9030504Y-17209487D01*
X9040028Y-17171391D01*
X9049551Y-17152344D01*
X9059075Y-17142820D01*
X9078123Y-17133296D01*
X9220980Y-17152344D02*
X9230504Y-17142820D01*
X9249551Y-17133296D01*
X9297170Y-17133296D01*
X9316218Y-17142820D01*
X9325742Y-17152344D01*
X9335266Y-17171391D01*
X9335266Y-17190439D01*
X9325742Y-17219010D01*
X9211456Y-17333296D01*
X9335266Y-17333296D01*
X9411456Y-17133296D02*
X9411456Y-17171391D01*
X9487647Y-17133296D02*
X9487647Y-17171391D01*
X9782885Y-17409487D02*
X9773361Y-17399963D01*
X9754313Y-17371391D01*
X9744790Y-17352344D01*
X9735266Y-17323772D01*
X9725742Y-17276153D01*
X9725742Y-17238058D01*
X9735266Y-17190439D01*
X9744790Y-17161868D01*
X9754313Y-17142820D01*
X9773361Y-17114249D01*
X9782885Y-17104725D01*
X9944790Y-17199963D02*
X9944790Y-17333296D01*
X9897170Y-17123772D02*
X9849551Y-17266630D01*
X9973361Y-17266630D01*
X10030504Y-17133296D02*
X10154313Y-17133296D01*
X10087647Y-17209487D01*
X10116218Y-17209487D01*
X10135266Y-17219010D01*
X10144790Y-17228534D01*
X10154313Y-17247582D01*
X10154313Y-17295201D01*
X10144790Y-17314249D01*
X10135266Y-17323772D01*
X10116218Y-17333296D01*
X10059075Y-17333296D01*
X10040028Y-17323772D01*
X10030504Y-17314249D01*
X10392409Y-17333296D02*
X10392409Y-17133296D01*
X10478123Y-17333296D02*
X10478123Y-17228534D01*
X10468599Y-17209487D01*
X10449551Y-17199963D01*
X10420980Y-17199963D01*
X10401932Y-17209487D01*
X10392409Y-17219010D01*
X10601932Y-17333296D02*
X10582885Y-17323772D01*
X10573361Y-17314249D01*
X10563837Y-17295201D01*
X10563837Y-17238058D01*
X10573361Y-17219010D01*
X10582885Y-17209487D01*
X10601932Y-17199963D01*
X10630504Y-17199963D01*
X10649551Y-17209487D01*
X10659075Y-17219010D01*
X10668599Y-17238058D01*
X10668599Y-17295201D01*
X10659075Y-17314249D01*
X10649551Y-17323772D01*
X10630504Y-17333296D01*
X10601932Y-17333296D01*
X10782885Y-17333296D02*
X10763837Y-17323772D01*
X10754313Y-17304725D01*
X10754313Y-17133296D01*
X10935266Y-17323772D02*
X10916218Y-17333296D01*
X10878123Y-17333296D01*
X10859075Y-17323772D01*
X10849551Y-17304725D01*
X10849551Y-17228534D01*
X10859075Y-17209487D01*
X10878123Y-17199963D01*
X10916218Y-17199963D01*
X10935266Y-17209487D01*
X10944790Y-17228534D01*
X10944790Y-17247582D01*
X10849551Y-17266630D01*
X11020980Y-17323772D02*
X11040028Y-17333296D01*
X11078123Y-17333296D01*
X11097170Y-17323772D01*
X11106694Y-17304725D01*
X11106694Y-17295201D01*
X11097170Y-17276153D01*
X11078123Y-17266630D01*
X11049551Y-17266630D01*
X11030504Y-17257106D01*
X11020980Y-17238058D01*
X11020980Y-17228534D01*
X11030504Y-17209487D01*
X11049551Y-17199963D01*
X11078123Y-17199963D01*
X11097170Y-17209487D01*
X11173361Y-17409487D02*
X11182885Y-17399963D01*
X11201932Y-17371391D01*
X11211456Y-17352344D01*
X11220980Y-17323772D01*
X11230504Y-17276153D01*
X11230504Y-17238058D01*
X11220980Y-17190439D01*
X11211456Y-17161868D01*
X11201932Y-17142820D01*
X11182885Y-17114249D01*
X11173361Y-17104725D01*
D17*
X6155980Y-17561820D02*
X6210980Y-17506820D01*
X6155980Y-17451820D01*
X6100980Y-17506820D01*
X6155980Y-17561820D01*
D12*
X6573361Y-17597296D02*
X6459075Y-17597296D01*
X6516218Y-17597296D02*
X6516218Y-17397296D01*
X6497170Y-17425868D01*
X6478123Y-17444915D01*
X6459075Y-17454439D01*
X6659075Y-17578249D02*
X6668599Y-17587772D01*
X6659075Y-17597296D01*
X6649551Y-17587772D01*
X6659075Y-17578249D01*
X6659075Y-17597296D01*
X6859075Y-17597296D02*
X6744789Y-17597296D01*
X6801932Y-17597296D02*
X6801932Y-17397296D01*
X6782885Y-17425868D01*
X6763837Y-17444915D01*
X6744789Y-17454439D01*
X6982885Y-17397296D02*
X7001932Y-17397296D01*
X7020980Y-17406820D01*
X7030504Y-17416344D01*
X7040028Y-17435391D01*
X7049551Y-17473487D01*
X7049551Y-17521106D01*
X7040028Y-17559201D01*
X7030504Y-17578249D01*
X7020980Y-17587772D01*
X7001932Y-17597296D01*
X6982885Y-17597296D01*
X6963837Y-17587772D01*
X6954313Y-17578249D01*
X6944789Y-17559201D01*
X6935266Y-17521106D01*
X6935266Y-17473487D01*
X6944789Y-17435391D01*
X6954313Y-17416344D01*
X6963837Y-17406820D01*
X6982885Y-17397296D01*
X7173361Y-17397296D02*
X7192408Y-17397296D01*
X7211456Y-17406820D01*
X7220980Y-17416344D01*
X7230504Y-17435391D01*
X7240028Y-17473487D01*
X7240028Y-17521106D01*
X7230504Y-17559201D01*
X7220980Y-17578249D01*
X7211456Y-17587772D01*
X7192408Y-17597296D01*
X7173361Y-17597296D01*
X7154313Y-17587772D01*
X7144789Y-17578249D01*
X7135266Y-17559201D01*
X7125742Y-17521106D01*
X7125742Y-17473487D01*
X7135266Y-17435391D01*
X7144789Y-17416344D01*
X7154313Y-17406820D01*
X7173361Y-17397296D01*
X7325742Y-17597296D02*
X7325742Y-17463963D01*
X7325742Y-17483010D02*
X7335266Y-17473487D01*
X7354313Y-17463963D01*
X7382885Y-17463963D01*
X7401932Y-17473487D01*
X7411456Y-17492534D01*
X7411456Y-17597296D01*
X7411456Y-17492534D02*
X7420980Y-17473487D01*
X7440028Y-17463963D01*
X7468599Y-17463963D01*
X7487647Y-17473487D01*
X7497170Y-17492534D01*
X7497170Y-17597296D01*
X7592408Y-17597296D02*
X7592408Y-17463963D01*
X7592408Y-17483010D02*
X7601932Y-17473487D01*
X7620980Y-17463963D01*
X7649551Y-17463963D01*
X7668599Y-17473487D01*
X7678123Y-17492534D01*
X7678123Y-17597296D01*
X7678123Y-17492534D02*
X7687647Y-17473487D01*
X7706694Y-17463963D01*
X7735266Y-17463963D01*
X7754313Y-17473487D01*
X7763837Y-17492534D01*
X7763837Y-17597296D01*
X8154313Y-17387772D02*
X7982885Y-17644915D01*
X8411456Y-17397296D02*
X8430504Y-17397296D01*
X8449551Y-17406820D01*
X8459075Y-17416344D01*
X8468599Y-17435391D01*
X8478123Y-17473487D01*
X8478123Y-17521106D01*
X8468599Y-17559201D01*
X8459075Y-17578249D01*
X8449551Y-17587772D01*
X8430504Y-17597296D01*
X8411456Y-17597296D01*
X8392409Y-17587772D01*
X8382885Y-17578249D01*
X8373361Y-17559201D01*
X8363837Y-17521106D01*
X8363837Y-17473487D01*
X8373361Y-17435391D01*
X8382885Y-17416344D01*
X8392409Y-17406820D01*
X8411456Y-17397296D01*
X8563837Y-17578249D02*
X8573361Y-17587772D01*
X8563837Y-17597296D01*
X8554313Y-17587772D01*
X8563837Y-17578249D01*
X8563837Y-17597296D01*
X8697170Y-17397296D02*
X8716218Y-17397296D01*
X8735266Y-17406820D01*
X8744790Y-17416344D01*
X8754313Y-17435391D01*
X8763837Y-17473487D01*
X8763837Y-17521106D01*
X8754313Y-17559201D01*
X8744790Y-17578249D01*
X8735266Y-17587772D01*
X8716218Y-17597296D01*
X8697170Y-17597296D01*
X8678123Y-17587772D01*
X8668599Y-17578249D01*
X8659075Y-17559201D01*
X8649551Y-17521106D01*
X8649551Y-17473487D01*
X8659075Y-17435391D01*
X8668599Y-17416344D01*
X8678123Y-17406820D01*
X8697170Y-17397296D01*
X8935266Y-17463963D02*
X8935266Y-17597296D01*
X8887647Y-17387772D02*
X8840028Y-17530630D01*
X8963837Y-17530630D01*
X9020980Y-17397296D02*
X9144790Y-17397296D01*
X9078123Y-17473487D01*
X9106694Y-17473487D01*
X9125742Y-17483010D01*
X9135266Y-17492534D01*
X9144790Y-17511582D01*
X9144790Y-17559201D01*
X9135266Y-17578249D01*
X9125742Y-17587772D01*
X9106694Y-17597296D01*
X9049551Y-17597296D01*
X9030504Y-17587772D01*
X9020980Y-17578249D01*
X9211456Y-17397296D02*
X9335266Y-17397296D01*
X9268599Y-17473487D01*
X9297170Y-17473487D01*
X9316218Y-17483010D01*
X9325742Y-17492534D01*
X9335266Y-17511582D01*
X9335266Y-17559201D01*
X9325742Y-17578249D01*
X9316218Y-17587772D01*
X9297170Y-17597296D01*
X9240028Y-17597296D01*
X9220980Y-17587772D01*
X9211456Y-17578249D01*
X9411456Y-17397296D02*
X9411456Y-17435391D01*
X9487647Y-17397296D02*
X9487647Y-17435391D01*
X9782885Y-17673487D02*
X9773361Y-17663963D01*
X9754313Y-17635391D01*
X9744790Y-17616344D01*
X9735266Y-17587772D01*
X9725742Y-17540153D01*
X9725742Y-17502058D01*
X9735266Y-17454439D01*
X9744790Y-17425868D01*
X9754313Y-17406820D01*
X9773361Y-17378249D01*
X9782885Y-17368725D01*
X9944790Y-17463963D02*
X9944790Y-17597296D01*
X9897170Y-17387772D02*
X9849551Y-17530630D01*
X9973361Y-17530630D01*
X10201932Y-17597296D02*
X10201932Y-17397296D01*
X10287647Y-17597296D02*
X10287647Y-17492534D01*
X10278123Y-17473487D01*
X10259075Y-17463963D01*
X10230504Y-17463963D01*
X10211456Y-17473487D01*
X10201932Y-17483010D01*
X10411456Y-17597296D02*
X10392409Y-17587772D01*
X10382885Y-17578249D01*
X10373361Y-17559201D01*
X10373361Y-17502058D01*
X10382885Y-17483010D01*
X10392409Y-17473487D01*
X10411456Y-17463963D01*
X10440028Y-17463963D01*
X10459075Y-17473487D01*
X10468599Y-17483010D01*
X10478123Y-17502058D01*
X10478123Y-17559201D01*
X10468599Y-17578249D01*
X10459075Y-17587772D01*
X10440028Y-17597296D01*
X10411456Y-17597296D01*
X10592409Y-17597296D02*
X10573361Y-17587772D01*
X10563837Y-17568725D01*
X10563837Y-17397296D01*
X10744790Y-17587772D02*
X10725742Y-17597296D01*
X10687647Y-17597296D01*
X10668599Y-17587772D01*
X10659075Y-17568725D01*
X10659075Y-17492534D01*
X10668599Y-17473487D01*
X10687647Y-17463963D01*
X10725742Y-17463963D01*
X10744790Y-17473487D01*
X10754313Y-17492534D01*
X10754313Y-17511582D01*
X10659075Y-17530630D01*
X10830504Y-17587772D02*
X10849551Y-17597296D01*
X10887647Y-17597296D01*
X10906694Y-17587772D01*
X10916218Y-17568725D01*
X10916218Y-17559201D01*
X10906694Y-17540153D01*
X10887647Y-17530630D01*
X10859075Y-17530630D01*
X10840028Y-17521106D01*
X10830504Y-17502058D01*
X10830504Y-17492534D01*
X10840028Y-17473487D01*
X10859075Y-17463963D01*
X10887647Y-17463963D01*
X10906694Y-17473487D01*
X10982885Y-17673487D02*
X10992409Y-17663963D01*
X11011456Y-17635391D01*
X11020980Y-17616344D01*
X11030504Y-17587772D01*
X11040028Y-17540153D01*
X11040028Y-17502058D01*
X11030504Y-17454439D01*
X11020980Y-17425868D01*
X11011456Y-17406820D01*
X10992409Y-17378249D01*
X10982885Y-17368725D01*
D18*
X6080980Y-17705820D02*
X6210980Y-17835820D01*
X6210980Y-17705820D02*
X6080980Y-17835820D01*
X6210980Y-17770820D02*
G75*
G03*
X6210980Y-17770820I-65000J0D01*
G01*
D12*
X6573361Y-17861296D02*
X6459075Y-17861296D01*
X6516218Y-17861296D02*
X6516218Y-17661296D01*
X6497170Y-17689868D01*
X6478123Y-17708915D01*
X6459075Y-17718439D01*
X6659075Y-17842249D02*
X6668599Y-17851772D01*
X6659075Y-17861296D01*
X6649551Y-17851772D01*
X6659075Y-17842249D01*
X6659075Y-17861296D01*
X6735266Y-17661296D02*
X6859075Y-17661296D01*
X6792408Y-17737487D01*
X6820980Y-17737487D01*
X6840028Y-17747010D01*
X6849551Y-17756534D01*
X6859075Y-17775582D01*
X6859075Y-17823201D01*
X6849551Y-17842249D01*
X6840028Y-17851772D01*
X6820980Y-17861296D01*
X6763837Y-17861296D01*
X6744789Y-17851772D01*
X6735266Y-17842249D01*
X6982885Y-17661296D02*
X7001932Y-17661296D01*
X7020980Y-17670820D01*
X7030504Y-17680344D01*
X7040028Y-17699391D01*
X7049551Y-17737487D01*
X7049551Y-17785106D01*
X7040028Y-17823201D01*
X7030504Y-17842249D01*
X7020980Y-17851772D01*
X7001932Y-17861296D01*
X6982885Y-17861296D01*
X6963837Y-17851772D01*
X6954313Y-17842249D01*
X6944789Y-17823201D01*
X6935266Y-17785106D01*
X6935266Y-17737487D01*
X6944789Y-17699391D01*
X6954313Y-17680344D01*
X6963837Y-17670820D01*
X6982885Y-17661296D01*
X7173361Y-17661296D02*
X7192408Y-17661296D01*
X7211456Y-17670820D01*
X7220980Y-17680344D01*
X7230504Y-17699391D01*
X7240028Y-17737487D01*
X7240028Y-17785106D01*
X7230504Y-17823201D01*
X7220980Y-17842249D01*
X7211456Y-17851772D01*
X7192408Y-17861296D01*
X7173361Y-17861296D01*
X7154313Y-17851772D01*
X7144789Y-17842249D01*
X7135266Y-17823201D01*
X7125742Y-17785106D01*
X7125742Y-17737487D01*
X7135266Y-17699391D01*
X7144789Y-17680344D01*
X7154313Y-17670820D01*
X7173361Y-17661296D01*
X7325742Y-17861296D02*
X7325742Y-17727963D01*
X7325742Y-17747010D02*
X7335266Y-17737487D01*
X7354313Y-17727963D01*
X7382885Y-17727963D01*
X7401932Y-17737487D01*
X7411456Y-17756534D01*
X7411456Y-17861296D01*
X7411456Y-17756534D02*
X7420980Y-17737487D01*
X7440028Y-17727963D01*
X7468599Y-17727963D01*
X7487647Y-17737487D01*
X7497170Y-17756534D01*
X7497170Y-17861296D01*
X7592408Y-17861296D02*
X7592408Y-17727963D01*
X7592408Y-17747010D02*
X7601932Y-17737487D01*
X7620980Y-17727963D01*
X7649551Y-17727963D01*
X7668599Y-17737487D01*
X7678123Y-17756534D01*
X7678123Y-17861296D01*
X7678123Y-17756534D02*
X7687647Y-17737487D01*
X7706694Y-17727963D01*
X7735266Y-17727963D01*
X7754313Y-17737487D01*
X7763837Y-17756534D01*
X7763837Y-17861296D01*
X8154313Y-17651772D02*
X7982885Y-17908915D01*
X8411456Y-17661296D02*
X8430504Y-17661296D01*
X8449551Y-17670820D01*
X8459075Y-17680344D01*
X8468599Y-17699391D01*
X8478123Y-17737487D01*
X8478123Y-17785106D01*
X8468599Y-17823201D01*
X8459075Y-17842249D01*
X8449551Y-17851772D01*
X8430504Y-17861296D01*
X8411456Y-17861296D01*
X8392409Y-17851772D01*
X8382885Y-17842249D01*
X8373361Y-17823201D01*
X8363837Y-17785106D01*
X8363837Y-17737487D01*
X8373361Y-17699391D01*
X8382885Y-17680344D01*
X8392409Y-17670820D01*
X8411456Y-17661296D01*
X8563837Y-17842249D02*
X8573361Y-17851772D01*
X8563837Y-17861296D01*
X8554313Y-17851772D01*
X8563837Y-17842249D01*
X8563837Y-17861296D01*
X8697170Y-17661296D02*
X8716218Y-17661296D01*
X8735266Y-17670820D01*
X8744790Y-17680344D01*
X8754313Y-17699391D01*
X8763837Y-17737487D01*
X8763837Y-17785106D01*
X8754313Y-17823201D01*
X8744790Y-17842249D01*
X8735266Y-17851772D01*
X8716218Y-17861296D01*
X8697170Y-17861296D01*
X8678123Y-17851772D01*
X8668599Y-17842249D01*
X8659075Y-17823201D01*
X8649551Y-17785106D01*
X8649551Y-17737487D01*
X8659075Y-17699391D01*
X8668599Y-17680344D01*
X8678123Y-17670820D01*
X8697170Y-17661296D01*
X8944790Y-17661296D02*
X8849551Y-17661296D01*
X8840028Y-17756534D01*
X8849551Y-17747010D01*
X8868599Y-17737487D01*
X8916218Y-17737487D01*
X8935266Y-17747010D01*
X8944790Y-17756534D01*
X8954313Y-17775582D01*
X8954313Y-17823201D01*
X8944790Y-17842249D01*
X8935266Y-17851772D01*
X8916218Y-17861296D01*
X8868599Y-17861296D01*
X8849551Y-17851772D01*
X8840028Y-17842249D01*
X9144790Y-17861296D02*
X9030504Y-17861296D01*
X9087647Y-17861296D02*
X9087647Y-17661296D01*
X9068599Y-17689868D01*
X9049551Y-17708915D01*
X9030504Y-17718439D01*
X9220980Y-17680344D02*
X9230504Y-17670820D01*
X9249551Y-17661296D01*
X9297170Y-17661296D01*
X9316218Y-17670820D01*
X9325742Y-17680344D01*
X9335266Y-17699391D01*
X9335266Y-17718439D01*
X9325742Y-17747010D01*
X9211456Y-17861296D01*
X9335266Y-17861296D01*
X9411456Y-17661296D02*
X9411456Y-17699391D01*
X9487647Y-17661296D02*
X9487647Y-17699391D01*
X9782885Y-17937487D02*
X9773361Y-17927963D01*
X9754313Y-17899391D01*
X9744790Y-17880344D01*
X9735266Y-17851772D01*
X9725742Y-17804153D01*
X9725742Y-17766058D01*
X9735266Y-17718439D01*
X9744790Y-17689868D01*
X9754313Y-17670820D01*
X9773361Y-17642249D01*
X9782885Y-17632725D01*
X9944790Y-17727963D02*
X9944790Y-17861296D01*
X9897170Y-17651772D02*
X9849551Y-17794630D01*
X9973361Y-17794630D01*
X10201932Y-17861296D02*
X10201932Y-17661296D01*
X10287647Y-17861296D02*
X10287647Y-17756534D01*
X10278123Y-17737487D01*
X10259075Y-17727963D01*
X10230504Y-17727963D01*
X10211456Y-17737487D01*
X10201932Y-17747010D01*
X10411456Y-17861296D02*
X10392409Y-17851772D01*
X10382885Y-17842249D01*
X10373361Y-17823201D01*
X10373361Y-17766058D01*
X10382885Y-17747010D01*
X10392409Y-17737487D01*
X10411456Y-17727963D01*
X10440028Y-17727963D01*
X10459075Y-17737487D01*
X10468599Y-17747010D01*
X10478123Y-17766058D01*
X10478123Y-17823201D01*
X10468599Y-17842249D01*
X10459075Y-17851772D01*
X10440028Y-17861296D01*
X10411456Y-17861296D01*
X10592409Y-17861296D02*
X10573361Y-17851772D01*
X10563837Y-17832725D01*
X10563837Y-17661296D01*
X10744790Y-17851772D02*
X10725742Y-17861296D01*
X10687647Y-17861296D01*
X10668599Y-17851772D01*
X10659075Y-17832725D01*
X10659075Y-17756534D01*
X10668599Y-17737487D01*
X10687647Y-17727963D01*
X10725742Y-17727963D01*
X10744790Y-17737487D01*
X10754313Y-17756534D01*
X10754313Y-17775582D01*
X10659075Y-17794630D01*
X10830504Y-17851772D02*
X10849551Y-17861296D01*
X10887647Y-17861296D01*
X10906694Y-17851772D01*
X10916218Y-17832725D01*
X10916218Y-17823201D01*
X10906694Y-17804153D01*
X10887647Y-17794630D01*
X10859075Y-17794630D01*
X10840028Y-17785106D01*
X10830504Y-17766058D01*
X10830504Y-17756534D01*
X10840028Y-17737487D01*
X10859075Y-17727963D01*
X10887647Y-17727963D01*
X10906694Y-17737487D01*
X10982885Y-17937487D02*
X10992409Y-17927963D01*
X11011456Y-17899391D01*
X11020980Y-17880344D01*
X11030504Y-17851772D01*
X11040028Y-17804153D01*
X11040028Y-17766058D01*
X11030504Y-17718439D01*
X11020980Y-17689868D01*
X11011456Y-17670820D01*
X10992409Y-17642249D01*
X10982885Y-17632725D01*
M02*
