G04 #@! TF.GenerationSoftware,KiCad,Pcbnew,(6.0.6)*
G04 #@! TF.CreationDate,2022-11-08T17:25:53-05:00*
G04 #@! TF.ProjectId,pov_display,706f765f-6469-4737-906c-61792e6b6963,v01*
G04 #@! TF.SameCoordinates,Original*
G04 #@! TF.FileFunction,Soldermask,Bot*
G04 #@! TF.FilePolarity,Negative*
%FSLAX46Y46*%
G04 Gerber Fmt 4.6, Leading zero omitted, Abs format (unit mm)*
G04 Created by KiCad (PCBNEW (6.0.6)) date 2022-11-08 17:25:53*
%MOMM*%
%LPD*%
G01*
G04 APERTURE LIST*
G04 Aperture macros list*
%AMRoundRect*
0 Rectangle with rounded corners*
0 $1 Rounding radius*
0 $2 $3 $4 $5 $6 $7 $8 $9 X,Y pos of 4 corners*
0 Add a 4 corners polygon primitive as box body*
4,1,4,$2,$3,$4,$5,$6,$7,$8,$9,$2,$3,0*
0 Add four circle primitives for the rounded corners*
1,1,$1+$1,$2,$3*
1,1,$1+$1,$4,$5*
1,1,$1+$1,$6,$7*
1,1,$1+$1,$8,$9*
0 Add four rect primitives between the rounded corners*
20,1,$1+$1,$2,$3,$4,$5,0*
20,1,$1+$1,$4,$5,$6,$7,0*
20,1,$1+$1,$6,$7,$8,$9,0*
20,1,$1+$1,$8,$9,$2,$3,0*%
G04 Aperture macros list end*
%ADD10C,1.625600*%
%ADD11C,2.101600*%
%ADD12RoundRect,0.050800X-1.300000X-1.300000X1.300000X-1.300000X1.300000X1.300000X-1.300000X1.300000X0*%
%ADD13O,2.701600X2.701600*%
%ADD14RoundRect,0.050800X1.300000X1.300000X-1.300000X1.300000X-1.300000X-1.300000X1.300000X-1.300000X0*%
%ADD15C,2.701600*%
%ADD16RoundRect,0.050800X-0.750000X-0.750000X0.750000X-0.750000X0.750000X0.750000X-0.750000X0.750000X0*%
%ADD17C,1.601600*%
%ADD18C,1.701600*%
%ADD19O,1.601600X1.601600*%
%ADD20O,1.901600X1.901600*%
%ADD21O,1.801600X1.801600*%
%ADD22RoundRect,0.050800X-0.850000X-0.850000X0.850000X-0.850000X0.850000X0.850000X-0.850000X0.850000X0*%
G04 APERTURE END LIST*
D10*
X72282500Y-117455500D03*
X72282500Y-114915500D03*
X72282500Y-112375500D03*
X72282500Y-109835500D03*
X72282500Y-107295500D03*
X72282500Y-104755500D03*
X72282500Y-102215500D03*
X64662500Y-102215500D03*
X64662500Y-104755500D03*
X64662500Y-107295500D03*
X64662500Y-109835500D03*
X64662500Y-112375500D03*
X64662500Y-114915500D03*
X64662500Y-117455500D03*
D11*
X73754500Y-143907500D03*
X67254500Y-143907500D03*
X73754500Y-148407500D03*
X67254500Y-148407500D03*
D12*
X110636500Y-116947500D03*
D13*
X114446500Y-116947500D03*
D14*
X113684500Y-102977500D03*
D15*
X108684500Y-102977500D03*
D16*
X108604500Y-148697500D03*
D17*
X111144500Y-148697500D03*
X113684500Y-148697500D03*
D18*
X113684500Y-110597500D03*
X108684500Y-110597500D03*
D19*
X92741500Y-103597500D03*
D20*
X87591500Y-100567500D03*
X93041500Y-100567500D03*
D19*
X87891500Y-103597500D03*
D21*
X81426500Y-100437500D03*
X81426500Y-102977500D03*
D22*
X81426500Y-105517500D03*
D21*
X81426500Y-108057500D03*
X81426500Y-110597500D03*
X81426500Y-113137500D03*
X81426500Y-115677500D03*
D22*
X81426500Y-118217500D03*
D21*
X81426500Y-120757500D03*
X81426500Y-123297500D03*
X81426500Y-125837500D03*
X81426500Y-128377500D03*
D22*
X81426500Y-130917500D03*
D21*
X81426500Y-133457500D03*
X81426500Y-135997500D03*
X81426500Y-138537500D03*
X81426500Y-141077500D03*
D22*
X81426500Y-143617500D03*
D21*
X81426500Y-146157500D03*
X81426500Y-148697500D03*
X99206500Y-148697500D03*
X99206500Y-146157500D03*
D22*
X99206500Y-143617500D03*
D21*
X99206500Y-141077500D03*
X99206500Y-138537500D03*
X99206500Y-135997500D03*
X99206500Y-133457500D03*
D22*
X99206500Y-130917500D03*
D21*
X99206500Y-128377500D03*
X99206500Y-125837500D03*
X99206500Y-123297500D03*
X99206500Y-120757500D03*
D22*
X99206500Y-118217500D03*
D21*
X99206500Y-115677500D03*
X99206500Y-113137500D03*
X99206500Y-110597500D03*
X99206500Y-108057500D03*
D22*
X99206500Y-105517500D03*
D21*
X99206500Y-102977500D03*
X99206500Y-100437500D03*
X87776500Y-148467500D03*
D22*
X90316500Y-148467500D03*
D21*
X92856500Y-148467500D03*
D22*
X67964500Y-124577500D03*
D21*
X67964500Y-127117500D03*
X67964500Y-129657500D03*
X67964500Y-132197500D03*
M02*
