G04 #@! TF.GenerationSoftware,KiCad,Pcbnew,(6.0.6)*
G04 #@! TF.CreationDate,2022-11-08T17:25:53-05:00*
G04 #@! TF.ProjectId,pov_display,706f765f-6469-4737-906c-61792e6b6963,v01*
G04 #@! TF.SameCoordinates,Original*
G04 #@! TF.FileFunction,Copper,L1,Top*
G04 #@! TF.FilePolarity,Positive*
%FSLAX46Y46*%
G04 Gerber Fmt 4.6, Leading zero omitted, Abs format (unit mm)*
G04 Created by KiCad (PCBNEW (6.0.6)) date 2022-11-08 17:25:53*
%MOMM*%
%LPD*%
G01*
G04 APERTURE LIST*
G04 #@! TA.AperFunction,ComponentPad*
%ADD10C,1.524000*%
G04 #@! TD*
G04 #@! TA.AperFunction,ComponentPad*
%ADD11C,2.000000*%
G04 #@! TD*
G04 #@! TA.AperFunction,ComponentPad*
%ADD12R,2.600000X2.600000*%
G04 #@! TD*
G04 #@! TA.AperFunction,ComponentPad*
%ADD13O,2.600000X2.600000*%
G04 #@! TD*
G04 #@! TA.AperFunction,ComponentPad*
%ADD14C,2.600000*%
G04 #@! TD*
G04 #@! TA.AperFunction,ComponentPad*
%ADD15R,1.500000X1.500000*%
G04 #@! TD*
G04 #@! TA.AperFunction,ComponentPad*
%ADD16C,1.500000*%
G04 #@! TD*
G04 #@! TA.AperFunction,ComponentPad*
%ADD17C,1.600000*%
G04 #@! TD*
G04 #@! TA.AperFunction,ComponentPad*
%ADD18O,1.700000X1.700000*%
G04 #@! TD*
G04 #@! TA.AperFunction,SMDPad,CuDef*
%ADD19R,3.500000X1.700000*%
G04 #@! TD*
G04 #@! TA.AperFunction,ComponentPad*
%ADD20R,1.700000X1.700000*%
G04 #@! TD*
G04 #@! TA.AperFunction,SMDPad,CuDef*
%ADD21R,1.700000X3.500000*%
G04 #@! TD*
G04 #@! TA.AperFunction,Conductor*
%ADD22C,1.016000*%
G04 #@! TD*
G04 #@! TA.AperFunction,Conductor*
%ADD23C,0.254000*%
G04 #@! TD*
G04 APERTURE END LIST*
D10*
X72282500Y-117455500D03*
X72282500Y-114915500D03*
X72282500Y-112375500D03*
X72282500Y-109835500D03*
X72282500Y-107295500D03*
X72282500Y-104755500D03*
X72282500Y-102215500D03*
X64662500Y-102215500D03*
X64662500Y-104755500D03*
X64662500Y-107295500D03*
X64662500Y-109835500D03*
X64662500Y-112375500D03*
X64662500Y-114915500D03*
X64662500Y-117455500D03*
D11*
X73754500Y-143907500D03*
X67254500Y-143907500D03*
X73754500Y-148407500D03*
X67254500Y-148407500D03*
D12*
X110636500Y-116947500D03*
D13*
X114446500Y-116947500D03*
D12*
X113684500Y-102977500D03*
D14*
X108684500Y-102977500D03*
D15*
X108604500Y-148697500D03*
D16*
X111144500Y-148697500D03*
X113684500Y-148697500D03*
D17*
X113684500Y-110597500D03*
X108684500Y-110597500D03*
D18*
X81426500Y-100437500D03*
D19*
X80526500Y-100437500D03*
X80526500Y-102977500D03*
D18*
X81426500Y-102977500D03*
D19*
X80526500Y-105517500D03*
D20*
X81426500Y-105517500D03*
D19*
X80526500Y-108057500D03*
D18*
X81426500Y-108057500D03*
D19*
X80526500Y-110597500D03*
D18*
X81426500Y-110597500D03*
X81426500Y-113137500D03*
D19*
X80526500Y-113137500D03*
X80526500Y-115677500D03*
D18*
X81426500Y-115677500D03*
D19*
X80526500Y-118217500D03*
D20*
X81426500Y-118217500D03*
D18*
X81426500Y-120757500D03*
D19*
X80526500Y-120757500D03*
X80526500Y-123297500D03*
D18*
X81426500Y-123297500D03*
X81426500Y-125837500D03*
D19*
X80526500Y-125837500D03*
D18*
X81426500Y-128377500D03*
D19*
X80526500Y-128377500D03*
X80526500Y-130917500D03*
D20*
X81426500Y-130917500D03*
D18*
X81426500Y-133457500D03*
D19*
X80526500Y-133457500D03*
X80526500Y-135997500D03*
D18*
X81426500Y-135997500D03*
D19*
X80526500Y-138537500D03*
D18*
X81426500Y-138537500D03*
D19*
X80526500Y-141077500D03*
D18*
X81426500Y-141077500D03*
D20*
X81426500Y-143617500D03*
D19*
X80526500Y-143617500D03*
D18*
X81426500Y-146157500D03*
D19*
X80526500Y-146157500D03*
D18*
X81426500Y-148697500D03*
D19*
X80526500Y-148697500D03*
X100106500Y-148697500D03*
D18*
X99206500Y-148697500D03*
D19*
X100106500Y-146157500D03*
D18*
X99206500Y-146157500D03*
D20*
X99206500Y-143617500D03*
D19*
X100106500Y-143617500D03*
D18*
X99206500Y-141077500D03*
D19*
X100106500Y-141077500D03*
X100106500Y-138537500D03*
D18*
X99206500Y-138537500D03*
D19*
X100106500Y-135997500D03*
D18*
X99206500Y-135997500D03*
D19*
X100106500Y-133457500D03*
D18*
X99206500Y-133457500D03*
D20*
X99206500Y-130917500D03*
D19*
X100106500Y-130917500D03*
X100106500Y-128377500D03*
D18*
X99206500Y-128377500D03*
D19*
X100106500Y-125837500D03*
D18*
X99206500Y-125837500D03*
X99206500Y-123297500D03*
D19*
X100106500Y-123297500D03*
D18*
X99206500Y-120757500D03*
D19*
X100106500Y-120757500D03*
X100106500Y-118217500D03*
D20*
X99206500Y-118217500D03*
D19*
X100106500Y-115677500D03*
D18*
X99206500Y-115677500D03*
D19*
X100106500Y-113137500D03*
D18*
X99206500Y-113137500D03*
X99206500Y-110597500D03*
D19*
X100106500Y-110597500D03*
D18*
X99206500Y-108057500D03*
D19*
X100106500Y-108057500D03*
D20*
X99206500Y-105517500D03*
D19*
X100106500Y-105517500D03*
D18*
X99206500Y-102977500D03*
D19*
X100106500Y-102977500D03*
D18*
X99206500Y-100437500D03*
D19*
X100106500Y-100437500D03*
D18*
X87776500Y-148467500D03*
D21*
X87776500Y-149367500D03*
D20*
X90316500Y-148467500D03*
D21*
X90316500Y-149367500D03*
X92856500Y-149367500D03*
D18*
X92856500Y-148467500D03*
D20*
X67964500Y-124577500D03*
D18*
X67964500Y-127117500D03*
X67964500Y-129657500D03*
X67964500Y-132197500D03*
D22*
X63646500Y-131171500D02*
X64672500Y-132197500D01*
X113684500Y-110597500D02*
X113684500Y-102977500D01*
X63646500Y-118471500D02*
X63646500Y-131171500D01*
X64672500Y-132197500D02*
X67964500Y-132197500D01*
X113684500Y-116185500D02*
X114446500Y-116947500D01*
X113684500Y-110597500D02*
X113684500Y-116185500D01*
X64662500Y-117455500D02*
X63646500Y-118471500D01*
D23*
X113684500Y-148697500D02*
X112219929Y-150162071D01*
X107334500Y-144887500D02*
X108604500Y-146157500D01*
X108604500Y-146157500D02*
X108604500Y-148697500D01*
X66694500Y-108057500D02*
X69996500Y-104755500D01*
X67964500Y-127117500D02*
X66196500Y-127117500D01*
X65805500Y-121646500D02*
X66694500Y-120757500D01*
X73044499Y-108057499D02*
X72282500Y-107295500D01*
X105810500Y-148443500D02*
X105810500Y-136505500D01*
X107529071Y-150162071D02*
X105810500Y-148443500D01*
X100928500Y-102977500D02*
X99206500Y-102977500D01*
X76600500Y-110597500D02*
X72282500Y-114915500D01*
X110636500Y-116947500D02*
X103778500Y-110089500D01*
X102762500Y-133457500D02*
X99206500Y-133457500D01*
X105556500Y-113137500D02*
X105556500Y-133711500D01*
X70250500Y-119995500D02*
X70250500Y-114407500D01*
X73754500Y-143907500D02*
X67254500Y-143907500D01*
X105810500Y-136505500D02*
X102762500Y-133457500D01*
X99206500Y-110597500D02*
X103016500Y-110597500D01*
X65805500Y-124948500D02*
X65805500Y-121646500D01*
X82657500Y-138322500D02*
X82657500Y-139768500D01*
X66196500Y-127117500D02*
X64916500Y-125837500D01*
X69996500Y-104755500D02*
X72282500Y-104755500D01*
X103778500Y-105827500D02*
X100928500Y-102977500D01*
X66694500Y-120757500D02*
X66694500Y-108057500D01*
X103778500Y-110089500D02*
X103778500Y-105827500D01*
X95142500Y-125837500D02*
X82657500Y-138322500D01*
X77893500Y-139768500D02*
X73754500Y-143907500D01*
X81426500Y-108057500D02*
X73044499Y-108057499D01*
X81426500Y-110597500D02*
X76600500Y-110597500D01*
X70250500Y-114407500D02*
X72282500Y-112375500D01*
X112219929Y-150162071D02*
X107529071Y-150162071D01*
X103016500Y-110597500D02*
X105556500Y-113137500D01*
X107334500Y-135489500D02*
X107334500Y-144887500D01*
X105556500Y-133711500D02*
X107334500Y-135489500D01*
X67964500Y-129657500D02*
X71012500Y-126609500D01*
X71012500Y-126609500D02*
X71012500Y-120757500D01*
X99206500Y-125837500D02*
X95142500Y-125837500D01*
X71012500Y-120757500D02*
X70250500Y-119995500D01*
X64916500Y-125837500D02*
X65805500Y-124948500D01*
X82657500Y-139768500D02*
X77893500Y-139768500D01*
G04 #@! TA.AperFunction,Conductor*
G36*
X118706121Y-97156002D02*
G01*
X118752614Y-97209658D01*
X118764000Y-97262000D01*
X118764000Y-157461000D01*
X118743998Y-157529121D01*
X118690342Y-157575614D01*
X118638000Y-157587000D01*
X62757000Y-157587000D01*
X62688879Y-157566998D01*
X62642386Y-157513342D01*
X62631000Y-157461000D01*
X62631000Y-149640170D01*
X66386660Y-149640170D01*
X66392387Y-149647820D01*
X66563542Y-149752705D01*
X66572337Y-149757187D01*
X66782488Y-149844234D01*
X66791873Y-149847283D01*
X67013054Y-149900385D01*
X67022801Y-149901928D01*
X67249570Y-149919775D01*
X67259430Y-149919775D01*
X67486199Y-149901928D01*
X67495946Y-149900385D01*
X67717127Y-149847283D01*
X67726512Y-149844234D01*
X67936663Y-149757187D01*
X67945458Y-149752705D01*
X68112945Y-149650068D01*
X68121900Y-149640170D01*
X72886660Y-149640170D01*
X72892387Y-149647820D01*
X73063542Y-149752705D01*
X73072337Y-149757187D01*
X73282488Y-149844234D01*
X73291873Y-149847283D01*
X73513054Y-149900385D01*
X73522801Y-149901928D01*
X73749570Y-149919775D01*
X73759430Y-149919775D01*
X73986199Y-149901928D01*
X73995946Y-149900385D01*
X74217127Y-149847283D01*
X74226512Y-149844234D01*
X74436663Y-149757187D01*
X74445458Y-149752705D01*
X74612945Y-149650068D01*
X74622407Y-149639610D01*
X74618624Y-149630834D01*
X74583424Y-149595634D01*
X78268000Y-149595634D01*
X78274755Y-149657816D01*
X78325885Y-149794205D01*
X78413239Y-149910761D01*
X78529795Y-149998115D01*
X78666184Y-150049245D01*
X78728366Y-150056000D01*
X81397326Y-150056000D01*
X81401943Y-150056085D01*
X81483173Y-150059064D01*
X81483177Y-150059064D01*
X81488337Y-150059253D01*
X81493457Y-150058597D01*
X81493459Y-150058597D01*
X81505761Y-150057021D01*
X81521771Y-150056000D01*
X82324634Y-150056000D01*
X82386816Y-150049245D01*
X82523205Y-149998115D01*
X82639761Y-149910761D01*
X82727115Y-149794205D01*
X82778245Y-149657816D01*
X82785000Y-149595634D01*
X82785000Y-148795356D01*
X82786078Y-148778909D01*
X82787592Y-148767408D01*
X82788029Y-148764090D01*
X82788322Y-148752088D01*
X82789574Y-148700865D01*
X82789574Y-148700861D01*
X82789656Y-148697500D01*
X82785424Y-148646024D01*
X82785000Y-148635700D01*
X82785000Y-148434195D01*
X86413751Y-148434195D01*
X86414048Y-148439348D01*
X86414048Y-148439351D01*
X86417791Y-148504263D01*
X86418000Y-148511516D01*
X86418000Y-151165634D01*
X86424755Y-151227816D01*
X86475885Y-151364205D01*
X86563239Y-151480761D01*
X86679795Y-151568115D01*
X86816184Y-151619245D01*
X86878366Y-151626000D01*
X88674634Y-151626000D01*
X88736816Y-151619245D01*
X88873205Y-151568115D01*
X88970936Y-151494870D01*
X89037441Y-151470022D01*
X89106824Y-151485075D01*
X89122062Y-151494868D01*
X89219795Y-151568115D01*
X89356184Y-151619245D01*
X89418366Y-151626000D01*
X91214634Y-151626000D01*
X91276816Y-151619245D01*
X91413205Y-151568115D01*
X91510936Y-151494870D01*
X91577441Y-151470022D01*
X91646824Y-151485075D01*
X91662062Y-151494868D01*
X91759795Y-151568115D01*
X91896184Y-151619245D01*
X91958366Y-151626000D01*
X93754634Y-151626000D01*
X93816816Y-151619245D01*
X93953205Y-151568115D01*
X94069761Y-151480761D01*
X94157115Y-151364205D01*
X94208245Y-151227816D01*
X94215000Y-151165634D01*
X94215000Y-148664195D01*
X97843751Y-148664195D01*
X97844048Y-148669348D01*
X97844048Y-148669351D01*
X97847791Y-148734263D01*
X97848000Y-148741516D01*
X97848000Y-149595634D01*
X97854755Y-149657816D01*
X97905885Y-149794205D01*
X97993239Y-149910761D01*
X98109795Y-149998115D01*
X98246184Y-150049245D01*
X98308366Y-150056000D01*
X99177326Y-150056000D01*
X99181943Y-150056085D01*
X99263173Y-150059064D01*
X99263177Y-150059064D01*
X99268337Y-150059253D01*
X99273457Y-150058597D01*
X99273459Y-150058597D01*
X99285761Y-150057021D01*
X99301771Y-150056000D01*
X101904634Y-150056000D01*
X101966816Y-150049245D01*
X102103205Y-149998115D01*
X102219761Y-149910761D01*
X102307115Y-149794205D01*
X102358245Y-149657816D01*
X102365000Y-149595634D01*
X102365000Y-147799366D01*
X102358245Y-147737184D01*
X102307115Y-147600795D01*
X102233870Y-147503064D01*
X102209022Y-147436559D01*
X102224075Y-147367176D01*
X102233870Y-147351935D01*
X102250350Y-147329946D01*
X102307115Y-147254205D01*
X102358245Y-147117816D01*
X102365000Y-147055634D01*
X102365000Y-145259366D01*
X102358245Y-145197184D01*
X102307115Y-145060795D01*
X102233558Y-144962648D01*
X102208710Y-144896142D01*
X102223763Y-144826759D01*
X102233558Y-144811518D01*
X102301286Y-144721149D01*
X102309824Y-144705554D01*
X102354978Y-144585106D01*
X102358605Y-144569851D01*
X102364131Y-144518986D01*
X102364500Y-144512172D01*
X102364500Y-143889615D01*
X102360025Y-143874376D01*
X102358635Y-143873171D01*
X102350952Y-143871500D01*
X97866616Y-143871500D01*
X97851377Y-143875975D01*
X97850172Y-143877365D01*
X97848501Y-143885048D01*
X97848501Y-144512169D01*
X97848871Y-144518990D01*
X97854395Y-144569852D01*
X97858021Y-144585104D01*
X97903176Y-144705554D01*
X97911714Y-144721149D01*
X97979442Y-144811518D01*
X98004290Y-144878025D01*
X97989237Y-144947407D01*
X97979442Y-144962648D01*
X97905885Y-145060795D01*
X97854755Y-145197184D01*
X97848000Y-145259366D01*
X97848000Y-146077719D01*
X97847287Y-146091107D01*
X97843751Y-146124195D01*
X97844048Y-146129348D01*
X97844048Y-146129351D01*
X97847791Y-146194263D01*
X97848000Y-146201516D01*
X97848000Y-147055634D01*
X97854755Y-147117816D01*
X97905885Y-147254205D01*
X97962650Y-147329946D01*
X97979130Y-147351935D01*
X98003978Y-147418441D01*
X97988925Y-147487824D01*
X97979132Y-147503062D01*
X97905885Y-147600795D01*
X97854755Y-147737184D01*
X97848000Y-147799366D01*
X97848000Y-148617719D01*
X97847287Y-148631107D01*
X97843751Y-148664195D01*
X94215000Y-148664195D01*
X94215000Y-148565356D01*
X94216078Y-148548909D01*
X94217592Y-148537408D01*
X94218029Y-148534090D01*
X94219170Y-148487409D01*
X94219574Y-148470865D01*
X94219574Y-148470861D01*
X94219656Y-148467500D01*
X94215424Y-148416024D01*
X94215000Y-148405700D01*
X94215000Y-147569366D01*
X94208245Y-147507184D01*
X94157115Y-147370795D01*
X94069761Y-147254239D01*
X93953205Y-147166885D01*
X93816816Y-147115755D01*
X93754634Y-147109000D01*
X92871485Y-147109000D01*
X92869946Y-147108991D01*
X92766581Y-147107728D01*
X92766579Y-147107728D01*
X92761411Y-147107665D01*
X92756297Y-147108448D01*
X92752789Y-147108693D01*
X92743996Y-147109000D01*
X91958366Y-147109000D01*
X91896184Y-147115755D01*
X91759795Y-147166885D01*
X91662065Y-147240130D01*
X91595559Y-147264978D01*
X91526176Y-147249925D01*
X91510935Y-147240130D01*
X91413205Y-147166885D01*
X91276816Y-147115755D01*
X91214634Y-147109000D01*
X89418366Y-147109000D01*
X89356184Y-147115755D01*
X89219795Y-147166885D01*
X89122065Y-147240130D01*
X89055559Y-147264978D01*
X88986176Y-147249925D01*
X88970935Y-147240130D01*
X88873205Y-147166885D01*
X88736816Y-147115755D01*
X88674634Y-147109000D01*
X87791485Y-147109000D01*
X87789946Y-147108991D01*
X87686581Y-147107728D01*
X87686579Y-147107728D01*
X87681411Y-147107665D01*
X87676297Y-147108448D01*
X87672789Y-147108693D01*
X87663996Y-147109000D01*
X86878366Y-147109000D01*
X86816184Y-147115755D01*
X86679795Y-147166885D01*
X86563239Y-147254239D01*
X86475885Y-147370795D01*
X86424755Y-147507184D01*
X86418000Y-147569366D01*
X86418000Y-148387719D01*
X86417287Y-148401107D01*
X86413751Y-148434195D01*
X82785000Y-148434195D01*
X82785000Y-147799366D01*
X82778245Y-147737184D01*
X82727115Y-147600795D01*
X82653870Y-147503064D01*
X82629022Y-147436559D01*
X82644075Y-147367176D01*
X82653870Y-147351935D01*
X82670350Y-147329946D01*
X82727115Y-147254205D01*
X82778245Y-147117816D01*
X82785000Y-147055634D01*
X82785000Y-146255356D01*
X82786078Y-146238909D01*
X82786114Y-146238634D01*
X82788029Y-146224090D01*
X82789656Y-146157500D01*
X82785424Y-146106024D01*
X82785000Y-146095700D01*
X82785000Y-145259366D01*
X82778245Y-145197184D01*
X82727115Y-145060795D01*
X82653558Y-144962648D01*
X82628710Y-144896142D01*
X82643763Y-144826759D01*
X82653558Y-144811518D01*
X82721286Y-144721149D01*
X82729824Y-144705554D01*
X82774978Y-144585106D01*
X82778605Y-144569851D01*
X82784131Y-144518986D01*
X82784500Y-144512172D01*
X82784500Y-143889615D01*
X82780025Y-143874376D01*
X82778635Y-143873171D01*
X82770952Y-143871500D01*
X78286616Y-143871500D01*
X78271377Y-143875975D01*
X78270172Y-143877365D01*
X78268501Y-143885048D01*
X78268501Y-144512169D01*
X78268871Y-144518990D01*
X78274395Y-144569852D01*
X78278021Y-144585104D01*
X78323176Y-144705554D01*
X78331714Y-144721149D01*
X78399442Y-144811518D01*
X78424290Y-144878025D01*
X78409237Y-144947407D01*
X78399442Y-144962648D01*
X78325885Y-145060795D01*
X78274755Y-145197184D01*
X78268000Y-145259366D01*
X78268000Y-147055634D01*
X78274755Y-147117816D01*
X78325885Y-147254205D01*
X78382650Y-147329946D01*
X78399130Y-147351935D01*
X78423978Y-147418441D01*
X78408925Y-147487824D01*
X78399132Y-147503062D01*
X78325885Y-147600795D01*
X78274755Y-147737184D01*
X78268000Y-147799366D01*
X78268000Y-149595634D01*
X74583424Y-149595634D01*
X73767312Y-148779522D01*
X73753368Y-148771908D01*
X73751535Y-148772039D01*
X73744920Y-148776290D01*
X72893420Y-149627790D01*
X72886660Y-149640170D01*
X68121900Y-149640170D01*
X68122407Y-149639610D01*
X68118624Y-149630834D01*
X67267312Y-148779522D01*
X67253368Y-148771908D01*
X67251535Y-148772039D01*
X67244920Y-148776290D01*
X66393420Y-149627790D01*
X66386660Y-149640170D01*
X62631000Y-149640170D01*
X62631000Y-148412430D01*
X65742225Y-148412430D01*
X65760072Y-148639199D01*
X65761615Y-148648946D01*
X65814717Y-148870127D01*
X65817766Y-148879512D01*
X65904813Y-149089663D01*
X65909295Y-149098458D01*
X66011932Y-149265945D01*
X66022390Y-149275407D01*
X66031166Y-149271624D01*
X66882478Y-148420312D01*
X66888856Y-148408632D01*
X67618908Y-148408632D01*
X67619039Y-148410465D01*
X67623290Y-148417080D01*
X68474790Y-149268580D01*
X68487170Y-149275340D01*
X68494820Y-149269613D01*
X68599705Y-149098458D01*
X68604187Y-149089663D01*
X68691234Y-148879512D01*
X68694283Y-148870127D01*
X68747385Y-148648946D01*
X68748928Y-148639199D01*
X68766775Y-148412430D01*
X72242225Y-148412430D01*
X72260072Y-148639199D01*
X72261615Y-148648946D01*
X72314717Y-148870127D01*
X72317766Y-148879512D01*
X72404813Y-149089663D01*
X72409295Y-149098458D01*
X72511932Y-149265945D01*
X72522390Y-149275407D01*
X72531166Y-149271624D01*
X73382478Y-148420312D01*
X73388856Y-148408632D01*
X74118908Y-148408632D01*
X74119039Y-148410465D01*
X74123290Y-148417080D01*
X74974790Y-149268580D01*
X74987170Y-149275340D01*
X74994820Y-149269613D01*
X75099705Y-149098458D01*
X75104187Y-149089663D01*
X75191234Y-148879512D01*
X75194283Y-148870127D01*
X75247385Y-148648946D01*
X75248928Y-148639199D01*
X75266775Y-148412430D01*
X75266775Y-148402570D01*
X75248928Y-148175801D01*
X75247385Y-148166054D01*
X75194283Y-147944873D01*
X75191234Y-147935488D01*
X75104187Y-147725337D01*
X75099705Y-147716542D01*
X74997068Y-147549055D01*
X74986610Y-147539593D01*
X74977834Y-147543376D01*
X74126522Y-148394688D01*
X74118908Y-148408632D01*
X73388856Y-148408632D01*
X73390092Y-148406368D01*
X73389961Y-148404535D01*
X73385710Y-148397920D01*
X72534210Y-147546420D01*
X72521830Y-147539660D01*
X72514180Y-147545387D01*
X72409295Y-147716542D01*
X72404813Y-147725337D01*
X72317766Y-147935488D01*
X72314717Y-147944873D01*
X72261615Y-148166054D01*
X72260072Y-148175801D01*
X72242225Y-148402570D01*
X72242225Y-148412430D01*
X68766775Y-148412430D01*
X68766775Y-148402570D01*
X68748928Y-148175801D01*
X68747385Y-148166054D01*
X68694283Y-147944873D01*
X68691234Y-147935488D01*
X68604187Y-147725337D01*
X68599705Y-147716542D01*
X68497068Y-147549055D01*
X68486610Y-147539593D01*
X68477834Y-147543376D01*
X67626522Y-148394688D01*
X67618908Y-148408632D01*
X66888856Y-148408632D01*
X66890092Y-148406368D01*
X66889961Y-148404535D01*
X66885710Y-148397920D01*
X66034210Y-147546420D01*
X66021830Y-147539660D01*
X66014180Y-147545387D01*
X65909295Y-147716542D01*
X65904813Y-147725337D01*
X65817766Y-147935488D01*
X65814717Y-147944873D01*
X65761615Y-148166054D01*
X65760072Y-148175801D01*
X65742225Y-148402570D01*
X65742225Y-148412430D01*
X62631000Y-148412430D01*
X62631000Y-147175390D01*
X66386593Y-147175390D01*
X66390376Y-147184166D01*
X67241688Y-148035478D01*
X67255632Y-148043092D01*
X67257465Y-148042961D01*
X67264080Y-148038710D01*
X68115580Y-147187210D01*
X68122034Y-147175390D01*
X72886593Y-147175390D01*
X72890376Y-147184166D01*
X73741688Y-148035478D01*
X73755632Y-148043092D01*
X73757465Y-148042961D01*
X73764080Y-148038710D01*
X74615580Y-147187210D01*
X74622340Y-147174830D01*
X74616613Y-147167180D01*
X74445458Y-147062295D01*
X74436663Y-147057813D01*
X74226512Y-146970766D01*
X74217127Y-146967717D01*
X73995946Y-146914615D01*
X73986199Y-146913072D01*
X73759430Y-146895225D01*
X73749570Y-146895225D01*
X73522801Y-146913072D01*
X73513054Y-146914615D01*
X73291873Y-146967717D01*
X73282488Y-146970766D01*
X73072337Y-147057813D01*
X73063542Y-147062295D01*
X72896055Y-147164932D01*
X72886593Y-147175390D01*
X68122034Y-147175390D01*
X68122340Y-147174830D01*
X68116613Y-147167180D01*
X67945458Y-147062295D01*
X67936663Y-147057813D01*
X67726512Y-146970766D01*
X67717127Y-146967717D01*
X67495946Y-146914615D01*
X67486199Y-146913072D01*
X67259430Y-146895225D01*
X67249570Y-146895225D01*
X67022801Y-146913072D01*
X67013054Y-146914615D01*
X66791873Y-146967717D01*
X66782488Y-146970766D01*
X66572337Y-147057813D01*
X66563542Y-147062295D01*
X66396055Y-147164932D01*
X66386593Y-147175390D01*
X62631000Y-147175390D01*
X62631000Y-143907500D01*
X65741335Y-143907500D01*
X65759965Y-144144211D01*
X65815395Y-144375094D01*
X65817288Y-144379665D01*
X65817289Y-144379667D01*
X65896066Y-144569852D01*
X65906260Y-144594463D01*
X65908846Y-144598683D01*
X66027741Y-144792702D01*
X66027745Y-144792708D01*
X66030324Y-144796916D01*
X66184531Y-144977469D01*
X66365084Y-145131676D01*
X66369292Y-145134255D01*
X66369298Y-145134259D01*
X66563317Y-145253154D01*
X66567537Y-145255740D01*
X66572107Y-145257633D01*
X66572111Y-145257635D01*
X66782333Y-145344711D01*
X66786906Y-145346605D01*
X66834624Y-145358061D01*
X67012976Y-145400880D01*
X67012982Y-145400881D01*
X67017789Y-145402035D01*
X67254500Y-145420665D01*
X67491211Y-145402035D01*
X67496018Y-145400881D01*
X67496024Y-145400880D01*
X67674376Y-145358061D01*
X67722094Y-145346605D01*
X67726667Y-145344711D01*
X67936889Y-145257635D01*
X67936893Y-145257633D01*
X67941463Y-145255740D01*
X67945683Y-145253154D01*
X68139702Y-145134259D01*
X68139708Y-145134255D01*
X68143916Y-145131676D01*
X68324469Y-144977469D01*
X68478676Y-144796916D01*
X68597408Y-144603164D01*
X68650055Y-144555534D01*
X68704840Y-144543000D01*
X72304160Y-144543000D01*
X72372281Y-144563002D01*
X72411592Y-144603164D01*
X72530324Y-144796916D01*
X72684531Y-144977469D01*
X72865084Y-145131676D01*
X72869292Y-145134255D01*
X72869298Y-145134259D01*
X73063317Y-145253154D01*
X73067537Y-145255740D01*
X73072107Y-145257633D01*
X73072111Y-145257635D01*
X73282333Y-145344711D01*
X73286906Y-145346605D01*
X73334624Y-145358061D01*
X73512976Y-145400880D01*
X73512982Y-145400881D01*
X73517789Y-145402035D01*
X73754500Y-145420665D01*
X73991211Y-145402035D01*
X73996018Y-145400881D01*
X73996024Y-145400880D01*
X74174376Y-145358061D01*
X74222094Y-145346605D01*
X74226667Y-145344711D01*
X74436889Y-145257635D01*
X74436893Y-145257633D01*
X74441463Y-145255740D01*
X74445683Y-145253154D01*
X74639702Y-145134259D01*
X74639708Y-145134255D01*
X74643916Y-145131676D01*
X74824469Y-144977469D01*
X74978676Y-144796916D01*
X74981255Y-144792708D01*
X74981259Y-144792702D01*
X75100154Y-144598683D01*
X75102740Y-144594463D01*
X75112935Y-144569852D01*
X75191711Y-144379667D01*
X75191712Y-144379665D01*
X75193605Y-144375094D01*
X75249035Y-144144211D01*
X75267665Y-143907500D01*
X75249035Y-143670789D01*
X75208349Y-143501316D01*
X75195988Y-143449830D01*
X75199535Y-143378922D01*
X75229412Y-143331321D01*
X78052905Y-140507828D01*
X78115217Y-140473802D01*
X78186032Y-140478867D01*
X78242868Y-140521414D01*
X78267679Y-140587934D01*
X78268000Y-140596923D01*
X78268000Y-141975634D01*
X78274755Y-142037816D01*
X78325885Y-142174205D01*
X78331271Y-142181391D01*
X78399442Y-142272352D01*
X78424290Y-142338858D01*
X78409237Y-142408241D01*
X78399442Y-142423482D01*
X78331714Y-142513851D01*
X78323176Y-142529446D01*
X78278022Y-142649894D01*
X78274395Y-142665149D01*
X78268869Y-142716014D01*
X78268500Y-142722828D01*
X78268500Y-143345385D01*
X78272975Y-143360624D01*
X78274365Y-143361829D01*
X78282048Y-143363500D01*
X82766384Y-143363500D01*
X82781623Y-143359025D01*
X82782828Y-143357635D01*
X82784499Y-143349952D01*
X82784499Y-142722831D01*
X82784129Y-142716010D01*
X82778605Y-142665148D01*
X82774979Y-142649896D01*
X82729824Y-142529446D01*
X82721286Y-142513851D01*
X82653558Y-142423482D01*
X82628710Y-142356975D01*
X82643763Y-142287593D01*
X82653558Y-142272352D01*
X82721729Y-142181391D01*
X82727115Y-142174205D01*
X82778245Y-142037816D01*
X82785000Y-141975634D01*
X82785000Y-141175356D01*
X82786078Y-141158909D01*
X82787592Y-141147408D01*
X82788029Y-141144090D01*
X82789656Y-141077500D01*
X82786918Y-141044195D01*
X97843751Y-141044195D01*
X97844048Y-141049348D01*
X97844048Y-141049351D01*
X97847791Y-141114263D01*
X97848000Y-141121516D01*
X97848000Y-141975634D01*
X97854755Y-142037816D01*
X97905885Y-142174205D01*
X97911271Y-142181391D01*
X97979442Y-142272352D01*
X98004290Y-142338858D01*
X97989237Y-142408241D01*
X97979442Y-142423482D01*
X97911714Y-142513851D01*
X97903176Y-142529446D01*
X97858022Y-142649894D01*
X97854395Y-142665149D01*
X97848869Y-142716014D01*
X97848500Y-142722828D01*
X97848500Y-143345385D01*
X97852975Y-143360624D01*
X97854365Y-143361829D01*
X97862048Y-143363500D01*
X102346384Y-143363500D01*
X102361623Y-143359025D01*
X102362828Y-143357635D01*
X102364499Y-143349952D01*
X102364499Y-142722831D01*
X102364129Y-142716010D01*
X102358605Y-142665148D01*
X102354979Y-142649896D01*
X102309824Y-142529446D01*
X102301286Y-142513851D01*
X102233558Y-142423482D01*
X102208710Y-142356975D01*
X102223763Y-142287593D01*
X102233558Y-142272352D01*
X102301729Y-142181391D01*
X102307115Y-142174205D01*
X102358245Y-142037816D01*
X102365000Y-141975634D01*
X102365000Y-140179366D01*
X102358245Y-140117184D01*
X102307115Y-139980795D01*
X102233870Y-139883064D01*
X102209022Y-139816559D01*
X102224075Y-139747176D01*
X102233870Y-139731935D01*
X102301729Y-139641391D01*
X102307115Y-139634205D01*
X102358245Y-139497816D01*
X102365000Y-139435634D01*
X102365000Y-137639366D01*
X102358245Y-137577184D01*
X102307115Y-137440795D01*
X102233870Y-137343064D01*
X102209022Y-137276559D01*
X102224075Y-137207176D01*
X102233870Y-137191935D01*
X102307115Y-137094205D01*
X102358245Y-136957816D01*
X102365000Y-136895634D01*
X102365000Y-135099366D01*
X102358245Y-135037184D01*
X102307115Y-134900795D01*
X102233870Y-134803064D01*
X102209022Y-134736559D01*
X102224075Y-134667176D01*
X102233870Y-134651935D01*
X102301729Y-134561391D01*
X102307115Y-134554205D01*
X102358245Y-134417816D01*
X102365000Y-134355634D01*
X102365000Y-134262922D01*
X102385002Y-134194801D01*
X102438658Y-134148308D01*
X102508932Y-134138204D01*
X102573512Y-134167698D01*
X102580095Y-134173827D01*
X103859750Y-135453483D01*
X105138095Y-136731828D01*
X105172121Y-136794140D01*
X105175000Y-136820923D01*
X105175000Y-148364480D01*
X105174470Y-148375714D01*
X105172792Y-148383219D01*
X105173591Y-148408632D01*
X105174938Y-148451512D01*
X105175000Y-148455469D01*
X105175000Y-148483483D01*
X105175496Y-148487408D01*
X105175496Y-148487409D01*
X105175508Y-148487504D01*
X105176441Y-148499349D01*
X105177835Y-148543705D01*
X105180047Y-148551317D01*
X105183513Y-148563248D01*
X105187523Y-148582612D01*
X105190073Y-148602799D01*
X105192989Y-148610163D01*
X105192990Y-148610168D01*
X105206407Y-148644056D01*
X105210252Y-148655285D01*
X105212841Y-148664195D01*
X105222631Y-148697893D01*
X105226669Y-148704720D01*
X105226670Y-148704723D01*
X105232988Y-148715406D01*
X105241688Y-148733164D01*
X105246261Y-148744715D01*
X105246265Y-148744721D01*
X105249181Y-148752088D01*
X105253839Y-148758499D01*
X105253840Y-148758501D01*
X105263581Y-148771908D01*
X105274617Y-148787097D01*
X105275264Y-148787988D01*
X105281781Y-148797910D01*
X105300326Y-148829268D01*
X105300329Y-148829272D01*
X105304366Y-148836098D01*
X105318750Y-148850482D01*
X105331591Y-148865516D01*
X105343558Y-148881987D01*
X105349666Y-148887040D01*
X105377755Y-148910277D01*
X105386535Y-148918267D01*
X107023816Y-150555548D01*
X107031393Y-150563874D01*
X107035518Y-150570374D01*
X107041296Y-150575800D01*
X107041297Y-150575801D01*
X107085352Y-150617171D01*
X107088194Y-150619926D01*
X107107977Y-150639709D01*
X107111185Y-150642197D01*
X107120214Y-150649908D01*
X107152565Y-150680288D01*
X107159514Y-150684108D01*
X107170400Y-150690093D01*
X107186924Y-150700947D01*
X107203004Y-150713420D01*
X107210281Y-150716569D01*
X107243721Y-150731040D01*
X107254382Y-150736263D01*
X107286318Y-150753820D01*
X107286323Y-150753822D01*
X107293268Y-150757640D01*
X107300942Y-150759610D01*
X107300949Y-150759613D01*
X107312984Y-150762703D01*
X107331689Y-150769107D01*
X107343084Y-150774038D01*
X107350363Y-150777188D01*
X107365472Y-150779581D01*
X107394198Y-150784131D01*
X107405811Y-150786536D01*
X107448789Y-150797571D01*
X107469136Y-150797571D01*
X107488848Y-150799122D01*
X107508950Y-150802306D01*
X107516842Y-150801560D01*
X107553127Y-150798130D01*
X107564985Y-150797571D01*
X112140909Y-150797571D01*
X112152143Y-150798101D01*
X112159648Y-150799779D01*
X112227941Y-150797633D01*
X112231898Y-150797571D01*
X112259912Y-150797571D01*
X112263837Y-150797075D01*
X112263838Y-150797075D01*
X112263933Y-150797063D01*
X112275778Y-150796130D01*
X112305599Y-150795193D01*
X112312211Y-150794985D01*
X112312212Y-150794985D01*
X112320134Y-150794736D01*
X112339678Y-150789058D01*
X112359041Y-150785048D01*
X112371369Y-150783491D01*
X112371371Y-150783491D01*
X112379228Y-150782498D01*
X112386592Y-150779582D01*
X112386597Y-150779581D01*
X112420485Y-150766164D01*
X112431714Y-150762319D01*
X112448394Y-150757473D01*
X112474322Y-150749940D01*
X112481149Y-150745902D01*
X112481152Y-150745901D01*
X112491835Y-150739583D01*
X112509593Y-150730883D01*
X112521144Y-150726310D01*
X112521150Y-150726306D01*
X112528517Y-150723390D01*
X112537906Y-150716569D01*
X112564417Y-150697307D01*
X112574339Y-150690790D01*
X112605697Y-150672245D01*
X112605701Y-150672242D01*
X112612527Y-150668205D01*
X112626911Y-150653821D01*
X112641945Y-150640980D01*
X112652002Y-150633673D01*
X112658416Y-150629013D01*
X112686707Y-150594815D01*
X112694696Y-150586036D01*
X113314307Y-149966425D01*
X113376619Y-149932399D01*
X113436012Y-149933813D01*
X113465129Y-149941615D01*
X113684500Y-149960807D01*
X113903871Y-149941615D01*
X114116576Y-149884620D01*
X114316154Y-149791556D01*
X114496538Y-149665249D01*
X114652249Y-149509538D01*
X114778556Y-149329153D01*
X114780879Y-149324171D01*
X114780882Y-149324166D01*
X114869295Y-149134561D01*
X114871620Y-149129576D01*
X114928615Y-148916871D01*
X114947807Y-148697500D01*
X114928615Y-148478129D01*
X114871620Y-148265424D01*
X114780998Y-148071083D01*
X114780882Y-148070834D01*
X114780879Y-148070829D01*
X114778556Y-148065847D01*
X114773552Y-148058700D01*
X114655408Y-147889973D01*
X114655406Y-147889970D01*
X114652249Y-147885462D01*
X114496538Y-147729751D01*
X114490235Y-147725337D01*
X114378842Y-147647339D01*
X114316154Y-147603444D01*
X114116576Y-147510380D01*
X113903871Y-147453385D01*
X113684500Y-147434193D01*
X113465129Y-147453385D01*
X113252424Y-147510380D01*
X113189633Y-147539660D01*
X113057834Y-147601118D01*
X113057829Y-147601121D01*
X113052847Y-147603444D01*
X113048340Y-147606600D01*
X113048338Y-147606601D01*
X112876973Y-147726592D01*
X112876970Y-147726594D01*
X112872462Y-147729751D01*
X112716751Y-147885462D01*
X112713594Y-147889970D01*
X112713592Y-147889973D01*
X112595448Y-148058700D01*
X112590444Y-148065847D01*
X112588121Y-148070829D01*
X112588118Y-148070834D01*
X112528419Y-148198860D01*
X112481502Y-148252145D01*
X112413224Y-148271606D01*
X112345264Y-148251064D01*
X112300029Y-148198860D01*
X112240446Y-148071083D01*
X112234966Y-148061593D01*
X112206089Y-148020351D01*
X112195614Y-148011977D01*
X112182167Y-148019045D01*
X111233595Y-148967616D01*
X111171283Y-149001641D01*
X111100467Y-148996576D01*
X111055405Y-148967616D01*
X110106111Y-148018322D01*
X110094338Y-148011894D01*
X110067188Y-148032899D01*
X110064400Y-148029296D01*
X110036742Y-148051399D01*
X109966122Y-148058700D01*
X109902765Y-148026661D01*
X109866788Y-147965455D01*
X109863000Y-147934794D01*
X109863000Y-147899366D01*
X109856245Y-147837184D01*
X109805115Y-147700795D01*
X109764338Y-147646387D01*
X110458977Y-147646387D01*
X110466045Y-147659834D01*
X111131689Y-148325479D01*
X111145632Y-148333092D01*
X111147466Y-148332961D01*
X111154080Y-148328710D01*
X111823680Y-147659109D01*
X111830107Y-147647339D01*
X111820813Y-147635325D01*
X111780412Y-147607036D01*
X111770916Y-147601553D01*
X111581387Y-147513174D01*
X111571095Y-147509428D01*
X111369099Y-147455304D01*
X111358304Y-147453401D01*
X111149975Y-147435174D01*
X111139025Y-147435174D01*
X110930696Y-147453401D01*
X110919901Y-147455304D01*
X110717905Y-147509428D01*
X110707613Y-147513174D01*
X110518083Y-147601554D01*
X110508593Y-147607034D01*
X110467351Y-147635911D01*
X110458977Y-147646387D01*
X109764338Y-147646387D01*
X109717761Y-147584239D01*
X109601205Y-147496885D01*
X109464816Y-147445755D01*
X109402634Y-147439000D01*
X109366000Y-147439000D01*
X109297879Y-147418998D01*
X109251386Y-147365342D01*
X109240000Y-147313000D01*
X109240000Y-146236520D01*
X109240530Y-146225286D01*
X109242208Y-146217781D01*
X109240062Y-146149488D01*
X109240000Y-146145531D01*
X109240000Y-146117517D01*
X109239492Y-146113496D01*
X109238558Y-146101644D01*
X109238372Y-146095700D01*
X109237165Y-146057295D01*
X109231487Y-146037751D01*
X109227477Y-146018388D01*
X109225920Y-146006060D01*
X109225920Y-146006058D01*
X109224927Y-145998201D01*
X109222011Y-145990837D01*
X109222010Y-145990832D01*
X109208593Y-145956944D01*
X109204748Y-145945715D01*
X109194580Y-145910719D01*
X109192369Y-145903107D01*
X109182010Y-145885591D01*
X109173313Y-145867841D01*
X109165819Y-145848912D01*
X109139740Y-145813017D01*
X109133222Y-145803095D01*
X109114670Y-145771724D01*
X109114666Y-145771719D01*
X109110634Y-145764901D01*
X109096247Y-145750514D01*
X109083406Y-145735480D01*
X109076102Y-145725427D01*
X109071442Y-145719013D01*
X109037250Y-145690727D01*
X109028471Y-145682738D01*
X108006905Y-144661172D01*
X107972879Y-144598860D01*
X107970000Y-144572077D01*
X107970000Y-140263369D01*
X107990002Y-140195248D01*
X108043658Y-140148755D01*
X108113932Y-140138651D01*
X108178512Y-140168145D01*
X108216896Y-140227871D01*
X108220449Y-140243657D01*
X108273670Y-140579682D01*
X108374286Y-140955186D01*
X108513601Y-141318116D01*
X108690090Y-141664495D01*
X108901819Y-141990529D01*
X108903897Y-141993095D01*
X109142378Y-142287593D01*
X109146468Y-142292644D01*
X109421356Y-142567532D01*
X109423914Y-142569604D01*
X109423918Y-142569607D01*
X109568312Y-142686535D01*
X109723471Y-142812181D01*
X110049505Y-143023910D01*
X110395884Y-143200399D01*
X110758814Y-143339714D01*
X111134318Y-143440330D01*
X111338336Y-143472643D01*
X111515034Y-143500630D01*
X111515042Y-143500631D01*
X111518282Y-143501144D01*
X111906500Y-143521490D01*
X112294718Y-143501144D01*
X112297958Y-143500631D01*
X112297966Y-143500630D01*
X112474664Y-143472643D01*
X112678682Y-143440330D01*
X113054186Y-143339714D01*
X113417116Y-143200399D01*
X113763495Y-143023910D01*
X114089529Y-142812181D01*
X114244688Y-142686535D01*
X114389082Y-142569607D01*
X114389086Y-142569604D01*
X114391644Y-142567532D01*
X114666532Y-142292644D01*
X114670623Y-142287593D01*
X114909103Y-141993095D01*
X114911181Y-141990529D01*
X115122910Y-141664495D01*
X115299399Y-141318116D01*
X115438714Y-140955186D01*
X115539330Y-140579682D01*
X115576683Y-140343843D01*
X115599630Y-140198966D01*
X115599631Y-140198958D01*
X115600144Y-140195718D01*
X115620490Y-139807500D01*
X115600144Y-139419282D01*
X115539330Y-139035318D01*
X115438714Y-138659814D01*
X115430311Y-138637922D01*
X115300583Y-138299969D01*
X115299399Y-138296884D01*
X115122910Y-137950505D01*
X114911181Y-137624471D01*
X114769251Y-137449203D01*
X114668607Y-137324918D01*
X114668604Y-137324914D01*
X114666532Y-137322356D01*
X114391644Y-137047468D01*
X114356144Y-137018720D01*
X114092095Y-136804897D01*
X114089529Y-136802819D01*
X113763495Y-136591090D01*
X113417116Y-136414601D01*
X113131448Y-136304944D01*
X113057276Y-136276472D01*
X113057274Y-136276471D01*
X113054186Y-136275286D01*
X112678682Y-136174670D01*
X112474664Y-136142357D01*
X112297966Y-136114370D01*
X112297958Y-136114369D01*
X112294718Y-136113856D01*
X111906500Y-136093510D01*
X111518282Y-136113856D01*
X111515042Y-136114369D01*
X111515034Y-136114370D01*
X111338336Y-136142357D01*
X111134318Y-136174670D01*
X110758814Y-136275286D01*
X110755726Y-136276471D01*
X110755724Y-136276472D01*
X110681552Y-136304944D01*
X110395884Y-136414601D01*
X110049505Y-136591090D01*
X109723471Y-136802819D01*
X109720905Y-136804897D01*
X109456857Y-137018720D01*
X109421356Y-137047468D01*
X109146468Y-137322356D01*
X109144396Y-137324914D01*
X109144393Y-137324918D01*
X109043749Y-137449203D01*
X108901819Y-137624471D01*
X108690090Y-137950505D01*
X108513601Y-138296884D01*
X108512417Y-138299969D01*
X108382690Y-138637922D01*
X108374286Y-138659814D01*
X108273670Y-139035318D01*
X108235431Y-139276750D01*
X108220449Y-139371342D01*
X108190036Y-139435495D01*
X108129768Y-139473022D01*
X108058779Y-139472008D01*
X107999607Y-139432775D01*
X107971039Y-139367780D01*
X107970000Y-139351631D01*
X107970000Y-135568532D01*
X107970530Y-135557293D01*
X107972209Y-135549781D01*
X107970062Y-135481469D01*
X107970000Y-135477512D01*
X107970000Y-135449517D01*
X107969492Y-135445494D01*
X107968559Y-135433652D01*
X107967414Y-135397220D01*
X107967165Y-135389295D01*
X107961487Y-135369751D01*
X107957477Y-135350388D01*
X107955920Y-135338060D01*
X107955920Y-135338058D01*
X107954927Y-135330201D01*
X107952011Y-135322837D01*
X107952010Y-135322832D01*
X107938593Y-135288944D01*
X107934748Y-135277715D01*
X107924580Y-135242719D01*
X107922369Y-135235107D01*
X107912010Y-135217591D01*
X107903313Y-135199841D01*
X107895819Y-135180912D01*
X107869738Y-135145014D01*
X107863222Y-135135094D01*
X107844673Y-135103729D01*
X107844671Y-135103726D01*
X107840635Y-135096902D01*
X107826247Y-135082514D01*
X107813406Y-135067480D01*
X107806102Y-135057427D01*
X107801442Y-135051013D01*
X107767250Y-135022727D01*
X107758471Y-135014738D01*
X106228905Y-133485172D01*
X106194879Y-133422860D01*
X106192000Y-133396077D01*
X106192000Y-128377500D01*
X108192510Y-128377500D01*
X108212856Y-128765718D01*
X108213369Y-128768958D01*
X108213370Y-128768966D01*
X108218228Y-128799638D01*
X108273670Y-129149682D01*
X108374286Y-129525186D01*
X108513601Y-129888116D01*
X108690090Y-130234495D01*
X108901819Y-130560529D01*
X108903897Y-130563095D01*
X109109487Y-130816976D01*
X109146468Y-130862644D01*
X109421356Y-131137532D01*
X109423914Y-131139604D01*
X109423918Y-131139607D01*
X109537836Y-131231856D01*
X109723471Y-131382181D01*
X110049505Y-131593910D01*
X110395884Y-131770399D01*
X110595604Y-131847064D01*
X110703818Y-131888603D01*
X110758814Y-131909714D01*
X111134318Y-132010330D01*
X111338336Y-132042643D01*
X111515034Y-132070630D01*
X111515042Y-132070631D01*
X111518282Y-132071144D01*
X111906500Y-132091490D01*
X112294718Y-132071144D01*
X112297958Y-132070631D01*
X112297966Y-132070630D01*
X112474664Y-132042643D01*
X112678682Y-132010330D01*
X113054186Y-131909714D01*
X113109183Y-131888603D01*
X113217396Y-131847064D01*
X113417116Y-131770399D01*
X113763495Y-131593910D01*
X114089529Y-131382181D01*
X114275164Y-131231856D01*
X114389082Y-131139607D01*
X114389086Y-131139604D01*
X114391644Y-131137532D01*
X114666532Y-130862644D01*
X114703514Y-130816976D01*
X114909103Y-130563095D01*
X114911181Y-130560529D01*
X115122910Y-130234495D01*
X115299399Y-129888116D01*
X115438714Y-129525186D01*
X115539330Y-129149682D01*
X115594772Y-128799638D01*
X115599630Y-128768966D01*
X115599631Y-128768958D01*
X115600144Y-128765718D01*
X115620490Y-128377500D01*
X115600144Y-127989282D01*
X115539330Y-127605318D01*
X115438714Y-127229814D01*
X115299399Y-126866884D01*
X115122910Y-126520505D01*
X114911181Y-126194471D01*
X114853781Y-126123588D01*
X114668607Y-125894918D01*
X114668604Y-125894914D01*
X114666532Y-125892356D01*
X114391644Y-125617468D01*
X114302283Y-125545104D01*
X114092095Y-125374897D01*
X114089529Y-125372819D01*
X113763495Y-125161090D01*
X113417116Y-124984601D01*
X113137284Y-124877184D01*
X113057276Y-124846472D01*
X113057274Y-124846471D01*
X113054186Y-124845286D01*
X112678682Y-124744670D01*
X112431373Y-124705500D01*
X112297966Y-124684370D01*
X112297958Y-124684369D01*
X112294718Y-124683856D01*
X111906500Y-124663510D01*
X111518282Y-124683856D01*
X111515042Y-124684369D01*
X111515034Y-124684370D01*
X111381627Y-124705500D01*
X111134318Y-124744670D01*
X110758814Y-124845286D01*
X110755726Y-124846471D01*
X110755724Y-124846472D01*
X110675716Y-124877184D01*
X110395884Y-124984601D01*
X110049505Y-125161090D01*
X109723471Y-125372819D01*
X109720905Y-125374897D01*
X109510718Y-125545104D01*
X109421356Y-125617468D01*
X109146468Y-125892356D01*
X109144396Y-125894914D01*
X109144393Y-125894918D01*
X108959219Y-126123588D01*
X108901819Y-126194471D01*
X108690090Y-126520505D01*
X108513601Y-126866884D01*
X108374286Y-127229814D01*
X108273670Y-127605318D01*
X108212856Y-127989282D01*
X108192510Y-128377500D01*
X106192000Y-128377500D01*
X106192000Y-113705922D01*
X106212002Y-113637801D01*
X106265658Y-113591308D01*
X106335932Y-113581204D01*
X106400512Y-113610698D01*
X106407094Y-113616826D01*
X107700292Y-114910025D01*
X108791095Y-116000828D01*
X108825121Y-116063140D01*
X108828000Y-116089923D01*
X108828000Y-118295634D01*
X108834755Y-118357816D01*
X108885885Y-118494205D01*
X108973239Y-118610761D01*
X109089795Y-118698115D01*
X109226184Y-118749245D01*
X109288366Y-118756000D01*
X111984634Y-118756000D01*
X112046816Y-118749245D01*
X112183205Y-118698115D01*
X112299761Y-118610761D01*
X112387115Y-118494205D01*
X112438245Y-118357816D01*
X112445000Y-118295634D01*
X112445000Y-117435075D01*
X112465002Y-117366954D01*
X112518658Y-117320461D01*
X112588932Y-117310357D01*
X112653512Y-117339851D01*
X112691896Y-117399577D01*
X112694579Y-117410494D01*
X112698888Y-117432156D01*
X112789720Y-117685146D01*
X112791932Y-117689262D01*
X112791933Y-117689265D01*
X112820121Y-117741725D01*
X112916950Y-117921931D01*
X112919741Y-117925668D01*
X112919745Y-117925675D01*
X113004320Y-118038934D01*
X113077781Y-118137310D01*
X113081090Y-118140590D01*
X113081095Y-118140596D01*
X113265363Y-118323262D01*
X113268680Y-118326550D01*
X113272442Y-118329308D01*
X113272445Y-118329311D01*
X113413146Y-118432477D01*
X113485454Y-118485495D01*
X113489589Y-118487671D01*
X113489593Y-118487673D01*
X113719198Y-118608475D01*
X113723340Y-118610654D01*
X113977113Y-118699275D01*
X113981706Y-118700147D01*
X114236609Y-118748542D01*
X114236612Y-118748542D01*
X114241198Y-118749413D01*
X114368870Y-118754429D01*
X114505125Y-118759783D01*
X114505130Y-118759783D01*
X114509793Y-118759966D01*
X114614107Y-118748542D01*
X114772344Y-118731213D01*
X114772350Y-118731212D01*
X114776997Y-118730703D01*
X114846030Y-118712528D01*
X115032418Y-118663456D01*
X115032420Y-118663455D01*
X115036941Y-118662265D01*
X115053006Y-118655363D01*
X115279620Y-118558002D01*
X115279622Y-118558001D01*
X115283914Y-118556157D01*
X115418018Y-118473171D01*
X115508517Y-118417169D01*
X115508521Y-118417166D01*
X115512490Y-118414710D01*
X115717649Y-118241030D01*
X115894882Y-118038934D01*
X115930299Y-117983873D01*
X116032946Y-117824290D01*
X116040297Y-117812861D01*
X116150699Y-117567778D01*
X116151969Y-117563275D01*
X116222393Y-117313572D01*
X116222394Y-117313569D01*
X116223663Y-117309068D01*
X116248498Y-117113851D01*
X116257188Y-117045545D01*
X116257188Y-117045541D01*
X116257586Y-117042415D01*
X116260071Y-116947500D01*
X116246923Y-116770574D01*
X116240496Y-116684092D01*
X116240496Y-116684091D01*
X116240150Y-116679437D01*
X116239119Y-116674879D01*
X116181861Y-116421831D01*
X116181860Y-116421826D01*
X116180827Y-116417263D01*
X116083402Y-116166738D01*
X115950018Y-115933364D01*
X115917786Y-115892477D01*
X115812489Y-115758909D01*
X115783605Y-115722269D01*
X115587817Y-115538091D01*
X115389907Y-115400795D01*
X115370799Y-115387539D01*
X115370796Y-115387537D01*
X115366957Y-115384874D01*
X115337984Y-115370586D01*
X115130064Y-115268051D01*
X115130061Y-115268050D01*
X115125876Y-115265986D01*
X114869870Y-115184038D01*
X114806747Y-115173758D01*
X114742727Y-115143066D01*
X114705463Y-115082635D01*
X114701000Y-115049396D01*
X114701000Y-111466815D01*
X114723787Y-111394544D01*
X114783188Y-111309711D01*
X114822023Y-111254249D01*
X114824346Y-111249267D01*
X114824349Y-111249262D01*
X114916461Y-111051725D01*
X114916461Y-111051724D01*
X114918784Y-111046743D01*
X114939476Y-110969522D01*
X114976619Y-110830902D01*
X114976619Y-110830900D01*
X114978043Y-110825587D01*
X114997998Y-110597500D01*
X114978043Y-110369413D01*
X114962083Y-110309850D01*
X114920207Y-110153567D01*
X114920206Y-110153565D01*
X114918784Y-110148257D01*
X114904952Y-110118594D01*
X114824349Y-109945738D01*
X114824346Y-109945733D01*
X114822023Y-109940751D01*
X114723787Y-109800456D01*
X114701000Y-109728185D01*
X114701000Y-104912000D01*
X114721002Y-104843879D01*
X114774658Y-104797386D01*
X114827000Y-104786000D01*
X115032634Y-104786000D01*
X115094816Y-104779245D01*
X115231205Y-104728115D01*
X115347761Y-104640761D01*
X115435115Y-104524205D01*
X115486245Y-104387816D01*
X115493000Y-104325634D01*
X115493000Y-101629366D01*
X115486245Y-101567184D01*
X115435115Y-101430795D01*
X115347761Y-101314239D01*
X115231205Y-101226885D01*
X115094816Y-101175755D01*
X115032634Y-101169000D01*
X112336366Y-101169000D01*
X112274184Y-101175755D01*
X112137795Y-101226885D01*
X112021239Y-101314239D01*
X111933885Y-101430795D01*
X111882755Y-101567184D01*
X111876000Y-101629366D01*
X111876000Y-104325634D01*
X111882755Y-104387816D01*
X111933885Y-104524205D01*
X112021239Y-104640761D01*
X112137795Y-104728115D01*
X112274184Y-104779245D01*
X112336366Y-104786000D01*
X112542000Y-104786000D01*
X112610121Y-104806002D01*
X112656614Y-104859658D01*
X112668000Y-104912000D01*
X112668000Y-109728185D01*
X112645213Y-109800456D01*
X112546977Y-109940751D01*
X112544654Y-109945733D01*
X112544651Y-109945738D01*
X112464048Y-110118594D01*
X112450216Y-110148257D01*
X112448794Y-110153565D01*
X112448793Y-110153567D01*
X112406917Y-110309850D01*
X112390957Y-110369413D01*
X112371002Y-110597500D01*
X112390957Y-110825587D01*
X112392381Y-110830900D01*
X112392381Y-110830902D01*
X112429525Y-110969522D01*
X112450216Y-111046743D01*
X112452539Y-111051724D01*
X112452539Y-111051725D01*
X112544651Y-111249262D01*
X112544654Y-111249267D01*
X112546977Y-111254249D01*
X112585812Y-111309711D01*
X112645213Y-111394544D01*
X112668000Y-111466815D01*
X112668000Y-115455004D01*
X112647998Y-115523125D01*
X112594342Y-115569618D01*
X112524068Y-115579722D01*
X112459488Y-115550228D01*
X112424018Y-115499233D01*
X112390268Y-115409205D01*
X112390267Y-115409204D01*
X112387115Y-115400795D01*
X112299761Y-115284239D01*
X112183205Y-115196885D01*
X112046816Y-115145755D01*
X111984634Y-115139000D01*
X109778923Y-115139000D01*
X109710802Y-115118998D01*
X109689828Y-115102095D01*
X106271295Y-111683562D01*
X107962993Y-111683562D01*
X107972289Y-111695577D01*
X108023494Y-111731431D01*
X108032989Y-111736914D01*
X108230447Y-111828990D01*
X108240739Y-111832736D01*
X108451188Y-111889125D01*
X108461981Y-111891028D01*
X108679025Y-111910017D01*
X108689975Y-111910017D01*
X108907019Y-111891028D01*
X108917812Y-111889125D01*
X109128261Y-111832736D01*
X109138553Y-111828990D01*
X109336011Y-111736914D01*
X109345506Y-111731431D01*
X109397548Y-111694991D01*
X109405924Y-111684512D01*
X109398856Y-111671066D01*
X108697312Y-110969522D01*
X108683368Y-110961908D01*
X108681535Y-110962039D01*
X108674920Y-110966290D01*
X107969423Y-111671787D01*
X107962993Y-111683562D01*
X106271295Y-111683562D01*
X105190708Y-110602975D01*
X107371983Y-110602975D01*
X107390972Y-110820019D01*
X107392875Y-110830812D01*
X107449264Y-111041261D01*
X107453010Y-111051553D01*
X107545086Y-111249011D01*
X107550569Y-111258506D01*
X107587009Y-111310548D01*
X107597488Y-111318924D01*
X107610934Y-111311856D01*
X108312478Y-110610312D01*
X108318856Y-110598632D01*
X109048908Y-110598632D01*
X109049039Y-110600465D01*
X109053290Y-110607080D01*
X109758787Y-111312577D01*
X109770562Y-111319007D01*
X109782577Y-111309711D01*
X109818431Y-111258506D01*
X109823914Y-111249011D01*
X109915990Y-111051553D01*
X109919736Y-111041261D01*
X109976125Y-110830812D01*
X109978028Y-110820019D01*
X109997017Y-110602975D01*
X109997017Y-110592025D01*
X109978028Y-110374981D01*
X109976125Y-110364188D01*
X109919736Y-110153739D01*
X109915990Y-110143447D01*
X109823914Y-109945989D01*
X109818431Y-109936494D01*
X109781991Y-109884452D01*
X109771512Y-109876076D01*
X109758066Y-109883144D01*
X109056522Y-110584688D01*
X109048908Y-110598632D01*
X108318856Y-110598632D01*
X108320092Y-110596368D01*
X108319961Y-110594535D01*
X108315710Y-110587920D01*
X107610213Y-109882423D01*
X107598438Y-109875993D01*
X107586423Y-109885289D01*
X107550569Y-109936494D01*
X107545086Y-109945989D01*
X107453010Y-110143447D01*
X107449264Y-110153739D01*
X107392875Y-110364188D01*
X107390972Y-110374981D01*
X107371983Y-110592025D01*
X107371983Y-110602975D01*
X105190708Y-110602975D01*
X104450905Y-109863172D01*
X104416879Y-109800860D01*
X104414000Y-109774077D01*
X104414000Y-109510488D01*
X107963076Y-109510488D01*
X107970144Y-109523934D01*
X108671688Y-110225478D01*
X108685632Y-110233092D01*
X108687465Y-110232961D01*
X108694080Y-110228710D01*
X109399577Y-109523213D01*
X109406007Y-109511438D01*
X109396711Y-109499423D01*
X109345506Y-109463569D01*
X109336011Y-109458086D01*
X109138553Y-109366010D01*
X109128261Y-109362264D01*
X108917812Y-109305875D01*
X108907019Y-109303972D01*
X108689975Y-109284983D01*
X108679025Y-109284983D01*
X108461981Y-109303972D01*
X108451188Y-109305875D01*
X108240739Y-109362264D01*
X108230447Y-109366010D01*
X108032989Y-109458086D01*
X108023494Y-109463569D01*
X107971452Y-109500009D01*
X107963076Y-109510488D01*
X104414000Y-109510488D01*
X104414000Y-105906532D01*
X104414530Y-105895293D01*
X104416209Y-105887781D01*
X104415336Y-105859988D01*
X104414062Y-105819470D01*
X104414000Y-105815512D01*
X104414000Y-105787517D01*
X104413492Y-105783494D01*
X104412559Y-105771652D01*
X104412555Y-105771500D01*
X104411165Y-105727295D01*
X104405487Y-105707751D01*
X104401477Y-105688388D01*
X104399920Y-105676060D01*
X104399920Y-105676058D01*
X104398927Y-105668201D01*
X104396011Y-105660837D01*
X104396010Y-105660832D01*
X104382593Y-105626944D01*
X104378748Y-105615715D01*
X104368580Y-105580719D01*
X104366369Y-105573107D01*
X104356010Y-105555591D01*
X104347313Y-105537841D01*
X104339819Y-105518912D01*
X104313738Y-105483014D01*
X104307222Y-105473094D01*
X104288673Y-105441729D01*
X104288671Y-105441726D01*
X104284635Y-105434902D01*
X104270247Y-105420514D01*
X104257406Y-105405480D01*
X104250102Y-105395427D01*
X104245442Y-105389013D01*
X104211250Y-105360727D01*
X104202471Y-105352738D01*
X103272139Y-104422406D01*
X107604339Y-104422406D01*
X107613053Y-104433927D01*
X107719952Y-104512309D01*
X107727851Y-104517245D01*
X107957405Y-104638019D01*
X107965954Y-104641736D01*
X108210827Y-104727249D01*
X108219836Y-104729663D01*
X108474666Y-104778044D01*
X108483923Y-104779098D01*
X108743107Y-104789283D01*
X108752421Y-104788957D01*
X109010253Y-104760720D01*
X109019430Y-104759019D01*
X109270258Y-104692981D01*
X109279074Y-104689945D01*
X109517380Y-104587562D01*
X109525667Y-104583248D01*
X109746218Y-104446766D01*
X109753768Y-104441280D01*
X109759059Y-104436801D01*
X109767497Y-104423997D01*
X109761435Y-104413645D01*
X108697312Y-103349522D01*
X108683368Y-103341908D01*
X108681535Y-103342039D01*
X108674920Y-103346290D01*
X107610997Y-104410213D01*
X107604339Y-104422406D01*
X103272139Y-104422406D01*
X102401905Y-103552172D01*
X102367879Y-103489860D01*
X102365000Y-103463077D01*
X102365000Y-102934711D01*
X106872275Y-102934711D01*
X106884720Y-103193788D01*
X106885856Y-103203043D01*
X106936461Y-103457445D01*
X106938949Y-103466417D01*
X107026595Y-103710533D01*
X107030395Y-103719068D01*
X107153158Y-103947542D01*
X107158166Y-103955404D01*
X107228220Y-104049216D01*
X107239479Y-104057665D01*
X107251897Y-104050893D01*
X108312478Y-102990312D01*
X108318856Y-102978632D01*
X109048908Y-102978632D01*
X109049039Y-102980465D01*
X109053290Y-102987080D01*
X110120594Y-104054384D01*
X110132974Y-104061144D01*
X110141315Y-104054900D01*
X110275332Y-103846548D01*
X110279775Y-103838364D01*
X110386307Y-103601870D01*
X110389497Y-103593105D01*
X110459902Y-103343472D01*
X110461762Y-103334330D01*
X110494687Y-103075519D01*
X110495168Y-103069233D01*
X110497487Y-102980660D01*
X110497336Y-102974351D01*
X110478001Y-102714163D01*
X110476625Y-102704957D01*
X110419378Y-102451967D01*
X110416654Y-102443056D01*
X110322643Y-102201306D01*
X110318632Y-102192897D01*
X110189922Y-101967702D01*
X110184711Y-101959976D01*
X110141496Y-101905158D01*
X110129571Y-101896687D01*
X110118037Y-101903173D01*
X109056522Y-102964688D01*
X109048908Y-102978632D01*
X108318856Y-102978632D01*
X108320092Y-102976368D01*
X108319961Y-102974535D01*
X108315710Y-102967920D01*
X107250316Y-101902526D01*
X107237007Y-101895258D01*
X107226972Y-101902378D01*
X107211437Y-101921056D01*
X107206031Y-101928635D01*
X107071465Y-102150391D01*
X107067236Y-102158692D01*
X106966932Y-102397889D01*
X106963971Y-102406739D01*
X106900128Y-102658125D01*
X106898506Y-102667322D01*
X106872520Y-102925385D01*
X106872275Y-102934711D01*
X102365000Y-102934711D01*
X102365000Y-102079366D01*
X102358245Y-102017184D01*
X102307115Y-101880795D01*
X102233870Y-101783064D01*
X102209022Y-101716559D01*
X102224075Y-101647176D01*
X102233870Y-101631935D01*
X102307115Y-101534205D01*
X102308621Y-101530189D01*
X107601602Y-101530189D01*
X107606175Y-101539965D01*
X108671688Y-102605478D01*
X108685632Y-102613092D01*
X108687465Y-102612961D01*
X108694080Y-102608710D01*
X109758849Y-101543941D01*
X109765233Y-101532251D01*
X109755821Y-101520141D01*
X109608545Y-101417971D01*
X109600510Y-101413238D01*
X109367876Y-101298516D01*
X109359243Y-101295028D01*
X109112203Y-101215950D01*
X109103143Y-101213774D01*
X108847130Y-101172080D01*
X108837843Y-101171268D01*
X108578492Y-101167873D01*
X108569181Y-101168443D01*
X108312182Y-101203419D01*
X108303046Y-101205360D01*
X108054043Y-101277939D01*
X108045300Y-101281207D01*
X107809752Y-101389796D01*
X107801597Y-101394316D01*
X107610740Y-101519447D01*
X107601602Y-101530189D01*
X102308621Y-101530189D01*
X102358245Y-101397816D01*
X102365000Y-101335634D01*
X102365000Y-99539366D01*
X102358245Y-99477184D01*
X102307115Y-99340795D01*
X102219761Y-99224239D01*
X102103205Y-99136885D01*
X101966816Y-99085755D01*
X101904634Y-99079000D01*
X99221485Y-99079000D01*
X99219946Y-99078991D01*
X99116581Y-99077728D01*
X99116579Y-99077728D01*
X99111411Y-99077665D01*
X99106297Y-99078448D01*
X99102789Y-99078693D01*
X99093996Y-99079000D01*
X98308366Y-99079000D01*
X98246184Y-99085755D01*
X98109795Y-99136885D01*
X97993239Y-99224239D01*
X97905885Y-99340795D01*
X97854755Y-99477184D01*
X97848000Y-99539366D01*
X97848000Y-100357719D01*
X97847287Y-100371107D01*
X97843751Y-100404195D01*
X97844048Y-100409348D01*
X97844048Y-100409351D01*
X97847791Y-100474263D01*
X97848000Y-100481516D01*
X97848000Y-101335634D01*
X97854755Y-101397816D01*
X97905885Y-101534205D01*
X97979130Y-101631935D01*
X98003978Y-101698441D01*
X97988925Y-101767824D01*
X97979132Y-101783062D01*
X97905885Y-101880795D01*
X97854755Y-102017184D01*
X97848000Y-102079366D01*
X97848000Y-102897719D01*
X97847287Y-102911107D01*
X97843751Y-102944195D01*
X97844048Y-102949348D01*
X97844048Y-102949351D01*
X97847791Y-103014263D01*
X97848000Y-103021516D01*
X97848000Y-103875634D01*
X97854755Y-103937816D01*
X97905885Y-104074205D01*
X97940578Y-104120496D01*
X97979442Y-104172352D01*
X98004290Y-104238858D01*
X97989237Y-104308241D01*
X97979442Y-104323482D01*
X97911714Y-104413851D01*
X97903176Y-104429446D01*
X97858022Y-104549894D01*
X97854395Y-104565149D01*
X97848869Y-104616014D01*
X97848500Y-104622828D01*
X97848500Y-105245385D01*
X97852975Y-105260624D01*
X97854365Y-105261829D01*
X97862048Y-105263500D01*
X102263577Y-105263500D01*
X102331698Y-105283502D01*
X102352672Y-105300405D01*
X103106095Y-106053828D01*
X103140121Y-106116140D01*
X103143000Y-106142923D01*
X103143000Y-109832558D01*
X103122998Y-109900679D01*
X103069342Y-109947172D01*
X103028857Y-109957999D01*
X103016661Y-109959152D01*
X102992443Y-109961441D01*
X102980586Y-109962000D01*
X102491000Y-109962000D01*
X102422879Y-109941998D01*
X102376386Y-109888342D01*
X102365000Y-109836000D01*
X102365000Y-109699366D01*
X102358245Y-109637184D01*
X102307115Y-109500795D01*
X102233870Y-109403064D01*
X102209022Y-109336559D01*
X102224075Y-109267176D01*
X102233870Y-109251935D01*
X102270501Y-109203059D01*
X102307115Y-109154205D01*
X102358245Y-109017816D01*
X102365000Y-108955634D01*
X102365000Y-107159366D01*
X102358245Y-107097184D01*
X102307115Y-106960795D01*
X102233558Y-106862648D01*
X102208710Y-106796142D01*
X102223763Y-106726759D01*
X102233558Y-106711518D01*
X102301286Y-106621149D01*
X102309824Y-106605554D01*
X102354978Y-106485106D01*
X102358605Y-106469851D01*
X102364131Y-106418986D01*
X102364500Y-106412172D01*
X102364500Y-105789615D01*
X102360025Y-105774376D01*
X102358635Y-105773171D01*
X102350952Y-105771500D01*
X97866616Y-105771500D01*
X97851377Y-105775975D01*
X97850172Y-105777365D01*
X97848501Y-105785048D01*
X97848501Y-106412169D01*
X97848871Y-106418990D01*
X97854395Y-106469852D01*
X97858021Y-106485104D01*
X97903176Y-106605554D01*
X97911714Y-106621149D01*
X97979442Y-106711518D01*
X98004290Y-106778025D01*
X97989237Y-106847407D01*
X97979442Y-106862648D01*
X97905885Y-106960795D01*
X97854755Y-107097184D01*
X97848000Y-107159366D01*
X97848000Y-107977719D01*
X97847287Y-107991107D01*
X97843751Y-108024195D01*
X97844048Y-108029348D01*
X97844048Y-108029351D01*
X97847791Y-108094263D01*
X97848000Y-108101516D01*
X97848000Y-108955634D01*
X97854755Y-109017816D01*
X97905885Y-109154205D01*
X97942499Y-109203059D01*
X97979130Y-109251935D01*
X98003978Y-109318441D01*
X97988925Y-109387824D01*
X97979132Y-109403062D01*
X97905885Y-109500795D01*
X97854755Y-109637184D01*
X97848000Y-109699366D01*
X97848000Y-110517719D01*
X97847287Y-110531107D01*
X97843751Y-110564195D01*
X97844048Y-110569348D01*
X97844048Y-110569351D01*
X97847791Y-110634263D01*
X97848000Y-110641516D01*
X97848000Y-111495634D01*
X97854755Y-111557816D01*
X97905885Y-111694205D01*
X97979130Y-111791935D01*
X98003978Y-111858441D01*
X97988925Y-111927824D01*
X97979132Y-111943062D01*
X97905885Y-112040795D01*
X97854755Y-112177184D01*
X97848000Y-112239366D01*
X97848000Y-113057719D01*
X97847287Y-113071107D01*
X97843751Y-113104195D01*
X97844048Y-113109348D01*
X97844048Y-113109351D01*
X97847791Y-113174263D01*
X97848000Y-113181516D01*
X97848000Y-114035634D01*
X97854755Y-114097816D01*
X97905885Y-114234205D01*
X97979130Y-114331935D01*
X98003978Y-114398441D01*
X97988925Y-114467824D01*
X97979132Y-114483062D01*
X97905885Y-114580795D01*
X97854755Y-114717184D01*
X97848000Y-114779366D01*
X97848000Y-115597719D01*
X97847287Y-115611107D01*
X97843751Y-115644195D01*
X97844048Y-115649348D01*
X97844048Y-115649351D01*
X97847791Y-115714263D01*
X97848000Y-115721516D01*
X97848000Y-116575634D01*
X97854755Y-116637816D01*
X97905885Y-116774205D01*
X97935386Y-116813568D01*
X97979442Y-116872352D01*
X98004290Y-116938858D01*
X97989237Y-117008241D01*
X97979442Y-117023482D01*
X97911714Y-117113851D01*
X97903176Y-117129446D01*
X97858022Y-117249894D01*
X97854395Y-117265149D01*
X97848869Y-117316014D01*
X97848500Y-117322828D01*
X97848500Y-117945385D01*
X97852975Y-117960624D01*
X97854365Y-117961829D01*
X97862048Y-117963500D01*
X102346384Y-117963500D01*
X102361623Y-117959025D01*
X102362828Y-117957635D01*
X102364499Y-117949952D01*
X102364499Y-117322831D01*
X102364129Y-117316010D01*
X102358605Y-117265148D01*
X102354979Y-117249896D01*
X102309824Y-117129446D01*
X102301286Y-117113851D01*
X102233558Y-117023482D01*
X102208710Y-116956975D01*
X102223763Y-116887593D01*
X102233558Y-116872352D01*
X102277614Y-116813568D01*
X102307115Y-116774205D01*
X102358245Y-116637816D01*
X102365000Y-116575634D01*
X102365000Y-114779366D01*
X102358245Y-114717184D01*
X102307115Y-114580795D01*
X102233870Y-114483064D01*
X102209022Y-114416559D01*
X102224075Y-114347176D01*
X102233870Y-114331935D01*
X102307115Y-114234205D01*
X102358245Y-114097816D01*
X102365000Y-114035634D01*
X102365000Y-112239366D01*
X102358245Y-112177184D01*
X102307115Y-112040795D01*
X102233870Y-111943064D01*
X102209022Y-111876559D01*
X102224075Y-111807176D01*
X102233870Y-111791935D01*
X102307115Y-111694205D01*
X102358245Y-111557816D01*
X102365000Y-111495634D01*
X102365000Y-111359000D01*
X102385002Y-111290879D01*
X102438658Y-111244386D01*
X102491000Y-111233000D01*
X102701078Y-111233000D01*
X102769199Y-111253002D01*
X102790173Y-111269905D01*
X104884095Y-113363827D01*
X104918121Y-113426139D01*
X104921000Y-113452922D01*
X104921000Y-133632480D01*
X104920470Y-133643714D01*
X104918792Y-133651219D01*
X104919041Y-133659138D01*
X104920938Y-133719512D01*
X104921000Y-133723469D01*
X104921000Y-133751483D01*
X104921496Y-133755408D01*
X104921496Y-133755409D01*
X104921508Y-133755504D01*
X104922441Y-133767349D01*
X104923835Y-133811705D01*
X104926047Y-133819317D01*
X104929513Y-133831248D01*
X104933523Y-133850612D01*
X104936073Y-133870799D01*
X104938989Y-133878163D01*
X104938990Y-133878168D01*
X104952407Y-133912056D01*
X104956252Y-133923285D01*
X104968631Y-133965893D01*
X104972669Y-133972720D01*
X104972670Y-133972723D01*
X104978988Y-133983406D01*
X104987688Y-134001164D01*
X104992261Y-134012715D01*
X104992265Y-134012721D01*
X104995181Y-134020088D01*
X104999839Y-134026499D01*
X104999840Y-134026501D01*
X105021264Y-134055988D01*
X105027781Y-134065910D01*
X105046326Y-134097268D01*
X105046329Y-134097272D01*
X105050366Y-134104098D01*
X105064750Y-134118482D01*
X105077591Y-134133516D01*
X105089558Y-134149987D01*
X105095666Y-134155040D01*
X105123755Y-134178277D01*
X105132535Y-134186267D01*
X106662095Y-135715828D01*
X106696121Y-135778140D01*
X106699000Y-135804923D01*
X106699000Y-136525329D01*
X106693549Y-136543894D01*
X106696701Y-136549994D01*
X106699000Y-136573955D01*
X106699000Y-144808480D01*
X106698471Y-144819708D01*
X106696792Y-144827219D01*
X106696947Y-144832154D01*
X106694055Y-144839398D01*
X106697938Y-144863689D01*
X106698938Y-144895512D01*
X106699000Y-144899469D01*
X106699000Y-144927483D01*
X106699496Y-144931408D01*
X106699496Y-144931409D01*
X106699508Y-144931504D01*
X106700441Y-144943349D01*
X106701835Y-144987705D01*
X106704047Y-144995317D01*
X106707513Y-145007248D01*
X106711523Y-145026612D01*
X106714073Y-145046799D01*
X106716989Y-145054163D01*
X106716990Y-145054168D01*
X106730407Y-145088056D01*
X106734252Y-145099285D01*
X106746631Y-145141893D01*
X106750669Y-145148720D01*
X106750670Y-145148723D01*
X106756988Y-145159406D01*
X106765688Y-145177164D01*
X106770261Y-145188715D01*
X106770265Y-145188721D01*
X106773181Y-145196088D01*
X106777839Y-145202499D01*
X106777840Y-145202501D01*
X106799264Y-145231988D01*
X106805781Y-145241910D01*
X106824326Y-145273268D01*
X106824329Y-145273272D01*
X106828366Y-145280098D01*
X106842750Y-145294482D01*
X106855591Y-145309516D01*
X106867558Y-145325987D01*
X106873666Y-145331040D01*
X106901755Y-145354277D01*
X106910535Y-145362267D01*
X107932095Y-146383827D01*
X107966121Y-146446139D01*
X107969000Y-146472922D01*
X107969000Y-147313000D01*
X107948998Y-147381121D01*
X107895342Y-147427614D01*
X107843000Y-147439000D01*
X107806366Y-147439000D01*
X107744184Y-147445755D01*
X107607795Y-147496885D01*
X107491239Y-147584239D01*
X107403885Y-147700795D01*
X107352755Y-147837184D01*
X107346000Y-147899366D01*
X107346000Y-148776077D01*
X107325998Y-148844198D01*
X107272342Y-148890691D01*
X107202068Y-148900795D01*
X107137488Y-148871301D01*
X107130905Y-148865172D01*
X106482905Y-148217172D01*
X106448879Y-148154860D01*
X106446000Y-148128077D01*
X106446000Y-144867646D01*
X106451445Y-144849104D01*
X106448299Y-144843016D01*
X106446000Y-144819056D01*
X106446000Y-136584532D01*
X106446530Y-136573293D01*
X106448209Y-136565781D01*
X106448054Y-136560855D01*
X106450949Y-136553604D01*
X106447062Y-136529287D01*
X106446062Y-136497470D01*
X106446000Y-136493512D01*
X106446000Y-136465517D01*
X106445492Y-136461494D01*
X106444559Y-136449652D01*
X106443505Y-136416099D01*
X106443165Y-136405295D01*
X106437487Y-136385751D01*
X106433477Y-136366388D01*
X106431920Y-136354060D01*
X106431920Y-136354058D01*
X106430927Y-136346201D01*
X106428011Y-136338837D01*
X106428010Y-136338832D01*
X106414593Y-136304944D01*
X106410748Y-136293715D01*
X106400581Y-136258722D01*
X106398369Y-136251107D01*
X106394330Y-136244277D01*
X106388012Y-136233594D01*
X106379312Y-136215836D01*
X106374739Y-136204285D01*
X106374735Y-136204279D01*
X106371819Y-136196912D01*
X106356281Y-136175525D01*
X106345736Y-136161012D01*
X106339219Y-136151090D01*
X106320674Y-136119732D01*
X106320671Y-136119728D01*
X106316634Y-136112902D01*
X106302250Y-136098518D01*
X106289409Y-136083484D01*
X106282102Y-136073427D01*
X106277442Y-136067013D01*
X106243244Y-136038722D01*
X106234465Y-136030733D01*
X103267750Y-133064017D01*
X103260174Y-133055691D01*
X103256053Y-133049197D01*
X103206234Y-133002414D01*
X103203393Y-132999660D01*
X103183594Y-132979861D01*
X103180469Y-132977437D01*
X103180460Y-132977429D01*
X103180374Y-132977363D01*
X103171349Y-132969655D01*
X103144785Y-132944710D01*
X103139006Y-132939283D01*
X103121169Y-132929477D01*
X103104653Y-132918627D01*
X103088567Y-132906150D01*
X103047834Y-132888524D01*
X103037186Y-132883307D01*
X103017042Y-132872233D01*
X102998303Y-132861931D01*
X102990628Y-132859960D01*
X102990622Y-132859958D01*
X102978589Y-132856869D01*
X102959887Y-132850466D01*
X102941208Y-132842383D01*
X102907372Y-132837024D01*
X102897373Y-132835440D01*
X102885760Y-132833035D01*
X102842782Y-132822000D01*
X102822435Y-132822000D01*
X102802724Y-132820449D01*
X102790450Y-132818505D01*
X102782621Y-132817265D01*
X102774729Y-132818011D01*
X102738444Y-132821441D01*
X102726586Y-132822000D01*
X102491000Y-132822000D01*
X102422879Y-132801998D01*
X102376386Y-132748342D01*
X102365000Y-132696000D01*
X102365000Y-132559366D01*
X102358245Y-132497184D01*
X102307115Y-132360795D01*
X102233558Y-132262648D01*
X102208710Y-132196142D01*
X102223763Y-132126759D01*
X102233558Y-132111518D01*
X102301286Y-132021149D01*
X102309824Y-132005554D01*
X102354978Y-131885106D01*
X102358605Y-131869851D01*
X102364131Y-131818986D01*
X102364500Y-131812172D01*
X102364500Y-131189615D01*
X102360025Y-131174376D01*
X102358635Y-131173171D01*
X102350952Y-131171500D01*
X97866616Y-131171500D01*
X97851377Y-131175975D01*
X97850172Y-131177365D01*
X97848501Y-131185048D01*
X97848501Y-131812169D01*
X97848871Y-131818990D01*
X97854395Y-131869852D01*
X97858021Y-131885104D01*
X97903176Y-132005554D01*
X97911714Y-132021149D01*
X97979442Y-132111518D01*
X98004290Y-132178025D01*
X97989237Y-132247407D01*
X97979442Y-132262648D01*
X97905885Y-132360795D01*
X97854755Y-132497184D01*
X97848000Y-132559366D01*
X97848000Y-133377719D01*
X97847287Y-133391107D01*
X97843751Y-133424195D01*
X97844048Y-133429348D01*
X97844048Y-133429351D01*
X97847791Y-133494263D01*
X97848000Y-133501516D01*
X97848000Y-134355634D01*
X97854755Y-134417816D01*
X97905885Y-134554205D01*
X97911271Y-134561391D01*
X97979130Y-134651935D01*
X98003978Y-134718441D01*
X97988925Y-134787824D01*
X97979132Y-134803062D01*
X97905885Y-134900795D01*
X97854755Y-135037184D01*
X97848000Y-135099366D01*
X97848000Y-135917719D01*
X97847287Y-135931107D01*
X97843751Y-135964195D01*
X97844048Y-135969348D01*
X97844048Y-135969351D01*
X97847791Y-136034263D01*
X97848000Y-136041516D01*
X97848000Y-136895634D01*
X97854755Y-136957816D01*
X97905885Y-137094205D01*
X97979130Y-137191935D01*
X98003978Y-137258441D01*
X97988925Y-137327824D01*
X97979132Y-137343062D01*
X97905885Y-137440795D01*
X97854755Y-137577184D01*
X97848000Y-137639366D01*
X97848000Y-138457719D01*
X97847287Y-138471107D01*
X97843751Y-138504195D01*
X97844048Y-138509348D01*
X97844048Y-138509351D01*
X97847791Y-138574263D01*
X97848000Y-138581516D01*
X97848000Y-139435634D01*
X97854755Y-139497816D01*
X97905885Y-139634205D01*
X97911271Y-139641391D01*
X97979130Y-139731935D01*
X98003978Y-139798441D01*
X97988925Y-139867824D01*
X97979132Y-139883062D01*
X97905885Y-139980795D01*
X97854755Y-140117184D01*
X97848000Y-140179366D01*
X97848000Y-140997719D01*
X97847287Y-141011107D01*
X97843751Y-141044195D01*
X82786918Y-141044195D01*
X82785424Y-141026024D01*
X82785000Y-141015700D01*
X82785000Y-140487147D01*
X82805002Y-140419026D01*
X82864602Y-140370001D01*
X82869187Y-140368185D01*
X82876650Y-140365498D01*
X82922694Y-140350538D01*
X82922697Y-140350537D01*
X82930233Y-140348088D01*
X82936920Y-140343845D01*
X82936923Y-140343843D01*
X82937242Y-140343640D01*
X82958372Y-140332874D01*
X82966088Y-140329819D01*
X83011679Y-140296696D01*
X83018223Y-140292249D01*
X83059104Y-140266305D01*
X83059107Y-140266302D01*
X83065803Y-140262053D01*
X83071483Y-140256004D01*
X83089276Y-140240318D01*
X83089573Y-140240102D01*
X83095987Y-140235442D01*
X83131906Y-140192023D01*
X83137136Y-140186092D01*
X83170291Y-140150784D01*
X83175717Y-140145006D01*
X83179716Y-140137732D01*
X83193044Y-140118121D01*
X83193278Y-140117838D01*
X83193281Y-140117834D01*
X83198335Y-140111724D01*
X83222328Y-140060736D01*
X83225910Y-140053704D01*
X83253069Y-140004303D01*
X83255133Y-139996265D01*
X83263166Y-139973952D01*
X83263324Y-139973616D01*
X83263325Y-139973613D01*
X83266700Y-139966441D01*
X83277259Y-139911088D01*
X83278986Y-139903363D01*
X83291028Y-139856461D01*
X83293000Y-139848782D01*
X83293000Y-139840483D01*
X83295232Y-139816874D01*
X83295302Y-139816509D01*
X83295302Y-139816504D01*
X83296787Y-139808721D01*
X83293249Y-139752486D01*
X83293000Y-139744575D01*
X83293000Y-138637922D01*
X83313002Y-138569801D01*
X83329905Y-138548827D01*
X95368827Y-126509905D01*
X95431139Y-126475879D01*
X95457922Y-126473000D01*
X97722000Y-126473000D01*
X97790121Y-126493002D01*
X97836614Y-126546658D01*
X97848000Y-126599000D01*
X97848000Y-126735634D01*
X97854755Y-126797816D01*
X97905885Y-126934205D01*
X97975776Y-127027460D01*
X97979130Y-127031935D01*
X98003978Y-127098441D01*
X97988925Y-127167824D01*
X97979132Y-127183062D01*
X97905885Y-127280795D01*
X97854755Y-127417184D01*
X97848000Y-127479366D01*
X97848000Y-128297719D01*
X97847287Y-128311107D01*
X97843751Y-128344195D01*
X97844048Y-128349348D01*
X97844048Y-128349351D01*
X97847791Y-128414263D01*
X97848000Y-128421516D01*
X97848000Y-129275634D01*
X97854755Y-129337816D01*
X97905885Y-129474205D01*
X97911271Y-129481391D01*
X97979442Y-129572352D01*
X98004290Y-129638858D01*
X97989237Y-129708241D01*
X97979442Y-129723482D01*
X97911714Y-129813851D01*
X97903176Y-129829446D01*
X97858022Y-129949894D01*
X97854395Y-129965149D01*
X97848869Y-130016014D01*
X97848500Y-130022828D01*
X97848500Y-130645385D01*
X97852975Y-130660624D01*
X97854365Y-130661829D01*
X97862048Y-130663500D01*
X102346384Y-130663500D01*
X102361623Y-130659025D01*
X102362828Y-130657635D01*
X102364499Y-130649952D01*
X102364499Y-130022831D01*
X102364129Y-130016010D01*
X102358605Y-129965148D01*
X102354979Y-129949896D01*
X102309824Y-129829446D01*
X102301286Y-129813851D01*
X102233558Y-129723482D01*
X102208710Y-129656975D01*
X102223763Y-129587593D01*
X102233558Y-129572352D01*
X102301729Y-129481391D01*
X102307115Y-129474205D01*
X102358245Y-129337816D01*
X102365000Y-129275634D01*
X102365000Y-127479366D01*
X102358245Y-127417184D01*
X102307115Y-127280795D01*
X102233870Y-127183064D01*
X102209022Y-127116559D01*
X102224075Y-127047176D01*
X102233870Y-127031935D01*
X102237224Y-127027460D01*
X102307115Y-126934205D01*
X102358245Y-126797816D01*
X102365000Y-126735634D01*
X102365000Y-124939366D01*
X102358245Y-124877184D01*
X102307115Y-124740795D01*
X102233870Y-124643064D01*
X102209022Y-124576559D01*
X102224075Y-124507176D01*
X102233870Y-124491935D01*
X102301729Y-124401391D01*
X102307115Y-124394205D01*
X102358245Y-124257816D01*
X102365000Y-124195634D01*
X102365000Y-122399366D01*
X102358245Y-122337184D01*
X102307115Y-122200795D01*
X102233870Y-122103064D01*
X102209022Y-122036559D01*
X102224075Y-121967176D01*
X102233870Y-121951935D01*
X102307115Y-121854205D01*
X102358245Y-121717816D01*
X102365000Y-121655634D01*
X102365000Y-119859366D01*
X102358245Y-119797184D01*
X102307115Y-119660795D01*
X102233558Y-119562648D01*
X102208710Y-119496142D01*
X102223763Y-119426759D01*
X102233558Y-119411518D01*
X102301286Y-119321149D01*
X102309824Y-119305554D01*
X102354978Y-119185106D01*
X102358605Y-119169851D01*
X102364131Y-119118986D01*
X102364500Y-119112172D01*
X102364500Y-118489615D01*
X102360025Y-118474376D01*
X102358635Y-118473171D01*
X102350952Y-118471500D01*
X97866616Y-118471500D01*
X97851377Y-118475975D01*
X97850172Y-118477365D01*
X97848501Y-118485048D01*
X97848501Y-119112169D01*
X97848871Y-119118990D01*
X97854395Y-119169852D01*
X97858021Y-119185104D01*
X97903176Y-119305554D01*
X97911714Y-119321149D01*
X97979442Y-119411518D01*
X98004290Y-119478025D01*
X97989237Y-119547407D01*
X97979442Y-119562648D01*
X97905885Y-119660795D01*
X97854755Y-119797184D01*
X97848000Y-119859366D01*
X97848000Y-120677719D01*
X97847287Y-120691107D01*
X97843751Y-120724195D01*
X97844048Y-120729348D01*
X97844048Y-120729351D01*
X97847791Y-120794263D01*
X97848000Y-120801516D01*
X97848000Y-121655634D01*
X97854755Y-121717816D01*
X97905885Y-121854205D01*
X97979130Y-121951935D01*
X98003978Y-122018441D01*
X97988925Y-122087824D01*
X97979132Y-122103062D01*
X97905885Y-122200795D01*
X97854755Y-122337184D01*
X97848000Y-122399366D01*
X97848000Y-123217719D01*
X97847287Y-123231107D01*
X97843751Y-123264195D01*
X97844048Y-123269348D01*
X97844048Y-123269351D01*
X97847791Y-123334263D01*
X97848000Y-123341516D01*
X97848000Y-124195634D01*
X97854755Y-124257816D01*
X97905885Y-124394205D01*
X97911271Y-124401391D01*
X97979130Y-124491935D01*
X98003978Y-124558441D01*
X97988925Y-124627824D01*
X97979132Y-124643062D01*
X97905885Y-124740795D01*
X97854755Y-124877184D01*
X97848000Y-124939366D01*
X97848000Y-125076000D01*
X97827998Y-125144121D01*
X97774342Y-125190614D01*
X97722000Y-125202000D01*
X95221520Y-125202000D01*
X95210291Y-125201471D01*
X95202781Y-125199792D01*
X95194855Y-125200041D01*
X95194854Y-125200041D01*
X95134502Y-125201938D01*
X95130544Y-125202000D01*
X95102517Y-125202000D01*
X95098471Y-125202511D01*
X95086643Y-125203442D01*
X95042295Y-125204836D01*
X95034677Y-125207049D01*
X95034678Y-125207049D01*
X95022754Y-125210513D01*
X95003394Y-125214522D01*
X94991066Y-125216079D01*
X94991063Y-125216080D01*
X94983201Y-125217073D01*
X94975835Y-125219990D01*
X94975829Y-125219991D01*
X94941939Y-125233409D01*
X94930712Y-125237253D01*
X94888107Y-125249631D01*
X94881288Y-125253664D01*
X94881283Y-125253666D01*
X94870591Y-125259990D01*
X94852841Y-125268687D01*
X94833912Y-125276181D01*
X94827496Y-125280842D01*
X94827495Y-125280843D01*
X94798019Y-125302259D01*
X94788095Y-125308778D01*
X94756724Y-125327330D01*
X94756719Y-125327334D01*
X94749901Y-125331366D01*
X94735514Y-125345753D01*
X94720480Y-125358594D01*
X94704013Y-125370558D01*
X94698960Y-125376666D01*
X94675728Y-125404749D01*
X94667738Y-125413529D01*
X82982441Y-137098826D01*
X82920129Y-137132852D01*
X82849314Y-137127787D01*
X82792478Y-137085240D01*
X82767667Y-137018720D01*
X82774272Y-136973049D01*
X82773644Y-136972900D01*
X82775303Y-136965923D01*
X82775364Y-136965501D01*
X82775471Y-136965215D01*
X82778245Y-136957816D01*
X82785000Y-136895634D01*
X82785000Y-136095356D01*
X82786078Y-136078909D01*
X82787592Y-136067408D01*
X82788029Y-136064090D01*
X82789656Y-135997500D01*
X82785424Y-135946024D01*
X82785000Y-135935700D01*
X82785000Y-135099366D01*
X82778245Y-135037184D01*
X82727115Y-134900795D01*
X82653870Y-134803064D01*
X82629022Y-134736559D01*
X82644075Y-134667176D01*
X82653870Y-134651935D01*
X82721729Y-134561391D01*
X82727115Y-134554205D01*
X82778245Y-134417816D01*
X82785000Y-134355634D01*
X82785000Y-133555356D01*
X82786078Y-133538909D01*
X82787592Y-133527408D01*
X82788029Y-133524090D01*
X82789656Y-133457500D01*
X82785424Y-133406024D01*
X82785000Y-133395700D01*
X82785000Y-132559366D01*
X82778245Y-132497184D01*
X82727115Y-132360795D01*
X82653558Y-132262648D01*
X82628710Y-132196142D01*
X82643763Y-132126759D01*
X82653558Y-132111518D01*
X82721286Y-132021149D01*
X82729824Y-132005554D01*
X82774978Y-131885106D01*
X82778605Y-131869851D01*
X82784131Y-131818986D01*
X82784500Y-131812172D01*
X82784500Y-131189615D01*
X82780025Y-131174376D01*
X82778635Y-131173171D01*
X82770952Y-131171500D01*
X78286616Y-131171500D01*
X78271377Y-131175975D01*
X78270172Y-131177365D01*
X78268501Y-131185048D01*
X78268501Y-131812169D01*
X78268871Y-131818990D01*
X78274395Y-131869852D01*
X78278021Y-131885104D01*
X78323176Y-132005554D01*
X78331714Y-132021149D01*
X78399442Y-132111518D01*
X78424290Y-132178025D01*
X78409237Y-132247407D01*
X78399442Y-132262648D01*
X78325885Y-132360795D01*
X78274755Y-132497184D01*
X78268000Y-132559366D01*
X78268000Y-134355634D01*
X78274755Y-134417816D01*
X78325885Y-134554205D01*
X78331271Y-134561391D01*
X78399130Y-134651935D01*
X78423978Y-134718441D01*
X78408925Y-134787824D01*
X78399132Y-134803062D01*
X78325885Y-134900795D01*
X78274755Y-135037184D01*
X78268000Y-135099366D01*
X78268000Y-136895634D01*
X78274755Y-136957816D01*
X78325885Y-137094205D01*
X78399130Y-137191935D01*
X78423978Y-137258441D01*
X78408925Y-137327824D01*
X78399132Y-137343062D01*
X78325885Y-137440795D01*
X78274755Y-137577184D01*
X78268000Y-137639366D01*
X78268000Y-139007000D01*
X78247998Y-139075121D01*
X78194342Y-139121614D01*
X78142000Y-139133000D01*
X77972532Y-139133000D01*
X77961293Y-139132470D01*
X77953781Y-139130791D01*
X77945856Y-139131040D01*
X77945855Y-139131040D01*
X77885470Y-139132938D01*
X77881512Y-139133000D01*
X77853517Y-139133000D01*
X77849583Y-139133497D01*
X77849581Y-139133497D01*
X77849494Y-139133508D01*
X77837660Y-139134440D01*
X77793295Y-139135835D01*
X77785682Y-139138047D01*
X77785681Y-139138047D01*
X77773752Y-139141513D01*
X77754388Y-139145523D01*
X77742060Y-139147080D01*
X77742058Y-139147080D01*
X77734201Y-139148073D01*
X77726837Y-139150989D01*
X77726832Y-139150990D01*
X77692944Y-139164407D01*
X77681715Y-139168252D01*
X77665035Y-139173098D01*
X77639107Y-139180631D01*
X77632280Y-139184669D01*
X77632277Y-139184670D01*
X77621594Y-139190988D01*
X77603836Y-139199688D01*
X77592285Y-139204261D01*
X77592279Y-139204265D01*
X77584912Y-139207181D01*
X77578501Y-139211839D01*
X77578499Y-139211840D01*
X77549012Y-139233264D01*
X77539090Y-139239781D01*
X77507732Y-139258326D01*
X77507728Y-139258329D01*
X77500902Y-139262366D01*
X77486518Y-139276750D01*
X77471484Y-139289591D01*
X77455013Y-139301558D01*
X77449960Y-139307666D01*
X77426723Y-139335755D01*
X77418733Y-139344535D01*
X74330679Y-142432588D01*
X74268367Y-142466614D01*
X74212170Y-142466012D01*
X73996024Y-142414120D01*
X73996018Y-142414119D01*
X73991211Y-142412965D01*
X73754500Y-142394335D01*
X73517789Y-142412965D01*
X73512982Y-142414119D01*
X73512976Y-142414120D01*
X73408291Y-142439253D01*
X73286906Y-142468395D01*
X73282335Y-142470288D01*
X73282333Y-142470289D01*
X73072111Y-142557365D01*
X73072107Y-142557367D01*
X73067537Y-142559260D01*
X73063317Y-142561846D01*
X72869298Y-142680741D01*
X72869292Y-142680745D01*
X72865084Y-142683324D01*
X72684531Y-142837531D01*
X72530324Y-143018084D01*
X72525837Y-143025407D01*
X72411593Y-143211835D01*
X72358945Y-143259466D01*
X72304160Y-143272000D01*
X68704840Y-143272000D01*
X68636719Y-143251998D01*
X68597407Y-143211835D01*
X68483164Y-143025407D01*
X68478676Y-143018084D01*
X68324469Y-142837531D01*
X68143916Y-142683324D01*
X68139708Y-142680745D01*
X68139702Y-142680741D01*
X67945683Y-142561846D01*
X67941463Y-142559260D01*
X67936893Y-142557367D01*
X67936889Y-142557365D01*
X67726667Y-142470289D01*
X67726665Y-142470288D01*
X67722094Y-142468395D01*
X67600709Y-142439253D01*
X67496024Y-142414120D01*
X67496018Y-142414119D01*
X67491211Y-142412965D01*
X67254500Y-142394335D01*
X67017789Y-142412965D01*
X67012982Y-142414119D01*
X67012976Y-142414120D01*
X66908291Y-142439253D01*
X66786906Y-142468395D01*
X66782335Y-142470288D01*
X66782333Y-142470289D01*
X66572111Y-142557365D01*
X66572107Y-142557367D01*
X66567537Y-142559260D01*
X66563317Y-142561846D01*
X66369298Y-142680741D01*
X66369292Y-142680745D01*
X66365084Y-142683324D01*
X66184531Y-142837531D01*
X66030324Y-143018084D01*
X66027745Y-143022292D01*
X66027741Y-143022298D01*
X66025836Y-143025407D01*
X65906260Y-143220537D01*
X65904367Y-143225107D01*
X65904365Y-143225111D01*
X65848897Y-143359025D01*
X65815395Y-143439906D01*
X65759965Y-143670789D01*
X65741335Y-143907500D01*
X62631000Y-143907500D01*
X62631000Y-131888603D01*
X62651002Y-131820482D01*
X62704658Y-131773989D01*
X62774932Y-131763885D01*
X62839512Y-131793379D01*
X62854675Y-131809006D01*
X62854970Y-131809368D01*
X62855766Y-131810355D01*
X62885071Y-131847064D01*
X62887268Y-131849816D01*
X62889763Y-131852311D01*
X62890473Y-131853105D01*
X62894193Y-131857460D01*
X62917837Y-131886451D01*
X62917840Y-131886454D01*
X62921732Y-131891226D01*
X62926480Y-131895154D01*
X62926481Y-131895155D01*
X62957373Y-131920711D01*
X62966152Y-131928700D01*
X63909685Y-132872233D01*
X63918786Y-132882375D01*
X63942725Y-132912149D01*
X63981502Y-132944687D01*
X63985129Y-132947851D01*
X63986998Y-132949546D01*
X63989192Y-132951740D01*
X64022758Y-132979312D01*
X64023555Y-132979974D01*
X64095433Y-133040286D01*
X64100139Y-133042873D01*
X64104289Y-133046282D01*
X64109713Y-133049190D01*
X64109723Y-133049197D01*
X64186868Y-133090561D01*
X64188028Y-133091190D01*
X64270121Y-133136321D01*
X64275241Y-133137945D01*
X64279974Y-133140483D01*
X64359216Y-133164710D01*
X64369493Y-133167852D01*
X64370752Y-133168244D01*
X64454261Y-133194735D01*
X64454265Y-133194736D01*
X64460135Y-133196598D01*
X64465473Y-133197197D01*
X64470609Y-133198767D01*
X64476739Y-133199390D01*
X64476741Y-133199390D01*
X64504237Y-133202183D01*
X64563868Y-133208239D01*
X64565008Y-133208361D01*
X64615284Y-133214000D01*
X64618790Y-133214000D01*
X64619916Y-133214063D01*
X64625610Y-133214511D01*
X64662805Y-133218289D01*
X64662811Y-133218289D01*
X64668935Y-133218911D01*
X64714977Y-133214559D01*
X64726834Y-133214000D01*
X67016529Y-133214000D01*
X67084650Y-133234002D01*
X67097013Y-133243055D01*
X67182626Y-133314132D01*
X67375500Y-133426838D01*
X67584192Y-133506530D01*
X67589260Y-133507561D01*
X67589263Y-133507562D01*
X67686810Y-133527408D01*
X67803097Y-133551067D01*
X67808272Y-133551257D01*
X67808274Y-133551257D01*
X68021173Y-133559064D01*
X68021177Y-133559064D01*
X68026337Y-133559253D01*
X68031457Y-133558597D01*
X68031459Y-133558597D01*
X68242788Y-133531525D01*
X68242789Y-133531525D01*
X68247916Y-133530868D01*
X68270508Y-133524090D01*
X68456929Y-133468161D01*
X68456934Y-133468159D01*
X68461884Y-133466674D01*
X68662494Y-133368396D01*
X68844360Y-133238673D01*
X68849048Y-133234002D01*
X68998935Y-133084637D01*
X69002596Y-133080989D01*
X69027536Y-133046282D01*
X69129935Y-132903777D01*
X69132953Y-132899577D01*
X69138413Y-132888531D01*
X69229636Y-132703953D01*
X69229637Y-132703951D01*
X69231930Y-132699311D01*
X69296870Y-132485569D01*
X69326029Y-132264090D01*
X69327656Y-132197500D01*
X69309352Y-131974861D01*
X69254931Y-131758202D01*
X69165854Y-131553340D01*
X69056290Y-131383980D01*
X69047322Y-131370117D01*
X69047320Y-131370114D01*
X69044514Y-131365777D01*
X68894170Y-131200551D01*
X68890119Y-131197352D01*
X68890115Y-131197348D01*
X68722914Y-131065300D01*
X68722910Y-131065298D01*
X68718859Y-131062098D01*
X68677553Y-131039296D01*
X68627584Y-130988864D01*
X68612812Y-130919421D01*
X68637928Y-130853016D01*
X68665280Y-130826409D01*
X68720029Y-130787357D01*
X68844360Y-130698673D01*
X69002596Y-130540989D01*
X69062094Y-130458189D01*
X69129935Y-130363777D01*
X69132953Y-130359577D01*
X69231930Y-130159311D01*
X69290921Y-129965149D01*
X69295365Y-129950523D01*
X69295365Y-129950521D01*
X69296870Y-129945569D01*
X69326029Y-129724090D01*
X69326416Y-129708241D01*
X69327574Y-129660865D01*
X69327574Y-129660861D01*
X69327656Y-129657500D01*
X69309352Y-129434861D01*
X69281889Y-129325524D01*
X69283862Y-129275634D01*
X78268000Y-129275634D01*
X78274755Y-129337816D01*
X78325885Y-129474205D01*
X78331271Y-129481391D01*
X78399442Y-129572352D01*
X78424290Y-129638858D01*
X78409237Y-129708241D01*
X78399442Y-129723482D01*
X78331714Y-129813851D01*
X78323176Y-129829446D01*
X78278022Y-129949894D01*
X78274395Y-129965149D01*
X78268869Y-130016014D01*
X78268500Y-130022828D01*
X78268500Y-130645385D01*
X78272975Y-130660624D01*
X78274365Y-130661829D01*
X78282048Y-130663500D01*
X82766384Y-130663500D01*
X82781623Y-130659025D01*
X82782828Y-130657635D01*
X82784499Y-130649952D01*
X82784499Y-130022831D01*
X82784129Y-130016010D01*
X82778605Y-129965148D01*
X82774979Y-129949896D01*
X82729824Y-129829446D01*
X82721286Y-129813851D01*
X82653558Y-129723482D01*
X82628710Y-129656975D01*
X82643763Y-129587593D01*
X82653558Y-129572352D01*
X82721729Y-129481391D01*
X82727115Y-129474205D01*
X82778245Y-129337816D01*
X82785000Y-129275634D01*
X82785000Y-128475356D01*
X82786078Y-128458909D01*
X82787592Y-128447408D01*
X82788029Y-128444090D01*
X82788758Y-128414263D01*
X82789574Y-128380865D01*
X82789574Y-128380861D01*
X82789656Y-128377500D01*
X82785424Y-128326024D01*
X82785000Y-128315700D01*
X82785000Y-127479366D01*
X82778245Y-127417184D01*
X82727115Y-127280795D01*
X82653870Y-127183064D01*
X82629022Y-127116559D01*
X82644075Y-127047176D01*
X82653870Y-127031935D01*
X82657224Y-127027460D01*
X82727115Y-126934205D01*
X82778245Y-126797816D01*
X82785000Y-126735634D01*
X82785000Y-125935356D01*
X82786078Y-125918909D01*
X82787592Y-125907408D01*
X82788029Y-125904090D01*
X82788373Y-125890019D01*
X82789574Y-125840865D01*
X82789574Y-125840861D01*
X82789656Y-125837500D01*
X82785424Y-125786024D01*
X82785000Y-125775700D01*
X82785000Y-124939366D01*
X82778245Y-124877184D01*
X82727115Y-124740795D01*
X82653870Y-124643064D01*
X82629022Y-124576559D01*
X82644075Y-124507176D01*
X82653870Y-124491935D01*
X82721729Y-124401391D01*
X82727115Y-124394205D01*
X82778245Y-124257816D01*
X82785000Y-124195634D01*
X82785000Y-123395356D01*
X82786078Y-123378909D01*
X82787592Y-123367408D01*
X82788029Y-123364090D01*
X82789656Y-123297500D01*
X82785424Y-123246024D01*
X82785000Y-123235700D01*
X82785000Y-122399366D01*
X82778245Y-122337184D01*
X82727115Y-122200795D01*
X82653870Y-122103064D01*
X82629022Y-122036559D01*
X82644075Y-121967176D01*
X82653870Y-121951935D01*
X82727115Y-121854205D01*
X82778245Y-121717816D01*
X82785000Y-121655634D01*
X82785000Y-120855356D01*
X82786078Y-120838909D01*
X82787270Y-120829855D01*
X82788029Y-120824090D01*
X82788973Y-120785450D01*
X82789574Y-120760865D01*
X82789574Y-120760861D01*
X82789656Y-120757500D01*
X82785424Y-120706024D01*
X82785000Y-120695700D01*
X82785000Y-119859366D01*
X82778245Y-119797184D01*
X82727115Y-119660795D01*
X82653558Y-119562648D01*
X82628710Y-119496142D01*
X82643763Y-119426759D01*
X82653558Y-119411518D01*
X82721286Y-119321149D01*
X82729824Y-119305554D01*
X82774978Y-119185106D01*
X82778605Y-119169851D01*
X82784131Y-119118986D01*
X82784500Y-119112172D01*
X82784500Y-118489615D01*
X82780025Y-118474376D01*
X82778635Y-118473171D01*
X82770952Y-118471500D01*
X78286616Y-118471500D01*
X78271377Y-118475975D01*
X78270172Y-118477365D01*
X78268501Y-118485048D01*
X78268501Y-119112169D01*
X78268871Y-119118990D01*
X78274395Y-119169852D01*
X78278021Y-119185104D01*
X78323176Y-119305554D01*
X78331714Y-119321149D01*
X78399442Y-119411518D01*
X78424290Y-119478025D01*
X78409237Y-119547407D01*
X78399442Y-119562648D01*
X78325885Y-119660795D01*
X78274755Y-119797184D01*
X78268000Y-119859366D01*
X78268000Y-121655634D01*
X78274755Y-121717816D01*
X78325885Y-121854205D01*
X78399130Y-121951935D01*
X78423978Y-122018441D01*
X78408925Y-122087824D01*
X78399132Y-122103062D01*
X78325885Y-122200795D01*
X78274755Y-122337184D01*
X78268000Y-122399366D01*
X78268000Y-124195634D01*
X78274755Y-124257816D01*
X78325885Y-124394205D01*
X78331271Y-124401391D01*
X78399130Y-124491935D01*
X78423978Y-124558441D01*
X78408925Y-124627824D01*
X78399132Y-124643062D01*
X78325885Y-124740795D01*
X78274755Y-124877184D01*
X78268000Y-124939366D01*
X78268000Y-126735634D01*
X78274755Y-126797816D01*
X78325885Y-126934205D01*
X78395776Y-127027460D01*
X78399130Y-127031935D01*
X78423978Y-127098441D01*
X78408925Y-127167824D01*
X78399132Y-127183062D01*
X78325885Y-127280795D01*
X78274755Y-127417184D01*
X78268000Y-127479366D01*
X78268000Y-129275634D01*
X69283862Y-129275634D01*
X69284694Y-129254583D01*
X69314998Y-129205734D01*
X71405983Y-127114750D01*
X71414309Y-127107174D01*
X71420803Y-127103053D01*
X71467586Y-127053234D01*
X71470340Y-127050393D01*
X71490139Y-127030594D01*
X71492563Y-127027469D01*
X71492571Y-127027460D01*
X71492637Y-127027374D01*
X71500345Y-127018349D01*
X71525290Y-126991785D01*
X71530717Y-126986006D01*
X71540523Y-126968169D01*
X71551373Y-126951653D01*
X71563850Y-126935567D01*
X71581476Y-126894834D01*
X71586693Y-126884186D01*
X71604249Y-126852251D01*
X71608069Y-126845303D01*
X71610040Y-126837628D01*
X71610042Y-126837622D01*
X71613131Y-126825589D01*
X71619534Y-126806887D01*
X71627617Y-126788208D01*
X71634560Y-126744373D01*
X71636967Y-126732751D01*
X71648000Y-126689782D01*
X71648000Y-126669435D01*
X71649551Y-126649724D01*
X71651495Y-126637450D01*
X71652735Y-126629621D01*
X71648559Y-126585444D01*
X71648000Y-126573586D01*
X71648000Y-120836532D01*
X71648530Y-120825293D01*
X71650209Y-120817781D01*
X71648062Y-120749469D01*
X71648000Y-120745512D01*
X71648000Y-120717517D01*
X71647492Y-120713494D01*
X71646559Y-120701652D01*
X71646535Y-120700867D01*
X71645165Y-120657295D01*
X71639487Y-120637751D01*
X71635477Y-120618388D01*
X71633920Y-120606060D01*
X71633920Y-120606058D01*
X71632927Y-120598201D01*
X71630011Y-120590837D01*
X71630010Y-120590832D01*
X71616593Y-120556944D01*
X71612748Y-120545715D01*
X71602581Y-120510722D01*
X71600369Y-120503107D01*
X71596330Y-120496277D01*
X71590012Y-120485594D01*
X71581312Y-120467836D01*
X71576739Y-120456285D01*
X71576735Y-120456279D01*
X71573819Y-120448912D01*
X71562976Y-120433987D01*
X71556401Y-120424938D01*
X71547734Y-120413009D01*
X71541219Y-120403090D01*
X71522674Y-120371732D01*
X71522671Y-120371728D01*
X71518634Y-120364902D01*
X71504250Y-120350518D01*
X71491409Y-120335484D01*
X71484102Y-120325427D01*
X71479442Y-120319013D01*
X71445250Y-120290727D01*
X71436469Y-120282737D01*
X70922904Y-119769171D01*
X70888879Y-119706859D01*
X70886000Y-119680076D01*
X70886000Y-118514277D01*
X71588277Y-118514277D01*
X71597574Y-118526293D01*
X71640569Y-118556398D01*
X71650055Y-118561876D01*
X71841493Y-118651145D01*
X71851785Y-118654891D01*
X72055809Y-118709559D01*
X72066604Y-118711462D01*
X72277025Y-118729872D01*
X72287975Y-118729872D01*
X72498396Y-118711462D01*
X72509191Y-118709559D01*
X72713215Y-118654891D01*
X72723507Y-118651145D01*
X72914945Y-118561876D01*
X72924431Y-118556398D01*
X72968264Y-118525707D01*
X72976639Y-118515229D01*
X72969571Y-118501781D01*
X72295312Y-117827522D01*
X72281368Y-117819908D01*
X72279535Y-117820039D01*
X72272920Y-117824290D01*
X71594707Y-118502503D01*
X71588277Y-118514277D01*
X70886000Y-118514277D01*
X70886000Y-118034121D01*
X70906002Y-117966000D01*
X70959658Y-117919507D01*
X71029932Y-117909403D01*
X71094512Y-117938897D01*
X71126195Y-117980871D01*
X71176123Y-118087941D01*
X71181603Y-118097432D01*
X71212294Y-118141265D01*
X71222771Y-118149640D01*
X71236218Y-118142572D01*
X71910478Y-117468312D01*
X71916856Y-117456632D01*
X72646908Y-117456632D01*
X72647039Y-117458465D01*
X72651290Y-117465080D01*
X73329503Y-118143293D01*
X73341277Y-118149723D01*
X73353293Y-118140426D01*
X73383397Y-118097432D01*
X73388877Y-118087941D01*
X73478145Y-117896507D01*
X73481891Y-117886215D01*
X73536559Y-117682191D01*
X73538462Y-117671396D01*
X73556872Y-117460975D01*
X73556872Y-117450025D01*
X73538462Y-117239604D01*
X73536559Y-117228809D01*
X73481891Y-117024785D01*
X73478145Y-117014493D01*
X73388877Y-116823059D01*
X73383397Y-116813568D01*
X73352706Y-116769735D01*
X73342229Y-116761360D01*
X73328782Y-116768428D01*
X72654522Y-117442688D01*
X72646908Y-117456632D01*
X71916856Y-117456632D01*
X71918092Y-117454368D01*
X71917961Y-117452535D01*
X71913710Y-117445920D01*
X71235497Y-116767707D01*
X71223723Y-116761277D01*
X71211707Y-116770574D01*
X71181603Y-116813568D01*
X71176123Y-116823059D01*
X71126195Y-116930129D01*
X71079277Y-116983414D01*
X71011000Y-117002875D01*
X70943040Y-116982333D01*
X70896975Y-116928310D01*
X70886000Y-116876879D01*
X70886000Y-115495304D01*
X70906002Y-115427183D01*
X70959658Y-115380690D01*
X71029932Y-115370586D01*
X71094512Y-115400080D01*
X71126194Y-115442053D01*
X71141153Y-115474131D01*
X71175686Y-115548189D01*
X71175689Y-115548194D01*
X71178012Y-115553176D01*
X71181168Y-115557683D01*
X71181169Y-115557685D01*
X71295885Y-115721516D01*
X71305523Y-115735281D01*
X71462719Y-115892477D01*
X71467227Y-115895634D01*
X71467230Y-115895636D01*
X71526907Y-115937422D01*
X71644823Y-116019988D01*
X71649805Y-116022311D01*
X71649810Y-116022314D01*
X71755465Y-116071581D01*
X71808750Y-116118498D01*
X71828211Y-116186775D01*
X71807669Y-116254735D01*
X71755465Y-116299971D01*
X71650059Y-116349123D01*
X71640568Y-116354603D01*
X71596735Y-116385294D01*
X71588360Y-116395771D01*
X71595428Y-116409218D01*
X72269688Y-117083478D01*
X72283632Y-117091092D01*
X72285465Y-117090961D01*
X72292080Y-117086710D01*
X72970293Y-116408497D01*
X72976723Y-116396723D01*
X72967426Y-116384707D01*
X72924431Y-116354602D01*
X72914945Y-116349124D01*
X72809535Y-116299971D01*
X72756250Y-116253054D01*
X72736789Y-116184777D01*
X72757331Y-116116817D01*
X72809535Y-116071581D01*
X72915190Y-116022314D01*
X72915195Y-116022311D01*
X72920177Y-116019988D01*
X73038093Y-115937422D01*
X73097770Y-115895636D01*
X73097773Y-115895634D01*
X73102281Y-115892477D01*
X73259477Y-115735281D01*
X73269116Y-115721516D01*
X73383831Y-115557685D01*
X73383832Y-115557683D01*
X73386988Y-115553176D01*
X73389311Y-115548194D01*
X73389314Y-115548189D01*
X73478617Y-115356678D01*
X73478618Y-115356677D01*
X73480940Y-115351696D01*
X73538478Y-115136963D01*
X73557853Y-114915500D01*
X73538478Y-114694037D01*
X73528611Y-114657214D01*
X73530301Y-114586238D01*
X73561223Y-114535509D01*
X76826827Y-111269905D01*
X76889139Y-111235879D01*
X76915922Y-111233000D01*
X78142000Y-111233000D01*
X78210121Y-111253002D01*
X78256614Y-111306658D01*
X78268000Y-111359000D01*
X78268000Y-111495634D01*
X78274755Y-111557816D01*
X78325885Y-111694205D01*
X78399130Y-111791935D01*
X78423978Y-111858441D01*
X78408925Y-111927824D01*
X78399132Y-111943062D01*
X78325885Y-112040795D01*
X78274755Y-112177184D01*
X78268000Y-112239366D01*
X78268000Y-114035634D01*
X78274755Y-114097816D01*
X78325885Y-114234205D01*
X78399130Y-114331935D01*
X78423978Y-114398441D01*
X78408925Y-114467824D01*
X78399132Y-114483062D01*
X78325885Y-114580795D01*
X78274755Y-114717184D01*
X78268000Y-114779366D01*
X78268000Y-116575634D01*
X78274755Y-116637816D01*
X78325885Y-116774205D01*
X78355386Y-116813568D01*
X78399442Y-116872352D01*
X78424290Y-116938858D01*
X78409237Y-117008241D01*
X78399442Y-117023482D01*
X78331714Y-117113851D01*
X78323176Y-117129446D01*
X78278022Y-117249894D01*
X78274395Y-117265149D01*
X78268869Y-117316014D01*
X78268500Y-117322828D01*
X78268500Y-117945385D01*
X78272975Y-117960624D01*
X78274365Y-117961829D01*
X78282048Y-117963500D01*
X82766384Y-117963500D01*
X82781623Y-117959025D01*
X82782828Y-117957635D01*
X82784499Y-117949952D01*
X82784499Y-117322831D01*
X82784129Y-117316010D01*
X82778605Y-117265148D01*
X82774979Y-117249896D01*
X82729824Y-117129446D01*
X82721286Y-117113851D01*
X82653558Y-117023482D01*
X82628710Y-116956975D01*
X82643763Y-116887593D01*
X82653558Y-116872352D01*
X82697614Y-116813568D01*
X82727115Y-116774205D01*
X82778245Y-116637816D01*
X82785000Y-116575634D01*
X82785000Y-115775356D01*
X82786078Y-115758909D01*
X82787592Y-115747408D01*
X82788029Y-115744090D01*
X82788244Y-115735281D01*
X82789574Y-115680865D01*
X82789574Y-115680861D01*
X82789656Y-115677500D01*
X82785424Y-115626024D01*
X82785000Y-115615700D01*
X82785000Y-114779366D01*
X82778245Y-114717184D01*
X82727115Y-114580795D01*
X82653870Y-114483064D01*
X82629022Y-114416559D01*
X82644075Y-114347176D01*
X82653870Y-114331935D01*
X82727115Y-114234205D01*
X82778245Y-114097816D01*
X82785000Y-114035634D01*
X82785000Y-113235356D01*
X82786078Y-113218909D01*
X82787592Y-113207408D01*
X82788029Y-113204090D01*
X82788244Y-113195281D01*
X82789574Y-113140865D01*
X82789574Y-113140861D01*
X82789656Y-113137500D01*
X82785424Y-113086024D01*
X82785000Y-113075700D01*
X82785000Y-112239366D01*
X82778245Y-112177184D01*
X82727115Y-112040795D01*
X82653870Y-111943064D01*
X82629022Y-111876559D01*
X82644075Y-111807176D01*
X82653870Y-111791935D01*
X82727115Y-111694205D01*
X82778245Y-111557816D01*
X82785000Y-111495634D01*
X82785000Y-110695356D01*
X82786078Y-110678909D01*
X82787592Y-110667408D01*
X82788029Y-110664090D01*
X82788244Y-110655281D01*
X82789574Y-110600865D01*
X82789574Y-110600861D01*
X82789656Y-110597500D01*
X82785424Y-110546024D01*
X82785000Y-110535700D01*
X82785000Y-109699366D01*
X82778245Y-109637184D01*
X82727115Y-109500795D01*
X82653870Y-109403064D01*
X82629022Y-109336559D01*
X82644075Y-109267176D01*
X82653870Y-109251935D01*
X82690501Y-109203059D01*
X82727115Y-109154205D01*
X82778245Y-109017816D01*
X82785000Y-108955634D01*
X82785000Y-108155356D01*
X82786078Y-108138909D01*
X82787592Y-108127408D01*
X82788029Y-108124090D01*
X82788244Y-108115281D01*
X82789574Y-108060865D01*
X82789574Y-108060861D01*
X82789656Y-108057500D01*
X82785424Y-108006024D01*
X82785000Y-107995700D01*
X82785000Y-107159366D01*
X82778245Y-107097184D01*
X82727115Y-106960795D01*
X82653558Y-106862648D01*
X82628710Y-106796142D01*
X82643763Y-106726759D01*
X82653558Y-106711518D01*
X82721286Y-106621149D01*
X82729824Y-106605554D01*
X82774978Y-106485106D01*
X82778605Y-106469851D01*
X82784131Y-106418986D01*
X82784500Y-106412172D01*
X82784500Y-105789615D01*
X82780025Y-105774376D01*
X82778635Y-105773171D01*
X82770952Y-105771500D01*
X78286616Y-105771500D01*
X78271377Y-105775975D01*
X78270172Y-105777365D01*
X78268501Y-105785048D01*
X78268501Y-106412169D01*
X78268871Y-106418990D01*
X78274395Y-106469852D01*
X78278021Y-106485104D01*
X78323176Y-106605554D01*
X78331714Y-106621149D01*
X78399442Y-106711518D01*
X78424290Y-106778025D01*
X78409237Y-106847407D01*
X78399442Y-106862648D01*
X78325885Y-106960795D01*
X78274755Y-107097184D01*
X78268000Y-107159366D01*
X78268000Y-107296000D01*
X78247998Y-107364121D01*
X78194342Y-107410614D01*
X78142000Y-107422000D01*
X76002577Y-107422000D01*
X73683374Y-107421999D01*
X73615253Y-107401997D01*
X73568760Y-107348341D01*
X73557684Y-107297426D01*
X73557853Y-107295500D01*
X73538478Y-107074037D01*
X73480940Y-106859304D01*
X73406189Y-106699000D01*
X73389314Y-106662811D01*
X73389311Y-106662806D01*
X73386988Y-106657824D01*
X73361308Y-106621149D01*
X73262636Y-106480230D01*
X73262634Y-106480227D01*
X73259477Y-106475719D01*
X73102281Y-106318523D01*
X73097773Y-106315366D01*
X73097770Y-106315364D01*
X73022005Y-106262313D01*
X72920177Y-106191012D01*
X72915195Y-106188689D01*
X72915190Y-106188686D01*
X72810127Y-106139695D01*
X72756842Y-106092778D01*
X72737381Y-106024501D01*
X72757923Y-105956541D01*
X72810127Y-105911305D01*
X72915190Y-105862314D01*
X72915195Y-105862311D01*
X72920177Y-105859988D01*
X73037856Y-105777588D01*
X73097770Y-105735636D01*
X73097773Y-105735634D01*
X73102281Y-105732477D01*
X73259477Y-105575281D01*
X73262640Y-105570765D01*
X73383831Y-105397685D01*
X73383832Y-105397683D01*
X73386988Y-105393176D01*
X73389311Y-105388194D01*
X73389314Y-105388189D01*
X73478617Y-105196678D01*
X73478618Y-105196677D01*
X73480940Y-105191696D01*
X73538478Y-104976963D01*
X73557853Y-104755500D01*
X73538478Y-104534037D01*
X73497193Y-104379960D01*
X73482363Y-104324614D01*
X73482362Y-104324612D01*
X73480940Y-104319304D01*
X73455036Y-104263753D01*
X73389314Y-104122811D01*
X73389311Y-104122806D01*
X73386988Y-104117824D01*
X73381929Y-104110599D01*
X73262636Y-103940230D01*
X73262634Y-103940227D01*
X73259477Y-103935719D01*
X73199392Y-103875634D01*
X78268000Y-103875634D01*
X78274755Y-103937816D01*
X78325885Y-104074205D01*
X78360578Y-104120496D01*
X78399442Y-104172352D01*
X78424290Y-104238858D01*
X78409237Y-104308241D01*
X78399442Y-104323482D01*
X78331714Y-104413851D01*
X78323176Y-104429446D01*
X78278022Y-104549894D01*
X78274395Y-104565149D01*
X78268869Y-104616014D01*
X78268500Y-104622828D01*
X78268500Y-105245385D01*
X78272975Y-105260624D01*
X78274365Y-105261829D01*
X78282048Y-105263500D01*
X82766384Y-105263500D01*
X82781623Y-105259025D01*
X82782828Y-105257635D01*
X82784499Y-105249952D01*
X82784499Y-104622831D01*
X82784129Y-104616010D01*
X82778605Y-104565148D01*
X82774979Y-104549896D01*
X82729824Y-104429446D01*
X82721286Y-104413851D01*
X82653558Y-104323482D01*
X82628710Y-104256975D01*
X82643763Y-104187593D01*
X82653558Y-104172352D01*
X82692422Y-104120496D01*
X82727115Y-104074205D01*
X82778245Y-103937816D01*
X82785000Y-103875634D01*
X82785000Y-103597500D01*
X86628193Y-103597500D01*
X86647385Y-103816871D01*
X86704380Y-104029576D01*
X86721270Y-104065797D01*
X86795118Y-104224166D01*
X86795121Y-104224171D01*
X86797444Y-104229153D01*
X86800600Y-104233660D01*
X86800601Y-104233662D01*
X86865001Y-104325634D01*
X86923751Y-104409538D01*
X87079462Y-104565249D01*
X87259846Y-104691556D01*
X87459424Y-104784620D01*
X87672129Y-104841615D01*
X87891500Y-104860807D01*
X88110871Y-104841615D01*
X88323576Y-104784620D01*
X88523154Y-104691556D01*
X88703538Y-104565249D01*
X88859249Y-104409538D01*
X88918000Y-104325634D01*
X88982399Y-104233662D01*
X88982400Y-104233660D01*
X88985556Y-104229153D01*
X88987879Y-104224171D01*
X88987882Y-104224166D01*
X89061730Y-104065797D01*
X89078620Y-104029576D01*
X89135615Y-103816871D01*
X89154807Y-103597500D01*
X91478193Y-103597500D01*
X91497385Y-103816871D01*
X91554380Y-104029576D01*
X91571270Y-104065797D01*
X91645118Y-104224166D01*
X91645121Y-104224171D01*
X91647444Y-104229153D01*
X91650600Y-104233660D01*
X91650601Y-104233662D01*
X91715001Y-104325634D01*
X91773751Y-104409538D01*
X91929462Y-104565249D01*
X92109846Y-104691556D01*
X92309424Y-104784620D01*
X92522129Y-104841615D01*
X92741500Y-104860807D01*
X92960871Y-104841615D01*
X93173576Y-104784620D01*
X93373154Y-104691556D01*
X93553538Y-104565249D01*
X93709249Y-104409538D01*
X93768000Y-104325634D01*
X93832399Y-104233662D01*
X93832400Y-104233660D01*
X93835556Y-104229153D01*
X93837879Y-104224171D01*
X93837882Y-104224166D01*
X93911730Y-104065797D01*
X93928620Y-104029576D01*
X93985615Y-103816871D01*
X94004807Y-103597500D01*
X93985615Y-103378129D01*
X93928620Y-103165424D01*
X93878951Y-103058909D01*
X93837882Y-102970834D01*
X93837879Y-102970829D01*
X93835556Y-102965847D01*
X93832399Y-102961338D01*
X93712408Y-102789973D01*
X93712406Y-102789970D01*
X93709249Y-102785462D01*
X93553538Y-102629751D01*
X93373154Y-102503444D01*
X93173576Y-102410380D01*
X92960871Y-102353385D01*
X92741500Y-102334193D01*
X92522129Y-102353385D01*
X92309424Y-102410380D01*
X92241205Y-102442191D01*
X92114834Y-102501118D01*
X92114829Y-102501121D01*
X92109847Y-102503444D01*
X92105340Y-102506600D01*
X92105338Y-102506601D01*
X91933973Y-102626592D01*
X91933970Y-102626594D01*
X91929462Y-102629751D01*
X91773751Y-102785462D01*
X91770594Y-102789970D01*
X91770592Y-102789973D01*
X91650601Y-102961338D01*
X91647444Y-102965847D01*
X91645121Y-102970829D01*
X91645118Y-102970834D01*
X91604049Y-103058909D01*
X91554380Y-103165424D01*
X91497385Y-103378129D01*
X91478193Y-103597500D01*
X89154807Y-103597500D01*
X89135615Y-103378129D01*
X89078620Y-103165424D01*
X89028951Y-103058909D01*
X88987882Y-102970834D01*
X88987879Y-102970829D01*
X88985556Y-102965847D01*
X88982399Y-102961338D01*
X88862408Y-102789973D01*
X88862406Y-102789970D01*
X88859249Y-102785462D01*
X88703538Y-102629751D01*
X88523154Y-102503444D01*
X88323576Y-102410380D01*
X88110871Y-102353385D01*
X87891500Y-102334193D01*
X87672129Y-102353385D01*
X87459424Y-102410380D01*
X87391205Y-102442191D01*
X87264834Y-102501118D01*
X87264829Y-102501121D01*
X87259847Y-102503444D01*
X87255340Y-102506600D01*
X87255338Y-102506601D01*
X87083973Y-102626592D01*
X87083970Y-102626594D01*
X87079462Y-102629751D01*
X86923751Y-102785462D01*
X86920594Y-102789970D01*
X86920592Y-102789973D01*
X86800601Y-102961338D01*
X86797444Y-102965847D01*
X86795121Y-102970829D01*
X86795118Y-102970834D01*
X86754049Y-103058909D01*
X86704380Y-103165424D01*
X86647385Y-103378129D01*
X86628193Y-103597500D01*
X82785000Y-103597500D01*
X82785000Y-103075356D01*
X82786078Y-103058909D01*
X82787592Y-103047408D01*
X82788029Y-103044090D01*
X82788244Y-103035281D01*
X82789574Y-102980865D01*
X82789574Y-102980861D01*
X82789656Y-102977500D01*
X82785424Y-102926024D01*
X82785000Y-102915700D01*
X82785000Y-102079366D01*
X82778245Y-102017184D01*
X82727115Y-101880795D01*
X82653870Y-101783064D01*
X82629022Y-101716559D01*
X82644075Y-101647176D01*
X82653870Y-101631935D01*
X82727115Y-101534205D01*
X82778245Y-101397816D01*
X82785000Y-101335634D01*
X82785000Y-100535356D01*
X82785156Y-100532969D01*
X86178595Y-100532969D01*
X86178892Y-100538122D01*
X86178892Y-100538125D01*
X86184567Y-100636541D01*
X86191927Y-100764197D01*
X86193064Y-100769243D01*
X86193065Y-100769249D01*
X86225241Y-100912023D01*
X86242846Y-100990142D01*
X86244788Y-100994924D01*
X86244789Y-100994928D01*
X86319342Y-101178529D01*
X86329984Y-101204737D01*
X86451001Y-101402219D01*
X86602647Y-101577284D01*
X86780849Y-101725230D01*
X86980822Y-101842084D01*
X87197194Y-101924709D01*
X87202260Y-101925740D01*
X87202261Y-101925740D01*
X87216491Y-101928635D01*
X87424156Y-101970885D01*
X87554824Y-101975676D01*
X87650449Y-101979183D01*
X87650453Y-101979183D01*
X87655613Y-101979372D01*
X87660733Y-101978716D01*
X87660735Y-101978716D01*
X87746710Y-101967702D01*
X87885347Y-101949942D01*
X87890295Y-101948457D01*
X87890302Y-101948456D01*
X88102247Y-101884869D01*
X88107190Y-101883386D01*
X88112479Y-101880795D01*
X88310549Y-101783762D01*
X88310552Y-101783760D01*
X88315184Y-101781491D01*
X88503743Y-101646994D01*
X88667803Y-101483505D01*
X88802958Y-101295417D01*
X88836829Y-101226885D01*
X88903284Y-101092422D01*
X88903285Y-101092420D01*
X88905578Y-101087780D01*
X88972908Y-100866171D01*
X89003140Y-100636541D01*
X89004827Y-100567500D01*
X89001988Y-100532969D01*
X91628595Y-100532969D01*
X91628892Y-100538122D01*
X91628892Y-100538125D01*
X91634567Y-100636541D01*
X91641927Y-100764197D01*
X91643064Y-100769243D01*
X91643065Y-100769249D01*
X91675241Y-100912023D01*
X91692846Y-100990142D01*
X91694788Y-100994924D01*
X91694789Y-100994928D01*
X91769342Y-101178529D01*
X91779984Y-101204737D01*
X91901001Y-101402219D01*
X92052647Y-101577284D01*
X92230849Y-101725230D01*
X92430822Y-101842084D01*
X92647194Y-101924709D01*
X92652260Y-101925740D01*
X92652261Y-101925740D01*
X92666491Y-101928635D01*
X92874156Y-101970885D01*
X93004824Y-101975676D01*
X93100449Y-101979183D01*
X93100453Y-101979183D01*
X93105613Y-101979372D01*
X93110733Y-101978716D01*
X93110735Y-101978716D01*
X93196710Y-101967702D01*
X93335347Y-101949942D01*
X93340295Y-101948457D01*
X93340302Y-101948456D01*
X93552247Y-101884869D01*
X93557190Y-101883386D01*
X93562479Y-101880795D01*
X93760549Y-101783762D01*
X93760552Y-101783760D01*
X93765184Y-101781491D01*
X93953743Y-101646994D01*
X94117803Y-101483505D01*
X94252958Y-101295417D01*
X94286829Y-101226885D01*
X94353284Y-101092422D01*
X94353285Y-101092420D01*
X94355578Y-101087780D01*
X94422908Y-100866171D01*
X94453140Y-100636541D01*
X94454827Y-100567500D01*
X94447460Y-100477888D01*
X94436273Y-100341818D01*
X94436272Y-100341812D01*
X94435849Y-100336667D01*
X94379425Y-100112033D01*
X94377366Y-100107297D01*
X94289130Y-99904368D01*
X94289128Y-99904365D01*
X94287070Y-99899631D01*
X94161264Y-99705165D01*
X94005387Y-99533858D01*
X94001336Y-99530659D01*
X94001332Y-99530655D01*
X93827677Y-99393511D01*
X93827672Y-99393508D01*
X93823623Y-99390310D01*
X93819107Y-99387817D01*
X93819104Y-99387815D01*
X93625379Y-99280873D01*
X93625375Y-99280871D01*
X93620855Y-99278376D01*
X93615986Y-99276652D01*
X93615982Y-99276650D01*
X93407403Y-99202788D01*
X93407399Y-99202787D01*
X93402528Y-99201062D01*
X93397435Y-99200155D01*
X93397432Y-99200154D01*
X93179595Y-99161351D01*
X93179589Y-99161350D01*
X93174506Y-99160445D01*
X93101596Y-99159554D01*
X92948081Y-99157679D01*
X92948079Y-99157679D01*
X92942911Y-99157616D01*
X92713964Y-99192650D01*
X92493814Y-99264606D01*
X92489226Y-99266994D01*
X92489222Y-99266996D01*
X92331304Y-99349203D01*
X92288372Y-99371552D01*
X92284239Y-99374655D01*
X92284236Y-99374657D01*
X92137220Y-99485040D01*
X92103155Y-99510617D01*
X91943139Y-99678064D01*
X91940225Y-99682336D01*
X91940224Y-99682337D01*
X91924652Y-99705165D01*
X91812619Y-99869399D01*
X91715102Y-100079481D01*
X91653207Y-100302669D01*
X91628595Y-100532969D01*
X89001988Y-100532969D01*
X88997460Y-100477888D01*
X88986273Y-100341818D01*
X88986272Y-100341812D01*
X88985849Y-100336667D01*
X88929425Y-100112033D01*
X88927366Y-100107297D01*
X88839130Y-99904368D01*
X88839128Y-99904365D01*
X88837070Y-99899631D01*
X88711264Y-99705165D01*
X88555387Y-99533858D01*
X88551336Y-99530659D01*
X88551332Y-99530655D01*
X88377677Y-99393511D01*
X88377672Y-99393508D01*
X88373623Y-99390310D01*
X88369107Y-99387817D01*
X88369104Y-99387815D01*
X88175379Y-99280873D01*
X88175375Y-99280871D01*
X88170855Y-99278376D01*
X88165986Y-99276652D01*
X88165982Y-99276650D01*
X87957403Y-99202788D01*
X87957399Y-99202787D01*
X87952528Y-99201062D01*
X87947435Y-99200155D01*
X87947432Y-99200154D01*
X87729595Y-99161351D01*
X87729589Y-99161350D01*
X87724506Y-99160445D01*
X87651596Y-99159554D01*
X87498081Y-99157679D01*
X87498079Y-99157679D01*
X87492911Y-99157616D01*
X87263964Y-99192650D01*
X87043814Y-99264606D01*
X87039226Y-99266994D01*
X87039222Y-99266996D01*
X86881304Y-99349203D01*
X86838372Y-99371552D01*
X86834239Y-99374655D01*
X86834236Y-99374657D01*
X86687220Y-99485040D01*
X86653155Y-99510617D01*
X86493139Y-99678064D01*
X86490225Y-99682336D01*
X86490224Y-99682337D01*
X86474652Y-99705165D01*
X86362619Y-99869399D01*
X86265102Y-100079481D01*
X86203207Y-100302669D01*
X86178595Y-100532969D01*
X82785156Y-100532969D01*
X82786078Y-100518909D01*
X82787592Y-100507408D01*
X82788029Y-100504090D01*
X82789656Y-100437500D01*
X82785424Y-100386024D01*
X82785000Y-100375700D01*
X82785000Y-99539366D01*
X82778245Y-99477184D01*
X82727115Y-99340795D01*
X82639761Y-99224239D01*
X82523205Y-99136885D01*
X82386816Y-99085755D01*
X82324634Y-99079000D01*
X81441485Y-99079000D01*
X81439946Y-99078991D01*
X81336581Y-99077728D01*
X81336579Y-99077728D01*
X81331411Y-99077665D01*
X81326297Y-99078448D01*
X81322789Y-99078693D01*
X81313996Y-99079000D01*
X78728366Y-99079000D01*
X78666184Y-99085755D01*
X78529795Y-99136885D01*
X78413239Y-99224239D01*
X78325885Y-99340795D01*
X78274755Y-99477184D01*
X78268000Y-99539366D01*
X78268000Y-101335634D01*
X78274755Y-101397816D01*
X78325885Y-101534205D01*
X78399130Y-101631935D01*
X78423978Y-101698441D01*
X78408925Y-101767824D01*
X78399132Y-101783062D01*
X78325885Y-101880795D01*
X78274755Y-102017184D01*
X78268000Y-102079366D01*
X78268000Y-103875634D01*
X73199392Y-103875634D01*
X73102281Y-103778523D01*
X73097773Y-103775366D01*
X73097770Y-103775364D01*
X73017371Y-103719068D01*
X72920177Y-103651012D01*
X72915195Y-103648689D01*
X72915190Y-103648686D01*
X72809535Y-103599419D01*
X72756250Y-103552502D01*
X72736789Y-103484225D01*
X72757331Y-103416265D01*
X72809535Y-103371029D01*
X72914945Y-103321876D01*
X72924431Y-103316398D01*
X72968264Y-103285707D01*
X72976639Y-103275229D01*
X72969571Y-103261781D01*
X72295312Y-102587522D01*
X72281368Y-102579908D01*
X72279535Y-102580039D01*
X72272920Y-102584290D01*
X71594707Y-103262503D01*
X71588277Y-103274277D01*
X71597574Y-103286293D01*
X71640569Y-103316398D01*
X71650055Y-103321876D01*
X71755465Y-103371029D01*
X71808750Y-103417946D01*
X71828211Y-103486223D01*
X71807669Y-103554183D01*
X71755465Y-103599419D01*
X71649811Y-103648686D01*
X71649806Y-103648689D01*
X71644824Y-103651012D01*
X71640317Y-103654168D01*
X71640315Y-103654169D01*
X71467230Y-103775364D01*
X71467227Y-103775366D01*
X71462719Y-103778523D01*
X71305523Y-103935719D01*
X71302365Y-103940229D01*
X71302360Y-103940235D01*
X71214110Y-104066270D01*
X71158653Y-104110599D01*
X71110897Y-104120000D01*
X70075520Y-104120000D01*
X70064286Y-104119470D01*
X70056781Y-104117792D01*
X69989071Y-104119920D01*
X69988488Y-104119938D01*
X69984531Y-104120000D01*
X69956517Y-104120000D01*
X69952592Y-104120496D01*
X69952591Y-104120496D01*
X69952496Y-104120508D01*
X69940651Y-104121441D01*
X69910830Y-104122378D01*
X69904218Y-104122586D01*
X69904217Y-104122586D01*
X69896295Y-104122835D01*
X69876752Y-104128513D01*
X69857388Y-104132523D01*
X69845060Y-104134080D01*
X69845058Y-104134080D01*
X69837201Y-104135073D01*
X69829837Y-104137989D01*
X69829832Y-104137990D01*
X69795944Y-104151407D01*
X69784715Y-104155252D01*
X69770741Y-104159312D01*
X69742107Y-104167631D01*
X69735281Y-104171668D01*
X69724591Y-104177990D01*
X69706841Y-104186687D01*
X69687912Y-104194181D01*
X69681496Y-104198842D01*
X69681495Y-104198843D01*
X69652019Y-104220259D01*
X69642095Y-104226778D01*
X69610724Y-104245330D01*
X69610719Y-104245334D01*
X69603901Y-104249366D01*
X69589514Y-104263753D01*
X69574480Y-104276594D01*
X69558013Y-104288558D01*
X69552960Y-104294666D01*
X69529728Y-104322749D01*
X69521738Y-104331529D01*
X66301017Y-107552250D01*
X66292691Y-107559826D01*
X66286197Y-107563947D01*
X66280774Y-107569722D01*
X66239415Y-107613765D01*
X66236660Y-107616607D01*
X66216861Y-107636406D01*
X66214437Y-107639531D01*
X66214429Y-107639540D01*
X66214363Y-107639626D01*
X66206655Y-107648651D01*
X66176283Y-107680994D01*
X66172465Y-107687938D01*
X66172464Y-107687940D01*
X66166478Y-107698829D01*
X66155627Y-107715347D01*
X66143150Y-107731433D01*
X66125524Y-107772166D01*
X66120307Y-107782814D01*
X66098931Y-107821697D01*
X66096960Y-107829372D01*
X66096958Y-107829378D01*
X66093869Y-107841411D01*
X66087466Y-107860113D01*
X66079383Y-107878792D01*
X66078144Y-107886617D01*
X66072440Y-107922627D01*
X66070035Y-107934240D01*
X66059000Y-107977218D01*
X66059000Y-107997565D01*
X66057449Y-108017276D01*
X66054265Y-108037379D01*
X66055011Y-108045271D01*
X66058441Y-108081556D01*
X66059000Y-108093414D01*
X66059000Y-109255696D01*
X66038998Y-109323817D01*
X65985342Y-109370310D01*
X65915068Y-109380414D01*
X65850488Y-109350920D01*
X65818805Y-109308946D01*
X65769314Y-109202811D01*
X65769311Y-109202806D01*
X65766988Y-109197824D01*
X65763831Y-109193315D01*
X65642636Y-109020230D01*
X65642634Y-109020227D01*
X65639477Y-109015719D01*
X65482281Y-108858523D01*
X65477773Y-108855366D01*
X65477770Y-108855364D01*
X65402005Y-108802313D01*
X65300177Y-108731012D01*
X65295195Y-108728689D01*
X65295190Y-108728686D01*
X65204717Y-108686498D01*
X65190127Y-108679695D01*
X65136842Y-108632778D01*
X65117381Y-108564501D01*
X65137923Y-108496541D01*
X65190127Y-108451305D01*
X65295190Y-108402314D01*
X65295195Y-108402311D01*
X65300177Y-108399988D01*
X65466072Y-108283827D01*
X65477770Y-108275636D01*
X65477773Y-108275634D01*
X65482281Y-108272477D01*
X65639477Y-108115281D01*
X65649116Y-108101516D01*
X65763831Y-107937685D01*
X65763832Y-107937683D01*
X65766988Y-107933176D01*
X65769311Y-107928194D01*
X65769314Y-107928189D01*
X65858617Y-107736678D01*
X65858618Y-107736677D01*
X65860940Y-107731696D01*
X65872665Y-107687940D01*
X65904341Y-107569722D01*
X65918478Y-107516963D01*
X65937853Y-107295500D01*
X65918478Y-107074037D01*
X65860940Y-106859304D01*
X65786189Y-106699000D01*
X65769314Y-106662811D01*
X65769311Y-106662806D01*
X65766988Y-106657824D01*
X65741308Y-106621149D01*
X65642636Y-106480230D01*
X65642634Y-106480227D01*
X65639477Y-106475719D01*
X65482281Y-106318523D01*
X65477773Y-106315366D01*
X65477770Y-106315364D01*
X65402005Y-106262313D01*
X65300177Y-106191012D01*
X65295195Y-106188689D01*
X65295190Y-106188686D01*
X65190127Y-106139695D01*
X65136842Y-106092778D01*
X65117381Y-106024501D01*
X65137923Y-105956541D01*
X65190127Y-105911305D01*
X65295190Y-105862314D01*
X65295195Y-105862311D01*
X65300177Y-105859988D01*
X65417856Y-105777588D01*
X65477770Y-105735636D01*
X65477773Y-105735634D01*
X65482281Y-105732477D01*
X65639477Y-105575281D01*
X65642640Y-105570765D01*
X65763831Y-105397685D01*
X65763832Y-105397683D01*
X65766988Y-105393176D01*
X65769311Y-105388194D01*
X65769314Y-105388189D01*
X65858617Y-105196678D01*
X65858618Y-105196677D01*
X65860940Y-105191696D01*
X65918478Y-104976963D01*
X65937853Y-104755500D01*
X65918478Y-104534037D01*
X65877193Y-104379960D01*
X65862363Y-104324614D01*
X65862362Y-104324612D01*
X65860940Y-104319304D01*
X65835036Y-104263753D01*
X65769314Y-104122811D01*
X65769311Y-104122806D01*
X65766988Y-104117824D01*
X65761929Y-104110599D01*
X65642636Y-103940230D01*
X65642634Y-103940227D01*
X65639477Y-103935719D01*
X65482281Y-103778523D01*
X65477773Y-103775366D01*
X65477770Y-103775364D01*
X65397371Y-103719068D01*
X65300177Y-103651012D01*
X65295195Y-103648689D01*
X65295190Y-103648686D01*
X65190127Y-103599695D01*
X65136842Y-103552778D01*
X65117381Y-103484501D01*
X65137923Y-103416541D01*
X65190127Y-103371305D01*
X65295190Y-103322314D01*
X65295195Y-103322311D01*
X65300177Y-103319988D01*
X65402005Y-103248687D01*
X65477770Y-103195636D01*
X65477773Y-103195634D01*
X65482281Y-103192477D01*
X65639477Y-103035281D01*
X65649116Y-103021516D01*
X65763831Y-102857685D01*
X65763832Y-102857683D01*
X65766988Y-102853176D01*
X65769311Y-102848194D01*
X65769314Y-102848189D01*
X65858617Y-102656678D01*
X65858618Y-102656677D01*
X65860940Y-102651696D01*
X65918478Y-102436963D01*
X65937374Y-102220975D01*
X71008128Y-102220975D01*
X71026538Y-102431396D01*
X71028441Y-102442191D01*
X71083109Y-102646215D01*
X71086855Y-102656507D01*
X71176123Y-102847941D01*
X71181603Y-102857432D01*
X71212294Y-102901265D01*
X71222771Y-102909640D01*
X71236218Y-102902572D01*
X71910478Y-102228312D01*
X71916856Y-102216632D01*
X72646908Y-102216632D01*
X72647039Y-102218465D01*
X72651290Y-102225080D01*
X73329503Y-102903293D01*
X73341277Y-102909723D01*
X73353293Y-102900426D01*
X73383397Y-102857432D01*
X73388877Y-102847941D01*
X73478145Y-102656507D01*
X73481891Y-102646215D01*
X73536559Y-102442191D01*
X73538462Y-102431396D01*
X73556872Y-102220975D01*
X73556872Y-102210025D01*
X73538462Y-101999604D01*
X73536559Y-101988809D01*
X73481891Y-101784785D01*
X73478145Y-101774493D01*
X73388877Y-101583059D01*
X73383397Y-101573568D01*
X73352706Y-101529735D01*
X73342229Y-101521360D01*
X73328782Y-101528428D01*
X72654522Y-102202688D01*
X72646908Y-102216632D01*
X71916856Y-102216632D01*
X71918092Y-102214368D01*
X71917961Y-102212535D01*
X71913710Y-102205920D01*
X71235497Y-101527707D01*
X71223723Y-101521277D01*
X71211707Y-101530574D01*
X71181603Y-101573568D01*
X71176123Y-101583059D01*
X71086855Y-101774493D01*
X71083109Y-101784785D01*
X71028441Y-101988809D01*
X71026538Y-101999604D01*
X71008128Y-102210025D01*
X71008128Y-102220975D01*
X65937374Y-102220975D01*
X65937853Y-102215500D01*
X65918478Y-101994037D01*
X65860940Y-101779304D01*
X65834184Y-101721925D01*
X65769314Y-101582811D01*
X65769311Y-101582806D01*
X65766988Y-101577824D01*
X65743263Y-101543941D01*
X65642636Y-101400230D01*
X65642634Y-101400227D01*
X65639477Y-101395719D01*
X65482281Y-101238523D01*
X65477773Y-101235366D01*
X65477770Y-101235364D01*
X65383519Y-101169369D01*
X65364099Y-101155771D01*
X71588360Y-101155771D01*
X71595428Y-101169218D01*
X72269688Y-101843478D01*
X72283632Y-101851092D01*
X72285465Y-101850961D01*
X72292080Y-101846710D01*
X72970293Y-101168497D01*
X72976723Y-101156723D01*
X72967426Y-101144707D01*
X72924431Y-101114602D01*
X72914945Y-101109124D01*
X72723507Y-101019855D01*
X72713215Y-101016109D01*
X72509191Y-100961441D01*
X72498396Y-100959538D01*
X72287975Y-100941128D01*
X72277025Y-100941128D01*
X72066604Y-100959538D01*
X72055809Y-100961441D01*
X71851785Y-101016109D01*
X71841493Y-101019855D01*
X71650059Y-101109123D01*
X71640568Y-101114603D01*
X71596735Y-101145294D01*
X71588360Y-101155771D01*
X65364099Y-101155771D01*
X65300177Y-101111012D01*
X65295195Y-101108689D01*
X65295190Y-101108686D01*
X65103678Y-101019383D01*
X65103677Y-101019382D01*
X65098696Y-101017060D01*
X65093388Y-101015638D01*
X65093386Y-101015637D01*
X64998237Y-100990142D01*
X64883963Y-100959522D01*
X64662500Y-100940147D01*
X64441037Y-100959522D01*
X64326763Y-100990142D01*
X64231614Y-101015637D01*
X64231612Y-101015638D01*
X64226304Y-101017060D01*
X64221323Y-101019382D01*
X64221322Y-101019383D01*
X64029811Y-101108686D01*
X64029806Y-101108689D01*
X64024824Y-101111012D01*
X64020317Y-101114168D01*
X64020315Y-101114169D01*
X63847230Y-101235364D01*
X63847227Y-101235366D01*
X63842719Y-101238523D01*
X63685523Y-101395719D01*
X63682366Y-101400227D01*
X63682364Y-101400230D01*
X63581737Y-101543941D01*
X63558012Y-101577824D01*
X63555689Y-101582806D01*
X63555686Y-101582811D01*
X63490816Y-101721925D01*
X63464060Y-101779304D01*
X63406522Y-101994037D01*
X63387147Y-102215500D01*
X63406522Y-102436963D01*
X63464060Y-102651696D01*
X63466382Y-102656677D01*
X63466383Y-102656678D01*
X63555686Y-102848189D01*
X63555689Y-102848194D01*
X63558012Y-102853176D01*
X63561168Y-102857683D01*
X63561169Y-102857685D01*
X63675885Y-103021516D01*
X63685523Y-103035281D01*
X63842719Y-103192477D01*
X63847227Y-103195634D01*
X63847230Y-103195636D01*
X63922995Y-103248687D01*
X64024823Y-103319988D01*
X64029805Y-103322311D01*
X64029810Y-103322314D01*
X64134873Y-103371305D01*
X64188158Y-103418222D01*
X64207619Y-103486499D01*
X64187077Y-103554459D01*
X64134873Y-103599695D01*
X64029811Y-103648686D01*
X64029806Y-103648689D01*
X64024824Y-103651012D01*
X64020317Y-103654168D01*
X64020315Y-103654169D01*
X63847230Y-103775364D01*
X63847227Y-103775366D01*
X63842719Y-103778523D01*
X63685523Y-103935719D01*
X63682366Y-103940227D01*
X63682364Y-103940230D01*
X63563071Y-104110599D01*
X63558012Y-104117824D01*
X63555689Y-104122806D01*
X63555686Y-104122811D01*
X63489964Y-104263753D01*
X63464060Y-104319304D01*
X63462638Y-104324612D01*
X63462637Y-104324614D01*
X63447807Y-104379960D01*
X63406522Y-104534037D01*
X63387147Y-104755500D01*
X63406522Y-104976963D01*
X63464060Y-105191696D01*
X63466382Y-105196677D01*
X63466383Y-105196678D01*
X63555686Y-105388189D01*
X63555689Y-105388194D01*
X63558012Y-105393176D01*
X63561168Y-105397683D01*
X63561169Y-105397685D01*
X63682361Y-105570765D01*
X63685523Y-105575281D01*
X63842719Y-105732477D01*
X63847227Y-105735634D01*
X63847230Y-105735636D01*
X63907144Y-105777588D01*
X64024823Y-105859988D01*
X64029805Y-105862311D01*
X64029810Y-105862314D01*
X64134873Y-105911305D01*
X64188158Y-105958222D01*
X64207619Y-106026499D01*
X64187077Y-106094459D01*
X64134873Y-106139695D01*
X64029811Y-106188686D01*
X64029806Y-106188689D01*
X64024824Y-106191012D01*
X64020317Y-106194168D01*
X64020315Y-106194169D01*
X63847230Y-106315364D01*
X63847227Y-106315366D01*
X63842719Y-106318523D01*
X63685523Y-106475719D01*
X63682366Y-106480227D01*
X63682364Y-106480230D01*
X63583692Y-106621149D01*
X63558012Y-106657824D01*
X63555689Y-106662806D01*
X63555686Y-106662811D01*
X63538811Y-106699000D01*
X63464060Y-106859304D01*
X63406522Y-107074037D01*
X63387147Y-107295500D01*
X63406522Y-107516963D01*
X63420659Y-107569722D01*
X63452336Y-107687940D01*
X63464060Y-107731696D01*
X63466382Y-107736677D01*
X63466383Y-107736678D01*
X63555686Y-107928189D01*
X63555689Y-107928194D01*
X63558012Y-107933176D01*
X63561168Y-107937683D01*
X63561169Y-107937685D01*
X63675885Y-108101516D01*
X63685523Y-108115281D01*
X63842719Y-108272477D01*
X63847227Y-108275634D01*
X63847230Y-108275636D01*
X63858928Y-108283827D01*
X64024823Y-108399988D01*
X64029805Y-108402311D01*
X64029810Y-108402314D01*
X64134873Y-108451305D01*
X64188158Y-108498222D01*
X64207619Y-108566499D01*
X64187077Y-108634459D01*
X64134873Y-108679695D01*
X64029811Y-108728686D01*
X64029806Y-108728689D01*
X64024824Y-108731012D01*
X64020317Y-108734168D01*
X64020315Y-108734169D01*
X63847230Y-108855364D01*
X63847227Y-108855366D01*
X63842719Y-108858523D01*
X63685523Y-109015719D01*
X63682366Y-109020227D01*
X63682364Y-109020230D01*
X63561169Y-109193315D01*
X63558012Y-109197824D01*
X63555689Y-109202806D01*
X63555686Y-109202811D01*
X63471085Y-109384239D01*
X63464060Y-109399304D01*
X63406522Y-109614037D01*
X63387147Y-109835500D01*
X63406522Y-110056963D01*
X63464060Y-110271696D01*
X63466382Y-110276677D01*
X63466383Y-110276678D01*
X63555686Y-110468189D01*
X63555689Y-110468194D01*
X63558012Y-110473176D01*
X63561168Y-110477683D01*
X63561169Y-110477685D01*
X63675885Y-110641516D01*
X63685523Y-110655281D01*
X63842719Y-110812477D01*
X63847227Y-110815634D01*
X63847230Y-110815636D01*
X63922995Y-110868687D01*
X64024823Y-110939988D01*
X64029805Y-110942311D01*
X64029810Y-110942314D01*
X64134873Y-110991305D01*
X64188158Y-111038222D01*
X64207619Y-111106499D01*
X64187077Y-111174459D01*
X64134873Y-111219695D01*
X64029811Y-111268686D01*
X64029806Y-111268689D01*
X64024824Y-111271012D01*
X64020317Y-111274168D01*
X64020315Y-111274169D01*
X63847230Y-111395364D01*
X63847227Y-111395366D01*
X63842719Y-111398523D01*
X63685523Y-111555719D01*
X63682366Y-111560227D01*
X63682364Y-111560230D01*
X63562488Y-111731431D01*
X63558012Y-111737824D01*
X63555689Y-111742806D01*
X63555686Y-111742811D01*
X63471085Y-111924239D01*
X63464060Y-111939304D01*
X63406522Y-112154037D01*
X63387147Y-112375500D01*
X63406522Y-112596963D01*
X63464060Y-112811696D01*
X63466382Y-112816677D01*
X63466383Y-112816678D01*
X63555686Y-113008189D01*
X63555689Y-113008194D01*
X63558012Y-113013176D01*
X63561168Y-113017683D01*
X63561169Y-113017685D01*
X63675885Y-113181516D01*
X63685523Y-113195281D01*
X63842719Y-113352477D01*
X63847227Y-113355634D01*
X63847230Y-113355636D01*
X63858928Y-113363827D01*
X64024823Y-113479988D01*
X64029805Y-113482311D01*
X64029810Y-113482314D01*
X64134873Y-113531305D01*
X64188158Y-113578222D01*
X64207619Y-113646499D01*
X64187077Y-113714459D01*
X64134873Y-113759695D01*
X64029811Y-113808686D01*
X64029806Y-113808689D01*
X64024824Y-113811012D01*
X64020317Y-113814168D01*
X64020315Y-113814169D01*
X63847230Y-113935364D01*
X63847227Y-113935366D01*
X63842719Y-113938523D01*
X63685523Y-114095719D01*
X63682366Y-114100227D01*
X63682364Y-114100230D01*
X63561651Y-114272627D01*
X63558012Y-114277824D01*
X63555689Y-114282806D01*
X63555686Y-114282811D01*
X63471085Y-114464239D01*
X63464060Y-114479304D01*
X63406522Y-114694037D01*
X63387147Y-114915500D01*
X63406522Y-115136963D01*
X63464060Y-115351696D01*
X63466382Y-115356677D01*
X63466383Y-115356678D01*
X63555686Y-115548189D01*
X63555689Y-115548194D01*
X63558012Y-115553176D01*
X63561168Y-115557683D01*
X63561169Y-115557685D01*
X63675885Y-115721516D01*
X63685523Y-115735281D01*
X63842719Y-115892477D01*
X63847227Y-115895634D01*
X63847230Y-115895636D01*
X63906907Y-115937422D01*
X64024823Y-116019988D01*
X64029805Y-116022311D01*
X64029810Y-116022314D01*
X64134873Y-116071305D01*
X64188158Y-116118222D01*
X64207619Y-116186499D01*
X64187077Y-116254459D01*
X64134873Y-116299695D01*
X64029811Y-116348686D01*
X64029806Y-116348689D01*
X64024824Y-116351012D01*
X64020317Y-116354168D01*
X64020315Y-116354169D01*
X63847230Y-116475364D01*
X63847227Y-116475366D01*
X63842719Y-116478523D01*
X63685523Y-116635719D01*
X63682366Y-116640227D01*
X63682364Y-116640230D01*
X63561169Y-116813315D01*
X63558012Y-116817824D01*
X63555689Y-116822806D01*
X63555686Y-116822811D01*
X63471721Y-117002875D01*
X63464060Y-117019304D01*
X63462638Y-117024612D01*
X63462637Y-117024614D01*
X63458713Y-117039258D01*
X63406522Y-117234037D01*
X63406043Y-117239514D01*
X63405472Y-117242752D01*
X63370481Y-117309971D01*
X62971767Y-117708685D01*
X62961625Y-117717786D01*
X62931851Y-117741725D01*
X62899313Y-117780502D01*
X62896149Y-117784129D01*
X62894454Y-117785998D01*
X62892260Y-117788192D01*
X62864695Y-117821749D01*
X62863979Y-117822611D01*
X62853519Y-117835076D01*
X62794408Y-117874401D01*
X62723421Y-117875525D01*
X62663094Y-117838092D01*
X62632582Y-117773987D01*
X62631000Y-117754082D01*
X62631000Y-97262000D01*
X62651002Y-97193879D01*
X62704658Y-97147386D01*
X62757000Y-97136000D01*
X118638000Y-97136000D01*
X118706121Y-97156002D01*
G37*
G04 #@! TD.AperFunction*
G04 #@! TA.AperFunction,Conductor*
G36*
X71179018Y-105411002D02*
G01*
X71214110Y-105444730D01*
X71302360Y-105570765D01*
X71302364Y-105570770D01*
X71305523Y-105575281D01*
X71462719Y-105732477D01*
X71467227Y-105735634D01*
X71467230Y-105735636D01*
X71527144Y-105777588D01*
X71644823Y-105859988D01*
X71649805Y-105862311D01*
X71649810Y-105862314D01*
X71754873Y-105911305D01*
X71808158Y-105958222D01*
X71827619Y-106026499D01*
X71807077Y-106094459D01*
X71754873Y-106139695D01*
X71649811Y-106188686D01*
X71649806Y-106188689D01*
X71644824Y-106191012D01*
X71640317Y-106194168D01*
X71640315Y-106194169D01*
X71467230Y-106315364D01*
X71467227Y-106315366D01*
X71462719Y-106318523D01*
X71305523Y-106475719D01*
X71302366Y-106480227D01*
X71302364Y-106480230D01*
X71203692Y-106621149D01*
X71178012Y-106657824D01*
X71175689Y-106662806D01*
X71175686Y-106662811D01*
X71158811Y-106699000D01*
X71084060Y-106859304D01*
X71026522Y-107074037D01*
X71007147Y-107295500D01*
X71026522Y-107516963D01*
X71040659Y-107569722D01*
X71072336Y-107687940D01*
X71084060Y-107731696D01*
X71086382Y-107736677D01*
X71086383Y-107736678D01*
X71175686Y-107928189D01*
X71175689Y-107928194D01*
X71178012Y-107933176D01*
X71181168Y-107937683D01*
X71181169Y-107937685D01*
X71295885Y-108101516D01*
X71305523Y-108115281D01*
X71462719Y-108272477D01*
X71467227Y-108275634D01*
X71467230Y-108275636D01*
X71478928Y-108283827D01*
X71644823Y-108399988D01*
X71649805Y-108402311D01*
X71649810Y-108402314D01*
X71755465Y-108451581D01*
X71808750Y-108498498D01*
X71828211Y-108566775D01*
X71807669Y-108634735D01*
X71755465Y-108679971D01*
X71650059Y-108729123D01*
X71640568Y-108734603D01*
X71596735Y-108765294D01*
X71588360Y-108775771D01*
X71595428Y-108789218D01*
X72269688Y-109463478D01*
X72283632Y-109471092D01*
X72285465Y-109470961D01*
X72292080Y-109466710D01*
X72970293Y-108788497D01*
X72986612Y-108758612D01*
X73036815Y-108708411D01*
X73097199Y-108692999D01*
X73868240Y-108692999D01*
X78142000Y-108693000D01*
X78210121Y-108713002D01*
X78256614Y-108766658D01*
X78268000Y-108819000D01*
X78268000Y-108955634D01*
X78274755Y-109017816D01*
X78325885Y-109154205D01*
X78362499Y-109203059D01*
X78399130Y-109251935D01*
X78423978Y-109318441D01*
X78408925Y-109387824D01*
X78399132Y-109403062D01*
X78325885Y-109500795D01*
X78274755Y-109637184D01*
X78268000Y-109699366D01*
X78268000Y-109836000D01*
X78247998Y-109904121D01*
X78194342Y-109950614D01*
X78142000Y-109962000D01*
X76679520Y-109962000D01*
X76668286Y-109961470D01*
X76660781Y-109959792D01*
X76593071Y-109961920D01*
X76592488Y-109961938D01*
X76588531Y-109962000D01*
X76560517Y-109962000D01*
X76556592Y-109962496D01*
X76556591Y-109962496D01*
X76556496Y-109962508D01*
X76544651Y-109963441D01*
X76514830Y-109964378D01*
X76508218Y-109964586D01*
X76508217Y-109964586D01*
X76500295Y-109964835D01*
X76480752Y-109970513D01*
X76461388Y-109974523D01*
X76449060Y-109976080D01*
X76449058Y-109976080D01*
X76441201Y-109977073D01*
X76433837Y-109979989D01*
X76433832Y-109979990D01*
X76399944Y-109993407D01*
X76388715Y-109997252D01*
X76374741Y-110001312D01*
X76346107Y-110009631D01*
X76339281Y-110013668D01*
X76328591Y-110019990D01*
X76310841Y-110028687D01*
X76291912Y-110036181D01*
X76256113Y-110062191D01*
X76256019Y-110062259D01*
X76246095Y-110068778D01*
X76214724Y-110087330D01*
X76214719Y-110087334D01*
X76207901Y-110091366D01*
X76193514Y-110105753D01*
X76178480Y-110118594D01*
X76162013Y-110130558D01*
X76156960Y-110136666D01*
X76133728Y-110164749D01*
X76125738Y-110173529D01*
X73767558Y-112531709D01*
X73705246Y-112565735D01*
X73634431Y-112560670D01*
X73577595Y-112518123D01*
X73552784Y-112451603D01*
X73552942Y-112431632D01*
X73557374Y-112380974D01*
X73557853Y-112375500D01*
X73538478Y-112154037D01*
X73480940Y-111939304D01*
X73473915Y-111924239D01*
X73389314Y-111742811D01*
X73389311Y-111742806D01*
X73386988Y-111737824D01*
X73382512Y-111731431D01*
X73262636Y-111560230D01*
X73262634Y-111560227D01*
X73259477Y-111555719D01*
X73102281Y-111398523D01*
X73097773Y-111395366D01*
X73097770Y-111395364D01*
X72988602Y-111318924D01*
X72920177Y-111271012D01*
X72915195Y-111268689D01*
X72915190Y-111268686D01*
X72809535Y-111219419D01*
X72756250Y-111172502D01*
X72736789Y-111104225D01*
X72757331Y-111036265D01*
X72809535Y-110991029D01*
X72914945Y-110941876D01*
X72924431Y-110936398D01*
X72968264Y-110905707D01*
X72976639Y-110895229D01*
X72969571Y-110881781D01*
X72295312Y-110207522D01*
X72281368Y-110199908D01*
X72279535Y-110200039D01*
X72272920Y-110204290D01*
X71594707Y-110882503D01*
X71588277Y-110894277D01*
X71597574Y-110906293D01*
X71640569Y-110936398D01*
X71650055Y-110941876D01*
X71755465Y-110991029D01*
X71808750Y-111037946D01*
X71828211Y-111106223D01*
X71807669Y-111174183D01*
X71755465Y-111219419D01*
X71649811Y-111268686D01*
X71649806Y-111268689D01*
X71644824Y-111271012D01*
X71640317Y-111274168D01*
X71640315Y-111274169D01*
X71467230Y-111395364D01*
X71467227Y-111395366D01*
X71462719Y-111398523D01*
X71305523Y-111555719D01*
X71302366Y-111560227D01*
X71302364Y-111560230D01*
X71182488Y-111731431D01*
X71178012Y-111737824D01*
X71175689Y-111742806D01*
X71175686Y-111742811D01*
X71091085Y-111924239D01*
X71084060Y-111939304D01*
X71026522Y-112154037D01*
X71007147Y-112375500D01*
X71026522Y-112596963D01*
X71027945Y-112602273D01*
X71027946Y-112602280D01*
X71036388Y-112633786D01*
X71034698Y-112704763D01*
X71003776Y-112755491D01*
X69857017Y-113902250D01*
X69848691Y-113909826D01*
X69842197Y-113913947D01*
X69836774Y-113919722D01*
X69795415Y-113963765D01*
X69792660Y-113966607D01*
X69772861Y-113986406D01*
X69770437Y-113989531D01*
X69770429Y-113989540D01*
X69770363Y-113989626D01*
X69762655Y-113998651D01*
X69732283Y-114030994D01*
X69728465Y-114037938D01*
X69728464Y-114037940D01*
X69722478Y-114048829D01*
X69711627Y-114065347D01*
X69699150Y-114081433D01*
X69681524Y-114122166D01*
X69676307Y-114132814D01*
X69654931Y-114171697D01*
X69652960Y-114179372D01*
X69652958Y-114179378D01*
X69649869Y-114191411D01*
X69643466Y-114210113D01*
X69635383Y-114228792D01*
X69630024Y-114262628D01*
X69628440Y-114272627D01*
X69626035Y-114284240D01*
X69615000Y-114327218D01*
X69615000Y-114347565D01*
X69613449Y-114367276D01*
X69610265Y-114387379D01*
X69611011Y-114395271D01*
X69614441Y-114431556D01*
X69615000Y-114443414D01*
X69615000Y-119916480D01*
X69614470Y-119927714D01*
X69612792Y-119935219D01*
X69613041Y-119943138D01*
X69614938Y-120003512D01*
X69615000Y-120007469D01*
X69615000Y-120035483D01*
X69615496Y-120039408D01*
X69615496Y-120039409D01*
X69615508Y-120039504D01*
X69616441Y-120051349D01*
X69617835Y-120095705D01*
X69620047Y-120103317D01*
X69623513Y-120115248D01*
X69627523Y-120134612D01*
X69630073Y-120154799D01*
X69632989Y-120162163D01*
X69632990Y-120162168D01*
X69646407Y-120196056D01*
X69650252Y-120207285D01*
X69662631Y-120249893D01*
X69666669Y-120256720D01*
X69666670Y-120256723D01*
X69672988Y-120267406D01*
X69681688Y-120285164D01*
X69686261Y-120296715D01*
X69686265Y-120296721D01*
X69689181Y-120304088D01*
X69693839Y-120310499D01*
X69693840Y-120310501D01*
X69704685Y-120325427D01*
X69711992Y-120335484D01*
X69715264Y-120339988D01*
X69721781Y-120349910D01*
X69740326Y-120381268D01*
X69740329Y-120381272D01*
X69744366Y-120388098D01*
X69758750Y-120402482D01*
X69771591Y-120417516D01*
X69783558Y-120433987D01*
X69810512Y-120456285D01*
X69817750Y-120462273D01*
X69826531Y-120470263D01*
X70340096Y-120983829D01*
X70374121Y-121046141D01*
X70377000Y-121072924D01*
X70377000Y-126294078D01*
X70356998Y-126362199D01*
X70340095Y-126383173D01*
X69541162Y-127182106D01*
X69478850Y-127216132D01*
X69408035Y-127211067D01*
X69351199Y-127168520D01*
X69326491Y-127103335D01*
X69322373Y-127053235D01*
X69309352Y-126894861D01*
X69254931Y-126678202D01*
X69165854Y-126473340D01*
X69093954Y-126362199D01*
X69047322Y-126290117D01*
X69047320Y-126290114D01*
X69044514Y-126285777D01*
X69041040Y-126281959D01*
X69041033Y-126281950D01*
X68896935Y-126123588D01*
X68865883Y-126059742D01*
X68874279Y-125989244D01*
X68919456Y-125934476D01*
X68945900Y-125920807D01*
X69052552Y-125880825D01*
X69068149Y-125872286D01*
X69170224Y-125795785D01*
X69182785Y-125783224D01*
X69259286Y-125681149D01*
X69267824Y-125665554D01*
X69312978Y-125545106D01*
X69316605Y-125529851D01*
X69322131Y-125478986D01*
X69322500Y-125472172D01*
X69322500Y-124849615D01*
X69318025Y-124834376D01*
X69316635Y-124833171D01*
X69308952Y-124831500D01*
X67836500Y-124831500D01*
X67768379Y-124811498D01*
X67721886Y-124757842D01*
X67710500Y-124705500D01*
X67710500Y-124305385D01*
X68218500Y-124305385D01*
X68222975Y-124320624D01*
X68224365Y-124321829D01*
X68232048Y-124323500D01*
X69304384Y-124323500D01*
X69319623Y-124319025D01*
X69320828Y-124317635D01*
X69322499Y-124309952D01*
X69322499Y-123682831D01*
X69322129Y-123676010D01*
X69316605Y-123625148D01*
X69312979Y-123609896D01*
X69267824Y-123489446D01*
X69259286Y-123473851D01*
X69182785Y-123371776D01*
X69170224Y-123359215D01*
X69068149Y-123282714D01*
X69052554Y-123274176D01*
X68932106Y-123229022D01*
X68916851Y-123225395D01*
X68865986Y-123219869D01*
X68859172Y-123219500D01*
X68236615Y-123219500D01*
X68221376Y-123223975D01*
X68220171Y-123225365D01*
X68218500Y-123233048D01*
X68218500Y-124305385D01*
X67710500Y-124305385D01*
X67710500Y-123237616D01*
X67706025Y-123222377D01*
X67704635Y-123221172D01*
X67696952Y-123219501D01*
X67069831Y-123219501D01*
X67063010Y-123219871D01*
X67012148Y-123225395D01*
X66996896Y-123229021D01*
X66876446Y-123274176D01*
X66860851Y-123282714D01*
X66758776Y-123359215D01*
X66746219Y-123371772D01*
X66667827Y-123476371D01*
X66610967Y-123518886D01*
X66540149Y-123523912D01*
X66477855Y-123489852D01*
X66443865Y-123427521D01*
X66441000Y-123400806D01*
X66441000Y-121961923D01*
X66461002Y-121893802D01*
X66477905Y-121872827D01*
X66776588Y-121574145D01*
X67087988Y-121262745D01*
X67096307Y-121255175D01*
X67102803Y-121251053D01*
X67149586Y-121201234D01*
X67152340Y-121198393D01*
X67172139Y-121178594D01*
X67174563Y-121175469D01*
X67174571Y-121175460D01*
X67174637Y-121175374D01*
X67182345Y-121166349D01*
X67194930Y-121152947D01*
X67212717Y-121134006D01*
X67222523Y-121116169D01*
X67233373Y-121099653D01*
X67245850Y-121083567D01*
X67263476Y-121042834D01*
X67268693Y-121032186D01*
X67286249Y-121000251D01*
X67290069Y-120993303D01*
X67292040Y-120985628D01*
X67292042Y-120985622D01*
X67295131Y-120973589D01*
X67301534Y-120954887D01*
X67309617Y-120936208D01*
X67316560Y-120892373D01*
X67318967Y-120880751D01*
X67330000Y-120837782D01*
X67330000Y-120817435D01*
X67331551Y-120797724D01*
X67333495Y-120785450D01*
X67334735Y-120777621D01*
X67330559Y-120733444D01*
X67330000Y-120721586D01*
X67330000Y-109840975D01*
X71008128Y-109840975D01*
X71026538Y-110051396D01*
X71028441Y-110062191D01*
X71083109Y-110266215D01*
X71086855Y-110276507D01*
X71176123Y-110467941D01*
X71181603Y-110477432D01*
X71212294Y-110521265D01*
X71222771Y-110529640D01*
X71236218Y-110522572D01*
X71910478Y-109848312D01*
X71916856Y-109836632D01*
X72646908Y-109836632D01*
X72647039Y-109838465D01*
X72651290Y-109845080D01*
X73329503Y-110523293D01*
X73341277Y-110529723D01*
X73353293Y-110520426D01*
X73383397Y-110477432D01*
X73388877Y-110467941D01*
X73478145Y-110276507D01*
X73481891Y-110266215D01*
X73536559Y-110062191D01*
X73538462Y-110051396D01*
X73556872Y-109840975D01*
X73556872Y-109830025D01*
X73538462Y-109619604D01*
X73536559Y-109608809D01*
X73481891Y-109404785D01*
X73478145Y-109394493D01*
X73388877Y-109203059D01*
X73383397Y-109193568D01*
X73352706Y-109149735D01*
X73342229Y-109141360D01*
X73328782Y-109148428D01*
X72654522Y-109822688D01*
X72646908Y-109836632D01*
X71916856Y-109836632D01*
X71918092Y-109834368D01*
X71917961Y-109832535D01*
X71913710Y-109825920D01*
X71235497Y-109147707D01*
X71223723Y-109141277D01*
X71211707Y-109150574D01*
X71181603Y-109193568D01*
X71176123Y-109203059D01*
X71086855Y-109394493D01*
X71083109Y-109404785D01*
X71028441Y-109608809D01*
X71026538Y-109619604D01*
X71008128Y-109830025D01*
X71008128Y-109840975D01*
X67330000Y-109840975D01*
X67330000Y-108372922D01*
X67350002Y-108304801D01*
X67366905Y-108283827D01*
X70222827Y-105427905D01*
X70285139Y-105393879D01*
X70311922Y-105391000D01*
X71110897Y-105391000D01*
X71179018Y-105411002D01*
G37*
G04 #@! TD.AperFunction*
M02*
