G04 #@! TF.GenerationSoftware,KiCad,Pcbnew,(6.0.6)*
G04 #@! TF.CreationDate,2022-11-09T14:25:11-05:00*
G04 #@! TF.ProjectId,pov_display,706f765f-6469-4737-906c-61792e6b6963,v01*
G04 #@! TF.SameCoordinates,Original*
G04 #@! TF.FileFunction,Legend,Top*
G04 #@! TF.FilePolarity,Positive*
%FSLAX46Y46*%
G04 Gerber Fmt 4.6, Leading zero omitted, Abs format (unit mm)*
G04 Created by KiCad (PCBNEW (6.0.6)) date 2022-11-09 14:25:11*
%MOMM*%
%LPD*%
G01*
G04 APERTURE LIST*
G04 Aperture macros list*
%AMRoundRect*
0 Rectangle with rounded corners*
0 $1 Rounding radius*
0 $2 $3 $4 $5 $6 $7 $8 $9 X,Y pos of 4 corners*
0 Add a 4 corners polygon primitive as box body*
4,1,4,$2,$3,$4,$5,$6,$7,$8,$9,$2,$3,0*
0 Add four circle primitives for the rounded corners*
1,1,$1+$1,$2,$3*
1,1,$1+$1,$4,$5*
1,1,$1+$1,$6,$7*
1,1,$1+$1,$8,$9*
0 Add four rect primitives between the rounded corners*
20,1,$1+$1,$2,$3,$4,$5,0*
20,1,$1+$1,$4,$5,$6,$7,0*
20,1,$1+$1,$6,$7,$8,$9,0*
20,1,$1+$1,$8,$9,$2,$3,0*%
G04 Aperture macros list end*
%ADD10C,0.300000*%
%ADD11C,0.150000*%
%ADD12C,0.120000*%
%ADD13C,0.203200*%
%ADD14C,1.701600*%
%ADD15O,1.701600X1.701600*%
%ADD16C,1.625600*%
%ADD17RoundRect,0.050800X1.300000X1.300000X-1.300000X1.300000X-1.300000X-1.300000X1.300000X-1.300000X0*%
%ADD18C,2.701600*%
%ADD19RoundRect,0.050800X-0.750000X0.750000X-0.750000X-0.750000X0.750000X-0.750000X0.750000X0.750000X0*%
%ADD20C,1.601600*%
%ADD21O,1.601600X1.601600*%
%ADD22O,1.901600X1.901600*%
%ADD23O,1.801600X1.801600*%
%ADD24RoundRect,0.050800X-1.750000X-0.850000X1.750000X-0.850000X1.750000X0.850000X-1.750000X0.850000X0*%
%ADD25RoundRect,0.050800X-0.850000X-0.850000X0.850000X-0.850000X0.850000X0.850000X-0.850000X0.850000X0*%
%ADD26RoundRect,0.050800X0.850000X-1.750000X0.850000X1.750000X-0.850000X1.750000X-0.850000X-1.750000X0*%
%ADD27RoundRect,0.050800X-1.300000X-1.300000X1.300000X-1.300000X1.300000X1.300000X-1.300000X1.300000X0*%
%ADD28O,2.701600X2.701600*%
%ADD29C,2.101600*%
G04 APERTURE END LIST*
D10*
X67667428Y-138021142D02*
X67881714Y-138092571D01*
X68238857Y-138092571D01*
X68381714Y-138021142D01*
X68453142Y-137949714D01*
X68524571Y-137806857D01*
X68524571Y-137664000D01*
X68453142Y-137521142D01*
X68381714Y-137449714D01*
X68238857Y-137378285D01*
X67953142Y-137306857D01*
X67810285Y-137235428D01*
X67738857Y-137164000D01*
X67667428Y-137021142D01*
X67667428Y-136878285D01*
X67738857Y-136735428D01*
X67810285Y-136664000D01*
X67953142Y-136592571D01*
X68310285Y-136592571D01*
X68524571Y-136664000D01*
X70024571Y-137949714D02*
X69953142Y-138021142D01*
X69738857Y-138092571D01*
X69596000Y-138092571D01*
X69381714Y-138021142D01*
X69238857Y-137878285D01*
X69167428Y-137735428D01*
X69096000Y-137449714D01*
X69096000Y-137235428D01*
X69167428Y-136949714D01*
X69238857Y-136806857D01*
X69381714Y-136664000D01*
X69596000Y-136592571D01*
X69738857Y-136592571D01*
X69953142Y-136664000D01*
X70024571Y-136735428D01*
X70667428Y-138092571D02*
X70667428Y-136592571D01*
X71524571Y-138092571D02*
X70881714Y-137235428D01*
X71524571Y-136592571D02*
X70667428Y-137449714D01*
X66984857Y-141140571D02*
X66984857Y-139640571D01*
X67484857Y-140712000D01*
X67984857Y-139640571D01*
X67984857Y-141140571D01*
X68984857Y-139640571D02*
X69270571Y-139640571D01*
X69413428Y-139712000D01*
X69556285Y-139854857D01*
X69627714Y-140140571D01*
X69627714Y-140640571D01*
X69556285Y-140926285D01*
X69413428Y-141069142D01*
X69270571Y-141140571D01*
X68984857Y-141140571D01*
X68842000Y-141069142D01*
X68699142Y-140926285D01*
X68627714Y-140640571D01*
X68627714Y-140140571D01*
X68699142Y-139854857D01*
X68842000Y-139712000D01*
X68984857Y-139640571D01*
X70199142Y-141069142D02*
X70413428Y-141140571D01*
X70770571Y-141140571D01*
X70913428Y-141069142D01*
X70984857Y-140997714D01*
X71056285Y-140854857D01*
X71056285Y-140712000D01*
X70984857Y-140569142D01*
X70913428Y-140497714D01*
X70770571Y-140426285D01*
X70484857Y-140354857D01*
X70342000Y-140283428D01*
X70270571Y-140212000D01*
X70199142Y-140069142D01*
X70199142Y-139926285D01*
X70270571Y-139783428D01*
X70342000Y-139712000D01*
X70484857Y-139640571D01*
X70842000Y-139640571D01*
X71056285Y-139712000D01*
X71699142Y-141140571D02*
X71699142Y-139640571D01*
X61016571Y-165889714D02*
X60945142Y-165961142D01*
X60730857Y-166032571D01*
X60588000Y-166032571D01*
X60373714Y-165961142D01*
X60230857Y-165818285D01*
X60159428Y-165675428D01*
X60088000Y-165389714D01*
X60088000Y-165175428D01*
X60159428Y-164889714D01*
X60230857Y-164746857D01*
X60373714Y-164604000D01*
X60588000Y-164532571D01*
X60730857Y-164532571D01*
X60945142Y-164604000D01*
X61016571Y-164675428D01*
X61945142Y-164532571D02*
X62230857Y-164532571D01*
X62373714Y-164604000D01*
X62516571Y-164746857D01*
X62588000Y-165032571D01*
X62588000Y-165532571D01*
X62516571Y-165818285D01*
X62373714Y-165961142D01*
X62230857Y-166032571D01*
X61945142Y-166032571D01*
X61802285Y-165961142D01*
X61659428Y-165818285D01*
X61588000Y-165532571D01*
X61588000Y-165032571D01*
X61659428Y-164746857D01*
X61802285Y-164604000D01*
X61945142Y-164532571D01*
X63230857Y-166032571D02*
X63230857Y-164532571D01*
X64088000Y-166032571D01*
X64088000Y-164532571D01*
X64588000Y-164532571D02*
X65445142Y-164532571D01*
X65016571Y-166032571D02*
X65016571Y-164532571D01*
X66802285Y-166032571D02*
X66302285Y-165318285D01*
X65945142Y-166032571D02*
X65945142Y-164532571D01*
X66516571Y-164532571D01*
X66659428Y-164604000D01*
X66730857Y-164675428D01*
X66802285Y-164818285D01*
X66802285Y-165032571D01*
X66730857Y-165175428D01*
X66659428Y-165246857D01*
X66516571Y-165318285D01*
X65945142Y-165318285D01*
X67730857Y-164532571D02*
X68016571Y-164532571D01*
X68159428Y-164604000D01*
X68302285Y-164746857D01*
X68373714Y-165032571D01*
X68373714Y-165532571D01*
X68302285Y-165818285D01*
X68159428Y-165961142D01*
X68016571Y-166032571D01*
X67730857Y-166032571D01*
X67588000Y-165961142D01*
X67445142Y-165818285D01*
X67373714Y-165532571D01*
X67373714Y-165032571D01*
X67445142Y-164746857D01*
X67588000Y-164604000D01*
X67730857Y-164532571D01*
X69730857Y-166032571D02*
X69016571Y-166032571D01*
X69016571Y-164532571D01*
X71873714Y-165246857D02*
X72088000Y-165318285D01*
X72159428Y-165389714D01*
X72230857Y-165532571D01*
X72230857Y-165746857D01*
X72159428Y-165889714D01*
X72088000Y-165961142D01*
X71945142Y-166032571D01*
X71373714Y-166032571D01*
X71373714Y-164532571D01*
X71873714Y-164532571D01*
X72016571Y-164604000D01*
X72088000Y-164675428D01*
X72159428Y-164818285D01*
X72159428Y-164961142D01*
X72088000Y-165104000D01*
X72016571Y-165175428D01*
X71873714Y-165246857D01*
X71373714Y-165246857D01*
X73159428Y-164532571D02*
X73445142Y-164532571D01*
X73588000Y-164604000D01*
X73730857Y-164746857D01*
X73802285Y-165032571D01*
X73802285Y-165532571D01*
X73730857Y-165818285D01*
X73588000Y-165961142D01*
X73445142Y-166032571D01*
X73159428Y-166032571D01*
X73016571Y-165961142D01*
X72873714Y-165818285D01*
X72802285Y-165532571D01*
X72802285Y-165032571D01*
X72873714Y-164746857D01*
X73016571Y-164604000D01*
X73159428Y-164532571D01*
X74373714Y-165604000D02*
X75088000Y-165604000D01*
X74230857Y-166032571D02*
X74730857Y-164532571D01*
X75230857Y-166032571D01*
X76588000Y-166032571D02*
X76088000Y-165318285D01*
X75730857Y-166032571D02*
X75730857Y-164532571D01*
X76302285Y-164532571D01*
X76445142Y-164604000D01*
X76516571Y-164675428D01*
X76588000Y-164818285D01*
X76588000Y-165032571D01*
X76516571Y-165175428D01*
X76445142Y-165246857D01*
X76302285Y-165318285D01*
X75730857Y-165318285D01*
X77230857Y-166032571D02*
X77230857Y-164532571D01*
X77588000Y-164532571D01*
X77802285Y-164604000D01*
X77945142Y-164746857D01*
X78016571Y-164889714D01*
X78088000Y-165175428D01*
X78088000Y-165389714D01*
X78016571Y-165675428D01*
X77945142Y-165818285D01*
X77802285Y-165961142D01*
X77588000Y-166032571D01*
X77230857Y-166032571D01*
X68453142Y-142506000D02*
X68310285Y-142434571D01*
X68096000Y-142434571D01*
X67881714Y-142506000D01*
X67738857Y-142648857D01*
X67667428Y-142791714D01*
X67596000Y-143077428D01*
X67596000Y-143291714D01*
X67667428Y-143577428D01*
X67738857Y-143720285D01*
X67881714Y-143863142D01*
X68096000Y-143934571D01*
X68238857Y-143934571D01*
X68453142Y-143863142D01*
X68524571Y-143791714D01*
X68524571Y-143291714D01*
X68238857Y-143291714D01*
X69167428Y-143934571D02*
X69167428Y-142434571D01*
X70024571Y-143934571D01*
X70024571Y-142434571D01*
X70738857Y-143934571D02*
X70738857Y-142434571D01*
X71096000Y-142434571D01*
X71310285Y-142506000D01*
X71453142Y-142648857D01*
X71524571Y-142791714D01*
X71596000Y-143077428D01*
X71596000Y-143291714D01*
X71524571Y-143577428D01*
X71453142Y-143720285D01*
X71310285Y-143863142D01*
X71096000Y-143934571D01*
X70738857Y-143934571D01*
X91036357Y-165246857D02*
X91536357Y-165246857D01*
X91750642Y-166032571D02*
X91036357Y-166032571D01*
X91036357Y-164532571D01*
X91750642Y-164532571D01*
X93250642Y-165889714D02*
X93179214Y-165961142D01*
X92964928Y-166032571D01*
X92822071Y-166032571D01*
X92607785Y-165961142D01*
X92464928Y-165818285D01*
X92393500Y-165675428D01*
X92322071Y-165389714D01*
X92322071Y-165175428D01*
X92393500Y-164889714D01*
X92464928Y-164746857D01*
X92607785Y-164604000D01*
X92822071Y-164532571D01*
X92964928Y-164532571D01*
X93179214Y-164604000D01*
X93250642Y-164675428D01*
X93893500Y-165246857D02*
X94393500Y-165246857D01*
X94607785Y-166032571D02*
X93893500Y-166032571D01*
X93893500Y-164532571D01*
X94607785Y-164532571D01*
X97036357Y-165032571D02*
X97036357Y-166032571D01*
X96679214Y-164461142D02*
X96322071Y-165532571D01*
X97250642Y-165532571D01*
X97679214Y-164532571D02*
X98679214Y-164532571D01*
X98036357Y-166032571D01*
X99893500Y-164532571D02*
X99607785Y-164532571D01*
X99464928Y-164604000D01*
X99393500Y-164675428D01*
X99250642Y-164889714D01*
X99179214Y-165175428D01*
X99179214Y-165746857D01*
X99250642Y-165889714D01*
X99322071Y-165961142D01*
X99464928Y-166032571D01*
X99750642Y-166032571D01*
X99893500Y-165961142D01*
X99964928Y-165889714D01*
X100036357Y-165746857D01*
X100036357Y-165389714D01*
X99964928Y-165246857D01*
X99893500Y-165175428D01*
X99750642Y-165104000D01*
X99464928Y-165104000D01*
X99322071Y-165175428D01*
X99250642Y-165246857D01*
X99179214Y-165389714D01*
X100964928Y-164532571D02*
X101107785Y-164532571D01*
X101250642Y-164604000D01*
X101322071Y-164675428D01*
X101393500Y-164818285D01*
X101464928Y-165104000D01*
X101464928Y-165461142D01*
X101393500Y-165746857D01*
X101322071Y-165889714D01*
X101250642Y-165961142D01*
X101107785Y-166032571D01*
X100964928Y-166032571D01*
X100822071Y-165961142D01*
X100750642Y-165889714D01*
X100679214Y-165746857D01*
X100607785Y-165461142D01*
X100607785Y-165104000D01*
X100679214Y-164818285D01*
X100750642Y-164675428D01*
X100822071Y-164604000D01*
X100964928Y-164532571D01*
X103250642Y-165889714D02*
X103322071Y-165961142D01*
X103250642Y-166032571D01*
X103179214Y-165961142D01*
X103250642Y-165889714D01*
X103250642Y-166032571D01*
X103250642Y-165104000D02*
X103322071Y-165175428D01*
X103250642Y-165246857D01*
X103179214Y-165175428D01*
X103250642Y-165104000D01*
X103250642Y-165246857D01*
X103822071Y-166604000D02*
X103893500Y-166532571D01*
X104036357Y-166318285D01*
X104107785Y-166175428D01*
X104179214Y-165961142D01*
X104250642Y-165604000D01*
X104250642Y-165318285D01*
X104179214Y-164961142D01*
X104107785Y-164746857D01*
X104036357Y-164604000D01*
X103893500Y-164389714D01*
X103822071Y-164318285D01*
X68008571Y-134981142D02*
X69151428Y-134981142D01*
X68580000Y-135552571D02*
X68580000Y-134409714D01*
D11*
X106053880Y-155761166D02*
X105577690Y-156094500D01*
X106053880Y-156332595D02*
X105053880Y-156332595D01*
X105053880Y-155951642D01*
X105101500Y-155856404D01*
X105149119Y-155808785D01*
X105244357Y-155761166D01*
X105387214Y-155761166D01*
X105482452Y-155808785D01*
X105530071Y-155856404D01*
X105577690Y-155951642D01*
X105577690Y-156332595D01*
X106053880Y-154808785D02*
X106053880Y-155380214D01*
X106053880Y-155094500D02*
X105053880Y-155094500D01*
X105196738Y-155189738D01*
X105291976Y-155284976D01*
X105339595Y-155380214D01*
X57618380Y-121411904D02*
X58427904Y-121411904D01*
X58523142Y-121364285D01*
X58570761Y-121316666D01*
X58618380Y-121221428D01*
X58618380Y-121030952D01*
X58570761Y-120935714D01*
X58523142Y-120888095D01*
X58427904Y-120840476D01*
X57618380Y-120840476D01*
X57713619Y-120411904D02*
X57666000Y-120364285D01*
X57618380Y-120269047D01*
X57618380Y-120030952D01*
X57666000Y-119935714D01*
X57713619Y-119888095D01*
X57808857Y-119840476D01*
X57904095Y-119840476D01*
X58046952Y-119888095D01*
X58618380Y-120459523D01*
X58618380Y-119840476D01*
X106807333Y-124269142D02*
X106759714Y-124316761D01*
X106616857Y-124364380D01*
X106521619Y-124364380D01*
X106378761Y-124316761D01*
X106283523Y-124221523D01*
X106235904Y-124126285D01*
X106188285Y-123935809D01*
X106188285Y-123792952D01*
X106235904Y-123602476D01*
X106283523Y-123507238D01*
X106378761Y-123412000D01*
X106521619Y-123364380D01*
X106616857Y-123364380D01*
X106759714Y-123412000D01*
X106807333Y-123459619D01*
X107759714Y-124364380D02*
X107188285Y-124364380D01*
X107474000Y-124364380D02*
X107474000Y-123364380D01*
X107378761Y-123507238D01*
X107283523Y-123602476D01*
X107188285Y-123650095D01*
X106640666Y-118304380D02*
X106640666Y-119018666D01*
X106593047Y-119161523D01*
X106497809Y-119256761D01*
X106354952Y-119304380D01*
X106259714Y-119304380D01*
X107021619Y-118304380D02*
X107640666Y-118304380D01*
X107307333Y-118685333D01*
X107450190Y-118685333D01*
X107545428Y-118732952D01*
X107593047Y-118780571D01*
X107640666Y-118875809D01*
X107640666Y-119113904D01*
X107593047Y-119209142D01*
X107545428Y-119256761D01*
X107450190Y-119304380D01*
X107164476Y-119304380D01*
X107069238Y-119256761D01*
X107021619Y-119209142D01*
X112233880Y-161182404D02*
X113043404Y-161182404D01*
X113138642Y-161134785D01*
X113186261Y-161087166D01*
X113233880Y-160991928D01*
X113233880Y-160801452D01*
X113186261Y-160706214D01*
X113138642Y-160658595D01*
X113043404Y-160610976D01*
X112233880Y-160610976D01*
X112233880Y-160230023D02*
X112233880Y-159610976D01*
X112614833Y-159944309D01*
X112614833Y-159801452D01*
X112662452Y-159706214D01*
X112710071Y-159658595D01*
X112805309Y-159610976D01*
X113043404Y-159610976D01*
X113138642Y-159658595D01*
X113186261Y-159706214D01*
X113233880Y-159801452D01*
X113233880Y-160087166D01*
X113186261Y-160182404D01*
X113138642Y-160230023D01*
X85344095Y-134834380D02*
X85344095Y-135643904D01*
X85391714Y-135739142D01*
X85439333Y-135786761D01*
X85534571Y-135834380D01*
X85725047Y-135834380D01*
X85820285Y-135786761D01*
X85867904Y-135739142D01*
X85915523Y-135643904D01*
X85915523Y-134834380D01*
X86915523Y-135834380D02*
X86344095Y-135834380D01*
X86629809Y-135834380D02*
X86629809Y-134834380D01*
X86534571Y-134977238D01*
X86439333Y-135072476D01*
X86344095Y-135120095D01*
X98192158Y-116480155D02*
X98111346Y-116507093D01*
X98030534Y-116587905D01*
X97976659Y-116695654D01*
X97976659Y-116803404D01*
X98003597Y-116884216D01*
X98084409Y-117018903D01*
X98165221Y-117099715D01*
X98299908Y-117180528D01*
X98380720Y-117207465D01*
X98488470Y-117207465D01*
X98596219Y-117153590D01*
X98650094Y-117099715D01*
X98703969Y-116991966D01*
X98703969Y-116938091D01*
X98515407Y-116749529D01*
X98407658Y-116857279D01*
X99000280Y-116749529D02*
X98434595Y-116183844D01*
X99323529Y-116426280D01*
X98757844Y-115860595D01*
X99592903Y-116156906D02*
X99027218Y-115591221D01*
X99161905Y-115456534D01*
X99269654Y-115402659D01*
X99377404Y-115402659D01*
X99458216Y-115429597D01*
X99592903Y-115510409D01*
X99673715Y-115591221D01*
X99754528Y-115725908D01*
X99781465Y-115806720D01*
X99781465Y-115914470D01*
X99727590Y-116022219D01*
X99592903Y-116156906D01*
X98203722Y-159902592D02*
X98122910Y-159929529D01*
X98042097Y-160010341D01*
X97988223Y-160118091D01*
X97988223Y-160225841D01*
X98015160Y-160306653D01*
X98095972Y-160441340D01*
X98176784Y-160522152D01*
X98311471Y-160602964D01*
X98392284Y-160629902D01*
X98500033Y-160629902D01*
X98607783Y-160576027D01*
X98661658Y-160522152D01*
X98715532Y-160414402D01*
X98715532Y-160360528D01*
X98526971Y-160171966D01*
X98419221Y-160279715D01*
X99011844Y-160171966D02*
X98446158Y-159606280D01*
X98661658Y-159390781D01*
X98742470Y-159363844D01*
X98796345Y-159363844D01*
X98877157Y-159390781D01*
X98957969Y-159471593D01*
X98984906Y-159552406D01*
X98984906Y-159606280D01*
X98957969Y-159687093D01*
X98742470Y-159902592D01*
X99873841Y-159309969D02*
X99550592Y-159633218D01*
X99712216Y-159471593D02*
X99146531Y-158905908D01*
X99173468Y-159040595D01*
X99173468Y-159148345D01*
X99146531Y-159229157D01*
X99793028Y-158259410D02*
X99685279Y-158367160D01*
X99658341Y-158447972D01*
X99658341Y-158501847D01*
X99685279Y-158636534D01*
X99766091Y-158771221D01*
X99981590Y-158986720D01*
X100062402Y-159013658D01*
X100116277Y-159013658D01*
X100197089Y-158986720D01*
X100304839Y-158878971D01*
X100331776Y-158798158D01*
X100331776Y-158744284D01*
X100304839Y-158663471D01*
X100170152Y-158528784D01*
X100089340Y-158501847D01*
X100035465Y-158501847D01*
X99954653Y-158528784D01*
X99846903Y-158636534D01*
X99819966Y-158717346D01*
X99819966Y-158771221D01*
X99846903Y-158852033D01*
X98203722Y-134502592D02*
X98122910Y-134529529D01*
X98042097Y-134610341D01*
X97988223Y-134718091D01*
X97988223Y-134825841D01*
X98015160Y-134906653D01*
X98095972Y-135041340D01*
X98176784Y-135122152D01*
X98311471Y-135202964D01*
X98392284Y-135229902D01*
X98500033Y-135229902D01*
X98607783Y-135176027D01*
X98661658Y-135122152D01*
X98715532Y-135014402D01*
X98715532Y-134960528D01*
X98526971Y-134771966D01*
X98419221Y-134879715D01*
X99011844Y-134771966D02*
X98446158Y-134206280D01*
X98661658Y-133990781D01*
X98742470Y-133963844D01*
X98796345Y-133963844D01*
X98877157Y-133990781D01*
X98957969Y-134071593D01*
X98984906Y-134152406D01*
X98984906Y-134206280D01*
X98957969Y-134287093D01*
X98742470Y-134502592D01*
X99038781Y-133721407D02*
X99038781Y-133667532D01*
X99065719Y-133586720D01*
X99200406Y-133452033D01*
X99281218Y-133425096D01*
X99335093Y-133425096D01*
X99415905Y-133452033D01*
X99469780Y-133505908D01*
X99523654Y-133613658D01*
X99523654Y-134260155D01*
X99873841Y-133909969D01*
X99793028Y-132859410D02*
X99685279Y-132967160D01*
X99658341Y-133047972D01*
X99658341Y-133101847D01*
X99685279Y-133236534D01*
X99766091Y-133371221D01*
X99981590Y-133586720D01*
X100062402Y-133613658D01*
X100116277Y-133613658D01*
X100197089Y-133586720D01*
X100304839Y-133478971D01*
X100331776Y-133398158D01*
X100331776Y-133344284D01*
X100304839Y-133263471D01*
X100170152Y-133128784D01*
X100089340Y-133101847D01*
X100035465Y-133101847D01*
X99954653Y-133128784D01*
X99846903Y-133236534D01*
X99819966Y-133317346D01*
X99819966Y-133371221D01*
X99846903Y-133452033D01*
X98203722Y-152282592D02*
X98122910Y-152309529D01*
X98042097Y-152390341D01*
X97988223Y-152498091D01*
X97988223Y-152605841D01*
X98015160Y-152686653D01*
X98095972Y-152821340D01*
X98176784Y-152902152D01*
X98311471Y-152982964D01*
X98392284Y-153009902D01*
X98500033Y-153009902D01*
X98607783Y-152956027D01*
X98661658Y-152902152D01*
X98715532Y-152794402D01*
X98715532Y-152740528D01*
X98526971Y-152551966D01*
X98419221Y-152659715D01*
X99011844Y-152551966D02*
X98446158Y-151986280D01*
X98661658Y-151770781D01*
X98742470Y-151743844D01*
X98796345Y-151743844D01*
X98877157Y-151770781D01*
X98957969Y-151851593D01*
X98984906Y-151932406D01*
X98984906Y-151986280D01*
X98957969Y-152067093D01*
X98742470Y-152282592D01*
X99873841Y-151689969D02*
X99550592Y-152013218D01*
X99712216Y-151851593D02*
X99146531Y-151285908D01*
X99173468Y-151420595D01*
X99173468Y-151528345D01*
X99146531Y-151609157D01*
X99873841Y-151043471D02*
X99793028Y-151070409D01*
X99739154Y-151070409D01*
X99658341Y-151043471D01*
X99631404Y-151016534D01*
X99604467Y-150935722D01*
X99604467Y-150881847D01*
X99631404Y-150801035D01*
X99739154Y-150693285D01*
X99819966Y-150666348D01*
X99873841Y-150666348D01*
X99954653Y-150693285D01*
X99981590Y-150720223D01*
X100008528Y-150801035D01*
X100008528Y-150854910D01*
X99981590Y-150935722D01*
X99873841Y-151043471D01*
X99846903Y-151124284D01*
X99846903Y-151178158D01*
X99873841Y-151258971D01*
X99981590Y-151366720D01*
X100062402Y-151393658D01*
X100116277Y-151393658D01*
X100197089Y-151366720D01*
X100304839Y-151258971D01*
X100331776Y-151178158D01*
X100331776Y-151124284D01*
X100304839Y-151043471D01*
X100197089Y-150935722D01*
X100116277Y-150908784D01*
X100062402Y-150908784D01*
X99981590Y-150935722D01*
X98192158Y-154580155D02*
X98111346Y-154607093D01*
X98030534Y-154687905D01*
X97976659Y-154795654D01*
X97976659Y-154903404D01*
X98003597Y-154984216D01*
X98084409Y-155118903D01*
X98165221Y-155199715D01*
X98299908Y-155280528D01*
X98380720Y-155307465D01*
X98488470Y-155307465D01*
X98596219Y-155253590D01*
X98650094Y-155199715D01*
X98703969Y-155091966D01*
X98703969Y-155038091D01*
X98515407Y-154849529D01*
X98407658Y-154957279D01*
X99000280Y-154849529D02*
X98434595Y-154283844D01*
X99323529Y-154526280D01*
X98757844Y-153960595D01*
X99592903Y-154256906D02*
X99027218Y-153691221D01*
X99161905Y-153556534D01*
X99269654Y-153502659D01*
X99377404Y-153502659D01*
X99458216Y-153529597D01*
X99592903Y-153610409D01*
X99673715Y-153691221D01*
X99754528Y-153825908D01*
X99781465Y-153906720D01*
X99781465Y-154014470D01*
X99727590Y-154122219D01*
X99592903Y-154256906D01*
X72519096Y-118993218D02*
X72438284Y-119020155D01*
X72357471Y-119100967D01*
X72303597Y-119208717D01*
X72303597Y-119316467D01*
X72330534Y-119397279D01*
X72411346Y-119531966D01*
X72492158Y-119612778D01*
X72626845Y-119693590D01*
X72707658Y-119720528D01*
X72815407Y-119720528D01*
X72923157Y-119666653D01*
X72977032Y-119612778D01*
X73030906Y-119505028D01*
X73030906Y-119451154D01*
X72842345Y-119262592D01*
X72734595Y-119370341D01*
X73327218Y-119262592D02*
X72761532Y-118696906D01*
X72977032Y-118481407D01*
X73057844Y-118454470D01*
X73111719Y-118454470D01*
X73192531Y-118481407D01*
X73273343Y-118562219D01*
X73300280Y-118643032D01*
X73300280Y-118696906D01*
X73273343Y-118777719D01*
X73057844Y-118993218D01*
X73354155Y-118212033D02*
X73354155Y-118158158D01*
X73381093Y-118077346D01*
X73515780Y-117942659D01*
X73596592Y-117915722D01*
X73650467Y-117915722D01*
X73731279Y-117942659D01*
X73785154Y-117996534D01*
X73839028Y-118104284D01*
X73839028Y-118750781D01*
X74189215Y-118400595D01*
X72592158Y-141880155D02*
X72511346Y-141907093D01*
X72430534Y-141987905D01*
X72376659Y-142095654D01*
X72376659Y-142203404D01*
X72403597Y-142284216D01*
X72484409Y-142418903D01*
X72565221Y-142499715D01*
X72699908Y-142580528D01*
X72780720Y-142607465D01*
X72888470Y-142607465D01*
X72996219Y-142553590D01*
X73050094Y-142499715D01*
X73103969Y-142391966D01*
X73103969Y-142338091D01*
X72915407Y-142149529D01*
X72807658Y-142257279D01*
X73400280Y-142149529D02*
X72834595Y-141583844D01*
X73723529Y-141826280D01*
X73157844Y-141260595D01*
X73992903Y-141556906D02*
X73427218Y-140991221D01*
X73561905Y-140856534D01*
X73669654Y-140802659D01*
X73777404Y-140802659D01*
X73858216Y-140829597D01*
X73992903Y-140910409D01*
X74073715Y-140991221D01*
X74154528Y-141125908D01*
X74181465Y-141206720D01*
X74181465Y-141314470D01*
X74127590Y-141422219D01*
X73992903Y-141556906D01*
X98203722Y-131972592D02*
X98122910Y-131999529D01*
X98042097Y-132080341D01*
X97988223Y-132188091D01*
X97988223Y-132295841D01*
X98015160Y-132376653D01*
X98095972Y-132511340D01*
X98176784Y-132592152D01*
X98311471Y-132672964D01*
X98392284Y-132699902D01*
X98500033Y-132699902D01*
X98607783Y-132646027D01*
X98661658Y-132592152D01*
X98715532Y-132484402D01*
X98715532Y-132430528D01*
X98526971Y-132241966D01*
X98419221Y-132349715D01*
X99011844Y-132241966D02*
X98446158Y-131676280D01*
X98661658Y-131460781D01*
X98742470Y-131433844D01*
X98796345Y-131433844D01*
X98877157Y-131460781D01*
X98957969Y-131541593D01*
X98984906Y-131622406D01*
X98984906Y-131676280D01*
X98957969Y-131757093D01*
X98742470Y-131972592D01*
X99038781Y-131191407D02*
X99038781Y-131137532D01*
X99065719Y-131056720D01*
X99200406Y-130922033D01*
X99281218Y-130895096D01*
X99335093Y-130895096D01*
X99415905Y-130922033D01*
X99469780Y-130975908D01*
X99523654Y-131083658D01*
X99523654Y-131730155D01*
X99873841Y-131379969D01*
X99496717Y-130625722D02*
X99873841Y-130248598D01*
X100197089Y-131056720D01*
X72619096Y-131693218D02*
X72538284Y-131720155D01*
X72457471Y-131800967D01*
X72403597Y-131908717D01*
X72403597Y-132016467D01*
X72430534Y-132097279D01*
X72511346Y-132231966D01*
X72592158Y-132312778D01*
X72726845Y-132393590D01*
X72807658Y-132420528D01*
X72915407Y-132420528D01*
X73023157Y-132366653D01*
X73077032Y-132312778D01*
X73130906Y-132205028D01*
X73130906Y-132151154D01*
X72942345Y-131962592D01*
X72834595Y-132070341D01*
X73427218Y-131962592D02*
X72861532Y-131396906D01*
X73077032Y-131181407D01*
X73157844Y-131154470D01*
X73211719Y-131154470D01*
X73292531Y-131181407D01*
X73373343Y-131262219D01*
X73400280Y-131343032D01*
X73400280Y-131396906D01*
X73373343Y-131477719D01*
X73157844Y-131693218D01*
X73669654Y-130588784D02*
X73561905Y-130696534D01*
X73534967Y-130777346D01*
X73534967Y-130831221D01*
X73561905Y-130965908D01*
X73642717Y-131100595D01*
X73858216Y-131316094D01*
X73939028Y-131343032D01*
X73992903Y-131343032D01*
X74073715Y-131316094D01*
X74181465Y-131208345D01*
X74208402Y-131127532D01*
X74208402Y-131073658D01*
X74181465Y-130992845D01*
X74046778Y-130858158D01*
X73965966Y-130831221D01*
X73912091Y-130831221D01*
X73831279Y-130858158D01*
X73723529Y-130965908D01*
X73696592Y-131046720D01*
X73696592Y-131100595D01*
X73723529Y-131181407D01*
X98203722Y-126628592D02*
X98122910Y-126655529D01*
X98042097Y-126736341D01*
X97988223Y-126844091D01*
X97988223Y-126951841D01*
X98015160Y-127032653D01*
X98095972Y-127167340D01*
X98176784Y-127248152D01*
X98311471Y-127328964D01*
X98392284Y-127355902D01*
X98500033Y-127355902D01*
X98607783Y-127302027D01*
X98661658Y-127248152D01*
X98715532Y-127140402D01*
X98715532Y-127086528D01*
X98526971Y-126897966D01*
X98419221Y-127005715D01*
X99011844Y-126897966D02*
X98446158Y-126332280D01*
X98661658Y-126116781D01*
X98742470Y-126089844D01*
X98796345Y-126089844D01*
X98877157Y-126116781D01*
X98957969Y-126197593D01*
X98984906Y-126278406D01*
X98984906Y-126332280D01*
X98957969Y-126413093D01*
X98742470Y-126628592D01*
X99038781Y-125847407D02*
X99038781Y-125793532D01*
X99065719Y-125712720D01*
X99200406Y-125578033D01*
X99281218Y-125551096D01*
X99335093Y-125551096D01*
X99415905Y-125578033D01*
X99469780Y-125631908D01*
X99523654Y-125739658D01*
X99523654Y-126386155D01*
X99873841Y-126035969D01*
X99873841Y-125389471D02*
X99793028Y-125416409D01*
X99739154Y-125416409D01*
X99658341Y-125389471D01*
X99631404Y-125362534D01*
X99604467Y-125281722D01*
X99604467Y-125227847D01*
X99631404Y-125147035D01*
X99739154Y-125039285D01*
X99819966Y-125012348D01*
X99873841Y-125012348D01*
X99954653Y-125039285D01*
X99981590Y-125066223D01*
X100008528Y-125147035D01*
X100008528Y-125200910D01*
X99981590Y-125281722D01*
X99873841Y-125389471D01*
X99846903Y-125470284D01*
X99846903Y-125524158D01*
X99873841Y-125604971D01*
X99981590Y-125712720D01*
X100062402Y-125739658D01*
X100116277Y-125739658D01*
X100197089Y-125712720D01*
X100304839Y-125604971D01*
X100331776Y-125524158D01*
X100331776Y-125470284D01*
X100304839Y-125389471D01*
X100197089Y-125281722D01*
X100116277Y-125254784D01*
X100062402Y-125254784D01*
X99981590Y-125281722D01*
X72592158Y-116480155D02*
X72511346Y-116507093D01*
X72430534Y-116587905D01*
X72376659Y-116695654D01*
X72376659Y-116803404D01*
X72403597Y-116884216D01*
X72484409Y-117018903D01*
X72565221Y-117099715D01*
X72699908Y-117180528D01*
X72780720Y-117207465D01*
X72888470Y-117207465D01*
X72996219Y-117153590D01*
X73050094Y-117099715D01*
X73103969Y-116991966D01*
X73103969Y-116938091D01*
X72915407Y-116749529D01*
X72807658Y-116857279D01*
X73400280Y-116749529D02*
X72834595Y-116183844D01*
X73723529Y-116426280D01*
X73157844Y-115860595D01*
X73992903Y-116156906D02*
X73427218Y-115591221D01*
X73561905Y-115456534D01*
X73669654Y-115402659D01*
X73777404Y-115402659D01*
X73858216Y-115429597D01*
X73992903Y-115510409D01*
X74073715Y-115591221D01*
X74154528Y-115725908D01*
X74181465Y-115806720D01*
X74181465Y-115914470D01*
X74127590Y-116022219D01*
X73992903Y-116156906D01*
X72592158Y-129180155D02*
X72511346Y-129207093D01*
X72430534Y-129287905D01*
X72376659Y-129395654D01*
X72376659Y-129503404D01*
X72403597Y-129584216D01*
X72484409Y-129718903D01*
X72565221Y-129799715D01*
X72699908Y-129880528D01*
X72780720Y-129907465D01*
X72888470Y-129907465D01*
X72996219Y-129853590D01*
X73050094Y-129799715D01*
X73103969Y-129691966D01*
X73103969Y-129638091D01*
X72915407Y-129449529D01*
X72807658Y-129557279D01*
X73400280Y-129449529D02*
X72834595Y-128883844D01*
X73723529Y-129126280D01*
X73157844Y-128560595D01*
X73992903Y-128856906D02*
X73427218Y-128291221D01*
X73561905Y-128156534D01*
X73669654Y-128102659D01*
X73777404Y-128102659D01*
X73858216Y-128129597D01*
X73992903Y-128210409D01*
X74073715Y-128291221D01*
X74154528Y-128425908D01*
X74181465Y-128506720D01*
X74181465Y-128614470D01*
X74127590Y-128722219D01*
X73992903Y-128856906D01*
X72619096Y-126613218D02*
X72538284Y-126640155D01*
X72457471Y-126720967D01*
X72403597Y-126828717D01*
X72403597Y-126936467D01*
X72430534Y-127017279D01*
X72511346Y-127151966D01*
X72592158Y-127232778D01*
X72726845Y-127313590D01*
X72807658Y-127340528D01*
X72915407Y-127340528D01*
X73023157Y-127286653D01*
X73077032Y-127232778D01*
X73130906Y-127125028D01*
X73130906Y-127071154D01*
X72942345Y-126882592D01*
X72834595Y-126990341D01*
X73427218Y-126882592D02*
X72861532Y-126316906D01*
X73077032Y-126101407D01*
X73157844Y-126074470D01*
X73211719Y-126074470D01*
X73292531Y-126101407D01*
X73373343Y-126182219D01*
X73400280Y-126263032D01*
X73400280Y-126316906D01*
X73373343Y-126397719D01*
X73157844Y-126613218D01*
X73696592Y-125481847D02*
X73427218Y-125751221D01*
X73669654Y-126047532D01*
X73669654Y-125993658D01*
X73696592Y-125912845D01*
X73831279Y-125778158D01*
X73912091Y-125751221D01*
X73965966Y-125751221D01*
X74046778Y-125778158D01*
X74181465Y-125912845D01*
X74208402Y-125993658D01*
X74208402Y-126047532D01*
X74181465Y-126128345D01*
X74046778Y-126263032D01*
X73965966Y-126289969D01*
X73912091Y-126289969D01*
X78596476Y-161905809D02*
X78710761Y-161943904D01*
X78901238Y-161943904D01*
X78977428Y-161905809D01*
X79015523Y-161867714D01*
X79053619Y-161791523D01*
X79053619Y-161715333D01*
X79015523Y-161639142D01*
X78977428Y-161601047D01*
X78901238Y-161562952D01*
X78748857Y-161524857D01*
X78672666Y-161486761D01*
X78634571Y-161448666D01*
X78596476Y-161372476D01*
X78596476Y-161296285D01*
X78634571Y-161220095D01*
X78672666Y-161182000D01*
X78748857Y-161143904D01*
X78939333Y-161143904D01*
X79053619Y-161182000D01*
X79320285Y-161143904D02*
X79510761Y-161943904D01*
X79663142Y-161372476D01*
X79815523Y-161943904D01*
X80006000Y-161143904D01*
X80767904Y-161867714D02*
X80729809Y-161905809D01*
X80615523Y-161943904D01*
X80539333Y-161943904D01*
X80425047Y-161905809D01*
X80348857Y-161829619D01*
X80310761Y-161753428D01*
X80272666Y-161601047D01*
X80272666Y-161486761D01*
X80310761Y-161334380D01*
X80348857Y-161258190D01*
X80425047Y-161182000D01*
X80539333Y-161143904D01*
X80615523Y-161143904D01*
X80729809Y-161182000D01*
X80767904Y-161220095D01*
X81491714Y-161943904D02*
X81110761Y-161943904D01*
X81110761Y-161143904D01*
X81758380Y-161943904D02*
X81758380Y-161143904D01*
X82215523Y-161943904D02*
X81872666Y-161486761D01*
X82215523Y-161143904D02*
X81758380Y-161601047D01*
X72619096Y-136773218D02*
X72538284Y-136800155D01*
X72457471Y-136880967D01*
X72403597Y-136988717D01*
X72403597Y-137096467D01*
X72430534Y-137177279D01*
X72511346Y-137311966D01*
X72592158Y-137392778D01*
X72726845Y-137473590D01*
X72807658Y-137500528D01*
X72915407Y-137500528D01*
X73023157Y-137446653D01*
X73077032Y-137392778D01*
X73130906Y-137285028D01*
X73130906Y-137231154D01*
X72942345Y-137042592D01*
X72834595Y-137150341D01*
X73427218Y-137042592D02*
X72861532Y-136476906D01*
X73077032Y-136261407D01*
X73157844Y-136234470D01*
X73211719Y-136234470D01*
X73292531Y-136261407D01*
X73373343Y-136342219D01*
X73400280Y-136423032D01*
X73400280Y-136476906D01*
X73373343Y-136557719D01*
X73157844Y-136773218D01*
X73750467Y-136072845D02*
X73669654Y-136099783D01*
X73615780Y-136099783D01*
X73534967Y-136072845D01*
X73508030Y-136045908D01*
X73481093Y-135965096D01*
X73481093Y-135911221D01*
X73508030Y-135830409D01*
X73615780Y-135722659D01*
X73696592Y-135695722D01*
X73750467Y-135695722D01*
X73831279Y-135722659D01*
X73858216Y-135749597D01*
X73885154Y-135830409D01*
X73885154Y-135884284D01*
X73858216Y-135965096D01*
X73750467Y-136072845D01*
X73723529Y-136153658D01*
X73723529Y-136207532D01*
X73750467Y-136288345D01*
X73858216Y-136396094D01*
X73939028Y-136423032D01*
X73992903Y-136423032D01*
X74073715Y-136396094D01*
X74181465Y-136288345D01*
X74208402Y-136207532D01*
X74208402Y-136153658D01*
X74181465Y-136072845D01*
X74073715Y-135965096D01*
X73992903Y-135938158D01*
X73939028Y-135938158D01*
X73858216Y-135965096D01*
X98028131Y-119340308D02*
X98378317Y-118990122D01*
X98405255Y-119394183D01*
X98486067Y-119313370D01*
X98566879Y-119286433D01*
X98620754Y-119286433D01*
X98701566Y-119313370D01*
X98836253Y-119448057D01*
X98863190Y-119528870D01*
X98863190Y-119582744D01*
X98836253Y-119663557D01*
X98674629Y-119825181D01*
X98593816Y-119852118D01*
X98539942Y-119852118D01*
X98539942Y-118828497D02*
X99294189Y-119205621D01*
X98917065Y-118451374D01*
X99051752Y-118316687D02*
X99401938Y-117966500D01*
X99428876Y-118370561D01*
X99509688Y-118289749D01*
X99590500Y-118262812D01*
X99644375Y-118262812D01*
X99725187Y-118289749D01*
X99859874Y-118424436D01*
X99886812Y-118505248D01*
X99886812Y-118559123D01*
X99859874Y-118639935D01*
X99698250Y-118801560D01*
X99617438Y-118828497D01*
X99563563Y-118828497D01*
X100129248Y-118478311D02*
X100560247Y-118047312D01*
X100344748Y-117562439D02*
X100533309Y-117373877D01*
X100910433Y-117589377D02*
X100641059Y-117858751D01*
X100075374Y-117293065D01*
X100344748Y-117023691D01*
X101152870Y-117346940D02*
X100587184Y-116781255D01*
X101476118Y-117023691D01*
X100910433Y-116458006D01*
X98026473Y-114451966D02*
X98780720Y-114829089D01*
X98403597Y-114074842D01*
X99103969Y-114451966D02*
X99211719Y-114398091D01*
X99346406Y-114263404D01*
X99373343Y-114182592D01*
X99373343Y-114128717D01*
X99346406Y-114047905D01*
X99292531Y-113994030D01*
X99211719Y-113967093D01*
X99157844Y-113967093D01*
X99077032Y-113994030D01*
X98942345Y-114074842D01*
X98861532Y-114101780D01*
X98807658Y-114101780D01*
X98726845Y-114074842D01*
X98672971Y-114020967D01*
X98646033Y-113940155D01*
X98646033Y-113886280D01*
X98672971Y-113805468D01*
X98807658Y-113670781D01*
X98915407Y-113616906D01*
X99534967Y-113536094D02*
X99804341Y-113805468D01*
X99050094Y-113428345D02*
X99534967Y-113536094D01*
X99427218Y-113051221D01*
X100127590Y-113428345D02*
X100235340Y-113374470D01*
X100370027Y-113239783D01*
X100396964Y-113158971D01*
X100396964Y-113105096D01*
X100370027Y-113024284D01*
X100316152Y-112970409D01*
X100235340Y-112943471D01*
X100181465Y-112943471D01*
X100100653Y-112970409D01*
X99965966Y-113051221D01*
X99885154Y-113078158D01*
X99831279Y-113078158D01*
X99750467Y-113051221D01*
X99696592Y-112997346D01*
X99669654Y-112916534D01*
X99669654Y-112862659D01*
X99696592Y-112781847D01*
X99831279Y-112647160D01*
X99939028Y-112593285D01*
X72049722Y-157362592D02*
X71968910Y-157389529D01*
X71888097Y-157470341D01*
X71834223Y-157578091D01*
X71834223Y-157685841D01*
X71861160Y-157766653D01*
X71941972Y-157901340D01*
X72022784Y-157982152D01*
X72157471Y-158062964D01*
X72238284Y-158089902D01*
X72346033Y-158089902D01*
X72453783Y-158036027D01*
X72507658Y-157982152D01*
X72561532Y-157874402D01*
X72561532Y-157820528D01*
X72372971Y-157631966D01*
X72265221Y-157739715D01*
X72857844Y-157631966D02*
X72292158Y-157066280D01*
X72507658Y-156850781D01*
X72588470Y-156823844D01*
X72642345Y-156823844D01*
X72723157Y-156850781D01*
X72803969Y-156931593D01*
X72830906Y-157012406D01*
X72830906Y-157066280D01*
X72803969Y-157147093D01*
X72588470Y-157362592D01*
X73719841Y-156769969D02*
X73396592Y-157093218D01*
X73558216Y-156931593D02*
X72992531Y-156365908D01*
X73019468Y-156500595D01*
X73019468Y-156608345D01*
X72992531Y-156689157D01*
X73827590Y-155907972D02*
X74204714Y-156285096D01*
X73477404Y-155827160D02*
X73746778Y-156365908D01*
X74096964Y-156015722D01*
X72619096Y-111373218D02*
X72538284Y-111400155D01*
X72457471Y-111480967D01*
X72403597Y-111588717D01*
X72403597Y-111696467D01*
X72430534Y-111777279D01*
X72511346Y-111911966D01*
X72592158Y-111992778D01*
X72726845Y-112073590D01*
X72807658Y-112100528D01*
X72915407Y-112100528D01*
X73023157Y-112046653D01*
X73077032Y-111992778D01*
X73130906Y-111885028D01*
X73130906Y-111831154D01*
X72942345Y-111642592D01*
X72834595Y-111750341D01*
X73427218Y-111642592D02*
X72861532Y-111076906D01*
X73077032Y-110861407D01*
X73157844Y-110834470D01*
X73211719Y-110834470D01*
X73292531Y-110861407D01*
X73373343Y-110942219D01*
X73400280Y-111023032D01*
X73400280Y-111076906D01*
X73373343Y-111157719D01*
X73157844Y-111373218D01*
X73534967Y-110403471D02*
X73588842Y-110349597D01*
X73669654Y-110322659D01*
X73723529Y-110322659D01*
X73804341Y-110349597D01*
X73939028Y-110430409D01*
X74073715Y-110565096D01*
X74154528Y-110699783D01*
X74181465Y-110780595D01*
X74181465Y-110834470D01*
X74154528Y-110915282D01*
X74100653Y-110969157D01*
X74019841Y-110996094D01*
X73965966Y-110996094D01*
X73885154Y-110969157D01*
X73750467Y-110888345D01*
X73615780Y-110753658D01*
X73534967Y-110618971D01*
X73508030Y-110538158D01*
X73508030Y-110484284D01*
X73534967Y-110403471D01*
X98203722Y-139582592D02*
X98122910Y-139609529D01*
X98042097Y-139690341D01*
X97988223Y-139798091D01*
X97988223Y-139905841D01*
X98015160Y-139986653D01*
X98095972Y-140121340D01*
X98176784Y-140202152D01*
X98311471Y-140282964D01*
X98392284Y-140309902D01*
X98500033Y-140309902D01*
X98607783Y-140256027D01*
X98661658Y-140202152D01*
X98715532Y-140094402D01*
X98715532Y-140040528D01*
X98526971Y-139851966D01*
X98419221Y-139959715D01*
X99011844Y-139851966D02*
X98446158Y-139286280D01*
X98661658Y-139070781D01*
X98742470Y-139043844D01*
X98796345Y-139043844D01*
X98877157Y-139070781D01*
X98957969Y-139151593D01*
X98984906Y-139232406D01*
X98984906Y-139286280D01*
X98957969Y-139367093D01*
X98742470Y-139582592D01*
X99038781Y-138801407D02*
X99038781Y-138747532D01*
X99065719Y-138666720D01*
X99200406Y-138532033D01*
X99281218Y-138505096D01*
X99335093Y-138505096D01*
X99415905Y-138532033D01*
X99469780Y-138585908D01*
X99523654Y-138693658D01*
X99523654Y-139340155D01*
X99873841Y-138989969D01*
X99577529Y-138262659D02*
X99577529Y-138208784D01*
X99604467Y-138127972D01*
X99739154Y-137993285D01*
X99819966Y-137966348D01*
X99873841Y-137966348D01*
X99954653Y-137993285D01*
X100008528Y-138047160D01*
X100062402Y-138154910D01*
X100062402Y-138801407D01*
X100412589Y-138451221D01*
X72619096Y-121533218D02*
X72538284Y-121560155D01*
X72457471Y-121640967D01*
X72403597Y-121748717D01*
X72403597Y-121856467D01*
X72430534Y-121937279D01*
X72511346Y-122071966D01*
X72592158Y-122152778D01*
X72726845Y-122233590D01*
X72807658Y-122260528D01*
X72915407Y-122260528D01*
X73023157Y-122206653D01*
X73077032Y-122152778D01*
X73130906Y-122045028D01*
X73130906Y-121991154D01*
X72942345Y-121802592D01*
X72834595Y-121910341D01*
X73427218Y-121802592D02*
X72861532Y-121236906D01*
X73077032Y-121021407D01*
X73157844Y-120994470D01*
X73211719Y-120994470D01*
X73292531Y-121021407D01*
X73373343Y-121102219D01*
X73400280Y-121183032D01*
X73400280Y-121236906D01*
X73373343Y-121317719D01*
X73157844Y-121533218D01*
X73373343Y-120725096D02*
X73723529Y-120374910D01*
X73750467Y-120778971D01*
X73831279Y-120698158D01*
X73912091Y-120671221D01*
X73965966Y-120671221D01*
X74046778Y-120698158D01*
X74181465Y-120832845D01*
X74208402Y-120913658D01*
X74208402Y-120967532D01*
X74181465Y-121048345D01*
X74019841Y-121209969D01*
X73939028Y-121236906D01*
X73885154Y-121236906D01*
X98203722Y-144672592D02*
X98122910Y-144699529D01*
X98042097Y-144780341D01*
X97988223Y-144888091D01*
X97988223Y-144995841D01*
X98015160Y-145076653D01*
X98095972Y-145211340D01*
X98176784Y-145292152D01*
X98311471Y-145372964D01*
X98392284Y-145399902D01*
X98500033Y-145399902D01*
X98607783Y-145346027D01*
X98661658Y-145292152D01*
X98715532Y-145184402D01*
X98715532Y-145130528D01*
X98526971Y-144941966D01*
X98419221Y-145049715D01*
X99011844Y-144941966D02*
X98446158Y-144376280D01*
X98661658Y-144160781D01*
X98742470Y-144133844D01*
X98796345Y-144133844D01*
X98877157Y-144160781D01*
X98957969Y-144241593D01*
X98984906Y-144322406D01*
X98984906Y-144376280D01*
X98957969Y-144457093D01*
X98742470Y-144672592D01*
X99038781Y-143891407D02*
X99038781Y-143837532D01*
X99065719Y-143756720D01*
X99200406Y-143622033D01*
X99281218Y-143595096D01*
X99335093Y-143595096D01*
X99415905Y-143622033D01*
X99469780Y-143675908D01*
X99523654Y-143783658D01*
X99523654Y-144430155D01*
X99873841Y-144079969D01*
X100412589Y-143541221D02*
X100089340Y-143864470D01*
X100250964Y-143702845D02*
X99685279Y-143137160D01*
X99712216Y-143271847D01*
X99712216Y-143379597D01*
X99685279Y-143460409D01*
X98944375Y-137325435D02*
X98486439Y-137244622D01*
X98621126Y-137648683D02*
X98055441Y-137082998D01*
X98270940Y-136867499D01*
X98351752Y-136840561D01*
X98405627Y-136840561D01*
X98486439Y-136867499D01*
X98567251Y-136948311D01*
X98594189Y-137029123D01*
X98594189Y-137082998D01*
X98567251Y-137163810D01*
X98351752Y-137379309D01*
X98621126Y-136517312D02*
X99079062Y-136975248D01*
X99159874Y-137002186D01*
X99213749Y-137002186D01*
X99294561Y-136975248D01*
X99402311Y-136867499D01*
X99429248Y-136786687D01*
X99429248Y-136732812D01*
X99402311Y-136652000D01*
X98944375Y-136194064D01*
X99779435Y-136490375D02*
X99213749Y-135924690D01*
X100102683Y-136167126D01*
X99536998Y-135601441D01*
X72519096Y-113903218D02*
X72438284Y-113930155D01*
X72357471Y-114010967D01*
X72303597Y-114118717D01*
X72303597Y-114226467D01*
X72330534Y-114307279D01*
X72411346Y-114441966D01*
X72492158Y-114522778D01*
X72626845Y-114603590D01*
X72707658Y-114630528D01*
X72815407Y-114630528D01*
X72923157Y-114576653D01*
X72977032Y-114522778D01*
X73030906Y-114415028D01*
X73030906Y-114361154D01*
X72842345Y-114172592D01*
X72734595Y-114280341D01*
X73327218Y-114172592D02*
X72761532Y-113606906D01*
X72977032Y-113391407D01*
X73057844Y-113364470D01*
X73111719Y-113364470D01*
X73192531Y-113391407D01*
X73273343Y-113472219D01*
X73300280Y-113553032D01*
X73300280Y-113606906D01*
X73273343Y-113687719D01*
X73057844Y-113903218D01*
X74189215Y-113310595D02*
X73865966Y-113633844D01*
X74027590Y-113472219D02*
X73461905Y-112906534D01*
X73488842Y-113041221D01*
X73488842Y-113148971D01*
X73461905Y-113229783D01*
X98192158Y-141880155D02*
X98111346Y-141907093D01*
X98030534Y-141987905D01*
X97976659Y-142095654D01*
X97976659Y-142203404D01*
X98003597Y-142284216D01*
X98084409Y-142418903D01*
X98165221Y-142499715D01*
X98299908Y-142580528D01*
X98380720Y-142607465D01*
X98488470Y-142607465D01*
X98596219Y-142553590D01*
X98650094Y-142499715D01*
X98703969Y-142391966D01*
X98703969Y-142338091D01*
X98515407Y-142149529D01*
X98407658Y-142257279D01*
X99000280Y-142149529D02*
X98434595Y-141583844D01*
X99323529Y-141826280D01*
X98757844Y-141260595D01*
X99592903Y-141556906D02*
X99027218Y-140991221D01*
X99161905Y-140856534D01*
X99269654Y-140802659D01*
X99377404Y-140802659D01*
X99458216Y-140829597D01*
X99592903Y-140910409D01*
X99673715Y-140991221D01*
X99754528Y-141125908D01*
X99781465Y-141206720D01*
X99781465Y-141314470D01*
X99727590Y-141422219D01*
X99592903Y-141556906D01*
X71949722Y-147202592D02*
X71868910Y-147229529D01*
X71788097Y-147310341D01*
X71734223Y-147418091D01*
X71734223Y-147525841D01*
X71761160Y-147606653D01*
X71841972Y-147741340D01*
X71922784Y-147822152D01*
X72057471Y-147902964D01*
X72138284Y-147929902D01*
X72246033Y-147929902D01*
X72353783Y-147876027D01*
X72407658Y-147822152D01*
X72461532Y-147714402D01*
X72461532Y-147660528D01*
X72272971Y-147471966D01*
X72165221Y-147579715D01*
X72757844Y-147471966D02*
X72192158Y-146906280D01*
X72407658Y-146690781D01*
X72488470Y-146663844D01*
X72542345Y-146663844D01*
X72623157Y-146690781D01*
X72703969Y-146771593D01*
X72730906Y-146852406D01*
X72730906Y-146906280D01*
X72703969Y-146987093D01*
X72488470Y-147202592D01*
X73619841Y-146609969D02*
X73296592Y-146933218D01*
X73458216Y-146771593D02*
X72892531Y-146205908D01*
X72919468Y-146340595D01*
X72919468Y-146448345D01*
X72892531Y-146529157D01*
X74158589Y-146071221D02*
X73835340Y-146394470D01*
X73996964Y-146232845D02*
X73431279Y-145667160D01*
X73458216Y-145801847D01*
X73458216Y-145909597D01*
X73431279Y-145990409D01*
X98059129Y-111909309D02*
X98813377Y-112286433D01*
X98436253Y-111532186D01*
X99082751Y-111424436D02*
X99190500Y-111370561D01*
X99244375Y-111370561D01*
X99325187Y-111397499D01*
X99405999Y-111478311D01*
X99432937Y-111559123D01*
X99432937Y-111612998D01*
X99406000Y-111693810D01*
X99190500Y-111909309D01*
X98624815Y-111343624D01*
X98813377Y-111155062D01*
X98894189Y-111128125D01*
X98948064Y-111128125D01*
X99028876Y-111155062D01*
X99082751Y-111208937D01*
X99109688Y-111289749D01*
X99109688Y-111343624D01*
X99082751Y-111424436D01*
X98894189Y-111612998D01*
X99190500Y-110777938D02*
X99648436Y-111235874D01*
X99729248Y-111262812D01*
X99783123Y-111262812D01*
X99863935Y-111235874D01*
X99971685Y-111128125D01*
X99998622Y-111047312D01*
X99998622Y-110993438D01*
X99971685Y-110912625D01*
X99513749Y-110454690D01*
X100294934Y-110751001D02*
X100402683Y-110697126D01*
X100537370Y-110562439D01*
X100564308Y-110481627D01*
X100564308Y-110427752D01*
X100537370Y-110346940D01*
X100483496Y-110293065D01*
X100402683Y-110266128D01*
X100348809Y-110266128D01*
X100267996Y-110293065D01*
X100133309Y-110373877D01*
X100052497Y-110400815D01*
X99998622Y-110400815D01*
X99917810Y-110373877D01*
X99863935Y-110320003D01*
X99836998Y-110239190D01*
X99836998Y-110185316D01*
X99863935Y-110104503D01*
X99998622Y-109969816D01*
X100106372Y-109915942D01*
X72592158Y-154580155D02*
X72511346Y-154607093D01*
X72430534Y-154687905D01*
X72376659Y-154795654D01*
X72376659Y-154903404D01*
X72403597Y-154984216D01*
X72484409Y-155118903D01*
X72565221Y-155199715D01*
X72699908Y-155280528D01*
X72780720Y-155307465D01*
X72888470Y-155307465D01*
X72996219Y-155253590D01*
X73050094Y-155199715D01*
X73103969Y-155091966D01*
X73103969Y-155038091D01*
X72915407Y-154849529D01*
X72807658Y-154957279D01*
X73400280Y-154849529D02*
X72834595Y-154283844D01*
X73723529Y-154526280D01*
X73157844Y-153960595D01*
X73992903Y-154256906D02*
X73427218Y-153691221D01*
X73561905Y-153556534D01*
X73669654Y-153502659D01*
X73777404Y-153502659D01*
X73858216Y-153529597D01*
X73992903Y-153610409D01*
X74073715Y-153691221D01*
X74154528Y-153825908D01*
X74181465Y-153906720D01*
X74181465Y-154014470D01*
X74127590Y-154122219D01*
X73992903Y-154256906D01*
X98203722Y-149742592D02*
X98122910Y-149769529D01*
X98042097Y-149850341D01*
X97988223Y-149958091D01*
X97988223Y-150065841D01*
X98015160Y-150146653D01*
X98095972Y-150281340D01*
X98176784Y-150362152D01*
X98311471Y-150442964D01*
X98392284Y-150469902D01*
X98500033Y-150469902D01*
X98607783Y-150416027D01*
X98661658Y-150362152D01*
X98715532Y-150254402D01*
X98715532Y-150200528D01*
X98526971Y-150011966D01*
X98419221Y-150119715D01*
X99011844Y-150011966D02*
X98446158Y-149446280D01*
X98661658Y-149230781D01*
X98742470Y-149203844D01*
X98796345Y-149203844D01*
X98877157Y-149230781D01*
X98957969Y-149311593D01*
X98984906Y-149392406D01*
X98984906Y-149446280D01*
X98957969Y-149527093D01*
X98742470Y-149742592D01*
X99873841Y-149149969D02*
X99550592Y-149473218D01*
X99712216Y-149311593D02*
X99146531Y-148745908D01*
X99173468Y-148880595D01*
X99173468Y-148988345D01*
X99146531Y-149069157D01*
X100143215Y-148880595D02*
X100250964Y-148772845D01*
X100277902Y-148692033D01*
X100277902Y-148638158D01*
X100250964Y-148503471D01*
X100170152Y-148368784D01*
X99954653Y-148153285D01*
X99873841Y-148126348D01*
X99819966Y-148126348D01*
X99739154Y-148153285D01*
X99631404Y-148261035D01*
X99604467Y-148341847D01*
X99604467Y-148395722D01*
X99631404Y-148476534D01*
X99766091Y-148611221D01*
X99846903Y-148638158D01*
X99900778Y-148638158D01*
X99981590Y-148611221D01*
X100089340Y-148503471D01*
X100116277Y-148422659D01*
X100116277Y-148368784D01*
X100089340Y-148287972D01*
X72619096Y-139313218D02*
X72538284Y-139340155D01*
X72457471Y-139420967D01*
X72403597Y-139528717D01*
X72403597Y-139636467D01*
X72430534Y-139717279D01*
X72511346Y-139851966D01*
X72592158Y-139932778D01*
X72726845Y-140013590D01*
X72807658Y-140040528D01*
X72915407Y-140040528D01*
X73023157Y-139986653D01*
X73077032Y-139932778D01*
X73130906Y-139825028D01*
X73130906Y-139771154D01*
X72942345Y-139582592D01*
X72834595Y-139690341D01*
X73427218Y-139582592D02*
X72861532Y-139016906D01*
X73077032Y-138801407D01*
X73157844Y-138774470D01*
X73211719Y-138774470D01*
X73292531Y-138801407D01*
X73373343Y-138882219D01*
X73400280Y-138963032D01*
X73400280Y-139016906D01*
X73373343Y-139097719D01*
X73157844Y-139313218D01*
X74019841Y-138989969D02*
X74127590Y-138882219D01*
X74154528Y-138801407D01*
X74154528Y-138747532D01*
X74127590Y-138612845D01*
X74046778Y-138478158D01*
X73831279Y-138262659D01*
X73750467Y-138235722D01*
X73696592Y-138235722D01*
X73615780Y-138262659D01*
X73508030Y-138370409D01*
X73481093Y-138451221D01*
X73481093Y-138505096D01*
X73508030Y-138585908D01*
X73642717Y-138720595D01*
X73723529Y-138747532D01*
X73777404Y-138747532D01*
X73858216Y-138720595D01*
X73965966Y-138612845D01*
X73992903Y-138532033D01*
X73992903Y-138478158D01*
X73965966Y-138397346D01*
X90010761Y-161905809D02*
X90125047Y-161943904D01*
X90315523Y-161943904D01*
X90391714Y-161905809D01*
X90429809Y-161867714D01*
X90467904Y-161791523D01*
X90467904Y-161715333D01*
X90429809Y-161639142D01*
X90391714Y-161601047D01*
X90315523Y-161562952D01*
X90163142Y-161524857D01*
X90086952Y-161486761D01*
X90048857Y-161448666D01*
X90010761Y-161372476D01*
X90010761Y-161296285D01*
X90048857Y-161220095D01*
X90086952Y-161182000D01*
X90163142Y-161143904D01*
X90353619Y-161143904D01*
X90467904Y-161182000D01*
X90734571Y-161143904D02*
X90925047Y-161943904D01*
X91077428Y-161372476D01*
X91229809Y-161943904D01*
X91420285Y-161143904D01*
X91725047Y-161943904D02*
X91725047Y-161143904D01*
X91915523Y-161143904D01*
X92029809Y-161182000D01*
X92106000Y-161258190D01*
X92144095Y-161334380D01*
X92182190Y-161486761D01*
X92182190Y-161601047D01*
X92144095Y-161753428D01*
X92106000Y-161829619D01*
X92029809Y-161905809D01*
X91915523Y-161943904D01*
X91725047Y-161943904D01*
X92525047Y-161943904D02*
X92525047Y-161143904D01*
X93058380Y-161143904D02*
X93210761Y-161143904D01*
X93286952Y-161182000D01*
X93363142Y-161258190D01*
X93401238Y-161410571D01*
X93401238Y-161677238D01*
X93363142Y-161829619D01*
X93286952Y-161905809D01*
X93210761Y-161943904D01*
X93058380Y-161943904D01*
X92982190Y-161905809D01*
X92906000Y-161829619D01*
X92867904Y-161677238D01*
X92867904Y-161410571D01*
X92906000Y-161258190D01*
X92982190Y-161182000D01*
X93058380Y-161143904D01*
X98257597Y-130122964D02*
X98526971Y-129853590D01*
X98365346Y-130338463D02*
X97988223Y-129584216D01*
X98742470Y-129961340D01*
X98688595Y-128937719D02*
X98607783Y-128964656D01*
X98526971Y-129045468D01*
X98473096Y-129153218D01*
X98473096Y-129260967D01*
X98500033Y-129341780D01*
X98580845Y-129476467D01*
X98661658Y-129557279D01*
X98796345Y-129638091D01*
X98877157Y-129665028D01*
X98984906Y-129665028D01*
X99092656Y-129611154D01*
X99146531Y-129557279D01*
X99200406Y-129449529D01*
X99200406Y-129395654D01*
X99011844Y-129207093D01*
X98904094Y-129314842D01*
X99496717Y-129207093D02*
X98931032Y-128641407D01*
X99819966Y-128883844D01*
X99254280Y-128318158D01*
X100089340Y-128614470D02*
X99523654Y-128048784D01*
X99658341Y-127914097D01*
X99766091Y-127860223D01*
X99873841Y-127860223D01*
X99954653Y-127887160D01*
X100089340Y-127967972D01*
X100170152Y-128048784D01*
X100250964Y-128183471D01*
X100277902Y-128264284D01*
X100277902Y-128372033D01*
X100224027Y-128479783D01*
X100089340Y-128614470D01*
X97995847Y-121872592D02*
X98346033Y-121522406D01*
X98372971Y-121926467D01*
X98453783Y-121845654D01*
X98534595Y-121818717D01*
X98588470Y-121818717D01*
X98669282Y-121845654D01*
X98803969Y-121980341D01*
X98830906Y-122061154D01*
X98830906Y-122115028D01*
X98803969Y-122195841D01*
X98642345Y-122357465D01*
X98561532Y-122384402D01*
X98507658Y-122384402D01*
X98507658Y-121360781D02*
X99261905Y-121737905D01*
X98884781Y-120983658D01*
X99019468Y-120848971D02*
X99369654Y-120498784D01*
X99396592Y-120902845D01*
X99477404Y-120822033D01*
X99558216Y-120795096D01*
X99612091Y-120795096D01*
X99692903Y-120822033D01*
X99827590Y-120956720D01*
X99854528Y-121037532D01*
X99854528Y-121091407D01*
X99827590Y-121172219D01*
X99665966Y-121333844D01*
X99585154Y-121360781D01*
X99531279Y-121360781D01*
X98260788Y-124915773D02*
X98530162Y-124646399D01*
X98368537Y-125131272D02*
X97991414Y-124377025D01*
X98745661Y-124754149D01*
X98934223Y-124565587D02*
X98368537Y-123999902D01*
X98503224Y-123865215D01*
X98610974Y-123811340D01*
X98718723Y-123811340D01*
X98799536Y-123838277D01*
X98934223Y-123919089D01*
X99015035Y-123999902D01*
X99095847Y-124134589D01*
X99122784Y-124215401D01*
X99122784Y-124323150D01*
X99068910Y-124430900D01*
X98934223Y-124565587D01*
X99769282Y-123622778D02*
X99769282Y-123676653D01*
X99715407Y-123784402D01*
X99661532Y-123838277D01*
X99553783Y-123892152D01*
X99446033Y-123892152D01*
X99365221Y-123865215D01*
X99230534Y-123784402D01*
X99149722Y-123703590D01*
X99068910Y-123568903D01*
X99041972Y-123488091D01*
X99041972Y-123380341D01*
X99095847Y-123272592D01*
X99149722Y-123218717D01*
X99257471Y-123164842D01*
X99311346Y-123164842D01*
X99984781Y-123622778D02*
X100415780Y-123191780D01*
X99850094Y-122518345D02*
X100604341Y-122895468D01*
X100227218Y-122141221D01*
X101304714Y-122195096D02*
X100846778Y-122114284D01*
X100981465Y-122518345D02*
X100415780Y-121952659D01*
X100631279Y-121737160D01*
X100712091Y-121710223D01*
X100765966Y-121710223D01*
X100846778Y-121737160D01*
X100927590Y-121817972D01*
X100954528Y-121898784D01*
X100954528Y-121952659D01*
X100927590Y-122033471D01*
X100712091Y-122248971D01*
X101250839Y-121656348D02*
X101439401Y-121467786D01*
X101816524Y-121683285D02*
X101547150Y-121952659D01*
X100981465Y-121386974D01*
X101250839Y-121117600D01*
X101951211Y-120955975D02*
X101762650Y-121144537D01*
X102058961Y-121440849D02*
X101493276Y-120875163D01*
X101762650Y-120605789D01*
X98203722Y-157362592D02*
X98122910Y-157389529D01*
X98042097Y-157470341D01*
X97988223Y-157578091D01*
X97988223Y-157685841D01*
X98015160Y-157766653D01*
X98095972Y-157901340D01*
X98176784Y-157982152D01*
X98311471Y-158062964D01*
X98392284Y-158089902D01*
X98500033Y-158089902D01*
X98607783Y-158036027D01*
X98661658Y-157982152D01*
X98715532Y-157874402D01*
X98715532Y-157820528D01*
X98526971Y-157631966D01*
X98419221Y-157739715D01*
X99011844Y-157631966D02*
X98446158Y-157066280D01*
X98661658Y-156850781D01*
X98742470Y-156823844D01*
X98796345Y-156823844D01*
X98877157Y-156850781D01*
X98957969Y-156931593D01*
X98984906Y-157012406D01*
X98984906Y-157066280D01*
X98957969Y-157147093D01*
X98742470Y-157362592D01*
X99873841Y-156769969D02*
X99550592Y-157093218D01*
X99712216Y-156931593D02*
X99146531Y-156365908D01*
X99173468Y-156500595D01*
X99173468Y-156608345D01*
X99146531Y-156689157D01*
X99496717Y-156015722D02*
X99873841Y-155638598D01*
X100197089Y-156446720D01*
X72095722Y-152282592D02*
X72014910Y-152309529D01*
X71934097Y-152390341D01*
X71880223Y-152498091D01*
X71880223Y-152605841D01*
X71907160Y-152686653D01*
X71987972Y-152821340D01*
X72068784Y-152902152D01*
X72203471Y-152982964D01*
X72284284Y-153009902D01*
X72392033Y-153009902D01*
X72499783Y-152956027D01*
X72553658Y-152902152D01*
X72607532Y-152794402D01*
X72607532Y-152740528D01*
X72418971Y-152551966D01*
X72311221Y-152659715D01*
X72903844Y-152551966D02*
X72338158Y-151986280D01*
X72553658Y-151770781D01*
X72634470Y-151743844D01*
X72688345Y-151743844D01*
X72769157Y-151770781D01*
X72849969Y-151851593D01*
X72876906Y-151932406D01*
X72876906Y-151986280D01*
X72849969Y-152067093D01*
X72634470Y-152282592D01*
X73765841Y-151689969D02*
X73442592Y-152013218D01*
X73604216Y-151851593D02*
X73038531Y-151285908D01*
X73065468Y-151420595D01*
X73065468Y-151528345D01*
X73038531Y-151609157D01*
X73388717Y-150935722D02*
X73738903Y-150585536D01*
X73765841Y-150989597D01*
X73846653Y-150908784D01*
X73927465Y-150881847D01*
X73981340Y-150881847D01*
X74062152Y-150908784D01*
X74196839Y-151043471D01*
X74223776Y-151124284D01*
X74223776Y-151178158D01*
X74196839Y-151258971D01*
X74035215Y-151420595D01*
X73954402Y-151447532D01*
X73900528Y-151447532D01*
X72719096Y-134203218D02*
X72638284Y-134230155D01*
X72557471Y-134310967D01*
X72503597Y-134418717D01*
X72503597Y-134526467D01*
X72530534Y-134607279D01*
X72611346Y-134741966D01*
X72692158Y-134822778D01*
X72826845Y-134903590D01*
X72907658Y-134930528D01*
X73015407Y-134930528D01*
X73123157Y-134876653D01*
X73177032Y-134822778D01*
X73230906Y-134715028D01*
X73230906Y-134661154D01*
X73042345Y-134472592D01*
X72934595Y-134580341D01*
X73527218Y-134472592D02*
X72961532Y-133906906D01*
X73177032Y-133691407D01*
X73257844Y-133664470D01*
X73311719Y-133664470D01*
X73392531Y-133691407D01*
X73473343Y-133772219D01*
X73500280Y-133853032D01*
X73500280Y-133906906D01*
X73473343Y-133987719D01*
X73257844Y-134203218D01*
X73473343Y-133395096D02*
X73850467Y-133017972D01*
X74173715Y-133826094D01*
X71949722Y-149742592D02*
X71868910Y-149769529D01*
X71788097Y-149850341D01*
X71734223Y-149958091D01*
X71734223Y-150065841D01*
X71761160Y-150146653D01*
X71841972Y-150281340D01*
X71922784Y-150362152D01*
X72057471Y-150442964D01*
X72138284Y-150469902D01*
X72246033Y-150469902D01*
X72353783Y-150416027D01*
X72407658Y-150362152D01*
X72461532Y-150254402D01*
X72461532Y-150200528D01*
X72272971Y-150011966D01*
X72165221Y-150119715D01*
X72757844Y-150011966D02*
X72192158Y-149446280D01*
X72407658Y-149230781D01*
X72488470Y-149203844D01*
X72542345Y-149203844D01*
X72623157Y-149230781D01*
X72703969Y-149311593D01*
X72730906Y-149392406D01*
X72730906Y-149446280D01*
X72703969Y-149527093D01*
X72488470Y-149742592D01*
X73619841Y-149149969D02*
X73296592Y-149473218D01*
X73458216Y-149311593D02*
X72892531Y-148745908D01*
X72919468Y-148880595D01*
X72919468Y-148988345D01*
X72892531Y-149069157D01*
X73323529Y-148422659D02*
X73323529Y-148368784D01*
X73350467Y-148287972D01*
X73485154Y-148153285D01*
X73565966Y-148126348D01*
X73619841Y-148126348D01*
X73700653Y-148153285D01*
X73754528Y-148207160D01*
X73808402Y-148314910D01*
X73808402Y-148961407D01*
X74158589Y-148611221D01*
X98203722Y-147202592D02*
X98122910Y-147229529D01*
X98042097Y-147310341D01*
X97988223Y-147418091D01*
X97988223Y-147525841D01*
X98015160Y-147606653D01*
X98095972Y-147741340D01*
X98176784Y-147822152D01*
X98311471Y-147902964D01*
X98392284Y-147929902D01*
X98500033Y-147929902D01*
X98607783Y-147876027D01*
X98661658Y-147822152D01*
X98715532Y-147714402D01*
X98715532Y-147660528D01*
X98526971Y-147471966D01*
X98419221Y-147579715D01*
X99011844Y-147471966D02*
X98446158Y-146906280D01*
X98661658Y-146690781D01*
X98742470Y-146663844D01*
X98796345Y-146663844D01*
X98877157Y-146690781D01*
X98957969Y-146771593D01*
X98984906Y-146852406D01*
X98984906Y-146906280D01*
X98957969Y-146987093D01*
X98742470Y-147202592D01*
X99038781Y-146421407D02*
X99038781Y-146367532D01*
X99065719Y-146286720D01*
X99200406Y-146152033D01*
X99281218Y-146125096D01*
X99335093Y-146125096D01*
X99415905Y-146152033D01*
X99469780Y-146205908D01*
X99523654Y-146313658D01*
X99523654Y-146960155D01*
X99873841Y-146609969D01*
X99658341Y-145694097D02*
X99712216Y-145640223D01*
X99793028Y-145613285D01*
X99846903Y-145613285D01*
X99927715Y-145640223D01*
X100062402Y-145721035D01*
X100197089Y-145855722D01*
X100277902Y-145990409D01*
X100304839Y-146071221D01*
X100304839Y-146125096D01*
X100277902Y-146205908D01*
X100224027Y-146259783D01*
X100143215Y-146286720D01*
X100089340Y-146286720D01*
X100008528Y-146259783D01*
X99873841Y-146178971D01*
X99739154Y-146044284D01*
X99658341Y-145909597D01*
X99631404Y-145828784D01*
X99631404Y-145774910D01*
X99658341Y-145694097D01*
X72095722Y-144662592D02*
X72014910Y-144689529D01*
X71934097Y-144770341D01*
X71880223Y-144878091D01*
X71880223Y-144985841D01*
X71907160Y-145066653D01*
X71987972Y-145201340D01*
X72068784Y-145282152D01*
X72203471Y-145362964D01*
X72284284Y-145389902D01*
X72392033Y-145389902D01*
X72499783Y-145336027D01*
X72553658Y-145282152D01*
X72607532Y-145174402D01*
X72607532Y-145120528D01*
X72418971Y-144931966D01*
X72311221Y-145039715D01*
X72903844Y-144931966D02*
X72338158Y-144366280D01*
X72553658Y-144150781D01*
X72634470Y-144123844D01*
X72688345Y-144123844D01*
X72769157Y-144150781D01*
X72849969Y-144231593D01*
X72876906Y-144312406D01*
X72876906Y-144366280D01*
X72849969Y-144447093D01*
X72634470Y-144662592D01*
X73765841Y-144069969D02*
X73442592Y-144393218D01*
X73604216Y-144231593D02*
X73038531Y-143665908D01*
X73065468Y-143800595D01*
X73065468Y-143908345D01*
X73038531Y-143989157D01*
X73550341Y-143154097D02*
X73604216Y-143100223D01*
X73685028Y-143073285D01*
X73738903Y-143073285D01*
X73819715Y-143100223D01*
X73954402Y-143181035D01*
X74089089Y-143315722D01*
X74169902Y-143450409D01*
X74196839Y-143531221D01*
X74196839Y-143585096D01*
X74169902Y-143665908D01*
X74116027Y-143719783D01*
X74035215Y-143746720D01*
X73981340Y-143746720D01*
X73900528Y-143719783D01*
X73765841Y-143638971D01*
X73631154Y-143504284D01*
X73550341Y-143369597D01*
X73523404Y-143288784D01*
X73523404Y-143234910D01*
X73550341Y-143154097D01*
X72619096Y-124073218D02*
X72538284Y-124100155D01*
X72457471Y-124180967D01*
X72403597Y-124288717D01*
X72403597Y-124396467D01*
X72430534Y-124477279D01*
X72511346Y-124611966D01*
X72592158Y-124692778D01*
X72726845Y-124773590D01*
X72807658Y-124800528D01*
X72915407Y-124800528D01*
X73023157Y-124746653D01*
X73077032Y-124692778D01*
X73130906Y-124585028D01*
X73130906Y-124531154D01*
X72942345Y-124342592D01*
X72834595Y-124450341D01*
X73427218Y-124342592D02*
X72861532Y-123776906D01*
X73077032Y-123561407D01*
X73157844Y-123534470D01*
X73211719Y-123534470D01*
X73292531Y-123561407D01*
X73373343Y-123642219D01*
X73400280Y-123723032D01*
X73400280Y-123776906D01*
X73373343Y-123857719D01*
X73157844Y-124073218D01*
X73858216Y-123157346D02*
X74235340Y-123534470D01*
X73508030Y-123076534D02*
X73777404Y-123615282D01*
X74127590Y-123265096D01*
X72095722Y-159902592D02*
X72014910Y-159929529D01*
X71934097Y-160010341D01*
X71880223Y-160118091D01*
X71880223Y-160225841D01*
X71907160Y-160306653D01*
X71987972Y-160441340D01*
X72068784Y-160522152D01*
X72203471Y-160602964D01*
X72284284Y-160629902D01*
X72392033Y-160629902D01*
X72499783Y-160576027D01*
X72553658Y-160522152D01*
X72607532Y-160414402D01*
X72607532Y-160360528D01*
X72418971Y-160171966D01*
X72311221Y-160279715D01*
X72903844Y-160171966D02*
X72338158Y-159606280D01*
X72553658Y-159390781D01*
X72634470Y-159363844D01*
X72688345Y-159363844D01*
X72769157Y-159390781D01*
X72849969Y-159471593D01*
X72876906Y-159552406D01*
X72876906Y-159606280D01*
X72849969Y-159687093D01*
X72634470Y-159902592D01*
X73765841Y-159309969D02*
X73442592Y-159633218D01*
X73604216Y-159471593D02*
X73038531Y-158905908D01*
X73065468Y-159040595D01*
X73065468Y-159148345D01*
X73038531Y-159229157D01*
X73711966Y-158232473D02*
X73442592Y-158501847D01*
X73685028Y-158798158D01*
X73685028Y-158744284D01*
X73711966Y-158663471D01*
X73846653Y-158528784D01*
X73927465Y-158501847D01*
X73981340Y-158501847D01*
X74062152Y-158528784D01*
X74196839Y-158663471D01*
X74223776Y-158744284D01*
X74223776Y-158798158D01*
X74196839Y-158878971D01*
X74062152Y-159013658D01*
X73981340Y-159040595D01*
X73927465Y-159040595D01*
X63420666Y-132514380D02*
X63420666Y-133228666D01*
X63373047Y-133371523D01*
X63277809Y-133466761D01*
X63134952Y-133514380D01*
X63039714Y-133514380D01*
X64420666Y-133514380D02*
X63849238Y-133514380D01*
X64134952Y-133514380D02*
X64134952Y-132514380D01*
X64039714Y-132657238D01*
X63944476Y-132752476D01*
X63849238Y-132800095D01*
X107116714Y-124444380D02*
X107116714Y-123444380D01*
X107354809Y-123444380D01*
X107497666Y-123492000D01*
X107592904Y-123587238D01*
X107640523Y-123682476D01*
X107688142Y-123872952D01*
X107688142Y-124015809D01*
X107640523Y-124206285D01*
X107592904Y-124301523D01*
X107497666Y-124396761D01*
X107354809Y-124444380D01*
X107116714Y-124444380D01*
X108545285Y-123777714D02*
X108545285Y-124444380D01*
X108307190Y-123396761D02*
X108069095Y-124111047D01*
X108688142Y-124111047D01*
X109592904Y-124444380D02*
X109021476Y-124444380D01*
X109307190Y-124444380D02*
X109307190Y-123444380D01*
X109211952Y-123587238D01*
X109116714Y-123682476D01*
X109021476Y-123730095D01*
X109997904Y-130228666D02*
X110474095Y-130228666D01*
X109902666Y-130514380D02*
X110236000Y-129514380D01*
X110569333Y-130514380D01*
X64960666Y-153126761D02*
X65103523Y-153174380D01*
X65341619Y-153174380D01*
X65436857Y-153126761D01*
X65484476Y-153079142D01*
X65532095Y-152983904D01*
X65532095Y-152888666D01*
X65484476Y-152793428D01*
X65436857Y-152745809D01*
X65341619Y-152698190D01*
X65151142Y-152650571D01*
X65055904Y-152602952D01*
X65008285Y-152555333D01*
X64960666Y-152460095D01*
X64960666Y-152364857D01*
X65008285Y-152269619D01*
X65055904Y-152222000D01*
X65151142Y-152174380D01*
X65389238Y-152174380D01*
X65532095Y-152222000D01*
X65865428Y-152174380D02*
X66103523Y-153174380D01*
X66294000Y-152460095D01*
X66484476Y-153174380D01*
X66722571Y-152174380D01*
X67627333Y-153174380D02*
X67055904Y-153174380D01*
X67341619Y-153174380D02*
X67341619Y-152174380D01*
X67246380Y-152317238D01*
X67151142Y-152412476D01*
X67055904Y-152460095D01*
D12*
X104601500Y-158864500D02*
X104601500Y-152324500D01*
X103231500Y-151554500D02*
X103231500Y-152324500D01*
X104601500Y-152324500D02*
X101861500Y-152324500D01*
X101861500Y-158864500D02*
X104601500Y-158864500D01*
X103231500Y-159634500D02*
X103231500Y-158864500D01*
X101861500Y-152324500D02*
X101861500Y-158864500D01*
D13*
X67818000Y-129794000D02*
X60706000Y-129794000D01*
X67818000Y-111506000D02*
X60706000Y-111506000D01*
X68580000Y-130048000D02*
G75*
G03*
X68580000Y-130048000I-254000J0D01*
G01*
D12*
X110594000Y-120042000D02*
X103354000Y-120042000D01*
X110594000Y-122782000D02*
X103354000Y-122782000D01*
X110594000Y-122782000D02*
X110594000Y-120042000D01*
X103354000Y-122782000D02*
X103354000Y-120042000D01*
X112034000Y-110292000D02*
X101914000Y-110292000D01*
X105732000Y-112800000D02*
X106127000Y-112404000D01*
X112034000Y-109192000D02*
X101914000Y-109192000D01*
X102820000Y-115180000D02*
X103215000Y-114784000D01*
X112034000Y-117852000D02*
X112034000Y-108732000D01*
X103086000Y-115446000D02*
X103466000Y-115066000D01*
X107820000Y-115180000D02*
X107927000Y-115073000D01*
X112034000Y-117852000D02*
X101914000Y-117852000D01*
X112274000Y-108492000D02*
X111874000Y-108492000D01*
X101914000Y-117852000D02*
X101914000Y-108732000D01*
X111022000Y-112511000D02*
X111128000Y-112404000D01*
X110756000Y-112245000D02*
X110862000Y-112138000D01*
X105481000Y-112518000D02*
X105861000Y-112138000D01*
X112274000Y-109132000D02*
X112274000Y-108492000D01*
X108086000Y-115446000D02*
X108193000Y-115339000D01*
X112034000Y-108732000D02*
X101914000Y-108732000D01*
X106654000Y-113792000D02*
G75*
G03*
X106654000Y-113792000I-2180000J0D01*
G01*
X111654000Y-113792000D02*
G75*
G03*
X111654000Y-113792000I-2180000J0D01*
G01*
X107371500Y-158620500D02*
X107371500Y-162220500D01*
X107371500Y-162220500D02*
G75*
G03*
X108098705Y-162744684I1850000J1800000D01*
G01*
X111821500Y-160420500D02*
G75*
G03*
X110320307Y-158064100I-2600000J0D01*
G01*
X108098705Y-158096316D02*
G75*
G03*
X107371500Y-158620500I1122795J-2324184D01*
G01*
X110320307Y-162776900D02*
G75*
G03*
X111821500Y-160420500I-1098807J2356400D01*
G01*
X75606000Y-147882000D02*
X75606000Y-148282000D01*
X84606000Y-160882000D02*
X85006000Y-160882000D01*
X75606000Y-112282000D02*
X75606000Y-112682000D01*
X96606000Y-135182000D02*
X96606000Y-135582000D01*
X75606000Y-135182000D02*
X75606000Y-135582000D01*
X96606000Y-155482000D02*
X96606000Y-155882000D01*
X96606000Y-112282000D02*
X96606000Y-112682000D01*
X75606000Y-137682000D02*
X75606000Y-138082000D01*
X75606000Y-109882000D02*
X75606000Y-110182000D01*
X75606000Y-109882000D02*
X96606000Y-109882000D01*
X75606000Y-119982000D02*
X75606000Y-120382000D01*
X75606000Y-117382000D02*
X75606000Y-117782000D01*
X96606000Y-114882000D02*
X96606000Y-115282000D01*
X96606000Y-152982000D02*
X96606000Y-153382000D01*
X75606000Y-114882000D02*
X75606000Y-115282000D01*
X75606000Y-122482000D02*
X75606000Y-122882000D01*
X96606000Y-158082000D02*
X96606000Y-158482000D01*
X75606000Y-145382000D02*
X75606000Y-145782000D01*
X96606000Y-122482000D02*
X96606000Y-122882000D01*
X75606000Y-152982000D02*
X75606000Y-153382000D01*
X75606000Y-140282000D02*
X75606000Y-140682000D01*
X87206000Y-160882000D02*
X87606000Y-160882000D01*
X82406000Y-160882000D02*
X75606000Y-160882000D01*
X75606000Y-112549000D02*
X78613000Y-112549000D01*
X96606000Y-130082000D02*
X96606000Y-130482000D01*
X75606000Y-150482000D02*
X75606000Y-150882000D01*
X96606000Y-124982000D02*
X96606000Y-125382000D01*
X96606000Y-142782000D02*
X96606000Y-143182000D01*
X75606000Y-132682000D02*
X75606000Y-133082000D01*
X75606000Y-142782000D02*
X75606000Y-143182000D01*
X96606000Y-145382000D02*
X96606000Y-145782000D01*
X75606000Y-127582000D02*
X75606000Y-127982000D01*
X75606000Y-130082000D02*
X75606000Y-130482000D01*
X96606000Y-150482000D02*
X96606000Y-150882000D01*
X75606000Y-124982000D02*
X75606000Y-125382000D01*
X96606000Y-117382000D02*
X96606000Y-117782000D01*
X78613000Y-112549000D02*
X78613000Y-109882000D01*
X96606000Y-119982000D02*
X96606000Y-120382000D01*
X96606000Y-109882000D02*
X96606000Y-110182000D01*
X75606000Y-155482000D02*
X75606000Y-155882000D01*
X96606000Y-147882000D02*
X96606000Y-148282000D01*
X75606000Y-158082000D02*
X75606000Y-158482000D01*
X96606000Y-140282000D02*
X96606000Y-140682000D01*
X96606000Y-127582000D02*
X96606000Y-127982000D01*
X96606000Y-132682000D02*
X96606000Y-133082000D01*
X96606000Y-160882000D02*
X89806000Y-160882000D01*
X96606000Y-137682000D02*
X96606000Y-138082000D01*
X62424000Y-144342000D02*
X65084000Y-144342000D01*
X62424000Y-134062000D02*
X63754000Y-134062000D01*
X62424000Y-135392000D02*
X62424000Y-134062000D01*
X62424000Y-136662000D02*
X62424000Y-144342000D01*
X62424000Y-136662000D02*
X65084000Y-136662000D01*
X65084000Y-136662000D02*
X65084000Y-144342000D01*
X108839151Y-126462000D02*
G75*
G03*
X108787782Y-129153144I-2413151J-1300000D01*
G01*
X64044000Y-160222000D02*
X68544000Y-160222000D01*
X69794000Y-157722000D02*
X69794000Y-156222000D01*
X68544000Y-153722000D02*
X64044000Y-153722000D01*
X62794000Y-156222000D02*
X62794000Y-157722000D01*
%LPC*%
D14*
X103231500Y-150514500D03*
D15*
X103231500Y-160674500D03*
D16*
X68072000Y-128270000D03*
X68072000Y-125730000D03*
X68072000Y-123190000D03*
X68072000Y-120650000D03*
X68072000Y-118110000D03*
X68072000Y-115570000D03*
X68072000Y-113030000D03*
X60452000Y-113030000D03*
X60452000Y-115570000D03*
X60452000Y-118110000D03*
X60452000Y-120650000D03*
X60452000Y-123190000D03*
X60452000Y-125730000D03*
X60452000Y-128270000D03*
D14*
X109474000Y-121412000D03*
X104474000Y-121412000D03*
D17*
X109474000Y-113792000D03*
D18*
X104474000Y-113792000D03*
D19*
X109221500Y-157880500D03*
D20*
X109221500Y-160420500D03*
X109221500Y-162960500D03*
D21*
X88531000Y-114412000D03*
D22*
X83381000Y-111382000D03*
X88831000Y-111382000D03*
D21*
X83681000Y-114412000D03*
D23*
X77216000Y-111252000D03*
D24*
X76316000Y-111252000D03*
X76316000Y-113792000D03*
D23*
X77216000Y-113792000D03*
D24*
X76316000Y-116332000D03*
D25*
X77216000Y-116332000D03*
D24*
X76316000Y-118872000D03*
D23*
X77216000Y-118872000D03*
D24*
X76316000Y-121412000D03*
D23*
X77216000Y-121412000D03*
X77216000Y-123952000D03*
D24*
X76316000Y-123952000D03*
X76316000Y-126492000D03*
D23*
X77216000Y-126492000D03*
D24*
X76316000Y-129032000D03*
D25*
X77216000Y-129032000D03*
D23*
X77216000Y-131572000D03*
D24*
X76316000Y-131572000D03*
X76316000Y-134112000D03*
D23*
X77216000Y-134112000D03*
X77216000Y-136652000D03*
D24*
X76316000Y-136652000D03*
D23*
X77216000Y-139192000D03*
D24*
X76316000Y-139192000D03*
X76316000Y-141732000D03*
D25*
X77216000Y-141732000D03*
D23*
X77216000Y-144272000D03*
D24*
X76316000Y-144272000D03*
X76316000Y-146812000D03*
D23*
X77216000Y-146812000D03*
D24*
X76316000Y-149352000D03*
D23*
X77216000Y-149352000D03*
D24*
X76316000Y-151892000D03*
D23*
X77216000Y-151892000D03*
D25*
X77216000Y-154432000D03*
D24*
X76316000Y-154432000D03*
D23*
X77216000Y-156972000D03*
D24*
X76316000Y-156972000D03*
D23*
X77216000Y-159512000D03*
D24*
X76316000Y-159512000D03*
X95896000Y-159512000D03*
D23*
X94996000Y-159512000D03*
D24*
X95896000Y-156972000D03*
D23*
X94996000Y-156972000D03*
D25*
X94996000Y-154432000D03*
D24*
X95896000Y-154432000D03*
D23*
X94996000Y-151892000D03*
D24*
X95896000Y-151892000D03*
X95896000Y-149352000D03*
D23*
X94996000Y-149352000D03*
D24*
X95896000Y-146812000D03*
D23*
X94996000Y-146812000D03*
D24*
X95896000Y-144272000D03*
D23*
X94996000Y-144272000D03*
D25*
X94996000Y-141732000D03*
D24*
X95896000Y-141732000D03*
X95896000Y-139192000D03*
D23*
X94996000Y-139192000D03*
D24*
X95896000Y-136652000D03*
D23*
X94996000Y-136652000D03*
X94996000Y-134112000D03*
D24*
X95896000Y-134112000D03*
D23*
X94996000Y-131572000D03*
D24*
X95896000Y-131572000D03*
X95896000Y-129032000D03*
D25*
X94996000Y-129032000D03*
D24*
X95896000Y-126492000D03*
D23*
X94996000Y-126492000D03*
D24*
X95896000Y-123952000D03*
D23*
X94996000Y-123952000D03*
X94996000Y-121412000D03*
D24*
X95896000Y-121412000D03*
D23*
X94996000Y-118872000D03*
D24*
X95896000Y-118872000D03*
D25*
X94996000Y-116332000D03*
D24*
X95896000Y-116332000D03*
D23*
X94996000Y-113792000D03*
D24*
X95896000Y-113792000D03*
D23*
X94996000Y-111252000D03*
D24*
X95896000Y-111252000D03*
D23*
X83566000Y-159282000D03*
D26*
X83566000Y-160182000D03*
D25*
X86106000Y-159282000D03*
D26*
X86106000Y-160182000D03*
X88646000Y-160182000D03*
D23*
X88646000Y-159282000D03*
D25*
X63754000Y-135392000D03*
D23*
X63754000Y-137932000D03*
X63754000Y-140472000D03*
X63754000Y-143012000D03*
D27*
X106426000Y-127762000D03*
D28*
X110236000Y-127762000D03*
D29*
X69544000Y-154722000D03*
X63044000Y-154722000D03*
X69544000Y-159222000D03*
X63044000Y-159222000D03*
M02*
