G04 #@! TF.GenerationSoftware,KiCad,Pcbnew,(6.0.6)*
G04 #@! TF.CreationDate,2022-11-08T17:29:06-05:00*
G04 #@! TF.ProjectId,pov_display,706f765f-6469-4737-906c-61792e6b6963,v01*
G04 #@! TF.SameCoordinates,Original*
G04 #@! TF.FileFunction,Legend,Top*
G04 #@! TF.FilePolarity,Positive*
%FSLAX46Y46*%
G04 Gerber Fmt 4.6, Leading zero omitted, Abs format (unit mm)*
G04 Created by KiCad (PCBNEW (6.0.6)) date 2022-11-08 17:29:06*
%MOMM*%
%LPD*%
G01*
G04 APERTURE LIST*
G04 Aperture macros list*
%AMRoundRect*
0 Rectangle with rounded corners*
0 $1 Rounding radius*
0 $2 $3 $4 $5 $6 $7 $8 $9 X,Y pos of 4 corners*
0 Add a 4 corners polygon primitive as box body*
4,1,4,$2,$3,$4,$5,$6,$7,$8,$9,$2,$3,0*
0 Add four circle primitives for the rounded corners*
1,1,$1+$1,$2,$3*
1,1,$1+$1,$4,$5*
1,1,$1+$1,$6,$7*
1,1,$1+$1,$8,$9*
0 Add four rect primitives between the rounded corners*
20,1,$1+$1,$2,$3,$4,$5,0*
20,1,$1+$1,$4,$5,$6,$7,0*
20,1,$1+$1,$6,$7,$8,$9,0*
20,1,$1+$1,$8,$9,$2,$3,0*%
G04 Aperture macros list end*
%ADD10C,0.300000*%
%ADD11C,0.150000*%
%ADD12C,0.120000*%
%ADD13RoundRect,0.050800X1.000000X-0.550000X1.000000X0.550000X-1.000000X0.550000X-1.000000X-0.550000X0*%
%ADD14O,1.801600X1.801600*%
%ADD15RoundRect,0.050800X-0.850000X-0.850000X0.850000X-0.850000X0.850000X0.850000X-0.850000X0.850000X0*%
G04 APERTURE END LIST*
D10*
X77597142Y-66052000D02*
X77454285Y-65980571D01*
X77240000Y-65980571D01*
X77025714Y-66052000D01*
X76882857Y-66194857D01*
X76811428Y-66337714D01*
X76740000Y-66623428D01*
X76740000Y-66837714D01*
X76811428Y-67123428D01*
X76882857Y-67266285D01*
X77025714Y-67409142D01*
X77240000Y-67480571D01*
X77382857Y-67480571D01*
X77597142Y-67409142D01*
X77668571Y-67337714D01*
X77668571Y-66837714D01*
X77382857Y-66837714D01*
X78311428Y-67480571D02*
X78311428Y-65980571D01*
X79168571Y-67480571D01*
X79168571Y-65980571D01*
X79882857Y-67480571D02*
X79882857Y-65980571D01*
X80240000Y-65980571D01*
X80454285Y-66052000D01*
X80597142Y-66194857D01*
X80668571Y-66337714D01*
X80740000Y-66623428D01*
X80740000Y-66837714D01*
X80668571Y-67123428D01*
X80597142Y-67266285D01*
X80454285Y-67409142D01*
X80240000Y-67480571D01*
X79882857Y-67480571D01*
X79692571Y-58273142D02*
X80835428Y-58273142D01*
X80264000Y-58844571D02*
X80264000Y-57701714D01*
X76128857Y-64686571D02*
X76128857Y-63186571D01*
X76628857Y-64258000D01*
X77128857Y-63186571D01*
X77128857Y-64686571D01*
X78128857Y-63186571D02*
X78414571Y-63186571D01*
X78557428Y-63258000D01*
X78700285Y-63400857D01*
X78771714Y-63686571D01*
X78771714Y-64186571D01*
X78700285Y-64472285D01*
X78557428Y-64615142D01*
X78414571Y-64686571D01*
X78128857Y-64686571D01*
X77986000Y-64615142D01*
X77843142Y-64472285D01*
X77771714Y-64186571D01*
X77771714Y-63686571D01*
X77843142Y-63400857D01*
X77986000Y-63258000D01*
X78128857Y-63186571D01*
X79343142Y-64615142D02*
X79557428Y-64686571D01*
X79914571Y-64686571D01*
X80057428Y-64615142D01*
X80128857Y-64543714D01*
X80200285Y-64400857D01*
X80200285Y-64258000D01*
X80128857Y-64115142D01*
X80057428Y-64043714D01*
X79914571Y-63972285D01*
X79628857Y-63900857D01*
X79486000Y-63829428D01*
X79414571Y-63758000D01*
X79343142Y-63615142D01*
X79343142Y-63472285D01*
X79414571Y-63329428D01*
X79486000Y-63258000D01*
X79628857Y-63186571D01*
X79986000Y-63186571D01*
X80200285Y-63258000D01*
X80843142Y-64686571D02*
X80843142Y-63186571D01*
X76811428Y-61567142D02*
X77025714Y-61638571D01*
X77382857Y-61638571D01*
X77525714Y-61567142D01*
X77597142Y-61495714D01*
X77668571Y-61352857D01*
X77668571Y-61210000D01*
X77597142Y-61067142D01*
X77525714Y-60995714D01*
X77382857Y-60924285D01*
X77097142Y-60852857D01*
X76954285Y-60781428D01*
X76882857Y-60710000D01*
X76811428Y-60567142D01*
X76811428Y-60424285D01*
X76882857Y-60281428D01*
X76954285Y-60210000D01*
X77097142Y-60138571D01*
X77454285Y-60138571D01*
X77668571Y-60210000D01*
X79168571Y-61495714D02*
X79097142Y-61567142D01*
X78882857Y-61638571D01*
X78740000Y-61638571D01*
X78525714Y-61567142D01*
X78382857Y-61424285D01*
X78311428Y-61281428D01*
X78240000Y-60995714D01*
X78240000Y-60781428D01*
X78311428Y-60495714D01*
X78382857Y-60352857D01*
X78525714Y-60210000D01*
X78740000Y-60138571D01*
X78882857Y-60138571D01*
X79097142Y-60210000D01*
X79168571Y-60281428D01*
X79811428Y-61638571D02*
X79811428Y-60138571D01*
X80668571Y-61638571D02*
X80025714Y-60781428D01*
X80668571Y-60138571D02*
X79811428Y-60995714D01*
D11*
X101115904Y-59436380D02*
X101115904Y-58436380D01*
X101354000Y-58436380D01*
X101496857Y-58484000D01*
X101592095Y-58579238D01*
X101639714Y-58674476D01*
X101687333Y-58864952D01*
X101687333Y-59007809D01*
X101639714Y-59198285D01*
X101592095Y-59293523D01*
X101496857Y-59388761D01*
X101354000Y-59436380D01*
X101115904Y-59436380D01*
X102068285Y-58531619D02*
X102115904Y-58484000D01*
X102211142Y-58436380D01*
X102449238Y-58436380D01*
X102544476Y-58484000D01*
X102592095Y-58531619D01*
X102639714Y-58626857D01*
X102639714Y-58722095D01*
X102592095Y-58864952D01*
X102020666Y-59436380D01*
X102639714Y-59436380D01*
X245419714Y-59436380D02*
X245419714Y-58436380D01*
X245657809Y-58436380D01*
X245800666Y-58484000D01*
X245895904Y-58579238D01*
X245943523Y-58674476D01*
X245991142Y-58864952D01*
X245991142Y-59007809D01*
X245943523Y-59198285D01*
X245895904Y-59293523D01*
X245800666Y-59388761D01*
X245657809Y-59436380D01*
X245419714Y-59436380D01*
X246372095Y-58531619D02*
X246419714Y-58484000D01*
X246514952Y-58436380D01*
X246753047Y-58436380D01*
X246848285Y-58484000D01*
X246895904Y-58531619D01*
X246943523Y-58626857D01*
X246943523Y-58722095D01*
X246895904Y-58864952D01*
X246324476Y-59436380D01*
X246943523Y-59436380D01*
X247895904Y-59436380D02*
X247324476Y-59436380D01*
X247610190Y-59436380D02*
X247610190Y-58436380D01*
X247514952Y-58579238D01*
X247419714Y-58674476D01*
X247324476Y-58722095D01*
X222559714Y-59436380D02*
X222559714Y-58436380D01*
X222797809Y-58436380D01*
X222940666Y-58484000D01*
X223035904Y-58579238D01*
X223083523Y-58674476D01*
X223131142Y-58864952D01*
X223131142Y-59007809D01*
X223083523Y-59198285D01*
X223035904Y-59293523D01*
X222940666Y-59388761D01*
X222797809Y-59436380D01*
X222559714Y-59436380D01*
X224083523Y-59436380D02*
X223512095Y-59436380D01*
X223797809Y-59436380D02*
X223797809Y-58436380D01*
X223702571Y-58579238D01*
X223607333Y-58674476D01*
X223512095Y-58722095D01*
X224654952Y-58864952D02*
X224559714Y-58817333D01*
X224512095Y-58769714D01*
X224464476Y-58674476D01*
X224464476Y-58626857D01*
X224512095Y-58531619D01*
X224559714Y-58484000D01*
X224654952Y-58436380D01*
X224845428Y-58436380D01*
X224940666Y-58484000D01*
X224988285Y-58531619D01*
X225035904Y-58626857D01*
X225035904Y-58674476D01*
X224988285Y-58769714D01*
X224940666Y-58817333D01*
X224845428Y-58864952D01*
X224654952Y-58864952D01*
X224559714Y-58912571D01*
X224512095Y-58960190D01*
X224464476Y-59055428D01*
X224464476Y-59245904D01*
X224512095Y-59341142D01*
X224559714Y-59388761D01*
X224654952Y-59436380D01*
X224845428Y-59436380D01*
X224940666Y-59388761D01*
X224988285Y-59341142D01*
X225035904Y-59245904D01*
X225035904Y-59055428D01*
X224988285Y-58960190D01*
X224940666Y-58912571D01*
X224845428Y-58864952D01*
X199699714Y-59436380D02*
X199699714Y-58436380D01*
X199937809Y-58436380D01*
X200080666Y-58484000D01*
X200175904Y-58579238D01*
X200223523Y-58674476D01*
X200271142Y-58864952D01*
X200271142Y-59007809D01*
X200223523Y-59198285D01*
X200175904Y-59293523D01*
X200080666Y-59388761D01*
X199937809Y-59436380D01*
X199699714Y-59436380D01*
X201223523Y-59436380D02*
X200652095Y-59436380D01*
X200937809Y-59436380D02*
X200937809Y-58436380D01*
X200842571Y-58579238D01*
X200747333Y-58674476D01*
X200652095Y-58722095D01*
X202128285Y-58436380D02*
X201652095Y-58436380D01*
X201604476Y-58912571D01*
X201652095Y-58864952D01*
X201747333Y-58817333D01*
X201985428Y-58817333D01*
X202080666Y-58864952D01*
X202128285Y-58912571D01*
X202175904Y-59007809D01*
X202175904Y-59245904D01*
X202128285Y-59341142D01*
X202080666Y-59388761D01*
X201985428Y-59436380D01*
X201747333Y-59436380D01*
X201652095Y-59388761D01*
X201604476Y-59341142D01*
X344479714Y-59436380D02*
X344479714Y-58436380D01*
X344717809Y-58436380D01*
X344860666Y-58484000D01*
X344955904Y-58579238D01*
X345003523Y-58674476D01*
X345051142Y-58864952D01*
X345051142Y-59007809D01*
X345003523Y-59198285D01*
X344955904Y-59293523D01*
X344860666Y-59388761D01*
X344717809Y-59436380D01*
X344479714Y-59436380D01*
X345384476Y-58436380D02*
X346003523Y-58436380D01*
X345670190Y-58817333D01*
X345813047Y-58817333D01*
X345908285Y-58864952D01*
X345955904Y-58912571D01*
X346003523Y-59007809D01*
X346003523Y-59245904D01*
X345955904Y-59341142D01*
X345908285Y-59388761D01*
X345813047Y-59436380D01*
X345527333Y-59436380D01*
X345432095Y-59388761D01*
X345384476Y-59341142D01*
X346860666Y-58769714D02*
X346860666Y-59436380D01*
X346622571Y-58388761D02*
X346384476Y-59103047D01*
X347003523Y-59103047D01*
X291139714Y-59436380D02*
X291139714Y-58436380D01*
X291377809Y-58436380D01*
X291520666Y-58484000D01*
X291615904Y-58579238D01*
X291663523Y-58674476D01*
X291711142Y-58864952D01*
X291711142Y-59007809D01*
X291663523Y-59198285D01*
X291615904Y-59293523D01*
X291520666Y-59388761D01*
X291377809Y-59436380D01*
X291139714Y-59436380D01*
X292092095Y-58531619D02*
X292139714Y-58484000D01*
X292234952Y-58436380D01*
X292473047Y-58436380D01*
X292568285Y-58484000D01*
X292615904Y-58531619D01*
X292663523Y-58626857D01*
X292663523Y-58722095D01*
X292615904Y-58864952D01*
X292044476Y-59436380D01*
X292663523Y-59436380D01*
X292996857Y-58436380D02*
X293663523Y-58436380D01*
X293234952Y-59436380D01*
X230179714Y-59436380D02*
X230179714Y-58436380D01*
X230417809Y-58436380D01*
X230560666Y-58484000D01*
X230655904Y-58579238D01*
X230703523Y-58674476D01*
X230751142Y-58864952D01*
X230751142Y-59007809D01*
X230703523Y-59198285D01*
X230655904Y-59293523D01*
X230560666Y-59388761D01*
X230417809Y-59436380D01*
X230179714Y-59436380D01*
X231703523Y-59436380D02*
X231132095Y-59436380D01*
X231417809Y-59436380D02*
X231417809Y-58436380D01*
X231322571Y-58579238D01*
X231227333Y-58674476D01*
X231132095Y-58722095D01*
X232179714Y-59436380D02*
X232370190Y-59436380D01*
X232465428Y-59388761D01*
X232513047Y-59341142D01*
X232608285Y-59198285D01*
X232655904Y-59007809D01*
X232655904Y-58626857D01*
X232608285Y-58531619D01*
X232560666Y-58484000D01*
X232465428Y-58436380D01*
X232274952Y-58436380D01*
X232179714Y-58484000D01*
X232132095Y-58531619D01*
X232084476Y-58626857D01*
X232084476Y-58864952D01*
X232132095Y-58960190D01*
X232179714Y-59007809D01*
X232274952Y-59055428D01*
X232465428Y-59055428D01*
X232560666Y-59007809D01*
X232608285Y-58960190D01*
X232655904Y-58864952D01*
X93495904Y-59436380D02*
X93495904Y-58436380D01*
X93734000Y-58436380D01*
X93876857Y-58484000D01*
X93972095Y-58579238D01*
X94019714Y-58674476D01*
X94067333Y-58864952D01*
X94067333Y-59007809D01*
X94019714Y-59198285D01*
X93972095Y-59293523D01*
X93876857Y-59388761D01*
X93734000Y-59436380D01*
X93495904Y-59436380D01*
X95019714Y-59436380D02*
X94448285Y-59436380D01*
X94734000Y-59436380D02*
X94734000Y-58436380D01*
X94638761Y-58579238D01*
X94543523Y-58674476D01*
X94448285Y-58722095D01*
X146835904Y-59436380D02*
X146835904Y-58436380D01*
X147074000Y-58436380D01*
X147216857Y-58484000D01*
X147312095Y-58579238D01*
X147359714Y-58674476D01*
X147407333Y-58864952D01*
X147407333Y-59007809D01*
X147359714Y-59198285D01*
X147312095Y-59293523D01*
X147216857Y-59388761D01*
X147074000Y-59436380D01*
X146835904Y-59436380D01*
X147978761Y-58864952D02*
X147883523Y-58817333D01*
X147835904Y-58769714D01*
X147788285Y-58674476D01*
X147788285Y-58626857D01*
X147835904Y-58531619D01*
X147883523Y-58484000D01*
X147978761Y-58436380D01*
X148169238Y-58436380D01*
X148264476Y-58484000D01*
X148312095Y-58531619D01*
X148359714Y-58626857D01*
X148359714Y-58674476D01*
X148312095Y-58769714D01*
X148264476Y-58817333D01*
X148169238Y-58864952D01*
X147978761Y-58864952D01*
X147883523Y-58912571D01*
X147835904Y-58960190D01*
X147788285Y-59055428D01*
X147788285Y-59245904D01*
X147835904Y-59341142D01*
X147883523Y-59388761D01*
X147978761Y-59436380D01*
X148169238Y-59436380D01*
X148264476Y-59388761D01*
X148312095Y-59341142D01*
X148359714Y-59245904D01*
X148359714Y-59055428D01*
X148312095Y-58960190D01*
X148264476Y-58912571D01*
X148169238Y-58864952D01*
X283519714Y-59436380D02*
X283519714Y-58436380D01*
X283757809Y-58436380D01*
X283900666Y-58484000D01*
X283995904Y-58579238D01*
X284043523Y-58674476D01*
X284091142Y-58864952D01*
X284091142Y-59007809D01*
X284043523Y-59198285D01*
X283995904Y-59293523D01*
X283900666Y-59388761D01*
X283757809Y-59436380D01*
X283519714Y-59436380D01*
X284472095Y-58531619D02*
X284519714Y-58484000D01*
X284614952Y-58436380D01*
X284853047Y-58436380D01*
X284948285Y-58484000D01*
X284995904Y-58531619D01*
X285043523Y-58626857D01*
X285043523Y-58722095D01*
X284995904Y-58864952D01*
X284424476Y-59436380D01*
X285043523Y-59436380D01*
X285900666Y-58436380D02*
X285710190Y-58436380D01*
X285614952Y-58484000D01*
X285567333Y-58531619D01*
X285472095Y-58674476D01*
X285424476Y-58864952D01*
X285424476Y-59245904D01*
X285472095Y-59341142D01*
X285519714Y-59388761D01*
X285614952Y-59436380D01*
X285805428Y-59436380D01*
X285900666Y-59388761D01*
X285948285Y-59341142D01*
X285995904Y-59245904D01*
X285995904Y-59007809D01*
X285948285Y-58912571D01*
X285900666Y-58864952D01*
X285805428Y-58817333D01*
X285614952Y-58817333D01*
X285519714Y-58864952D01*
X285472095Y-58912571D01*
X285424476Y-59007809D01*
X184459714Y-59436380D02*
X184459714Y-58436380D01*
X184697809Y-58436380D01*
X184840666Y-58484000D01*
X184935904Y-58579238D01*
X184983523Y-58674476D01*
X185031142Y-58864952D01*
X185031142Y-59007809D01*
X184983523Y-59198285D01*
X184935904Y-59293523D01*
X184840666Y-59388761D01*
X184697809Y-59436380D01*
X184459714Y-59436380D01*
X185983523Y-59436380D02*
X185412095Y-59436380D01*
X185697809Y-59436380D02*
X185697809Y-58436380D01*
X185602571Y-58579238D01*
X185507333Y-58674476D01*
X185412095Y-58722095D01*
X186316857Y-58436380D02*
X186935904Y-58436380D01*
X186602571Y-58817333D01*
X186745428Y-58817333D01*
X186840666Y-58864952D01*
X186888285Y-58912571D01*
X186935904Y-59007809D01*
X186935904Y-59245904D01*
X186888285Y-59341142D01*
X186840666Y-59388761D01*
X186745428Y-59436380D01*
X186459714Y-59436380D01*
X186364476Y-59388761D01*
X186316857Y-59341142D01*
X367339714Y-59436380D02*
X367339714Y-58436380D01*
X367577809Y-58436380D01*
X367720666Y-58484000D01*
X367815904Y-58579238D01*
X367863523Y-58674476D01*
X367911142Y-58864952D01*
X367911142Y-59007809D01*
X367863523Y-59198285D01*
X367815904Y-59293523D01*
X367720666Y-59388761D01*
X367577809Y-59436380D01*
X367339714Y-59436380D01*
X368244476Y-58436380D02*
X368863523Y-58436380D01*
X368530190Y-58817333D01*
X368673047Y-58817333D01*
X368768285Y-58864952D01*
X368815904Y-58912571D01*
X368863523Y-59007809D01*
X368863523Y-59245904D01*
X368815904Y-59341142D01*
X368768285Y-59388761D01*
X368673047Y-59436380D01*
X368387333Y-59436380D01*
X368292095Y-59388761D01*
X368244476Y-59341142D01*
X369196857Y-58436380D02*
X369863523Y-58436380D01*
X369434952Y-59436380D01*
X169219714Y-59436380D02*
X169219714Y-58436380D01*
X169457809Y-58436380D01*
X169600666Y-58484000D01*
X169695904Y-58579238D01*
X169743523Y-58674476D01*
X169791142Y-58864952D01*
X169791142Y-59007809D01*
X169743523Y-59198285D01*
X169695904Y-59293523D01*
X169600666Y-59388761D01*
X169457809Y-59436380D01*
X169219714Y-59436380D01*
X170743523Y-59436380D02*
X170172095Y-59436380D01*
X170457809Y-59436380D02*
X170457809Y-58436380D01*
X170362571Y-58579238D01*
X170267333Y-58674476D01*
X170172095Y-58722095D01*
X171695904Y-59436380D02*
X171124476Y-59436380D01*
X171410190Y-59436380D02*
X171410190Y-58436380D01*
X171314952Y-58579238D01*
X171219714Y-58674476D01*
X171124476Y-58722095D01*
X214939714Y-59436380D02*
X214939714Y-58436380D01*
X215177809Y-58436380D01*
X215320666Y-58484000D01*
X215415904Y-58579238D01*
X215463523Y-58674476D01*
X215511142Y-58864952D01*
X215511142Y-59007809D01*
X215463523Y-59198285D01*
X215415904Y-59293523D01*
X215320666Y-59388761D01*
X215177809Y-59436380D01*
X214939714Y-59436380D01*
X216463523Y-59436380D02*
X215892095Y-59436380D01*
X216177809Y-59436380D02*
X216177809Y-58436380D01*
X216082571Y-58579238D01*
X215987333Y-58674476D01*
X215892095Y-58722095D01*
X216796857Y-58436380D02*
X217463523Y-58436380D01*
X217034952Y-59436380D01*
X260659714Y-59436380D02*
X260659714Y-58436380D01*
X260897809Y-58436380D01*
X261040666Y-58484000D01*
X261135904Y-58579238D01*
X261183523Y-58674476D01*
X261231142Y-58864952D01*
X261231142Y-59007809D01*
X261183523Y-59198285D01*
X261135904Y-59293523D01*
X261040666Y-59388761D01*
X260897809Y-59436380D01*
X260659714Y-59436380D01*
X261612095Y-58531619D02*
X261659714Y-58484000D01*
X261754952Y-58436380D01*
X261993047Y-58436380D01*
X262088285Y-58484000D01*
X262135904Y-58531619D01*
X262183523Y-58626857D01*
X262183523Y-58722095D01*
X262135904Y-58864952D01*
X261564476Y-59436380D01*
X262183523Y-59436380D01*
X262516857Y-58436380D02*
X263135904Y-58436380D01*
X262802571Y-58817333D01*
X262945428Y-58817333D01*
X263040666Y-58864952D01*
X263088285Y-58912571D01*
X263135904Y-59007809D01*
X263135904Y-59245904D01*
X263088285Y-59341142D01*
X263040666Y-59388761D01*
X262945428Y-59436380D01*
X262659714Y-59436380D01*
X262564476Y-59388761D01*
X262516857Y-59341142D01*
X154455904Y-59436380D02*
X154455904Y-58436380D01*
X154694000Y-58436380D01*
X154836857Y-58484000D01*
X154932095Y-58579238D01*
X154979714Y-58674476D01*
X155027333Y-58864952D01*
X155027333Y-59007809D01*
X154979714Y-59198285D01*
X154932095Y-59293523D01*
X154836857Y-59388761D01*
X154694000Y-59436380D01*
X154455904Y-59436380D01*
X155503523Y-59436380D02*
X155694000Y-59436380D01*
X155789238Y-59388761D01*
X155836857Y-59341142D01*
X155932095Y-59198285D01*
X155979714Y-59007809D01*
X155979714Y-58626857D01*
X155932095Y-58531619D01*
X155884476Y-58484000D01*
X155789238Y-58436380D01*
X155598761Y-58436380D01*
X155503523Y-58484000D01*
X155455904Y-58531619D01*
X155408285Y-58626857D01*
X155408285Y-58864952D01*
X155455904Y-58960190D01*
X155503523Y-59007809D01*
X155598761Y-59055428D01*
X155789238Y-59055428D01*
X155884476Y-59007809D01*
X155932095Y-58960190D01*
X155979714Y-58864952D01*
X161599714Y-59436380D02*
X161599714Y-58436380D01*
X161837809Y-58436380D01*
X161980666Y-58484000D01*
X162075904Y-58579238D01*
X162123523Y-58674476D01*
X162171142Y-58864952D01*
X162171142Y-59007809D01*
X162123523Y-59198285D01*
X162075904Y-59293523D01*
X161980666Y-59388761D01*
X161837809Y-59436380D01*
X161599714Y-59436380D01*
X163123523Y-59436380D02*
X162552095Y-59436380D01*
X162837809Y-59436380D02*
X162837809Y-58436380D01*
X162742571Y-58579238D01*
X162647333Y-58674476D01*
X162552095Y-58722095D01*
X163742571Y-58436380D02*
X163837809Y-58436380D01*
X163933047Y-58484000D01*
X163980666Y-58531619D01*
X164028285Y-58626857D01*
X164075904Y-58817333D01*
X164075904Y-59055428D01*
X164028285Y-59245904D01*
X163980666Y-59341142D01*
X163933047Y-59388761D01*
X163837809Y-59436380D01*
X163742571Y-59436380D01*
X163647333Y-59388761D01*
X163599714Y-59341142D01*
X163552095Y-59245904D01*
X163504476Y-59055428D01*
X163504476Y-58817333D01*
X163552095Y-58626857D01*
X163599714Y-58531619D01*
X163647333Y-58484000D01*
X163742571Y-58436380D01*
X131595904Y-59436380D02*
X131595904Y-58436380D01*
X131834000Y-58436380D01*
X131976857Y-58484000D01*
X132072095Y-58579238D01*
X132119714Y-58674476D01*
X132167333Y-58864952D01*
X132167333Y-59007809D01*
X132119714Y-59198285D01*
X132072095Y-59293523D01*
X131976857Y-59388761D01*
X131834000Y-59436380D01*
X131595904Y-59436380D01*
X133024476Y-58436380D02*
X132834000Y-58436380D01*
X132738761Y-58484000D01*
X132691142Y-58531619D01*
X132595904Y-58674476D01*
X132548285Y-58864952D01*
X132548285Y-59245904D01*
X132595904Y-59341142D01*
X132643523Y-59388761D01*
X132738761Y-59436380D01*
X132929238Y-59436380D01*
X133024476Y-59388761D01*
X133072095Y-59341142D01*
X133119714Y-59245904D01*
X133119714Y-59007809D01*
X133072095Y-58912571D01*
X133024476Y-58864952D01*
X132929238Y-58817333D01*
X132738761Y-58817333D01*
X132643523Y-58864952D01*
X132595904Y-58912571D01*
X132548285Y-59007809D01*
X253039714Y-59436380D02*
X253039714Y-58436380D01*
X253277809Y-58436380D01*
X253420666Y-58484000D01*
X253515904Y-58579238D01*
X253563523Y-58674476D01*
X253611142Y-58864952D01*
X253611142Y-59007809D01*
X253563523Y-59198285D01*
X253515904Y-59293523D01*
X253420666Y-59388761D01*
X253277809Y-59436380D01*
X253039714Y-59436380D01*
X253992095Y-58531619D02*
X254039714Y-58484000D01*
X254134952Y-58436380D01*
X254373047Y-58436380D01*
X254468285Y-58484000D01*
X254515904Y-58531619D01*
X254563523Y-58626857D01*
X254563523Y-58722095D01*
X254515904Y-58864952D01*
X253944476Y-59436380D01*
X254563523Y-59436380D01*
X254944476Y-58531619D02*
X254992095Y-58484000D01*
X255087333Y-58436380D01*
X255325428Y-58436380D01*
X255420666Y-58484000D01*
X255468285Y-58531619D01*
X255515904Y-58626857D01*
X255515904Y-58722095D01*
X255468285Y-58864952D01*
X254896857Y-59436380D01*
X255515904Y-59436380D01*
X176839714Y-59436380D02*
X176839714Y-58436380D01*
X177077809Y-58436380D01*
X177220666Y-58484000D01*
X177315904Y-58579238D01*
X177363523Y-58674476D01*
X177411142Y-58864952D01*
X177411142Y-59007809D01*
X177363523Y-59198285D01*
X177315904Y-59293523D01*
X177220666Y-59388761D01*
X177077809Y-59436380D01*
X176839714Y-59436380D01*
X178363523Y-59436380D02*
X177792095Y-59436380D01*
X178077809Y-59436380D02*
X178077809Y-58436380D01*
X177982571Y-58579238D01*
X177887333Y-58674476D01*
X177792095Y-58722095D01*
X178744476Y-58531619D02*
X178792095Y-58484000D01*
X178887333Y-58436380D01*
X179125428Y-58436380D01*
X179220666Y-58484000D01*
X179268285Y-58531619D01*
X179315904Y-58626857D01*
X179315904Y-58722095D01*
X179268285Y-58864952D01*
X178696857Y-59436380D01*
X179315904Y-59436380D01*
X374959714Y-59436380D02*
X374959714Y-58436380D01*
X375197809Y-58436380D01*
X375340666Y-58484000D01*
X375435904Y-58579238D01*
X375483523Y-58674476D01*
X375531142Y-58864952D01*
X375531142Y-59007809D01*
X375483523Y-59198285D01*
X375435904Y-59293523D01*
X375340666Y-59388761D01*
X375197809Y-59436380D01*
X374959714Y-59436380D01*
X375864476Y-58436380D02*
X376483523Y-58436380D01*
X376150190Y-58817333D01*
X376293047Y-58817333D01*
X376388285Y-58864952D01*
X376435904Y-58912571D01*
X376483523Y-59007809D01*
X376483523Y-59245904D01*
X376435904Y-59341142D01*
X376388285Y-59388761D01*
X376293047Y-59436380D01*
X376007333Y-59436380D01*
X375912095Y-59388761D01*
X375864476Y-59341142D01*
X377054952Y-58864952D02*
X376959714Y-58817333D01*
X376912095Y-58769714D01*
X376864476Y-58674476D01*
X376864476Y-58626857D01*
X376912095Y-58531619D01*
X376959714Y-58484000D01*
X377054952Y-58436380D01*
X377245428Y-58436380D01*
X377340666Y-58484000D01*
X377388285Y-58531619D01*
X377435904Y-58626857D01*
X377435904Y-58674476D01*
X377388285Y-58769714D01*
X377340666Y-58817333D01*
X377245428Y-58864952D01*
X377054952Y-58864952D01*
X376959714Y-58912571D01*
X376912095Y-58960190D01*
X376864476Y-59055428D01*
X376864476Y-59245904D01*
X376912095Y-59341142D01*
X376959714Y-59388761D01*
X377054952Y-59436380D01*
X377245428Y-59436380D01*
X377340666Y-59388761D01*
X377388285Y-59341142D01*
X377435904Y-59245904D01*
X377435904Y-59055428D01*
X377388285Y-58960190D01*
X377340666Y-58912571D01*
X377245428Y-58864952D01*
X192079714Y-59436380D02*
X192079714Y-58436380D01*
X192317809Y-58436380D01*
X192460666Y-58484000D01*
X192555904Y-58579238D01*
X192603523Y-58674476D01*
X192651142Y-58864952D01*
X192651142Y-59007809D01*
X192603523Y-59198285D01*
X192555904Y-59293523D01*
X192460666Y-59388761D01*
X192317809Y-59436380D01*
X192079714Y-59436380D01*
X193603523Y-59436380D02*
X193032095Y-59436380D01*
X193317809Y-59436380D02*
X193317809Y-58436380D01*
X193222571Y-58579238D01*
X193127333Y-58674476D01*
X193032095Y-58722095D01*
X194460666Y-58769714D02*
X194460666Y-59436380D01*
X194222571Y-58388761D02*
X193984476Y-59103047D01*
X194603523Y-59103047D01*
X336859714Y-59436380D02*
X336859714Y-58436380D01*
X337097809Y-58436380D01*
X337240666Y-58484000D01*
X337335904Y-58579238D01*
X337383523Y-58674476D01*
X337431142Y-58864952D01*
X337431142Y-59007809D01*
X337383523Y-59198285D01*
X337335904Y-59293523D01*
X337240666Y-59388761D01*
X337097809Y-59436380D01*
X336859714Y-59436380D01*
X337764476Y-58436380D02*
X338383523Y-58436380D01*
X338050190Y-58817333D01*
X338193047Y-58817333D01*
X338288285Y-58864952D01*
X338335904Y-58912571D01*
X338383523Y-59007809D01*
X338383523Y-59245904D01*
X338335904Y-59341142D01*
X338288285Y-59388761D01*
X338193047Y-59436380D01*
X337907333Y-59436380D01*
X337812095Y-59388761D01*
X337764476Y-59341142D01*
X338716857Y-58436380D02*
X339335904Y-58436380D01*
X339002571Y-58817333D01*
X339145428Y-58817333D01*
X339240666Y-58864952D01*
X339288285Y-58912571D01*
X339335904Y-59007809D01*
X339335904Y-59245904D01*
X339288285Y-59341142D01*
X339240666Y-59388761D01*
X339145428Y-59436380D01*
X338859714Y-59436380D01*
X338764476Y-59388761D01*
X338716857Y-59341142D01*
X207319714Y-59436380D02*
X207319714Y-58436380D01*
X207557809Y-58436380D01*
X207700666Y-58484000D01*
X207795904Y-58579238D01*
X207843523Y-58674476D01*
X207891142Y-58864952D01*
X207891142Y-59007809D01*
X207843523Y-59198285D01*
X207795904Y-59293523D01*
X207700666Y-59388761D01*
X207557809Y-59436380D01*
X207319714Y-59436380D01*
X208843523Y-59436380D02*
X208272095Y-59436380D01*
X208557809Y-59436380D02*
X208557809Y-58436380D01*
X208462571Y-58579238D01*
X208367333Y-58674476D01*
X208272095Y-58722095D01*
X209700666Y-58436380D02*
X209510190Y-58436380D01*
X209414952Y-58484000D01*
X209367333Y-58531619D01*
X209272095Y-58674476D01*
X209224476Y-58864952D01*
X209224476Y-59245904D01*
X209272095Y-59341142D01*
X209319714Y-59388761D01*
X209414952Y-59436380D01*
X209605428Y-59436380D01*
X209700666Y-59388761D01*
X209748285Y-59341142D01*
X209795904Y-59245904D01*
X209795904Y-59007809D01*
X209748285Y-58912571D01*
X209700666Y-58864952D01*
X209605428Y-58817333D01*
X209414952Y-58817333D01*
X209319714Y-58864952D01*
X209272095Y-58912571D01*
X209224476Y-59007809D01*
X352099714Y-59436380D02*
X352099714Y-58436380D01*
X352337809Y-58436380D01*
X352480666Y-58484000D01*
X352575904Y-58579238D01*
X352623523Y-58674476D01*
X352671142Y-58864952D01*
X352671142Y-59007809D01*
X352623523Y-59198285D01*
X352575904Y-59293523D01*
X352480666Y-59388761D01*
X352337809Y-59436380D01*
X352099714Y-59436380D01*
X353004476Y-58436380D02*
X353623523Y-58436380D01*
X353290190Y-58817333D01*
X353433047Y-58817333D01*
X353528285Y-58864952D01*
X353575904Y-58912571D01*
X353623523Y-59007809D01*
X353623523Y-59245904D01*
X353575904Y-59341142D01*
X353528285Y-59388761D01*
X353433047Y-59436380D01*
X353147333Y-59436380D01*
X353052095Y-59388761D01*
X353004476Y-59341142D01*
X354528285Y-58436380D02*
X354052095Y-58436380D01*
X354004476Y-58912571D01*
X354052095Y-58864952D01*
X354147333Y-58817333D01*
X354385428Y-58817333D01*
X354480666Y-58864952D01*
X354528285Y-58912571D01*
X354575904Y-59007809D01*
X354575904Y-59245904D01*
X354528285Y-59341142D01*
X354480666Y-59388761D01*
X354385428Y-59436380D01*
X354147333Y-59436380D01*
X354052095Y-59388761D01*
X354004476Y-59341142D01*
X321619714Y-59436380D02*
X321619714Y-58436380D01*
X321857809Y-58436380D01*
X322000666Y-58484000D01*
X322095904Y-58579238D01*
X322143523Y-58674476D01*
X322191142Y-58864952D01*
X322191142Y-59007809D01*
X322143523Y-59198285D01*
X322095904Y-59293523D01*
X322000666Y-59388761D01*
X321857809Y-59436380D01*
X321619714Y-59436380D01*
X322524476Y-58436380D02*
X323143523Y-58436380D01*
X322810190Y-58817333D01*
X322953047Y-58817333D01*
X323048285Y-58864952D01*
X323095904Y-58912571D01*
X323143523Y-59007809D01*
X323143523Y-59245904D01*
X323095904Y-59341142D01*
X323048285Y-59388761D01*
X322953047Y-59436380D01*
X322667333Y-59436380D01*
X322572095Y-59388761D01*
X322524476Y-59341142D01*
X324095904Y-59436380D02*
X323524476Y-59436380D01*
X323810190Y-59436380D02*
X323810190Y-58436380D01*
X323714952Y-58579238D01*
X323619714Y-58674476D01*
X323524476Y-58722095D01*
X237799714Y-59436380D02*
X237799714Y-58436380D01*
X238037809Y-58436380D01*
X238180666Y-58484000D01*
X238275904Y-58579238D01*
X238323523Y-58674476D01*
X238371142Y-58864952D01*
X238371142Y-59007809D01*
X238323523Y-59198285D01*
X238275904Y-59293523D01*
X238180666Y-59388761D01*
X238037809Y-59436380D01*
X237799714Y-59436380D01*
X238752095Y-58531619D02*
X238799714Y-58484000D01*
X238894952Y-58436380D01*
X239133047Y-58436380D01*
X239228285Y-58484000D01*
X239275904Y-58531619D01*
X239323523Y-58626857D01*
X239323523Y-58722095D01*
X239275904Y-58864952D01*
X238704476Y-59436380D01*
X239323523Y-59436380D01*
X239942571Y-58436380D02*
X240037809Y-58436380D01*
X240133047Y-58484000D01*
X240180666Y-58531619D01*
X240228285Y-58626857D01*
X240275904Y-58817333D01*
X240275904Y-59055428D01*
X240228285Y-59245904D01*
X240180666Y-59341142D01*
X240133047Y-59388761D01*
X240037809Y-59436380D01*
X239942571Y-59436380D01*
X239847333Y-59388761D01*
X239799714Y-59341142D01*
X239752095Y-59245904D01*
X239704476Y-59055428D01*
X239704476Y-58817333D01*
X239752095Y-58626857D01*
X239799714Y-58531619D01*
X239847333Y-58484000D01*
X239942571Y-58436380D01*
X329239714Y-59436380D02*
X329239714Y-58436380D01*
X329477809Y-58436380D01*
X329620666Y-58484000D01*
X329715904Y-58579238D01*
X329763523Y-58674476D01*
X329811142Y-58864952D01*
X329811142Y-59007809D01*
X329763523Y-59198285D01*
X329715904Y-59293523D01*
X329620666Y-59388761D01*
X329477809Y-59436380D01*
X329239714Y-59436380D01*
X330144476Y-58436380D02*
X330763523Y-58436380D01*
X330430190Y-58817333D01*
X330573047Y-58817333D01*
X330668285Y-58864952D01*
X330715904Y-58912571D01*
X330763523Y-59007809D01*
X330763523Y-59245904D01*
X330715904Y-59341142D01*
X330668285Y-59388761D01*
X330573047Y-59436380D01*
X330287333Y-59436380D01*
X330192095Y-59388761D01*
X330144476Y-59341142D01*
X331144476Y-58531619D02*
X331192095Y-58484000D01*
X331287333Y-58436380D01*
X331525428Y-58436380D01*
X331620666Y-58484000D01*
X331668285Y-58531619D01*
X331715904Y-58626857D01*
X331715904Y-58722095D01*
X331668285Y-58864952D01*
X331096857Y-59436380D01*
X331715904Y-59436380D01*
X390199714Y-59436380D02*
X390199714Y-58436380D01*
X390437809Y-58436380D01*
X390580666Y-58484000D01*
X390675904Y-58579238D01*
X390723523Y-58674476D01*
X390771142Y-58864952D01*
X390771142Y-59007809D01*
X390723523Y-59198285D01*
X390675904Y-59293523D01*
X390580666Y-59388761D01*
X390437809Y-59436380D01*
X390199714Y-59436380D01*
X391628285Y-58769714D02*
X391628285Y-59436380D01*
X391390190Y-58388761D02*
X391152095Y-59103047D01*
X391771142Y-59103047D01*
X392342571Y-58436380D02*
X392437809Y-58436380D01*
X392533047Y-58484000D01*
X392580666Y-58531619D01*
X392628285Y-58626857D01*
X392675904Y-58817333D01*
X392675904Y-59055428D01*
X392628285Y-59245904D01*
X392580666Y-59341142D01*
X392533047Y-59388761D01*
X392437809Y-59436380D01*
X392342571Y-59436380D01*
X392247333Y-59388761D01*
X392199714Y-59341142D01*
X392152095Y-59245904D01*
X392104476Y-59055428D01*
X392104476Y-58817333D01*
X392152095Y-58626857D01*
X392199714Y-58531619D01*
X392247333Y-58484000D01*
X392342571Y-58436380D01*
X84248666Y-55806380D02*
X84248666Y-56520666D01*
X84201047Y-56663523D01*
X84105809Y-56758761D01*
X83962952Y-56806380D01*
X83867714Y-56806380D01*
X84677238Y-55901619D02*
X84724857Y-55854000D01*
X84820095Y-55806380D01*
X85058190Y-55806380D01*
X85153428Y-55854000D01*
X85201047Y-55901619D01*
X85248666Y-55996857D01*
X85248666Y-56092095D01*
X85201047Y-56234952D01*
X84629619Y-56806380D01*
X85248666Y-56806380D01*
X359719714Y-59436380D02*
X359719714Y-58436380D01*
X359957809Y-58436380D01*
X360100666Y-58484000D01*
X360195904Y-58579238D01*
X360243523Y-58674476D01*
X360291142Y-58864952D01*
X360291142Y-59007809D01*
X360243523Y-59198285D01*
X360195904Y-59293523D01*
X360100666Y-59388761D01*
X359957809Y-59436380D01*
X359719714Y-59436380D01*
X360624476Y-58436380D02*
X361243523Y-58436380D01*
X360910190Y-58817333D01*
X361053047Y-58817333D01*
X361148285Y-58864952D01*
X361195904Y-58912571D01*
X361243523Y-59007809D01*
X361243523Y-59245904D01*
X361195904Y-59341142D01*
X361148285Y-59388761D01*
X361053047Y-59436380D01*
X360767333Y-59436380D01*
X360672095Y-59388761D01*
X360624476Y-59341142D01*
X362100666Y-58436380D02*
X361910190Y-58436380D01*
X361814952Y-58484000D01*
X361767333Y-58531619D01*
X361672095Y-58674476D01*
X361624476Y-58864952D01*
X361624476Y-59245904D01*
X361672095Y-59341142D01*
X361719714Y-59388761D01*
X361814952Y-59436380D01*
X362005428Y-59436380D01*
X362100666Y-59388761D01*
X362148285Y-59341142D01*
X362195904Y-59245904D01*
X362195904Y-59007809D01*
X362148285Y-58912571D01*
X362100666Y-58864952D01*
X362005428Y-58817333D01*
X361814952Y-58817333D01*
X361719714Y-58864952D01*
X361672095Y-58912571D01*
X361624476Y-59007809D01*
X123975904Y-59436380D02*
X123975904Y-58436380D01*
X124214000Y-58436380D01*
X124356857Y-58484000D01*
X124452095Y-58579238D01*
X124499714Y-58674476D01*
X124547333Y-58864952D01*
X124547333Y-59007809D01*
X124499714Y-59198285D01*
X124452095Y-59293523D01*
X124356857Y-59388761D01*
X124214000Y-59436380D01*
X123975904Y-59436380D01*
X125452095Y-58436380D02*
X124975904Y-58436380D01*
X124928285Y-58912571D01*
X124975904Y-58864952D01*
X125071142Y-58817333D01*
X125309238Y-58817333D01*
X125404476Y-58864952D01*
X125452095Y-58912571D01*
X125499714Y-59007809D01*
X125499714Y-59245904D01*
X125452095Y-59341142D01*
X125404476Y-59388761D01*
X125309238Y-59436380D01*
X125071142Y-59436380D01*
X124975904Y-59388761D01*
X124928285Y-59341142D01*
X306379714Y-59436380D02*
X306379714Y-58436380D01*
X306617809Y-58436380D01*
X306760666Y-58484000D01*
X306855904Y-58579238D01*
X306903523Y-58674476D01*
X306951142Y-58864952D01*
X306951142Y-59007809D01*
X306903523Y-59198285D01*
X306855904Y-59293523D01*
X306760666Y-59388761D01*
X306617809Y-59436380D01*
X306379714Y-59436380D01*
X307332095Y-58531619D02*
X307379714Y-58484000D01*
X307474952Y-58436380D01*
X307713047Y-58436380D01*
X307808285Y-58484000D01*
X307855904Y-58531619D01*
X307903523Y-58626857D01*
X307903523Y-58722095D01*
X307855904Y-58864952D01*
X307284476Y-59436380D01*
X307903523Y-59436380D01*
X308379714Y-59436380D02*
X308570190Y-59436380D01*
X308665428Y-59388761D01*
X308713047Y-59341142D01*
X308808285Y-59198285D01*
X308855904Y-59007809D01*
X308855904Y-58626857D01*
X308808285Y-58531619D01*
X308760666Y-58484000D01*
X308665428Y-58436380D01*
X308474952Y-58436380D01*
X308379714Y-58484000D01*
X308332095Y-58531619D01*
X308284476Y-58626857D01*
X308284476Y-58864952D01*
X308332095Y-58960190D01*
X308379714Y-59007809D01*
X308474952Y-59055428D01*
X308665428Y-59055428D01*
X308760666Y-59007809D01*
X308808285Y-58960190D01*
X308855904Y-58864952D01*
X313999714Y-59436380D02*
X313999714Y-58436380D01*
X314237809Y-58436380D01*
X314380666Y-58484000D01*
X314475904Y-58579238D01*
X314523523Y-58674476D01*
X314571142Y-58864952D01*
X314571142Y-59007809D01*
X314523523Y-59198285D01*
X314475904Y-59293523D01*
X314380666Y-59388761D01*
X314237809Y-59436380D01*
X313999714Y-59436380D01*
X314904476Y-58436380D02*
X315523523Y-58436380D01*
X315190190Y-58817333D01*
X315333047Y-58817333D01*
X315428285Y-58864952D01*
X315475904Y-58912571D01*
X315523523Y-59007809D01*
X315523523Y-59245904D01*
X315475904Y-59341142D01*
X315428285Y-59388761D01*
X315333047Y-59436380D01*
X315047333Y-59436380D01*
X314952095Y-59388761D01*
X314904476Y-59341142D01*
X316142571Y-58436380D02*
X316237809Y-58436380D01*
X316333047Y-58484000D01*
X316380666Y-58531619D01*
X316428285Y-58626857D01*
X316475904Y-58817333D01*
X316475904Y-59055428D01*
X316428285Y-59245904D01*
X316380666Y-59341142D01*
X316333047Y-59388761D01*
X316237809Y-59436380D01*
X316142571Y-59436380D01*
X316047333Y-59388761D01*
X315999714Y-59341142D01*
X315952095Y-59245904D01*
X315904476Y-59055428D01*
X315904476Y-58817333D01*
X315952095Y-58626857D01*
X315999714Y-58531619D01*
X316047333Y-58484000D01*
X316142571Y-58436380D01*
X298759714Y-59436380D02*
X298759714Y-58436380D01*
X298997809Y-58436380D01*
X299140666Y-58484000D01*
X299235904Y-58579238D01*
X299283523Y-58674476D01*
X299331142Y-58864952D01*
X299331142Y-59007809D01*
X299283523Y-59198285D01*
X299235904Y-59293523D01*
X299140666Y-59388761D01*
X298997809Y-59436380D01*
X298759714Y-59436380D01*
X299712095Y-58531619D02*
X299759714Y-58484000D01*
X299854952Y-58436380D01*
X300093047Y-58436380D01*
X300188285Y-58484000D01*
X300235904Y-58531619D01*
X300283523Y-58626857D01*
X300283523Y-58722095D01*
X300235904Y-58864952D01*
X299664476Y-59436380D01*
X300283523Y-59436380D01*
X300854952Y-58864952D02*
X300759714Y-58817333D01*
X300712095Y-58769714D01*
X300664476Y-58674476D01*
X300664476Y-58626857D01*
X300712095Y-58531619D01*
X300759714Y-58484000D01*
X300854952Y-58436380D01*
X301045428Y-58436380D01*
X301140666Y-58484000D01*
X301188285Y-58531619D01*
X301235904Y-58626857D01*
X301235904Y-58674476D01*
X301188285Y-58769714D01*
X301140666Y-58817333D01*
X301045428Y-58864952D01*
X300854952Y-58864952D01*
X300759714Y-58912571D01*
X300712095Y-58960190D01*
X300664476Y-59055428D01*
X300664476Y-59245904D01*
X300712095Y-59341142D01*
X300759714Y-59388761D01*
X300854952Y-59436380D01*
X301045428Y-59436380D01*
X301140666Y-59388761D01*
X301188285Y-59341142D01*
X301235904Y-59245904D01*
X301235904Y-59055428D01*
X301188285Y-58960190D01*
X301140666Y-58912571D01*
X301045428Y-58864952D01*
X268279714Y-59436380D02*
X268279714Y-58436380D01*
X268517809Y-58436380D01*
X268660666Y-58484000D01*
X268755904Y-58579238D01*
X268803523Y-58674476D01*
X268851142Y-58864952D01*
X268851142Y-59007809D01*
X268803523Y-59198285D01*
X268755904Y-59293523D01*
X268660666Y-59388761D01*
X268517809Y-59436380D01*
X268279714Y-59436380D01*
X269232095Y-58531619D02*
X269279714Y-58484000D01*
X269374952Y-58436380D01*
X269613047Y-58436380D01*
X269708285Y-58484000D01*
X269755904Y-58531619D01*
X269803523Y-58626857D01*
X269803523Y-58722095D01*
X269755904Y-58864952D01*
X269184476Y-59436380D01*
X269803523Y-59436380D01*
X270660666Y-58769714D02*
X270660666Y-59436380D01*
X270422571Y-58388761D02*
X270184476Y-59103047D01*
X270803523Y-59103047D01*
X108735904Y-59436380D02*
X108735904Y-58436380D01*
X108974000Y-58436380D01*
X109116857Y-58484000D01*
X109212095Y-58579238D01*
X109259714Y-58674476D01*
X109307333Y-58864952D01*
X109307333Y-59007809D01*
X109259714Y-59198285D01*
X109212095Y-59293523D01*
X109116857Y-59388761D01*
X108974000Y-59436380D01*
X108735904Y-59436380D01*
X109640666Y-58436380D02*
X110259714Y-58436380D01*
X109926380Y-58817333D01*
X110069238Y-58817333D01*
X110164476Y-58864952D01*
X110212095Y-58912571D01*
X110259714Y-59007809D01*
X110259714Y-59245904D01*
X110212095Y-59341142D01*
X110164476Y-59388761D01*
X110069238Y-59436380D01*
X109783523Y-59436380D01*
X109688285Y-59388761D01*
X109640666Y-59341142D01*
X382719714Y-59436380D02*
X382719714Y-58436380D01*
X382957809Y-58436380D01*
X383100666Y-58484000D01*
X383195904Y-58579238D01*
X383243523Y-58674476D01*
X383291142Y-58864952D01*
X383291142Y-59007809D01*
X383243523Y-59198285D01*
X383195904Y-59293523D01*
X383100666Y-59388761D01*
X382957809Y-59436380D01*
X382719714Y-59436380D01*
X383624476Y-58436380D02*
X384243523Y-58436380D01*
X383910190Y-58817333D01*
X384053047Y-58817333D01*
X384148285Y-58864952D01*
X384195904Y-58912571D01*
X384243523Y-59007809D01*
X384243523Y-59245904D01*
X384195904Y-59341142D01*
X384148285Y-59388761D01*
X384053047Y-59436380D01*
X383767333Y-59436380D01*
X383672095Y-59388761D01*
X383624476Y-59341142D01*
X384719714Y-59436380D02*
X384910190Y-59436380D01*
X385005428Y-59388761D01*
X385053047Y-59341142D01*
X385148285Y-59198285D01*
X385195904Y-59007809D01*
X385195904Y-58626857D01*
X385148285Y-58531619D01*
X385100666Y-58484000D01*
X385005428Y-58436380D01*
X384814952Y-58436380D01*
X384719714Y-58484000D01*
X384672095Y-58531619D01*
X384624476Y-58626857D01*
X384624476Y-58864952D01*
X384672095Y-58960190D01*
X384719714Y-59007809D01*
X384814952Y-59055428D01*
X385005428Y-59055428D01*
X385100666Y-59007809D01*
X385148285Y-58960190D01*
X385195904Y-58864952D01*
X139215904Y-59436380D02*
X139215904Y-58436380D01*
X139454000Y-58436380D01*
X139596857Y-58484000D01*
X139692095Y-58579238D01*
X139739714Y-58674476D01*
X139787333Y-58864952D01*
X139787333Y-59007809D01*
X139739714Y-59198285D01*
X139692095Y-59293523D01*
X139596857Y-59388761D01*
X139454000Y-59436380D01*
X139215904Y-59436380D01*
X140120666Y-58436380D02*
X140787333Y-58436380D01*
X140358761Y-59436380D01*
X275899714Y-59436380D02*
X275899714Y-58436380D01*
X276137809Y-58436380D01*
X276280666Y-58484000D01*
X276375904Y-58579238D01*
X276423523Y-58674476D01*
X276471142Y-58864952D01*
X276471142Y-59007809D01*
X276423523Y-59198285D01*
X276375904Y-59293523D01*
X276280666Y-59388761D01*
X276137809Y-59436380D01*
X275899714Y-59436380D01*
X276852095Y-58531619D02*
X276899714Y-58484000D01*
X276994952Y-58436380D01*
X277233047Y-58436380D01*
X277328285Y-58484000D01*
X277375904Y-58531619D01*
X277423523Y-58626857D01*
X277423523Y-58722095D01*
X277375904Y-58864952D01*
X276804476Y-59436380D01*
X277423523Y-59436380D01*
X278328285Y-58436380D02*
X277852095Y-58436380D01*
X277804476Y-58912571D01*
X277852095Y-58864952D01*
X277947333Y-58817333D01*
X278185428Y-58817333D01*
X278280666Y-58864952D01*
X278328285Y-58912571D01*
X278375904Y-59007809D01*
X278375904Y-59245904D01*
X278328285Y-59341142D01*
X278280666Y-59388761D01*
X278185428Y-59436380D01*
X277947333Y-59436380D01*
X277852095Y-59388761D01*
X277804476Y-59341142D01*
X116355904Y-59436380D02*
X116355904Y-58436380D01*
X116594000Y-58436380D01*
X116736857Y-58484000D01*
X116832095Y-58579238D01*
X116879714Y-58674476D01*
X116927333Y-58864952D01*
X116927333Y-59007809D01*
X116879714Y-59198285D01*
X116832095Y-59293523D01*
X116736857Y-59388761D01*
X116594000Y-59436380D01*
X116355904Y-59436380D01*
X117784476Y-58769714D02*
X117784476Y-59436380D01*
X117546380Y-58388761D02*
X117308285Y-59103047D01*
X117927333Y-59103047D01*
D12*
X98254000Y-59784000D02*
X104354000Y-59784000D01*
X98254000Y-60884000D02*
X98254000Y-59784000D01*
X104354000Y-65184000D02*
X99354000Y-65184000D01*
X243034000Y-60884000D02*
X243034000Y-59784000D01*
X249134000Y-65184000D02*
X244134000Y-65184000D01*
X243034000Y-59784000D02*
X249134000Y-59784000D01*
X226274000Y-65184000D02*
X221274000Y-65184000D01*
X220174000Y-60884000D02*
X220174000Y-59784000D01*
X220174000Y-59784000D02*
X226274000Y-59784000D01*
X203414000Y-65184000D02*
X198414000Y-65184000D01*
X197314000Y-60884000D02*
X197314000Y-59784000D01*
X197314000Y-59784000D02*
X203414000Y-59784000D01*
X342094000Y-60884000D02*
X342094000Y-59784000D01*
X348194000Y-65184000D02*
X343194000Y-65184000D01*
X342094000Y-59784000D02*
X348194000Y-59784000D01*
X288754000Y-59784000D02*
X294854000Y-59784000D01*
X288754000Y-60884000D02*
X288754000Y-59784000D01*
X294854000Y-65184000D02*
X289854000Y-65184000D01*
X227794000Y-60884000D02*
X227794000Y-59784000D01*
X233894000Y-65184000D02*
X228894000Y-65184000D01*
X227794000Y-59784000D02*
X233894000Y-59784000D01*
X90634000Y-59784000D02*
X96734000Y-59784000D01*
X90634000Y-60884000D02*
X90634000Y-59784000D01*
X96734000Y-65184000D02*
X91734000Y-65184000D01*
X150074000Y-65184000D02*
X145074000Y-65184000D01*
X143974000Y-60884000D02*
X143974000Y-59784000D01*
X143974000Y-59784000D02*
X150074000Y-59784000D01*
X281134000Y-59784000D02*
X287234000Y-59784000D01*
X287234000Y-65184000D02*
X282234000Y-65184000D01*
X281134000Y-60884000D02*
X281134000Y-59784000D01*
X182074000Y-60884000D02*
X182074000Y-59784000D01*
X188174000Y-65184000D02*
X183174000Y-65184000D01*
X182074000Y-59784000D02*
X188174000Y-59784000D01*
X364954000Y-60884000D02*
X364954000Y-59784000D01*
X364954000Y-59784000D02*
X371054000Y-59784000D01*
X371054000Y-65184000D02*
X366054000Y-65184000D01*
X166834000Y-60884000D02*
X166834000Y-59784000D01*
X166834000Y-59784000D02*
X172934000Y-59784000D01*
X172934000Y-65184000D02*
X167934000Y-65184000D01*
X218654000Y-65184000D02*
X213654000Y-65184000D01*
X212554000Y-60884000D02*
X212554000Y-59784000D01*
X212554000Y-59784000D02*
X218654000Y-59784000D01*
X264374000Y-65184000D02*
X259374000Y-65184000D01*
X258274000Y-59784000D02*
X264374000Y-59784000D01*
X258274000Y-60884000D02*
X258274000Y-59784000D01*
X157694000Y-65184000D02*
X152694000Y-65184000D01*
X151594000Y-60884000D02*
X151594000Y-59784000D01*
X151594000Y-59784000D02*
X157694000Y-59784000D01*
X159214000Y-59784000D02*
X165314000Y-59784000D01*
X159214000Y-60884000D02*
X159214000Y-59784000D01*
X165314000Y-65184000D02*
X160314000Y-65184000D01*
X128734000Y-60884000D02*
X128734000Y-59784000D01*
X128734000Y-59784000D02*
X134834000Y-59784000D01*
X134834000Y-65184000D02*
X129834000Y-65184000D01*
X256754000Y-65184000D02*
X251754000Y-65184000D01*
X250654000Y-60884000D02*
X250654000Y-59784000D01*
X250654000Y-59784000D02*
X256754000Y-59784000D01*
X180554000Y-65184000D02*
X175554000Y-65184000D01*
X174454000Y-59784000D02*
X180554000Y-59784000D01*
X174454000Y-60884000D02*
X174454000Y-59784000D01*
X372574000Y-60884000D02*
X372574000Y-59784000D01*
X378674000Y-65184000D02*
X373674000Y-65184000D01*
X372574000Y-59784000D02*
X378674000Y-59784000D01*
X189694000Y-60884000D02*
X189694000Y-59784000D01*
X195794000Y-65184000D02*
X190794000Y-65184000D01*
X189694000Y-59784000D02*
X195794000Y-59784000D01*
X340574000Y-65184000D02*
X335574000Y-65184000D01*
X334474000Y-60884000D02*
X334474000Y-59784000D01*
X334474000Y-59784000D02*
X340574000Y-59784000D01*
X204934000Y-59784000D02*
X211034000Y-59784000D01*
X211034000Y-65184000D02*
X206034000Y-65184000D01*
X204934000Y-60884000D02*
X204934000Y-59784000D01*
X349714000Y-60884000D02*
X349714000Y-59784000D01*
X355814000Y-65184000D02*
X350814000Y-65184000D01*
X349714000Y-59784000D02*
X355814000Y-59784000D01*
X319234000Y-60884000D02*
X319234000Y-59784000D01*
X319234000Y-59784000D02*
X325334000Y-59784000D01*
X325334000Y-65184000D02*
X320334000Y-65184000D01*
X235414000Y-59784000D02*
X241514000Y-59784000D01*
X235414000Y-60884000D02*
X235414000Y-59784000D01*
X241514000Y-65184000D02*
X236514000Y-65184000D01*
X326854000Y-59784000D02*
X332954000Y-59784000D01*
X332954000Y-65184000D02*
X327954000Y-65184000D01*
X326854000Y-60884000D02*
X326854000Y-59784000D01*
X387814000Y-60884000D02*
X387814000Y-59784000D01*
X393914000Y-65184000D02*
X388914000Y-65184000D01*
X387814000Y-59784000D02*
X393914000Y-59784000D01*
X83252000Y-59954000D02*
X85912000Y-59954000D01*
X83252000Y-57354000D02*
X84582000Y-57354000D01*
X83252000Y-59954000D02*
X83252000Y-67634000D01*
X83252000Y-58684000D02*
X83252000Y-57354000D01*
X83252000Y-67634000D02*
X85912000Y-67634000D01*
X85912000Y-59954000D02*
X85912000Y-67634000D01*
X363434000Y-65184000D02*
X358434000Y-65184000D01*
X357334000Y-59784000D02*
X363434000Y-59784000D01*
X357334000Y-60884000D02*
X357334000Y-59784000D01*
X127214000Y-65184000D02*
X122214000Y-65184000D01*
X121114000Y-60884000D02*
X121114000Y-59784000D01*
X121114000Y-59784000D02*
X127214000Y-59784000D01*
X303994000Y-59784000D02*
X310094000Y-59784000D01*
X303994000Y-60884000D02*
X303994000Y-59784000D01*
X310094000Y-65184000D02*
X305094000Y-65184000D01*
X311614000Y-59784000D02*
X317714000Y-59784000D01*
X311614000Y-60884000D02*
X311614000Y-59784000D01*
X317714000Y-65184000D02*
X312714000Y-65184000D01*
X296374000Y-60884000D02*
X296374000Y-59784000D01*
X302474000Y-65184000D02*
X297474000Y-65184000D01*
X296374000Y-59784000D02*
X302474000Y-59784000D01*
X265894000Y-60884000D02*
X265894000Y-59784000D01*
X271994000Y-65184000D02*
X266994000Y-65184000D01*
X265894000Y-59784000D02*
X271994000Y-59784000D01*
X105874000Y-60884000D02*
X105874000Y-59784000D01*
X105874000Y-59784000D02*
X111974000Y-59784000D01*
X111974000Y-65184000D02*
X106974000Y-65184000D01*
X386434000Y-65184000D02*
X381434000Y-65184000D01*
X380334000Y-60884000D02*
X380334000Y-59784000D01*
X380334000Y-59784000D02*
X386434000Y-59784000D01*
X136354000Y-59784000D02*
X142454000Y-59784000D01*
X136354000Y-60884000D02*
X136354000Y-59784000D01*
X142454000Y-65184000D02*
X137454000Y-65184000D01*
X273514000Y-59784000D02*
X279614000Y-59784000D01*
X279614000Y-65184000D02*
X274614000Y-65184000D01*
X273514000Y-60884000D02*
X273514000Y-59784000D01*
X119594000Y-65184000D02*
X114594000Y-65184000D01*
X113494000Y-59784000D02*
X119594000Y-59784000D01*
X113494000Y-60884000D02*
X113494000Y-59784000D01*
%LPC*%
D13*
X104254000Y-60784000D03*
X104254000Y-62484000D03*
X104254000Y-64184000D03*
X99454000Y-64184000D03*
X99454000Y-62484000D03*
X99454000Y-60784000D03*
X249034000Y-60784000D03*
X249034000Y-62484000D03*
X249034000Y-64184000D03*
X244234000Y-64184000D03*
X244234000Y-62484000D03*
X244234000Y-60784000D03*
X226174000Y-60784000D03*
X226174000Y-62484000D03*
X226174000Y-64184000D03*
X221374000Y-64184000D03*
X221374000Y-62484000D03*
X221374000Y-60784000D03*
X203314000Y-60784000D03*
X203314000Y-62484000D03*
X203314000Y-64184000D03*
X198514000Y-64184000D03*
X198514000Y-62484000D03*
X198514000Y-60784000D03*
X348094000Y-60784000D03*
X348094000Y-62484000D03*
X348094000Y-64184000D03*
X343294000Y-64184000D03*
X343294000Y-62484000D03*
X343294000Y-60784000D03*
X294754000Y-60784000D03*
X294754000Y-62484000D03*
X294754000Y-64184000D03*
X289954000Y-64184000D03*
X289954000Y-62484000D03*
X289954000Y-60784000D03*
X233794000Y-60784000D03*
X233794000Y-62484000D03*
X233794000Y-64184000D03*
X228994000Y-64184000D03*
X228994000Y-62484000D03*
X228994000Y-60784000D03*
X96634000Y-60784000D03*
X96634000Y-62484000D03*
X96634000Y-64184000D03*
X91834000Y-64184000D03*
X91834000Y-62484000D03*
X91834000Y-60784000D03*
X149974000Y-60784000D03*
X149974000Y-62484000D03*
X149974000Y-64184000D03*
X145174000Y-64184000D03*
X145174000Y-62484000D03*
X145174000Y-60784000D03*
X287134000Y-60784000D03*
X287134000Y-62484000D03*
X287134000Y-64184000D03*
X282334000Y-64184000D03*
X282334000Y-62484000D03*
X282334000Y-60784000D03*
X188074000Y-60784000D03*
X188074000Y-62484000D03*
X188074000Y-64184000D03*
X183274000Y-64184000D03*
X183274000Y-62484000D03*
X183274000Y-60784000D03*
X370954000Y-60784000D03*
X370954000Y-62484000D03*
X370954000Y-64184000D03*
X366154000Y-64184000D03*
X366154000Y-62484000D03*
X366154000Y-60784000D03*
X172834000Y-60784000D03*
X172834000Y-62484000D03*
X172834000Y-64184000D03*
X168034000Y-64184000D03*
X168034000Y-62484000D03*
X168034000Y-60784000D03*
X218554000Y-60784000D03*
X218554000Y-62484000D03*
X218554000Y-64184000D03*
X213754000Y-64184000D03*
X213754000Y-62484000D03*
X213754000Y-60784000D03*
X264274000Y-60784000D03*
X264274000Y-62484000D03*
X264274000Y-64184000D03*
X259474000Y-64184000D03*
X259474000Y-62484000D03*
X259474000Y-60784000D03*
X157594000Y-60784000D03*
X157594000Y-62484000D03*
X157594000Y-64184000D03*
X152794000Y-64184000D03*
X152794000Y-62484000D03*
X152794000Y-60784000D03*
X165214000Y-60784000D03*
X165214000Y-62484000D03*
X165214000Y-64184000D03*
X160414000Y-64184000D03*
X160414000Y-62484000D03*
X160414000Y-60784000D03*
X134734000Y-60784000D03*
X134734000Y-62484000D03*
X134734000Y-64184000D03*
X129934000Y-64184000D03*
X129934000Y-62484000D03*
X129934000Y-60784000D03*
X256654000Y-60784000D03*
X256654000Y-62484000D03*
X256654000Y-64184000D03*
X251854000Y-64184000D03*
X251854000Y-62484000D03*
X251854000Y-60784000D03*
X180454000Y-60784000D03*
X180454000Y-62484000D03*
X180454000Y-64184000D03*
X175654000Y-64184000D03*
X175654000Y-62484000D03*
X175654000Y-60784000D03*
X378574000Y-60784000D03*
X378574000Y-62484000D03*
X378574000Y-64184000D03*
X373774000Y-64184000D03*
X373774000Y-62484000D03*
X373774000Y-60784000D03*
X195694000Y-60784000D03*
X195694000Y-62484000D03*
X195694000Y-64184000D03*
X190894000Y-64184000D03*
X190894000Y-62484000D03*
X190894000Y-60784000D03*
X340474000Y-60784000D03*
X340474000Y-62484000D03*
X340474000Y-64184000D03*
X335674000Y-64184000D03*
X335674000Y-62484000D03*
X335674000Y-60784000D03*
X210934000Y-60784000D03*
X210934000Y-62484000D03*
X210934000Y-64184000D03*
X206134000Y-64184000D03*
X206134000Y-62484000D03*
X206134000Y-60784000D03*
X355714000Y-60784000D03*
X355714000Y-62484000D03*
X355714000Y-64184000D03*
X350914000Y-64184000D03*
X350914000Y-62484000D03*
X350914000Y-60784000D03*
X325234000Y-60784000D03*
X325234000Y-62484000D03*
X325234000Y-64184000D03*
X320434000Y-64184000D03*
X320434000Y-62484000D03*
X320434000Y-60784000D03*
X241414000Y-60784000D03*
X241414000Y-62484000D03*
X241414000Y-64184000D03*
X236614000Y-64184000D03*
X236614000Y-62484000D03*
X236614000Y-60784000D03*
X332854000Y-60784000D03*
X332854000Y-62484000D03*
X332854000Y-64184000D03*
X328054000Y-64184000D03*
X328054000Y-62484000D03*
X328054000Y-60784000D03*
X393814000Y-60784000D03*
X393814000Y-62484000D03*
X393814000Y-64184000D03*
X389014000Y-64184000D03*
X389014000Y-62484000D03*
X389014000Y-60784000D03*
D14*
X84582000Y-66304000D03*
X84582000Y-63764000D03*
X84582000Y-61224000D03*
D15*
X84582000Y-58684000D03*
D13*
X363334000Y-60784000D03*
X363334000Y-62484000D03*
X363334000Y-64184000D03*
X358534000Y-64184000D03*
X358534000Y-62484000D03*
X358534000Y-60784000D03*
X127114000Y-60784000D03*
X127114000Y-62484000D03*
X127114000Y-64184000D03*
X122314000Y-64184000D03*
X122314000Y-62484000D03*
X122314000Y-60784000D03*
X309994000Y-60784000D03*
X309994000Y-62484000D03*
X309994000Y-64184000D03*
X305194000Y-64184000D03*
X305194000Y-62484000D03*
X305194000Y-60784000D03*
X317614000Y-60784000D03*
X317614000Y-62484000D03*
X317614000Y-64184000D03*
X312814000Y-64184000D03*
X312814000Y-62484000D03*
X312814000Y-60784000D03*
X302374000Y-60784000D03*
X302374000Y-62484000D03*
X302374000Y-64184000D03*
X297574000Y-64184000D03*
X297574000Y-62484000D03*
X297574000Y-60784000D03*
X271894000Y-60784000D03*
X271894000Y-62484000D03*
X271894000Y-64184000D03*
X267094000Y-64184000D03*
X267094000Y-62484000D03*
X267094000Y-60784000D03*
X111874000Y-60784000D03*
X111874000Y-62484000D03*
X111874000Y-64184000D03*
X107074000Y-64184000D03*
X107074000Y-62484000D03*
X107074000Y-60784000D03*
X386334000Y-60784000D03*
X386334000Y-62484000D03*
X386334000Y-64184000D03*
X381534000Y-64184000D03*
X381534000Y-62484000D03*
X381534000Y-60784000D03*
X142354000Y-60784000D03*
X142354000Y-62484000D03*
X142354000Y-64184000D03*
X137554000Y-64184000D03*
X137554000Y-62484000D03*
X137554000Y-60784000D03*
X279514000Y-60784000D03*
X279514000Y-62484000D03*
X279514000Y-64184000D03*
X274714000Y-64184000D03*
X274714000Y-62484000D03*
X274714000Y-60784000D03*
X119494000Y-60784000D03*
X119494000Y-62484000D03*
X119494000Y-64184000D03*
X114694000Y-64184000D03*
X114694000Y-62484000D03*
X114694000Y-60784000D03*
M02*
