G04 #@! TF.GenerationSoftware,KiCad,Pcbnew,(6.0.6)*
G04 #@! TF.CreationDate,2022-11-08T17:29:06-05:00*
G04 #@! TF.ProjectId,pov_display,706f765f-6469-4737-906c-61792e6b6963,v01*
G04 #@! TF.SameCoordinates,Original*
G04 #@! TF.FileFunction,Copper,L1,Top*
G04 #@! TF.FilePolarity,Positive*
%FSLAX46Y46*%
G04 Gerber Fmt 4.6, Leading zero omitted, Abs format (unit mm)*
G04 Created by KiCad (PCBNEW (6.0.6)) date 2022-11-08 17:29:06*
%MOMM*%
%LPD*%
G01*
G04 APERTURE LIST*
G04 #@! TA.AperFunction,SMDPad,CuDef*
%ADD10R,2.000000X1.100000*%
G04 #@! TD*
G04 #@! TA.AperFunction,ComponentPad*
%ADD11O,1.700000X1.700000*%
G04 #@! TD*
G04 #@! TA.AperFunction,ComponentPad*
%ADD12R,1.700000X1.700000*%
G04 #@! TD*
G04 #@! TA.AperFunction,Conductor*
%ADD13C,0.254000*%
G04 #@! TD*
G04 #@! TA.AperFunction,Conductor*
%ADD14C,1.016000*%
G04 #@! TD*
G04 APERTURE END LIST*
D10*
X104254000Y-60784000D03*
X104254000Y-62484000D03*
X104254000Y-64184000D03*
X99454000Y-64184000D03*
X99454000Y-62484000D03*
X99454000Y-60784000D03*
X249034000Y-60784000D03*
X249034000Y-62484000D03*
X249034000Y-64184000D03*
X244234000Y-64184000D03*
X244234000Y-62484000D03*
X244234000Y-60784000D03*
X226174000Y-60784000D03*
X226174000Y-62484000D03*
X226174000Y-64184000D03*
X221374000Y-64184000D03*
X221374000Y-62484000D03*
X221374000Y-60784000D03*
X203314000Y-60784000D03*
X203314000Y-62484000D03*
X203314000Y-64184000D03*
X198514000Y-64184000D03*
X198514000Y-62484000D03*
X198514000Y-60784000D03*
X348094000Y-60784000D03*
X348094000Y-62484000D03*
X348094000Y-64184000D03*
X343294000Y-64184000D03*
X343294000Y-62484000D03*
X343294000Y-60784000D03*
X294754000Y-60784000D03*
X294754000Y-62484000D03*
X294754000Y-64184000D03*
X289954000Y-64184000D03*
X289954000Y-62484000D03*
X289954000Y-60784000D03*
X233794000Y-60784000D03*
X233794000Y-62484000D03*
X233794000Y-64184000D03*
X228994000Y-64184000D03*
X228994000Y-62484000D03*
X228994000Y-60784000D03*
X96634000Y-60784000D03*
X96634000Y-62484000D03*
X96634000Y-64184000D03*
X91834000Y-64184000D03*
X91834000Y-62484000D03*
X91834000Y-60784000D03*
X149974000Y-60784000D03*
X149974000Y-62484000D03*
X149974000Y-64184000D03*
X145174000Y-64184000D03*
X145174000Y-62484000D03*
X145174000Y-60784000D03*
X287134000Y-60784000D03*
X287134000Y-62484000D03*
X287134000Y-64184000D03*
X282334000Y-64184000D03*
X282334000Y-62484000D03*
X282334000Y-60784000D03*
X188074000Y-60784000D03*
X188074000Y-62484000D03*
X188074000Y-64184000D03*
X183274000Y-64184000D03*
X183274000Y-62484000D03*
X183274000Y-60784000D03*
X370954000Y-60784000D03*
X370954000Y-62484000D03*
X370954000Y-64184000D03*
X366154000Y-64184000D03*
X366154000Y-62484000D03*
X366154000Y-60784000D03*
X172834000Y-60784000D03*
X172834000Y-62484000D03*
X172834000Y-64184000D03*
X168034000Y-64184000D03*
X168034000Y-62484000D03*
X168034000Y-60784000D03*
X218554000Y-60784000D03*
X218554000Y-62484000D03*
X218554000Y-64184000D03*
X213754000Y-64184000D03*
X213754000Y-62484000D03*
X213754000Y-60784000D03*
X264274000Y-60784000D03*
X264274000Y-62484000D03*
X264274000Y-64184000D03*
X259474000Y-64184000D03*
X259474000Y-62484000D03*
X259474000Y-60784000D03*
X157594000Y-60784000D03*
X157594000Y-62484000D03*
X157594000Y-64184000D03*
X152794000Y-64184000D03*
X152794000Y-62484000D03*
X152794000Y-60784000D03*
X165214000Y-60784000D03*
X165214000Y-62484000D03*
X165214000Y-64184000D03*
X160414000Y-64184000D03*
X160414000Y-62484000D03*
X160414000Y-60784000D03*
X134734000Y-60784000D03*
X134734000Y-62484000D03*
X134734000Y-64184000D03*
X129934000Y-64184000D03*
X129934000Y-62484000D03*
X129934000Y-60784000D03*
X256654000Y-60784000D03*
X256654000Y-62484000D03*
X256654000Y-64184000D03*
X251854000Y-64184000D03*
X251854000Y-62484000D03*
X251854000Y-60784000D03*
X180454000Y-60784000D03*
X180454000Y-62484000D03*
X180454000Y-64184000D03*
X175654000Y-64184000D03*
X175654000Y-62484000D03*
X175654000Y-60784000D03*
X378574000Y-60784000D03*
X378574000Y-62484000D03*
X378574000Y-64184000D03*
X373774000Y-64184000D03*
X373774000Y-62484000D03*
X373774000Y-60784000D03*
X195694000Y-60784000D03*
X195694000Y-62484000D03*
X195694000Y-64184000D03*
X190894000Y-64184000D03*
X190894000Y-62484000D03*
X190894000Y-60784000D03*
X340474000Y-60784000D03*
X340474000Y-62484000D03*
X340474000Y-64184000D03*
X335674000Y-64184000D03*
X335674000Y-62484000D03*
X335674000Y-60784000D03*
X210934000Y-60784000D03*
X210934000Y-62484000D03*
X210934000Y-64184000D03*
X206134000Y-64184000D03*
X206134000Y-62484000D03*
X206134000Y-60784000D03*
X355714000Y-60784000D03*
X355714000Y-62484000D03*
X355714000Y-64184000D03*
X350914000Y-64184000D03*
X350914000Y-62484000D03*
X350914000Y-60784000D03*
X325234000Y-60784000D03*
X325234000Y-62484000D03*
X325234000Y-64184000D03*
X320434000Y-64184000D03*
X320434000Y-62484000D03*
X320434000Y-60784000D03*
X241414000Y-60784000D03*
X241414000Y-62484000D03*
X241414000Y-64184000D03*
X236614000Y-64184000D03*
X236614000Y-62484000D03*
X236614000Y-60784000D03*
X332854000Y-60784000D03*
X332854000Y-62484000D03*
X332854000Y-64184000D03*
X328054000Y-64184000D03*
X328054000Y-62484000D03*
X328054000Y-60784000D03*
X393814000Y-60784000D03*
X393814000Y-62484000D03*
X393814000Y-64184000D03*
X389014000Y-64184000D03*
X389014000Y-62484000D03*
X389014000Y-60784000D03*
D11*
X84582000Y-66304000D03*
X84582000Y-63764000D03*
X84582000Y-61224000D03*
D12*
X84582000Y-58684000D03*
D10*
X363334000Y-60784000D03*
X363334000Y-62484000D03*
X363334000Y-64184000D03*
X358534000Y-64184000D03*
X358534000Y-62484000D03*
X358534000Y-60784000D03*
X127114000Y-60784000D03*
X127114000Y-62484000D03*
X127114000Y-64184000D03*
X122314000Y-64184000D03*
X122314000Y-62484000D03*
X122314000Y-60784000D03*
X309994000Y-60784000D03*
X309994000Y-62484000D03*
X309994000Y-64184000D03*
X305194000Y-64184000D03*
X305194000Y-62484000D03*
X305194000Y-60784000D03*
X317614000Y-60784000D03*
X317614000Y-62484000D03*
X317614000Y-64184000D03*
X312814000Y-64184000D03*
X312814000Y-62484000D03*
X312814000Y-60784000D03*
X302374000Y-60784000D03*
X302374000Y-62484000D03*
X302374000Y-64184000D03*
X297574000Y-64184000D03*
X297574000Y-62484000D03*
X297574000Y-60784000D03*
X271894000Y-60784000D03*
X271894000Y-62484000D03*
X271894000Y-64184000D03*
X267094000Y-64184000D03*
X267094000Y-62484000D03*
X267094000Y-60784000D03*
X111874000Y-60784000D03*
X111874000Y-62484000D03*
X111874000Y-64184000D03*
X107074000Y-64184000D03*
X107074000Y-62484000D03*
X107074000Y-60784000D03*
X386334000Y-60784000D03*
X386334000Y-62484000D03*
X386334000Y-64184000D03*
X381534000Y-64184000D03*
X381534000Y-62484000D03*
X381534000Y-60784000D03*
X142354000Y-60784000D03*
X142354000Y-62484000D03*
X142354000Y-64184000D03*
X137554000Y-64184000D03*
X137554000Y-62484000D03*
X137554000Y-60784000D03*
X279514000Y-60784000D03*
X279514000Y-62484000D03*
X279514000Y-64184000D03*
X274714000Y-64184000D03*
X274714000Y-62484000D03*
X274714000Y-60784000D03*
X119494000Y-60784000D03*
X119494000Y-62484000D03*
X119494000Y-64184000D03*
X114694000Y-64184000D03*
X114694000Y-62484000D03*
X114694000Y-60784000D03*
D13*
X300228000Y-65532000D02*
X301026000Y-65532000D01*
X132842000Y-65532000D02*
X133386000Y-65532000D01*
X254508000Y-65532000D02*
X255306000Y-65532000D01*
X117856000Y-65532000D02*
X118146000Y-65532000D01*
X278166000Y-65532000D02*
X279514000Y-64184000D01*
X170942000Y-65532000D02*
X171486000Y-65532000D01*
D14*
X162814000Y-65532000D02*
X170942000Y-65532000D01*
X239268000Y-65532000D02*
X247142000Y-65532000D01*
D13*
X217206000Y-65532000D02*
X218554000Y-64184000D01*
X247142000Y-65532000D02*
X247686000Y-65532000D01*
D14*
X254508000Y-65532000D02*
X262636000Y-65532000D01*
X186182000Y-65532000D02*
X193294000Y-65532000D01*
X224282000Y-65532000D02*
X232156000Y-65532000D01*
X132842000Y-65532000D02*
X140462000Y-65532000D01*
X353568000Y-65532000D02*
X360172000Y-65532000D01*
D13*
X346746000Y-65532000D02*
X348094000Y-64184000D01*
X344932000Y-65532000D02*
X346746000Y-65532000D01*
X354366000Y-65532000D02*
X355714000Y-64184000D01*
X110526000Y-65532000D02*
X111874000Y-64184000D01*
X88138000Y-62484000D02*
X91834000Y-62484000D01*
X84582000Y-63764000D02*
X86858000Y-63764000D01*
X140462000Y-65532000D02*
X141006000Y-65532000D01*
D14*
X376682000Y-65532000D02*
X384048000Y-65532000D01*
X270546000Y-65532000D02*
X277876000Y-65532000D01*
X155702000Y-65532000D02*
X162814000Y-65532000D01*
D13*
X209042000Y-65532000D02*
X209586000Y-65532000D01*
D14*
X369316000Y-65532000D02*
X376682000Y-65532000D01*
X277876000Y-65532000D02*
X285786000Y-65532000D01*
D13*
X148626000Y-65532000D02*
X149974000Y-64184000D01*
X186182000Y-65532000D02*
X186726000Y-65532000D01*
X91834000Y-60784000D02*
X85022000Y-60784000D01*
D14*
X307848000Y-65532000D02*
X314960000Y-65532000D01*
D13*
X125766000Y-65532000D02*
X127114000Y-64184000D01*
D14*
X338074000Y-65532000D02*
X344932000Y-65532000D01*
D13*
X262926000Y-65532000D02*
X264274000Y-64184000D01*
X323886000Y-65532000D02*
X325234000Y-64184000D01*
X232156000Y-65532000D02*
X232446000Y-65532000D01*
X338074000Y-65532000D02*
X339126000Y-65532000D01*
X369606000Y-65532000D02*
X370954000Y-64184000D01*
X262636000Y-65532000D02*
X262926000Y-65532000D01*
X177800000Y-65532000D02*
X179106000Y-65532000D01*
X86858000Y-63764000D02*
X88138000Y-62484000D01*
X141006000Y-65532000D02*
X142354000Y-64184000D01*
D14*
X314960000Y-65532000D02*
X322834000Y-65532000D01*
D13*
X224826000Y-65532000D02*
X226174000Y-64184000D01*
D14*
X293406000Y-65532000D02*
X300228000Y-65532000D01*
D13*
X314960000Y-65532000D02*
X316266000Y-65532000D01*
X118146000Y-65532000D02*
X119494000Y-64184000D01*
X156246000Y-65532000D02*
X157594000Y-64184000D01*
X186726000Y-65532000D02*
X188074000Y-64184000D01*
D14*
X177800000Y-65532000D02*
X186182000Y-65532000D01*
D13*
X85022000Y-60784000D02*
X84582000Y-61224000D01*
D14*
X110490000Y-65532000D02*
X117856000Y-65532000D01*
D13*
X331506000Y-65532000D02*
X332854000Y-64184000D01*
D14*
X232156000Y-65532000D02*
X239268000Y-65532000D01*
D13*
X194346000Y-65532000D02*
X195694000Y-64184000D01*
X232446000Y-65532000D02*
X233794000Y-64184000D01*
X293406000Y-65532000D02*
X294754000Y-64184000D01*
D14*
X148082000Y-65532000D02*
X155702000Y-65532000D01*
X193294000Y-65532000D02*
X201676000Y-65532000D01*
X102906000Y-65532000D02*
X110490000Y-65532000D01*
D13*
X148082000Y-65532000D02*
X148626000Y-65532000D01*
D14*
X84582000Y-58684000D02*
X82296000Y-60970000D01*
X82296000Y-66802000D02*
X83820000Y-68326000D01*
X90975550Y-65532000D02*
X95286000Y-65532000D01*
X83820000Y-68326000D02*
X87702663Y-68326000D01*
X82296000Y-60970000D02*
X82296000Y-66802000D01*
X90336543Y-66171007D02*
X90975550Y-65532000D01*
X87702663Y-68326000D02*
X90336543Y-66171007D01*
D13*
X91746000Y-64272000D02*
X91834000Y-64184000D01*
D14*
X84582000Y-66304000D02*
X84846000Y-66040000D01*
D13*
X88382000Y-64272000D02*
X91746000Y-64272000D01*
X86614000Y-66040000D02*
X88382000Y-64272000D01*
D14*
X84846000Y-66040000D02*
X86614000Y-66040000D01*
D13*
X133386000Y-65532000D02*
X134734000Y-64184000D01*
X125476000Y-65532000D02*
X125766000Y-65532000D01*
D14*
X262636000Y-65532000D02*
X270546000Y-65532000D01*
D13*
X384986000Y-65532000D02*
X386334000Y-64184000D01*
X376682000Y-65532000D02*
X377226000Y-65532000D01*
X162814000Y-65532000D02*
X163866000Y-65532000D01*
D14*
X117856000Y-65532000D02*
X125476000Y-65532000D01*
D13*
X369316000Y-65532000D02*
X369606000Y-65532000D01*
D14*
X330962000Y-65532000D02*
X338074000Y-65532000D01*
D13*
X377226000Y-65532000D02*
X378574000Y-64184000D01*
X209586000Y-65532000D02*
X210934000Y-64184000D01*
D14*
X216154000Y-65532000D02*
X224282000Y-65532000D01*
D13*
X384048000Y-65532000D02*
X384986000Y-65532000D01*
D14*
X201676000Y-65532000D02*
X209042000Y-65532000D01*
D13*
X316266000Y-65532000D02*
X317614000Y-64184000D01*
X171486000Y-65532000D02*
X172834000Y-64184000D01*
X361986000Y-65532000D02*
X363334000Y-64184000D01*
X307848000Y-65532000D02*
X308646000Y-65532000D01*
X224282000Y-65532000D02*
X224826000Y-65532000D01*
X104254000Y-62484000D02*
X107074000Y-62484000D01*
X277876000Y-65532000D02*
X278166000Y-65532000D01*
X110490000Y-65532000D02*
X110526000Y-65532000D01*
X95286000Y-65532000D02*
X96634000Y-64184000D01*
D14*
X247142000Y-65532000D02*
X254508000Y-65532000D01*
D13*
X322834000Y-65532000D02*
X323886000Y-65532000D01*
X301026000Y-65532000D02*
X302374000Y-64184000D01*
X111874000Y-62484000D02*
X114694000Y-62484000D01*
D14*
X360172000Y-65532000D02*
X369316000Y-65532000D01*
X125476000Y-65532000D02*
X132842000Y-65532000D01*
D13*
X240066000Y-65532000D02*
X241414000Y-64184000D01*
X102906000Y-65532000D02*
X104254000Y-64184000D01*
D14*
X140462000Y-65532000D02*
X148082000Y-65532000D01*
D13*
X308646000Y-65532000D02*
X309994000Y-64184000D01*
X104254000Y-60784000D02*
X107074000Y-60784000D01*
X114694000Y-60784000D02*
X111874000Y-60784000D01*
X119494000Y-62484000D02*
X122314000Y-62484000D01*
X255306000Y-65532000D02*
X256654000Y-64184000D01*
D14*
X322834000Y-65532000D02*
X330962000Y-65532000D01*
D13*
X216154000Y-65532000D02*
X217206000Y-65532000D01*
D14*
X209042000Y-65532000D02*
X216154000Y-65532000D01*
D13*
X339126000Y-65532000D02*
X340474000Y-64184000D01*
X270546000Y-65532000D02*
X271894000Y-64184000D01*
X247686000Y-65532000D02*
X249034000Y-64184000D01*
X193294000Y-65532000D02*
X194346000Y-65532000D01*
D14*
X344932000Y-65532000D02*
X353568000Y-65532000D01*
D13*
X360172000Y-65532000D02*
X361986000Y-65532000D01*
X392466000Y-65532000D02*
X393814000Y-64184000D01*
D14*
X384048000Y-65532000D02*
X392466000Y-65532000D01*
D13*
X353568000Y-65532000D02*
X354366000Y-65532000D01*
X163866000Y-65532000D02*
X165214000Y-64184000D01*
D14*
X95286000Y-65532000D02*
X102906000Y-65532000D01*
X300228000Y-65532000D02*
X307848000Y-65532000D01*
D13*
X285786000Y-65532000D02*
X287134000Y-64184000D01*
X179106000Y-65532000D02*
X180454000Y-64184000D01*
X155702000Y-65532000D02*
X156246000Y-65532000D01*
X330962000Y-65532000D02*
X331506000Y-65532000D01*
D14*
X170942000Y-65532000D02*
X177800000Y-65532000D01*
D13*
X201676000Y-65532000D02*
X201966000Y-65532000D01*
D14*
X285786000Y-65532000D02*
X293406000Y-65532000D01*
D13*
X239268000Y-65532000D02*
X240066000Y-65532000D01*
X201966000Y-65532000D02*
X203314000Y-64184000D01*
X96634000Y-62484000D02*
X99454000Y-62484000D01*
X172834000Y-60784000D02*
X175654000Y-60784000D01*
X180454000Y-62484000D02*
X183274000Y-62484000D01*
X195694000Y-60784000D02*
X198514000Y-60784000D01*
X96634000Y-60784000D02*
X99454000Y-60784000D01*
X195694000Y-62484000D02*
X198514000Y-62484000D01*
X134734000Y-60784000D02*
X137554000Y-60784000D01*
X127114000Y-60784000D02*
X129934000Y-60784000D01*
X180454000Y-60784000D02*
X183274000Y-60784000D01*
X203314000Y-62484000D02*
X206134000Y-62484000D01*
X210934000Y-62484000D02*
X213754000Y-62484000D01*
X218554000Y-62484000D02*
X221374000Y-62484000D01*
X188074000Y-60784000D02*
X190894000Y-60784000D01*
X210934000Y-60784000D02*
X213754000Y-60784000D01*
X218554000Y-60784000D02*
X221374000Y-60784000D01*
X226174000Y-62484000D02*
X228994000Y-62484000D01*
X172834000Y-62484000D02*
X175654000Y-62484000D01*
X188074000Y-62484000D02*
X190894000Y-62484000D01*
X203314000Y-60784000D02*
X206134000Y-60784000D01*
X119494000Y-60784000D02*
X122314000Y-60784000D01*
X134734000Y-62484000D02*
X137554000Y-62484000D01*
X142354000Y-60784000D02*
X145174000Y-60784000D01*
X142354000Y-62484000D02*
X145174000Y-62484000D01*
X127114000Y-62484000D02*
X129934000Y-62484000D01*
X325234000Y-60784000D02*
X328054000Y-60784000D01*
X249034000Y-62484000D02*
X251854000Y-62484000D01*
X249034000Y-60784000D02*
X251854000Y-60784000D01*
X294754000Y-62484000D02*
X297574000Y-62484000D01*
X294754000Y-60784000D02*
X297574000Y-60784000D01*
X271894000Y-60784000D02*
X274714000Y-60784000D01*
X378574000Y-60784000D02*
X381534000Y-60784000D01*
X386334000Y-62484000D02*
X389014000Y-62484000D01*
X149974000Y-62484000D02*
X152794000Y-62484000D01*
X241414000Y-60784000D02*
X244234000Y-60784000D01*
X241414000Y-62484000D02*
X244234000Y-62484000D01*
X279514000Y-62484000D02*
X282334000Y-62484000D01*
X256654000Y-62484000D02*
X259474000Y-62484000D01*
X302374000Y-62484000D02*
X305194000Y-62484000D01*
X386334000Y-60784000D02*
X389014000Y-60784000D01*
X226174000Y-60784000D02*
X228994000Y-60784000D01*
X363334000Y-60784000D02*
X366154000Y-60784000D01*
X348094000Y-60784000D02*
X350914000Y-60784000D01*
X317614000Y-62484000D02*
X320434000Y-62484000D01*
X165214000Y-60784000D02*
X168034000Y-60784000D01*
X370954000Y-60784000D02*
X373774000Y-60784000D01*
X279514000Y-60784000D02*
X282334000Y-60784000D01*
X149974000Y-60784000D02*
X152794000Y-60784000D01*
X165214000Y-62484000D02*
X168034000Y-62484000D01*
X355714000Y-60784000D02*
X358534000Y-60784000D01*
X325234000Y-62484000D02*
X328054000Y-62484000D01*
X363334000Y-62484000D02*
X366154000Y-62484000D01*
X287134000Y-60784000D02*
X289954000Y-60784000D01*
X264274000Y-60784000D02*
X267094000Y-60784000D01*
X271894000Y-62484000D02*
X274714000Y-62484000D01*
X332854000Y-62484000D02*
X335674000Y-62484000D01*
X348094000Y-62484000D02*
X350914000Y-62484000D01*
X233794000Y-60784000D02*
X236614000Y-60784000D01*
X157594000Y-62484000D02*
X160414000Y-62484000D01*
X287134000Y-62484000D02*
X289954000Y-62484000D01*
X355714000Y-62484000D02*
X358534000Y-62484000D01*
X309994000Y-60784000D02*
X312814000Y-60784000D01*
X233794000Y-62484000D02*
X236614000Y-62484000D01*
X332854000Y-60784000D02*
X335674000Y-60784000D01*
X343294000Y-60784000D02*
X340474000Y-60784000D01*
X256654000Y-60784000D02*
X259474000Y-60784000D01*
X302374000Y-60784000D02*
X305194000Y-60784000D01*
X340474000Y-62484000D02*
X343294000Y-62484000D01*
X309994000Y-62484000D02*
X312814000Y-62484000D01*
X264274000Y-62484000D02*
X267094000Y-62484000D01*
X370954000Y-62484000D02*
X373774000Y-62484000D01*
X378574000Y-62484000D02*
X381534000Y-62484000D01*
X157594000Y-60784000D02*
X160414000Y-60784000D01*
X320434000Y-60784000D02*
X317614000Y-60784000D01*
G04 #@! TA.AperFunction,Conductor*
G36*
X71406374Y-54863387D02*
G01*
X71937584Y-54891112D01*
X71946481Y-54891895D01*
X72474370Y-54957220D01*
X72483189Y-54958630D01*
X73005139Y-55061232D01*
X73013822Y-55063261D01*
X73527169Y-55202616D01*
X73535709Y-55205263D01*
X74037871Y-55380670D01*
X74046202Y-55383916D01*
X74291671Y-55489738D01*
X74534673Y-55594497D01*
X74542737Y-55598318D01*
X74662709Y-55660473D01*
X75015037Y-55843007D01*
X75022825Y-55847399D01*
X75476576Y-56124961D01*
X75484028Y-56129891D01*
X75712370Y-56292892D01*
X75884599Y-56415837D01*
X75902640Y-56431499D01*
X75912471Y-56441824D01*
X75920236Y-56446326D01*
X75923981Y-56449279D01*
X75934329Y-56456800D01*
X75938304Y-56459458D01*
X75944986Y-56465458D01*
X75953080Y-56469339D01*
X75953084Y-56469342D01*
X75988251Y-56486205D01*
X75996953Y-56490805D01*
X76038481Y-56514883D01*
X76047196Y-56517024D01*
X76051609Y-56518803D01*
X76063663Y-56523122D01*
X76068233Y-56524560D01*
X76076323Y-56528440D01*
X76123696Y-56536215D01*
X76133308Y-56538182D01*
X76179932Y-56549637D01*
X76237069Y-56547147D01*
X76243565Y-56547032D01*
X82430940Y-56597786D01*
X87637523Y-56640495D01*
X87705476Y-56661055D01*
X87721244Y-56673258D01*
X90266462Y-58987093D01*
X90282932Y-59002066D01*
X90285106Y-59004312D01*
X90286776Y-59006958D01*
X90292914Y-59012379D01*
X90292915Y-59012380D01*
X90340031Y-59053992D01*
X90341378Y-59055199D01*
X90362963Y-59074821D01*
X90365249Y-59076370D01*
X90367422Y-59078182D01*
X90395951Y-59103378D01*
X90416806Y-59113170D01*
X90433932Y-59122914D01*
X90453008Y-59135840D01*
X90483685Y-59145703D01*
X90498647Y-59151594D01*
X90527800Y-59165281D01*
X90539354Y-59167080D01*
X90550566Y-59168826D01*
X90569740Y-59173372D01*
X90591674Y-59180424D01*
X90600646Y-59180663D01*
X90600648Y-59180663D01*
X90617463Y-59181110D01*
X90626189Y-59181342D01*
X90632551Y-59181672D01*
X90633577Y-59181751D01*
X90638386Y-59182500D01*
X90668064Y-59182500D01*
X90671414Y-59182545D01*
X90737280Y-59184297D01*
X90742709Y-59182865D01*
X90749012Y-59182500D01*
X396468018Y-59182500D01*
X396478123Y-59182906D01*
X396525811Y-59186743D01*
X396577875Y-59175961D01*
X396585541Y-59174619D01*
X396638187Y-59167080D01*
X396646361Y-59163363D01*
X396653069Y-59161402D01*
X396659651Y-59159026D01*
X396668442Y-59157205D01*
X396715401Y-59132236D01*
X396722380Y-59128799D01*
X396747519Y-59117369D01*
X396770782Y-59106792D01*
X396777580Y-59100935D01*
X396783477Y-59097164D01*
X396789127Y-59093036D01*
X396797050Y-59088823D01*
X396835103Y-59051689D01*
X396840848Y-59046420D01*
X396874328Y-59017572D01*
X396874330Y-59017569D01*
X396881127Y-59011713D01*
X396886008Y-59004182D01*
X396890602Y-58998916D01*
X396894869Y-58993366D01*
X396901297Y-58987093D01*
X396911702Y-58968627D01*
X396923825Y-58950854D01*
X397200124Y-58612038D01*
X397206967Y-58604315D01*
X397531631Y-58266821D01*
X397539084Y-58259684D01*
X397890263Y-57949899D01*
X397898265Y-57943403D01*
X398273643Y-57663369D01*
X398282117Y-57657572D01*
X398679152Y-57409191D01*
X398688110Y-57404085D01*
X399104116Y-57189035D01*
X399113469Y-57184676D01*
X399390312Y-57069195D01*
X399545665Y-57004392D01*
X399555326Y-57000818D01*
X400000860Y-56856492D01*
X400010774Y-56853723D01*
X400238693Y-56800031D01*
X400466599Y-56746342D01*
X400476731Y-56744389D01*
X400708271Y-56709527D01*
X400939821Y-56674664D01*
X400950057Y-56673549D01*
X401417303Y-56641950D01*
X401427601Y-56641676D01*
X401678418Y-56645286D01*
X401895856Y-56648416D01*
X401906159Y-56648987D01*
X402372283Y-56694017D01*
X402382504Y-56695429D01*
X402640165Y-56741842D01*
X402843379Y-56778448D01*
X402853436Y-56780687D01*
X403104193Y-56847432D01*
X403306000Y-56901147D01*
X403315838Y-56904202D01*
X403757029Y-57061288D01*
X403766577Y-57065136D01*
X404193409Y-57257785D01*
X404202632Y-57262411D01*
X404333719Y-57335029D01*
X404612283Y-57489345D01*
X404621083Y-57494702D01*
X405010789Y-57754395D01*
X405019116Y-57760450D01*
X405250168Y-57943396D01*
X405386271Y-58051162D01*
X405394086Y-58057888D01*
X405689232Y-58333748D01*
X405736206Y-58377653D01*
X405743450Y-58385001D01*
X406058278Y-58731708D01*
X406064880Y-58739607D01*
X406347117Y-59106792D01*
X406350276Y-59110902D01*
X406356221Y-59119330D01*
X406575518Y-59458907D01*
X406610274Y-59512726D01*
X406615512Y-59521616D01*
X406836521Y-59934478D01*
X406841013Y-59943764D01*
X407027507Y-60373342D01*
X407031214Y-60382938D01*
X407162108Y-60768015D01*
X407181930Y-60826329D01*
X407184848Y-60836227D01*
X407298774Y-61290446D01*
X407300873Y-61300548D01*
X407377254Y-61762587D01*
X407378518Y-61772828D01*
X407416835Y-62239537D01*
X407417258Y-62249847D01*
X407417258Y-62718153D01*
X407416835Y-62728463D01*
X407378518Y-63195172D01*
X407377254Y-63205413D01*
X407300873Y-63667452D01*
X407298774Y-63677554D01*
X407184848Y-64131773D01*
X407181931Y-64141667D01*
X407049919Y-64530035D01*
X407031218Y-64585051D01*
X407027507Y-64594658D01*
X406863916Y-64971481D01*
X406841014Y-65024234D01*
X406836521Y-65033522D01*
X406615512Y-65446384D01*
X406610276Y-65455271D01*
X406360794Y-65841590D01*
X406356224Y-65848666D01*
X406350279Y-65857093D01*
X406064880Y-66228393D01*
X406058278Y-66236292D01*
X405896236Y-66414742D01*
X405743450Y-66582999D01*
X405736206Y-66590347D01*
X405410020Y-66895219D01*
X405394091Y-66910107D01*
X405386277Y-66916833D01*
X405019116Y-67207550D01*
X405010789Y-67213605D01*
X404621083Y-67473298D01*
X404612283Y-67478655D01*
X404458341Y-67563934D01*
X404202632Y-67705589D01*
X404193409Y-67710215D01*
X403766577Y-67902864D01*
X403757029Y-67906712D01*
X403315838Y-68063798D01*
X403306000Y-68066853D01*
X403142377Y-68110405D01*
X402853436Y-68187313D01*
X402843379Y-68189552D01*
X402665147Y-68221658D01*
X402382504Y-68272571D01*
X402372283Y-68273983D01*
X401906159Y-68319013D01*
X401895856Y-68319584D01*
X401678418Y-68322714D01*
X401427601Y-68326324D01*
X401417303Y-68326050D01*
X400950057Y-68294451D01*
X400939821Y-68293336D01*
X400708270Y-68258473D01*
X400476731Y-68223611D01*
X400466599Y-68221658D01*
X400238693Y-68167969D01*
X400010774Y-68114277D01*
X400000860Y-68111508D01*
X399555326Y-67967182D01*
X399545665Y-67963608D01*
X399303465Y-67862578D01*
X399113469Y-67783324D01*
X399104116Y-67778965D01*
X398688110Y-67563915D01*
X398679152Y-67558809D01*
X398282117Y-67310428D01*
X398273643Y-67304631D01*
X397898265Y-67024597D01*
X397890263Y-67018101D01*
X397539084Y-66708316D01*
X397531631Y-66701179D01*
X397206967Y-66363685D01*
X397200124Y-66355962D01*
X396928547Y-66022936D01*
X396914944Y-66002460D01*
X396913040Y-65998880D01*
X396913039Y-65998879D01*
X396908824Y-65990951D01*
X396902554Y-65984526D01*
X396897839Y-65978072D01*
X396894939Y-65974400D01*
X396889744Y-65968306D01*
X396884947Y-65960717D01*
X396848178Y-65928297D01*
X396841343Y-65921799D01*
X396807095Y-65886705D01*
X396799272Y-65882297D01*
X396792978Y-65877459D01*
X396789066Y-65874678D01*
X396782423Y-65870323D01*
X396775692Y-65864388D01*
X396731298Y-65843590D01*
X396722921Y-65839276D01*
X396680196Y-65815201D01*
X396671451Y-65813166D01*
X396664016Y-65810275D01*
X396659563Y-65808733D01*
X396651922Y-65806404D01*
X396643791Y-65802594D01*
X396625446Y-65799753D01*
X396595348Y-65795092D01*
X396586074Y-65793297D01*
X396547074Y-65784222D01*
X396538329Y-65782187D01*
X396482305Y-65785319D01*
X396475386Y-65785515D01*
X394711728Y-65786980D01*
X393601289Y-65787902D01*
X393533151Y-65767956D01*
X393486614Y-65714339D01*
X393475874Y-65648732D01*
X393486749Y-65545260D01*
X393486749Y-65545258D01*
X393487393Y-65539131D01*
X393483555Y-65496962D01*
X393481916Y-65478946D01*
X393495662Y-65409293D01*
X393518302Y-65378432D01*
X393617329Y-65279405D01*
X393679641Y-65245379D01*
X393706424Y-65242500D01*
X394862134Y-65242500D01*
X394924316Y-65235745D01*
X395060705Y-65184615D01*
X395177261Y-65097261D01*
X395264615Y-64980705D01*
X395315745Y-64844316D01*
X395322500Y-64782134D01*
X395322500Y-63585866D01*
X395315745Y-63523684D01*
X395280516Y-63429710D01*
X395267766Y-63395699D01*
X395267764Y-63395696D01*
X395264615Y-63387295D01*
X395265466Y-63386976D01*
X395251945Y-63325151D01*
X395264958Y-63280834D01*
X395264615Y-63280705D01*
X395266372Y-63276019D01*
X395266373Y-63276015D01*
X395273809Y-63256182D01*
X395312971Y-63151715D01*
X395315745Y-63144316D01*
X395322500Y-63082134D01*
X395322500Y-62484000D01*
X397860010Y-62484000D01*
X397880356Y-62872218D01*
X397880869Y-62875458D01*
X397880870Y-62875466D01*
X397890556Y-62936617D01*
X397941170Y-63256182D01*
X398041786Y-63631686D01*
X398181101Y-63994616D01*
X398357590Y-64340995D01*
X398569319Y-64667029D01*
X398571397Y-64669595D01*
X398744406Y-64883242D01*
X398813968Y-64969144D01*
X399088856Y-65244032D01*
X399091414Y-65246104D01*
X399091418Y-65246107D01*
X399237449Y-65364361D01*
X399390971Y-65488681D01*
X399717005Y-65700410D01*
X400063384Y-65876899D01*
X400426314Y-66016214D01*
X400801818Y-66116830D01*
X401005836Y-66149143D01*
X401182534Y-66177130D01*
X401182542Y-66177131D01*
X401185782Y-66177644D01*
X401574000Y-66197990D01*
X401962218Y-66177644D01*
X401965458Y-66177131D01*
X401965466Y-66177130D01*
X402142164Y-66149143D01*
X402346182Y-66116830D01*
X402721686Y-66016214D01*
X403084616Y-65876899D01*
X403430995Y-65700410D01*
X403757029Y-65488681D01*
X403910551Y-65364361D01*
X404056582Y-65246107D01*
X404056586Y-65246104D01*
X404059144Y-65244032D01*
X404334032Y-64969144D01*
X404403595Y-64883242D01*
X404576603Y-64669595D01*
X404578681Y-64667029D01*
X404790410Y-64340995D01*
X404966899Y-63994616D01*
X405106214Y-63631686D01*
X405206830Y-63256182D01*
X405257444Y-62936617D01*
X405267130Y-62875466D01*
X405267131Y-62875458D01*
X405267644Y-62872218D01*
X405287990Y-62484000D01*
X405267644Y-62095782D01*
X405264528Y-62076104D01*
X405234938Y-61889283D01*
X405206830Y-61711818D01*
X405106214Y-61336314D01*
X404966899Y-60973384D01*
X404790410Y-60627005D01*
X404578681Y-60300971D01*
X404502734Y-60207185D01*
X404336107Y-60001418D01*
X404336104Y-60001414D01*
X404334032Y-59998856D01*
X404059144Y-59723968D01*
X403969920Y-59651715D01*
X403809261Y-59521616D01*
X403757029Y-59479319D01*
X403430995Y-59267590D01*
X403084616Y-59091101D01*
X402844465Y-58998916D01*
X402724776Y-58952972D01*
X402724774Y-58952971D01*
X402721686Y-58951786D01*
X402346182Y-58851170D01*
X402142164Y-58818857D01*
X401965466Y-58790870D01*
X401965458Y-58790869D01*
X401962218Y-58790356D01*
X401574000Y-58770010D01*
X401185782Y-58790356D01*
X401182542Y-58790869D01*
X401182534Y-58790870D01*
X401005836Y-58818857D01*
X400801818Y-58851170D01*
X400426314Y-58951786D01*
X400423226Y-58952971D01*
X400423224Y-58952972D01*
X400303535Y-58998916D01*
X400063384Y-59091101D01*
X399717005Y-59267590D01*
X399390971Y-59479319D01*
X399338739Y-59521616D01*
X399178081Y-59651715D01*
X399088856Y-59723968D01*
X398813968Y-59998856D01*
X398811896Y-60001414D01*
X398811893Y-60001418D01*
X398645266Y-60207185D01*
X398569319Y-60300971D01*
X398357590Y-60627005D01*
X398181101Y-60973384D01*
X398041786Y-61336314D01*
X397941170Y-61711818D01*
X397913062Y-61889283D01*
X397883473Y-62076104D01*
X397880356Y-62095782D01*
X397860010Y-62484000D01*
X395322500Y-62484000D01*
X395322500Y-61885866D01*
X395315745Y-61823684D01*
X395275031Y-61715079D01*
X395267766Y-61695699D01*
X395267764Y-61695696D01*
X395264615Y-61687295D01*
X395265466Y-61686976D01*
X395251945Y-61625151D01*
X395264958Y-61580834D01*
X395264615Y-61580705D01*
X395266372Y-61576019D01*
X395266373Y-61576015D01*
X395315745Y-61444316D01*
X395322500Y-61382134D01*
X395322500Y-60185866D01*
X395315745Y-60123684D01*
X395264615Y-59987295D01*
X395177261Y-59870739D01*
X395060705Y-59783385D01*
X394924316Y-59732255D01*
X394862134Y-59725500D01*
X392765866Y-59725500D01*
X392703684Y-59732255D01*
X392567295Y-59783385D01*
X392450739Y-59870739D01*
X392363385Y-59987295D01*
X392312255Y-60123684D01*
X392305500Y-60185866D01*
X392305500Y-61382134D01*
X392312255Y-61444316D01*
X392363385Y-61580705D01*
X392362534Y-61581024D01*
X392376055Y-61642849D01*
X392363042Y-61687166D01*
X392363385Y-61687295D01*
X392360236Y-61695696D01*
X392360234Y-61695699D01*
X392352969Y-61715079D01*
X392312255Y-61823684D01*
X392305500Y-61885866D01*
X392305500Y-63082134D01*
X392312255Y-63144316D01*
X392315029Y-63151715D01*
X392354192Y-63256182D01*
X392362245Y-63277663D01*
X392363385Y-63280705D01*
X392362534Y-63281024D01*
X392376055Y-63342849D01*
X392363042Y-63387166D01*
X392363385Y-63387295D01*
X392360236Y-63395696D01*
X392360234Y-63395699D01*
X392347484Y-63429710D01*
X392312255Y-63523684D01*
X392305500Y-63585866D01*
X392305500Y-64389500D01*
X392285498Y-64457621D01*
X392231842Y-64504114D01*
X392179500Y-64515500D01*
X390633759Y-64515500D01*
X390565638Y-64495498D01*
X390520666Y-64443598D01*
X390516135Y-64439671D01*
X390508452Y-64438000D01*
X388886000Y-64438000D01*
X388817879Y-64417998D01*
X388771386Y-64364342D01*
X388760000Y-64312000D01*
X388760000Y-64056000D01*
X388780002Y-63987879D01*
X388833658Y-63941386D01*
X388886000Y-63930000D01*
X390503884Y-63930000D01*
X390519123Y-63925525D01*
X390520328Y-63924135D01*
X390521999Y-63916452D01*
X390521999Y-63589331D01*
X390521629Y-63582510D01*
X390516105Y-63531648D01*
X390512479Y-63516396D01*
X390467321Y-63395939D01*
X390466826Y-63395034D01*
X390466607Y-63394034D01*
X390464172Y-63387538D01*
X390465110Y-63387186D01*
X390451657Y-63325677D01*
X390464838Y-63280788D01*
X390464615Y-63280705D01*
X390465756Y-63277663D01*
X390465758Y-63277656D01*
X390473809Y-63256182D01*
X390512971Y-63151715D01*
X390515745Y-63144316D01*
X390522500Y-63082134D01*
X390522500Y-61885866D01*
X390515745Y-61823684D01*
X390475031Y-61715079D01*
X390467766Y-61695699D01*
X390467764Y-61695696D01*
X390464615Y-61687295D01*
X390465466Y-61686976D01*
X390451945Y-61625151D01*
X390464958Y-61580834D01*
X390464615Y-61580705D01*
X390466372Y-61576019D01*
X390466373Y-61576015D01*
X390515745Y-61444316D01*
X390522500Y-61382134D01*
X390522500Y-60185866D01*
X390515745Y-60123684D01*
X390464615Y-59987295D01*
X390377261Y-59870739D01*
X390260705Y-59783385D01*
X390124316Y-59732255D01*
X390062134Y-59725500D01*
X387965866Y-59725500D01*
X387903684Y-59732255D01*
X387767295Y-59783385D01*
X387760109Y-59788771D01*
X387749565Y-59796673D01*
X387683059Y-59821521D01*
X387613677Y-59806468D01*
X387598435Y-59796673D01*
X387587891Y-59788771D01*
X387580705Y-59783385D01*
X387444316Y-59732255D01*
X387382134Y-59725500D01*
X385285866Y-59725500D01*
X385223684Y-59732255D01*
X385087295Y-59783385D01*
X384970739Y-59870739D01*
X384883385Y-59987295D01*
X384832255Y-60123684D01*
X384825500Y-60185866D01*
X384825500Y-61382134D01*
X384832255Y-61444316D01*
X384883385Y-61580705D01*
X384882534Y-61581024D01*
X384896055Y-61642849D01*
X384883042Y-61687166D01*
X384883385Y-61687295D01*
X384880236Y-61695696D01*
X384880234Y-61695699D01*
X384872969Y-61715079D01*
X384832255Y-61823684D01*
X384825500Y-61885866D01*
X384825500Y-63082134D01*
X384832255Y-63144316D01*
X384835029Y-63151715D01*
X384874192Y-63256182D01*
X384882245Y-63277663D01*
X384883385Y-63280705D01*
X384882534Y-63281024D01*
X384896055Y-63342849D01*
X384883042Y-63387166D01*
X384883385Y-63387295D01*
X384880236Y-63395696D01*
X384880234Y-63395699D01*
X384867484Y-63429710D01*
X384832255Y-63523684D01*
X384825500Y-63585866D01*
X384825500Y-64389500D01*
X384805498Y-64457621D01*
X384751842Y-64504114D01*
X384699500Y-64515500D01*
X383153759Y-64515500D01*
X383085638Y-64495498D01*
X383040666Y-64443598D01*
X383036135Y-64439671D01*
X383028452Y-64438000D01*
X381406000Y-64438000D01*
X381337879Y-64417998D01*
X381291386Y-64364342D01*
X381280000Y-64312000D01*
X381280000Y-64056000D01*
X381300002Y-63987879D01*
X381353658Y-63941386D01*
X381406000Y-63930000D01*
X383023884Y-63930000D01*
X383039123Y-63925525D01*
X383040328Y-63924135D01*
X383041999Y-63916452D01*
X383041999Y-63589331D01*
X383041629Y-63582510D01*
X383036105Y-63531648D01*
X383032479Y-63516396D01*
X382987321Y-63395939D01*
X382986826Y-63395034D01*
X382986607Y-63394034D01*
X382984172Y-63387538D01*
X382985110Y-63387186D01*
X382971657Y-63325677D01*
X382984838Y-63280788D01*
X382984615Y-63280705D01*
X382985756Y-63277663D01*
X382985758Y-63277656D01*
X382993809Y-63256182D01*
X383032971Y-63151715D01*
X383035745Y-63144316D01*
X383042500Y-63082134D01*
X383042500Y-61885866D01*
X383035745Y-61823684D01*
X382995031Y-61715079D01*
X382987766Y-61695699D01*
X382987764Y-61695696D01*
X382984615Y-61687295D01*
X382985466Y-61686976D01*
X382971945Y-61625151D01*
X382984958Y-61580834D01*
X382984615Y-61580705D01*
X382986372Y-61576019D01*
X382986373Y-61576015D01*
X383035745Y-61444316D01*
X383042500Y-61382134D01*
X383042500Y-60185866D01*
X383035745Y-60123684D01*
X382984615Y-59987295D01*
X382897261Y-59870739D01*
X382780705Y-59783385D01*
X382644316Y-59732255D01*
X382582134Y-59725500D01*
X380485866Y-59725500D01*
X380423684Y-59732255D01*
X380287295Y-59783385D01*
X380170739Y-59870739D01*
X380154826Y-59891972D01*
X380097968Y-59934487D01*
X380027149Y-59939513D01*
X379964856Y-59905454D01*
X379953177Y-59891975D01*
X379937261Y-59870739D01*
X379820705Y-59783385D01*
X379684316Y-59732255D01*
X379622134Y-59725500D01*
X377525866Y-59725500D01*
X377463684Y-59732255D01*
X377327295Y-59783385D01*
X377210739Y-59870739D01*
X377123385Y-59987295D01*
X377072255Y-60123684D01*
X377065500Y-60185866D01*
X377065500Y-61382134D01*
X377072255Y-61444316D01*
X377123385Y-61580705D01*
X377122534Y-61581024D01*
X377136055Y-61642849D01*
X377123042Y-61687166D01*
X377123385Y-61687295D01*
X377120236Y-61695696D01*
X377120234Y-61695699D01*
X377112969Y-61715079D01*
X377072255Y-61823684D01*
X377065500Y-61885866D01*
X377065500Y-63082134D01*
X377072255Y-63144316D01*
X377075029Y-63151715D01*
X377114192Y-63256182D01*
X377122245Y-63277663D01*
X377123385Y-63280705D01*
X377122534Y-63281024D01*
X377136055Y-63342849D01*
X377123042Y-63387166D01*
X377123385Y-63387295D01*
X377120236Y-63395696D01*
X377120234Y-63395699D01*
X377107484Y-63429710D01*
X377072255Y-63523684D01*
X377065500Y-63585866D01*
X377065500Y-64389500D01*
X377045498Y-64457621D01*
X376991842Y-64504114D01*
X376939500Y-64515500D01*
X375393759Y-64515500D01*
X375325638Y-64495498D01*
X375280666Y-64443598D01*
X375276135Y-64439671D01*
X375268452Y-64438000D01*
X373646000Y-64438000D01*
X373577879Y-64417998D01*
X373531386Y-64364342D01*
X373520000Y-64312000D01*
X373520000Y-64056000D01*
X373540002Y-63987879D01*
X373593658Y-63941386D01*
X373646000Y-63930000D01*
X375263884Y-63930000D01*
X375279123Y-63925525D01*
X375280328Y-63924135D01*
X375281999Y-63916452D01*
X375281999Y-63589331D01*
X375281629Y-63582510D01*
X375276105Y-63531648D01*
X375272479Y-63516396D01*
X375227321Y-63395939D01*
X375226826Y-63395034D01*
X375226607Y-63394034D01*
X375224172Y-63387538D01*
X375225110Y-63387186D01*
X375211657Y-63325677D01*
X375224838Y-63280788D01*
X375224615Y-63280705D01*
X375225756Y-63277663D01*
X375225758Y-63277656D01*
X375233809Y-63256182D01*
X375272971Y-63151715D01*
X375275745Y-63144316D01*
X375282500Y-63082134D01*
X375282500Y-61885866D01*
X375275745Y-61823684D01*
X375235031Y-61715079D01*
X375227766Y-61695699D01*
X375227764Y-61695696D01*
X375224615Y-61687295D01*
X375225466Y-61686976D01*
X375211945Y-61625151D01*
X375224958Y-61580834D01*
X375224615Y-61580705D01*
X375226372Y-61576019D01*
X375226373Y-61576015D01*
X375275745Y-61444316D01*
X375282500Y-61382134D01*
X375282500Y-60185866D01*
X375275745Y-60123684D01*
X375224615Y-59987295D01*
X375137261Y-59870739D01*
X375020705Y-59783385D01*
X374884316Y-59732255D01*
X374822134Y-59725500D01*
X372725866Y-59725500D01*
X372663684Y-59732255D01*
X372527295Y-59783385D01*
X372453566Y-59838642D01*
X372439565Y-59849135D01*
X372373059Y-59873983D01*
X372303676Y-59858930D01*
X372288435Y-59849135D01*
X372274434Y-59838642D01*
X372200705Y-59783385D01*
X372064316Y-59732255D01*
X372002134Y-59725500D01*
X369905866Y-59725500D01*
X369843684Y-59732255D01*
X369707295Y-59783385D01*
X369590739Y-59870739D01*
X369503385Y-59987295D01*
X369452255Y-60123684D01*
X369445500Y-60185866D01*
X369445500Y-61382134D01*
X369452255Y-61444316D01*
X369503385Y-61580705D01*
X369502534Y-61581024D01*
X369516055Y-61642849D01*
X369503042Y-61687166D01*
X369503385Y-61687295D01*
X369500236Y-61695696D01*
X369500234Y-61695699D01*
X369492969Y-61715079D01*
X369452255Y-61823684D01*
X369445500Y-61885866D01*
X369445500Y-63082134D01*
X369452255Y-63144316D01*
X369455029Y-63151715D01*
X369494192Y-63256182D01*
X369502245Y-63277663D01*
X369503385Y-63280705D01*
X369502534Y-63281024D01*
X369516055Y-63342849D01*
X369503042Y-63387166D01*
X369503385Y-63387295D01*
X369500236Y-63395696D01*
X369500234Y-63395699D01*
X369487484Y-63429710D01*
X369452255Y-63523684D01*
X369445500Y-63585866D01*
X369445500Y-64389500D01*
X369425498Y-64457621D01*
X369371842Y-64504114D01*
X369319500Y-64515500D01*
X367773759Y-64515500D01*
X367705638Y-64495498D01*
X367660666Y-64443598D01*
X367656135Y-64439671D01*
X367648452Y-64438000D01*
X366026000Y-64438000D01*
X365957879Y-64417998D01*
X365911386Y-64364342D01*
X365900000Y-64312000D01*
X365900000Y-64056000D01*
X365920002Y-63987879D01*
X365973658Y-63941386D01*
X366026000Y-63930000D01*
X367643884Y-63930000D01*
X367659123Y-63925525D01*
X367660328Y-63924135D01*
X367661999Y-63916452D01*
X367661999Y-63589331D01*
X367661629Y-63582510D01*
X367656105Y-63531648D01*
X367652479Y-63516396D01*
X367607321Y-63395939D01*
X367606826Y-63395034D01*
X367606607Y-63394034D01*
X367604172Y-63387538D01*
X367605110Y-63387186D01*
X367591657Y-63325677D01*
X367604838Y-63280788D01*
X367604615Y-63280705D01*
X367605756Y-63277663D01*
X367605758Y-63277656D01*
X367613809Y-63256182D01*
X367652971Y-63151715D01*
X367655745Y-63144316D01*
X367662500Y-63082134D01*
X367662500Y-61885866D01*
X367655745Y-61823684D01*
X367615031Y-61715079D01*
X367607766Y-61695699D01*
X367607764Y-61695696D01*
X367604615Y-61687295D01*
X367605466Y-61686976D01*
X367591945Y-61625151D01*
X367604958Y-61580834D01*
X367604615Y-61580705D01*
X367606372Y-61576019D01*
X367606373Y-61576015D01*
X367655745Y-61444316D01*
X367662500Y-61382134D01*
X367662500Y-60185866D01*
X367655745Y-60123684D01*
X367604615Y-59987295D01*
X367517261Y-59870739D01*
X367400705Y-59783385D01*
X367264316Y-59732255D01*
X367202134Y-59725500D01*
X365105866Y-59725500D01*
X365043684Y-59732255D01*
X364907295Y-59783385D01*
X364833566Y-59838642D01*
X364819565Y-59849135D01*
X364753059Y-59873983D01*
X364683676Y-59858930D01*
X364668435Y-59849135D01*
X364654434Y-59838642D01*
X364580705Y-59783385D01*
X364444316Y-59732255D01*
X364382134Y-59725500D01*
X362285866Y-59725500D01*
X362223684Y-59732255D01*
X362087295Y-59783385D01*
X361970739Y-59870739D01*
X361883385Y-59987295D01*
X361832255Y-60123684D01*
X361825500Y-60185866D01*
X361825500Y-61382134D01*
X361832255Y-61444316D01*
X361883385Y-61580705D01*
X361882534Y-61581024D01*
X361896055Y-61642849D01*
X361883042Y-61687166D01*
X361883385Y-61687295D01*
X361880236Y-61695696D01*
X361880234Y-61695699D01*
X361872969Y-61715079D01*
X361832255Y-61823684D01*
X361825500Y-61885866D01*
X361825500Y-63082134D01*
X361832255Y-63144316D01*
X361835029Y-63151715D01*
X361874192Y-63256182D01*
X361882245Y-63277663D01*
X361883385Y-63280705D01*
X361882534Y-63281024D01*
X361896055Y-63342849D01*
X361883042Y-63387166D01*
X361883385Y-63387295D01*
X361880236Y-63395696D01*
X361880234Y-63395699D01*
X361867484Y-63429710D01*
X361832255Y-63523684D01*
X361825500Y-63585866D01*
X361825500Y-64389500D01*
X361805498Y-64457621D01*
X361751842Y-64504114D01*
X361699500Y-64515500D01*
X360153759Y-64515500D01*
X360085638Y-64495498D01*
X360040666Y-64443598D01*
X360036135Y-64439671D01*
X360028452Y-64438000D01*
X358406000Y-64438000D01*
X358337879Y-64417998D01*
X358291386Y-64364342D01*
X358280000Y-64312000D01*
X358280000Y-64056000D01*
X358300002Y-63987879D01*
X358353658Y-63941386D01*
X358406000Y-63930000D01*
X360023884Y-63930000D01*
X360039123Y-63925525D01*
X360040328Y-63924135D01*
X360041999Y-63916452D01*
X360041999Y-63589331D01*
X360041629Y-63582510D01*
X360036105Y-63531648D01*
X360032479Y-63516396D01*
X359987321Y-63395939D01*
X359986826Y-63395034D01*
X359986607Y-63394034D01*
X359984172Y-63387538D01*
X359985110Y-63387186D01*
X359971657Y-63325677D01*
X359984838Y-63280788D01*
X359984615Y-63280705D01*
X359985756Y-63277663D01*
X359985758Y-63277656D01*
X359993809Y-63256182D01*
X360032971Y-63151715D01*
X360035745Y-63144316D01*
X360042500Y-63082134D01*
X360042500Y-61885866D01*
X360035745Y-61823684D01*
X359995031Y-61715079D01*
X359987766Y-61695699D01*
X359987764Y-61695696D01*
X359984615Y-61687295D01*
X359985466Y-61686976D01*
X359971945Y-61625151D01*
X359984958Y-61580834D01*
X359984615Y-61580705D01*
X359986372Y-61576019D01*
X359986373Y-61576015D01*
X360035745Y-61444316D01*
X360042500Y-61382134D01*
X360042500Y-60185866D01*
X360035745Y-60123684D01*
X359984615Y-59987295D01*
X359897261Y-59870739D01*
X359780705Y-59783385D01*
X359644316Y-59732255D01*
X359582134Y-59725500D01*
X357485866Y-59725500D01*
X357423684Y-59732255D01*
X357287295Y-59783385D01*
X357213566Y-59838642D01*
X357199565Y-59849135D01*
X357133059Y-59873983D01*
X357063676Y-59858930D01*
X357048435Y-59849135D01*
X357034434Y-59838642D01*
X356960705Y-59783385D01*
X356824316Y-59732255D01*
X356762134Y-59725500D01*
X354665866Y-59725500D01*
X354603684Y-59732255D01*
X354467295Y-59783385D01*
X354350739Y-59870739D01*
X354263385Y-59987295D01*
X354212255Y-60123684D01*
X354205500Y-60185866D01*
X354205500Y-61382134D01*
X354212255Y-61444316D01*
X354263385Y-61580705D01*
X354262534Y-61581024D01*
X354276055Y-61642849D01*
X354263042Y-61687166D01*
X354263385Y-61687295D01*
X354260236Y-61695696D01*
X354260234Y-61695699D01*
X354252969Y-61715079D01*
X354212255Y-61823684D01*
X354205500Y-61885866D01*
X354205500Y-63082134D01*
X354212255Y-63144316D01*
X354215029Y-63151715D01*
X354254192Y-63256182D01*
X354262245Y-63277663D01*
X354263385Y-63280705D01*
X354262534Y-63281024D01*
X354276055Y-63342849D01*
X354263042Y-63387166D01*
X354263385Y-63387295D01*
X354260236Y-63395696D01*
X354260234Y-63395699D01*
X354247484Y-63429710D01*
X354212255Y-63523684D01*
X354205500Y-63585866D01*
X354205500Y-64389500D01*
X354185498Y-64457621D01*
X354131842Y-64504114D01*
X354079500Y-64515500D01*
X352533759Y-64515500D01*
X352465638Y-64495498D01*
X352420666Y-64443598D01*
X352416135Y-64439671D01*
X352408452Y-64438000D01*
X350786000Y-64438000D01*
X350717879Y-64417998D01*
X350671386Y-64364342D01*
X350660000Y-64312000D01*
X350660000Y-64056000D01*
X350680002Y-63987879D01*
X350733658Y-63941386D01*
X350786000Y-63930000D01*
X352403884Y-63930000D01*
X352419123Y-63925525D01*
X352420328Y-63924135D01*
X352421999Y-63916452D01*
X352421999Y-63589331D01*
X352421629Y-63582510D01*
X352416105Y-63531648D01*
X352412479Y-63516396D01*
X352367321Y-63395939D01*
X352366826Y-63395034D01*
X352366607Y-63394034D01*
X352364172Y-63387538D01*
X352365110Y-63387186D01*
X352351657Y-63325677D01*
X352364838Y-63280788D01*
X352364615Y-63280705D01*
X352365756Y-63277663D01*
X352365758Y-63277656D01*
X352373809Y-63256182D01*
X352412971Y-63151715D01*
X352415745Y-63144316D01*
X352422500Y-63082134D01*
X352422500Y-61885866D01*
X352415745Y-61823684D01*
X352375031Y-61715079D01*
X352367766Y-61695699D01*
X352367764Y-61695696D01*
X352364615Y-61687295D01*
X352365466Y-61686976D01*
X352351945Y-61625151D01*
X352364958Y-61580834D01*
X352364615Y-61580705D01*
X352366372Y-61576019D01*
X352366373Y-61576015D01*
X352415745Y-61444316D01*
X352422500Y-61382134D01*
X352422500Y-60185866D01*
X352415745Y-60123684D01*
X352364615Y-59987295D01*
X352277261Y-59870739D01*
X352160705Y-59783385D01*
X352024316Y-59732255D01*
X351962134Y-59725500D01*
X349865866Y-59725500D01*
X349803684Y-59732255D01*
X349667295Y-59783385D01*
X349593566Y-59838642D01*
X349579565Y-59849135D01*
X349513059Y-59873983D01*
X349443676Y-59858930D01*
X349428435Y-59849135D01*
X349414434Y-59838642D01*
X349340705Y-59783385D01*
X349204316Y-59732255D01*
X349142134Y-59725500D01*
X347045866Y-59725500D01*
X346983684Y-59732255D01*
X346847295Y-59783385D01*
X346730739Y-59870739D01*
X346643385Y-59987295D01*
X346592255Y-60123684D01*
X346585500Y-60185866D01*
X346585500Y-61382134D01*
X346592255Y-61444316D01*
X346643385Y-61580705D01*
X346642534Y-61581024D01*
X346656055Y-61642849D01*
X346643042Y-61687166D01*
X346643385Y-61687295D01*
X346640236Y-61695696D01*
X346640234Y-61695699D01*
X346632969Y-61715079D01*
X346592255Y-61823684D01*
X346585500Y-61885866D01*
X346585500Y-63082134D01*
X346592255Y-63144316D01*
X346595029Y-63151715D01*
X346634192Y-63256182D01*
X346642245Y-63277663D01*
X346643385Y-63280705D01*
X346642534Y-63281024D01*
X346656055Y-63342849D01*
X346643042Y-63387166D01*
X346643385Y-63387295D01*
X346640236Y-63395696D01*
X346640234Y-63395699D01*
X346627484Y-63429710D01*
X346592255Y-63523684D01*
X346585500Y-63585866D01*
X346585500Y-64389500D01*
X346565498Y-64457621D01*
X346511842Y-64504114D01*
X346459500Y-64515500D01*
X344913759Y-64515500D01*
X344845638Y-64495498D01*
X344800666Y-64443598D01*
X344796135Y-64439671D01*
X344788452Y-64438000D01*
X343166000Y-64438000D01*
X343097879Y-64417998D01*
X343051386Y-64364342D01*
X343040000Y-64312000D01*
X343040000Y-64056000D01*
X343060002Y-63987879D01*
X343113658Y-63941386D01*
X343166000Y-63930000D01*
X344783884Y-63930000D01*
X344799123Y-63925525D01*
X344800328Y-63924135D01*
X344801999Y-63916452D01*
X344801999Y-63589331D01*
X344801629Y-63582510D01*
X344796105Y-63531648D01*
X344792479Y-63516396D01*
X344747321Y-63395939D01*
X344746826Y-63395034D01*
X344746607Y-63394034D01*
X344744172Y-63387538D01*
X344745110Y-63387186D01*
X344731657Y-63325677D01*
X344744838Y-63280788D01*
X344744615Y-63280705D01*
X344745756Y-63277663D01*
X344745758Y-63277656D01*
X344753809Y-63256182D01*
X344792971Y-63151715D01*
X344795745Y-63144316D01*
X344802500Y-63082134D01*
X344802500Y-61885866D01*
X344795745Y-61823684D01*
X344755031Y-61715079D01*
X344747766Y-61695699D01*
X344747764Y-61695696D01*
X344744615Y-61687295D01*
X344745466Y-61686976D01*
X344731945Y-61625151D01*
X344744958Y-61580834D01*
X344744615Y-61580705D01*
X344746372Y-61576019D01*
X344746373Y-61576015D01*
X344795745Y-61444316D01*
X344802500Y-61382134D01*
X344802500Y-60185866D01*
X344795745Y-60123684D01*
X344744615Y-59987295D01*
X344657261Y-59870739D01*
X344540705Y-59783385D01*
X344404316Y-59732255D01*
X344342134Y-59725500D01*
X342245866Y-59725500D01*
X342183684Y-59732255D01*
X342047295Y-59783385D01*
X341973566Y-59838642D01*
X341959565Y-59849135D01*
X341893059Y-59873983D01*
X341823676Y-59858930D01*
X341808435Y-59849135D01*
X341794434Y-59838642D01*
X341720705Y-59783385D01*
X341584316Y-59732255D01*
X341522134Y-59725500D01*
X339425866Y-59725500D01*
X339363684Y-59732255D01*
X339227295Y-59783385D01*
X339110739Y-59870739D01*
X339023385Y-59987295D01*
X338972255Y-60123684D01*
X338965500Y-60185866D01*
X338965500Y-61382134D01*
X338972255Y-61444316D01*
X339023385Y-61580705D01*
X339022534Y-61581024D01*
X339036055Y-61642849D01*
X339023042Y-61687166D01*
X339023385Y-61687295D01*
X339020236Y-61695696D01*
X339020234Y-61695699D01*
X339012969Y-61715079D01*
X338972255Y-61823684D01*
X338965500Y-61885866D01*
X338965500Y-63082134D01*
X338972255Y-63144316D01*
X338975029Y-63151715D01*
X339014192Y-63256182D01*
X339022245Y-63277663D01*
X339023385Y-63280705D01*
X339022534Y-63281024D01*
X339036055Y-63342849D01*
X339023042Y-63387166D01*
X339023385Y-63387295D01*
X339020236Y-63395696D01*
X339020234Y-63395699D01*
X339007484Y-63429710D01*
X338972255Y-63523684D01*
X338965500Y-63585866D01*
X338965500Y-64389500D01*
X338945498Y-64457621D01*
X338891842Y-64504114D01*
X338839500Y-64515500D01*
X337293759Y-64515500D01*
X337225638Y-64495498D01*
X337180666Y-64443598D01*
X337176135Y-64439671D01*
X337168452Y-64438000D01*
X335546000Y-64438000D01*
X335477879Y-64417998D01*
X335431386Y-64364342D01*
X335420000Y-64312000D01*
X335420000Y-64056000D01*
X335440002Y-63987879D01*
X335493658Y-63941386D01*
X335546000Y-63930000D01*
X337163884Y-63930000D01*
X337179123Y-63925525D01*
X337180328Y-63924135D01*
X337181999Y-63916452D01*
X337181999Y-63589331D01*
X337181629Y-63582510D01*
X337176105Y-63531648D01*
X337172479Y-63516396D01*
X337127321Y-63395939D01*
X337126826Y-63395034D01*
X337126607Y-63394034D01*
X337124172Y-63387538D01*
X337125110Y-63387186D01*
X337111657Y-63325677D01*
X337124838Y-63280788D01*
X337124615Y-63280705D01*
X337125756Y-63277663D01*
X337125758Y-63277656D01*
X337133809Y-63256182D01*
X337172971Y-63151715D01*
X337175745Y-63144316D01*
X337182500Y-63082134D01*
X337182500Y-61885866D01*
X337175745Y-61823684D01*
X337135031Y-61715079D01*
X337127766Y-61695699D01*
X337127764Y-61695696D01*
X337124615Y-61687295D01*
X337125466Y-61686976D01*
X337111945Y-61625151D01*
X337124958Y-61580834D01*
X337124615Y-61580705D01*
X337126372Y-61576019D01*
X337126373Y-61576015D01*
X337175745Y-61444316D01*
X337182500Y-61382134D01*
X337182500Y-60185866D01*
X337175745Y-60123684D01*
X337124615Y-59987295D01*
X337037261Y-59870739D01*
X336920705Y-59783385D01*
X336784316Y-59732255D01*
X336722134Y-59725500D01*
X334625866Y-59725500D01*
X334563684Y-59732255D01*
X334427295Y-59783385D01*
X334353566Y-59838642D01*
X334339565Y-59849135D01*
X334273059Y-59873983D01*
X334203676Y-59858930D01*
X334188435Y-59849135D01*
X334174434Y-59838642D01*
X334100705Y-59783385D01*
X333964316Y-59732255D01*
X333902134Y-59725500D01*
X331805866Y-59725500D01*
X331743684Y-59732255D01*
X331607295Y-59783385D01*
X331490739Y-59870739D01*
X331403385Y-59987295D01*
X331352255Y-60123684D01*
X331345500Y-60185866D01*
X331345500Y-61382134D01*
X331352255Y-61444316D01*
X331403385Y-61580705D01*
X331402534Y-61581024D01*
X331416055Y-61642849D01*
X331403042Y-61687166D01*
X331403385Y-61687295D01*
X331400236Y-61695696D01*
X331400234Y-61695699D01*
X331392969Y-61715079D01*
X331352255Y-61823684D01*
X331345500Y-61885866D01*
X331345500Y-63082134D01*
X331352255Y-63144316D01*
X331355029Y-63151715D01*
X331394192Y-63256182D01*
X331402245Y-63277663D01*
X331403385Y-63280705D01*
X331402534Y-63281024D01*
X331416055Y-63342849D01*
X331403042Y-63387166D01*
X331403385Y-63387295D01*
X331400236Y-63395696D01*
X331400234Y-63395699D01*
X331387484Y-63429710D01*
X331352255Y-63523684D01*
X331345500Y-63585866D01*
X331345500Y-64389500D01*
X331325498Y-64457621D01*
X331271842Y-64504114D01*
X331219500Y-64515500D01*
X329673759Y-64515500D01*
X329605638Y-64495498D01*
X329560666Y-64443598D01*
X329556135Y-64439671D01*
X329548452Y-64438000D01*
X327926000Y-64438000D01*
X327857879Y-64417998D01*
X327811386Y-64364342D01*
X327800000Y-64312000D01*
X327800000Y-64056000D01*
X327820002Y-63987879D01*
X327873658Y-63941386D01*
X327926000Y-63930000D01*
X329543884Y-63930000D01*
X329559123Y-63925525D01*
X329560328Y-63924135D01*
X329561999Y-63916452D01*
X329561999Y-63589331D01*
X329561629Y-63582510D01*
X329556105Y-63531648D01*
X329552479Y-63516396D01*
X329507321Y-63395939D01*
X329506826Y-63395034D01*
X329506607Y-63394034D01*
X329504172Y-63387538D01*
X329505110Y-63387186D01*
X329491657Y-63325677D01*
X329504838Y-63280788D01*
X329504615Y-63280705D01*
X329505756Y-63277663D01*
X329505758Y-63277656D01*
X329513809Y-63256182D01*
X329552971Y-63151715D01*
X329555745Y-63144316D01*
X329562500Y-63082134D01*
X329562500Y-61885866D01*
X329555745Y-61823684D01*
X329515031Y-61715079D01*
X329507766Y-61695699D01*
X329507764Y-61695696D01*
X329504615Y-61687295D01*
X329505466Y-61686976D01*
X329491945Y-61625151D01*
X329504958Y-61580834D01*
X329504615Y-61580705D01*
X329506372Y-61576019D01*
X329506373Y-61576015D01*
X329555745Y-61444316D01*
X329562500Y-61382134D01*
X329562500Y-60185866D01*
X329555745Y-60123684D01*
X329504615Y-59987295D01*
X329417261Y-59870739D01*
X329300705Y-59783385D01*
X329164316Y-59732255D01*
X329102134Y-59725500D01*
X327005866Y-59725500D01*
X326943684Y-59732255D01*
X326807295Y-59783385D01*
X326733566Y-59838642D01*
X326719565Y-59849135D01*
X326653059Y-59873983D01*
X326583676Y-59858930D01*
X326568435Y-59849135D01*
X326554434Y-59838642D01*
X326480705Y-59783385D01*
X326344316Y-59732255D01*
X326282134Y-59725500D01*
X324185866Y-59725500D01*
X324123684Y-59732255D01*
X323987295Y-59783385D01*
X323870739Y-59870739D01*
X323783385Y-59987295D01*
X323732255Y-60123684D01*
X323725500Y-60185866D01*
X323725500Y-61382134D01*
X323732255Y-61444316D01*
X323783385Y-61580705D01*
X323782534Y-61581024D01*
X323796055Y-61642849D01*
X323783042Y-61687166D01*
X323783385Y-61687295D01*
X323780236Y-61695696D01*
X323780234Y-61695699D01*
X323772969Y-61715079D01*
X323732255Y-61823684D01*
X323725500Y-61885866D01*
X323725500Y-63082134D01*
X323732255Y-63144316D01*
X323735029Y-63151715D01*
X323774192Y-63256182D01*
X323782245Y-63277663D01*
X323783385Y-63280705D01*
X323782534Y-63281024D01*
X323796055Y-63342849D01*
X323783042Y-63387166D01*
X323783385Y-63387295D01*
X323780236Y-63395696D01*
X323780234Y-63395699D01*
X323767484Y-63429710D01*
X323732255Y-63523684D01*
X323725500Y-63585866D01*
X323725500Y-64389500D01*
X323705498Y-64457621D01*
X323651842Y-64504114D01*
X323599500Y-64515500D01*
X322053759Y-64515500D01*
X321985638Y-64495498D01*
X321940666Y-64443598D01*
X321936135Y-64439671D01*
X321928452Y-64438000D01*
X320306000Y-64438000D01*
X320237879Y-64417998D01*
X320191386Y-64364342D01*
X320180000Y-64312000D01*
X320180000Y-64056000D01*
X320200002Y-63987879D01*
X320253658Y-63941386D01*
X320306000Y-63930000D01*
X321923884Y-63930000D01*
X321939123Y-63925525D01*
X321940328Y-63924135D01*
X321941999Y-63916452D01*
X321941999Y-63589331D01*
X321941629Y-63582510D01*
X321936105Y-63531648D01*
X321932479Y-63516396D01*
X321887321Y-63395939D01*
X321886826Y-63395034D01*
X321886607Y-63394034D01*
X321884172Y-63387538D01*
X321885110Y-63387186D01*
X321871657Y-63325677D01*
X321884838Y-63280788D01*
X321884615Y-63280705D01*
X321885756Y-63277663D01*
X321885758Y-63277656D01*
X321893809Y-63256182D01*
X321932971Y-63151715D01*
X321935745Y-63144316D01*
X321942500Y-63082134D01*
X321942500Y-61885866D01*
X321935745Y-61823684D01*
X321895031Y-61715079D01*
X321887766Y-61695699D01*
X321887764Y-61695696D01*
X321884615Y-61687295D01*
X321885466Y-61686976D01*
X321871945Y-61625151D01*
X321884958Y-61580834D01*
X321884615Y-61580705D01*
X321886372Y-61576019D01*
X321886373Y-61576015D01*
X321935745Y-61444316D01*
X321942500Y-61382134D01*
X321942500Y-60185866D01*
X321935745Y-60123684D01*
X321884615Y-59987295D01*
X321797261Y-59870739D01*
X321680705Y-59783385D01*
X321544316Y-59732255D01*
X321482134Y-59725500D01*
X319385866Y-59725500D01*
X319323684Y-59732255D01*
X319187295Y-59783385D01*
X319113566Y-59838642D01*
X319099565Y-59849135D01*
X319033059Y-59873983D01*
X318963676Y-59858930D01*
X318948435Y-59849135D01*
X318934434Y-59838642D01*
X318860705Y-59783385D01*
X318724316Y-59732255D01*
X318662134Y-59725500D01*
X316565866Y-59725500D01*
X316503684Y-59732255D01*
X316367295Y-59783385D01*
X316250739Y-59870739D01*
X316163385Y-59987295D01*
X316112255Y-60123684D01*
X316105500Y-60185866D01*
X316105500Y-61382134D01*
X316112255Y-61444316D01*
X316163385Y-61580705D01*
X316162534Y-61581024D01*
X316176055Y-61642849D01*
X316163042Y-61687166D01*
X316163385Y-61687295D01*
X316160236Y-61695696D01*
X316160234Y-61695699D01*
X316152969Y-61715079D01*
X316112255Y-61823684D01*
X316105500Y-61885866D01*
X316105500Y-63082134D01*
X316112255Y-63144316D01*
X316115029Y-63151715D01*
X316154192Y-63256182D01*
X316162245Y-63277663D01*
X316163385Y-63280705D01*
X316162534Y-63281024D01*
X316176055Y-63342849D01*
X316163042Y-63387166D01*
X316163385Y-63387295D01*
X316160236Y-63395696D01*
X316160234Y-63395699D01*
X316147484Y-63429710D01*
X316112255Y-63523684D01*
X316105500Y-63585866D01*
X316105500Y-64389500D01*
X316085498Y-64457621D01*
X316031842Y-64504114D01*
X315979500Y-64515500D01*
X314433759Y-64515500D01*
X314365638Y-64495498D01*
X314320666Y-64443598D01*
X314316135Y-64439671D01*
X314308452Y-64438000D01*
X312686000Y-64438000D01*
X312617879Y-64417998D01*
X312571386Y-64364342D01*
X312560000Y-64312000D01*
X312560000Y-64056000D01*
X312580002Y-63987879D01*
X312633658Y-63941386D01*
X312686000Y-63930000D01*
X314303884Y-63930000D01*
X314319123Y-63925525D01*
X314320328Y-63924135D01*
X314321999Y-63916452D01*
X314321999Y-63589331D01*
X314321629Y-63582510D01*
X314316105Y-63531648D01*
X314312479Y-63516396D01*
X314267321Y-63395939D01*
X314266826Y-63395034D01*
X314266607Y-63394034D01*
X314264172Y-63387538D01*
X314265110Y-63387186D01*
X314251657Y-63325677D01*
X314264838Y-63280788D01*
X314264615Y-63280705D01*
X314265756Y-63277663D01*
X314265758Y-63277656D01*
X314273809Y-63256182D01*
X314312971Y-63151715D01*
X314315745Y-63144316D01*
X314322500Y-63082134D01*
X314322500Y-61885866D01*
X314315745Y-61823684D01*
X314275031Y-61715079D01*
X314267766Y-61695699D01*
X314267764Y-61695696D01*
X314264615Y-61687295D01*
X314265466Y-61686976D01*
X314251945Y-61625151D01*
X314264958Y-61580834D01*
X314264615Y-61580705D01*
X314266372Y-61576019D01*
X314266373Y-61576015D01*
X314315745Y-61444316D01*
X314322500Y-61382134D01*
X314322500Y-60185866D01*
X314315745Y-60123684D01*
X314264615Y-59987295D01*
X314177261Y-59870739D01*
X314060705Y-59783385D01*
X313924316Y-59732255D01*
X313862134Y-59725500D01*
X311765866Y-59725500D01*
X311703684Y-59732255D01*
X311567295Y-59783385D01*
X311493566Y-59838642D01*
X311479565Y-59849135D01*
X311413059Y-59873983D01*
X311343676Y-59858930D01*
X311328435Y-59849135D01*
X311314434Y-59838642D01*
X311240705Y-59783385D01*
X311104316Y-59732255D01*
X311042134Y-59725500D01*
X308945866Y-59725500D01*
X308883684Y-59732255D01*
X308747295Y-59783385D01*
X308630739Y-59870739D01*
X308543385Y-59987295D01*
X308492255Y-60123684D01*
X308485500Y-60185866D01*
X308485500Y-61382134D01*
X308492255Y-61444316D01*
X308543385Y-61580705D01*
X308542534Y-61581024D01*
X308556055Y-61642849D01*
X308543042Y-61687166D01*
X308543385Y-61687295D01*
X308540236Y-61695696D01*
X308540234Y-61695699D01*
X308532969Y-61715079D01*
X308492255Y-61823684D01*
X308485500Y-61885866D01*
X308485500Y-63082134D01*
X308492255Y-63144316D01*
X308495029Y-63151715D01*
X308534192Y-63256182D01*
X308542245Y-63277663D01*
X308543385Y-63280705D01*
X308542534Y-63281024D01*
X308556055Y-63342849D01*
X308543042Y-63387166D01*
X308543385Y-63387295D01*
X308540236Y-63395696D01*
X308540234Y-63395699D01*
X308527484Y-63429710D01*
X308492255Y-63523684D01*
X308485500Y-63585866D01*
X308485500Y-64389500D01*
X308465498Y-64457621D01*
X308411842Y-64504114D01*
X308359500Y-64515500D01*
X306813759Y-64515500D01*
X306745638Y-64495498D01*
X306700666Y-64443598D01*
X306696135Y-64439671D01*
X306688452Y-64438000D01*
X305066000Y-64438000D01*
X304997879Y-64417998D01*
X304951386Y-64364342D01*
X304940000Y-64312000D01*
X304940000Y-64056000D01*
X304960002Y-63987879D01*
X305013658Y-63941386D01*
X305066000Y-63930000D01*
X306683884Y-63930000D01*
X306699123Y-63925525D01*
X306700328Y-63924135D01*
X306701999Y-63916452D01*
X306701999Y-63589331D01*
X306701629Y-63582510D01*
X306696105Y-63531648D01*
X306692479Y-63516396D01*
X306647321Y-63395939D01*
X306646826Y-63395034D01*
X306646607Y-63394034D01*
X306644172Y-63387538D01*
X306645110Y-63387186D01*
X306631657Y-63325677D01*
X306644838Y-63280788D01*
X306644615Y-63280705D01*
X306645756Y-63277663D01*
X306645758Y-63277656D01*
X306653809Y-63256182D01*
X306692971Y-63151715D01*
X306695745Y-63144316D01*
X306702500Y-63082134D01*
X306702500Y-61885866D01*
X306695745Y-61823684D01*
X306655031Y-61715079D01*
X306647766Y-61695699D01*
X306647764Y-61695696D01*
X306644615Y-61687295D01*
X306645466Y-61686976D01*
X306631945Y-61625151D01*
X306644958Y-61580834D01*
X306644615Y-61580705D01*
X306646372Y-61576019D01*
X306646373Y-61576015D01*
X306695745Y-61444316D01*
X306702500Y-61382134D01*
X306702500Y-60185866D01*
X306695745Y-60123684D01*
X306644615Y-59987295D01*
X306557261Y-59870739D01*
X306440705Y-59783385D01*
X306304316Y-59732255D01*
X306242134Y-59725500D01*
X304145866Y-59725500D01*
X304083684Y-59732255D01*
X303947295Y-59783385D01*
X303873566Y-59838642D01*
X303859565Y-59849135D01*
X303793059Y-59873983D01*
X303723676Y-59858930D01*
X303708435Y-59849135D01*
X303694434Y-59838642D01*
X303620705Y-59783385D01*
X303484316Y-59732255D01*
X303422134Y-59725500D01*
X301325866Y-59725500D01*
X301263684Y-59732255D01*
X301127295Y-59783385D01*
X301010739Y-59870739D01*
X300923385Y-59987295D01*
X300872255Y-60123684D01*
X300865500Y-60185866D01*
X300865500Y-61382134D01*
X300872255Y-61444316D01*
X300923385Y-61580705D01*
X300922534Y-61581024D01*
X300936055Y-61642849D01*
X300923042Y-61687166D01*
X300923385Y-61687295D01*
X300920236Y-61695696D01*
X300920234Y-61695699D01*
X300912969Y-61715079D01*
X300872255Y-61823684D01*
X300865500Y-61885866D01*
X300865500Y-63082134D01*
X300872255Y-63144316D01*
X300875029Y-63151715D01*
X300914192Y-63256182D01*
X300922245Y-63277663D01*
X300923385Y-63280705D01*
X300922534Y-63281024D01*
X300936055Y-63342849D01*
X300923042Y-63387166D01*
X300923385Y-63387295D01*
X300920236Y-63395696D01*
X300920234Y-63395699D01*
X300907484Y-63429710D01*
X300872255Y-63523684D01*
X300865500Y-63585866D01*
X300865500Y-64389500D01*
X300845498Y-64457621D01*
X300791842Y-64504114D01*
X300739500Y-64515500D01*
X299193759Y-64515500D01*
X299125638Y-64495498D01*
X299080666Y-64443598D01*
X299076135Y-64439671D01*
X299068452Y-64438000D01*
X297446000Y-64438000D01*
X297377879Y-64417998D01*
X297331386Y-64364342D01*
X297320000Y-64312000D01*
X297320000Y-64056000D01*
X297340002Y-63987879D01*
X297393658Y-63941386D01*
X297446000Y-63930000D01*
X299063884Y-63930000D01*
X299079123Y-63925525D01*
X299080328Y-63924135D01*
X299081999Y-63916452D01*
X299081999Y-63589331D01*
X299081629Y-63582510D01*
X299076105Y-63531648D01*
X299072479Y-63516396D01*
X299027321Y-63395939D01*
X299026826Y-63395034D01*
X299026607Y-63394034D01*
X299024172Y-63387538D01*
X299025110Y-63387186D01*
X299011657Y-63325677D01*
X299024838Y-63280788D01*
X299024615Y-63280705D01*
X299025756Y-63277663D01*
X299025758Y-63277656D01*
X299033809Y-63256182D01*
X299072971Y-63151715D01*
X299075745Y-63144316D01*
X299082500Y-63082134D01*
X299082500Y-61885866D01*
X299075745Y-61823684D01*
X299035031Y-61715079D01*
X299027766Y-61695699D01*
X299027764Y-61695696D01*
X299024615Y-61687295D01*
X299025466Y-61686976D01*
X299011945Y-61625151D01*
X299024958Y-61580834D01*
X299024615Y-61580705D01*
X299026372Y-61576019D01*
X299026373Y-61576015D01*
X299075745Y-61444316D01*
X299082500Y-61382134D01*
X299082500Y-60185866D01*
X299075745Y-60123684D01*
X299024615Y-59987295D01*
X298937261Y-59870739D01*
X298820705Y-59783385D01*
X298684316Y-59732255D01*
X298622134Y-59725500D01*
X296525866Y-59725500D01*
X296463684Y-59732255D01*
X296327295Y-59783385D01*
X296253566Y-59838642D01*
X296239565Y-59849135D01*
X296173059Y-59873983D01*
X296103676Y-59858930D01*
X296088435Y-59849135D01*
X296074434Y-59838642D01*
X296000705Y-59783385D01*
X295864316Y-59732255D01*
X295802134Y-59725500D01*
X293705866Y-59725500D01*
X293643684Y-59732255D01*
X293507295Y-59783385D01*
X293390739Y-59870739D01*
X293303385Y-59987295D01*
X293252255Y-60123684D01*
X293245500Y-60185866D01*
X293245500Y-61382134D01*
X293252255Y-61444316D01*
X293303385Y-61580705D01*
X293302534Y-61581024D01*
X293316055Y-61642849D01*
X293303042Y-61687166D01*
X293303385Y-61687295D01*
X293300236Y-61695696D01*
X293300234Y-61695699D01*
X293292969Y-61715079D01*
X293252255Y-61823684D01*
X293245500Y-61885866D01*
X293245500Y-63082134D01*
X293252255Y-63144316D01*
X293255029Y-63151715D01*
X293294192Y-63256182D01*
X293302245Y-63277663D01*
X293303385Y-63280705D01*
X293302534Y-63281024D01*
X293316055Y-63342849D01*
X293303042Y-63387166D01*
X293303385Y-63387295D01*
X293300236Y-63395696D01*
X293300234Y-63395699D01*
X293287484Y-63429710D01*
X293252255Y-63523684D01*
X293245500Y-63585866D01*
X293245500Y-64389500D01*
X293225498Y-64457621D01*
X293171842Y-64504114D01*
X293119500Y-64515500D01*
X291573759Y-64515500D01*
X291505638Y-64495498D01*
X291460666Y-64443598D01*
X291456135Y-64439671D01*
X291448452Y-64438000D01*
X289826000Y-64438000D01*
X289757879Y-64417998D01*
X289711386Y-64364342D01*
X289700000Y-64312000D01*
X289700000Y-64056000D01*
X289720002Y-63987879D01*
X289773658Y-63941386D01*
X289826000Y-63930000D01*
X291443884Y-63930000D01*
X291459123Y-63925525D01*
X291460328Y-63924135D01*
X291461999Y-63916452D01*
X291461999Y-63589331D01*
X291461629Y-63582510D01*
X291456105Y-63531648D01*
X291452479Y-63516396D01*
X291407321Y-63395939D01*
X291406826Y-63395034D01*
X291406607Y-63394034D01*
X291404172Y-63387538D01*
X291405110Y-63387186D01*
X291391657Y-63325677D01*
X291404838Y-63280788D01*
X291404615Y-63280705D01*
X291405756Y-63277663D01*
X291405758Y-63277656D01*
X291413809Y-63256182D01*
X291452971Y-63151715D01*
X291455745Y-63144316D01*
X291462500Y-63082134D01*
X291462500Y-61885866D01*
X291455745Y-61823684D01*
X291415031Y-61715079D01*
X291407766Y-61695699D01*
X291407764Y-61695696D01*
X291404615Y-61687295D01*
X291405466Y-61686976D01*
X291391945Y-61625151D01*
X291404958Y-61580834D01*
X291404615Y-61580705D01*
X291406372Y-61576019D01*
X291406373Y-61576015D01*
X291455745Y-61444316D01*
X291462500Y-61382134D01*
X291462500Y-60185866D01*
X291455745Y-60123684D01*
X291404615Y-59987295D01*
X291317261Y-59870739D01*
X291200705Y-59783385D01*
X291064316Y-59732255D01*
X291002134Y-59725500D01*
X288905866Y-59725500D01*
X288843684Y-59732255D01*
X288707295Y-59783385D01*
X288633566Y-59838642D01*
X288619565Y-59849135D01*
X288553059Y-59873983D01*
X288483676Y-59858930D01*
X288468435Y-59849135D01*
X288454434Y-59838642D01*
X288380705Y-59783385D01*
X288244316Y-59732255D01*
X288182134Y-59725500D01*
X286085866Y-59725500D01*
X286023684Y-59732255D01*
X285887295Y-59783385D01*
X285770739Y-59870739D01*
X285683385Y-59987295D01*
X285632255Y-60123684D01*
X285625500Y-60185866D01*
X285625500Y-61382134D01*
X285632255Y-61444316D01*
X285683385Y-61580705D01*
X285682534Y-61581024D01*
X285696055Y-61642849D01*
X285683042Y-61687166D01*
X285683385Y-61687295D01*
X285680236Y-61695696D01*
X285680234Y-61695699D01*
X285672969Y-61715079D01*
X285632255Y-61823684D01*
X285625500Y-61885866D01*
X285625500Y-63082134D01*
X285632255Y-63144316D01*
X285635029Y-63151715D01*
X285674192Y-63256182D01*
X285682245Y-63277663D01*
X285683385Y-63280705D01*
X285682534Y-63281024D01*
X285696055Y-63342849D01*
X285683042Y-63387166D01*
X285683385Y-63387295D01*
X285680236Y-63395696D01*
X285680234Y-63395699D01*
X285667484Y-63429710D01*
X285632255Y-63523684D01*
X285625500Y-63585866D01*
X285625500Y-64389500D01*
X285605498Y-64457621D01*
X285551842Y-64504114D01*
X285499500Y-64515500D01*
X283953759Y-64515500D01*
X283885638Y-64495498D01*
X283840666Y-64443598D01*
X283836135Y-64439671D01*
X283828452Y-64438000D01*
X282206000Y-64438000D01*
X282137879Y-64417998D01*
X282091386Y-64364342D01*
X282080000Y-64312000D01*
X282080000Y-64056000D01*
X282100002Y-63987879D01*
X282153658Y-63941386D01*
X282206000Y-63930000D01*
X283823884Y-63930000D01*
X283839123Y-63925525D01*
X283840328Y-63924135D01*
X283841999Y-63916452D01*
X283841999Y-63589331D01*
X283841629Y-63582510D01*
X283836105Y-63531648D01*
X283832479Y-63516396D01*
X283787321Y-63395939D01*
X283786826Y-63395034D01*
X283786607Y-63394034D01*
X283784172Y-63387538D01*
X283785110Y-63387186D01*
X283771657Y-63325677D01*
X283784838Y-63280788D01*
X283784615Y-63280705D01*
X283785756Y-63277663D01*
X283785758Y-63277656D01*
X283793809Y-63256182D01*
X283832971Y-63151715D01*
X283835745Y-63144316D01*
X283842500Y-63082134D01*
X283842500Y-61885866D01*
X283835745Y-61823684D01*
X283795031Y-61715079D01*
X283787766Y-61695699D01*
X283787764Y-61695696D01*
X283784615Y-61687295D01*
X283785466Y-61686976D01*
X283771945Y-61625151D01*
X283784958Y-61580834D01*
X283784615Y-61580705D01*
X283786372Y-61576019D01*
X283786373Y-61576015D01*
X283835745Y-61444316D01*
X283842500Y-61382134D01*
X283842500Y-60185866D01*
X283835745Y-60123684D01*
X283784615Y-59987295D01*
X283697261Y-59870739D01*
X283580705Y-59783385D01*
X283444316Y-59732255D01*
X283382134Y-59725500D01*
X281285866Y-59725500D01*
X281223684Y-59732255D01*
X281087295Y-59783385D01*
X281013566Y-59838642D01*
X280999565Y-59849135D01*
X280933059Y-59873983D01*
X280863676Y-59858930D01*
X280848435Y-59849135D01*
X280834434Y-59838642D01*
X280760705Y-59783385D01*
X280624316Y-59732255D01*
X280562134Y-59725500D01*
X278465866Y-59725500D01*
X278403684Y-59732255D01*
X278267295Y-59783385D01*
X278150739Y-59870739D01*
X278063385Y-59987295D01*
X278012255Y-60123684D01*
X278005500Y-60185866D01*
X278005500Y-61382134D01*
X278012255Y-61444316D01*
X278063385Y-61580705D01*
X278062534Y-61581024D01*
X278076055Y-61642849D01*
X278063042Y-61687166D01*
X278063385Y-61687295D01*
X278060236Y-61695696D01*
X278060234Y-61695699D01*
X278052969Y-61715079D01*
X278012255Y-61823684D01*
X278005500Y-61885866D01*
X278005500Y-63082134D01*
X278012255Y-63144316D01*
X278015029Y-63151715D01*
X278054192Y-63256182D01*
X278062245Y-63277663D01*
X278063385Y-63280705D01*
X278062534Y-63281024D01*
X278076055Y-63342849D01*
X278063042Y-63387166D01*
X278063385Y-63387295D01*
X278060236Y-63395696D01*
X278060234Y-63395699D01*
X278047484Y-63429710D01*
X278012255Y-63523684D01*
X278005500Y-63585866D01*
X278005500Y-64389500D01*
X277985498Y-64457621D01*
X277931842Y-64504114D01*
X277879500Y-64515500D01*
X276333759Y-64515500D01*
X276265638Y-64495498D01*
X276220666Y-64443598D01*
X276216135Y-64439671D01*
X276208452Y-64438000D01*
X274586000Y-64438000D01*
X274517879Y-64417998D01*
X274471386Y-64364342D01*
X274460000Y-64312000D01*
X274460000Y-64056000D01*
X274480002Y-63987879D01*
X274533658Y-63941386D01*
X274586000Y-63930000D01*
X276203884Y-63930000D01*
X276219123Y-63925525D01*
X276220328Y-63924135D01*
X276221999Y-63916452D01*
X276221999Y-63589331D01*
X276221629Y-63582510D01*
X276216105Y-63531648D01*
X276212479Y-63516396D01*
X276167321Y-63395939D01*
X276166826Y-63395034D01*
X276166607Y-63394034D01*
X276164172Y-63387538D01*
X276165110Y-63387186D01*
X276151657Y-63325677D01*
X276164838Y-63280788D01*
X276164615Y-63280705D01*
X276165756Y-63277663D01*
X276165758Y-63277656D01*
X276173809Y-63256182D01*
X276212971Y-63151715D01*
X276215745Y-63144316D01*
X276222500Y-63082134D01*
X276222500Y-61885866D01*
X276215745Y-61823684D01*
X276175031Y-61715079D01*
X276167766Y-61695699D01*
X276167764Y-61695696D01*
X276164615Y-61687295D01*
X276165466Y-61686976D01*
X276151945Y-61625151D01*
X276164958Y-61580834D01*
X276164615Y-61580705D01*
X276166372Y-61576019D01*
X276166373Y-61576015D01*
X276215745Y-61444316D01*
X276222500Y-61382134D01*
X276222500Y-60185866D01*
X276215745Y-60123684D01*
X276164615Y-59987295D01*
X276077261Y-59870739D01*
X275960705Y-59783385D01*
X275824316Y-59732255D01*
X275762134Y-59725500D01*
X273665866Y-59725500D01*
X273603684Y-59732255D01*
X273467295Y-59783385D01*
X273393566Y-59838642D01*
X273379565Y-59849135D01*
X273313059Y-59873983D01*
X273243676Y-59858930D01*
X273228435Y-59849135D01*
X273214434Y-59838642D01*
X273140705Y-59783385D01*
X273004316Y-59732255D01*
X272942134Y-59725500D01*
X270845866Y-59725500D01*
X270783684Y-59732255D01*
X270647295Y-59783385D01*
X270530739Y-59870739D01*
X270443385Y-59987295D01*
X270392255Y-60123684D01*
X270385500Y-60185866D01*
X270385500Y-61382134D01*
X270392255Y-61444316D01*
X270443385Y-61580705D01*
X270442534Y-61581024D01*
X270456055Y-61642849D01*
X270443042Y-61687166D01*
X270443385Y-61687295D01*
X270440236Y-61695696D01*
X270440234Y-61695699D01*
X270432969Y-61715079D01*
X270392255Y-61823684D01*
X270385500Y-61885866D01*
X270385500Y-63082134D01*
X270392255Y-63144316D01*
X270395029Y-63151715D01*
X270434192Y-63256182D01*
X270442245Y-63277663D01*
X270443385Y-63280705D01*
X270442534Y-63281024D01*
X270456055Y-63342849D01*
X270443042Y-63387166D01*
X270443385Y-63387295D01*
X270440236Y-63395696D01*
X270440234Y-63395699D01*
X270427484Y-63429710D01*
X270392255Y-63523684D01*
X270385500Y-63585866D01*
X270385500Y-64389500D01*
X270365498Y-64457621D01*
X270311842Y-64504114D01*
X270259500Y-64515500D01*
X268713759Y-64515500D01*
X268645638Y-64495498D01*
X268600666Y-64443598D01*
X268596135Y-64439671D01*
X268588452Y-64438000D01*
X266966000Y-64438000D01*
X266897879Y-64417998D01*
X266851386Y-64364342D01*
X266840000Y-64312000D01*
X266840000Y-64056000D01*
X266860002Y-63987879D01*
X266913658Y-63941386D01*
X266966000Y-63930000D01*
X268583884Y-63930000D01*
X268599123Y-63925525D01*
X268600328Y-63924135D01*
X268601999Y-63916452D01*
X268601999Y-63589331D01*
X268601629Y-63582510D01*
X268596105Y-63531648D01*
X268592479Y-63516396D01*
X268547321Y-63395939D01*
X268546826Y-63395034D01*
X268546607Y-63394034D01*
X268544172Y-63387538D01*
X268545110Y-63387186D01*
X268531657Y-63325677D01*
X268544838Y-63280788D01*
X268544615Y-63280705D01*
X268545756Y-63277663D01*
X268545758Y-63277656D01*
X268553809Y-63256182D01*
X268592971Y-63151715D01*
X268595745Y-63144316D01*
X268602500Y-63082134D01*
X268602500Y-61885866D01*
X268595745Y-61823684D01*
X268555031Y-61715079D01*
X268547766Y-61695699D01*
X268547764Y-61695696D01*
X268544615Y-61687295D01*
X268545466Y-61686976D01*
X268531945Y-61625151D01*
X268544958Y-61580834D01*
X268544615Y-61580705D01*
X268546372Y-61576019D01*
X268546373Y-61576015D01*
X268595745Y-61444316D01*
X268602500Y-61382134D01*
X268602500Y-60185866D01*
X268595745Y-60123684D01*
X268544615Y-59987295D01*
X268457261Y-59870739D01*
X268340705Y-59783385D01*
X268204316Y-59732255D01*
X268142134Y-59725500D01*
X266045866Y-59725500D01*
X265983684Y-59732255D01*
X265847295Y-59783385D01*
X265773566Y-59838642D01*
X265759565Y-59849135D01*
X265693059Y-59873983D01*
X265623676Y-59858930D01*
X265608435Y-59849135D01*
X265594434Y-59838642D01*
X265520705Y-59783385D01*
X265384316Y-59732255D01*
X265322134Y-59725500D01*
X263225866Y-59725500D01*
X263163684Y-59732255D01*
X263027295Y-59783385D01*
X262910739Y-59870739D01*
X262823385Y-59987295D01*
X262772255Y-60123684D01*
X262765500Y-60185866D01*
X262765500Y-61382134D01*
X262772255Y-61444316D01*
X262823385Y-61580705D01*
X262822534Y-61581024D01*
X262836055Y-61642849D01*
X262823042Y-61687166D01*
X262823385Y-61687295D01*
X262820236Y-61695696D01*
X262820234Y-61695699D01*
X262812969Y-61715079D01*
X262772255Y-61823684D01*
X262765500Y-61885866D01*
X262765500Y-63082134D01*
X262772255Y-63144316D01*
X262775029Y-63151715D01*
X262814192Y-63256182D01*
X262822245Y-63277663D01*
X262823385Y-63280705D01*
X262822534Y-63281024D01*
X262836055Y-63342849D01*
X262823042Y-63387166D01*
X262823385Y-63387295D01*
X262820236Y-63395696D01*
X262820234Y-63395699D01*
X262807484Y-63429710D01*
X262772255Y-63523684D01*
X262765500Y-63585866D01*
X262765500Y-64389500D01*
X262745498Y-64457621D01*
X262691842Y-64504114D01*
X262639500Y-64515500D01*
X261093759Y-64515500D01*
X261025638Y-64495498D01*
X260980666Y-64443598D01*
X260976135Y-64439671D01*
X260968452Y-64438000D01*
X259346000Y-64438000D01*
X259277879Y-64417998D01*
X259231386Y-64364342D01*
X259220000Y-64312000D01*
X259220000Y-64056000D01*
X259240002Y-63987879D01*
X259293658Y-63941386D01*
X259346000Y-63930000D01*
X260963884Y-63930000D01*
X260979123Y-63925525D01*
X260980328Y-63924135D01*
X260981999Y-63916452D01*
X260981999Y-63589331D01*
X260981629Y-63582510D01*
X260976105Y-63531648D01*
X260972479Y-63516396D01*
X260927321Y-63395939D01*
X260926826Y-63395034D01*
X260926607Y-63394034D01*
X260924172Y-63387538D01*
X260925110Y-63387186D01*
X260911657Y-63325677D01*
X260924838Y-63280788D01*
X260924615Y-63280705D01*
X260925756Y-63277663D01*
X260925758Y-63277656D01*
X260933809Y-63256182D01*
X260972971Y-63151715D01*
X260975745Y-63144316D01*
X260982500Y-63082134D01*
X260982500Y-61885866D01*
X260975745Y-61823684D01*
X260935031Y-61715079D01*
X260927766Y-61695699D01*
X260927764Y-61695696D01*
X260924615Y-61687295D01*
X260925466Y-61686976D01*
X260911945Y-61625151D01*
X260924958Y-61580834D01*
X260924615Y-61580705D01*
X260926372Y-61576019D01*
X260926373Y-61576015D01*
X260975745Y-61444316D01*
X260982500Y-61382134D01*
X260982500Y-60185866D01*
X260975745Y-60123684D01*
X260924615Y-59987295D01*
X260837261Y-59870739D01*
X260720705Y-59783385D01*
X260584316Y-59732255D01*
X260522134Y-59725500D01*
X258425866Y-59725500D01*
X258363684Y-59732255D01*
X258227295Y-59783385D01*
X258153566Y-59838642D01*
X258139565Y-59849135D01*
X258073059Y-59873983D01*
X258003676Y-59858930D01*
X257988435Y-59849135D01*
X257974434Y-59838642D01*
X257900705Y-59783385D01*
X257764316Y-59732255D01*
X257702134Y-59725500D01*
X255605866Y-59725500D01*
X255543684Y-59732255D01*
X255407295Y-59783385D01*
X255290739Y-59870739D01*
X255203385Y-59987295D01*
X255152255Y-60123684D01*
X255145500Y-60185866D01*
X255145500Y-61382134D01*
X255152255Y-61444316D01*
X255203385Y-61580705D01*
X255202534Y-61581024D01*
X255216055Y-61642849D01*
X255203042Y-61687166D01*
X255203385Y-61687295D01*
X255200236Y-61695696D01*
X255200234Y-61695699D01*
X255192969Y-61715079D01*
X255152255Y-61823684D01*
X255145500Y-61885866D01*
X255145500Y-63082134D01*
X255152255Y-63144316D01*
X255155029Y-63151715D01*
X255194192Y-63256182D01*
X255202245Y-63277663D01*
X255203385Y-63280705D01*
X255202534Y-63281024D01*
X255216055Y-63342849D01*
X255203042Y-63387166D01*
X255203385Y-63387295D01*
X255200236Y-63395696D01*
X255200234Y-63395699D01*
X255187484Y-63429710D01*
X255152255Y-63523684D01*
X255145500Y-63585866D01*
X255145500Y-64389500D01*
X255125498Y-64457621D01*
X255071842Y-64504114D01*
X255019500Y-64515500D01*
X253473759Y-64515500D01*
X253405638Y-64495498D01*
X253360666Y-64443598D01*
X253356135Y-64439671D01*
X253348452Y-64438000D01*
X251726000Y-64438000D01*
X251657879Y-64417998D01*
X251611386Y-64364342D01*
X251600000Y-64312000D01*
X251600000Y-64056000D01*
X251620002Y-63987879D01*
X251673658Y-63941386D01*
X251726000Y-63930000D01*
X253343884Y-63930000D01*
X253359123Y-63925525D01*
X253360328Y-63924135D01*
X253361999Y-63916452D01*
X253361999Y-63589331D01*
X253361629Y-63582510D01*
X253356105Y-63531648D01*
X253352479Y-63516396D01*
X253307321Y-63395939D01*
X253306826Y-63395034D01*
X253306607Y-63394034D01*
X253304172Y-63387538D01*
X253305110Y-63387186D01*
X253291657Y-63325677D01*
X253304838Y-63280788D01*
X253304615Y-63280705D01*
X253305756Y-63277663D01*
X253305758Y-63277656D01*
X253313809Y-63256182D01*
X253352971Y-63151715D01*
X253355745Y-63144316D01*
X253362500Y-63082134D01*
X253362500Y-61885866D01*
X253355745Y-61823684D01*
X253315031Y-61715079D01*
X253307766Y-61695699D01*
X253307764Y-61695696D01*
X253304615Y-61687295D01*
X253305466Y-61686976D01*
X253291945Y-61625151D01*
X253304958Y-61580834D01*
X253304615Y-61580705D01*
X253306372Y-61576019D01*
X253306373Y-61576015D01*
X253355745Y-61444316D01*
X253362500Y-61382134D01*
X253362500Y-60185866D01*
X253355745Y-60123684D01*
X253304615Y-59987295D01*
X253217261Y-59870739D01*
X253100705Y-59783385D01*
X252964316Y-59732255D01*
X252902134Y-59725500D01*
X250805866Y-59725500D01*
X250743684Y-59732255D01*
X250607295Y-59783385D01*
X250533566Y-59838642D01*
X250519565Y-59849135D01*
X250453059Y-59873983D01*
X250383676Y-59858930D01*
X250368435Y-59849135D01*
X250354434Y-59838642D01*
X250280705Y-59783385D01*
X250144316Y-59732255D01*
X250082134Y-59725500D01*
X247985866Y-59725500D01*
X247923684Y-59732255D01*
X247787295Y-59783385D01*
X247670739Y-59870739D01*
X247583385Y-59987295D01*
X247532255Y-60123684D01*
X247525500Y-60185866D01*
X247525500Y-61382134D01*
X247532255Y-61444316D01*
X247583385Y-61580705D01*
X247582534Y-61581024D01*
X247596055Y-61642849D01*
X247583042Y-61687166D01*
X247583385Y-61687295D01*
X247580236Y-61695696D01*
X247580234Y-61695699D01*
X247572969Y-61715079D01*
X247532255Y-61823684D01*
X247525500Y-61885866D01*
X247525500Y-63082134D01*
X247532255Y-63144316D01*
X247535029Y-63151715D01*
X247574192Y-63256182D01*
X247582245Y-63277663D01*
X247583385Y-63280705D01*
X247582534Y-63281024D01*
X247596055Y-63342849D01*
X247583042Y-63387166D01*
X247583385Y-63387295D01*
X247580236Y-63395696D01*
X247580234Y-63395699D01*
X247567484Y-63429710D01*
X247532255Y-63523684D01*
X247525500Y-63585866D01*
X247525500Y-64389500D01*
X247505498Y-64457621D01*
X247451842Y-64504114D01*
X247399500Y-64515500D01*
X245853759Y-64515500D01*
X245785638Y-64495498D01*
X245740666Y-64443598D01*
X245736135Y-64439671D01*
X245728452Y-64438000D01*
X244106000Y-64438000D01*
X244037879Y-64417998D01*
X243991386Y-64364342D01*
X243980000Y-64312000D01*
X243980000Y-64056000D01*
X244000002Y-63987879D01*
X244053658Y-63941386D01*
X244106000Y-63930000D01*
X245723884Y-63930000D01*
X245739123Y-63925525D01*
X245740328Y-63924135D01*
X245741999Y-63916452D01*
X245741999Y-63589331D01*
X245741629Y-63582510D01*
X245736105Y-63531648D01*
X245732479Y-63516396D01*
X245687321Y-63395939D01*
X245686826Y-63395034D01*
X245686607Y-63394034D01*
X245684172Y-63387538D01*
X245685110Y-63387186D01*
X245671657Y-63325677D01*
X245684838Y-63280788D01*
X245684615Y-63280705D01*
X245685756Y-63277663D01*
X245685758Y-63277656D01*
X245693809Y-63256182D01*
X245732971Y-63151715D01*
X245735745Y-63144316D01*
X245742500Y-63082134D01*
X245742500Y-61885866D01*
X245735745Y-61823684D01*
X245695031Y-61715079D01*
X245687766Y-61695699D01*
X245687764Y-61695696D01*
X245684615Y-61687295D01*
X245685466Y-61686976D01*
X245671945Y-61625151D01*
X245684958Y-61580834D01*
X245684615Y-61580705D01*
X245686372Y-61576019D01*
X245686373Y-61576015D01*
X245735745Y-61444316D01*
X245742500Y-61382134D01*
X245742500Y-60185866D01*
X245735745Y-60123684D01*
X245684615Y-59987295D01*
X245597261Y-59870739D01*
X245480705Y-59783385D01*
X245344316Y-59732255D01*
X245282134Y-59725500D01*
X243185866Y-59725500D01*
X243123684Y-59732255D01*
X242987295Y-59783385D01*
X242913566Y-59838642D01*
X242899565Y-59849135D01*
X242833059Y-59873983D01*
X242763676Y-59858930D01*
X242748435Y-59849135D01*
X242734434Y-59838642D01*
X242660705Y-59783385D01*
X242524316Y-59732255D01*
X242462134Y-59725500D01*
X240365866Y-59725500D01*
X240303684Y-59732255D01*
X240167295Y-59783385D01*
X240050739Y-59870739D01*
X239963385Y-59987295D01*
X239912255Y-60123684D01*
X239905500Y-60185866D01*
X239905500Y-61382134D01*
X239912255Y-61444316D01*
X239963385Y-61580705D01*
X239962534Y-61581024D01*
X239976055Y-61642849D01*
X239963042Y-61687166D01*
X239963385Y-61687295D01*
X239960236Y-61695696D01*
X239960234Y-61695699D01*
X239952969Y-61715079D01*
X239912255Y-61823684D01*
X239905500Y-61885866D01*
X239905500Y-63082134D01*
X239912255Y-63144316D01*
X239915029Y-63151715D01*
X239954192Y-63256182D01*
X239962245Y-63277663D01*
X239963385Y-63280705D01*
X239962534Y-63281024D01*
X239976055Y-63342849D01*
X239963042Y-63387166D01*
X239963385Y-63387295D01*
X239960236Y-63395696D01*
X239960234Y-63395699D01*
X239947484Y-63429710D01*
X239912255Y-63523684D01*
X239905500Y-63585866D01*
X239905500Y-64389500D01*
X239885498Y-64457621D01*
X239831842Y-64504114D01*
X239779500Y-64515500D01*
X238233759Y-64515500D01*
X238165638Y-64495498D01*
X238120666Y-64443598D01*
X238116135Y-64439671D01*
X238108452Y-64438000D01*
X236486000Y-64438000D01*
X236417879Y-64417998D01*
X236371386Y-64364342D01*
X236360000Y-64312000D01*
X236360000Y-64056000D01*
X236380002Y-63987879D01*
X236433658Y-63941386D01*
X236486000Y-63930000D01*
X238103884Y-63930000D01*
X238119123Y-63925525D01*
X238120328Y-63924135D01*
X238121999Y-63916452D01*
X238121999Y-63589331D01*
X238121629Y-63582510D01*
X238116105Y-63531648D01*
X238112479Y-63516396D01*
X238067321Y-63395939D01*
X238066826Y-63395034D01*
X238066607Y-63394034D01*
X238064172Y-63387538D01*
X238065110Y-63387186D01*
X238051657Y-63325677D01*
X238064838Y-63280788D01*
X238064615Y-63280705D01*
X238065756Y-63277663D01*
X238065758Y-63277656D01*
X238073809Y-63256182D01*
X238112971Y-63151715D01*
X238115745Y-63144316D01*
X238122500Y-63082134D01*
X238122500Y-61885866D01*
X238115745Y-61823684D01*
X238075031Y-61715079D01*
X238067766Y-61695699D01*
X238067764Y-61695696D01*
X238064615Y-61687295D01*
X238065466Y-61686976D01*
X238051945Y-61625151D01*
X238064958Y-61580834D01*
X238064615Y-61580705D01*
X238066372Y-61576019D01*
X238066373Y-61576015D01*
X238115745Y-61444316D01*
X238122500Y-61382134D01*
X238122500Y-60185866D01*
X238115745Y-60123684D01*
X238064615Y-59987295D01*
X237977261Y-59870739D01*
X237860705Y-59783385D01*
X237724316Y-59732255D01*
X237662134Y-59725500D01*
X235565866Y-59725500D01*
X235503684Y-59732255D01*
X235367295Y-59783385D01*
X235293566Y-59838642D01*
X235279565Y-59849135D01*
X235213059Y-59873983D01*
X235143676Y-59858930D01*
X235128435Y-59849135D01*
X235114434Y-59838642D01*
X235040705Y-59783385D01*
X234904316Y-59732255D01*
X234842134Y-59725500D01*
X232745866Y-59725500D01*
X232683684Y-59732255D01*
X232547295Y-59783385D01*
X232430739Y-59870739D01*
X232343385Y-59987295D01*
X232292255Y-60123684D01*
X232285500Y-60185866D01*
X232285500Y-61382134D01*
X232292255Y-61444316D01*
X232343385Y-61580705D01*
X232342534Y-61581024D01*
X232356055Y-61642849D01*
X232343042Y-61687166D01*
X232343385Y-61687295D01*
X232340236Y-61695696D01*
X232340234Y-61695699D01*
X232332969Y-61715079D01*
X232292255Y-61823684D01*
X232285500Y-61885866D01*
X232285500Y-63082134D01*
X232292255Y-63144316D01*
X232295029Y-63151715D01*
X232334192Y-63256182D01*
X232342245Y-63277663D01*
X232343385Y-63280705D01*
X232342534Y-63281024D01*
X232356055Y-63342849D01*
X232343042Y-63387166D01*
X232343385Y-63387295D01*
X232340236Y-63395696D01*
X232340234Y-63395699D01*
X232327484Y-63429710D01*
X232292255Y-63523684D01*
X232285500Y-63585866D01*
X232285500Y-64389500D01*
X232265498Y-64457621D01*
X232211842Y-64504114D01*
X232159500Y-64515500D01*
X230613759Y-64515500D01*
X230545638Y-64495498D01*
X230500666Y-64443598D01*
X230496135Y-64439671D01*
X230488452Y-64438000D01*
X228866000Y-64438000D01*
X228797879Y-64417998D01*
X228751386Y-64364342D01*
X228740000Y-64312000D01*
X228740000Y-64056000D01*
X228760002Y-63987879D01*
X228813658Y-63941386D01*
X228866000Y-63930000D01*
X230483884Y-63930000D01*
X230499123Y-63925525D01*
X230500328Y-63924135D01*
X230501999Y-63916452D01*
X230501999Y-63589331D01*
X230501629Y-63582510D01*
X230496105Y-63531648D01*
X230492479Y-63516396D01*
X230447321Y-63395939D01*
X230446826Y-63395034D01*
X230446607Y-63394034D01*
X230444172Y-63387538D01*
X230445110Y-63387186D01*
X230431657Y-63325677D01*
X230444838Y-63280788D01*
X230444615Y-63280705D01*
X230445756Y-63277663D01*
X230445758Y-63277656D01*
X230453809Y-63256182D01*
X230492971Y-63151715D01*
X230495745Y-63144316D01*
X230502500Y-63082134D01*
X230502500Y-61885866D01*
X230495745Y-61823684D01*
X230455031Y-61715079D01*
X230447766Y-61695699D01*
X230447764Y-61695696D01*
X230444615Y-61687295D01*
X230445466Y-61686976D01*
X230431945Y-61625151D01*
X230444958Y-61580834D01*
X230444615Y-61580705D01*
X230446372Y-61576019D01*
X230446373Y-61576015D01*
X230495745Y-61444316D01*
X230502500Y-61382134D01*
X230502500Y-60185866D01*
X230495745Y-60123684D01*
X230444615Y-59987295D01*
X230357261Y-59870739D01*
X230240705Y-59783385D01*
X230104316Y-59732255D01*
X230042134Y-59725500D01*
X227945866Y-59725500D01*
X227883684Y-59732255D01*
X227747295Y-59783385D01*
X227673566Y-59838642D01*
X227659565Y-59849135D01*
X227593059Y-59873983D01*
X227523676Y-59858930D01*
X227508435Y-59849135D01*
X227494434Y-59838642D01*
X227420705Y-59783385D01*
X227284316Y-59732255D01*
X227222134Y-59725500D01*
X225125866Y-59725500D01*
X225063684Y-59732255D01*
X224927295Y-59783385D01*
X224810739Y-59870739D01*
X224723385Y-59987295D01*
X224672255Y-60123684D01*
X224665500Y-60185866D01*
X224665500Y-61382134D01*
X224672255Y-61444316D01*
X224723385Y-61580705D01*
X224722534Y-61581024D01*
X224736055Y-61642849D01*
X224723042Y-61687166D01*
X224723385Y-61687295D01*
X224720236Y-61695696D01*
X224720234Y-61695699D01*
X224712969Y-61715079D01*
X224672255Y-61823684D01*
X224665500Y-61885866D01*
X224665500Y-63082134D01*
X224672255Y-63144316D01*
X224675029Y-63151715D01*
X224714192Y-63256182D01*
X224722245Y-63277663D01*
X224723385Y-63280705D01*
X224722534Y-63281024D01*
X224736055Y-63342849D01*
X224723042Y-63387166D01*
X224723385Y-63387295D01*
X224720236Y-63395696D01*
X224720234Y-63395699D01*
X224707484Y-63429710D01*
X224672255Y-63523684D01*
X224665500Y-63585866D01*
X224665500Y-64389500D01*
X224645498Y-64457621D01*
X224591842Y-64504114D01*
X224539500Y-64515500D01*
X222993759Y-64515500D01*
X222925638Y-64495498D01*
X222880666Y-64443598D01*
X222876135Y-64439671D01*
X222868452Y-64438000D01*
X221246000Y-64438000D01*
X221177879Y-64417998D01*
X221131386Y-64364342D01*
X221120000Y-64312000D01*
X221120000Y-64056000D01*
X221140002Y-63987879D01*
X221193658Y-63941386D01*
X221246000Y-63930000D01*
X222863884Y-63930000D01*
X222879123Y-63925525D01*
X222880328Y-63924135D01*
X222881999Y-63916452D01*
X222881999Y-63589331D01*
X222881629Y-63582510D01*
X222876105Y-63531648D01*
X222872479Y-63516396D01*
X222827321Y-63395939D01*
X222826826Y-63395034D01*
X222826607Y-63394034D01*
X222824172Y-63387538D01*
X222825110Y-63387186D01*
X222811657Y-63325677D01*
X222824838Y-63280788D01*
X222824615Y-63280705D01*
X222825756Y-63277663D01*
X222825758Y-63277656D01*
X222833809Y-63256182D01*
X222872971Y-63151715D01*
X222875745Y-63144316D01*
X222882500Y-63082134D01*
X222882500Y-61885866D01*
X222875745Y-61823684D01*
X222835031Y-61715079D01*
X222827766Y-61695699D01*
X222827764Y-61695696D01*
X222824615Y-61687295D01*
X222825466Y-61686976D01*
X222811945Y-61625151D01*
X222824958Y-61580834D01*
X222824615Y-61580705D01*
X222826372Y-61576019D01*
X222826373Y-61576015D01*
X222875745Y-61444316D01*
X222882500Y-61382134D01*
X222882500Y-60185866D01*
X222875745Y-60123684D01*
X222824615Y-59987295D01*
X222737261Y-59870739D01*
X222620705Y-59783385D01*
X222484316Y-59732255D01*
X222422134Y-59725500D01*
X220325866Y-59725500D01*
X220263684Y-59732255D01*
X220127295Y-59783385D01*
X220053566Y-59838642D01*
X220039565Y-59849135D01*
X219973059Y-59873983D01*
X219903676Y-59858930D01*
X219888435Y-59849135D01*
X219874434Y-59838642D01*
X219800705Y-59783385D01*
X219664316Y-59732255D01*
X219602134Y-59725500D01*
X217505866Y-59725500D01*
X217443684Y-59732255D01*
X217307295Y-59783385D01*
X217190739Y-59870739D01*
X217103385Y-59987295D01*
X217052255Y-60123684D01*
X217045500Y-60185866D01*
X217045500Y-61382134D01*
X217052255Y-61444316D01*
X217103385Y-61580705D01*
X217102534Y-61581024D01*
X217116055Y-61642849D01*
X217103042Y-61687166D01*
X217103385Y-61687295D01*
X217100236Y-61695696D01*
X217100234Y-61695699D01*
X217092969Y-61715079D01*
X217052255Y-61823684D01*
X217045500Y-61885866D01*
X217045500Y-63082134D01*
X217052255Y-63144316D01*
X217055029Y-63151715D01*
X217094192Y-63256182D01*
X217102245Y-63277663D01*
X217103385Y-63280705D01*
X217102534Y-63281024D01*
X217116055Y-63342849D01*
X217103042Y-63387166D01*
X217103385Y-63387295D01*
X217100236Y-63395696D01*
X217100234Y-63395699D01*
X217087484Y-63429710D01*
X217052255Y-63523684D01*
X217045500Y-63585866D01*
X217045500Y-64389500D01*
X217025498Y-64457621D01*
X216971842Y-64504114D01*
X216919500Y-64515500D01*
X215373759Y-64515500D01*
X215305638Y-64495498D01*
X215260666Y-64443598D01*
X215256135Y-64439671D01*
X215248452Y-64438000D01*
X213626000Y-64438000D01*
X213557879Y-64417998D01*
X213511386Y-64364342D01*
X213500000Y-64312000D01*
X213500000Y-64056000D01*
X213520002Y-63987879D01*
X213573658Y-63941386D01*
X213626000Y-63930000D01*
X215243884Y-63930000D01*
X215259123Y-63925525D01*
X215260328Y-63924135D01*
X215261999Y-63916452D01*
X215261999Y-63589331D01*
X215261629Y-63582510D01*
X215256105Y-63531648D01*
X215252479Y-63516396D01*
X215207321Y-63395939D01*
X215206826Y-63395034D01*
X215206607Y-63394034D01*
X215204172Y-63387538D01*
X215205110Y-63387186D01*
X215191657Y-63325677D01*
X215204838Y-63280788D01*
X215204615Y-63280705D01*
X215205756Y-63277663D01*
X215205758Y-63277656D01*
X215213809Y-63256182D01*
X215252971Y-63151715D01*
X215255745Y-63144316D01*
X215262500Y-63082134D01*
X215262500Y-61885866D01*
X215255745Y-61823684D01*
X215215031Y-61715079D01*
X215207766Y-61695699D01*
X215207764Y-61695696D01*
X215204615Y-61687295D01*
X215205466Y-61686976D01*
X215191945Y-61625151D01*
X215204958Y-61580834D01*
X215204615Y-61580705D01*
X215206372Y-61576019D01*
X215206373Y-61576015D01*
X215255745Y-61444316D01*
X215262500Y-61382134D01*
X215262500Y-60185866D01*
X215255745Y-60123684D01*
X215204615Y-59987295D01*
X215117261Y-59870739D01*
X215000705Y-59783385D01*
X214864316Y-59732255D01*
X214802134Y-59725500D01*
X212705866Y-59725500D01*
X212643684Y-59732255D01*
X212507295Y-59783385D01*
X212433566Y-59838642D01*
X212419565Y-59849135D01*
X212353059Y-59873983D01*
X212283676Y-59858930D01*
X212268435Y-59849135D01*
X212254434Y-59838642D01*
X212180705Y-59783385D01*
X212044316Y-59732255D01*
X211982134Y-59725500D01*
X209885866Y-59725500D01*
X209823684Y-59732255D01*
X209687295Y-59783385D01*
X209570739Y-59870739D01*
X209483385Y-59987295D01*
X209432255Y-60123684D01*
X209425500Y-60185866D01*
X209425500Y-61382134D01*
X209432255Y-61444316D01*
X209483385Y-61580705D01*
X209482534Y-61581024D01*
X209496055Y-61642849D01*
X209483042Y-61687166D01*
X209483385Y-61687295D01*
X209480236Y-61695696D01*
X209480234Y-61695699D01*
X209472969Y-61715079D01*
X209432255Y-61823684D01*
X209425500Y-61885866D01*
X209425500Y-63082134D01*
X209432255Y-63144316D01*
X209435029Y-63151715D01*
X209474192Y-63256182D01*
X209482245Y-63277663D01*
X209483385Y-63280705D01*
X209482534Y-63281024D01*
X209496055Y-63342849D01*
X209483042Y-63387166D01*
X209483385Y-63387295D01*
X209480236Y-63395696D01*
X209480234Y-63395699D01*
X209467484Y-63429710D01*
X209432255Y-63523684D01*
X209425500Y-63585866D01*
X209425500Y-64389500D01*
X209405498Y-64457621D01*
X209351842Y-64504114D01*
X209299500Y-64515500D01*
X207753759Y-64515500D01*
X207685638Y-64495498D01*
X207640666Y-64443598D01*
X207636135Y-64439671D01*
X207628452Y-64438000D01*
X206006000Y-64438000D01*
X205937879Y-64417998D01*
X205891386Y-64364342D01*
X205880000Y-64312000D01*
X205880000Y-64056000D01*
X205900002Y-63987879D01*
X205953658Y-63941386D01*
X206006000Y-63930000D01*
X207623884Y-63930000D01*
X207639123Y-63925525D01*
X207640328Y-63924135D01*
X207641999Y-63916452D01*
X207641999Y-63589331D01*
X207641629Y-63582510D01*
X207636105Y-63531648D01*
X207632479Y-63516396D01*
X207587321Y-63395939D01*
X207586826Y-63395034D01*
X207586607Y-63394034D01*
X207584172Y-63387538D01*
X207585110Y-63387186D01*
X207571657Y-63325677D01*
X207584838Y-63280788D01*
X207584615Y-63280705D01*
X207585756Y-63277663D01*
X207585758Y-63277656D01*
X207593809Y-63256182D01*
X207632971Y-63151715D01*
X207635745Y-63144316D01*
X207642500Y-63082134D01*
X207642500Y-61885866D01*
X207635745Y-61823684D01*
X207595031Y-61715079D01*
X207587766Y-61695699D01*
X207587764Y-61695696D01*
X207584615Y-61687295D01*
X207585466Y-61686976D01*
X207571945Y-61625151D01*
X207584958Y-61580834D01*
X207584615Y-61580705D01*
X207586372Y-61576019D01*
X207586373Y-61576015D01*
X207635745Y-61444316D01*
X207642500Y-61382134D01*
X207642500Y-60185866D01*
X207635745Y-60123684D01*
X207584615Y-59987295D01*
X207497261Y-59870739D01*
X207380705Y-59783385D01*
X207244316Y-59732255D01*
X207182134Y-59725500D01*
X205085866Y-59725500D01*
X205023684Y-59732255D01*
X204887295Y-59783385D01*
X204813566Y-59838642D01*
X204799565Y-59849135D01*
X204733059Y-59873983D01*
X204663676Y-59858930D01*
X204648435Y-59849135D01*
X204634434Y-59838642D01*
X204560705Y-59783385D01*
X204424316Y-59732255D01*
X204362134Y-59725500D01*
X202265866Y-59725500D01*
X202203684Y-59732255D01*
X202067295Y-59783385D01*
X201950739Y-59870739D01*
X201863385Y-59987295D01*
X201812255Y-60123684D01*
X201805500Y-60185866D01*
X201805500Y-61382134D01*
X201812255Y-61444316D01*
X201863385Y-61580705D01*
X201862534Y-61581024D01*
X201876055Y-61642849D01*
X201863042Y-61687166D01*
X201863385Y-61687295D01*
X201860236Y-61695696D01*
X201860234Y-61695699D01*
X201852969Y-61715079D01*
X201812255Y-61823684D01*
X201805500Y-61885866D01*
X201805500Y-63082134D01*
X201812255Y-63144316D01*
X201815029Y-63151715D01*
X201854192Y-63256182D01*
X201862245Y-63277663D01*
X201863385Y-63280705D01*
X201862534Y-63281024D01*
X201876055Y-63342849D01*
X201863042Y-63387166D01*
X201863385Y-63387295D01*
X201860236Y-63395696D01*
X201860234Y-63395699D01*
X201847484Y-63429710D01*
X201812255Y-63523684D01*
X201805500Y-63585866D01*
X201805500Y-64389500D01*
X201785498Y-64457621D01*
X201731842Y-64504114D01*
X201679500Y-64515500D01*
X200133759Y-64515500D01*
X200065638Y-64495498D01*
X200020666Y-64443598D01*
X200016135Y-64439671D01*
X200008452Y-64438000D01*
X198386000Y-64438000D01*
X198317879Y-64417998D01*
X198271386Y-64364342D01*
X198260000Y-64312000D01*
X198260000Y-64056000D01*
X198280002Y-63987879D01*
X198333658Y-63941386D01*
X198386000Y-63930000D01*
X200003884Y-63930000D01*
X200019123Y-63925525D01*
X200020328Y-63924135D01*
X200021999Y-63916452D01*
X200021999Y-63589331D01*
X200021629Y-63582510D01*
X200016105Y-63531648D01*
X200012479Y-63516396D01*
X199967321Y-63395939D01*
X199966826Y-63395034D01*
X199966607Y-63394034D01*
X199964172Y-63387538D01*
X199965110Y-63387186D01*
X199951657Y-63325677D01*
X199964838Y-63280788D01*
X199964615Y-63280705D01*
X199965756Y-63277663D01*
X199965758Y-63277656D01*
X199973809Y-63256182D01*
X200012971Y-63151715D01*
X200015745Y-63144316D01*
X200022500Y-63082134D01*
X200022500Y-61885866D01*
X200015745Y-61823684D01*
X199975031Y-61715079D01*
X199967766Y-61695699D01*
X199967764Y-61695696D01*
X199964615Y-61687295D01*
X199965466Y-61686976D01*
X199951945Y-61625151D01*
X199964958Y-61580834D01*
X199964615Y-61580705D01*
X199966372Y-61576019D01*
X199966373Y-61576015D01*
X200015745Y-61444316D01*
X200022500Y-61382134D01*
X200022500Y-60185866D01*
X200015745Y-60123684D01*
X199964615Y-59987295D01*
X199877261Y-59870739D01*
X199760705Y-59783385D01*
X199624316Y-59732255D01*
X199562134Y-59725500D01*
X197465866Y-59725500D01*
X197403684Y-59732255D01*
X197267295Y-59783385D01*
X197193566Y-59838642D01*
X197179565Y-59849135D01*
X197113059Y-59873983D01*
X197043676Y-59858930D01*
X197028435Y-59849135D01*
X197014434Y-59838642D01*
X196940705Y-59783385D01*
X196804316Y-59732255D01*
X196742134Y-59725500D01*
X194645866Y-59725500D01*
X194583684Y-59732255D01*
X194447295Y-59783385D01*
X194330739Y-59870739D01*
X194243385Y-59987295D01*
X194192255Y-60123684D01*
X194185500Y-60185866D01*
X194185500Y-61382134D01*
X194192255Y-61444316D01*
X194243385Y-61580705D01*
X194242534Y-61581024D01*
X194256055Y-61642849D01*
X194243042Y-61687166D01*
X194243385Y-61687295D01*
X194240236Y-61695696D01*
X194240234Y-61695699D01*
X194232969Y-61715079D01*
X194192255Y-61823684D01*
X194185500Y-61885866D01*
X194185500Y-63082134D01*
X194192255Y-63144316D01*
X194195029Y-63151715D01*
X194234192Y-63256182D01*
X194242245Y-63277663D01*
X194243385Y-63280705D01*
X194242534Y-63281024D01*
X194256055Y-63342849D01*
X194243042Y-63387166D01*
X194243385Y-63387295D01*
X194240236Y-63395696D01*
X194240234Y-63395699D01*
X194227484Y-63429710D01*
X194192255Y-63523684D01*
X194185500Y-63585866D01*
X194185500Y-64389500D01*
X194165498Y-64457621D01*
X194111842Y-64504114D01*
X194059500Y-64515500D01*
X192513759Y-64515500D01*
X192445638Y-64495498D01*
X192400666Y-64443598D01*
X192396135Y-64439671D01*
X192388452Y-64438000D01*
X190766000Y-64438000D01*
X190697879Y-64417998D01*
X190651386Y-64364342D01*
X190640000Y-64312000D01*
X190640000Y-64056000D01*
X190660002Y-63987879D01*
X190713658Y-63941386D01*
X190766000Y-63930000D01*
X192383884Y-63930000D01*
X192399123Y-63925525D01*
X192400328Y-63924135D01*
X192401999Y-63916452D01*
X192401999Y-63589331D01*
X192401629Y-63582510D01*
X192396105Y-63531648D01*
X192392479Y-63516396D01*
X192347321Y-63395939D01*
X192346826Y-63395034D01*
X192346607Y-63394034D01*
X192344172Y-63387538D01*
X192345110Y-63387186D01*
X192331657Y-63325677D01*
X192344838Y-63280788D01*
X192344615Y-63280705D01*
X192345756Y-63277663D01*
X192345758Y-63277656D01*
X192353809Y-63256182D01*
X192392971Y-63151715D01*
X192395745Y-63144316D01*
X192402500Y-63082134D01*
X192402500Y-61885866D01*
X192395745Y-61823684D01*
X192355031Y-61715079D01*
X192347766Y-61695699D01*
X192347764Y-61695696D01*
X192344615Y-61687295D01*
X192345466Y-61686976D01*
X192331945Y-61625151D01*
X192344958Y-61580834D01*
X192344615Y-61580705D01*
X192346372Y-61576019D01*
X192346373Y-61576015D01*
X192395745Y-61444316D01*
X192402500Y-61382134D01*
X192402500Y-60185866D01*
X192395745Y-60123684D01*
X192344615Y-59987295D01*
X192257261Y-59870739D01*
X192140705Y-59783385D01*
X192004316Y-59732255D01*
X191942134Y-59725500D01*
X189845866Y-59725500D01*
X189783684Y-59732255D01*
X189647295Y-59783385D01*
X189573566Y-59838642D01*
X189559565Y-59849135D01*
X189493059Y-59873983D01*
X189423676Y-59858930D01*
X189408435Y-59849135D01*
X189394434Y-59838642D01*
X189320705Y-59783385D01*
X189184316Y-59732255D01*
X189122134Y-59725500D01*
X187025866Y-59725500D01*
X186963684Y-59732255D01*
X186827295Y-59783385D01*
X186710739Y-59870739D01*
X186623385Y-59987295D01*
X186572255Y-60123684D01*
X186565500Y-60185866D01*
X186565500Y-61382134D01*
X186572255Y-61444316D01*
X186623385Y-61580705D01*
X186622534Y-61581024D01*
X186636055Y-61642849D01*
X186623042Y-61687166D01*
X186623385Y-61687295D01*
X186620236Y-61695696D01*
X186620234Y-61695699D01*
X186612969Y-61715079D01*
X186572255Y-61823684D01*
X186565500Y-61885866D01*
X186565500Y-63082134D01*
X186572255Y-63144316D01*
X186575029Y-63151715D01*
X186614192Y-63256182D01*
X186622245Y-63277663D01*
X186623385Y-63280705D01*
X186622534Y-63281024D01*
X186636055Y-63342849D01*
X186623042Y-63387166D01*
X186623385Y-63387295D01*
X186620236Y-63395696D01*
X186620234Y-63395699D01*
X186607484Y-63429710D01*
X186572255Y-63523684D01*
X186565500Y-63585866D01*
X186565500Y-64389500D01*
X186545498Y-64457621D01*
X186491842Y-64504114D01*
X186439500Y-64515500D01*
X184893759Y-64515500D01*
X184825638Y-64495498D01*
X184780666Y-64443598D01*
X184776135Y-64439671D01*
X184768452Y-64438000D01*
X183146000Y-64438000D01*
X183077879Y-64417998D01*
X183031386Y-64364342D01*
X183020000Y-64312000D01*
X183020000Y-64056000D01*
X183040002Y-63987879D01*
X183093658Y-63941386D01*
X183146000Y-63930000D01*
X184763884Y-63930000D01*
X184779123Y-63925525D01*
X184780328Y-63924135D01*
X184781999Y-63916452D01*
X184781999Y-63589331D01*
X184781629Y-63582510D01*
X184776105Y-63531648D01*
X184772479Y-63516396D01*
X184727321Y-63395939D01*
X184726826Y-63395034D01*
X184726607Y-63394034D01*
X184724172Y-63387538D01*
X184725110Y-63387186D01*
X184711657Y-63325677D01*
X184724838Y-63280788D01*
X184724615Y-63280705D01*
X184725756Y-63277663D01*
X184725758Y-63277656D01*
X184733809Y-63256182D01*
X184772971Y-63151715D01*
X184775745Y-63144316D01*
X184782500Y-63082134D01*
X184782500Y-61885866D01*
X184775745Y-61823684D01*
X184735031Y-61715079D01*
X184727766Y-61695699D01*
X184727764Y-61695696D01*
X184724615Y-61687295D01*
X184725466Y-61686976D01*
X184711945Y-61625151D01*
X184724958Y-61580834D01*
X184724615Y-61580705D01*
X184726372Y-61576019D01*
X184726373Y-61576015D01*
X184775745Y-61444316D01*
X184782500Y-61382134D01*
X184782500Y-60185866D01*
X184775745Y-60123684D01*
X184724615Y-59987295D01*
X184637261Y-59870739D01*
X184520705Y-59783385D01*
X184384316Y-59732255D01*
X184322134Y-59725500D01*
X182225866Y-59725500D01*
X182163684Y-59732255D01*
X182027295Y-59783385D01*
X181953566Y-59838642D01*
X181939565Y-59849135D01*
X181873059Y-59873983D01*
X181803676Y-59858930D01*
X181788435Y-59849135D01*
X181774434Y-59838642D01*
X181700705Y-59783385D01*
X181564316Y-59732255D01*
X181502134Y-59725500D01*
X179405866Y-59725500D01*
X179343684Y-59732255D01*
X179207295Y-59783385D01*
X179090739Y-59870739D01*
X179003385Y-59987295D01*
X178952255Y-60123684D01*
X178945500Y-60185866D01*
X178945500Y-61382134D01*
X178952255Y-61444316D01*
X179003385Y-61580705D01*
X179002534Y-61581024D01*
X179016055Y-61642849D01*
X179003042Y-61687166D01*
X179003385Y-61687295D01*
X179000236Y-61695696D01*
X179000234Y-61695699D01*
X178992969Y-61715079D01*
X178952255Y-61823684D01*
X178945500Y-61885866D01*
X178945500Y-63082134D01*
X178952255Y-63144316D01*
X178955029Y-63151715D01*
X178994192Y-63256182D01*
X179002245Y-63277663D01*
X179003385Y-63280705D01*
X179002534Y-63281024D01*
X179016055Y-63342849D01*
X179003042Y-63387166D01*
X179003385Y-63387295D01*
X179000236Y-63395696D01*
X179000234Y-63395699D01*
X178987484Y-63429710D01*
X178952255Y-63523684D01*
X178945500Y-63585866D01*
X178945500Y-64389500D01*
X178925498Y-64457621D01*
X178871842Y-64504114D01*
X178819500Y-64515500D01*
X177273759Y-64515500D01*
X177205638Y-64495498D01*
X177160666Y-64443598D01*
X177156135Y-64439671D01*
X177148452Y-64438000D01*
X175526000Y-64438000D01*
X175457879Y-64417998D01*
X175411386Y-64364342D01*
X175400000Y-64312000D01*
X175400000Y-64056000D01*
X175420002Y-63987879D01*
X175473658Y-63941386D01*
X175526000Y-63930000D01*
X177143884Y-63930000D01*
X177159123Y-63925525D01*
X177160328Y-63924135D01*
X177161999Y-63916452D01*
X177161999Y-63589331D01*
X177161629Y-63582510D01*
X177156105Y-63531648D01*
X177152479Y-63516396D01*
X177107321Y-63395939D01*
X177106826Y-63395034D01*
X177106607Y-63394034D01*
X177104172Y-63387538D01*
X177105110Y-63387186D01*
X177091657Y-63325677D01*
X177104838Y-63280788D01*
X177104615Y-63280705D01*
X177105756Y-63277663D01*
X177105758Y-63277656D01*
X177113809Y-63256182D01*
X177152971Y-63151715D01*
X177155745Y-63144316D01*
X177162500Y-63082134D01*
X177162500Y-61885866D01*
X177155745Y-61823684D01*
X177115031Y-61715079D01*
X177107766Y-61695699D01*
X177107764Y-61695696D01*
X177104615Y-61687295D01*
X177105466Y-61686976D01*
X177091945Y-61625151D01*
X177104958Y-61580834D01*
X177104615Y-61580705D01*
X177106372Y-61576019D01*
X177106373Y-61576015D01*
X177155745Y-61444316D01*
X177162500Y-61382134D01*
X177162500Y-60185866D01*
X177155745Y-60123684D01*
X177104615Y-59987295D01*
X177017261Y-59870739D01*
X176900705Y-59783385D01*
X176764316Y-59732255D01*
X176702134Y-59725500D01*
X174605866Y-59725500D01*
X174543684Y-59732255D01*
X174407295Y-59783385D01*
X174333566Y-59838642D01*
X174319565Y-59849135D01*
X174253059Y-59873983D01*
X174183676Y-59858930D01*
X174168435Y-59849135D01*
X174154434Y-59838642D01*
X174080705Y-59783385D01*
X173944316Y-59732255D01*
X173882134Y-59725500D01*
X171785866Y-59725500D01*
X171723684Y-59732255D01*
X171587295Y-59783385D01*
X171470739Y-59870739D01*
X171383385Y-59987295D01*
X171332255Y-60123684D01*
X171325500Y-60185866D01*
X171325500Y-61382134D01*
X171332255Y-61444316D01*
X171383385Y-61580705D01*
X171382534Y-61581024D01*
X171396055Y-61642849D01*
X171383042Y-61687166D01*
X171383385Y-61687295D01*
X171380236Y-61695696D01*
X171380234Y-61695699D01*
X171372969Y-61715079D01*
X171332255Y-61823684D01*
X171325500Y-61885866D01*
X171325500Y-63082134D01*
X171332255Y-63144316D01*
X171335029Y-63151715D01*
X171374192Y-63256182D01*
X171382245Y-63277663D01*
X171383385Y-63280705D01*
X171382534Y-63281024D01*
X171396055Y-63342849D01*
X171383042Y-63387166D01*
X171383385Y-63387295D01*
X171380236Y-63395696D01*
X171380234Y-63395699D01*
X171367484Y-63429710D01*
X171332255Y-63523684D01*
X171325500Y-63585866D01*
X171325500Y-64389500D01*
X171305498Y-64457621D01*
X171251842Y-64504114D01*
X171199500Y-64515500D01*
X169653759Y-64515500D01*
X169585638Y-64495498D01*
X169540666Y-64443598D01*
X169536135Y-64439671D01*
X169528452Y-64438000D01*
X167906000Y-64438000D01*
X167837879Y-64417998D01*
X167791386Y-64364342D01*
X167780000Y-64312000D01*
X167780000Y-64056000D01*
X167800002Y-63987879D01*
X167853658Y-63941386D01*
X167906000Y-63930000D01*
X169523884Y-63930000D01*
X169539123Y-63925525D01*
X169540328Y-63924135D01*
X169541999Y-63916452D01*
X169541999Y-63589331D01*
X169541629Y-63582510D01*
X169536105Y-63531648D01*
X169532479Y-63516396D01*
X169487321Y-63395939D01*
X169486826Y-63395034D01*
X169486607Y-63394034D01*
X169484172Y-63387538D01*
X169485110Y-63387186D01*
X169471657Y-63325677D01*
X169484838Y-63280788D01*
X169484615Y-63280705D01*
X169485756Y-63277663D01*
X169485758Y-63277656D01*
X169493809Y-63256182D01*
X169532971Y-63151715D01*
X169535745Y-63144316D01*
X169542500Y-63082134D01*
X169542500Y-61885866D01*
X169535745Y-61823684D01*
X169495031Y-61715079D01*
X169487766Y-61695699D01*
X169487764Y-61695696D01*
X169484615Y-61687295D01*
X169485466Y-61686976D01*
X169471945Y-61625151D01*
X169484958Y-61580834D01*
X169484615Y-61580705D01*
X169486372Y-61576019D01*
X169486373Y-61576015D01*
X169535745Y-61444316D01*
X169542500Y-61382134D01*
X169542500Y-60185866D01*
X169535745Y-60123684D01*
X169484615Y-59987295D01*
X169397261Y-59870739D01*
X169280705Y-59783385D01*
X169144316Y-59732255D01*
X169082134Y-59725500D01*
X166985866Y-59725500D01*
X166923684Y-59732255D01*
X166787295Y-59783385D01*
X166713566Y-59838642D01*
X166699565Y-59849135D01*
X166633059Y-59873983D01*
X166563676Y-59858930D01*
X166548435Y-59849135D01*
X166534434Y-59838642D01*
X166460705Y-59783385D01*
X166324316Y-59732255D01*
X166262134Y-59725500D01*
X164165866Y-59725500D01*
X164103684Y-59732255D01*
X163967295Y-59783385D01*
X163850739Y-59870739D01*
X163763385Y-59987295D01*
X163712255Y-60123684D01*
X163705500Y-60185866D01*
X163705500Y-61382134D01*
X163712255Y-61444316D01*
X163763385Y-61580705D01*
X163762534Y-61581024D01*
X163776055Y-61642849D01*
X163763042Y-61687166D01*
X163763385Y-61687295D01*
X163760236Y-61695696D01*
X163760234Y-61695699D01*
X163752969Y-61715079D01*
X163712255Y-61823684D01*
X163705500Y-61885866D01*
X163705500Y-63082134D01*
X163712255Y-63144316D01*
X163715029Y-63151715D01*
X163754192Y-63256182D01*
X163762245Y-63277663D01*
X163763385Y-63280705D01*
X163762534Y-63281024D01*
X163776055Y-63342849D01*
X163763042Y-63387166D01*
X163763385Y-63387295D01*
X163760236Y-63395696D01*
X163760234Y-63395699D01*
X163747484Y-63429710D01*
X163712255Y-63523684D01*
X163705500Y-63585866D01*
X163705500Y-64389500D01*
X163685498Y-64457621D01*
X163631842Y-64504114D01*
X163579500Y-64515500D01*
X162033759Y-64515500D01*
X161965638Y-64495498D01*
X161920666Y-64443598D01*
X161916135Y-64439671D01*
X161908452Y-64438000D01*
X160286000Y-64438000D01*
X160217879Y-64417998D01*
X160171386Y-64364342D01*
X160160000Y-64312000D01*
X160160000Y-64056000D01*
X160180002Y-63987879D01*
X160233658Y-63941386D01*
X160286000Y-63930000D01*
X161903884Y-63930000D01*
X161919123Y-63925525D01*
X161920328Y-63924135D01*
X161921999Y-63916452D01*
X161921999Y-63589331D01*
X161921629Y-63582510D01*
X161916105Y-63531648D01*
X161912479Y-63516396D01*
X161867321Y-63395939D01*
X161866826Y-63395034D01*
X161866607Y-63394034D01*
X161864172Y-63387538D01*
X161865110Y-63387186D01*
X161851657Y-63325677D01*
X161864838Y-63280788D01*
X161864615Y-63280705D01*
X161865756Y-63277663D01*
X161865758Y-63277656D01*
X161873809Y-63256182D01*
X161912971Y-63151715D01*
X161915745Y-63144316D01*
X161922500Y-63082134D01*
X161922500Y-61885866D01*
X161915745Y-61823684D01*
X161875031Y-61715079D01*
X161867766Y-61695699D01*
X161867764Y-61695696D01*
X161864615Y-61687295D01*
X161865466Y-61686976D01*
X161851945Y-61625151D01*
X161864958Y-61580834D01*
X161864615Y-61580705D01*
X161866372Y-61576019D01*
X161866373Y-61576015D01*
X161915745Y-61444316D01*
X161922500Y-61382134D01*
X161922500Y-60185866D01*
X161915745Y-60123684D01*
X161864615Y-59987295D01*
X161777261Y-59870739D01*
X161660705Y-59783385D01*
X161524316Y-59732255D01*
X161462134Y-59725500D01*
X159365866Y-59725500D01*
X159303684Y-59732255D01*
X159167295Y-59783385D01*
X159093566Y-59838642D01*
X159079565Y-59849135D01*
X159013059Y-59873983D01*
X158943676Y-59858930D01*
X158928435Y-59849135D01*
X158914434Y-59838642D01*
X158840705Y-59783385D01*
X158704316Y-59732255D01*
X158642134Y-59725500D01*
X156545866Y-59725500D01*
X156483684Y-59732255D01*
X156347295Y-59783385D01*
X156230739Y-59870739D01*
X156143385Y-59987295D01*
X156092255Y-60123684D01*
X156085500Y-60185866D01*
X156085500Y-61382134D01*
X156092255Y-61444316D01*
X156143385Y-61580705D01*
X156142534Y-61581024D01*
X156156055Y-61642849D01*
X156143042Y-61687166D01*
X156143385Y-61687295D01*
X156140236Y-61695696D01*
X156140234Y-61695699D01*
X156132969Y-61715079D01*
X156092255Y-61823684D01*
X156085500Y-61885866D01*
X156085500Y-63082134D01*
X156092255Y-63144316D01*
X156095029Y-63151715D01*
X156134192Y-63256182D01*
X156142245Y-63277663D01*
X156143385Y-63280705D01*
X156142534Y-63281024D01*
X156156055Y-63342849D01*
X156143042Y-63387166D01*
X156143385Y-63387295D01*
X156140236Y-63395696D01*
X156140234Y-63395699D01*
X156127484Y-63429710D01*
X156092255Y-63523684D01*
X156085500Y-63585866D01*
X156085500Y-64389500D01*
X156065498Y-64457621D01*
X156011842Y-64504114D01*
X155959500Y-64515500D01*
X154413759Y-64515500D01*
X154345638Y-64495498D01*
X154300666Y-64443598D01*
X154296135Y-64439671D01*
X154288452Y-64438000D01*
X152666000Y-64438000D01*
X152597879Y-64417998D01*
X152551386Y-64364342D01*
X152540000Y-64312000D01*
X152540000Y-64056000D01*
X152560002Y-63987879D01*
X152613658Y-63941386D01*
X152666000Y-63930000D01*
X154283884Y-63930000D01*
X154299123Y-63925525D01*
X154300328Y-63924135D01*
X154301999Y-63916452D01*
X154301999Y-63589331D01*
X154301629Y-63582510D01*
X154296105Y-63531648D01*
X154292479Y-63516396D01*
X154247321Y-63395939D01*
X154246826Y-63395034D01*
X154246607Y-63394034D01*
X154244172Y-63387538D01*
X154245110Y-63387186D01*
X154231657Y-63325677D01*
X154244838Y-63280788D01*
X154244615Y-63280705D01*
X154245756Y-63277663D01*
X154245758Y-63277656D01*
X154253809Y-63256182D01*
X154292971Y-63151715D01*
X154295745Y-63144316D01*
X154302500Y-63082134D01*
X154302500Y-61885866D01*
X154295745Y-61823684D01*
X154255031Y-61715079D01*
X154247766Y-61695699D01*
X154247764Y-61695696D01*
X154244615Y-61687295D01*
X154245466Y-61686976D01*
X154231945Y-61625151D01*
X154244958Y-61580834D01*
X154244615Y-61580705D01*
X154246372Y-61576019D01*
X154246373Y-61576015D01*
X154295745Y-61444316D01*
X154302500Y-61382134D01*
X154302500Y-60185866D01*
X154295745Y-60123684D01*
X154244615Y-59987295D01*
X154157261Y-59870739D01*
X154040705Y-59783385D01*
X153904316Y-59732255D01*
X153842134Y-59725500D01*
X151745866Y-59725500D01*
X151683684Y-59732255D01*
X151547295Y-59783385D01*
X151473566Y-59838642D01*
X151459565Y-59849135D01*
X151393059Y-59873983D01*
X151323676Y-59858930D01*
X151308435Y-59849135D01*
X151294434Y-59838642D01*
X151220705Y-59783385D01*
X151084316Y-59732255D01*
X151022134Y-59725500D01*
X148925866Y-59725500D01*
X148863684Y-59732255D01*
X148727295Y-59783385D01*
X148610739Y-59870739D01*
X148523385Y-59987295D01*
X148472255Y-60123684D01*
X148465500Y-60185866D01*
X148465500Y-61382134D01*
X148472255Y-61444316D01*
X148523385Y-61580705D01*
X148522534Y-61581024D01*
X148536055Y-61642849D01*
X148523042Y-61687166D01*
X148523385Y-61687295D01*
X148520236Y-61695696D01*
X148520234Y-61695699D01*
X148512969Y-61715079D01*
X148472255Y-61823684D01*
X148465500Y-61885866D01*
X148465500Y-63082134D01*
X148472255Y-63144316D01*
X148475029Y-63151715D01*
X148514192Y-63256182D01*
X148522245Y-63277663D01*
X148523385Y-63280705D01*
X148522534Y-63281024D01*
X148536055Y-63342849D01*
X148523042Y-63387166D01*
X148523385Y-63387295D01*
X148520236Y-63395696D01*
X148520234Y-63395699D01*
X148507484Y-63429710D01*
X148472255Y-63523684D01*
X148465500Y-63585866D01*
X148465500Y-64389500D01*
X148445498Y-64457621D01*
X148391842Y-64504114D01*
X148339500Y-64515500D01*
X146793759Y-64515500D01*
X146725638Y-64495498D01*
X146680666Y-64443598D01*
X146676135Y-64439671D01*
X146668452Y-64438000D01*
X145046000Y-64438000D01*
X144977879Y-64417998D01*
X144931386Y-64364342D01*
X144920000Y-64312000D01*
X144920000Y-64056000D01*
X144940002Y-63987879D01*
X144993658Y-63941386D01*
X145046000Y-63930000D01*
X146663884Y-63930000D01*
X146679123Y-63925525D01*
X146680328Y-63924135D01*
X146681999Y-63916452D01*
X146681999Y-63589331D01*
X146681629Y-63582510D01*
X146676105Y-63531648D01*
X146672479Y-63516396D01*
X146627321Y-63395939D01*
X146626826Y-63395034D01*
X146626607Y-63394034D01*
X146624172Y-63387538D01*
X146625110Y-63387186D01*
X146611657Y-63325677D01*
X146624838Y-63280788D01*
X146624615Y-63280705D01*
X146625756Y-63277663D01*
X146625758Y-63277656D01*
X146633809Y-63256182D01*
X146672971Y-63151715D01*
X146675745Y-63144316D01*
X146682500Y-63082134D01*
X146682500Y-61885866D01*
X146675745Y-61823684D01*
X146635031Y-61715079D01*
X146627766Y-61695699D01*
X146627764Y-61695696D01*
X146624615Y-61687295D01*
X146625466Y-61686976D01*
X146611945Y-61625151D01*
X146624958Y-61580834D01*
X146624615Y-61580705D01*
X146626372Y-61576019D01*
X146626373Y-61576015D01*
X146675745Y-61444316D01*
X146682500Y-61382134D01*
X146682500Y-60185866D01*
X146675745Y-60123684D01*
X146624615Y-59987295D01*
X146537261Y-59870739D01*
X146420705Y-59783385D01*
X146284316Y-59732255D01*
X146222134Y-59725500D01*
X144125866Y-59725500D01*
X144063684Y-59732255D01*
X143927295Y-59783385D01*
X143853566Y-59838642D01*
X143839565Y-59849135D01*
X143773059Y-59873983D01*
X143703676Y-59858930D01*
X143688435Y-59849135D01*
X143674434Y-59838642D01*
X143600705Y-59783385D01*
X143464316Y-59732255D01*
X143402134Y-59725500D01*
X141305866Y-59725500D01*
X141243684Y-59732255D01*
X141107295Y-59783385D01*
X140990739Y-59870739D01*
X140903385Y-59987295D01*
X140852255Y-60123684D01*
X140845500Y-60185866D01*
X140845500Y-61382134D01*
X140852255Y-61444316D01*
X140903385Y-61580705D01*
X140902534Y-61581024D01*
X140916055Y-61642849D01*
X140903042Y-61687166D01*
X140903385Y-61687295D01*
X140900236Y-61695696D01*
X140900234Y-61695699D01*
X140892969Y-61715079D01*
X140852255Y-61823684D01*
X140845500Y-61885866D01*
X140845500Y-63082134D01*
X140852255Y-63144316D01*
X140855029Y-63151715D01*
X140894192Y-63256182D01*
X140902245Y-63277663D01*
X140903385Y-63280705D01*
X140902534Y-63281024D01*
X140916055Y-63342849D01*
X140903042Y-63387166D01*
X140903385Y-63387295D01*
X140900236Y-63395696D01*
X140900234Y-63395699D01*
X140887484Y-63429710D01*
X140852255Y-63523684D01*
X140845500Y-63585866D01*
X140845500Y-64389500D01*
X140825498Y-64457621D01*
X140771842Y-64504114D01*
X140719500Y-64515500D01*
X139173759Y-64515500D01*
X139105638Y-64495498D01*
X139060666Y-64443598D01*
X139056135Y-64439671D01*
X139048452Y-64438000D01*
X137426000Y-64438000D01*
X137357879Y-64417998D01*
X137311386Y-64364342D01*
X137300000Y-64312000D01*
X137300000Y-64056000D01*
X137320002Y-63987879D01*
X137373658Y-63941386D01*
X137426000Y-63930000D01*
X139043884Y-63930000D01*
X139059123Y-63925525D01*
X139060328Y-63924135D01*
X139061999Y-63916452D01*
X139061999Y-63589331D01*
X139061629Y-63582510D01*
X139056105Y-63531648D01*
X139052479Y-63516396D01*
X139007321Y-63395939D01*
X139006826Y-63395034D01*
X139006607Y-63394034D01*
X139004172Y-63387538D01*
X139005110Y-63387186D01*
X138991657Y-63325677D01*
X139004838Y-63280788D01*
X139004615Y-63280705D01*
X139005756Y-63277663D01*
X139005758Y-63277656D01*
X139013809Y-63256182D01*
X139052971Y-63151715D01*
X139055745Y-63144316D01*
X139062500Y-63082134D01*
X139062500Y-61885866D01*
X139055745Y-61823684D01*
X139015031Y-61715079D01*
X139007766Y-61695699D01*
X139007764Y-61695696D01*
X139004615Y-61687295D01*
X139005466Y-61686976D01*
X138991945Y-61625151D01*
X139004958Y-61580834D01*
X139004615Y-61580705D01*
X139006372Y-61576019D01*
X139006373Y-61576015D01*
X139055745Y-61444316D01*
X139062500Y-61382134D01*
X139062500Y-60185866D01*
X139055745Y-60123684D01*
X139004615Y-59987295D01*
X138917261Y-59870739D01*
X138800705Y-59783385D01*
X138664316Y-59732255D01*
X138602134Y-59725500D01*
X136505866Y-59725500D01*
X136443684Y-59732255D01*
X136307295Y-59783385D01*
X136233566Y-59838642D01*
X136219565Y-59849135D01*
X136153059Y-59873983D01*
X136083676Y-59858930D01*
X136068435Y-59849135D01*
X136054434Y-59838642D01*
X135980705Y-59783385D01*
X135844316Y-59732255D01*
X135782134Y-59725500D01*
X133685866Y-59725500D01*
X133623684Y-59732255D01*
X133487295Y-59783385D01*
X133370739Y-59870739D01*
X133283385Y-59987295D01*
X133232255Y-60123684D01*
X133225500Y-60185866D01*
X133225500Y-61382134D01*
X133232255Y-61444316D01*
X133283385Y-61580705D01*
X133282534Y-61581024D01*
X133296055Y-61642849D01*
X133283042Y-61687166D01*
X133283385Y-61687295D01*
X133280236Y-61695696D01*
X133280234Y-61695699D01*
X133272969Y-61715079D01*
X133232255Y-61823684D01*
X133225500Y-61885866D01*
X133225500Y-63082134D01*
X133232255Y-63144316D01*
X133235029Y-63151715D01*
X133274192Y-63256182D01*
X133282245Y-63277663D01*
X133283385Y-63280705D01*
X133282534Y-63281024D01*
X133296055Y-63342849D01*
X133283042Y-63387166D01*
X133283385Y-63387295D01*
X133280236Y-63395696D01*
X133280234Y-63395699D01*
X133267484Y-63429710D01*
X133232255Y-63523684D01*
X133225500Y-63585866D01*
X133225500Y-64389500D01*
X133205498Y-64457621D01*
X133151842Y-64504114D01*
X133099500Y-64515500D01*
X131553759Y-64515500D01*
X131485638Y-64495498D01*
X131440666Y-64443598D01*
X131436135Y-64439671D01*
X131428452Y-64438000D01*
X129806000Y-64438000D01*
X129737879Y-64417998D01*
X129691386Y-64364342D01*
X129680000Y-64312000D01*
X129680000Y-64056000D01*
X129700002Y-63987879D01*
X129753658Y-63941386D01*
X129806000Y-63930000D01*
X131423884Y-63930000D01*
X131439123Y-63925525D01*
X131440328Y-63924135D01*
X131441999Y-63916452D01*
X131441999Y-63589331D01*
X131441629Y-63582510D01*
X131436105Y-63531648D01*
X131432479Y-63516396D01*
X131387321Y-63395939D01*
X131386826Y-63395034D01*
X131386607Y-63394034D01*
X131384172Y-63387538D01*
X131385110Y-63387186D01*
X131371657Y-63325677D01*
X131384838Y-63280788D01*
X131384615Y-63280705D01*
X131385756Y-63277663D01*
X131385758Y-63277656D01*
X131393809Y-63256182D01*
X131432971Y-63151715D01*
X131435745Y-63144316D01*
X131442500Y-63082134D01*
X131442500Y-61885866D01*
X131435745Y-61823684D01*
X131395031Y-61715079D01*
X131387766Y-61695699D01*
X131387764Y-61695696D01*
X131384615Y-61687295D01*
X131385466Y-61686976D01*
X131371945Y-61625151D01*
X131384958Y-61580834D01*
X131384615Y-61580705D01*
X131386372Y-61576019D01*
X131386373Y-61576015D01*
X131435745Y-61444316D01*
X131442500Y-61382134D01*
X131442500Y-60185866D01*
X131435745Y-60123684D01*
X131384615Y-59987295D01*
X131297261Y-59870739D01*
X131180705Y-59783385D01*
X131044316Y-59732255D01*
X130982134Y-59725500D01*
X128885866Y-59725500D01*
X128823684Y-59732255D01*
X128687295Y-59783385D01*
X128613566Y-59838642D01*
X128599565Y-59849135D01*
X128533059Y-59873983D01*
X128463676Y-59858930D01*
X128448435Y-59849135D01*
X128434434Y-59838642D01*
X128360705Y-59783385D01*
X128224316Y-59732255D01*
X128162134Y-59725500D01*
X126065866Y-59725500D01*
X126003684Y-59732255D01*
X125867295Y-59783385D01*
X125750739Y-59870739D01*
X125663385Y-59987295D01*
X125612255Y-60123684D01*
X125605500Y-60185866D01*
X125605500Y-61382134D01*
X125612255Y-61444316D01*
X125663385Y-61580705D01*
X125662534Y-61581024D01*
X125676055Y-61642849D01*
X125663042Y-61687166D01*
X125663385Y-61687295D01*
X125660236Y-61695696D01*
X125660234Y-61695699D01*
X125652969Y-61715079D01*
X125612255Y-61823684D01*
X125605500Y-61885866D01*
X125605500Y-63082134D01*
X125612255Y-63144316D01*
X125615029Y-63151715D01*
X125654192Y-63256182D01*
X125662245Y-63277663D01*
X125663385Y-63280705D01*
X125662534Y-63281024D01*
X125676055Y-63342849D01*
X125663042Y-63387166D01*
X125663385Y-63387295D01*
X125660236Y-63395696D01*
X125660234Y-63395699D01*
X125647484Y-63429710D01*
X125612255Y-63523684D01*
X125605500Y-63585866D01*
X125605500Y-64389500D01*
X125585498Y-64457621D01*
X125531842Y-64504114D01*
X125479500Y-64515500D01*
X123933759Y-64515500D01*
X123865638Y-64495498D01*
X123820666Y-64443598D01*
X123816135Y-64439671D01*
X123808452Y-64438000D01*
X122186000Y-64438000D01*
X122117879Y-64417998D01*
X122071386Y-64364342D01*
X122060000Y-64312000D01*
X122060000Y-64056000D01*
X122080002Y-63987879D01*
X122133658Y-63941386D01*
X122186000Y-63930000D01*
X123803884Y-63930000D01*
X123819123Y-63925525D01*
X123820328Y-63924135D01*
X123821999Y-63916452D01*
X123821999Y-63589331D01*
X123821629Y-63582510D01*
X123816105Y-63531648D01*
X123812479Y-63516396D01*
X123767321Y-63395939D01*
X123766826Y-63395034D01*
X123766607Y-63394034D01*
X123764172Y-63387538D01*
X123765110Y-63387186D01*
X123751657Y-63325677D01*
X123764838Y-63280788D01*
X123764615Y-63280705D01*
X123765756Y-63277663D01*
X123765758Y-63277656D01*
X123773809Y-63256182D01*
X123812971Y-63151715D01*
X123815745Y-63144316D01*
X123822500Y-63082134D01*
X123822500Y-61885866D01*
X123815745Y-61823684D01*
X123775031Y-61715079D01*
X123767766Y-61695699D01*
X123767764Y-61695696D01*
X123764615Y-61687295D01*
X123765466Y-61686976D01*
X123751945Y-61625151D01*
X123764958Y-61580834D01*
X123764615Y-61580705D01*
X123766372Y-61576019D01*
X123766373Y-61576015D01*
X123815745Y-61444316D01*
X123822500Y-61382134D01*
X123822500Y-60185866D01*
X123815745Y-60123684D01*
X123764615Y-59987295D01*
X123677261Y-59870739D01*
X123560705Y-59783385D01*
X123424316Y-59732255D01*
X123362134Y-59725500D01*
X121265866Y-59725500D01*
X121203684Y-59732255D01*
X121067295Y-59783385D01*
X120993566Y-59838642D01*
X120979565Y-59849135D01*
X120913059Y-59873983D01*
X120843676Y-59858930D01*
X120828435Y-59849135D01*
X120814434Y-59838642D01*
X120740705Y-59783385D01*
X120604316Y-59732255D01*
X120542134Y-59725500D01*
X118445866Y-59725500D01*
X118383684Y-59732255D01*
X118247295Y-59783385D01*
X118130739Y-59870739D01*
X118043385Y-59987295D01*
X117992255Y-60123684D01*
X117985500Y-60185866D01*
X117985500Y-61382134D01*
X117992255Y-61444316D01*
X118043385Y-61580705D01*
X118042534Y-61581024D01*
X118056055Y-61642849D01*
X118043042Y-61687166D01*
X118043385Y-61687295D01*
X118040236Y-61695696D01*
X118040234Y-61695699D01*
X118032969Y-61715079D01*
X117992255Y-61823684D01*
X117985500Y-61885866D01*
X117985500Y-63082134D01*
X117992255Y-63144316D01*
X117995029Y-63151715D01*
X118034192Y-63256182D01*
X118042245Y-63277663D01*
X118043385Y-63280705D01*
X118042534Y-63281024D01*
X118056055Y-63342849D01*
X118043042Y-63387166D01*
X118043385Y-63387295D01*
X118040236Y-63395696D01*
X118040234Y-63395699D01*
X118027484Y-63429710D01*
X117992255Y-63523684D01*
X117985500Y-63585866D01*
X117985500Y-64389500D01*
X117965498Y-64457621D01*
X117911842Y-64504114D01*
X117859500Y-64515500D01*
X116313759Y-64515500D01*
X116245638Y-64495498D01*
X116200666Y-64443598D01*
X116196135Y-64439671D01*
X116188452Y-64438000D01*
X114566000Y-64438000D01*
X114497879Y-64417998D01*
X114451386Y-64364342D01*
X114440000Y-64312000D01*
X114440000Y-64056000D01*
X114460002Y-63987879D01*
X114513658Y-63941386D01*
X114566000Y-63930000D01*
X116183884Y-63930000D01*
X116199123Y-63925525D01*
X116200328Y-63924135D01*
X116201999Y-63916452D01*
X116201999Y-63589331D01*
X116201629Y-63582510D01*
X116196105Y-63531648D01*
X116192479Y-63516396D01*
X116147321Y-63395939D01*
X116146826Y-63395034D01*
X116146607Y-63394034D01*
X116144172Y-63387538D01*
X116145110Y-63387186D01*
X116131657Y-63325677D01*
X116144838Y-63280788D01*
X116144615Y-63280705D01*
X116145756Y-63277663D01*
X116145758Y-63277656D01*
X116153809Y-63256182D01*
X116192971Y-63151715D01*
X116195745Y-63144316D01*
X116202500Y-63082134D01*
X116202500Y-61885866D01*
X116195745Y-61823684D01*
X116155031Y-61715079D01*
X116147766Y-61695699D01*
X116147764Y-61695696D01*
X116144615Y-61687295D01*
X116145466Y-61686976D01*
X116131945Y-61625151D01*
X116144958Y-61580834D01*
X116144615Y-61580705D01*
X116146372Y-61576019D01*
X116146373Y-61576015D01*
X116195745Y-61444316D01*
X116202500Y-61382134D01*
X116202500Y-60185866D01*
X116195745Y-60123684D01*
X116144615Y-59987295D01*
X116057261Y-59870739D01*
X115940705Y-59783385D01*
X115804316Y-59732255D01*
X115742134Y-59725500D01*
X113645866Y-59725500D01*
X113583684Y-59732255D01*
X113447295Y-59783385D01*
X113373566Y-59838642D01*
X113359565Y-59849135D01*
X113293059Y-59873983D01*
X113223676Y-59858930D01*
X113208435Y-59849135D01*
X113194434Y-59838642D01*
X113120705Y-59783385D01*
X112984316Y-59732255D01*
X112922134Y-59725500D01*
X110825866Y-59725500D01*
X110763684Y-59732255D01*
X110627295Y-59783385D01*
X110510739Y-59870739D01*
X110423385Y-59987295D01*
X110372255Y-60123684D01*
X110365500Y-60185866D01*
X110365500Y-61382134D01*
X110372255Y-61444316D01*
X110423385Y-61580705D01*
X110422534Y-61581024D01*
X110436055Y-61642849D01*
X110423042Y-61687166D01*
X110423385Y-61687295D01*
X110420236Y-61695696D01*
X110420234Y-61695699D01*
X110412969Y-61715079D01*
X110372255Y-61823684D01*
X110365500Y-61885866D01*
X110365500Y-63082134D01*
X110372255Y-63144316D01*
X110375029Y-63151715D01*
X110414192Y-63256182D01*
X110422245Y-63277663D01*
X110423385Y-63280705D01*
X110422534Y-63281024D01*
X110436055Y-63342849D01*
X110423042Y-63387166D01*
X110423385Y-63387295D01*
X110420236Y-63395696D01*
X110420234Y-63395699D01*
X110407484Y-63429710D01*
X110372255Y-63523684D01*
X110365500Y-63585866D01*
X110365500Y-64389500D01*
X110345498Y-64457621D01*
X110291842Y-64504114D01*
X110239500Y-64515500D01*
X108693759Y-64515500D01*
X108625638Y-64495498D01*
X108580666Y-64443598D01*
X108576135Y-64439671D01*
X108568452Y-64438000D01*
X106946000Y-64438000D01*
X106877879Y-64417998D01*
X106831386Y-64364342D01*
X106820000Y-64312000D01*
X106820000Y-64056000D01*
X106840002Y-63987879D01*
X106893658Y-63941386D01*
X106946000Y-63930000D01*
X108563884Y-63930000D01*
X108579123Y-63925525D01*
X108580328Y-63924135D01*
X108581999Y-63916452D01*
X108581999Y-63589331D01*
X108581629Y-63582510D01*
X108576105Y-63531648D01*
X108572479Y-63516396D01*
X108527321Y-63395939D01*
X108526826Y-63395034D01*
X108526607Y-63394034D01*
X108524172Y-63387538D01*
X108525110Y-63387186D01*
X108511657Y-63325677D01*
X108524838Y-63280788D01*
X108524615Y-63280705D01*
X108525756Y-63277663D01*
X108525758Y-63277656D01*
X108533809Y-63256182D01*
X108572971Y-63151715D01*
X108575745Y-63144316D01*
X108582500Y-63082134D01*
X108582500Y-61885866D01*
X108575745Y-61823684D01*
X108535031Y-61715079D01*
X108527766Y-61695699D01*
X108527764Y-61695696D01*
X108524615Y-61687295D01*
X108525466Y-61686976D01*
X108511945Y-61625151D01*
X108524958Y-61580834D01*
X108524615Y-61580705D01*
X108526372Y-61576019D01*
X108526373Y-61576015D01*
X108575745Y-61444316D01*
X108582500Y-61382134D01*
X108582500Y-60185866D01*
X108575745Y-60123684D01*
X108524615Y-59987295D01*
X108437261Y-59870739D01*
X108320705Y-59783385D01*
X108184316Y-59732255D01*
X108122134Y-59725500D01*
X106025866Y-59725500D01*
X105963684Y-59732255D01*
X105827295Y-59783385D01*
X105753566Y-59838642D01*
X105739565Y-59849135D01*
X105673059Y-59873983D01*
X105603676Y-59858930D01*
X105588435Y-59849135D01*
X105574434Y-59838642D01*
X105500705Y-59783385D01*
X105364316Y-59732255D01*
X105302134Y-59725500D01*
X103205866Y-59725500D01*
X103143684Y-59732255D01*
X103007295Y-59783385D01*
X102890739Y-59870739D01*
X102803385Y-59987295D01*
X102752255Y-60123684D01*
X102745500Y-60185866D01*
X102745500Y-61382134D01*
X102752255Y-61444316D01*
X102803385Y-61580705D01*
X102802534Y-61581024D01*
X102816055Y-61642849D01*
X102803042Y-61687166D01*
X102803385Y-61687295D01*
X102800236Y-61695696D01*
X102800234Y-61695699D01*
X102792969Y-61715079D01*
X102752255Y-61823684D01*
X102745500Y-61885866D01*
X102745500Y-63082134D01*
X102752255Y-63144316D01*
X102755029Y-63151715D01*
X102794192Y-63256182D01*
X102802245Y-63277663D01*
X102803385Y-63280705D01*
X102802534Y-63281024D01*
X102816055Y-63342849D01*
X102803042Y-63387166D01*
X102803385Y-63387295D01*
X102800236Y-63395696D01*
X102800234Y-63395699D01*
X102787484Y-63429710D01*
X102752255Y-63523684D01*
X102745500Y-63585866D01*
X102745500Y-64389500D01*
X102725498Y-64457621D01*
X102671842Y-64504114D01*
X102619500Y-64515500D01*
X101073759Y-64515500D01*
X101005638Y-64495498D01*
X100960666Y-64443598D01*
X100956135Y-64439671D01*
X100948452Y-64438000D01*
X99326000Y-64438000D01*
X99257879Y-64417998D01*
X99211386Y-64364342D01*
X99200000Y-64312000D01*
X99200000Y-64056000D01*
X99220002Y-63987879D01*
X99273658Y-63941386D01*
X99326000Y-63930000D01*
X100943884Y-63930000D01*
X100959123Y-63925525D01*
X100960328Y-63924135D01*
X100961999Y-63916452D01*
X100961999Y-63589331D01*
X100961629Y-63582510D01*
X100956105Y-63531648D01*
X100952479Y-63516396D01*
X100907321Y-63395939D01*
X100906826Y-63395034D01*
X100906607Y-63394034D01*
X100904172Y-63387538D01*
X100905110Y-63387186D01*
X100891657Y-63325677D01*
X100904838Y-63280788D01*
X100904615Y-63280705D01*
X100905756Y-63277663D01*
X100905758Y-63277656D01*
X100913809Y-63256182D01*
X100952971Y-63151715D01*
X100955745Y-63144316D01*
X100962500Y-63082134D01*
X100962500Y-61885866D01*
X100955745Y-61823684D01*
X100915031Y-61715079D01*
X100907766Y-61695699D01*
X100907764Y-61695696D01*
X100904615Y-61687295D01*
X100905466Y-61686976D01*
X100891945Y-61625151D01*
X100904958Y-61580834D01*
X100904615Y-61580705D01*
X100906372Y-61576019D01*
X100906373Y-61576015D01*
X100955745Y-61444316D01*
X100962500Y-61382134D01*
X100962500Y-60185866D01*
X100955745Y-60123684D01*
X100904615Y-59987295D01*
X100817261Y-59870739D01*
X100700705Y-59783385D01*
X100564316Y-59732255D01*
X100502134Y-59725500D01*
X98405866Y-59725500D01*
X98343684Y-59732255D01*
X98207295Y-59783385D01*
X98133566Y-59838642D01*
X98119565Y-59849135D01*
X98053059Y-59873983D01*
X97983676Y-59858930D01*
X97968435Y-59849135D01*
X97954434Y-59838642D01*
X97880705Y-59783385D01*
X97744316Y-59732255D01*
X97682134Y-59725500D01*
X95585866Y-59725500D01*
X95523684Y-59732255D01*
X95387295Y-59783385D01*
X95270739Y-59870739D01*
X95183385Y-59987295D01*
X95132255Y-60123684D01*
X95125500Y-60185866D01*
X95125500Y-61382134D01*
X95132255Y-61444316D01*
X95183385Y-61580705D01*
X95182534Y-61581024D01*
X95196055Y-61642849D01*
X95183042Y-61687166D01*
X95183385Y-61687295D01*
X95180236Y-61695696D01*
X95180234Y-61695699D01*
X95172969Y-61715079D01*
X95132255Y-61823684D01*
X95125500Y-61885866D01*
X95125500Y-63082134D01*
X95132255Y-63144316D01*
X95135029Y-63151715D01*
X95174192Y-63256182D01*
X95182245Y-63277663D01*
X95183385Y-63280705D01*
X95182534Y-63281024D01*
X95196055Y-63342849D01*
X95183042Y-63387166D01*
X95183385Y-63387295D01*
X95180236Y-63395696D01*
X95180234Y-63395699D01*
X95167484Y-63429710D01*
X95132255Y-63523684D01*
X95125500Y-63585866D01*
X95125500Y-64389500D01*
X95105498Y-64457621D01*
X95051842Y-64504114D01*
X94999500Y-64515500D01*
X93453759Y-64515500D01*
X93385638Y-64495498D01*
X93340666Y-64443598D01*
X93336135Y-64439671D01*
X93328452Y-64438000D01*
X90344116Y-64438000D01*
X90328877Y-64442475D01*
X90327672Y-64443865D01*
X90326001Y-64451548D01*
X90326001Y-64690167D01*
X90305999Y-64758288D01*
X90279638Y-64787809D01*
X90261893Y-64802282D01*
X90255824Y-64807232D01*
X90251896Y-64811980D01*
X90251895Y-64811981D01*
X90226339Y-64842873D01*
X90218350Y-64851652D01*
X89658067Y-65411935D01*
X89648761Y-65420358D01*
X89070931Y-65893128D01*
X87374620Y-67281019D01*
X87309231Y-67308675D01*
X87294832Y-67309500D01*
X85777501Y-67309500D01*
X85709380Y-67289498D01*
X85662887Y-67235842D01*
X85652783Y-67165568D01*
X85675178Y-67109974D01*
X85747009Y-67010011D01*
X85752313Y-67001183D01*
X85846670Y-66810267D01*
X85850469Y-66800672D01*
X85912377Y-66596910D01*
X85914555Y-66586837D01*
X85915986Y-66575962D01*
X85913775Y-66561778D01*
X85900617Y-66558000D01*
X84454000Y-66558000D01*
X84385879Y-66537998D01*
X84339386Y-66484342D01*
X84328000Y-66432000D01*
X84328000Y-66176000D01*
X84348002Y-66107879D01*
X84401658Y-66061386D01*
X84454000Y-66050000D01*
X85900344Y-66050000D01*
X85913875Y-66046027D01*
X85915180Y-66036947D01*
X85873214Y-65869875D01*
X85869894Y-65860124D01*
X85784972Y-65664814D01*
X85780105Y-65655739D01*
X85664426Y-65476926D01*
X85658136Y-65468757D01*
X85514806Y-65311240D01*
X85507273Y-65304215D01*
X85340139Y-65172222D01*
X85331556Y-65166520D01*
X85294602Y-65146120D01*
X85244631Y-65095687D01*
X85229859Y-65026245D01*
X85254975Y-64959839D01*
X85282327Y-64933232D01*
X85305797Y-64916491D01*
X85461860Y-64805173D01*
X85494379Y-64772768D01*
X85543209Y-64724107D01*
X85620096Y-64647489D01*
X85684887Y-64557323D01*
X85747438Y-64470273D01*
X85747439Y-64470272D01*
X85750453Y-64466077D01*
X85752742Y-64461445D01*
X85753247Y-64460605D01*
X85805477Y-64412516D01*
X85861250Y-64399500D01*
X86778980Y-64399500D01*
X86790214Y-64400030D01*
X86797719Y-64401708D01*
X86866012Y-64399562D01*
X86869969Y-64399500D01*
X86897983Y-64399500D01*
X86901908Y-64399004D01*
X86901909Y-64399004D01*
X86902004Y-64398992D01*
X86913849Y-64398059D01*
X86943670Y-64397122D01*
X86950282Y-64396914D01*
X86950283Y-64396914D01*
X86958205Y-64396665D01*
X86977749Y-64390987D01*
X86997112Y-64386977D01*
X87009440Y-64385420D01*
X87009442Y-64385420D01*
X87017299Y-64384427D01*
X87024663Y-64381511D01*
X87024668Y-64381510D01*
X87058556Y-64368093D01*
X87069785Y-64364248D01*
X87086465Y-64359402D01*
X87112393Y-64351869D01*
X87119220Y-64347831D01*
X87119223Y-64347830D01*
X87129906Y-64341512D01*
X87147664Y-64332812D01*
X87159215Y-64328239D01*
X87159221Y-64328235D01*
X87166588Y-64325319D01*
X87202491Y-64299234D01*
X87212410Y-64292719D01*
X87243768Y-64274174D01*
X87243772Y-64274171D01*
X87250598Y-64270134D01*
X87264982Y-64255750D01*
X87280016Y-64242909D01*
X87290073Y-64235602D01*
X87296487Y-64230942D01*
X87324778Y-64196744D01*
X87332767Y-64187965D01*
X88364327Y-63156405D01*
X88426639Y-63122379D01*
X88453422Y-63119500D01*
X90235624Y-63119500D01*
X90303745Y-63139502D01*
X90350238Y-63193158D01*
X90353606Y-63201270D01*
X90374192Y-63256182D01*
X90381589Y-63275914D01*
X90383385Y-63280705D01*
X90382693Y-63280964D01*
X90396343Y-63343374D01*
X90383420Y-63387385D01*
X90383828Y-63387538D01*
X90381738Y-63393112D01*
X90381174Y-63395034D01*
X90380679Y-63395939D01*
X90335522Y-63516394D01*
X90331895Y-63531649D01*
X90326369Y-63582514D01*
X90326000Y-63589328D01*
X90326000Y-63911885D01*
X90330475Y-63927124D01*
X90331865Y-63928329D01*
X90339548Y-63930000D01*
X93323884Y-63930000D01*
X93339123Y-63925525D01*
X93340328Y-63924135D01*
X93341999Y-63916452D01*
X93341999Y-63589331D01*
X93341629Y-63582510D01*
X93336105Y-63531648D01*
X93332479Y-63516396D01*
X93287321Y-63395939D01*
X93286826Y-63395034D01*
X93286607Y-63394034D01*
X93284172Y-63387538D01*
X93285110Y-63387186D01*
X93271657Y-63325677D01*
X93284838Y-63280788D01*
X93284615Y-63280705D01*
X93285756Y-63277663D01*
X93285758Y-63277656D01*
X93293809Y-63256182D01*
X93332971Y-63151715D01*
X93335745Y-63144316D01*
X93342500Y-63082134D01*
X93342500Y-61885866D01*
X93335745Y-61823684D01*
X93295031Y-61715079D01*
X93287766Y-61695699D01*
X93287764Y-61695696D01*
X93284615Y-61687295D01*
X93285466Y-61686976D01*
X93271945Y-61625151D01*
X93284958Y-61580834D01*
X93284615Y-61580705D01*
X93286372Y-61576019D01*
X93286373Y-61576015D01*
X93335745Y-61444316D01*
X93342500Y-61382134D01*
X93342500Y-60185866D01*
X93335745Y-60123684D01*
X93284615Y-59987295D01*
X93197261Y-59870739D01*
X93080705Y-59783385D01*
X92944316Y-59732255D01*
X92882134Y-59725500D01*
X90785866Y-59725500D01*
X90723684Y-59732255D01*
X90587295Y-59783385D01*
X90470739Y-59870739D01*
X90383385Y-59987295D01*
X90380233Y-59995703D01*
X90353606Y-60066730D01*
X90310964Y-60123494D01*
X90244403Y-60148194D01*
X90235624Y-60148500D01*
X85838252Y-60148500D01*
X85770131Y-60128498D01*
X85723638Y-60074842D01*
X85713534Y-60004568D01*
X85743028Y-59939988D01*
X85762687Y-59921674D01*
X85788080Y-59902643D01*
X85788081Y-59902642D01*
X85795261Y-59897261D01*
X85882615Y-59780705D01*
X85933745Y-59644316D01*
X85940500Y-59582134D01*
X85940500Y-57785866D01*
X85933745Y-57723684D01*
X85882615Y-57587295D01*
X85795261Y-57470739D01*
X85678705Y-57383385D01*
X85542316Y-57332255D01*
X85480134Y-57325500D01*
X83683866Y-57325500D01*
X83621684Y-57332255D01*
X83485295Y-57383385D01*
X83368739Y-57470739D01*
X83281385Y-57587295D01*
X83230255Y-57723684D01*
X83223500Y-57785866D01*
X83223500Y-58552762D01*
X83203498Y-58620883D01*
X83186595Y-58641857D01*
X81621267Y-60207185D01*
X81611125Y-60216286D01*
X81581351Y-60240225D01*
X81548813Y-60279002D01*
X81545649Y-60282629D01*
X81543954Y-60284498D01*
X81541760Y-60286692D01*
X81514188Y-60320258D01*
X81513482Y-60321108D01*
X81469669Y-60373323D01*
X81453214Y-60392933D01*
X81450627Y-60397639D01*
X81447218Y-60401789D01*
X81444310Y-60407213D01*
X81444303Y-60407223D01*
X81402939Y-60484368D01*
X81402310Y-60485528D01*
X81357179Y-60567621D01*
X81355555Y-60572741D01*
X81353017Y-60577474D01*
X81338721Y-60624235D01*
X81325648Y-60666993D01*
X81325256Y-60668252D01*
X81320005Y-60684806D01*
X81296902Y-60757635D01*
X81296303Y-60762973D01*
X81294733Y-60768109D01*
X81288323Y-60831219D01*
X81285263Y-60861343D01*
X81285134Y-60862551D01*
X81279500Y-60912784D01*
X81279500Y-60916289D01*
X81279438Y-60917397D01*
X81278990Y-60923092D01*
X81275210Y-60960305D01*
X81275210Y-60960312D01*
X81274588Y-60966435D01*
X81278941Y-61012485D01*
X81279500Y-61024343D01*
X81279500Y-66739724D01*
X81278763Y-66753332D01*
X81274638Y-66791304D01*
X81275175Y-66797439D01*
X81279046Y-66841690D01*
X81279375Y-66846518D01*
X81279500Y-66849073D01*
X81279500Y-66852157D01*
X81279801Y-66855224D01*
X81283722Y-66895219D01*
X81283844Y-66896532D01*
X81285621Y-66916838D01*
X81292012Y-66989892D01*
X81293511Y-66995052D01*
X81294035Y-67000394D01*
X81301345Y-67024604D01*
X81321098Y-67090031D01*
X81321455Y-67091236D01*
X81347628Y-67181322D01*
X81350100Y-67186090D01*
X81351652Y-67191232D01*
X81354547Y-67196677D01*
X81354550Y-67196684D01*
X81395633Y-67273950D01*
X81396213Y-67275054D01*
X81439366Y-67358304D01*
X81442718Y-67362503D01*
X81445239Y-67367244D01*
X81449131Y-67372016D01*
X81504438Y-67439829D01*
X81505266Y-67440855D01*
X81533449Y-67476158D01*
X81536768Y-67480316D01*
X81539263Y-67482811D01*
X81539973Y-67483605D01*
X81543693Y-67487960D01*
X81567337Y-67516951D01*
X81567340Y-67516954D01*
X81571232Y-67521726D01*
X81575980Y-67525654D01*
X81575981Y-67525655D01*
X81606873Y-67551211D01*
X81615652Y-67559200D01*
X82166857Y-68110405D01*
X82200883Y-68172717D01*
X82195818Y-68243532D01*
X82153271Y-68300368D01*
X82086751Y-68325179D01*
X82077763Y-68325500D01*
X76425989Y-68325499D01*
X76368745Y-68325499D01*
X76362581Y-68325348D01*
X76313504Y-68322944D01*
X76313503Y-68322944D01*
X76304539Y-68322505D01*
X76295810Y-68324600D01*
X76295809Y-68324600D01*
X76262536Y-68332585D01*
X76250995Y-68334791D01*
X76217102Y-68339645D01*
X76217095Y-68339647D01*
X76208213Y-68340919D01*
X76200040Y-68344635D01*
X76200041Y-68344635D01*
X76197300Y-68345881D01*
X76174558Y-68353700D01*
X76162904Y-68356497D01*
X76125408Y-68377967D01*
X76114962Y-68383318D01*
X76083790Y-68397491D01*
X76083788Y-68397492D01*
X76075618Y-68401207D01*
X76068819Y-68407065D01*
X76068818Y-68407066D01*
X76066539Y-68409030D01*
X76046905Y-68422918D01*
X76036501Y-68428875D01*
X76030277Y-68435341D01*
X76030274Y-68435344D01*
X76020982Y-68444999D01*
X76005346Y-68458762D01*
X75604280Y-68756754D01*
X75596918Y-68761828D01*
X75314395Y-68942132D01*
X75148543Y-69047977D01*
X75140843Y-69052515D01*
X74710580Y-69285925D01*
X74673290Y-69306154D01*
X74665289Y-69310134D01*
X74180910Y-69529983D01*
X74172656Y-69533381D01*
X73860169Y-69649257D01*
X73673916Y-69718323D01*
X73665427Y-69721132D01*
X73154857Y-69870229D01*
X73146192Y-69872430D01*
X72626296Y-69984953D01*
X72617495Y-69986533D01*
X72090947Y-70061899D01*
X72082057Y-70062851D01*
X71670123Y-70092228D01*
X71551485Y-70100688D01*
X71542552Y-70101007D01*
X71275164Y-70101064D01*
X71010642Y-70101121D01*
X71001706Y-70100806D01*
X70471105Y-70063196D01*
X70462215Y-70062247D01*
X70198586Y-70024629D01*
X69935637Y-69987107D01*
X69926859Y-69985535D01*
X69406917Y-69873237D01*
X69398266Y-69871045D01*
X68887584Y-69722153D01*
X68879098Y-69719348D01*
X68876331Y-69718323D01*
X68786453Y-69685039D01*
X68380294Y-69534626D01*
X68372025Y-69531225D01*
X67887576Y-69311595D01*
X67879568Y-69307617D01*
X67411889Y-69054170D01*
X67404202Y-69049643D01*
X66955686Y-68763676D01*
X66948340Y-68758617D01*
X66564577Y-68473737D01*
X66521221Y-68441552D01*
X66514236Y-68435971D01*
X66290144Y-68243532D01*
X66110705Y-68089438D01*
X66104136Y-68083380D01*
X66087448Y-68066853D01*
X65726176Y-67709082D01*
X65720051Y-67702569D01*
X65369607Y-67302434D01*
X65363958Y-67295503D01*
X65042762Y-66871509D01*
X65037619Y-66864195D01*
X64747302Y-66418491D01*
X64742691Y-66410831D01*
X64641508Y-66228384D01*
X64484706Y-65945649D01*
X64480655Y-65937691D01*
X64476286Y-65928297D01*
X64256313Y-65455394D01*
X64252834Y-65447163D01*
X64221250Y-65364361D01*
X64063260Y-64950167D01*
X64060374Y-64941712D01*
X64020025Y-64808171D01*
X63906526Y-64432537D01*
X63904245Y-64423892D01*
X63786891Y-63905077D01*
X63785229Y-63896292D01*
X63704965Y-63370473D01*
X63703930Y-63361592D01*
X63668987Y-62928457D01*
X63661156Y-62831381D01*
X63660754Y-62822458D01*
X63660653Y-62811799D01*
X63657531Y-62484000D01*
X67558410Y-62484000D01*
X67578756Y-62872218D01*
X67579269Y-62875458D01*
X67579270Y-62875466D01*
X67588956Y-62936617D01*
X67639570Y-63256182D01*
X67740186Y-63631686D01*
X67879501Y-63994616D01*
X68055990Y-64340995D01*
X68267719Y-64667029D01*
X68269797Y-64669595D01*
X68442806Y-64883242D01*
X68512368Y-64969144D01*
X68787256Y-65244032D01*
X68789814Y-65246104D01*
X68789818Y-65246107D01*
X68935849Y-65364361D01*
X69089371Y-65488681D01*
X69415405Y-65700410D01*
X69761784Y-65876899D01*
X70124714Y-66016214D01*
X70500218Y-66116830D01*
X70704236Y-66149143D01*
X70880934Y-66177130D01*
X70880942Y-66177131D01*
X70884182Y-66177644D01*
X71272400Y-66197990D01*
X71660618Y-66177644D01*
X71663858Y-66177131D01*
X71663866Y-66177130D01*
X71840564Y-66149143D01*
X72044582Y-66116830D01*
X72420086Y-66016214D01*
X72783016Y-65876899D01*
X73129395Y-65700410D01*
X73455429Y-65488681D01*
X73608951Y-65364361D01*
X73754982Y-65246107D01*
X73754986Y-65246104D01*
X73757544Y-65244032D01*
X74032432Y-64969144D01*
X74101995Y-64883242D01*
X74275003Y-64669595D01*
X74277081Y-64667029D01*
X74488810Y-64340995D01*
X74665299Y-63994616D01*
X74804614Y-63631686D01*
X74905230Y-63256182D01*
X74955844Y-62936617D01*
X74965530Y-62875466D01*
X74965531Y-62875458D01*
X74966044Y-62872218D01*
X74986390Y-62484000D01*
X74966044Y-62095782D01*
X74962928Y-62076104D01*
X74933338Y-61889283D01*
X74905230Y-61711818D01*
X74804614Y-61336314D01*
X74665299Y-60973384D01*
X74488810Y-60627005D01*
X74277081Y-60300971D01*
X74201134Y-60207185D01*
X74034507Y-60001418D01*
X74034504Y-60001414D01*
X74032432Y-59998856D01*
X73757544Y-59723968D01*
X73668320Y-59651715D01*
X73507661Y-59521616D01*
X73455429Y-59479319D01*
X73129395Y-59267590D01*
X72783016Y-59091101D01*
X72542865Y-58998916D01*
X72423176Y-58952972D01*
X72423174Y-58952971D01*
X72420086Y-58951786D01*
X72044582Y-58851170D01*
X71840564Y-58818857D01*
X71663866Y-58790870D01*
X71663858Y-58790869D01*
X71660618Y-58790356D01*
X71272400Y-58770010D01*
X70884182Y-58790356D01*
X70880942Y-58790869D01*
X70880934Y-58790870D01*
X70704236Y-58818857D01*
X70500218Y-58851170D01*
X70124714Y-58951786D01*
X70121626Y-58952971D01*
X70121624Y-58952972D01*
X70001935Y-58998916D01*
X69761784Y-59091101D01*
X69415405Y-59267590D01*
X69089371Y-59479319D01*
X69037139Y-59521616D01*
X68876481Y-59651715D01*
X68787256Y-59723968D01*
X68512368Y-59998856D01*
X68510296Y-60001414D01*
X68510293Y-60001418D01*
X68343666Y-60207185D01*
X68267719Y-60300971D01*
X68055990Y-60627005D01*
X67879501Y-60973384D01*
X67740186Y-61336314D01*
X67639570Y-61711818D01*
X67611462Y-61889283D01*
X67581873Y-62076104D01*
X67578756Y-62095782D01*
X67558410Y-62484000D01*
X63657531Y-62484000D01*
X63655689Y-62290572D01*
X63655921Y-62281634D01*
X63688588Y-61750728D01*
X63689453Y-61741828D01*
X63759692Y-61214553D01*
X63761187Y-61205738D01*
X63820519Y-60918077D01*
X63868636Y-60684792D01*
X63870745Y-60676133D01*
X64014877Y-60164089D01*
X64017604Y-60155573D01*
X64124330Y-59858930D01*
X64197676Y-59655066D01*
X64200997Y-59646772D01*
X64256340Y-59521616D01*
X64405221Y-59184923D01*
X64416114Y-59160288D01*
X64420018Y-59152244D01*
X64669091Y-58682244D01*
X64673556Y-58674497D01*
X64955324Y-58223358D01*
X64960326Y-58215947D01*
X65273396Y-57785902D01*
X65278912Y-57778865D01*
X65621675Y-57372125D01*
X65627675Y-57365497D01*
X65801506Y-57186665D01*
X65998435Y-56984071D01*
X66004869Y-56977906D01*
X66401764Y-56623718D01*
X66408610Y-56618031D01*
X66829615Y-56292889D01*
X66836876Y-56287682D01*
X67127904Y-56094233D01*
X67279868Y-55993221D01*
X67287471Y-55988548D01*
X67612591Y-55804262D01*
X67750216Y-55726253D01*
X67758146Y-55722122D01*
X68158565Y-55531312D01*
X68238352Y-55493291D01*
X68246538Y-55489742D01*
X68741757Y-55295545D01*
X68750160Y-55292590D01*
X69112370Y-55179458D01*
X69257907Y-55134001D01*
X69266531Y-55131640D01*
X69784216Y-55009465D01*
X69792985Y-55007721D01*
X70318053Y-54922562D01*
X70326922Y-54921445D01*
X70661188Y-54891345D01*
X70856682Y-54873741D01*
X70865609Y-54873255D01*
X70999654Y-54870730D01*
X71397446Y-54863238D01*
X71406374Y-54863387D01*
G37*
G04 #@! TD.AperFunction*
M02*
