%FSLAX45Y45*%
G04 Gerber Fmt 4.5, Leading zero omitted, Abs format (unit mm)*
G04 Created by KiCad (PCBNEW (6.0.6)) date 2022-11-08 17:29:11*
%MOMM*%
%LPD*%
G01*
G04 APERTURE LIST*
%TA.AperFunction,Profile*%
%ADD10C,0.025400*%
%TD*%
%TA.AperFunction,Profile*%
%ADD11C,3.213100*%
%TD*%
%ADD12C,0.200000*%
G04 APERTURE END LIST*
D10*
X7623055Y-5603841D02*
X8788400Y-5613400D01*
X39649400Y-6629400D02*
G75*
G03*
X39649400Y-5867400I508370J381000D01*
G01*
X7623054Y-5603841D02*
G75*
G03*
X7635240Y-6883400I-495558J-644557D01*
G01*
X9067800Y-5867400D02*
X39649400Y-5867400D01*
X9067800Y-6654800D02*
X8788400Y-6883400D01*
X39649400Y-6629400D02*
X9067800Y-6654800D01*
D11*
X7287895Y-6248400D02*
G75*
G03*
X7287895Y-6248400I-160655J0D01*
G01*
X40318055Y-6248400D02*
G75*
G03*
X40318055Y-6248400I-160655J0D01*
G01*
D10*
X8788400Y-6883400D02*
X7635240Y-6883400D01*
X8788400Y-5613400D02*
X9067800Y-5867400D01*
D12*
X6570807Y-7373182D02*
X6570807Y-7173182D01*
X6618426Y-7173182D01*
X6646997Y-7182706D01*
X6666045Y-7201754D01*
X6675568Y-7220802D01*
X6685092Y-7258897D01*
X6685092Y-7287468D01*
X6675568Y-7325563D01*
X6666045Y-7344611D01*
X6646997Y-7363659D01*
X6618426Y-7373182D01*
X6570807Y-7373182D01*
X6770807Y-7373182D02*
X6770807Y-7239849D01*
X6770807Y-7277944D02*
X6780330Y-7258897D01*
X6789854Y-7249373D01*
X6808902Y-7239849D01*
X6827949Y-7239849D01*
X6894616Y-7373182D02*
X6894616Y-7239849D01*
X6894616Y-7173182D02*
X6885092Y-7182706D01*
X6894616Y-7192230D01*
X6904140Y-7182706D01*
X6894616Y-7173182D01*
X6894616Y-7192230D01*
X7018426Y-7373182D02*
X6999378Y-7363659D01*
X6989854Y-7344611D01*
X6989854Y-7173182D01*
X7123188Y-7373182D02*
X7104140Y-7363659D01*
X7094616Y-7344611D01*
X7094616Y-7173182D01*
X7351759Y-7373182D02*
X7351759Y-7173182D01*
X7418426Y-7316040D01*
X7485092Y-7173182D01*
X7485092Y-7373182D01*
X7666045Y-7373182D02*
X7666045Y-7268421D01*
X7656521Y-7249373D01*
X7637473Y-7239849D01*
X7599378Y-7239849D01*
X7580330Y-7249373D01*
X7666045Y-7363659D02*
X7646997Y-7373182D01*
X7599378Y-7373182D01*
X7580330Y-7363659D01*
X7570807Y-7344611D01*
X7570807Y-7325563D01*
X7580330Y-7306516D01*
X7599378Y-7296992D01*
X7646997Y-7296992D01*
X7666045Y-7287468D01*
X7761283Y-7239849D02*
X7761283Y-7439849D01*
X7761283Y-7249373D02*
X7780330Y-7239849D01*
X7818426Y-7239849D01*
X7837473Y-7249373D01*
X7846997Y-7258897D01*
X7856521Y-7277944D01*
X7856521Y-7335087D01*
X7846997Y-7354135D01*
X7837473Y-7363659D01*
X7818426Y-7373182D01*
X7780330Y-7373182D01*
X7761283Y-7363659D01*
X7942235Y-7354135D02*
X7951759Y-7363659D01*
X7942235Y-7373182D01*
X7932711Y-7363659D01*
X7942235Y-7354135D01*
X7942235Y-7373182D01*
X7942235Y-7249373D02*
X7951759Y-7258897D01*
X7942235Y-7268421D01*
X7932711Y-7258897D01*
X7942235Y-7249373D01*
X7942235Y-7268421D01*
M02*
