G04 #@! TF.GenerationSoftware,KiCad,Pcbnew,(6.0.6)*
G04 #@! TF.CreationDate,2022-11-10T16:32:18-05:00*
G04 #@! TF.ProjectId,pov_display,706f765f-6469-4737-906c-61792e6b6963,v01*
G04 #@! TF.SameCoordinates,Original*
G04 #@! TF.FileFunction,Legend,Bot*
G04 #@! TF.FilePolarity,Positive*
%FSLAX46Y46*%
G04 Gerber Fmt 4.6, Leading zero omitted, Abs format (unit mm)*
G04 Created by KiCad (PCBNEW (6.0.6)) date 2022-11-10 16:32:18*
%MOMM*%
%LPD*%
G01*
G04 APERTURE LIST*
G04 Aperture macros list*
%AMRoundRect*
0 Rectangle with rounded corners*
0 $1 Rounding radius*
0 $2 $3 $4 $5 $6 $7 $8 $9 X,Y pos of 4 corners*
0 Add a 4 corners polygon primitive as box body*
4,1,4,$2,$3,$4,$5,$6,$7,$8,$9,$2,$3,0*
0 Add four circle primitives for the rounded corners*
1,1,$1+$1,$2,$3*
1,1,$1+$1,$4,$5*
1,1,$1+$1,$6,$7*
1,1,$1+$1,$8,$9*
0 Add four rect primitives between the rounded corners*
20,1,$1+$1,$2,$3,$4,$5,0*
20,1,$1+$1,$4,$5,$6,$7,0*
20,1,$1+$1,$6,$7,$8,$9,0*
20,1,$1+$1,$8,$9,$2,$3,0*%
G04 Aperture macros list end*
%ADD10C,0.300000*%
%ADD11RoundRect,0.050800X-0.850000X-0.850000X0.850000X-0.850000X0.850000X0.850000X-0.850000X0.850000X0*%
%ADD12O,1.801600X1.801600*%
G04 APERTURE END LIST*
D10*
X401227294Y-63502675D02*
X401941580Y-63502675D01*
X401941580Y-62002675D01*
X400727294Y-62716961D02*
X400227294Y-62716961D01*
X400013008Y-63502675D02*
X400727294Y-63502675D01*
X400727294Y-62002675D01*
X400013008Y-62002675D01*
X399370151Y-63502675D02*
X399370151Y-62002675D01*
X399013008Y-62002675D01*
X398798723Y-62074104D01*
X398655865Y-62216961D01*
X398584437Y-62359818D01*
X398513008Y-62645532D01*
X398513008Y-62859818D01*
X398584437Y-63145532D01*
X398655865Y-63288389D01*
X398798723Y-63431246D01*
X399013008Y-63502675D01*
X399370151Y-63502675D01*
X396798723Y-63431246D02*
X396584437Y-63502675D01*
X396227294Y-63502675D01*
X396084437Y-63431246D01*
X396013008Y-63359818D01*
X395941580Y-63216961D01*
X395941580Y-63074104D01*
X396013008Y-62931246D01*
X396084437Y-62859818D01*
X396227294Y-62788389D01*
X396513008Y-62716961D01*
X396655865Y-62645532D01*
X396727294Y-62574104D01*
X396798723Y-62431246D01*
X396798723Y-62288389D01*
X396727294Y-62145532D01*
X396655865Y-62074104D01*
X396513008Y-62002675D01*
X396155865Y-62002675D01*
X395941580Y-62074104D01*
X395513008Y-62002675D02*
X394655865Y-62002675D01*
X395084437Y-63502675D02*
X395084437Y-62002675D01*
X393298723Y-63502675D02*
X393798723Y-62788389D01*
X394155865Y-63502675D02*
X394155865Y-62002675D01*
X393584437Y-62002675D01*
X393441580Y-62074104D01*
X393370151Y-62145532D01*
X393298723Y-62288389D01*
X393298723Y-62502675D01*
X393370151Y-62645532D01*
X393441580Y-62716961D01*
X393584437Y-62788389D01*
X394155865Y-62788389D01*
X392655865Y-63502675D02*
X392655865Y-62002675D01*
X391941580Y-63502675D02*
X391941580Y-62002675D01*
X391370151Y-62002675D01*
X391227294Y-62074104D01*
X391155865Y-62145532D01*
X391084437Y-62288389D01*
X391084437Y-62502675D01*
X391155865Y-62645532D01*
X391227294Y-62716961D01*
X391370151Y-62788389D01*
X391941580Y-62788389D01*
X111055865Y-62716961D02*
X110555865Y-62716961D01*
X110341580Y-63502675D02*
X111055865Y-63502675D01*
X111055865Y-62002675D01*
X110341580Y-62002675D01*
X108841580Y-63359818D02*
X108913008Y-63431246D01*
X109127294Y-63502675D01*
X109270151Y-63502675D01*
X109484437Y-63431246D01*
X109627294Y-63288389D01*
X109698723Y-63145532D01*
X109770151Y-62859818D01*
X109770151Y-62645532D01*
X109698723Y-62359818D01*
X109627294Y-62216961D01*
X109484437Y-62074104D01*
X109270151Y-62002675D01*
X109127294Y-62002675D01*
X108913008Y-62074104D01*
X108841580Y-62145532D01*
X108198723Y-62716961D02*
X107698723Y-62716961D01*
X107484437Y-63502675D02*
X108198723Y-63502675D01*
X108198723Y-62002675D01*
X107484437Y-62002675D01*
X105055865Y-62502675D02*
X105055865Y-63502675D01*
X105413008Y-61931246D02*
X105770151Y-63002675D01*
X104841580Y-63002675D01*
X104413008Y-62002675D02*
X103413008Y-62002675D01*
X104055865Y-63502675D01*
X102198723Y-62002675D02*
X102484437Y-62002675D01*
X102627294Y-62074104D01*
X102698723Y-62145532D01*
X102841580Y-62359818D01*
X102913008Y-62645532D01*
X102913008Y-63216961D01*
X102841580Y-63359818D01*
X102770151Y-63431246D01*
X102627294Y-63502675D01*
X102341580Y-63502675D01*
X102198723Y-63431246D01*
X102127294Y-63359818D01*
X102055865Y-63216961D01*
X102055865Y-62859818D01*
X102127294Y-62716961D01*
X102198723Y-62645532D01*
X102341580Y-62574104D01*
X102627294Y-62574104D01*
X102770151Y-62645532D01*
X102841580Y-62716961D01*
X102913008Y-62859818D01*
X101127294Y-62002675D02*
X100984437Y-62002675D01*
X100841580Y-62074104D01*
X100770151Y-62145532D01*
X100698723Y-62288389D01*
X100627294Y-62574104D01*
X100627294Y-62931246D01*
X100698723Y-63216961D01*
X100770151Y-63359818D01*
X100841580Y-63431246D01*
X100984437Y-63502675D01*
X101127294Y-63502675D01*
X101270151Y-63431246D01*
X101341580Y-63359818D01*
X101413008Y-63216961D01*
X101484437Y-62931246D01*
X101484437Y-62574104D01*
X101413008Y-62288389D01*
X101341580Y-62145532D01*
X101270151Y-62074104D01*
X101127294Y-62002675D01*
X98841580Y-63359818D02*
X98770151Y-63431246D01*
X98841580Y-63502675D01*
X98913008Y-63431246D01*
X98841580Y-63359818D01*
X98841580Y-63502675D01*
X98841580Y-62574104D02*
X98770151Y-62645532D01*
X98841580Y-62716961D01*
X98913008Y-62645532D01*
X98841580Y-62574104D01*
X98841580Y-62716961D01*
X98270151Y-64074104D02*
X98198723Y-64002675D01*
X98055865Y-63788389D01*
X97984437Y-63645532D01*
X97913008Y-63431246D01*
X97841580Y-63074104D01*
X97841580Y-62788389D01*
X97913008Y-62431246D01*
X97984437Y-62216961D01*
X98055865Y-62074104D01*
X98198723Y-61859818D01*
X98270151Y-61788389D01*
%LPC*%
D11*
X90732723Y-58770104D03*
D12*
X90732723Y-61310104D03*
X90732723Y-63850104D03*
X90732723Y-66390104D03*
M02*
