%FSLAX45Y45*%
G04 Gerber Fmt 4.5, Leading zero omitted, Abs format (unit mm)*
G04 Created by KiCad (PCBNEW (6.0.6)) date 2022-11-08 17:29:11*
%MOMM*%
%LPD*%
G01*
G04 APERTURE LIST*
%TA.AperFunction,Profile*%
%ADD10C,0.025400*%
%TD*%
%TA.AperFunction,Profile*%
%ADD11C,3.213100*%
%TD*%
%ADD12C,0.200000*%
%ADD13C,0.100000*%
G04 APERTURE END LIST*
D10*
X7623055Y-5603841D02*
X8788400Y-5613400D01*
X39649400Y-6629400D02*
G75*
G03*
X39649400Y-5867400I508370J381000D01*
G01*
X7623054Y-5603841D02*
G75*
G03*
X7635240Y-6883400I-495558J-644557D01*
G01*
X9067800Y-5867400D02*
X39649400Y-5867400D01*
X9067800Y-6654800D02*
X8788400Y-6883400D01*
X39649400Y-6629400D02*
X9067800Y-6654800D01*
D11*
X7287895Y-6248400D02*
G75*
G03*
X7287895Y-6248400I-160655J0D01*
G01*
X40318055Y-6248400D02*
G75*
G03*
X40318055Y-6248400I-160655J0D01*
G01*
D10*
X8788400Y-6883400D02*
X7635240Y-6883400D01*
X8788400Y-5613400D02*
X9067800Y-5867400D01*
D12*
D13*
X8408200Y-5818400D02*
X8508200Y-5918400D01*
X8508200Y-5818400D02*
X8408200Y-5918400D01*
X8408200Y-6072400D02*
X8508200Y-6172400D01*
X8508200Y-6072400D02*
X8408200Y-6172400D01*
X8408200Y-6326400D02*
X8508200Y-6426400D01*
X8508200Y-6326400D02*
X8408200Y-6426400D01*
X8408200Y-6580400D02*
X8508200Y-6680400D01*
X8508200Y-6580400D02*
X8408200Y-6680400D01*
D12*
X6570807Y-7373182D02*
X6570807Y-7173182D01*
X6618426Y-7173182D01*
X6646997Y-7182706D01*
X6666045Y-7201754D01*
X6675568Y-7220802D01*
X6685092Y-7258897D01*
X6685092Y-7287468D01*
X6675568Y-7325563D01*
X6666045Y-7344611D01*
X6646997Y-7363659D01*
X6618426Y-7373182D01*
X6570807Y-7373182D01*
X6770807Y-7373182D02*
X6770807Y-7239849D01*
X6770807Y-7277944D02*
X6780330Y-7258897D01*
X6789854Y-7249373D01*
X6808902Y-7239849D01*
X6827949Y-7239849D01*
X6894616Y-7373182D02*
X6894616Y-7239849D01*
X6894616Y-7173182D02*
X6885092Y-7182706D01*
X6894616Y-7192230D01*
X6904140Y-7182706D01*
X6894616Y-7173182D01*
X6894616Y-7192230D01*
X7018426Y-7373182D02*
X6999378Y-7363659D01*
X6989854Y-7344611D01*
X6989854Y-7173182D01*
X7123188Y-7373182D02*
X7104140Y-7363659D01*
X7094616Y-7344611D01*
X7094616Y-7173182D01*
X7351759Y-7373182D02*
X7351759Y-7173182D01*
X7418426Y-7316040D01*
X7485092Y-7173182D01*
X7485092Y-7373182D01*
X7666045Y-7373182D02*
X7666045Y-7268421D01*
X7656521Y-7249373D01*
X7637473Y-7239849D01*
X7599378Y-7239849D01*
X7580330Y-7249373D01*
X7666045Y-7363659D02*
X7646997Y-7373182D01*
X7599378Y-7373182D01*
X7580330Y-7363659D01*
X7570807Y-7344611D01*
X7570807Y-7325563D01*
X7580330Y-7306516D01*
X7599378Y-7296992D01*
X7646997Y-7296992D01*
X7666045Y-7287468D01*
X7761283Y-7239849D02*
X7761283Y-7439849D01*
X7761283Y-7249373D02*
X7780330Y-7239849D01*
X7818426Y-7239849D01*
X7837473Y-7249373D01*
X7846997Y-7258897D01*
X7856521Y-7277944D01*
X7856521Y-7335087D01*
X7846997Y-7354135D01*
X7837473Y-7363659D01*
X7818426Y-7373182D01*
X7780330Y-7373182D01*
X7761283Y-7363659D01*
X7942235Y-7354135D02*
X7951759Y-7363659D01*
X7942235Y-7373182D01*
X7932711Y-7363659D01*
X7942235Y-7354135D01*
X7942235Y-7373182D01*
X7942235Y-7249373D02*
X7951759Y-7258897D01*
X7942235Y-7268421D01*
X7932711Y-7258897D01*
X7942235Y-7249373D01*
X7942235Y-7268421D01*
D13*
X6213188Y-7652706D02*
X6313188Y-7752706D01*
X6313188Y-7652706D02*
X6213188Y-7752706D01*
D12*
X6675568Y-7793182D02*
X6561283Y-7793182D01*
X6618426Y-7793182D02*
X6618426Y-7593182D01*
X6599378Y-7621754D01*
X6580330Y-7640802D01*
X6561283Y-7650325D01*
X6761283Y-7774135D02*
X6770807Y-7783659D01*
X6761283Y-7793182D01*
X6751759Y-7783659D01*
X6761283Y-7774135D01*
X6761283Y-7793182D01*
X6894616Y-7593182D02*
X6913664Y-7593182D01*
X6932711Y-7602706D01*
X6942235Y-7612230D01*
X6951759Y-7631278D01*
X6961283Y-7669373D01*
X6961283Y-7716992D01*
X6951759Y-7755087D01*
X6942235Y-7774135D01*
X6932711Y-7783659D01*
X6913664Y-7793182D01*
X6894616Y-7793182D01*
X6875568Y-7783659D01*
X6866045Y-7774135D01*
X6856521Y-7755087D01*
X6846997Y-7716992D01*
X6846997Y-7669373D01*
X6856521Y-7631278D01*
X6866045Y-7612230D01*
X6875568Y-7602706D01*
X6894616Y-7593182D01*
X7085092Y-7593182D02*
X7104140Y-7593182D01*
X7123188Y-7602706D01*
X7132711Y-7612230D01*
X7142235Y-7631278D01*
X7151759Y-7669373D01*
X7151759Y-7716992D01*
X7142235Y-7755087D01*
X7132711Y-7774135D01*
X7123188Y-7783659D01*
X7104140Y-7793182D01*
X7085092Y-7793182D01*
X7066045Y-7783659D01*
X7056521Y-7774135D01*
X7046997Y-7755087D01*
X7037473Y-7716992D01*
X7037473Y-7669373D01*
X7046997Y-7631278D01*
X7056521Y-7612230D01*
X7066045Y-7602706D01*
X7085092Y-7593182D01*
X7275568Y-7593182D02*
X7294616Y-7593182D01*
X7313664Y-7602706D01*
X7323188Y-7612230D01*
X7332711Y-7631278D01*
X7342235Y-7669373D01*
X7342235Y-7716992D01*
X7332711Y-7755087D01*
X7323188Y-7774135D01*
X7313664Y-7783659D01*
X7294616Y-7793182D01*
X7275568Y-7793182D01*
X7256521Y-7783659D01*
X7246997Y-7774135D01*
X7237473Y-7755087D01*
X7227949Y-7716992D01*
X7227949Y-7669373D01*
X7237473Y-7631278D01*
X7246997Y-7612230D01*
X7256521Y-7602706D01*
X7275568Y-7593182D01*
X7427949Y-7793182D02*
X7427949Y-7659849D01*
X7427949Y-7678897D02*
X7437473Y-7669373D01*
X7456521Y-7659849D01*
X7485092Y-7659849D01*
X7504140Y-7669373D01*
X7513664Y-7688421D01*
X7513664Y-7793182D01*
X7513664Y-7688421D02*
X7523188Y-7669373D01*
X7542235Y-7659849D01*
X7570807Y-7659849D01*
X7589854Y-7669373D01*
X7599378Y-7688421D01*
X7599378Y-7793182D01*
X7694616Y-7793182D02*
X7694616Y-7659849D01*
X7694616Y-7678897D02*
X7704140Y-7669373D01*
X7723188Y-7659849D01*
X7751759Y-7659849D01*
X7770807Y-7669373D01*
X7780330Y-7688421D01*
X7780330Y-7793182D01*
X7780330Y-7688421D02*
X7789854Y-7669373D01*
X7808902Y-7659849D01*
X7837473Y-7659849D01*
X7856521Y-7669373D01*
X7866045Y-7688421D01*
X7866045Y-7793182D01*
X8256521Y-7583659D02*
X8085092Y-7840802D01*
X8513664Y-7593182D02*
X8532711Y-7593182D01*
X8551759Y-7602706D01*
X8561283Y-7612230D01*
X8570807Y-7631278D01*
X8580330Y-7669373D01*
X8580330Y-7716992D01*
X8570807Y-7755087D01*
X8561283Y-7774135D01*
X8551759Y-7783659D01*
X8532711Y-7793182D01*
X8513664Y-7793182D01*
X8494616Y-7783659D01*
X8485092Y-7774135D01*
X8475569Y-7755087D01*
X8466045Y-7716992D01*
X8466045Y-7669373D01*
X8475569Y-7631278D01*
X8485092Y-7612230D01*
X8494616Y-7602706D01*
X8513664Y-7593182D01*
X8666045Y-7774135D02*
X8675569Y-7783659D01*
X8666045Y-7793182D01*
X8656521Y-7783659D01*
X8666045Y-7774135D01*
X8666045Y-7793182D01*
X8799378Y-7593182D02*
X8818426Y-7593182D01*
X8837473Y-7602706D01*
X8846997Y-7612230D01*
X8856521Y-7631278D01*
X8866045Y-7669373D01*
X8866045Y-7716992D01*
X8856521Y-7755087D01*
X8846997Y-7774135D01*
X8837473Y-7783659D01*
X8818426Y-7793182D01*
X8799378Y-7793182D01*
X8780330Y-7783659D01*
X8770807Y-7774135D01*
X8761283Y-7755087D01*
X8751759Y-7716992D01*
X8751759Y-7669373D01*
X8761283Y-7631278D01*
X8770807Y-7612230D01*
X8780330Y-7602706D01*
X8799378Y-7593182D01*
X8932711Y-7593182D02*
X9056521Y-7593182D01*
X8989854Y-7669373D01*
X9018426Y-7669373D01*
X9037473Y-7678897D01*
X9046997Y-7688421D01*
X9056521Y-7707468D01*
X9056521Y-7755087D01*
X9046997Y-7774135D01*
X9037473Y-7783659D01*
X9018426Y-7793182D01*
X8961283Y-7793182D01*
X8942235Y-7783659D01*
X8932711Y-7774135D01*
X9151759Y-7793182D02*
X9189854Y-7793182D01*
X9208902Y-7783659D01*
X9218426Y-7774135D01*
X9237473Y-7745563D01*
X9246997Y-7707468D01*
X9246997Y-7631278D01*
X9237473Y-7612230D01*
X9227950Y-7602706D01*
X9208902Y-7593182D01*
X9170807Y-7593182D01*
X9151759Y-7602706D01*
X9142235Y-7612230D01*
X9132711Y-7631278D01*
X9132711Y-7678897D01*
X9142235Y-7697944D01*
X9151759Y-7707468D01*
X9170807Y-7716992D01*
X9208902Y-7716992D01*
X9227950Y-7707468D01*
X9237473Y-7697944D01*
X9246997Y-7678897D01*
X9418426Y-7659849D02*
X9418426Y-7793182D01*
X9370807Y-7583659D02*
X9323188Y-7726516D01*
X9446997Y-7726516D01*
X9513664Y-7593182D02*
X9513664Y-7631278D01*
X9589854Y-7593182D02*
X9589854Y-7631278D01*
X9885092Y-7869373D02*
X9875569Y-7859849D01*
X9856521Y-7831278D01*
X9846997Y-7812230D01*
X9837473Y-7783659D01*
X9827950Y-7736040D01*
X9827950Y-7697944D01*
X9837473Y-7650325D01*
X9846997Y-7621754D01*
X9856521Y-7602706D01*
X9875569Y-7574135D01*
X9885092Y-7564611D01*
X10046997Y-7659849D02*
X10046997Y-7793182D01*
X9999378Y-7583659D02*
X9951759Y-7726516D01*
X10075569Y-7726516D01*
X10304140Y-7793182D02*
X10304140Y-7593182D01*
X10389854Y-7793182D02*
X10389854Y-7688421D01*
X10380330Y-7669373D01*
X10361283Y-7659849D01*
X10332711Y-7659849D01*
X10313664Y-7669373D01*
X10304140Y-7678897D01*
X10513664Y-7793182D02*
X10494616Y-7783659D01*
X10485092Y-7774135D01*
X10475569Y-7755087D01*
X10475569Y-7697944D01*
X10485092Y-7678897D01*
X10494616Y-7669373D01*
X10513664Y-7659849D01*
X10542235Y-7659849D01*
X10561283Y-7669373D01*
X10570807Y-7678897D01*
X10580330Y-7697944D01*
X10580330Y-7755087D01*
X10570807Y-7774135D01*
X10561283Y-7783659D01*
X10542235Y-7793182D01*
X10513664Y-7793182D01*
X10694616Y-7793182D02*
X10675569Y-7783659D01*
X10666045Y-7764611D01*
X10666045Y-7593182D01*
X10846997Y-7783659D02*
X10827950Y-7793182D01*
X10789854Y-7793182D01*
X10770807Y-7783659D01*
X10761283Y-7764611D01*
X10761283Y-7688421D01*
X10770807Y-7669373D01*
X10789854Y-7659849D01*
X10827950Y-7659849D01*
X10846997Y-7669373D01*
X10856521Y-7688421D01*
X10856521Y-7707468D01*
X10761283Y-7726516D01*
X10932711Y-7783659D02*
X10951759Y-7793182D01*
X10989854Y-7793182D01*
X11008902Y-7783659D01*
X11018426Y-7764611D01*
X11018426Y-7755087D01*
X11008902Y-7736040D01*
X10989854Y-7726516D01*
X10961283Y-7726516D01*
X10942235Y-7716992D01*
X10932711Y-7697944D01*
X10932711Y-7688421D01*
X10942235Y-7669373D01*
X10961283Y-7659849D01*
X10989854Y-7659849D01*
X11008902Y-7669373D01*
X11085092Y-7869373D02*
X11094616Y-7859849D01*
X11113664Y-7831278D01*
X11123188Y-7812230D01*
X11132711Y-7783659D01*
X11142235Y-7736040D01*
X11142235Y-7697944D01*
X11132711Y-7650325D01*
X11123188Y-7621754D01*
X11113664Y-7602706D01*
X11094616Y-7574135D01*
X11085092Y-7564611D01*
M02*
