%FSLAX45Y45*%
G04 Gerber Fmt 4.5, Leading zero omitted, Abs format (unit mm)*
G04 Created by KiCad (PCBNEW (6.0.6)) date 2022-11-10 16:32:23*
%MOMM*%
%LPD*%
G01*
G04 APERTURE LIST*
%TA.AperFunction,Profile*%
%ADD10C,0.025400*%
%TD*%
%TA.AperFunction,Profile*%
%ADD11C,3.213100*%
%TD*%
%ADD12C,0.200000*%
%ADD13C,0.100000*%
G04 APERTURE END LIST*
D10*
X8238127Y-5612452D02*
G75*
G03*
X8209672Y-6942810I-503371J-654717D01*
G01*
D11*
X40933127Y-6257010D02*
G75*
G03*
X40933127Y-6257010I-160655J0D01*
G01*
D10*
X9403472Y-5622010D02*
X9682872Y-5876010D01*
X40264473Y-6638010D02*
G75*
G03*
X40264472Y-5876010I508367J381000D01*
G01*
X8238127Y-5612451D02*
X9403472Y-5622010D01*
X8209672Y-6942810D02*
X9403472Y-6942810D01*
X40264472Y-6638010D02*
X9733672Y-6663410D01*
D11*
X7902967Y-6257010D02*
G75*
G03*
X7902967Y-6257010I-160655J0D01*
G01*
D10*
X9733672Y-6663410D02*
X9403472Y-6942810D01*
X9682872Y-5876010D02*
X40264472Y-5876010D01*
D12*
D13*
X9023272Y-5827010D02*
X9123272Y-5927010D01*
X9123272Y-5827010D02*
X9023272Y-5927010D01*
X9023272Y-6081010D02*
X9123272Y-6181010D01*
X9123272Y-6081010D02*
X9023272Y-6181010D01*
X9023272Y-6335010D02*
X9123272Y-6435010D01*
X9123272Y-6335010D02*
X9023272Y-6435010D01*
X9023272Y-6589010D02*
X9123272Y-6689010D01*
X9123272Y-6589010D02*
X9023272Y-6689010D01*
D12*
X7165250Y-7404770D02*
X7165250Y-7204770D01*
X7212869Y-7204770D01*
X7241440Y-7214294D01*
X7260488Y-7233342D01*
X7270012Y-7252389D01*
X7279535Y-7290485D01*
X7279535Y-7319056D01*
X7270012Y-7357151D01*
X7260488Y-7376199D01*
X7241440Y-7395246D01*
X7212869Y-7404770D01*
X7165250Y-7404770D01*
X7365250Y-7404770D02*
X7365250Y-7271437D01*
X7365250Y-7309532D02*
X7374774Y-7290485D01*
X7384297Y-7280961D01*
X7403345Y-7271437D01*
X7422393Y-7271437D01*
X7489059Y-7404770D02*
X7489059Y-7271437D01*
X7489059Y-7204770D02*
X7479535Y-7214294D01*
X7489059Y-7223818D01*
X7498583Y-7214294D01*
X7489059Y-7204770D01*
X7489059Y-7223818D01*
X7612869Y-7404770D02*
X7593821Y-7395246D01*
X7584297Y-7376199D01*
X7584297Y-7204770D01*
X7717631Y-7404770D02*
X7698583Y-7395246D01*
X7689059Y-7376199D01*
X7689059Y-7204770D01*
X7946202Y-7404770D02*
X7946202Y-7204770D01*
X8012869Y-7347627D01*
X8079535Y-7204770D01*
X8079535Y-7404770D01*
X8260488Y-7404770D02*
X8260488Y-7300008D01*
X8250964Y-7280961D01*
X8231916Y-7271437D01*
X8193821Y-7271437D01*
X8174774Y-7280961D01*
X8260488Y-7395246D02*
X8241440Y-7404770D01*
X8193821Y-7404770D01*
X8174774Y-7395246D01*
X8165250Y-7376199D01*
X8165250Y-7357151D01*
X8174774Y-7338104D01*
X8193821Y-7328580D01*
X8241440Y-7328580D01*
X8260488Y-7319056D01*
X8355726Y-7271437D02*
X8355726Y-7471437D01*
X8355726Y-7280961D02*
X8374774Y-7271437D01*
X8412869Y-7271437D01*
X8431917Y-7280961D01*
X8441440Y-7290485D01*
X8450964Y-7309532D01*
X8450964Y-7366675D01*
X8441440Y-7385723D01*
X8431917Y-7395246D01*
X8412869Y-7404770D01*
X8374774Y-7404770D01*
X8355726Y-7395246D01*
X8536678Y-7385723D02*
X8546202Y-7395246D01*
X8536678Y-7404770D01*
X8527155Y-7395246D01*
X8536678Y-7385723D01*
X8536678Y-7404770D01*
X8536678Y-7280961D02*
X8546202Y-7290485D01*
X8536678Y-7300008D01*
X8527155Y-7290485D01*
X8536678Y-7280961D01*
X8536678Y-7300008D01*
D13*
X6807631Y-7684294D02*
X6907631Y-7784294D01*
X6907631Y-7684294D02*
X6807631Y-7784294D01*
D12*
X7270012Y-7824770D02*
X7155726Y-7824770D01*
X7212869Y-7824770D02*
X7212869Y-7624770D01*
X7193821Y-7653342D01*
X7174774Y-7672389D01*
X7155726Y-7681913D01*
X7355726Y-7805723D02*
X7365250Y-7815246D01*
X7355726Y-7824770D01*
X7346202Y-7815246D01*
X7355726Y-7805723D01*
X7355726Y-7824770D01*
X7489059Y-7624770D02*
X7508107Y-7624770D01*
X7527155Y-7634294D01*
X7536678Y-7643818D01*
X7546202Y-7662866D01*
X7555726Y-7700961D01*
X7555726Y-7748580D01*
X7546202Y-7786675D01*
X7536678Y-7805723D01*
X7527155Y-7815246D01*
X7508107Y-7824770D01*
X7489059Y-7824770D01*
X7470012Y-7815246D01*
X7460488Y-7805723D01*
X7450964Y-7786675D01*
X7441440Y-7748580D01*
X7441440Y-7700961D01*
X7450964Y-7662866D01*
X7460488Y-7643818D01*
X7470012Y-7634294D01*
X7489059Y-7624770D01*
X7679535Y-7624770D02*
X7698583Y-7624770D01*
X7717631Y-7634294D01*
X7727155Y-7643818D01*
X7736678Y-7662866D01*
X7746202Y-7700961D01*
X7746202Y-7748580D01*
X7736678Y-7786675D01*
X7727155Y-7805723D01*
X7717631Y-7815246D01*
X7698583Y-7824770D01*
X7679535Y-7824770D01*
X7660488Y-7815246D01*
X7650964Y-7805723D01*
X7641440Y-7786675D01*
X7631916Y-7748580D01*
X7631916Y-7700961D01*
X7641440Y-7662866D01*
X7650964Y-7643818D01*
X7660488Y-7634294D01*
X7679535Y-7624770D01*
X7870012Y-7624770D02*
X7889059Y-7624770D01*
X7908107Y-7634294D01*
X7917631Y-7643818D01*
X7927155Y-7662866D01*
X7936678Y-7700961D01*
X7936678Y-7748580D01*
X7927155Y-7786675D01*
X7917631Y-7805723D01*
X7908107Y-7815246D01*
X7889059Y-7824770D01*
X7870012Y-7824770D01*
X7850964Y-7815246D01*
X7841440Y-7805723D01*
X7831916Y-7786675D01*
X7822393Y-7748580D01*
X7822393Y-7700961D01*
X7831916Y-7662866D01*
X7841440Y-7643818D01*
X7850964Y-7634294D01*
X7870012Y-7624770D01*
X8022393Y-7824770D02*
X8022393Y-7691437D01*
X8022393Y-7710485D02*
X8031916Y-7700961D01*
X8050964Y-7691437D01*
X8079535Y-7691437D01*
X8098583Y-7700961D01*
X8108107Y-7720008D01*
X8108107Y-7824770D01*
X8108107Y-7720008D02*
X8117631Y-7700961D01*
X8136678Y-7691437D01*
X8165250Y-7691437D01*
X8184297Y-7700961D01*
X8193821Y-7720008D01*
X8193821Y-7824770D01*
X8289059Y-7824770D02*
X8289059Y-7691437D01*
X8289059Y-7710485D02*
X8298583Y-7700961D01*
X8317631Y-7691437D01*
X8346202Y-7691437D01*
X8365250Y-7700961D01*
X8374774Y-7720008D01*
X8374774Y-7824770D01*
X8374774Y-7720008D02*
X8384297Y-7700961D01*
X8403345Y-7691437D01*
X8431917Y-7691437D01*
X8450964Y-7700961D01*
X8460488Y-7720008D01*
X8460488Y-7824770D01*
X8850964Y-7615246D02*
X8679536Y-7872389D01*
X9108107Y-7624770D02*
X9127155Y-7624770D01*
X9146202Y-7634294D01*
X9155726Y-7643818D01*
X9165250Y-7662866D01*
X9174774Y-7700961D01*
X9174774Y-7748580D01*
X9165250Y-7786675D01*
X9155726Y-7805723D01*
X9146202Y-7815246D01*
X9127155Y-7824770D01*
X9108107Y-7824770D01*
X9089059Y-7815246D01*
X9079536Y-7805723D01*
X9070012Y-7786675D01*
X9060488Y-7748580D01*
X9060488Y-7700961D01*
X9070012Y-7662866D01*
X9079536Y-7643818D01*
X9089059Y-7634294D01*
X9108107Y-7624770D01*
X9260488Y-7805723D02*
X9270012Y-7815246D01*
X9260488Y-7824770D01*
X9250964Y-7815246D01*
X9260488Y-7805723D01*
X9260488Y-7824770D01*
X9393821Y-7624770D02*
X9412869Y-7624770D01*
X9431917Y-7634294D01*
X9441440Y-7643818D01*
X9450964Y-7662866D01*
X9460488Y-7700961D01*
X9460488Y-7748580D01*
X9450964Y-7786675D01*
X9441440Y-7805723D01*
X9431917Y-7815246D01*
X9412869Y-7824770D01*
X9393821Y-7824770D01*
X9374774Y-7815246D01*
X9365250Y-7805723D01*
X9355726Y-7786675D01*
X9346202Y-7748580D01*
X9346202Y-7700961D01*
X9355726Y-7662866D01*
X9365250Y-7643818D01*
X9374774Y-7634294D01*
X9393821Y-7624770D01*
X9527155Y-7624770D02*
X9650964Y-7624770D01*
X9584297Y-7700961D01*
X9612869Y-7700961D01*
X9631917Y-7710485D01*
X9641440Y-7720008D01*
X9650964Y-7739056D01*
X9650964Y-7786675D01*
X9641440Y-7805723D01*
X9631917Y-7815246D01*
X9612869Y-7824770D01*
X9555726Y-7824770D01*
X9536678Y-7815246D01*
X9527155Y-7805723D01*
X9746202Y-7824770D02*
X9784297Y-7824770D01*
X9803345Y-7815246D01*
X9812869Y-7805723D01*
X9831917Y-7777151D01*
X9841440Y-7739056D01*
X9841440Y-7662866D01*
X9831917Y-7643818D01*
X9822393Y-7634294D01*
X9803345Y-7624770D01*
X9765250Y-7624770D01*
X9746202Y-7634294D01*
X9736678Y-7643818D01*
X9727155Y-7662866D01*
X9727155Y-7710485D01*
X9736678Y-7729532D01*
X9746202Y-7739056D01*
X9765250Y-7748580D01*
X9803345Y-7748580D01*
X9822393Y-7739056D01*
X9831917Y-7729532D01*
X9841440Y-7710485D01*
X10012869Y-7691437D02*
X10012869Y-7824770D01*
X9965250Y-7615246D02*
X9917631Y-7758104D01*
X10041440Y-7758104D01*
X10108107Y-7624770D02*
X10108107Y-7662866D01*
X10184297Y-7624770D02*
X10184297Y-7662866D01*
X10479536Y-7900961D02*
X10470012Y-7891437D01*
X10450964Y-7862866D01*
X10441440Y-7843818D01*
X10431917Y-7815246D01*
X10422393Y-7767627D01*
X10422393Y-7729532D01*
X10431917Y-7681913D01*
X10441440Y-7653342D01*
X10450964Y-7634294D01*
X10470012Y-7605723D01*
X10479536Y-7596199D01*
X10641440Y-7691437D02*
X10641440Y-7824770D01*
X10593821Y-7615246D02*
X10546202Y-7758104D01*
X10670012Y-7758104D01*
X10898583Y-7824770D02*
X10898583Y-7624770D01*
X10984297Y-7824770D02*
X10984297Y-7720008D01*
X10974774Y-7700961D01*
X10955726Y-7691437D01*
X10927155Y-7691437D01*
X10908107Y-7700961D01*
X10898583Y-7710485D01*
X11108107Y-7824770D02*
X11089059Y-7815246D01*
X11079536Y-7805723D01*
X11070012Y-7786675D01*
X11070012Y-7729532D01*
X11079536Y-7710485D01*
X11089059Y-7700961D01*
X11108107Y-7691437D01*
X11136678Y-7691437D01*
X11155726Y-7700961D01*
X11165250Y-7710485D01*
X11174774Y-7729532D01*
X11174774Y-7786675D01*
X11165250Y-7805723D01*
X11155726Y-7815246D01*
X11136678Y-7824770D01*
X11108107Y-7824770D01*
X11289059Y-7824770D02*
X11270012Y-7815246D01*
X11260488Y-7796199D01*
X11260488Y-7624770D01*
X11441440Y-7815246D02*
X11422393Y-7824770D01*
X11384297Y-7824770D01*
X11365250Y-7815246D01*
X11355726Y-7796199D01*
X11355726Y-7720008D01*
X11365250Y-7700961D01*
X11384297Y-7691437D01*
X11422393Y-7691437D01*
X11441440Y-7700961D01*
X11450964Y-7720008D01*
X11450964Y-7739056D01*
X11355726Y-7758104D01*
X11527155Y-7815246D02*
X11546202Y-7824770D01*
X11584297Y-7824770D01*
X11603345Y-7815246D01*
X11612869Y-7796199D01*
X11612869Y-7786675D01*
X11603345Y-7767627D01*
X11584297Y-7758104D01*
X11555726Y-7758104D01*
X11536678Y-7748580D01*
X11527155Y-7729532D01*
X11527155Y-7720008D01*
X11536678Y-7700961D01*
X11555726Y-7691437D01*
X11584297Y-7691437D01*
X11603345Y-7700961D01*
X11679535Y-7900961D02*
X11689059Y-7891437D01*
X11708107Y-7862866D01*
X11717631Y-7843818D01*
X11727155Y-7815246D01*
X11736678Y-7767627D01*
X11736678Y-7729532D01*
X11727155Y-7681913D01*
X11717631Y-7653342D01*
X11708107Y-7634294D01*
X11689059Y-7605723D01*
X11679535Y-7596199D01*
M02*
