G04 #@! TF.GenerationSoftware,KiCad,Pcbnew,(6.0.6)*
G04 #@! TF.CreationDate,2022-11-10T16:32:18-05:00*
G04 #@! TF.ProjectId,pov_display,706f765f-6469-4737-906c-61792e6b6963,v01*
G04 #@! TF.SameCoordinates,Original*
G04 #@! TF.FileFunction,Copper,L1,Top*
G04 #@! TF.FilePolarity,Positive*
%FSLAX46Y46*%
G04 Gerber Fmt 4.6, Leading zero omitted, Abs format (unit mm)*
G04 Created by KiCad (PCBNEW (6.0.6)) date 2022-11-10 16:32:18*
%MOMM*%
%LPD*%
G01*
G04 APERTURE LIST*
G04 #@! TA.AperFunction,SMDPad,CuDef*
%ADD10R,2.000000X1.100000*%
G04 #@! TD*
G04 #@! TA.AperFunction,ComponentPad*
%ADD11R,1.700000X1.700000*%
G04 #@! TD*
G04 #@! TA.AperFunction,ComponentPad*
%ADD12O,1.700000X1.700000*%
G04 #@! TD*
G04 #@! TA.AperFunction,Conductor*
%ADD13C,0.254000*%
G04 #@! TD*
G04 #@! TA.AperFunction,Conductor*
%ADD14C,1.016000*%
G04 #@! TD*
G04 APERTURE END LIST*
D10*
X250384723Y-60870104D03*
X250384723Y-62570104D03*
X250384723Y-64270104D03*
X255184723Y-64270104D03*
X255184723Y-62570104D03*
X255184723Y-60870104D03*
X395164723Y-60870104D03*
X395164723Y-62570104D03*
X395164723Y-64270104D03*
X399964723Y-64270104D03*
X399964723Y-62570104D03*
X399964723Y-60870104D03*
X212284723Y-60870104D03*
X212284723Y-62570104D03*
X212284723Y-64270104D03*
X217084723Y-64270104D03*
X217084723Y-62570104D03*
X217084723Y-60870104D03*
X174184723Y-60870104D03*
X174184723Y-62570104D03*
X174184723Y-64270104D03*
X178984723Y-64270104D03*
X178984723Y-62570104D03*
X178984723Y-60870104D03*
X105604723Y-60870104D03*
X105604723Y-62570104D03*
X105604723Y-64270104D03*
X110404723Y-64270104D03*
X110404723Y-62570104D03*
X110404723Y-60870104D03*
X280864723Y-60870104D03*
X280864723Y-62570104D03*
X280864723Y-64270104D03*
X285664723Y-64270104D03*
X285664723Y-62570104D03*
X285664723Y-60870104D03*
X357064723Y-60870104D03*
X357064723Y-62570104D03*
X357064723Y-64270104D03*
X361864723Y-64270104D03*
X361864723Y-62570104D03*
X361864723Y-60870104D03*
X120844723Y-60870104D03*
X120844723Y-62570104D03*
X120844723Y-64270104D03*
X125644723Y-64270104D03*
X125644723Y-62570104D03*
X125644723Y-60870104D03*
X113224723Y-60870104D03*
X113224723Y-62570104D03*
X113224723Y-64270104D03*
X118024723Y-64270104D03*
X118024723Y-62570104D03*
X118024723Y-60870104D03*
X166564723Y-60870104D03*
X166564723Y-62570104D03*
X166564723Y-64270104D03*
X171364723Y-64270104D03*
X171364723Y-62570104D03*
X171364723Y-60870104D03*
X181804723Y-60870104D03*
X181804723Y-62570104D03*
X181804723Y-64270104D03*
X186604723Y-64270104D03*
X186604723Y-62570104D03*
X186604723Y-60870104D03*
X265624723Y-60870104D03*
X265624723Y-62570104D03*
X265624723Y-64270104D03*
X270424723Y-64270104D03*
X270424723Y-62570104D03*
X270424723Y-60870104D03*
X97984723Y-60870104D03*
X97984723Y-62570104D03*
X97984723Y-64270104D03*
X102784723Y-64270104D03*
X102784723Y-62570104D03*
X102784723Y-60870104D03*
X273244723Y-60870104D03*
X273244723Y-62570104D03*
X273244723Y-64270104D03*
X278044723Y-64270104D03*
X278044723Y-62570104D03*
X278044723Y-60870104D03*
X341824723Y-60870104D03*
X341824723Y-62570104D03*
X341824723Y-64270104D03*
X346624723Y-64270104D03*
X346624723Y-62570104D03*
X346624723Y-60870104D03*
X326584723Y-60870104D03*
X326584723Y-62570104D03*
X326584723Y-64270104D03*
X331384723Y-64270104D03*
X331384723Y-62570104D03*
X331384723Y-60870104D03*
D11*
X90732723Y-58770104D03*
D12*
X90732723Y-61310104D03*
X90732723Y-63850104D03*
X90732723Y-66390104D03*
D10*
X258004723Y-60870104D03*
X258004723Y-62570104D03*
X258004723Y-64270104D03*
X262804723Y-64270104D03*
X262804723Y-62570104D03*
X262804723Y-60870104D03*
X158944723Y-60870104D03*
X158944723Y-62570104D03*
X158944723Y-64270104D03*
X163744723Y-64270104D03*
X163744723Y-62570104D03*
X163744723Y-60870104D03*
X349444723Y-60870104D03*
X349444723Y-62570104D03*
X349444723Y-64270104D03*
X354244723Y-64270104D03*
X354244723Y-62570104D03*
X354244723Y-60870104D03*
X242764723Y-60870104D03*
X242764723Y-62570104D03*
X242764723Y-64270104D03*
X247564723Y-64270104D03*
X247564723Y-62570104D03*
X247564723Y-60870104D03*
X136084723Y-60870104D03*
X136084723Y-62570104D03*
X136084723Y-64270104D03*
X140884723Y-64270104D03*
X140884723Y-62570104D03*
X140884723Y-60870104D03*
X143704723Y-60870104D03*
X143704723Y-62570104D03*
X143704723Y-64270104D03*
X148504723Y-64270104D03*
X148504723Y-62570104D03*
X148504723Y-60870104D03*
X364684723Y-60870104D03*
X364684723Y-62570104D03*
X364684723Y-64270104D03*
X369484723Y-64270104D03*
X369484723Y-62570104D03*
X369484723Y-60870104D03*
X227524723Y-60870104D03*
X227524723Y-62570104D03*
X227524723Y-64270104D03*
X232324723Y-64270104D03*
X232324723Y-62570104D03*
X232324723Y-60870104D03*
X311344723Y-60870104D03*
X311344723Y-62570104D03*
X311344723Y-64270104D03*
X316144723Y-64270104D03*
X316144723Y-62570104D03*
X316144723Y-60870104D03*
X151324723Y-60870104D03*
X151324723Y-62570104D03*
X151324723Y-64270104D03*
X156124723Y-64270104D03*
X156124723Y-62570104D03*
X156124723Y-60870104D03*
X197044723Y-60870104D03*
X197044723Y-62570104D03*
X197044723Y-64270104D03*
X201844723Y-64270104D03*
X201844723Y-62570104D03*
X201844723Y-60870104D03*
X379924723Y-60870104D03*
X379924723Y-62570104D03*
X379924723Y-64270104D03*
X384724723Y-64270104D03*
X384724723Y-62570104D03*
X384724723Y-60870104D03*
X235144723Y-60870104D03*
X235144723Y-62570104D03*
X235144723Y-64270104D03*
X239944723Y-64270104D03*
X239944723Y-62570104D03*
X239944723Y-60870104D03*
X296104723Y-60870104D03*
X296104723Y-62570104D03*
X296104723Y-64270104D03*
X300904723Y-64270104D03*
X300904723Y-62570104D03*
X300904723Y-60870104D03*
X387684723Y-60870104D03*
X387684723Y-62570104D03*
X387684723Y-64270104D03*
X392484723Y-64270104D03*
X392484723Y-62570104D03*
X392484723Y-60870104D03*
X334204723Y-60870104D03*
X334204723Y-62570104D03*
X334204723Y-64270104D03*
X339004723Y-64270104D03*
X339004723Y-62570104D03*
X339004723Y-60870104D03*
X288484723Y-60870104D03*
X288484723Y-62570104D03*
X288484723Y-64270104D03*
X293284723Y-64270104D03*
X293284723Y-62570104D03*
X293284723Y-60870104D03*
X128464723Y-60870104D03*
X128464723Y-62570104D03*
X128464723Y-64270104D03*
X133264723Y-64270104D03*
X133264723Y-62570104D03*
X133264723Y-60870104D03*
X303724723Y-60870104D03*
X303724723Y-62570104D03*
X303724723Y-64270104D03*
X308524723Y-64270104D03*
X308524723Y-62570104D03*
X308524723Y-60870104D03*
X189424723Y-60870104D03*
X189424723Y-62570104D03*
X189424723Y-64270104D03*
X194224723Y-64270104D03*
X194224723Y-62570104D03*
X194224723Y-60870104D03*
X219904723Y-60870104D03*
X219904723Y-62570104D03*
X219904723Y-64270104D03*
X224704723Y-64270104D03*
X224704723Y-62570104D03*
X224704723Y-60870104D03*
X318964723Y-60870104D03*
X318964723Y-62570104D03*
X318964723Y-64270104D03*
X323764723Y-64270104D03*
X323764723Y-62570104D03*
X323764723Y-60870104D03*
X204664723Y-60870104D03*
X204664723Y-62570104D03*
X204664723Y-64270104D03*
X209464723Y-64270104D03*
X209464723Y-62570104D03*
X209464723Y-60870104D03*
X372304723Y-60870104D03*
X372304723Y-62570104D03*
X372304723Y-64270104D03*
X377104723Y-64270104D03*
X377104723Y-62570104D03*
X377104723Y-60870104D03*
D13*
X91172723Y-60870104D02*
X90732723Y-61310104D01*
X97984723Y-60870104D02*
X91172723Y-60870104D01*
X90732723Y-63850104D02*
X93008723Y-63850104D01*
X94288723Y-62570104D02*
X97984723Y-62570104D01*
X93008723Y-63850104D02*
X94288723Y-62570104D01*
X97896723Y-64358104D02*
X97984723Y-64270104D01*
D14*
X90996723Y-66126104D02*
X92764723Y-66126104D01*
D13*
X92764723Y-66126104D02*
X94532723Y-64358104D01*
D14*
X90732723Y-66390104D02*
X90996723Y-66126104D01*
D13*
X94532723Y-64358104D02*
X97896723Y-64358104D01*
X101436723Y-65618104D02*
X102784723Y-64270104D01*
X154232723Y-65618104D02*
X154776723Y-65618104D01*
D14*
X382832723Y-65618104D02*
X390198723Y-65618104D01*
X90732723Y-58770104D02*
X88446723Y-61056104D01*
D13*
X284316723Y-65618104D02*
X285664723Y-64270104D01*
X185256723Y-65618104D02*
X186604723Y-64270104D01*
X391136723Y-65618104D02*
X392484723Y-64270104D01*
D14*
X168964723Y-65618104D02*
X177092723Y-65618104D01*
X124006723Y-65618104D02*
X131626723Y-65618104D01*
X299556723Y-65618104D02*
X306378723Y-65618104D01*
D13*
X147156723Y-65618104D02*
X148504723Y-64270104D01*
X230976723Y-65618104D02*
X232324723Y-64270104D01*
D14*
X101436723Y-65618104D02*
X109056723Y-65618104D01*
D13*
X269076723Y-65618104D02*
X270424723Y-64270104D01*
X215192723Y-65618104D02*
X215736723Y-65618104D01*
X306378723Y-65618104D02*
X307176723Y-65618104D01*
X321110723Y-65618104D02*
X322416723Y-65618104D01*
X382832723Y-65618104D02*
X383376723Y-65618104D01*
X246216723Y-65618104D02*
X247564723Y-64270104D01*
X268786723Y-65618104D02*
X269076723Y-65618104D01*
X383376723Y-65618104D02*
X384724723Y-64270104D01*
X116676723Y-65618104D02*
X118024723Y-64270104D01*
X170016723Y-65618104D02*
X171364723Y-64270104D01*
D14*
X93853386Y-68412104D02*
X96487266Y-66257111D01*
D13*
X116640723Y-65618104D02*
X116676723Y-65618104D01*
D14*
X89970723Y-68412104D02*
X93853386Y-68412104D01*
D13*
X375756723Y-65618104D02*
X377104723Y-64270104D01*
D14*
X131626723Y-65618104D02*
X138992723Y-65618104D01*
D13*
X215736723Y-65618104D02*
X217084723Y-64270104D01*
X200496723Y-65618104D02*
X201844723Y-64270104D01*
X322416723Y-65618104D02*
X323764723Y-64270104D01*
X368136723Y-65618104D02*
X369484723Y-64270104D01*
D14*
X109056723Y-65618104D02*
X116640723Y-65618104D01*
X328984723Y-65618104D02*
X337112723Y-65618104D01*
X177092723Y-65618104D02*
X183950723Y-65618104D01*
X161852723Y-65618104D02*
X168964723Y-65618104D01*
X344224723Y-65618104D02*
X351082723Y-65618104D01*
D13*
X337656723Y-65618104D02*
X339004723Y-64270104D01*
X109056723Y-65618104D02*
X110404723Y-64270104D01*
D14*
X96487266Y-66257111D02*
X97126273Y-65618104D01*
D13*
X124006723Y-65618104D02*
X124296723Y-65618104D01*
X345276723Y-65618104D02*
X346624723Y-64270104D01*
D14*
X366322723Y-65618104D02*
X375466723Y-65618104D01*
D13*
X161852723Y-65618104D02*
X162396723Y-65618104D01*
D14*
X245418723Y-65618104D02*
X253292723Y-65618104D01*
D13*
X375466723Y-65618104D02*
X375756723Y-65618104D01*
X390198723Y-65618104D02*
X391136723Y-65618104D01*
D14*
X215192723Y-65618104D02*
X222304723Y-65618104D01*
D13*
X351082723Y-65618104D02*
X352896723Y-65618104D01*
D14*
X230432723Y-65618104D02*
X238306723Y-65618104D01*
D13*
X253836723Y-65618104D02*
X255184723Y-64270104D01*
X261456723Y-65618104D02*
X262804723Y-64270104D01*
D14*
X146612723Y-65618104D02*
X154232723Y-65618104D01*
X222304723Y-65618104D02*
X230432723Y-65618104D01*
D13*
X337112723Y-65618104D02*
X337656723Y-65618104D01*
X138992723Y-65618104D02*
X139536723Y-65618104D01*
D14*
X116640723Y-65618104D02*
X124006723Y-65618104D01*
X260658723Y-65618104D02*
X268786723Y-65618104D01*
D13*
X307176723Y-65618104D02*
X308524723Y-64270104D01*
X398616723Y-65618104D02*
X399964723Y-64270104D01*
X177636723Y-65618104D02*
X178984723Y-64270104D01*
X245418723Y-65618104D02*
X246216723Y-65618104D01*
X222304723Y-65618104D02*
X223356723Y-65618104D01*
D14*
X97126273Y-65618104D02*
X101436723Y-65618104D01*
D13*
X328984723Y-65618104D02*
X330036723Y-65618104D01*
X284026723Y-65618104D02*
X284316723Y-65618104D01*
X253292723Y-65618104D02*
X253836723Y-65618104D01*
D14*
X337112723Y-65618104D02*
X344224723Y-65618104D01*
D13*
X276696723Y-65618104D02*
X278044723Y-64270104D01*
X313998723Y-65618104D02*
X314796723Y-65618104D01*
X207826723Y-65618104D02*
X208116723Y-65618104D01*
D14*
X183950723Y-65618104D02*
X192332723Y-65618104D01*
X199444723Y-65618104D02*
X207826723Y-65618104D01*
D13*
X162396723Y-65618104D02*
X163744723Y-64270104D01*
X192876723Y-65618104D02*
X194224723Y-64270104D01*
X330036723Y-65618104D02*
X331384723Y-64270104D01*
D14*
X88446723Y-66888104D02*
X89970723Y-68412104D01*
D13*
X299556723Y-65618104D02*
X300904723Y-64270104D01*
D14*
X192332723Y-65618104D02*
X199444723Y-65618104D01*
D13*
X238596723Y-65618104D02*
X239944723Y-64270104D01*
X124296723Y-65618104D02*
X125644723Y-64270104D01*
X131916723Y-65618104D02*
X133264723Y-64270104D01*
X230432723Y-65618104D02*
X230976723Y-65618104D01*
D14*
X291936723Y-65618104D02*
X299556723Y-65618104D01*
D13*
X360516723Y-65618104D02*
X361864723Y-64270104D01*
D14*
X313998723Y-65618104D02*
X321110723Y-65618104D01*
D13*
X238306723Y-65618104D02*
X238596723Y-65618104D01*
X359718723Y-65618104D02*
X360516723Y-65618104D01*
X146612723Y-65618104D02*
X147156723Y-65618104D01*
D14*
X88446723Y-61056104D02*
X88446723Y-66888104D01*
X276696723Y-65618104D02*
X284026723Y-65618104D01*
D13*
X352896723Y-65618104D02*
X354244723Y-64270104D01*
X177092723Y-65618104D02*
X177636723Y-65618104D01*
D14*
X138992723Y-65618104D02*
X146612723Y-65618104D01*
D13*
X223356723Y-65618104D02*
X224704723Y-64270104D01*
X344224723Y-65618104D02*
X345276723Y-65618104D01*
D14*
X253292723Y-65618104D02*
X260658723Y-65618104D01*
D13*
X366322723Y-65618104D02*
X368136723Y-65618104D01*
X131626723Y-65618104D02*
X131916723Y-65618104D01*
D14*
X375466723Y-65618104D02*
X382832723Y-65618104D01*
X359718723Y-65618104D02*
X366322723Y-65618104D01*
D13*
X168964723Y-65618104D02*
X170016723Y-65618104D01*
D14*
X390198723Y-65618104D02*
X398616723Y-65618104D01*
D13*
X154776723Y-65618104D02*
X156124723Y-64270104D01*
X314796723Y-65618104D02*
X316144723Y-64270104D01*
D14*
X321110723Y-65618104D02*
X328984723Y-65618104D01*
D13*
X291936723Y-65618104D02*
X293284723Y-64270104D01*
D14*
X207826723Y-65618104D02*
X215192723Y-65618104D01*
D13*
X183950723Y-65618104D02*
X185256723Y-65618104D01*
X199444723Y-65618104D02*
X200496723Y-65618104D01*
D14*
X238306723Y-65618104D02*
X245418723Y-65618104D01*
X268786723Y-65618104D02*
X276696723Y-65618104D01*
D13*
X208116723Y-65618104D02*
X209464723Y-64270104D01*
X260658723Y-65618104D02*
X261456723Y-65618104D01*
D14*
X351082723Y-65618104D02*
X359718723Y-65618104D01*
D13*
X192332723Y-65618104D02*
X192876723Y-65618104D01*
X139536723Y-65618104D02*
X140884723Y-64270104D01*
D14*
X306378723Y-65618104D02*
X313998723Y-65618104D01*
X284026723Y-65618104D02*
X291936723Y-65618104D01*
X154232723Y-65618104D02*
X161852723Y-65618104D01*
D13*
X110404723Y-62570104D02*
X113224723Y-62570104D01*
X110404723Y-60870104D02*
X113224723Y-60870104D01*
X118024723Y-62570104D02*
X120844723Y-62570104D01*
X120844723Y-60870104D02*
X118024723Y-60870104D01*
X125644723Y-62570104D02*
X128464723Y-62570104D01*
X125644723Y-60870104D02*
X128464723Y-60870104D01*
X133264723Y-62570104D02*
X136084723Y-62570104D01*
X133264723Y-60870104D02*
X136084723Y-60870104D01*
X140884723Y-62570104D02*
X143704723Y-62570104D01*
X140884723Y-60870104D02*
X143704723Y-60870104D01*
X148504723Y-62570104D02*
X151324723Y-62570104D01*
X148504723Y-60870104D02*
X151324723Y-60870104D01*
X102784723Y-62570104D02*
X105604723Y-62570104D01*
X102784723Y-60870104D02*
X105604723Y-60870104D01*
X178984723Y-62570104D02*
X181804723Y-62570104D01*
X178984723Y-60870104D02*
X181804723Y-60870104D01*
X186604723Y-62570104D02*
X189424723Y-62570104D01*
X186604723Y-60870104D02*
X189424723Y-60870104D01*
X194224723Y-62570104D02*
X197044723Y-62570104D01*
X194224723Y-60870104D02*
X197044723Y-60870104D01*
X201844723Y-62570104D02*
X204664723Y-62570104D01*
X201844723Y-60870104D02*
X204664723Y-60870104D01*
X209464723Y-62570104D02*
X212284723Y-62570104D01*
X209464723Y-60870104D02*
X212284723Y-60870104D01*
X217084723Y-62570104D02*
X219904723Y-62570104D01*
X217084723Y-60870104D02*
X219904723Y-60870104D01*
X224704723Y-62570104D02*
X227524723Y-62570104D01*
X224704723Y-60870104D02*
X227524723Y-60870104D01*
X232324723Y-62570104D02*
X235144723Y-62570104D01*
X232324723Y-60870104D02*
X235144723Y-60870104D01*
X239944723Y-62570104D02*
X242764723Y-62570104D01*
X239944723Y-60870104D02*
X242764723Y-60870104D01*
X247564723Y-62570104D02*
X250384723Y-62570104D01*
X247564723Y-60870104D02*
X250384723Y-60870104D01*
X255184723Y-62570104D02*
X258004723Y-62570104D01*
X255184723Y-60870104D02*
X258004723Y-60870104D01*
X262804723Y-62570104D02*
X265624723Y-62570104D01*
X262804723Y-60870104D02*
X265624723Y-60870104D01*
X270424723Y-62570104D02*
X273244723Y-62570104D01*
X270424723Y-60870104D02*
X273244723Y-60870104D01*
X278044723Y-62570104D02*
X280864723Y-62570104D01*
X278044723Y-60870104D02*
X280864723Y-60870104D01*
X285664723Y-62570104D02*
X288484723Y-62570104D01*
X285664723Y-60870104D02*
X288484723Y-60870104D01*
X293284723Y-62570104D02*
X296104723Y-62570104D01*
X293284723Y-60870104D02*
X296104723Y-60870104D01*
X300904723Y-62570104D02*
X303724723Y-62570104D01*
X300904723Y-60870104D02*
X303724723Y-60870104D01*
X308524723Y-62570104D02*
X311344723Y-62570104D01*
X308524723Y-60870104D02*
X311344723Y-60870104D01*
X316144723Y-62570104D02*
X318964723Y-62570104D01*
X316144723Y-60870104D02*
X318964723Y-60870104D01*
X323764723Y-62570104D02*
X326584723Y-62570104D01*
X326584723Y-60870104D02*
X323764723Y-60870104D01*
X331384723Y-62570104D02*
X334204723Y-62570104D01*
X331384723Y-60870104D02*
X334204723Y-60870104D01*
X339004723Y-62570104D02*
X341824723Y-62570104D01*
X339004723Y-60870104D02*
X341824723Y-60870104D01*
X346624723Y-62570104D02*
X349444723Y-62570104D01*
X349444723Y-60870104D02*
X346624723Y-60870104D01*
X354244723Y-62570104D02*
X357064723Y-62570104D01*
X354244723Y-60870104D02*
X357064723Y-60870104D01*
X361864723Y-62570104D02*
X364684723Y-62570104D01*
X361864723Y-60870104D02*
X364684723Y-60870104D01*
X369484723Y-62570104D02*
X372304723Y-62570104D01*
X369484723Y-60870104D02*
X372304723Y-60870104D01*
X377104723Y-62570104D02*
X379924723Y-62570104D01*
X377104723Y-60870104D02*
X379924723Y-60870104D01*
X384724723Y-62570104D02*
X387684723Y-62570104D01*
X384724723Y-60870104D02*
X387684723Y-60870104D01*
X392484723Y-62570104D02*
X395164723Y-62570104D01*
X392484723Y-60870104D02*
X395164723Y-60870104D01*
X156124723Y-62570104D02*
X158944723Y-62570104D01*
X156124723Y-60870104D02*
X158944723Y-60870104D01*
X163744723Y-62570104D02*
X166564723Y-62570104D01*
X163744723Y-60870104D02*
X166564723Y-60870104D01*
X171364723Y-62570104D02*
X174184723Y-62570104D01*
X171364723Y-60870104D02*
X174184723Y-60870104D01*
G04 #@! TA.AperFunction,Conductor*
G36*
X77470817Y-54922777D02*
G01*
X77777128Y-54938379D01*
X78012266Y-54950355D01*
X78021184Y-54951129D01*
X78559298Y-55017113D01*
X78568129Y-55018517D01*
X79100193Y-55122576D01*
X79108918Y-55124607D01*
X79386311Y-55199667D01*
X79632234Y-55266212D01*
X79640794Y-55268858D01*
X80152727Y-55447295D01*
X80161078Y-55450543D01*
X80659036Y-55664910D01*
X80667134Y-55668743D01*
X81148600Y-55917955D01*
X81156405Y-55922354D01*
X81409786Y-56077271D01*
X81618945Y-56205151D01*
X81626403Y-56210084D01*
X82035324Y-56501946D01*
X82053377Y-56517618D01*
X82063193Y-56527928D01*
X82070955Y-56532428D01*
X82074661Y-56535351D01*
X82085073Y-56542919D01*
X82089028Y-56545563D01*
X82095709Y-56551562D01*
X82138965Y-56572305D01*
X82147680Y-56576912D01*
X82189204Y-56600987D01*
X82197924Y-56603129D01*
X82202344Y-56604911D01*
X82214386Y-56609226D01*
X82218956Y-56610664D01*
X82227046Y-56614544D01*
X82274419Y-56622319D01*
X82284031Y-56624286D01*
X82330655Y-56635741D01*
X82387792Y-56633251D01*
X82394288Y-56633136D01*
X88581663Y-56683890D01*
X93788246Y-56726599D01*
X93856199Y-56747159D01*
X93871967Y-56759362D01*
X96430185Y-59085015D01*
X96433655Y-59088170D01*
X96435829Y-59090416D01*
X96437499Y-59093062D01*
X96443637Y-59098483D01*
X96443638Y-59098484D01*
X96490754Y-59140096D01*
X96492101Y-59141303D01*
X96513686Y-59160925D01*
X96515972Y-59162474D01*
X96518145Y-59164286D01*
X96546674Y-59189482D01*
X96567529Y-59199274D01*
X96584655Y-59209018D01*
X96603731Y-59221944D01*
X96634408Y-59231807D01*
X96649370Y-59237698D01*
X96678523Y-59251385D01*
X96690077Y-59253184D01*
X96701289Y-59254930D01*
X96720463Y-59259476D01*
X96742397Y-59266528D01*
X96751369Y-59266767D01*
X96751371Y-59266767D01*
X96768186Y-59267214D01*
X96776912Y-59267446D01*
X96783274Y-59267776D01*
X96784300Y-59267855D01*
X96789109Y-59268604D01*
X96818787Y-59268604D01*
X96822137Y-59268649D01*
X96888003Y-59270401D01*
X96893432Y-59268969D01*
X96899735Y-59268604D01*
X402618740Y-59268604D01*
X402628846Y-59269010D01*
X402676533Y-59272847D01*
X402685322Y-59271027D01*
X402728589Y-59262067D01*
X402736277Y-59260722D01*
X402746592Y-59259245D01*
X402788910Y-59253184D01*
X402797083Y-59249468D01*
X402803782Y-59247509D01*
X402810375Y-59245129D01*
X402819164Y-59243309D01*
X402827088Y-59239096D01*
X402827093Y-59239094D01*
X402866102Y-59218353D01*
X402873101Y-59214905D01*
X402913333Y-59196612D01*
X402913335Y-59196611D01*
X402921505Y-59192896D01*
X402928304Y-59187037D01*
X402934198Y-59183268D01*
X402939848Y-59179140D01*
X402947772Y-59174927D01*
X402985838Y-59137781D01*
X402991567Y-59132527D01*
X403025052Y-59103675D01*
X403025053Y-59103673D01*
X403031850Y-59097817D01*
X403036730Y-59090289D01*
X403041330Y-59085015D01*
X403045596Y-59079466D01*
X403052019Y-59073198D01*
X403056425Y-59065379D01*
X403056428Y-59065375D01*
X403062420Y-59054740D01*
X403074545Y-59036963D01*
X403350846Y-58698145D01*
X403357689Y-58690422D01*
X403682352Y-58352930D01*
X403689805Y-58345793D01*
X404040983Y-58036010D01*
X404048994Y-58029507D01*
X404424335Y-57749502D01*
X404432851Y-57743675D01*
X404829876Y-57495301D01*
X404838827Y-57490199D01*
X405254841Y-57275146D01*
X405264179Y-57270794D01*
X405696379Y-57090509D01*
X405706040Y-57086935D01*
X405971501Y-57000942D01*
X406151563Y-56942613D01*
X406161501Y-56939838D01*
X406471492Y-56866812D01*
X406617310Y-56832461D01*
X406627438Y-56830509D01*
X406654894Y-56826375D01*
X407090530Y-56760784D01*
X407100765Y-56759669D01*
X407568008Y-56728071D01*
X407578307Y-56727797D01*
X407829106Y-56731407D01*
X408046560Y-56734537D01*
X408056863Y-56735108D01*
X408225715Y-56751420D01*
X408522993Y-56780138D01*
X408533193Y-56781548D01*
X408815838Y-56832462D01*
X408994074Y-56864569D01*
X409004145Y-56866812D01*
X409456686Y-56987265D01*
X409466540Y-56990325D01*
X409907706Y-57147402D01*
X409917278Y-57151259D01*
X410344102Y-57343905D01*
X410353324Y-57348531D01*
X410762971Y-57575463D01*
X410771783Y-57580828D01*
X411127161Y-57817644D01*
X411161467Y-57840505D01*
X411169813Y-57846574D01*
X411536960Y-58137280D01*
X411544780Y-58144011D01*
X411886898Y-58463774D01*
X411894136Y-58471116D01*
X412208962Y-58817822D01*
X412215567Y-58825724D01*
X412500959Y-59197015D01*
X412506907Y-59205447D01*
X412760956Y-59598836D01*
X412766192Y-59607722D01*
X412798587Y-59668238D01*
X412987202Y-60020586D01*
X412991695Y-60029875D01*
X413054569Y-60174702D01*
X413155312Y-60406755D01*
X413178180Y-60459431D01*
X413181894Y-60469046D01*
X413309363Y-60844043D01*
X413332611Y-60912436D01*
X413335528Y-60922330D01*
X413434609Y-61317362D01*
X413449453Y-61376546D01*
X413451550Y-61386639D01*
X413496477Y-61658405D01*
X413527933Y-61848687D01*
X413529197Y-61858928D01*
X413567514Y-62325635D01*
X413567937Y-62335945D01*
X413567938Y-62804249D01*
X413567515Y-62814559D01*
X413529198Y-63281266D01*
X413527934Y-63291506D01*
X413496476Y-63481803D01*
X413457992Y-63714598D01*
X413451553Y-63753546D01*
X413449456Y-63763641D01*
X413352429Y-64150485D01*
X413335530Y-64217860D01*
X413332612Y-64227758D01*
X413181899Y-64671139D01*
X413178181Y-64680764D01*
X412991698Y-65110320D01*
X412987205Y-65119609D01*
X412875328Y-65328604D01*
X412780222Y-65506270D01*
X412766197Y-65532469D01*
X412760961Y-65541356D01*
X412515597Y-65921298D01*
X412506910Y-65934749D01*
X412500965Y-65943176D01*
X412215568Y-66314475D01*
X412208966Y-66322374D01*
X412031233Y-66518104D01*
X411894140Y-66669079D01*
X411886896Y-66676427D01*
X411564384Y-66977867D01*
X411544783Y-66996187D01*
X411536968Y-67002913D01*
X411169810Y-67293629D01*
X411161483Y-67299684D01*
X410771790Y-67559368D01*
X410762979Y-67564733D01*
X410678090Y-67611759D01*
X410353325Y-67791670D01*
X410344101Y-67796296D01*
X409917280Y-67988939D01*
X409907710Y-67992795D01*
X409466554Y-68149870D01*
X409456699Y-68152931D01*
X409004151Y-68273387D01*
X408994080Y-68275630D01*
X408921358Y-68288730D01*
X408533199Y-68358651D01*
X408522999Y-68360061D01*
X408223681Y-68388977D01*
X408056869Y-68405092D01*
X408046566Y-68405663D01*
X407829112Y-68408793D01*
X407578313Y-68412403D01*
X407568014Y-68412129D01*
X407355068Y-68397728D01*
X407100780Y-68380531D01*
X407090523Y-68379414D01*
X406627446Y-68309692D01*
X406617314Y-68307739D01*
X406161508Y-68200363D01*
X406151570Y-68197588D01*
X405706056Y-68053270D01*
X405696385Y-68049693D01*
X405264180Y-67869406D01*
X405254832Y-67865049D01*
X405166754Y-67819518D01*
X404838843Y-67650009D01*
X404829881Y-67644902D01*
X404769931Y-67607398D01*
X404432856Y-67396530D01*
X404424348Y-67390708D01*
X404048991Y-67110691D01*
X404040980Y-67104188D01*
X403846897Y-66932982D01*
X403689806Y-66794408D01*
X403682356Y-66787274D01*
X403525387Y-66624102D01*
X403357686Y-66449775D01*
X403350844Y-66442052D01*
X403079259Y-66109018D01*
X403065656Y-66088543D01*
X403063765Y-66084987D01*
X403059547Y-66077054D01*
X403053273Y-66070625D01*
X403048582Y-66064204D01*
X403045645Y-66060484D01*
X403040467Y-66054410D01*
X403035670Y-66046821D01*
X402998898Y-66014399D01*
X402992059Y-66007897D01*
X402964090Y-65979235D01*
X402964085Y-65979231D01*
X402957817Y-65972808D01*
X402949996Y-65968401D01*
X402943684Y-65963549D01*
X402939804Y-65960792D01*
X402933149Y-65956428D01*
X402926415Y-65950491D01*
X402917316Y-65946228D01*
X402882027Y-65929696D01*
X402873630Y-65925371D01*
X402838735Y-65905710D01*
X402838734Y-65905710D01*
X402830917Y-65901305D01*
X402822178Y-65899271D01*
X402814769Y-65896390D01*
X402810232Y-65894819D01*
X402802643Y-65892506D01*
X402794515Y-65888698D01*
X402762164Y-65883688D01*
X402746064Y-65881195D01*
X402736788Y-65879400D01*
X402697793Y-65870325D01*
X402697789Y-65870325D01*
X402689050Y-65868291D01*
X402633025Y-65871423D01*
X402626106Y-65871619D01*
X399752011Y-65874010D01*
X399683873Y-65854065D01*
X399637336Y-65800448D01*
X399626596Y-65734839D01*
X399626897Y-65731980D01*
X399638116Y-65625235D01*
X399636579Y-65608349D01*
X399632639Y-65565050D01*
X399646385Y-65495397D01*
X399669025Y-65464536D01*
X399768052Y-65365509D01*
X399830364Y-65331483D01*
X399857147Y-65328604D01*
X401012857Y-65328604D01*
X401075039Y-65321849D01*
X401211428Y-65270719D01*
X401327984Y-65183365D01*
X401415338Y-65066809D01*
X401466468Y-64930420D01*
X401473223Y-64868238D01*
X401473223Y-63671970D01*
X401466468Y-63609788D01*
X401448747Y-63562518D01*
X401418489Y-63481803D01*
X401418487Y-63481800D01*
X401415338Y-63473399D01*
X401416189Y-63473080D01*
X401402668Y-63411255D01*
X401415681Y-63366938D01*
X401415338Y-63366809D01*
X401417095Y-63362123D01*
X401417096Y-63362119D01*
X401424532Y-63342286D01*
X401463694Y-63237819D01*
X401466468Y-63230420D01*
X401473223Y-63168238D01*
X401473223Y-62570104D01*
X404010733Y-62570104D01*
X404031079Y-62958322D01*
X404031592Y-62961562D01*
X404031593Y-62961570D01*
X404048775Y-63070051D01*
X404091893Y-63342286D01*
X404192509Y-63717790D01*
X404193694Y-63720878D01*
X404193695Y-63720880D01*
X404246256Y-63857807D01*
X404331824Y-64080720D01*
X404508313Y-64427099D01*
X404720042Y-64753133D01*
X404722120Y-64755699D01*
X404895129Y-64969346D01*
X404964691Y-65055248D01*
X405239579Y-65330136D01*
X405242137Y-65332208D01*
X405242141Y-65332211D01*
X405388172Y-65450465D01*
X405541694Y-65574785D01*
X405867728Y-65786514D01*
X406214107Y-65963003D01*
X406256393Y-65979235D01*
X406541152Y-66088543D01*
X406577037Y-66102318D01*
X406952541Y-66202934D01*
X407156559Y-66235247D01*
X407333257Y-66263234D01*
X407333265Y-66263235D01*
X407336505Y-66263748D01*
X407724723Y-66284094D01*
X408112941Y-66263748D01*
X408116181Y-66263235D01*
X408116189Y-66263234D01*
X408292887Y-66235247D01*
X408496905Y-66202934D01*
X408872409Y-66102318D01*
X408908295Y-66088543D01*
X409193053Y-65979235D01*
X409235339Y-65963003D01*
X409581718Y-65786514D01*
X409907752Y-65574785D01*
X410061274Y-65450465D01*
X410207305Y-65332211D01*
X410207309Y-65332208D01*
X410209867Y-65330136D01*
X410484755Y-65055248D01*
X410554318Y-64969346D01*
X410727326Y-64755699D01*
X410729404Y-64753133D01*
X410941133Y-64427099D01*
X411117622Y-64080720D01*
X411203190Y-63857807D01*
X411255751Y-63720880D01*
X411255752Y-63720878D01*
X411256937Y-63717790D01*
X411357553Y-63342286D01*
X411400671Y-63070051D01*
X411417853Y-62961570D01*
X411417854Y-62961562D01*
X411418367Y-62958322D01*
X411438713Y-62570104D01*
X411418367Y-62181886D01*
X411415251Y-62162208D01*
X411385661Y-61975387D01*
X411357553Y-61797922D01*
X411256937Y-61422418D01*
X411239329Y-61376546D01*
X411137183Y-61110447D01*
X411117622Y-61059488D01*
X410941133Y-60713109D01*
X410729404Y-60387075D01*
X410653457Y-60293289D01*
X410486830Y-60087522D01*
X410486827Y-60087518D01*
X410484755Y-60084960D01*
X410209867Y-59810072D01*
X410120643Y-59737819D01*
X409910318Y-59567501D01*
X409907752Y-59565423D01*
X409581718Y-59353694D01*
X409235339Y-59177205D01*
X408995175Y-59085015D01*
X408875499Y-59039076D01*
X408875497Y-59039075D01*
X408872409Y-59037890D01*
X408496905Y-58937274D01*
X408292887Y-58904961D01*
X408116189Y-58876974D01*
X408116181Y-58876973D01*
X408112941Y-58876460D01*
X407724723Y-58856114D01*
X407336505Y-58876460D01*
X407333265Y-58876973D01*
X407333257Y-58876974D01*
X407156559Y-58904961D01*
X406952541Y-58937274D01*
X406577037Y-59037890D01*
X406573949Y-59039075D01*
X406573947Y-59039076D01*
X406454271Y-59085015D01*
X406214107Y-59177205D01*
X405867728Y-59353694D01*
X405541694Y-59565423D01*
X405539128Y-59567501D01*
X405328804Y-59737819D01*
X405239579Y-59810072D01*
X404964691Y-60084960D01*
X404962619Y-60087518D01*
X404962616Y-60087522D01*
X404795989Y-60293289D01*
X404720042Y-60387075D01*
X404508313Y-60713109D01*
X404331824Y-61059488D01*
X404312263Y-61110447D01*
X404210118Y-61376546D01*
X404192509Y-61422418D01*
X404091893Y-61797922D01*
X404063785Y-61975387D01*
X404034196Y-62162208D01*
X404031079Y-62181886D01*
X404010733Y-62570104D01*
X401473223Y-62570104D01*
X401473223Y-61971970D01*
X401466468Y-61909788D01*
X401425754Y-61801183D01*
X401418489Y-61781803D01*
X401418487Y-61781800D01*
X401415338Y-61773399D01*
X401416189Y-61773080D01*
X401402668Y-61711255D01*
X401415681Y-61666938D01*
X401415338Y-61666809D01*
X401417095Y-61662123D01*
X401417096Y-61662119D01*
X401466468Y-61530420D01*
X401473223Y-61468238D01*
X401473223Y-60271970D01*
X401466468Y-60209788D01*
X401415338Y-60073399D01*
X401327984Y-59956843D01*
X401211428Y-59869489D01*
X401075039Y-59818359D01*
X401012857Y-59811604D01*
X398916589Y-59811604D01*
X398854407Y-59818359D01*
X398718018Y-59869489D01*
X398601462Y-59956843D01*
X398514108Y-60073399D01*
X398462978Y-60209788D01*
X398456223Y-60271970D01*
X398456223Y-61468238D01*
X398462978Y-61530420D01*
X398514108Y-61666809D01*
X398513257Y-61667128D01*
X398526778Y-61728953D01*
X398513765Y-61773270D01*
X398514108Y-61773399D01*
X398510959Y-61781800D01*
X398510957Y-61781803D01*
X398503692Y-61801183D01*
X398462978Y-61909788D01*
X398456223Y-61971970D01*
X398456223Y-63168238D01*
X398462978Y-63230420D01*
X398465752Y-63237819D01*
X398504915Y-63342286D01*
X398512968Y-63363767D01*
X398514108Y-63366809D01*
X398513257Y-63367128D01*
X398526778Y-63428953D01*
X398513765Y-63473270D01*
X398514108Y-63473399D01*
X398510959Y-63481800D01*
X398510957Y-63481803D01*
X398480699Y-63562518D01*
X398462978Y-63609788D01*
X398456223Y-63671970D01*
X398456223Y-64475604D01*
X398436221Y-64543725D01*
X398382565Y-64590218D01*
X398330223Y-64601604D01*
X396784482Y-64601604D01*
X396716361Y-64581602D01*
X396671389Y-64529702D01*
X396666858Y-64525775D01*
X396659175Y-64524104D01*
X395036723Y-64524104D01*
X394968602Y-64504102D01*
X394922109Y-64450446D01*
X394910723Y-64398104D01*
X394910723Y-64142104D01*
X394930725Y-64073983D01*
X394984381Y-64027490D01*
X395036723Y-64016104D01*
X396654607Y-64016104D01*
X396669846Y-64011629D01*
X396671051Y-64010239D01*
X396672722Y-64002556D01*
X396672722Y-63675435D01*
X396672352Y-63668614D01*
X396666828Y-63617752D01*
X396663202Y-63602500D01*
X396618044Y-63482043D01*
X396617549Y-63481138D01*
X396617330Y-63480138D01*
X396614895Y-63473642D01*
X396615833Y-63473290D01*
X396602380Y-63411781D01*
X396615561Y-63366892D01*
X396615338Y-63366809D01*
X396616479Y-63363767D01*
X396616481Y-63363760D01*
X396624532Y-63342286D01*
X396663694Y-63237819D01*
X396666468Y-63230420D01*
X396673223Y-63168238D01*
X396673223Y-61971970D01*
X396666468Y-61909788D01*
X396625754Y-61801183D01*
X396618489Y-61781803D01*
X396618487Y-61781800D01*
X396615338Y-61773399D01*
X396616189Y-61773080D01*
X396602668Y-61711255D01*
X396615681Y-61666938D01*
X396615338Y-61666809D01*
X396617095Y-61662123D01*
X396617096Y-61662119D01*
X396666468Y-61530420D01*
X396673223Y-61468238D01*
X396673223Y-60271970D01*
X396666468Y-60209788D01*
X396615338Y-60073399D01*
X396527984Y-59956843D01*
X396411428Y-59869489D01*
X396275039Y-59818359D01*
X396212857Y-59811604D01*
X394116589Y-59811604D01*
X394054407Y-59818359D01*
X393918018Y-59869489D01*
X393910832Y-59874875D01*
X393900288Y-59882777D01*
X393833782Y-59907625D01*
X393764400Y-59892572D01*
X393749158Y-59882777D01*
X393738614Y-59874875D01*
X393731428Y-59869489D01*
X393595039Y-59818359D01*
X393532857Y-59811604D01*
X391436589Y-59811604D01*
X391374407Y-59818359D01*
X391238018Y-59869489D01*
X391121462Y-59956843D01*
X391034108Y-60073399D01*
X390982978Y-60209788D01*
X390976223Y-60271970D01*
X390976223Y-61468238D01*
X390982978Y-61530420D01*
X391034108Y-61666809D01*
X391033257Y-61667128D01*
X391046778Y-61728953D01*
X391033765Y-61773270D01*
X391034108Y-61773399D01*
X391030959Y-61781800D01*
X391030957Y-61781803D01*
X391023692Y-61801183D01*
X390982978Y-61909788D01*
X390976223Y-61971970D01*
X390976223Y-63168238D01*
X390982978Y-63230420D01*
X390985752Y-63237819D01*
X391024915Y-63342286D01*
X391032968Y-63363767D01*
X391034108Y-63366809D01*
X391033257Y-63367128D01*
X391046778Y-63428953D01*
X391033765Y-63473270D01*
X391034108Y-63473399D01*
X391030959Y-63481800D01*
X391030957Y-63481803D01*
X391000699Y-63562518D01*
X390982978Y-63609788D01*
X390976223Y-63671970D01*
X390976223Y-64475604D01*
X390956221Y-64543725D01*
X390902565Y-64590218D01*
X390850223Y-64601604D01*
X389304482Y-64601604D01*
X389236361Y-64581602D01*
X389191389Y-64529702D01*
X389186858Y-64525775D01*
X389179175Y-64524104D01*
X387556723Y-64524104D01*
X387488602Y-64504102D01*
X387442109Y-64450446D01*
X387430723Y-64398104D01*
X387430723Y-64142104D01*
X387450725Y-64073983D01*
X387504381Y-64027490D01*
X387556723Y-64016104D01*
X389174607Y-64016104D01*
X389189846Y-64011629D01*
X389191051Y-64010239D01*
X389192722Y-64002556D01*
X389192722Y-63675435D01*
X389192352Y-63668614D01*
X389186828Y-63617752D01*
X389183202Y-63602500D01*
X389138044Y-63482043D01*
X389137549Y-63481138D01*
X389137330Y-63480138D01*
X389134895Y-63473642D01*
X389135833Y-63473290D01*
X389122380Y-63411781D01*
X389135561Y-63366892D01*
X389135338Y-63366809D01*
X389136479Y-63363767D01*
X389136481Y-63363760D01*
X389144532Y-63342286D01*
X389183694Y-63237819D01*
X389186468Y-63230420D01*
X389193223Y-63168238D01*
X389193223Y-61971970D01*
X389186468Y-61909788D01*
X389145754Y-61801183D01*
X389138489Y-61781803D01*
X389138487Y-61781800D01*
X389135338Y-61773399D01*
X389136189Y-61773080D01*
X389122668Y-61711255D01*
X389135681Y-61666938D01*
X389135338Y-61666809D01*
X389137095Y-61662123D01*
X389137096Y-61662119D01*
X389186468Y-61530420D01*
X389193223Y-61468238D01*
X389193223Y-60271970D01*
X389186468Y-60209788D01*
X389135338Y-60073399D01*
X389047984Y-59956843D01*
X388931428Y-59869489D01*
X388795039Y-59818359D01*
X388732857Y-59811604D01*
X386636589Y-59811604D01*
X386574407Y-59818359D01*
X386438018Y-59869489D01*
X386321462Y-59956843D01*
X386305549Y-59978076D01*
X386248691Y-60020591D01*
X386177872Y-60025617D01*
X386115579Y-59991558D01*
X386103900Y-59978079D01*
X386087984Y-59956843D01*
X385971428Y-59869489D01*
X385835039Y-59818359D01*
X385772857Y-59811604D01*
X383676589Y-59811604D01*
X383614407Y-59818359D01*
X383478018Y-59869489D01*
X383361462Y-59956843D01*
X383274108Y-60073399D01*
X383222978Y-60209788D01*
X383216223Y-60271970D01*
X383216223Y-61468238D01*
X383222978Y-61530420D01*
X383274108Y-61666809D01*
X383273257Y-61667128D01*
X383286778Y-61728953D01*
X383273765Y-61773270D01*
X383274108Y-61773399D01*
X383270959Y-61781800D01*
X383270957Y-61781803D01*
X383263692Y-61801183D01*
X383222978Y-61909788D01*
X383216223Y-61971970D01*
X383216223Y-63168238D01*
X383222978Y-63230420D01*
X383225752Y-63237819D01*
X383264915Y-63342286D01*
X383272968Y-63363767D01*
X383274108Y-63366809D01*
X383273257Y-63367128D01*
X383286778Y-63428953D01*
X383273765Y-63473270D01*
X383274108Y-63473399D01*
X383270959Y-63481800D01*
X383270957Y-63481803D01*
X383240699Y-63562518D01*
X383222978Y-63609788D01*
X383216223Y-63671970D01*
X383216223Y-64475604D01*
X383196221Y-64543725D01*
X383142565Y-64590218D01*
X383090223Y-64601604D01*
X381544482Y-64601604D01*
X381476361Y-64581602D01*
X381431389Y-64529702D01*
X381426858Y-64525775D01*
X381419175Y-64524104D01*
X379796723Y-64524104D01*
X379728602Y-64504102D01*
X379682109Y-64450446D01*
X379670723Y-64398104D01*
X379670723Y-64142104D01*
X379690725Y-64073983D01*
X379744381Y-64027490D01*
X379796723Y-64016104D01*
X381414607Y-64016104D01*
X381429846Y-64011629D01*
X381431051Y-64010239D01*
X381432722Y-64002556D01*
X381432722Y-63675435D01*
X381432352Y-63668614D01*
X381426828Y-63617752D01*
X381423202Y-63602500D01*
X381378044Y-63482043D01*
X381377549Y-63481138D01*
X381377330Y-63480138D01*
X381374895Y-63473642D01*
X381375833Y-63473290D01*
X381362380Y-63411781D01*
X381375561Y-63366892D01*
X381375338Y-63366809D01*
X381376479Y-63363767D01*
X381376481Y-63363760D01*
X381384532Y-63342286D01*
X381423694Y-63237819D01*
X381426468Y-63230420D01*
X381433223Y-63168238D01*
X381433223Y-61971970D01*
X381426468Y-61909788D01*
X381385754Y-61801183D01*
X381378489Y-61781803D01*
X381378487Y-61781800D01*
X381375338Y-61773399D01*
X381376189Y-61773080D01*
X381362668Y-61711255D01*
X381375681Y-61666938D01*
X381375338Y-61666809D01*
X381377095Y-61662123D01*
X381377096Y-61662119D01*
X381426468Y-61530420D01*
X381433223Y-61468238D01*
X381433223Y-60271970D01*
X381426468Y-60209788D01*
X381375338Y-60073399D01*
X381287984Y-59956843D01*
X381171428Y-59869489D01*
X381035039Y-59818359D01*
X380972857Y-59811604D01*
X378876589Y-59811604D01*
X378814407Y-59818359D01*
X378678018Y-59869489D01*
X378604289Y-59924746D01*
X378590288Y-59935239D01*
X378523782Y-59960087D01*
X378454399Y-59945034D01*
X378439158Y-59935239D01*
X378425157Y-59924746D01*
X378351428Y-59869489D01*
X378215039Y-59818359D01*
X378152857Y-59811604D01*
X376056589Y-59811604D01*
X375994407Y-59818359D01*
X375858018Y-59869489D01*
X375741462Y-59956843D01*
X375654108Y-60073399D01*
X375602978Y-60209788D01*
X375596223Y-60271970D01*
X375596223Y-61468238D01*
X375602978Y-61530420D01*
X375654108Y-61666809D01*
X375653257Y-61667128D01*
X375666778Y-61728953D01*
X375653765Y-61773270D01*
X375654108Y-61773399D01*
X375650959Y-61781800D01*
X375650957Y-61781803D01*
X375643692Y-61801183D01*
X375602978Y-61909788D01*
X375596223Y-61971970D01*
X375596223Y-63168238D01*
X375602978Y-63230420D01*
X375605752Y-63237819D01*
X375644915Y-63342286D01*
X375652968Y-63363767D01*
X375654108Y-63366809D01*
X375653257Y-63367128D01*
X375666778Y-63428953D01*
X375653765Y-63473270D01*
X375654108Y-63473399D01*
X375650959Y-63481800D01*
X375650957Y-63481803D01*
X375620699Y-63562518D01*
X375602978Y-63609788D01*
X375596223Y-63671970D01*
X375596223Y-64475604D01*
X375576221Y-64543725D01*
X375522565Y-64590218D01*
X375470223Y-64601604D01*
X373924482Y-64601604D01*
X373856361Y-64581602D01*
X373811389Y-64529702D01*
X373806858Y-64525775D01*
X373799175Y-64524104D01*
X372176723Y-64524104D01*
X372108602Y-64504102D01*
X372062109Y-64450446D01*
X372050723Y-64398104D01*
X372050723Y-64142104D01*
X372070725Y-64073983D01*
X372124381Y-64027490D01*
X372176723Y-64016104D01*
X373794607Y-64016104D01*
X373809846Y-64011629D01*
X373811051Y-64010239D01*
X373812722Y-64002556D01*
X373812722Y-63675435D01*
X373812352Y-63668614D01*
X373806828Y-63617752D01*
X373803202Y-63602500D01*
X373758044Y-63482043D01*
X373757549Y-63481138D01*
X373757330Y-63480138D01*
X373754895Y-63473642D01*
X373755833Y-63473290D01*
X373742380Y-63411781D01*
X373755561Y-63366892D01*
X373755338Y-63366809D01*
X373756479Y-63363767D01*
X373756481Y-63363760D01*
X373764532Y-63342286D01*
X373803694Y-63237819D01*
X373806468Y-63230420D01*
X373813223Y-63168238D01*
X373813223Y-61971970D01*
X373806468Y-61909788D01*
X373765754Y-61801183D01*
X373758489Y-61781803D01*
X373758487Y-61781800D01*
X373755338Y-61773399D01*
X373756189Y-61773080D01*
X373742668Y-61711255D01*
X373755681Y-61666938D01*
X373755338Y-61666809D01*
X373757095Y-61662123D01*
X373757096Y-61662119D01*
X373806468Y-61530420D01*
X373813223Y-61468238D01*
X373813223Y-60271970D01*
X373806468Y-60209788D01*
X373755338Y-60073399D01*
X373667984Y-59956843D01*
X373551428Y-59869489D01*
X373415039Y-59818359D01*
X373352857Y-59811604D01*
X371256589Y-59811604D01*
X371194407Y-59818359D01*
X371058018Y-59869489D01*
X370984289Y-59924746D01*
X370970288Y-59935239D01*
X370903782Y-59960087D01*
X370834399Y-59945034D01*
X370819158Y-59935239D01*
X370805157Y-59924746D01*
X370731428Y-59869489D01*
X370595039Y-59818359D01*
X370532857Y-59811604D01*
X368436589Y-59811604D01*
X368374407Y-59818359D01*
X368238018Y-59869489D01*
X368121462Y-59956843D01*
X368034108Y-60073399D01*
X367982978Y-60209788D01*
X367976223Y-60271970D01*
X367976223Y-61468238D01*
X367982978Y-61530420D01*
X368034108Y-61666809D01*
X368033257Y-61667128D01*
X368046778Y-61728953D01*
X368033765Y-61773270D01*
X368034108Y-61773399D01*
X368030959Y-61781800D01*
X368030957Y-61781803D01*
X368023692Y-61801183D01*
X367982978Y-61909788D01*
X367976223Y-61971970D01*
X367976223Y-63168238D01*
X367982978Y-63230420D01*
X367985752Y-63237819D01*
X368024915Y-63342286D01*
X368032968Y-63363767D01*
X368034108Y-63366809D01*
X368033257Y-63367128D01*
X368046778Y-63428953D01*
X368033765Y-63473270D01*
X368034108Y-63473399D01*
X368030959Y-63481800D01*
X368030957Y-63481803D01*
X368000699Y-63562518D01*
X367982978Y-63609788D01*
X367976223Y-63671970D01*
X367976223Y-64475604D01*
X367956221Y-64543725D01*
X367902565Y-64590218D01*
X367850223Y-64601604D01*
X366304482Y-64601604D01*
X366236361Y-64581602D01*
X366191389Y-64529702D01*
X366186858Y-64525775D01*
X366179175Y-64524104D01*
X364556723Y-64524104D01*
X364488602Y-64504102D01*
X364442109Y-64450446D01*
X364430723Y-64398104D01*
X364430723Y-64142104D01*
X364450725Y-64073983D01*
X364504381Y-64027490D01*
X364556723Y-64016104D01*
X366174607Y-64016104D01*
X366189846Y-64011629D01*
X366191051Y-64010239D01*
X366192722Y-64002556D01*
X366192722Y-63675435D01*
X366192352Y-63668614D01*
X366186828Y-63617752D01*
X366183202Y-63602500D01*
X366138044Y-63482043D01*
X366137549Y-63481138D01*
X366137330Y-63480138D01*
X366134895Y-63473642D01*
X366135833Y-63473290D01*
X366122380Y-63411781D01*
X366135561Y-63366892D01*
X366135338Y-63366809D01*
X366136479Y-63363767D01*
X366136481Y-63363760D01*
X366144532Y-63342286D01*
X366183694Y-63237819D01*
X366186468Y-63230420D01*
X366193223Y-63168238D01*
X366193223Y-61971970D01*
X366186468Y-61909788D01*
X366145754Y-61801183D01*
X366138489Y-61781803D01*
X366138487Y-61781800D01*
X366135338Y-61773399D01*
X366136189Y-61773080D01*
X366122668Y-61711255D01*
X366135681Y-61666938D01*
X366135338Y-61666809D01*
X366137095Y-61662123D01*
X366137096Y-61662119D01*
X366186468Y-61530420D01*
X366193223Y-61468238D01*
X366193223Y-60271970D01*
X366186468Y-60209788D01*
X366135338Y-60073399D01*
X366047984Y-59956843D01*
X365931428Y-59869489D01*
X365795039Y-59818359D01*
X365732857Y-59811604D01*
X363636589Y-59811604D01*
X363574407Y-59818359D01*
X363438018Y-59869489D01*
X363364289Y-59924746D01*
X363350288Y-59935239D01*
X363283782Y-59960087D01*
X363214399Y-59945034D01*
X363199158Y-59935239D01*
X363185157Y-59924746D01*
X363111428Y-59869489D01*
X362975039Y-59818359D01*
X362912857Y-59811604D01*
X360816589Y-59811604D01*
X360754407Y-59818359D01*
X360618018Y-59869489D01*
X360501462Y-59956843D01*
X360414108Y-60073399D01*
X360362978Y-60209788D01*
X360356223Y-60271970D01*
X360356223Y-61468238D01*
X360362978Y-61530420D01*
X360414108Y-61666809D01*
X360413257Y-61667128D01*
X360426778Y-61728953D01*
X360413765Y-61773270D01*
X360414108Y-61773399D01*
X360410959Y-61781800D01*
X360410957Y-61781803D01*
X360403692Y-61801183D01*
X360362978Y-61909788D01*
X360356223Y-61971970D01*
X360356223Y-63168238D01*
X360362978Y-63230420D01*
X360365752Y-63237819D01*
X360404915Y-63342286D01*
X360412968Y-63363767D01*
X360414108Y-63366809D01*
X360413257Y-63367128D01*
X360426778Y-63428953D01*
X360413765Y-63473270D01*
X360414108Y-63473399D01*
X360410959Y-63481800D01*
X360410957Y-63481803D01*
X360380699Y-63562518D01*
X360362978Y-63609788D01*
X360356223Y-63671970D01*
X360356223Y-64475604D01*
X360336221Y-64543725D01*
X360282565Y-64590218D01*
X360230223Y-64601604D01*
X358684482Y-64601604D01*
X358616361Y-64581602D01*
X358571389Y-64529702D01*
X358566858Y-64525775D01*
X358559175Y-64524104D01*
X356936723Y-64524104D01*
X356868602Y-64504102D01*
X356822109Y-64450446D01*
X356810723Y-64398104D01*
X356810723Y-64142104D01*
X356830725Y-64073983D01*
X356884381Y-64027490D01*
X356936723Y-64016104D01*
X358554607Y-64016104D01*
X358569846Y-64011629D01*
X358571051Y-64010239D01*
X358572722Y-64002556D01*
X358572722Y-63675435D01*
X358572352Y-63668614D01*
X358566828Y-63617752D01*
X358563202Y-63602500D01*
X358518044Y-63482043D01*
X358517549Y-63481138D01*
X358517330Y-63480138D01*
X358514895Y-63473642D01*
X358515833Y-63473290D01*
X358502380Y-63411781D01*
X358515561Y-63366892D01*
X358515338Y-63366809D01*
X358516479Y-63363767D01*
X358516481Y-63363760D01*
X358524532Y-63342286D01*
X358563694Y-63237819D01*
X358566468Y-63230420D01*
X358573223Y-63168238D01*
X358573223Y-61971970D01*
X358566468Y-61909788D01*
X358525754Y-61801183D01*
X358518489Y-61781803D01*
X358518487Y-61781800D01*
X358515338Y-61773399D01*
X358516189Y-61773080D01*
X358502668Y-61711255D01*
X358515681Y-61666938D01*
X358515338Y-61666809D01*
X358517095Y-61662123D01*
X358517096Y-61662119D01*
X358566468Y-61530420D01*
X358573223Y-61468238D01*
X358573223Y-60271970D01*
X358566468Y-60209788D01*
X358515338Y-60073399D01*
X358427984Y-59956843D01*
X358311428Y-59869489D01*
X358175039Y-59818359D01*
X358112857Y-59811604D01*
X356016589Y-59811604D01*
X355954407Y-59818359D01*
X355818018Y-59869489D01*
X355744289Y-59924746D01*
X355730288Y-59935239D01*
X355663782Y-59960087D01*
X355594399Y-59945034D01*
X355579158Y-59935239D01*
X355565157Y-59924746D01*
X355491428Y-59869489D01*
X355355039Y-59818359D01*
X355292857Y-59811604D01*
X353196589Y-59811604D01*
X353134407Y-59818359D01*
X352998018Y-59869489D01*
X352881462Y-59956843D01*
X352794108Y-60073399D01*
X352742978Y-60209788D01*
X352736223Y-60271970D01*
X352736223Y-61468238D01*
X352742978Y-61530420D01*
X352794108Y-61666809D01*
X352793257Y-61667128D01*
X352806778Y-61728953D01*
X352793765Y-61773270D01*
X352794108Y-61773399D01*
X352790959Y-61781800D01*
X352790957Y-61781803D01*
X352783692Y-61801183D01*
X352742978Y-61909788D01*
X352736223Y-61971970D01*
X352736223Y-63168238D01*
X352742978Y-63230420D01*
X352745752Y-63237819D01*
X352784915Y-63342286D01*
X352792968Y-63363767D01*
X352794108Y-63366809D01*
X352793257Y-63367128D01*
X352806778Y-63428953D01*
X352793765Y-63473270D01*
X352794108Y-63473399D01*
X352790959Y-63481800D01*
X352790957Y-63481803D01*
X352760699Y-63562518D01*
X352742978Y-63609788D01*
X352736223Y-63671970D01*
X352736223Y-64475604D01*
X352716221Y-64543725D01*
X352662565Y-64590218D01*
X352610223Y-64601604D01*
X351064482Y-64601604D01*
X350996361Y-64581602D01*
X350951389Y-64529702D01*
X350946858Y-64525775D01*
X350939175Y-64524104D01*
X349316723Y-64524104D01*
X349248602Y-64504102D01*
X349202109Y-64450446D01*
X349190723Y-64398104D01*
X349190723Y-64142104D01*
X349210725Y-64073983D01*
X349264381Y-64027490D01*
X349316723Y-64016104D01*
X350934607Y-64016104D01*
X350949846Y-64011629D01*
X350951051Y-64010239D01*
X350952722Y-64002556D01*
X350952722Y-63675435D01*
X350952352Y-63668614D01*
X350946828Y-63617752D01*
X350943202Y-63602500D01*
X350898044Y-63482043D01*
X350897549Y-63481138D01*
X350897330Y-63480138D01*
X350894895Y-63473642D01*
X350895833Y-63473290D01*
X350882380Y-63411781D01*
X350895561Y-63366892D01*
X350895338Y-63366809D01*
X350896479Y-63363767D01*
X350896481Y-63363760D01*
X350904532Y-63342286D01*
X350943694Y-63237819D01*
X350946468Y-63230420D01*
X350953223Y-63168238D01*
X350953223Y-61971970D01*
X350946468Y-61909788D01*
X350905754Y-61801183D01*
X350898489Y-61781803D01*
X350898487Y-61781800D01*
X350895338Y-61773399D01*
X350896189Y-61773080D01*
X350882668Y-61711255D01*
X350895681Y-61666938D01*
X350895338Y-61666809D01*
X350897095Y-61662123D01*
X350897096Y-61662119D01*
X350946468Y-61530420D01*
X350953223Y-61468238D01*
X350953223Y-60271970D01*
X350946468Y-60209788D01*
X350895338Y-60073399D01*
X350807984Y-59956843D01*
X350691428Y-59869489D01*
X350555039Y-59818359D01*
X350492857Y-59811604D01*
X348396589Y-59811604D01*
X348334407Y-59818359D01*
X348198018Y-59869489D01*
X348124289Y-59924746D01*
X348110288Y-59935239D01*
X348043782Y-59960087D01*
X347974399Y-59945034D01*
X347959158Y-59935239D01*
X347945157Y-59924746D01*
X347871428Y-59869489D01*
X347735039Y-59818359D01*
X347672857Y-59811604D01*
X345576589Y-59811604D01*
X345514407Y-59818359D01*
X345378018Y-59869489D01*
X345261462Y-59956843D01*
X345174108Y-60073399D01*
X345122978Y-60209788D01*
X345116223Y-60271970D01*
X345116223Y-61468238D01*
X345122978Y-61530420D01*
X345174108Y-61666809D01*
X345173257Y-61667128D01*
X345186778Y-61728953D01*
X345173765Y-61773270D01*
X345174108Y-61773399D01*
X345170959Y-61781800D01*
X345170957Y-61781803D01*
X345163692Y-61801183D01*
X345122978Y-61909788D01*
X345116223Y-61971970D01*
X345116223Y-63168238D01*
X345122978Y-63230420D01*
X345125752Y-63237819D01*
X345164915Y-63342286D01*
X345172968Y-63363767D01*
X345174108Y-63366809D01*
X345173257Y-63367128D01*
X345186778Y-63428953D01*
X345173765Y-63473270D01*
X345174108Y-63473399D01*
X345170959Y-63481800D01*
X345170957Y-63481803D01*
X345140699Y-63562518D01*
X345122978Y-63609788D01*
X345116223Y-63671970D01*
X345116223Y-64475604D01*
X345096221Y-64543725D01*
X345042565Y-64590218D01*
X344990223Y-64601604D01*
X343444482Y-64601604D01*
X343376361Y-64581602D01*
X343331389Y-64529702D01*
X343326858Y-64525775D01*
X343319175Y-64524104D01*
X341696723Y-64524104D01*
X341628602Y-64504102D01*
X341582109Y-64450446D01*
X341570723Y-64398104D01*
X341570723Y-64142104D01*
X341590725Y-64073983D01*
X341644381Y-64027490D01*
X341696723Y-64016104D01*
X343314607Y-64016104D01*
X343329846Y-64011629D01*
X343331051Y-64010239D01*
X343332722Y-64002556D01*
X343332722Y-63675435D01*
X343332352Y-63668614D01*
X343326828Y-63617752D01*
X343323202Y-63602500D01*
X343278044Y-63482043D01*
X343277549Y-63481138D01*
X343277330Y-63480138D01*
X343274895Y-63473642D01*
X343275833Y-63473290D01*
X343262380Y-63411781D01*
X343275561Y-63366892D01*
X343275338Y-63366809D01*
X343276479Y-63363767D01*
X343276481Y-63363760D01*
X343284532Y-63342286D01*
X343323694Y-63237819D01*
X343326468Y-63230420D01*
X343333223Y-63168238D01*
X343333223Y-61971970D01*
X343326468Y-61909788D01*
X343285754Y-61801183D01*
X343278489Y-61781803D01*
X343278487Y-61781800D01*
X343275338Y-61773399D01*
X343276189Y-61773080D01*
X343262668Y-61711255D01*
X343275681Y-61666938D01*
X343275338Y-61666809D01*
X343277095Y-61662123D01*
X343277096Y-61662119D01*
X343326468Y-61530420D01*
X343333223Y-61468238D01*
X343333223Y-60271970D01*
X343326468Y-60209788D01*
X343275338Y-60073399D01*
X343187984Y-59956843D01*
X343071428Y-59869489D01*
X342935039Y-59818359D01*
X342872857Y-59811604D01*
X340776589Y-59811604D01*
X340714407Y-59818359D01*
X340578018Y-59869489D01*
X340504289Y-59924746D01*
X340490288Y-59935239D01*
X340423782Y-59960087D01*
X340354399Y-59945034D01*
X340339158Y-59935239D01*
X340325157Y-59924746D01*
X340251428Y-59869489D01*
X340115039Y-59818359D01*
X340052857Y-59811604D01*
X337956589Y-59811604D01*
X337894407Y-59818359D01*
X337758018Y-59869489D01*
X337641462Y-59956843D01*
X337554108Y-60073399D01*
X337502978Y-60209788D01*
X337496223Y-60271970D01*
X337496223Y-61468238D01*
X337502978Y-61530420D01*
X337554108Y-61666809D01*
X337553257Y-61667128D01*
X337566778Y-61728953D01*
X337553765Y-61773270D01*
X337554108Y-61773399D01*
X337550959Y-61781800D01*
X337550957Y-61781803D01*
X337543692Y-61801183D01*
X337502978Y-61909788D01*
X337496223Y-61971970D01*
X337496223Y-63168238D01*
X337502978Y-63230420D01*
X337505752Y-63237819D01*
X337544915Y-63342286D01*
X337552968Y-63363767D01*
X337554108Y-63366809D01*
X337553257Y-63367128D01*
X337566778Y-63428953D01*
X337553765Y-63473270D01*
X337554108Y-63473399D01*
X337550959Y-63481800D01*
X337550957Y-63481803D01*
X337520699Y-63562518D01*
X337502978Y-63609788D01*
X337496223Y-63671970D01*
X337496223Y-64475604D01*
X337476221Y-64543725D01*
X337422565Y-64590218D01*
X337370223Y-64601604D01*
X335824482Y-64601604D01*
X335756361Y-64581602D01*
X335711389Y-64529702D01*
X335706858Y-64525775D01*
X335699175Y-64524104D01*
X334076723Y-64524104D01*
X334008602Y-64504102D01*
X333962109Y-64450446D01*
X333950723Y-64398104D01*
X333950723Y-64142104D01*
X333970725Y-64073983D01*
X334024381Y-64027490D01*
X334076723Y-64016104D01*
X335694607Y-64016104D01*
X335709846Y-64011629D01*
X335711051Y-64010239D01*
X335712722Y-64002556D01*
X335712722Y-63675435D01*
X335712352Y-63668614D01*
X335706828Y-63617752D01*
X335703202Y-63602500D01*
X335658044Y-63482043D01*
X335657549Y-63481138D01*
X335657330Y-63480138D01*
X335654895Y-63473642D01*
X335655833Y-63473290D01*
X335642380Y-63411781D01*
X335655561Y-63366892D01*
X335655338Y-63366809D01*
X335656479Y-63363767D01*
X335656481Y-63363760D01*
X335664532Y-63342286D01*
X335703694Y-63237819D01*
X335706468Y-63230420D01*
X335713223Y-63168238D01*
X335713223Y-61971970D01*
X335706468Y-61909788D01*
X335665754Y-61801183D01*
X335658489Y-61781803D01*
X335658487Y-61781800D01*
X335655338Y-61773399D01*
X335656189Y-61773080D01*
X335642668Y-61711255D01*
X335655681Y-61666938D01*
X335655338Y-61666809D01*
X335657095Y-61662123D01*
X335657096Y-61662119D01*
X335706468Y-61530420D01*
X335713223Y-61468238D01*
X335713223Y-60271970D01*
X335706468Y-60209788D01*
X335655338Y-60073399D01*
X335567984Y-59956843D01*
X335451428Y-59869489D01*
X335315039Y-59818359D01*
X335252857Y-59811604D01*
X333156589Y-59811604D01*
X333094407Y-59818359D01*
X332958018Y-59869489D01*
X332884289Y-59924746D01*
X332870288Y-59935239D01*
X332803782Y-59960087D01*
X332734399Y-59945034D01*
X332719158Y-59935239D01*
X332705157Y-59924746D01*
X332631428Y-59869489D01*
X332495039Y-59818359D01*
X332432857Y-59811604D01*
X330336589Y-59811604D01*
X330274407Y-59818359D01*
X330138018Y-59869489D01*
X330021462Y-59956843D01*
X329934108Y-60073399D01*
X329882978Y-60209788D01*
X329876223Y-60271970D01*
X329876223Y-61468238D01*
X329882978Y-61530420D01*
X329934108Y-61666809D01*
X329933257Y-61667128D01*
X329946778Y-61728953D01*
X329933765Y-61773270D01*
X329934108Y-61773399D01*
X329930959Y-61781800D01*
X329930957Y-61781803D01*
X329923692Y-61801183D01*
X329882978Y-61909788D01*
X329876223Y-61971970D01*
X329876223Y-63168238D01*
X329882978Y-63230420D01*
X329885752Y-63237819D01*
X329924915Y-63342286D01*
X329932968Y-63363767D01*
X329934108Y-63366809D01*
X329933257Y-63367128D01*
X329946778Y-63428953D01*
X329933765Y-63473270D01*
X329934108Y-63473399D01*
X329930959Y-63481800D01*
X329930957Y-63481803D01*
X329900699Y-63562518D01*
X329882978Y-63609788D01*
X329876223Y-63671970D01*
X329876223Y-64475604D01*
X329856221Y-64543725D01*
X329802565Y-64590218D01*
X329750223Y-64601604D01*
X328204482Y-64601604D01*
X328136361Y-64581602D01*
X328091389Y-64529702D01*
X328086858Y-64525775D01*
X328079175Y-64524104D01*
X326456723Y-64524104D01*
X326388602Y-64504102D01*
X326342109Y-64450446D01*
X326330723Y-64398104D01*
X326330723Y-64142104D01*
X326350725Y-64073983D01*
X326404381Y-64027490D01*
X326456723Y-64016104D01*
X328074607Y-64016104D01*
X328089846Y-64011629D01*
X328091051Y-64010239D01*
X328092722Y-64002556D01*
X328092722Y-63675435D01*
X328092352Y-63668614D01*
X328086828Y-63617752D01*
X328083202Y-63602500D01*
X328038044Y-63482043D01*
X328037549Y-63481138D01*
X328037330Y-63480138D01*
X328034895Y-63473642D01*
X328035833Y-63473290D01*
X328022380Y-63411781D01*
X328035561Y-63366892D01*
X328035338Y-63366809D01*
X328036479Y-63363767D01*
X328036481Y-63363760D01*
X328044532Y-63342286D01*
X328083694Y-63237819D01*
X328086468Y-63230420D01*
X328093223Y-63168238D01*
X328093223Y-61971970D01*
X328086468Y-61909788D01*
X328045754Y-61801183D01*
X328038489Y-61781803D01*
X328038487Y-61781800D01*
X328035338Y-61773399D01*
X328036189Y-61773080D01*
X328022668Y-61711255D01*
X328035681Y-61666938D01*
X328035338Y-61666809D01*
X328037095Y-61662123D01*
X328037096Y-61662119D01*
X328086468Y-61530420D01*
X328093223Y-61468238D01*
X328093223Y-60271970D01*
X328086468Y-60209788D01*
X328035338Y-60073399D01*
X327947984Y-59956843D01*
X327831428Y-59869489D01*
X327695039Y-59818359D01*
X327632857Y-59811604D01*
X325536589Y-59811604D01*
X325474407Y-59818359D01*
X325338018Y-59869489D01*
X325264289Y-59924746D01*
X325250288Y-59935239D01*
X325183782Y-59960087D01*
X325114399Y-59945034D01*
X325099158Y-59935239D01*
X325085157Y-59924746D01*
X325011428Y-59869489D01*
X324875039Y-59818359D01*
X324812857Y-59811604D01*
X322716589Y-59811604D01*
X322654407Y-59818359D01*
X322518018Y-59869489D01*
X322401462Y-59956843D01*
X322314108Y-60073399D01*
X322262978Y-60209788D01*
X322256223Y-60271970D01*
X322256223Y-61468238D01*
X322262978Y-61530420D01*
X322314108Y-61666809D01*
X322313257Y-61667128D01*
X322326778Y-61728953D01*
X322313765Y-61773270D01*
X322314108Y-61773399D01*
X322310959Y-61781800D01*
X322310957Y-61781803D01*
X322303692Y-61801183D01*
X322262978Y-61909788D01*
X322256223Y-61971970D01*
X322256223Y-63168238D01*
X322262978Y-63230420D01*
X322265752Y-63237819D01*
X322304915Y-63342286D01*
X322312968Y-63363767D01*
X322314108Y-63366809D01*
X322313257Y-63367128D01*
X322326778Y-63428953D01*
X322313765Y-63473270D01*
X322314108Y-63473399D01*
X322310959Y-63481800D01*
X322310957Y-63481803D01*
X322280699Y-63562518D01*
X322262978Y-63609788D01*
X322256223Y-63671970D01*
X322256223Y-64475604D01*
X322236221Y-64543725D01*
X322182565Y-64590218D01*
X322130223Y-64601604D01*
X320584482Y-64601604D01*
X320516361Y-64581602D01*
X320471389Y-64529702D01*
X320466858Y-64525775D01*
X320459175Y-64524104D01*
X318836723Y-64524104D01*
X318768602Y-64504102D01*
X318722109Y-64450446D01*
X318710723Y-64398104D01*
X318710723Y-64142104D01*
X318730725Y-64073983D01*
X318784381Y-64027490D01*
X318836723Y-64016104D01*
X320454607Y-64016104D01*
X320469846Y-64011629D01*
X320471051Y-64010239D01*
X320472722Y-64002556D01*
X320472722Y-63675435D01*
X320472352Y-63668614D01*
X320466828Y-63617752D01*
X320463202Y-63602500D01*
X320418044Y-63482043D01*
X320417549Y-63481138D01*
X320417330Y-63480138D01*
X320414895Y-63473642D01*
X320415833Y-63473290D01*
X320402380Y-63411781D01*
X320415561Y-63366892D01*
X320415338Y-63366809D01*
X320416479Y-63363767D01*
X320416481Y-63363760D01*
X320424532Y-63342286D01*
X320463694Y-63237819D01*
X320466468Y-63230420D01*
X320473223Y-63168238D01*
X320473223Y-61971970D01*
X320466468Y-61909788D01*
X320425754Y-61801183D01*
X320418489Y-61781803D01*
X320418487Y-61781800D01*
X320415338Y-61773399D01*
X320416189Y-61773080D01*
X320402668Y-61711255D01*
X320415681Y-61666938D01*
X320415338Y-61666809D01*
X320417095Y-61662123D01*
X320417096Y-61662119D01*
X320466468Y-61530420D01*
X320473223Y-61468238D01*
X320473223Y-60271970D01*
X320466468Y-60209788D01*
X320415338Y-60073399D01*
X320327984Y-59956843D01*
X320211428Y-59869489D01*
X320075039Y-59818359D01*
X320012857Y-59811604D01*
X317916589Y-59811604D01*
X317854407Y-59818359D01*
X317718018Y-59869489D01*
X317644289Y-59924746D01*
X317630288Y-59935239D01*
X317563782Y-59960087D01*
X317494399Y-59945034D01*
X317479158Y-59935239D01*
X317465157Y-59924746D01*
X317391428Y-59869489D01*
X317255039Y-59818359D01*
X317192857Y-59811604D01*
X315096589Y-59811604D01*
X315034407Y-59818359D01*
X314898018Y-59869489D01*
X314781462Y-59956843D01*
X314694108Y-60073399D01*
X314642978Y-60209788D01*
X314636223Y-60271970D01*
X314636223Y-61468238D01*
X314642978Y-61530420D01*
X314694108Y-61666809D01*
X314693257Y-61667128D01*
X314706778Y-61728953D01*
X314693765Y-61773270D01*
X314694108Y-61773399D01*
X314690959Y-61781800D01*
X314690957Y-61781803D01*
X314683692Y-61801183D01*
X314642978Y-61909788D01*
X314636223Y-61971970D01*
X314636223Y-63168238D01*
X314642978Y-63230420D01*
X314645752Y-63237819D01*
X314684915Y-63342286D01*
X314692968Y-63363767D01*
X314694108Y-63366809D01*
X314693257Y-63367128D01*
X314706778Y-63428953D01*
X314693765Y-63473270D01*
X314694108Y-63473399D01*
X314690959Y-63481800D01*
X314690957Y-63481803D01*
X314660699Y-63562518D01*
X314642978Y-63609788D01*
X314636223Y-63671970D01*
X314636223Y-64475604D01*
X314616221Y-64543725D01*
X314562565Y-64590218D01*
X314510223Y-64601604D01*
X312964482Y-64601604D01*
X312896361Y-64581602D01*
X312851389Y-64529702D01*
X312846858Y-64525775D01*
X312839175Y-64524104D01*
X311216723Y-64524104D01*
X311148602Y-64504102D01*
X311102109Y-64450446D01*
X311090723Y-64398104D01*
X311090723Y-64142104D01*
X311110725Y-64073983D01*
X311164381Y-64027490D01*
X311216723Y-64016104D01*
X312834607Y-64016104D01*
X312849846Y-64011629D01*
X312851051Y-64010239D01*
X312852722Y-64002556D01*
X312852722Y-63675435D01*
X312852352Y-63668614D01*
X312846828Y-63617752D01*
X312843202Y-63602500D01*
X312798044Y-63482043D01*
X312797549Y-63481138D01*
X312797330Y-63480138D01*
X312794895Y-63473642D01*
X312795833Y-63473290D01*
X312782380Y-63411781D01*
X312795561Y-63366892D01*
X312795338Y-63366809D01*
X312796479Y-63363767D01*
X312796481Y-63363760D01*
X312804532Y-63342286D01*
X312843694Y-63237819D01*
X312846468Y-63230420D01*
X312853223Y-63168238D01*
X312853223Y-61971970D01*
X312846468Y-61909788D01*
X312805754Y-61801183D01*
X312798489Y-61781803D01*
X312798487Y-61781800D01*
X312795338Y-61773399D01*
X312796189Y-61773080D01*
X312782668Y-61711255D01*
X312795681Y-61666938D01*
X312795338Y-61666809D01*
X312797095Y-61662123D01*
X312797096Y-61662119D01*
X312846468Y-61530420D01*
X312853223Y-61468238D01*
X312853223Y-60271970D01*
X312846468Y-60209788D01*
X312795338Y-60073399D01*
X312707984Y-59956843D01*
X312591428Y-59869489D01*
X312455039Y-59818359D01*
X312392857Y-59811604D01*
X310296589Y-59811604D01*
X310234407Y-59818359D01*
X310098018Y-59869489D01*
X310024289Y-59924746D01*
X310010288Y-59935239D01*
X309943782Y-59960087D01*
X309874399Y-59945034D01*
X309859158Y-59935239D01*
X309845157Y-59924746D01*
X309771428Y-59869489D01*
X309635039Y-59818359D01*
X309572857Y-59811604D01*
X307476589Y-59811604D01*
X307414407Y-59818359D01*
X307278018Y-59869489D01*
X307161462Y-59956843D01*
X307074108Y-60073399D01*
X307022978Y-60209788D01*
X307016223Y-60271970D01*
X307016223Y-61468238D01*
X307022978Y-61530420D01*
X307074108Y-61666809D01*
X307073257Y-61667128D01*
X307086778Y-61728953D01*
X307073765Y-61773270D01*
X307074108Y-61773399D01*
X307070959Y-61781800D01*
X307070957Y-61781803D01*
X307063692Y-61801183D01*
X307022978Y-61909788D01*
X307016223Y-61971970D01*
X307016223Y-63168238D01*
X307022978Y-63230420D01*
X307025752Y-63237819D01*
X307064915Y-63342286D01*
X307072968Y-63363767D01*
X307074108Y-63366809D01*
X307073257Y-63367128D01*
X307086778Y-63428953D01*
X307073765Y-63473270D01*
X307074108Y-63473399D01*
X307070959Y-63481800D01*
X307070957Y-63481803D01*
X307040699Y-63562518D01*
X307022978Y-63609788D01*
X307016223Y-63671970D01*
X307016223Y-64475604D01*
X306996221Y-64543725D01*
X306942565Y-64590218D01*
X306890223Y-64601604D01*
X305344482Y-64601604D01*
X305276361Y-64581602D01*
X305231389Y-64529702D01*
X305226858Y-64525775D01*
X305219175Y-64524104D01*
X303596723Y-64524104D01*
X303528602Y-64504102D01*
X303482109Y-64450446D01*
X303470723Y-64398104D01*
X303470723Y-64142104D01*
X303490725Y-64073983D01*
X303544381Y-64027490D01*
X303596723Y-64016104D01*
X305214607Y-64016104D01*
X305229846Y-64011629D01*
X305231051Y-64010239D01*
X305232722Y-64002556D01*
X305232722Y-63675435D01*
X305232352Y-63668614D01*
X305226828Y-63617752D01*
X305223202Y-63602500D01*
X305178044Y-63482043D01*
X305177549Y-63481138D01*
X305177330Y-63480138D01*
X305174895Y-63473642D01*
X305175833Y-63473290D01*
X305162380Y-63411781D01*
X305175561Y-63366892D01*
X305175338Y-63366809D01*
X305176479Y-63363767D01*
X305176481Y-63363760D01*
X305184532Y-63342286D01*
X305223694Y-63237819D01*
X305226468Y-63230420D01*
X305233223Y-63168238D01*
X305233223Y-61971970D01*
X305226468Y-61909788D01*
X305185754Y-61801183D01*
X305178489Y-61781803D01*
X305178487Y-61781800D01*
X305175338Y-61773399D01*
X305176189Y-61773080D01*
X305162668Y-61711255D01*
X305175681Y-61666938D01*
X305175338Y-61666809D01*
X305177095Y-61662123D01*
X305177096Y-61662119D01*
X305226468Y-61530420D01*
X305233223Y-61468238D01*
X305233223Y-60271970D01*
X305226468Y-60209788D01*
X305175338Y-60073399D01*
X305087984Y-59956843D01*
X304971428Y-59869489D01*
X304835039Y-59818359D01*
X304772857Y-59811604D01*
X302676589Y-59811604D01*
X302614407Y-59818359D01*
X302478018Y-59869489D01*
X302404289Y-59924746D01*
X302390288Y-59935239D01*
X302323782Y-59960087D01*
X302254399Y-59945034D01*
X302239158Y-59935239D01*
X302225157Y-59924746D01*
X302151428Y-59869489D01*
X302015039Y-59818359D01*
X301952857Y-59811604D01*
X299856589Y-59811604D01*
X299794407Y-59818359D01*
X299658018Y-59869489D01*
X299541462Y-59956843D01*
X299454108Y-60073399D01*
X299402978Y-60209788D01*
X299396223Y-60271970D01*
X299396223Y-61468238D01*
X299402978Y-61530420D01*
X299454108Y-61666809D01*
X299453257Y-61667128D01*
X299466778Y-61728953D01*
X299453765Y-61773270D01*
X299454108Y-61773399D01*
X299450959Y-61781800D01*
X299450957Y-61781803D01*
X299443692Y-61801183D01*
X299402978Y-61909788D01*
X299396223Y-61971970D01*
X299396223Y-63168238D01*
X299402978Y-63230420D01*
X299405752Y-63237819D01*
X299444915Y-63342286D01*
X299452968Y-63363767D01*
X299454108Y-63366809D01*
X299453257Y-63367128D01*
X299466778Y-63428953D01*
X299453765Y-63473270D01*
X299454108Y-63473399D01*
X299450959Y-63481800D01*
X299450957Y-63481803D01*
X299420699Y-63562518D01*
X299402978Y-63609788D01*
X299396223Y-63671970D01*
X299396223Y-64475604D01*
X299376221Y-64543725D01*
X299322565Y-64590218D01*
X299270223Y-64601604D01*
X297724482Y-64601604D01*
X297656361Y-64581602D01*
X297611389Y-64529702D01*
X297606858Y-64525775D01*
X297599175Y-64524104D01*
X295976723Y-64524104D01*
X295908602Y-64504102D01*
X295862109Y-64450446D01*
X295850723Y-64398104D01*
X295850723Y-64142104D01*
X295870725Y-64073983D01*
X295924381Y-64027490D01*
X295976723Y-64016104D01*
X297594607Y-64016104D01*
X297609846Y-64011629D01*
X297611051Y-64010239D01*
X297612722Y-64002556D01*
X297612722Y-63675435D01*
X297612352Y-63668614D01*
X297606828Y-63617752D01*
X297603202Y-63602500D01*
X297558044Y-63482043D01*
X297557549Y-63481138D01*
X297557330Y-63480138D01*
X297554895Y-63473642D01*
X297555833Y-63473290D01*
X297542380Y-63411781D01*
X297555561Y-63366892D01*
X297555338Y-63366809D01*
X297556479Y-63363767D01*
X297556481Y-63363760D01*
X297564532Y-63342286D01*
X297603694Y-63237819D01*
X297606468Y-63230420D01*
X297613223Y-63168238D01*
X297613223Y-61971970D01*
X297606468Y-61909788D01*
X297565754Y-61801183D01*
X297558489Y-61781803D01*
X297558487Y-61781800D01*
X297555338Y-61773399D01*
X297556189Y-61773080D01*
X297542668Y-61711255D01*
X297555681Y-61666938D01*
X297555338Y-61666809D01*
X297557095Y-61662123D01*
X297557096Y-61662119D01*
X297606468Y-61530420D01*
X297613223Y-61468238D01*
X297613223Y-60271970D01*
X297606468Y-60209788D01*
X297555338Y-60073399D01*
X297467984Y-59956843D01*
X297351428Y-59869489D01*
X297215039Y-59818359D01*
X297152857Y-59811604D01*
X295056589Y-59811604D01*
X294994407Y-59818359D01*
X294858018Y-59869489D01*
X294784289Y-59924746D01*
X294770288Y-59935239D01*
X294703782Y-59960087D01*
X294634399Y-59945034D01*
X294619158Y-59935239D01*
X294605157Y-59924746D01*
X294531428Y-59869489D01*
X294395039Y-59818359D01*
X294332857Y-59811604D01*
X292236589Y-59811604D01*
X292174407Y-59818359D01*
X292038018Y-59869489D01*
X291921462Y-59956843D01*
X291834108Y-60073399D01*
X291782978Y-60209788D01*
X291776223Y-60271970D01*
X291776223Y-61468238D01*
X291782978Y-61530420D01*
X291834108Y-61666809D01*
X291833257Y-61667128D01*
X291846778Y-61728953D01*
X291833765Y-61773270D01*
X291834108Y-61773399D01*
X291830959Y-61781800D01*
X291830957Y-61781803D01*
X291823692Y-61801183D01*
X291782978Y-61909788D01*
X291776223Y-61971970D01*
X291776223Y-63168238D01*
X291782978Y-63230420D01*
X291785752Y-63237819D01*
X291824915Y-63342286D01*
X291832968Y-63363767D01*
X291834108Y-63366809D01*
X291833257Y-63367128D01*
X291846778Y-63428953D01*
X291833765Y-63473270D01*
X291834108Y-63473399D01*
X291830959Y-63481800D01*
X291830957Y-63481803D01*
X291800699Y-63562518D01*
X291782978Y-63609788D01*
X291776223Y-63671970D01*
X291776223Y-64475604D01*
X291756221Y-64543725D01*
X291702565Y-64590218D01*
X291650223Y-64601604D01*
X290104482Y-64601604D01*
X290036361Y-64581602D01*
X289991389Y-64529702D01*
X289986858Y-64525775D01*
X289979175Y-64524104D01*
X288356723Y-64524104D01*
X288288602Y-64504102D01*
X288242109Y-64450446D01*
X288230723Y-64398104D01*
X288230723Y-64142104D01*
X288250725Y-64073983D01*
X288304381Y-64027490D01*
X288356723Y-64016104D01*
X289974607Y-64016104D01*
X289989846Y-64011629D01*
X289991051Y-64010239D01*
X289992722Y-64002556D01*
X289992722Y-63675435D01*
X289992352Y-63668614D01*
X289986828Y-63617752D01*
X289983202Y-63602500D01*
X289938044Y-63482043D01*
X289937549Y-63481138D01*
X289937330Y-63480138D01*
X289934895Y-63473642D01*
X289935833Y-63473290D01*
X289922380Y-63411781D01*
X289935561Y-63366892D01*
X289935338Y-63366809D01*
X289936479Y-63363767D01*
X289936481Y-63363760D01*
X289944532Y-63342286D01*
X289983694Y-63237819D01*
X289986468Y-63230420D01*
X289993223Y-63168238D01*
X289993223Y-61971970D01*
X289986468Y-61909788D01*
X289945754Y-61801183D01*
X289938489Y-61781803D01*
X289938487Y-61781800D01*
X289935338Y-61773399D01*
X289936189Y-61773080D01*
X289922668Y-61711255D01*
X289935681Y-61666938D01*
X289935338Y-61666809D01*
X289937095Y-61662123D01*
X289937096Y-61662119D01*
X289986468Y-61530420D01*
X289993223Y-61468238D01*
X289993223Y-60271970D01*
X289986468Y-60209788D01*
X289935338Y-60073399D01*
X289847984Y-59956843D01*
X289731428Y-59869489D01*
X289595039Y-59818359D01*
X289532857Y-59811604D01*
X287436589Y-59811604D01*
X287374407Y-59818359D01*
X287238018Y-59869489D01*
X287164289Y-59924746D01*
X287150288Y-59935239D01*
X287083782Y-59960087D01*
X287014399Y-59945034D01*
X286999158Y-59935239D01*
X286985157Y-59924746D01*
X286911428Y-59869489D01*
X286775039Y-59818359D01*
X286712857Y-59811604D01*
X284616589Y-59811604D01*
X284554407Y-59818359D01*
X284418018Y-59869489D01*
X284301462Y-59956843D01*
X284214108Y-60073399D01*
X284162978Y-60209788D01*
X284156223Y-60271970D01*
X284156223Y-61468238D01*
X284162978Y-61530420D01*
X284214108Y-61666809D01*
X284213257Y-61667128D01*
X284226778Y-61728953D01*
X284213765Y-61773270D01*
X284214108Y-61773399D01*
X284210959Y-61781800D01*
X284210957Y-61781803D01*
X284203692Y-61801183D01*
X284162978Y-61909788D01*
X284156223Y-61971970D01*
X284156223Y-63168238D01*
X284162978Y-63230420D01*
X284165752Y-63237819D01*
X284204915Y-63342286D01*
X284212968Y-63363767D01*
X284214108Y-63366809D01*
X284213257Y-63367128D01*
X284226778Y-63428953D01*
X284213765Y-63473270D01*
X284214108Y-63473399D01*
X284210959Y-63481800D01*
X284210957Y-63481803D01*
X284180699Y-63562518D01*
X284162978Y-63609788D01*
X284156223Y-63671970D01*
X284156223Y-64475604D01*
X284136221Y-64543725D01*
X284082565Y-64590218D01*
X284030223Y-64601604D01*
X282484482Y-64601604D01*
X282416361Y-64581602D01*
X282371389Y-64529702D01*
X282366858Y-64525775D01*
X282359175Y-64524104D01*
X280736723Y-64524104D01*
X280668602Y-64504102D01*
X280622109Y-64450446D01*
X280610723Y-64398104D01*
X280610723Y-64142104D01*
X280630725Y-64073983D01*
X280684381Y-64027490D01*
X280736723Y-64016104D01*
X282354607Y-64016104D01*
X282369846Y-64011629D01*
X282371051Y-64010239D01*
X282372722Y-64002556D01*
X282372722Y-63675435D01*
X282372352Y-63668614D01*
X282366828Y-63617752D01*
X282363202Y-63602500D01*
X282318044Y-63482043D01*
X282317549Y-63481138D01*
X282317330Y-63480138D01*
X282314895Y-63473642D01*
X282315833Y-63473290D01*
X282302380Y-63411781D01*
X282315561Y-63366892D01*
X282315338Y-63366809D01*
X282316479Y-63363767D01*
X282316481Y-63363760D01*
X282324532Y-63342286D01*
X282363694Y-63237819D01*
X282366468Y-63230420D01*
X282373223Y-63168238D01*
X282373223Y-61971970D01*
X282366468Y-61909788D01*
X282325754Y-61801183D01*
X282318489Y-61781803D01*
X282318487Y-61781800D01*
X282315338Y-61773399D01*
X282316189Y-61773080D01*
X282302668Y-61711255D01*
X282315681Y-61666938D01*
X282315338Y-61666809D01*
X282317095Y-61662123D01*
X282317096Y-61662119D01*
X282366468Y-61530420D01*
X282373223Y-61468238D01*
X282373223Y-60271970D01*
X282366468Y-60209788D01*
X282315338Y-60073399D01*
X282227984Y-59956843D01*
X282111428Y-59869489D01*
X281975039Y-59818359D01*
X281912857Y-59811604D01*
X279816589Y-59811604D01*
X279754407Y-59818359D01*
X279618018Y-59869489D01*
X279544289Y-59924746D01*
X279530288Y-59935239D01*
X279463782Y-59960087D01*
X279394399Y-59945034D01*
X279379158Y-59935239D01*
X279365157Y-59924746D01*
X279291428Y-59869489D01*
X279155039Y-59818359D01*
X279092857Y-59811604D01*
X276996589Y-59811604D01*
X276934407Y-59818359D01*
X276798018Y-59869489D01*
X276681462Y-59956843D01*
X276594108Y-60073399D01*
X276542978Y-60209788D01*
X276536223Y-60271970D01*
X276536223Y-61468238D01*
X276542978Y-61530420D01*
X276594108Y-61666809D01*
X276593257Y-61667128D01*
X276606778Y-61728953D01*
X276593765Y-61773270D01*
X276594108Y-61773399D01*
X276590959Y-61781800D01*
X276590957Y-61781803D01*
X276583692Y-61801183D01*
X276542978Y-61909788D01*
X276536223Y-61971970D01*
X276536223Y-63168238D01*
X276542978Y-63230420D01*
X276545752Y-63237819D01*
X276584915Y-63342286D01*
X276592968Y-63363767D01*
X276594108Y-63366809D01*
X276593257Y-63367128D01*
X276606778Y-63428953D01*
X276593765Y-63473270D01*
X276594108Y-63473399D01*
X276590959Y-63481800D01*
X276590957Y-63481803D01*
X276560699Y-63562518D01*
X276542978Y-63609788D01*
X276536223Y-63671970D01*
X276536223Y-64475604D01*
X276516221Y-64543725D01*
X276462565Y-64590218D01*
X276410223Y-64601604D01*
X274864482Y-64601604D01*
X274796361Y-64581602D01*
X274751389Y-64529702D01*
X274746858Y-64525775D01*
X274739175Y-64524104D01*
X273116723Y-64524104D01*
X273048602Y-64504102D01*
X273002109Y-64450446D01*
X272990723Y-64398104D01*
X272990723Y-64142104D01*
X273010725Y-64073983D01*
X273064381Y-64027490D01*
X273116723Y-64016104D01*
X274734607Y-64016104D01*
X274749846Y-64011629D01*
X274751051Y-64010239D01*
X274752722Y-64002556D01*
X274752722Y-63675435D01*
X274752352Y-63668614D01*
X274746828Y-63617752D01*
X274743202Y-63602500D01*
X274698044Y-63482043D01*
X274697549Y-63481138D01*
X274697330Y-63480138D01*
X274694895Y-63473642D01*
X274695833Y-63473290D01*
X274682380Y-63411781D01*
X274695561Y-63366892D01*
X274695338Y-63366809D01*
X274696479Y-63363767D01*
X274696481Y-63363760D01*
X274704532Y-63342286D01*
X274743694Y-63237819D01*
X274746468Y-63230420D01*
X274753223Y-63168238D01*
X274753223Y-61971970D01*
X274746468Y-61909788D01*
X274705754Y-61801183D01*
X274698489Y-61781803D01*
X274698487Y-61781800D01*
X274695338Y-61773399D01*
X274696189Y-61773080D01*
X274682668Y-61711255D01*
X274695681Y-61666938D01*
X274695338Y-61666809D01*
X274697095Y-61662123D01*
X274697096Y-61662119D01*
X274746468Y-61530420D01*
X274753223Y-61468238D01*
X274753223Y-60271970D01*
X274746468Y-60209788D01*
X274695338Y-60073399D01*
X274607984Y-59956843D01*
X274491428Y-59869489D01*
X274355039Y-59818359D01*
X274292857Y-59811604D01*
X272196589Y-59811604D01*
X272134407Y-59818359D01*
X271998018Y-59869489D01*
X271924289Y-59924746D01*
X271910288Y-59935239D01*
X271843782Y-59960087D01*
X271774399Y-59945034D01*
X271759158Y-59935239D01*
X271745157Y-59924746D01*
X271671428Y-59869489D01*
X271535039Y-59818359D01*
X271472857Y-59811604D01*
X269376589Y-59811604D01*
X269314407Y-59818359D01*
X269178018Y-59869489D01*
X269061462Y-59956843D01*
X268974108Y-60073399D01*
X268922978Y-60209788D01*
X268916223Y-60271970D01*
X268916223Y-61468238D01*
X268922978Y-61530420D01*
X268974108Y-61666809D01*
X268973257Y-61667128D01*
X268986778Y-61728953D01*
X268973765Y-61773270D01*
X268974108Y-61773399D01*
X268970959Y-61781800D01*
X268970957Y-61781803D01*
X268963692Y-61801183D01*
X268922978Y-61909788D01*
X268916223Y-61971970D01*
X268916223Y-63168238D01*
X268922978Y-63230420D01*
X268925752Y-63237819D01*
X268964915Y-63342286D01*
X268972968Y-63363767D01*
X268974108Y-63366809D01*
X268973257Y-63367128D01*
X268986778Y-63428953D01*
X268973765Y-63473270D01*
X268974108Y-63473399D01*
X268970959Y-63481800D01*
X268970957Y-63481803D01*
X268940699Y-63562518D01*
X268922978Y-63609788D01*
X268916223Y-63671970D01*
X268916223Y-64475604D01*
X268896221Y-64543725D01*
X268842565Y-64590218D01*
X268790223Y-64601604D01*
X267244482Y-64601604D01*
X267176361Y-64581602D01*
X267131389Y-64529702D01*
X267126858Y-64525775D01*
X267119175Y-64524104D01*
X265496723Y-64524104D01*
X265428602Y-64504102D01*
X265382109Y-64450446D01*
X265370723Y-64398104D01*
X265370723Y-64142104D01*
X265390725Y-64073983D01*
X265444381Y-64027490D01*
X265496723Y-64016104D01*
X267114607Y-64016104D01*
X267129846Y-64011629D01*
X267131051Y-64010239D01*
X267132722Y-64002556D01*
X267132722Y-63675435D01*
X267132352Y-63668614D01*
X267126828Y-63617752D01*
X267123202Y-63602500D01*
X267078044Y-63482043D01*
X267077549Y-63481138D01*
X267077330Y-63480138D01*
X267074895Y-63473642D01*
X267075833Y-63473290D01*
X267062380Y-63411781D01*
X267075561Y-63366892D01*
X267075338Y-63366809D01*
X267076479Y-63363767D01*
X267076481Y-63363760D01*
X267084532Y-63342286D01*
X267123694Y-63237819D01*
X267126468Y-63230420D01*
X267133223Y-63168238D01*
X267133223Y-61971970D01*
X267126468Y-61909788D01*
X267085754Y-61801183D01*
X267078489Y-61781803D01*
X267078487Y-61781800D01*
X267075338Y-61773399D01*
X267076189Y-61773080D01*
X267062668Y-61711255D01*
X267075681Y-61666938D01*
X267075338Y-61666809D01*
X267077095Y-61662123D01*
X267077096Y-61662119D01*
X267126468Y-61530420D01*
X267133223Y-61468238D01*
X267133223Y-60271970D01*
X267126468Y-60209788D01*
X267075338Y-60073399D01*
X266987984Y-59956843D01*
X266871428Y-59869489D01*
X266735039Y-59818359D01*
X266672857Y-59811604D01*
X264576589Y-59811604D01*
X264514407Y-59818359D01*
X264378018Y-59869489D01*
X264304289Y-59924746D01*
X264290288Y-59935239D01*
X264223782Y-59960087D01*
X264154399Y-59945034D01*
X264139158Y-59935239D01*
X264125157Y-59924746D01*
X264051428Y-59869489D01*
X263915039Y-59818359D01*
X263852857Y-59811604D01*
X261756589Y-59811604D01*
X261694407Y-59818359D01*
X261558018Y-59869489D01*
X261441462Y-59956843D01*
X261354108Y-60073399D01*
X261302978Y-60209788D01*
X261296223Y-60271970D01*
X261296223Y-61468238D01*
X261302978Y-61530420D01*
X261354108Y-61666809D01*
X261353257Y-61667128D01*
X261366778Y-61728953D01*
X261353765Y-61773270D01*
X261354108Y-61773399D01*
X261350959Y-61781800D01*
X261350957Y-61781803D01*
X261343692Y-61801183D01*
X261302978Y-61909788D01*
X261296223Y-61971970D01*
X261296223Y-63168238D01*
X261302978Y-63230420D01*
X261305752Y-63237819D01*
X261344915Y-63342286D01*
X261352968Y-63363767D01*
X261354108Y-63366809D01*
X261353257Y-63367128D01*
X261366778Y-63428953D01*
X261353765Y-63473270D01*
X261354108Y-63473399D01*
X261350959Y-63481800D01*
X261350957Y-63481803D01*
X261320699Y-63562518D01*
X261302978Y-63609788D01*
X261296223Y-63671970D01*
X261296223Y-64475604D01*
X261276221Y-64543725D01*
X261222565Y-64590218D01*
X261170223Y-64601604D01*
X259624482Y-64601604D01*
X259556361Y-64581602D01*
X259511389Y-64529702D01*
X259506858Y-64525775D01*
X259499175Y-64524104D01*
X257876723Y-64524104D01*
X257808602Y-64504102D01*
X257762109Y-64450446D01*
X257750723Y-64398104D01*
X257750723Y-64142104D01*
X257770725Y-64073983D01*
X257824381Y-64027490D01*
X257876723Y-64016104D01*
X259494607Y-64016104D01*
X259509846Y-64011629D01*
X259511051Y-64010239D01*
X259512722Y-64002556D01*
X259512722Y-63675435D01*
X259512352Y-63668614D01*
X259506828Y-63617752D01*
X259503202Y-63602500D01*
X259458044Y-63482043D01*
X259457549Y-63481138D01*
X259457330Y-63480138D01*
X259454895Y-63473642D01*
X259455833Y-63473290D01*
X259442380Y-63411781D01*
X259455561Y-63366892D01*
X259455338Y-63366809D01*
X259456479Y-63363767D01*
X259456481Y-63363760D01*
X259464532Y-63342286D01*
X259503694Y-63237819D01*
X259506468Y-63230420D01*
X259513223Y-63168238D01*
X259513223Y-61971970D01*
X259506468Y-61909788D01*
X259465754Y-61801183D01*
X259458489Y-61781803D01*
X259458487Y-61781800D01*
X259455338Y-61773399D01*
X259456189Y-61773080D01*
X259442668Y-61711255D01*
X259455681Y-61666938D01*
X259455338Y-61666809D01*
X259457095Y-61662123D01*
X259457096Y-61662119D01*
X259506468Y-61530420D01*
X259513223Y-61468238D01*
X259513223Y-60271970D01*
X259506468Y-60209788D01*
X259455338Y-60073399D01*
X259367984Y-59956843D01*
X259251428Y-59869489D01*
X259115039Y-59818359D01*
X259052857Y-59811604D01*
X256956589Y-59811604D01*
X256894407Y-59818359D01*
X256758018Y-59869489D01*
X256684289Y-59924746D01*
X256670288Y-59935239D01*
X256603782Y-59960087D01*
X256534399Y-59945034D01*
X256519158Y-59935239D01*
X256505157Y-59924746D01*
X256431428Y-59869489D01*
X256295039Y-59818359D01*
X256232857Y-59811604D01*
X254136589Y-59811604D01*
X254074407Y-59818359D01*
X253938018Y-59869489D01*
X253821462Y-59956843D01*
X253734108Y-60073399D01*
X253682978Y-60209788D01*
X253676223Y-60271970D01*
X253676223Y-61468238D01*
X253682978Y-61530420D01*
X253734108Y-61666809D01*
X253733257Y-61667128D01*
X253746778Y-61728953D01*
X253733765Y-61773270D01*
X253734108Y-61773399D01*
X253730959Y-61781800D01*
X253730957Y-61781803D01*
X253723692Y-61801183D01*
X253682978Y-61909788D01*
X253676223Y-61971970D01*
X253676223Y-63168238D01*
X253682978Y-63230420D01*
X253685752Y-63237819D01*
X253724915Y-63342286D01*
X253732968Y-63363767D01*
X253734108Y-63366809D01*
X253733257Y-63367128D01*
X253746778Y-63428953D01*
X253733765Y-63473270D01*
X253734108Y-63473399D01*
X253730959Y-63481800D01*
X253730957Y-63481803D01*
X253700699Y-63562518D01*
X253682978Y-63609788D01*
X253676223Y-63671970D01*
X253676223Y-64475604D01*
X253656221Y-64543725D01*
X253602565Y-64590218D01*
X253550223Y-64601604D01*
X252004482Y-64601604D01*
X251936361Y-64581602D01*
X251891389Y-64529702D01*
X251886858Y-64525775D01*
X251879175Y-64524104D01*
X250256723Y-64524104D01*
X250188602Y-64504102D01*
X250142109Y-64450446D01*
X250130723Y-64398104D01*
X250130723Y-64142104D01*
X250150725Y-64073983D01*
X250204381Y-64027490D01*
X250256723Y-64016104D01*
X251874607Y-64016104D01*
X251889846Y-64011629D01*
X251891051Y-64010239D01*
X251892722Y-64002556D01*
X251892722Y-63675435D01*
X251892352Y-63668614D01*
X251886828Y-63617752D01*
X251883202Y-63602500D01*
X251838044Y-63482043D01*
X251837549Y-63481138D01*
X251837330Y-63480138D01*
X251834895Y-63473642D01*
X251835833Y-63473290D01*
X251822380Y-63411781D01*
X251835561Y-63366892D01*
X251835338Y-63366809D01*
X251836479Y-63363767D01*
X251836481Y-63363760D01*
X251844532Y-63342286D01*
X251883694Y-63237819D01*
X251886468Y-63230420D01*
X251893223Y-63168238D01*
X251893223Y-61971970D01*
X251886468Y-61909788D01*
X251845754Y-61801183D01*
X251838489Y-61781803D01*
X251838487Y-61781800D01*
X251835338Y-61773399D01*
X251836189Y-61773080D01*
X251822668Y-61711255D01*
X251835681Y-61666938D01*
X251835338Y-61666809D01*
X251837095Y-61662123D01*
X251837096Y-61662119D01*
X251886468Y-61530420D01*
X251893223Y-61468238D01*
X251893223Y-60271970D01*
X251886468Y-60209788D01*
X251835338Y-60073399D01*
X251747984Y-59956843D01*
X251631428Y-59869489D01*
X251495039Y-59818359D01*
X251432857Y-59811604D01*
X249336589Y-59811604D01*
X249274407Y-59818359D01*
X249138018Y-59869489D01*
X249064289Y-59924746D01*
X249050288Y-59935239D01*
X248983782Y-59960087D01*
X248914399Y-59945034D01*
X248899158Y-59935239D01*
X248885157Y-59924746D01*
X248811428Y-59869489D01*
X248675039Y-59818359D01*
X248612857Y-59811604D01*
X246516589Y-59811604D01*
X246454407Y-59818359D01*
X246318018Y-59869489D01*
X246201462Y-59956843D01*
X246114108Y-60073399D01*
X246062978Y-60209788D01*
X246056223Y-60271970D01*
X246056223Y-61468238D01*
X246062978Y-61530420D01*
X246114108Y-61666809D01*
X246113257Y-61667128D01*
X246126778Y-61728953D01*
X246113765Y-61773270D01*
X246114108Y-61773399D01*
X246110959Y-61781800D01*
X246110957Y-61781803D01*
X246103692Y-61801183D01*
X246062978Y-61909788D01*
X246056223Y-61971970D01*
X246056223Y-63168238D01*
X246062978Y-63230420D01*
X246065752Y-63237819D01*
X246104915Y-63342286D01*
X246112968Y-63363767D01*
X246114108Y-63366809D01*
X246113257Y-63367128D01*
X246126778Y-63428953D01*
X246113765Y-63473270D01*
X246114108Y-63473399D01*
X246110959Y-63481800D01*
X246110957Y-63481803D01*
X246080699Y-63562518D01*
X246062978Y-63609788D01*
X246056223Y-63671970D01*
X246056223Y-64475604D01*
X246036221Y-64543725D01*
X245982565Y-64590218D01*
X245930223Y-64601604D01*
X244384482Y-64601604D01*
X244316361Y-64581602D01*
X244271389Y-64529702D01*
X244266858Y-64525775D01*
X244259175Y-64524104D01*
X242636723Y-64524104D01*
X242568602Y-64504102D01*
X242522109Y-64450446D01*
X242510723Y-64398104D01*
X242510723Y-64142104D01*
X242530725Y-64073983D01*
X242584381Y-64027490D01*
X242636723Y-64016104D01*
X244254607Y-64016104D01*
X244269846Y-64011629D01*
X244271051Y-64010239D01*
X244272722Y-64002556D01*
X244272722Y-63675435D01*
X244272352Y-63668614D01*
X244266828Y-63617752D01*
X244263202Y-63602500D01*
X244218044Y-63482043D01*
X244217549Y-63481138D01*
X244217330Y-63480138D01*
X244214895Y-63473642D01*
X244215833Y-63473290D01*
X244202380Y-63411781D01*
X244215561Y-63366892D01*
X244215338Y-63366809D01*
X244216479Y-63363767D01*
X244216481Y-63363760D01*
X244224532Y-63342286D01*
X244263694Y-63237819D01*
X244266468Y-63230420D01*
X244273223Y-63168238D01*
X244273223Y-61971970D01*
X244266468Y-61909788D01*
X244225754Y-61801183D01*
X244218489Y-61781803D01*
X244218487Y-61781800D01*
X244215338Y-61773399D01*
X244216189Y-61773080D01*
X244202668Y-61711255D01*
X244215681Y-61666938D01*
X244215338Y-61666809D01*
X244217095Y-61662123D01*
X244217096Y-61662119D01*
X244266468Y-61530420D01*
X244273223Y-61468238D01*
X244273223Y-60271970D01*
X244266468Y-60209788D01*
X244215338Y-60073399D01*
X244127984Y-59956843D01*
X244011428Y-59869489D01*
X243875039Y-59818359D01*
X243812857Y-59811604D01*
X241716589Y-59811604D01*
X241654407Y-59818359D01*
X241518018Y-59869489D01*
X241444289Y-59924746D01*
X241430288Y-59935239D01*
X241363782Y-59960087D01*
X241294399Y-59945034D01*
X241279158Y-59935239D01*
X241265157Y-59924746D01*
X241191428Y-59869489D01*
X241055039Y-59818359D01*
X240992857Y-59811604D01*
X238896589Y-59811604D01*
X238834407Y-59818359D01*
X238698018Y-59869489D01*
X238581462Y-59956843D01*
X238494108Y-60073399D01*
X238442978Y-60209788D01*
X238436223Y-60271970D01*
X238436223Y-61468238D01*
X238442978Y-61530420D01*
X238494108Y-61666809D01*
X238493257Y-61667128D01*
X238506778Y-61728953D01*
X238493765Y-61773270D01*
X238494108Y-61773399D01*
X238490959Y-61781800D01*
X238490957Y-61781803D01*
X238483692Y-61801183D01*
X238442978Y-61909788D01*
X238436223Y-61971970D01*
X238436223Y-63168238D01*
X238442978Y-63230420D01*
X238445752Y-63237819D01*
X238484915Y-63342286D01*
X238492968Y-63363767D01*
X238494108Y-63366809D01*
X238493257Y-63367128D01*
X238506778Y-63428953D01*
X238493765Y-63473270D01*
X238494108Y-63473399D01*
X238490959Y-63481800D01*
X238490957Y-63481803D01*
X238460699Y-63562518D01*
X238442978Y-63609788D01*
X238436223Y-63671970D01*
X238436223Y-64475604D01*
X238416221Y-64543725D01*
X238362565Y-64590218D01*
X238310223Y-64601604D01*
X236764482Y-64601604D01*
X236696361Y-64581602D01*
X236651389Y-64529702D01*
X236646858Y-64525775D01*
X236639175Y-64524104D01*
X235016723Y-64524104D01*
X234948602Y-64504102D01*
X234902109Y-64450446D01*
X234890723Y-64398104D01*
X234890723Y-64142104D01*
X234910725Y-64073983D01*
X234964381Y-64027490D01*
X235016723Y-64016104D01*
X236634607Y-64016104D01*
X236649846Y-64011629D01*
X236651051Y-64010239D01*
X236652722Y-64002556D01*
X236652722Y-63675435D01*
X236652352Y-63668614D01*
X236646828Y-63617752D01*
X236643202Y-63602500D01*
X236598044Y-63482043D01*
X236597549Y-63481138D01*
X236597330Y-63480138D01*
X236594895Y-63473642D01*
X236595833Y-63473290D01*
X236582380Y-63411781D01*
X236595561Y-63366892D01*
X236595338Y-63366809D01*
X236596479Y-63363767D01*
X236596481Y-63363760D01*
X236604532Y-63342286D01*
X236643694Y-63237819D01*
X236646468Y-63230420D01*
X236653223Y-63168238D01*
X236653223Y-61971970D01*
X236646468Y-61909788D01*
X236605754Y-61801183D01*
X236598489Y-61781803D01*
X236598487Y-61781800D01*
X236595338Y-61773399D01*
X236596189Y-61773080D01*
X236582668Y-61711255D01*
X236595681Y-61666938D01*
X236595338Y-61666809D01*
X236597095Y-61662123D01*
X236597096Y-61662119D01*
X236646468Y-61530420D01*
X236653223Y-61468238D01*
X236653223Y-60271970D01*
X236646468Y-60209788D01*
X236595338Y-60073399D01*
X236507984Y-59956843D01*
X236391428Y-59869489D01*
X236255039Y-59818359D01*
X236192857Y-59811604D01*
X234096589Y-59811604D01*
X234034407Y-59818359D01*
X233898018Y-59869489D01*
X233824289Y-59924746D01*
X233810288Y-59935239D01*
X233743782Y-59960087D01*
X233674399Y-59945034D01*
X233659158Y-59935239D01*
X233645157Y-59924746D01*
X233571428Y-59869489D01*
X233435039Y-59818359D01*
X233372857Y-59811604D01*
X231276589Y-59811604D01*
X231214407Y-59818359D01*
X231078018Y-59869489D01*
X230961462Y-59956843D01*
X230874108Y-60073399D01*
X230822978Y-60209788D01*
X230816223Y-60271970D01*
X230816223Y-61468238D01*
X230822978Y-61530420D01*
X230874108Y-61666809D01*
X230873257Y-61667128D01*
X230886778Y-61728953D01*
X230873765Y-61773270D01*
X230874108Y-61773399D01*
X230870959Y-61781800D01*
X230870957Y-61781803D01*
X230863692Y-61801183D01*
X230822978Y-61909788D01*
X230816223Y-61971970D01*
X230816223Y-63168238D01*
X230822978Y-63230420D01*
X230825752Y-63237819D01*
X230864915Y-63342286D01*
X230872968Y-63363767D01*
X230874108Y-63366809D01*
X230873257Y-63367128D01*
X230886778Y-63428953D01*
X230873765Y-63473270D01*
X230874108Y-63473399D01*
X230870959Y-63481800D01*
X230870957Y-63481803D01*
X230840699Y-63562518D01*
X230822978Y-63609788D01*
X230816223Y-63671970D01*
X230816223Y-64475604D01*
X230796221Y-64543725D01*
X230742565Y-64590218D01*
X230690223Y-64601604D01*
X229144482Y-64601604D01*
X229076361Y-64581602D01*
X229031389Y-64529702D01*
X229026858Y-64525775D01*
X229019175Y-64524104D01*
X227396723Y-64524104D01*
X227328602Y-64504102D01*
X227282109Y-64450446D01*
X227270723Y-64398104D01*
X227270723Y-64142104D01*
X227290725Y-64073983D01*
X227344381Y-64027490D01*
X227396723Y-64016104D01*
X229014607Y-64016104D01*
X229029846Y-64011629D01*
X229031051Y-64010239D01*
X229032722Y-64002556D01*
X229032722Y-63675435D01*
X229032352Y-63668614D01*
X229026828Y-63617752D01*
X229023202Y-63602500D01*
X228978044Y-63482043D01*
X228977549Y-63481138D01*
X228977330Y-63480138D01*
X228974895Y-63473642D01*
X228975833Y-63473290D01*
X228962380Y-63411781D01*
X228975561Y-63366892D01*
X228975338Y-63366809D01*
X228976479Y-63363767D01*
X228976481Y-63363760D01*
X228984532Y-63342286D01*
X229023694Y-63237819D01*
X229026468Y-63230420D01*
X229033223Y-63168238D01*
X229033223Y-61971970D01*
X229026468Y-61909788D01*
X228985754Y-61801183D01*
X228978489Y-61781803D01*
X228978487Y-61781800D01*
X228975338Y-61773399D01*
X228976189Y-61773080D01*
X228962668Y-61711255D01*
X228975681Y-61666938D01*
X228975338Y-61666809D01*
X228977095Y-61662123D01*
X228977096Y-61662119D01*
X229026468Y-61530420D01*
X229033223Y-61468238D01*
X229033223Y-60271970D01*
X229026468Y-60209788D01*
X228975338Y-60073399D01*
X228887984Y-59956843D01*
X228771428Y-59869489D01*
X228635039Y-59818359D01*
X228572857Y-59811604D01*
X226476589Y-59811604D01*
X226414407Y-59818359D01*
X226278018Y-59869489D01*
X226204289Y-59924746D01*
X226190288Y-59935239D01*
X226123782Y-59960087D01*
X226054399Y-59945034D01*
X226039158Y-59935239D01*
X226025157Y-59924746D01*
X225951428Y-59869489D01*
X225815039Y-59818359D01*
X225752857Y-59811604D01*
X223656589Y-59811604D01*
X223594407Y-59818359D01*
X223458018Y-59869489D01*
X223341462Y-59956843D01*
X223254108Y-60073399D01*
X223202978Y-60209788D01*
X223196223Y-60271970D01*
X223196223Y-61468238D01*
X223202978Y-61530420D01*
X223254108Y-61666809D01*
X223253257Y-61667128D01*
X223266778Y-61728953D01*
X223253765Y-61773270D01*
X223254108Y-61773399D01*
X223250959Y-61781800D01*
X223250957Y-61781803D01*
X223243692Y-61801183D01*
X223202978Y-61909788D01*
X223196223Y-61971970D01*
X223196223Y-63168238D01*
X223202978Y-63230420D01*
X223205752Y-63237819D01*
X223244915Y-63342286D01*
X223252968Y-63363767D01*
X223254108Y-63366809D01*
X223253257Y-63367128D01*
X223266778Y-63428953D01*
X223253765Y-63473270D01*
X223254108Y-63473399D01*
X223250959Y-63481800D01*
X223250957Y-63481803D01*
X223220699Y-63562518D01*
X223202978Y-63609788D01*
X223196223Y-63671970D01*
X223196223Y-64475604D01*
X223176221Y-64543725D01*
X223122565Y-64590218D01*
X223070223Y-64601604D01*
X221524482Y-64601604D01*
X221456361Y-64581602D01*
X221411389Y-64529702D01*
X221406858Y-64525775D01*
X221399175Y-64524104D01*
X219776723Y-64524104D01*
X219708602Y-64504102D01*
X219662109Y-64450446D01*
X219650723Y-64398104D01*
X219650723Y-64142104D01*
X219670725Y-64073983D01*
X219724381Y-64027490D01*
X219776723Y-64016104D01*
X221394607Y-64016104D01*
X221409846Y-64011629D01*
X221411051Y-64010239D01*
X221412722Y-64002556D01*
X221412722Y-63675435D01*
X221412352Y-63668614D01*
X221406828Y-63617752D01*
X221403202Y-63602500D01*
X221358044Y-63482043D01*
X221357549Y-63481138D01*
X221357330Y-63480138D01*
X221354895Y-63473642D01*
X221355833Y-63473290D01*
X221342380Y-63411781D01*
X221355561Y-63366892D01*
X221355338Y-63366809D01*
X221356479Y-63363767D01*
X221356481Y-63363760D01*
X221364532Y-63342286D01*
X221403694Y-63237819D01*
X221406468Y-63230420D01*
X221413223Y-63168238D01*
X221413223Y-61971970D01*
X221406468Y-61909788D01*
X221365754Y-61801183D01*
X221358489Y-61781803D01*
X221358487Y-61781800D01*
X221355338Y-61773399D01*
X221356189Y-61773080D01*
X221342668Y-61711255D01*
X221355681Y-61666938D01*
X221355338Y-61666809D01*
X221357095Y-61662123D01*
X221357096Y-61662119D01*
X221406468Y-61530420D01*
X221413223Y-61468238D01*
X221413223Y-60271970D01*
X221406468Y-60209788D01*
X221355338Y-60073399D01*
X221267984Y-59956843D01*
X221151428Y-59869489D01*
X221015039Y-59818359D01*
X220952857Y-59811604D01*
X218856589Y-59811604D01*
X218794407Y-59818359D01*
X218658018Y-59869489D01*
X218584289Y-59924746D01*
X218570288Y-59935239D01*
X218503782Y-59960087D01*
X218434399Y-59945034D01*
X218419158Y-59935239D01*
X218405157Y-59924746D01*
X218331428Y-59869489D01*
X218195039Y-59818359D01*
X218132857Y-59811604D01*
X216036589Y-59811604D01*
X215974407Y-59818359D01*
X215838018Y-59869489D01*
X215721462Y-59956843D01*
X215634108Y-60073399D01*
X215582978Y-60209788D01*
X215576223Y-60271970D01*
X215576223Y-61468238D01*
X215582978Y-61530420D01*
X215634108Y-61666809D01*
X215633257Y-61667128D01*
X215646778Y-61728953D01*
X215633765Y-61773270D01*
X215634108Y-61773399D01*
X215630959Y-61781800D01*
X215630957Y-61781803D01*
X215623692Y-61801183D01*
X215582978Y-61909788D01*
X215576223Y-61971970D01*
X215576223Y-63168238D01*
X215582978Y-63230420D01*
X215585752Y-63237819D01*
X215624915Y-63342286D01*
X215632968Y-63363767D01*
X215634108Y-63366809D01*
X215633257Y-63367128D01*
X215646778Y-63428953D01*
X215633765Y-63473270D01*
X215634108Y-63473399D01*
X215630959Y-63481800D01*
X215630957Y-63481803D01*
X215600699Y-63562518D01*
X215582978Y-63609788D01*
X215576223Y-63671970D01*
X215576223Y-64475604D01*
X215556221Y-64543725D01*
X215502565Y-64590218D01*
X215450223Y-64601604D01*
X213904482Y-64601604D01*
X213836361Y-64581602D01*
X213791389Y-64529702D01*
X213786858Y-64525775D01*
X213779175Y-64524104D01*
X212156723Y-64524104D01*
X212088602Y-64504102D01*
X212042109Y-64450446D01*
X212030723Y-64398104D01*
X212030723Y-64142104D01*
X212050725Y-64073983D01*
X212104381Y-64027490D01*
X212156723Y-64016104D01*
X213774607Y-64016104D01*
X213789846Y-64011629D01*
X213791051Y-64010239D01*
X213792722Y-64002556D01*
X213792722Y-63675435D01*
X213792352Y-63668614D01*
X213786828Y-63617752D01*
X213783202Y-63602500D01*
X213738044Y-63482043D01*
X213737549Y-63481138D01*
X213737330Y-63480138D01*
X213734895Y-63473642D01*
X213735833Y-63473290D01*
X213722380Y-63411781D01*
X213735561Y-63366892D01*
X213735338Y-63366809D01*
X213736479Y-63363767D01*
X213736481Y-63363760D01*
X213744532Y-63342286D01*
X213783694Y-63237819D01*
X213786468Y-63230420D01*
X213793223Y-63168238D01*
X213793223Y-61971970D01*
X213786468Y-61909788D01*
X213745754Y-61801183D01*
X213738489Y-61781803D01*
X213738487Y-61781800D01*
X213735338Y-61773399D01*
X213736189Y-61773080D01*
X213722668Y-61711255D01*
X213735681Y-61666938D01*
X213735338Y-61666809D01*
X213737095Y-61662123D01*
X213737096Y-61662119D01*
X213786468Y-61530420D01*
X213793223Y-61468238D01*
X213793223Y-60271970D01*
X213786468Y-60209788D01*
X213735338Y-60073399D01*
X213647984Y-59956843D01*
X213531428Y-59869489D01*
X213395039Y-59818359D01*
X213332857Y-59811604D01*
X211236589Y-59811604D01*
X211174407Y-59818359D01*
X211038018Y-59869489D01*
X210964289Y-59924746D01*
X210950288Y-59935239D01*
X210883782Y-59960087D01*
X210814399Y-59945034D01*
X210799158Y-59935239D01*
X210785157Y-59924746D01*
X210711428Y-59869489D01*
X210575039Y-59818359D01*
X210512857Y-59811604D01*
X208416589Y-59811604D01*
X208354407Y-59818359D01*
X208218018Y-59869489D01*
X208101462Y-59956843D01*
X208014108Y-60073399D01*
X207962978Y-60209788D01*
X207956223Y-60271970D01*
X207956223Y-61468238D01*
X207962978Y-61530420D01*
X208014108Y-61666809D01*
X208013257Y-61667128D01*
X208026778Y-61728953D01*
X208013765Y-61773270D01*
X208014108Y-61773399D01*
X208010959Y-61781800D01*
X208010957Y-61781803D01*
X208003692Y-61801183D01*
X207962978Y-61909788D01*
X207956223Y-61971970D01*
X207956223Y-63168238D01*
X207962978Y-63230420D01*
X207965752Y-63237819D01*
X208004915Y-63342286D01*
X208012968Y-63363767D01*
X208014108Y-63366809D01*
X208013257Y-63367128D01*
X208026778Y-63428953D01*
X208013765Y-63473270D01*
X208014108Y-63473399D01*
X208010959Y-63481800D01*
X208010957Y-63481803D01*
X207980699Y-63562518D01*
X207962978Y-63609788D01*
X207956223Y-63671970D01*
X207956223Y-64475604D01*
X207936221Y-64543725D01*
X207882565Y-64590218D01*
X207830223Y-64601604D01*
X206284482Y-64601604D01*
X206216361Y-64581602D01*
X206171389Y-64529702D01*
X206166858Y-64525775D01*
X206159175Y-64524104D01*
X204536723Y-64524104D01*
X204468602Y-64504102D01*
X204422109Y-64450446D01*
X204410723Y-64398104D01*
X204410723Y-64142104D01*
X204430725Y-64073983D01*
X204484381Y-64027490D01*
X204536723Y-64016104D01*
X206154607Y-64016104D01*
X206169846Y-64011629D01*
X206171051Y-64010239D01*
X206172722Y-64002556D01*
X206172722Y-63675435D01*
X206172352Y-63668614D01*
X206166828Y-63617752D01*
X206163202Y-63602500D01*
X206118044Y-63482043D01*
X206117549Y-63481138D01*
X206117330Y-63480138D01*
X206114895Y-63473642D01*
X206115833Y-63473290D01*
X206102380Y-63411781D01*
X206115561Y-63366892D01*
X206115338Y-63366809D01*
X206116479Y-63363767D01*
X206116481Y-63363760D01*
X206124532Y-63342286D01*
X206163694Y-63237819D01*
X206166468Y-63230420D01*
X206173223Y-63168238D01*
X206173223Y-61971970D01*
X206166468Y-61909788D01*
X206125754Y-61801183D01*
X206118489Y-61781803D01*
X206118487Y-61781800D01*
X206115338Y-61773399D01*
X206116189Y-61773080D01*
X206102668Y-61711255D01*
X206115681Y-61666938D01*
X206115338Y-61666809D01*
X206117095Y-61662123D01*
X206117096Y-61662119D01*
X206166468Y-61530420D01*
X206173223Y-61468238D01*
X206173223Y-60271970D01*
X206166468Y-60209788D01*
X206115338Y-60073399D01*
X206027984Y-59956843D01*
X205911428Y-59869489D01*
X205775039Y-59818359D01*
X205712857Y-59811604D01*
X203616589Y-59811604D01*
X203554407Y-59818359D01*
X203418018Y-59869489D01*
X203344289Y-59924746D01*
X203330288Y-59935239D01*
X203263782Y-59960087D01*
X203194399Y-59945034D01*
X203179158Y-59935239D01*
X203165157Y-59924746D01*
X203091428Y-59869489D01*
X202955039Y-59818359D01*
X202892857Y-59811604D01*
X200796589Y-59811604D01*
X200734407Y-59818359D01*
X200598018Y-59869489D01*
X200481462Y-59956843D01*
X200394108Y-60073399D01*
X200342978Y-60209788D01*
X200336223Y-60271970D01*
X200336223Y-61468238D01*
X200342978Y-61530420D01*
X200394108Y-61666809D01*
X200393257Y-61667128D01*
X200406778Y-61728953D01*
X200393765Y-61773270D01*
X200394108Y-61773399D01*
X200390959Y-61781800D01*
X200390957Y-61781803D01*
X200383692Y-61801183D01*
X200342978Y-61909788D01*
X200336223Y-61971970D01*
X200336223Y-63168238D01*
X200342978Y-63230420D01*
X200345752Y-63237819D01*
X200384915Y-63342286D01*
X200392968Y-63363767D01*
X200394108Y-63366809D01*
X200393257Y-63367128D01*
X200406778Y-63428953D01*
X200393765Y-63473270D01*
X200394108Y-63473399D01*
X200390959Y-63481800D01*
X200390957Y-63481803D01*
X200360699Y-63562518D01*
X200342978Y-63609788D01*
X200336223Y-63671970D01*
X200336223Y-64475604D01*
X200316221Y-64543725D01*
X200262565Y-64590218D01*
X200210223Y-64601604D01*
X198664482Y-64601604D01*
X198596361Y-64581602D01*
X198551389Y-64529702D01*
X198546858Y-64525775D01*
X198539175Y-64524104D01*
X196916723Y-64524104D01*
X196848602Y-64504102D01*
X196802109Y-64450446D01*
X196790723Y-64398104D01*
X196790723Y-64142104D01*
X196810725Y-64073983D01*
X196864381Y-64027490D01*
X196916723Y-64016104D01*
X198534607Y-64016104D01*
X198549846Y-64011629D01*
X198551051Y-64010239D01*
X198552722Y-64002556D01*
X198552722Y-63675435D01*
X198552352Y-63668614D01*
X198546828Y-63617752D01*
X198543202Y-63602500D01*
X198498044Y-63482043D01*
X198497549Y-63481138D01*
X198497330Y-63480138D01*
X198494895Y-63473642D01*
X198495833Y-63473290D01*
X198482380Y-63411781D01*
X198495561Y-63366892D01*
X198495338Y-63366809D01*
X198496479Y-63363767D01*
X198496481Y-63363760D01*
X198504532Y-63342286D01*
X198543694Y-63237819D01*
X198546468Y-63230420D01*
X198553223Y-63168238D01*
X198553223Y-61971970D01*
X198546468Y-61909788D01*
X198505754Y-61801183D01*
X198498489Y-61781803D01*
X198498487Y-61781800D01*
X198495338Y-61773399D01*
X198496189Y-61773080D01*
X198482668Y-61711255D01*
X198495681Y-61666938D01*
X198495338Y-61666809D01*
X198497095Y-61662123D01*
X198497096Y-61662119D01*
X198546468Y-61530420D01*
X198553223Y-61468238D01*
X198553223Y-60271970D01*
X198546468Y-60209788D01*
X198495338Y-60073399D01*
X198407984Y-59956843D01*
X198291428Y-59869489D01*
X198155039Y-59818359D01*
X198092857Y-59811604D01*
X195996589Y-59811604D01*
X195934407Y-59818359D01*
X195798018Y-59869489D01*
X195724289Y-59924746D01*
X195710288Y-59935239D01*
X195643782Y-59960087D01*
X195574399Y-59945034D01*
X195559158Y-59935239D01*
X195545157Y-59924746D01*
X195471428Y-59869489D01*
X195335039Y-59818359D01*
X195272857Y-59811604D01*
X193176589Y-59811604D01*
X193114407Y-59818359D01*
X192978018Y-59869489D01*
X192861462Y-59956843D01*
X192774108Y-60073399D01*
X192722978Y-60209788D01*
X192716223Y-60271970D01*
X192716223Y-61468238D01*
X192722978Y-61530420D01*
X192774108Y-61666809D01*
X192773257Y-61667128D01*
X192786778Y-61728953D01*
X192773765Y-61773270D01*
X192774108Y-61773399D01*
X192770959Y-61781800D01*
X192770957Y-61781803D01*
X192763692Y-61801183D01*
X192722978Y-61909788D01*
X192716223Y-61971970D01*
X192716223Y-63168238D01*
X192722978Y-63230420D01*
X192725752Y-63237819D01*
X192764915Y-63342286D01*
X192772968Y-63363767D01*
X192774108Y-63366809D01*
X192773257Y-63367128D01*
X192786778Y-63428953D01*
X192773765Y-63473270D01*
X192774108Y-63473399D01*
X192770959Y-63481800D01*
X192770957Y-63481803D01*
X192740699Y-63562518D01*
X192722978Y-63609788D01*
X192716223Y-63671970D01*
X192716223Y-64475604D01*
X192696221Y-64543725D01*
X192642565Y-64590218D01*
X192590223Y-64601604D01*
X191044482Y-64601604D01*
X190976361Y-64581602D01*
X190931389Y-64529702D01*
X190926858Y-64525775D01*
X190919175Y-64524104D01*
X189296723Y-64524104D01*
X189228602Y-64504102D01*
X189182109Y-64450446D01*
X189170723Y-64398104D01*
X189170723Y-64142104D01*
X189190725Y-64073983D01*
X189244381Y-64027490D01*
X189296723Y-64016104D01*
X190914607Y-64016104D01*
X190929846Y-64011629D01*
X190931051Y-64010239D01*
X190932722Y-64002556D01*
X190932722Y-63675435D01*
X190932352Y-63668614D01*
X190926828Y-63617752D01*
X190923202Y-63602500D01*
X190878044Y-63482043D01*
X190877549Y-63481138D01*
X190877330Y-63480138D01*
X190874895Y-63473642D01*
X190875833Y-63473290D01*
X190862380Y-63411781D01*
X190875561Y-63366892D01*
X190875338Y-63366809D01*
X190876479Y-63363767D01*
X190876481Y-63363760D01*
X190884532Y-63342286D01*
X190923694Y-63237819D01*
X190926468Y-63230420D01*
X190933223Y-63168238D01*
X190933223Y-61971970D01*
X190926468Y-61909788D01*
X190885754Y-61801183D01*
X190878489Y-61781803D01*
X190878487Y-61781800D01*
X190875338Y-61773399D01*
X190876189Y-61773080D01*
X190862668Y-61711255D01*
X190875681Y-61666938D01*
X190875338Y-61666809D01*
X190877095Y-61662123D01*
X190877096Y-61662119D01*
X190926468Y-61530420D01*
X190933223Y-61468238D01*
X190933223Y-60271970D01*
X190926468Y-60209788D01*
X190875338Y-60073399D01*
X190787984Y-59956843D01*
X190671428Y-59869489D01*
X190535039Y-59818359D01*
X190472857Y-59811604D01*
X188376589Y-59811604D01*
X188314407Y-59818359D01*
X188178018Y-59869489D01*
X188104289Y-59924746D01*
X188090288Y-59935239D01*
X188023782Y-59960087D01*
X187954399Y-59945034D01*
X187939158Y-59935239D01*
X187925157Y-59924746D01*
X187851428Y-59869489D01*
X187715039Y-59818359D01*
X187652857Y-59811604D01*
X185556589Y-59811604D01*
X185494407Y-59818359D01*
X185358018Y-59869489D01*
X185241462Y-59956843D01*
X185154108Y-60073399D01*
X185102978Y-60209788D01*
X185096223Y-60271970D01*
X185096223Y-61468238D01*
X185102978Y-61530420D01*
X185154108Y-61666809D01*
X185153257Y-61667128D01*
X185166778Y-61728953D01*
X185153765Y-61773270D01*
X185154108Y-61773399D01*
X185150959Y-61781800D01*
X185150957Y-61781803D01*
X185143692Y-61801183D01*
X185102978Y-61909788D01*
X185096223Y-61971970D01*
X185096223Y-63168238D01*
X185102978Y-63230420D01*
X185105752Y-63237819D01*
X185144915Y-63342286D01*
X185152968Y-63363767D01*
X185154108Y-63366809D01*
X185153257Y-63367128D01*
X185166778Y-63428953D01*
X185153765Y-63473270D01*
X185154108Y-63473399D01*
X185150959Y-63481800D01*
X185150957Y-63481803D01*
X185120699Y-63562518D01*
X185102978Y-63609788D01*
X185096223Y-63671970D01*
X185096223Y-64475604D01*
X185076221Y-64543725D01*
X185022565Y-64590218D01*
X184970223Y-64601604D01*
X183424482Y-64601604D01*
X183356361Y-64581602D01*
X183311389Y-64529702D01*
X183306858Y-64525775D01*
X183299175Y-64524104D01*
X181676723Y-64524104D01*
X181608602Y-64504102D01*
X181562109Y-64450446D01*
X181550723Y-64398104D01*
X181550723Y-64142104D01*
X181570725Y-64073983D01*
X181624381Y-64027490D01*
X181676723Y-64016104D01*
X183294607Y-64016104D01*
X183309846Y-64011629D01*
X183311051Y-64010239D01*
X183312722Y-64002556D01*
X183312722Y-63675435D01*
X183312352Y-63668614D01*
X183306828Y-63617752D01*
X183303202Y-63602500D01*
X183258044Y-63482043D01*
X183257549Y-63481138D01*
X183257330Y-63480138D01*
X183254895Y-63473642D01*
X183255833Y-63473290D01*
X183242380Y-63411781D01*
X183255561Y-63366892D01*
X183255338Y-63366809D01*
X183256479Y-63363767D01*
X183256481Y-63363760D01*
X183264532Y-63342286D01*
X183303694Y-63237819D01*
X183306468Y-63230420D01*
X183313223Y-63168238D01*
X183313223Y-61971970D01*
X183306468Y-61909788D01*
X183265754Y-61801183D01*
X183258489Y-61781803D01*
X183258487Y-61781800D01*
X183255338Y-61773399D01*
X183256189Y-61773080D01*
X183242668Y-61711255D01*
X183255681Y-61666938D01*
X183255338Y-61666809D01*
X183257095Y-61662123D01*
X183257096Y-61662119D01*
X183306468Y-61530420D01*
X183313223Y-61468238D01*
X183313223Y-60271970D01*
X183306468Y-60209788D01*
X183255338Y-60073399D01*
X183167984Y-59956843D01*
X183051428Y-59869489D01*
X182915039Y-59818359D01*
X182852857Y-59811604D01*
X180756589Y-59811604D01*
X180694407Y-59818359D01*
X180558018Y-59869489D01*
X180484289Y-59924746D01*
X180470288Y-59935239D01*
X180403782Y-59960087D01*
X180334399Y-59945034D01*
X180319158Y-59935239D01*
X180305157Y-59924746D01*
X180231428Y-59869489D01*
X180095039Y-59818359D01*
X180032857Y-59811604D01*
X177936589Y-59811604D01*
X177874407Y-59818359D01*
X177738018Y-59869489D01*
X177621462Y-59956843D01*
X177534108Y-60073399D01*
X177482978Y-60209788D01*
X177476223Y-60271970D01*
X177476223Y-61468238D01*
X177482978Y-61530420D01*
X177534108Y-61666809D01*
X177533257Y-61667128D01*
X177546778Y-61728953D01*
X177533765Y-61773270D01*
X177534108Y-61773399D01*
X177530959Y-61781800D01*
X177530957Y-61781803D01*
X177523692Y-61801183D01*
X177482978Y-61909788D01*
X177476223Y-61971970D01*
X177476223Y-63168238D01*
X177482978Y-63230420D01*
X177485752Y-63237819D01*
X177524915Y-63342286D01*
X177532968Y-63363767D01*
X177534108Y-63366809D01*
X177533257Y-63367128D01*
X177546778Y-63428953D01*
X177533765Y-63473270D01*
X177534108Y-63473399D01*
X177530959Y-63481800D01*
X177530957Y-63481803D01*
X177500699Y-63562518D01*
X177482978Y-63609788D01*
X177476223Y-63671970D01*
X177476223Y-64475604D01*
X177456221Y-64543725D01*
X177402565Y-64590218D01*
X177350223Y-64601604D01*
X175804482Y-64601604D01*
X175736361Y-64581602D01*
X175691389Y-64529702D01*
X175686858Y-64525775D01*
X175679175Y-64524104D01*
X174056723Y-64524104D01*
X173988602Y-64504102D01*
X173942109Y-64450446D01*
X173930723Y-64398104D01*
X173930723Y-64142104D01*
X173950725Y-64073983D01*
X174004381Y-64027490D01*
X174056723Y-64016104D01*
X175674607Y-64016104D01*
X175689846Y-64011629D01*
X175691051Y-64010239D01*
X175692722Y-64002556D01*
X175692722Y-63675435D01*
X175692352Y-63668614D01*
X175686828Y-63617752D01*
X175683202Y-63602500D01*
X175638044Y-63482043D01*
X175637549Y-63481138D01*
X175637330Y-63480138D01*
X175634895Y-63473642D01*
X175635833Y-63473290D01*
X175622380Y-63411781D01*
X175635561Y-63366892D01*
X175635338Y-63366809D01*
X175636479Y-63363767D01*
X175636481Y-63363760D01*
X175644532Y-63342286D01*
X175683694Y-63237819D01*
X175686468Y-63230420D01*
X175693223Y-63168238D01*
X175693223Y-61971970D01*
X175686468Y-61909788D01*
X175645754Y-61801183D01*
X175638489Y-61781803D01*
X175638487Y-61781800D01*
X175635338Y-61773399D01*
X175636189Y-61773080D01*
X175622668Y-61711255D01*
X175635681Y-61666938D01*
X175635338Y-61666809D01*
X175637095Y-61662123D01*
X175637096Y-61662119D01*
X175686468Y-61530420D01*
X175693223Y-61468238D01*
X175693223Y-60271970D01*
X175686468Y-60209788D01*
X175635338Y-60073399D01*
X175547984Y-59956843D01*
X175431428Y-59869489D01*
X175295039Y-59818359D01*
X175232857Y-59811604D01*
X173136589Y-59811604D01*
X173074407Y-59818359D01*
X172938018Y-59869489D01*
X172864289Y-59924746D01*
X172850288Y-59935239D01*
X172783782Y-59960087D01*
X172714399Y-59945034D01*
X172699158Y-59935239D01*
X172685157Y-59924746D01*
X172611428Y-59869489D01*
X172475039Y-59818359D01*
X172412857Y-59811604D01*
X170316589Y-59811604D01*
X170254407Y-59818359D01*
X170118018Y-59869489D01*
X170001462Y-59956843D01*
X169914108Y-60073399D01*
X169862978Y-60209788D01*
X169856223Y-60271970D01*
X169856223Y-61468238D01*
X169862978Y-61530420D01*
X169914108Y-61666809D01*
X169913257Y-61667128D01*
X169926778Y-61728953D01*
X169913765Y-61773270D01*
X169914108Y-61773399D01*
X169910959Y-61781800D01*
X169910957Y-61781803D01*
X169903692Y-61801183D01*
X169862978Y-61909788D01*
X169856223Y-61971970D01*
X169856223Y-63168238D01*
X169862978Y-63230420D01*
X169865752Y-63237819D01*
X169904915Y-63342286D01*
X169912968Y-63363767D01*
X169914108Y-63366809D01*
X169913257Y-63367128D01*
X169926778Y-63428953D01*
X169913765Y-63473270D01*
X169914108Y-63473399D01*
X169910959Y-63481800D01*
X169910957Y-63481803D01*
X169880699Y-63562518D01*
X169862978Y-63609788D01*
X169856223Y-63671970D01*
X169856223Y-64475604D01*
X169836221Y-64543725D01*
X169782565Y-64590218D01*
X169730223Y-64601604D01*
X168184482Y-64601604D01*
X168116361Y-64581602D01*
X168071389Y-64529702D01*
X168066858Y-64525775D01*
X168059175Y-64524104D01*
X166436723Y-64524104D01*
X166368602Y-64504102D01*
X166322109Y-64450446D01*
X166310723Y-64398104D01*
X166310723Y-64142104D01*
X166330725Y-64073983D01*
X166384381Y-64027490D01*
X166436723Y-64016104D01*
X168054607Y-64016104D01*
X168069846Y-64011629D01*
X168071051Y-64010239D01*
X168072722Y-64002556D01*
X168072722Y-63675435D01*
X168072352Y-63668614D01*
X168066828Y-63617752D01*
X168063202Y-63602500D01*
X168018044Y-63482043D01*
X168017549Y-63481138D01*
X168017330Y-63480138D01*
X168014895Y-63473642D01*
X168015833Y-63473290D01*
X168002380Y-63411781D01*
X168015561Y-63366892D01*
X168015338Y-63366809D01*
X168016479Y-63363767D01*
X168016481Y-63363760D01*
X168024532Y-63342286D01*
X168063694Y-63237819D01*
X168066468Y-63230420D01*
X168073223Y-63168238D01*
X168073223Y-61971970D01*
X168066468Y-61909788D01*
X168025754Y-61801183D01*
X168018489Y-61781803D01*
X168018487Y-61781800D01*
X168015338Y-61773399D01*
X168016189Y-61773080D01*
X168002668Y-61711255D01*
X168015681Y-61666938D01*
X168015338Y-61666809D01*
X168017095Y-61662123D01*
X168017096Y-61662119D01*
X168066468Y-61530420D01*
X168073223Y-61468238D01*
X168073223Y-60271970D01*
X168066468Y-60209788D01*
X168015338Y-60073399D01*
X167927984Y-59956843D01*
X167811428Y-59869489D01*
X167675039Y-59818359D01*
X167612857Y-59811604D01*
X165516589Y-59811604D01*
X165454407Y-59818359D01*
X165318018Y-59869489D01*
X165244289Y-59924746D01*
X165230288Y-59935239D01*
X165163782Y-59960087D01*
X165094399Y-59945034D01*
X165079158Y-59935239D01*
X165065157Y-59924746D01*
X164991428Y-59869489D01*
X164855039Y-59818359D01*
X164792857Y-59811604D01*
X162696589Y-59811604D01*
X162634407Y-59818359D01*
X162498018Y-59869489D01*
X162381462Y-59956843D01*
X162294108Y-60073399D01*
X162242978Y-60209788D01*
X162236223Y-60271970D01*
X162236223Y-61468238D01*
X162242978Y-61530420D01*
X162294108Y-61666809D01*
X162293257Y-61667128D01*
X162306778Y-61728953D01*
X162293765Y-61773270D01*
X162294108Y-61773399D01*
X162290959Y-61781800D01*
X162290957Y-61781803D01*
X162283692Y-61801183D01*
X162242978Y-61909788D01*
X162236223Y-61971970D01*
X162236223Y-63168238D01*
X162242978Y-63230420D01*
X162245752Y-63237819D01*
X162284915Y-63342286D01*
X162292968Y-63363767D01*
X162294108Y-63366809D01*
X162293257Y-63367128D01*
X162306778Y-63428953D01*
X162293765Y-63473270D01*
X162294108Y-63473399D01*
X162290959Y-63481800D01*
X162290957Y-63481803D01*
X162260699Y-63562518D01*
X162242978Y-63609788D01*
X162236223Y-63671970D01*
X162236223Y-64475604D01*
X162216221Y-64543725D01*
X162162565Y-64590218D01*
X162110223Y-64601604D01*
X160564482Y-64601604D01*
X160496361Y-64581602D01*
X160451389Y-64529702D01*
X160446858Y-64525775D01*
X160439175Y-64524104D01*
X158816723Y-64524104D01*
X158748602Y-64504102D01*
X158702109Y-64450446D01*
X158690723Y-64398104D01*
X158690723Y-64142104D01*
X158710725Y-64073983D01*
X158764381Y-64027490D01*
X158816723Y-64016104D01*
X160434607Y-64016104D01*
X160449846Y-64011629D01*
X160451051Y-64010239D01*
X160452722Y-64002556D01*
X160452722Y-63675435D01*
X160452352Y-63668614D01*
X160446828Y-63617752D01*
X160443202Y-63602500D01*
X160398044Y-63482043D01*
X160397549Y-63481138D01*
X160397330Y-63480138D01*
X160394895Y-63473642D01*
X160395833Y-63473290D01*
X160382380Y-63411781D01*
X160395561Y-63366892D01*
X160395338Y-63366809D01*
X160396479Y-63363767D01*
X160396481Y-63363760D01*
X160404532Y-63342286D01*
X160443694Y-63237819D01*
X160446468Y-63230420D01*
X160453223Y-63168238D01*
X160453223Y-61971970D01*
X160446468Y-61909788D01*
X160405754Y-61801183D01*
X160398489Y-61781803D01*
X160398487Y-61781800D01*
X160395338Y-61773399D01*
X160396189Y-61773080D01*
X160382668Y-61711255D01*
X160395681Y-61666938D01*
X160395338Y-61666809D01*
X160397095Y-61662123D01*
X160397096Y-61662119D01*
X160446468Y-61530420D01*
X160453223Y-61468238D01*
X160453223Y-60271970D01*
X160446468Y-60209788D01*
X160395338Y-60073399D01*
X160307984Y-59956843D01*
X160191428Y-59869489D01*
X160055039Y-59818359D01*
X159992857Y-59811604D01*
X157896589Y-59811604D01*
X157834407Y-59818359D01*
X157698018Y-59869489D01*
X157624289Y-59924746D01*
X157610288Y-59935239D01*
X157543782Y-59960087D01*
X157474399Y-59945034D01*
X157459158Y-59935239D01*
X157445157Y-59924746D01*
X157371428Y-59869489D01*
X157235039Y-59818359D01*
X157172857Y-59811604D01*
X155076589Y-59811604D01*
X155014407Y-59818359D01*
X154878018Y-59869489D01*
X154761462Y-59956843D01*
X154674108Y-60073399D01*
X154622978Y-60209788D01*
X154616223Y-60271970D01*
X154616223Y-61468238D01*
X154622978Y-61530420D01*
X154674108Y-61666809D01*
X154673257Y-61667128D01*
X154686778Y-61728953D01*
X154673765Y-61773270D01*
X154674108Y-61773399D01*
X154670959Y-61781800D01*
X154670957Y-61781803D01*
X154663692Y-61801183D01*
X154622978Y-61909788D01*
X154616223Y-61971970D01*
X154616223Y-63168238D01*
X154622978Y-63230420D01*
X154625752Y-63237819D01*
X154664915Y-63342286D01*
X154672968Y-63363767D01*
X154674108Y-63366809D01*
X154673257Y-63367128D01*
X154686778Y-63428953D01*
X154673765Y-63473270D01*
X154674108Y-63473399D01*
X154670959Y-63481800D01*
X154670957Y-63481803D01*
X154640699Y-63562518D01*
X154622978Y-63609788D01*
X154616223Y-63671970D01*
X154616223Y-64475604D01*
X154596221Y-64543725D01*
X154542565Y-64590218D01*
X154490223Y-64601604D01*
X152944482Y-64601604D01*
X152876361Y-64581602D01*
X152831389Y-64529702D01*
X152826858Y-64525775D01*
X152819175Y-64524104D01*
X151196723Y-64524104D01*
X151128602Y-64504102D01*
X151082109Y-64450446D01*
X151070723Y-64398104D01*
X151070723Y-64142104D01*
X151090725Y-64073983D01*
X151144381Y-64027490D01*
X151196723Y-64016104D01*
X152814607Y-64016104D01*
X152829846Y-64011629D01*
X152831051Y-64010239D01*
X152832722Y-64002556D01*
X152832722Y-63675435D01*
X152832352Y-63668614D01*
X152826828Y-63617752D01*
X152823202Y-63602500D01*
X152778044Y-63482043D01*
X152777549Y-63481138D01*
X152777330Y-63480138D01*
X152774895Y-63473642D01*
X152775833Y-63473290D01*
X152762380Y-63411781D01*
X152775561Y-63366892D01*
X152775338Y-63366809D01*
X152776479Y-63363767D01*
X152776481Y-63363760D01*
X152784532Y-63342286D01*
X152823694Y-63237819D01*
X152826468Y-63230420D01*
X152833223Y-63168238D01*
X152833223Y-61971970D01*
X152826468Y-61909788D01*
X152785754Y-61801183D01*
X152778489Y-61781803D01*
X152778487Y-61781800D01*
X152775338Y-61773399D01*
X152776189Y-61773080D01*
X152762668Y-61711255D01*
X152775681Y-61666938D01*
X152775338Y-61666809D01*
X152777095Y-61662123D01*
X152777096Y-61662119D01*
X152826468Y-61530420D01*
X152833223Y-61468238D01*
X152833223Y-60271970D01*
X152826468Y-60209788D01*
X152775338Y-60073399D01*
X152687984Y-59956843D01*
X152571428Y-59869489D01*
X152435039Y-59818359D01*
X152372857Y-59811604D01*
X150276589Y-59811604D01*
X150214407Y-59818359D01*
X150078018Y-59869489D01*
X150004289Y-59924746D01*
X149990288Y-59935239D01*
X149923782Y-59960087D01*
X149854399Y-59945034D01*
X149839158Y-59935239D01*
X149825157Y-59924746D01*
X149751428Y-59869489D01*
X149615039Y-59818359D01*
X149552857Y-59811604D01*
X147456589Y-59811604D01*
X147394407Y-59818359D01*
X147258018Y-59869489D01*
X147141462Y-59956843D01*
X147054108Y-60073399D01*
X147002978Y-60209788D01*
X146996223Y-60271970D01*
X146996223Y-61468238D01*
X147002978Y-61530420D01*
X147054108Y-61666809D01*
X147053257Y-61667128D01*
X147066778Y-61728953D01*
X147053765Y-61773270D01*
X147054108Y-61773399D01*
X147050959Y-61781800D01*
X147050957Y-61781803D01*
X147043692Y-61801183D01*
X147002978Y-61909788D01*
X146996223Y-61971970D01*
X146996223Y-63168238D01*
X147002978Y-63230420D01*
X147005752Y-63237819D01*
X147044915Y-63342286D01*
X147052968Y-63363767D01*
X147054108Y-63366809D01*
X147053257Y-63367128D01*
X147066778Y-63428953D01*
X147053765Y-63473270D01*
X147054108Y-63473399D01*
X147050959Y-63481800D01*
X147050957Y-63481803D01*
X147020699Y-63562518D01*
X147002978Y-63609788D01*
X146996223Y-63671970D01*
X146996223Y-64475604D01*
X146976221Y-64543725D01*
X146922565Y-64590218D01*
X146870223Y-64601604D01*
X145324482Y-64601604D01*
X145256361Y-64581602D01*
X145211389Y-64529702D01*
X145206858Y-64525775D01*
X145199175Y-64524104D01*
X143576723Y-64524104D01*
X143508602Y-64504102D01*
X143462109Y-64450446D01*
X143450723Y-64398104D01*
X143450723Y-64142104D01*
X143470725Y-64073983D01*
X143524381Y-64027490D01*
X143576723Y-64016104D01*
X145194607Y-64016104D01*
X145209846Y-64011629D01*
X145211051Y-64010239D01*
X145212722Y-64002556D01*
X145212722Y-63675435D01*
X145212352Y-63668614D01*
X145206828Y-63617752D01*
X145203202Y-63602500D01*
X145158044Y-63482043D01*
X145157549Y-63481138D01*
X145157330Y-63480138D01*
X145154895Y-63473642D01*
X145155833Y-63473290D01*
X145142380Y-63411781D01*
X145155561Y-63366892D01*
X145155338Y-63366809D01*
X145156479Y-63363767D01*
X145156481Y-63363760D01*
X145164532Y-63342286D01*
X145203694Y-63237819D01*
X145206468Y-63230420D01*
X145213223Y-63168238D01*
X145213223Y-61971970D01*
X145206468Y-61909788D01*
X145165754Y-61801183D01*
X145158489Y-61781803D01*
X145158487Y-61781800D01*
X145155338Y-61773399D01*
X145156189Y-61773080D01*
X145142668Y-61711255D01*
X145155681Y-61666938D01*
X145155338Y-61666809D01*
X145157095Y-61662123D01*
X145157096Y-61662119D01*
X145206468Y-61530420D01*
X145213223Y-61468238D01*
X145213223Y-60271970D01*
X145206468Y-60209788D01*
X145155338Y-60073399D01*
X145067984Y-59956843D01*
X144951428Y-59869489D01*
X144815039Y-59818359D01*
X144752857Y-59811604D01*
X142656589Y-59811604D01*
X142594407Y-59818359D01*
X142458018Y-59869489D01*
X142384289Y-59924746D01*
X142370288Y-59935239D01*
X142303782Y-59960087D01*
X142234399Y-59945034D01*
X142219158Y-59935239D01*
X142205157Y-59924746D01*
X142131428Y-59869489D01*
X141995039Y-59818359D01*
X141932857Y-59811604D01*
X139836589Y-59811604D01*
X139774407Y-59818359D01*
X139638018Y-59869489D01*
X139521462Y-59956843D01*
X139434108Y-60073399D01*
X139382978Y-60209788D01*
X139376223Y-60271970D01*
X139376223Y-61468238D01*
X139382978Y-61530420D01*
X139434108Y-61666809D01*
X139433257Y-61667128D01*
X139446778Y-61728953D01*
X139433765Y-61773270D01*
X139434108Y-61773399D01*
X139430959Y-61781800D01*
X139430957Y-61781803D01*
X139423692Y-61801183D01*
X139382978Y-61909788D01*
X139376223Y-61971970D01*
X139376223Y-63168238D01*
X139382978Y-63230420D01*
X139385752Y-63237819D01*
X139424915Y-63342286D01*
X139432968Y-63363767D01*
X139434108Y-63366809D01*
X139433257Y-63367128D01*
X139446778Y-63428953D01*
X139433765Y-63473270D01*
X139434108Y-63473399D01*
X139430959Y-63481800D01*
X139430957Y-63481803D01*
X139400699Y-63562518D01*
X139382978Y-63609788D01*
X139376223Y-63671970D01*
X139376223Y-64475604D01*
X139356221Y-64543725D01*
X139302565Y-64590218D01*
X139250223Y-64601604D01*
X137704482Y-64601604D01*
X137636361Y-64581602D01*
X137591389Y-64529702D01*
X137586858Y-64525775D01*
X137579175Y-64524104D01*
X135956723Y-64524104D01*
X135888602Y-64504102D01*
X135842109Y-64450446D01*
X135830723Y-64398104D01*
X135830723Y-64142104D01*
X135850725Y-64073983D01*
X135904381Y-64027490D01*
X135956723Y-64016104D01*
X137574607Y-64016104D01*
X137589846Y-64011629D01*
X137591051Y-64010239D01*
X137592722Y-64002556D01*
X137592722Y-63675435D01*
X137592352Y-63668614D01*
X137586828Y-63617752D01*
X137583202Y-63602500D01*
X137538044Y-63482043D01*
X137537549Y-63481138D01*
X137537330Y-63480138D01*
X137534895Y-63473642D01*
X137535833Y-63473290D01*
X137522380Y-63411781D01*
X137535561Y-63366892D01*
X137535338Y-63366809D01*
X137536479Y-63363767D01*
X137536481Y-63363760D01*
X137544532Y-63342286D01*
X137583694Y-63237819D01*
X137586468Y-63230420D01*
X137593223Y-63168238D01*
X137593223Y-61971970D01*
X137586468Y-61909788D01*
X137545754Y-61801183D01*
X137538489Y-61781803D01*
X137538487Y-61781800D01*
X137535338Y-61773399D01*
X137536189Y-61773080D01*
X137522668Y-61711255D01*
X137535681Y-61666938D01*
X137535338Y-61666809D01*
X137537095Y-61662123D01*
X137537096Y-61662119D01*
X137586468Y-61530420D01*
X137593223Y-61468238D01*
X137593223Y-60271970D01*
X137586468Y-60209788D01*
X137535338Y-60073399D01*
X137447984Y-59956843D01*
X137331428Y-59869489D01*
X137195039Y-59818359D01*
X137132857Y-59811604D01*
X135036589Y-59811604D01*
X134974407Y-59818359D01*
X134838018Y-59869489D01*
X134764289Y-59924746D01*
X134750288Y-59935239D01*
X134683782Y-59960087D01*
X134614399Y-59945034D01*
X134599158Y-59935239D01*
X134585157Y-59924746D01*
X134511428Y-59869489D01*
X134375039Y-59818359D01*
X134312857Y-59811604D01*
X132216589Y-59811604D01*
X132154407Y-59818359D01*
X132018018Y-59869489D01*
X131901462Y-59956843D01*
X131814108Y-60073399D01*
X131762978Y-60209788D01*
X131756223Y-60271970D01*
X131756223Y-61468238D01*
X131762978Y-61530420D01*
X131814108Y-61666809D01*
X131813257Y-61667128D01*
X131826778Y-61728953D01*
X131813765Y-61773270D01*
X131814108Y-61773399D01*
X131810959Y-61781800D01*
X131810957Y-61781803D01*
X131803692Y-61801183D01*
X131762978Y-61909788D01*
X131756223Y-61971970D01*
X131756223Y-63168238D01*
X131762978Y-63230420D01*
X131765752Y-63237819D01*
X131804915Y-63342286D01*
X131812968Y-63363767D01*
X131814108Y-63366809D01*
X131813257Y-63367128D01*
X131826778Y-63428953D01*
X131813765Y-63473270D01*
X131814108Y-63473399D01*
X131810959Y-63481800D01*
X131810957Y-63481803D01*
X131780699Y-63562518D01*
X131762978Y-63609788D01*
X131756223Y-63671970D01*
X131756223Y-64475604D01*
X131736221Y-64543725D01*
X131682565Y-64590218D01*
X131630223Y-64601604D01*
X130084482Y-64601604D01*
X130016361Y-64581602D01*
X129971389Y-64529702D01*
X129966858Y-64525775D01*
X129959175Y-64524104D01*
X128336723Y-64524104D01*
X128268602Y-64504102D01*
X128222109Y-64450446D01*
X128210723Y-64398104D01*
X128210723Y-64142104D01*
X128230725Y-64073983D01*
X128284381Y-64027490D01*
X128336723Y-64016104D01*
X129954607Y-64016104D01*
X129969846Y-64011629D01*
X129971051Y-64010239D01*
X129972722Y-64002556D01*
X129972722Y-63675435D01*
X129972352Y-63668614D01*
X129966828Y-63617752D01*
X129963202Y-63602500D01*
X129918044Y-63482043D01*
X129917549Y-63481138D01*
X129917330Y-63480138D01*
X129914895Y-63473642D01*
X129915833Y-63473290D01*
X129902380Y-63411781D01*
X129915561Y-63366892D01*
X129915338Y-63366809D01*
X129916479Y-63363767D01*
X129916481Y-63363760D01*
X129924532Y-63342286D01*
X129963694Y-63237819D01*
X129966468Y-63230420D01*
X129973223Y-63168238D01*
X129973223Y-61971970D01*
X129966468Y-61909788D01*
X129925754Y-61801183D01*
X129918489Y-61781803D01*
X129918487Y-61781800D01*
X129915338Y-61773399D01*
X129916189Y-61773080D01*
X129902668Y-61711255D01*
X129915681Y-61666938D01*
X129915338Y-61666809D01*
X129917095Y-61662123D01*
X129917096Y-61662119D01*
X129966468Y-61530420D01*
X129973223Y-61468238D01*
X129973223Y-60271970D01*
X129966468Y-60209788D01*
X129915338Y-60073399D01*
X129827984Y-59956843D01*
X129711428Y-59869489D01*
X129575039Y-59818359D01*
X129512857Y-59811604D01*
X127416589Y-59811604D01*
X127354407Y-59818359D01*
X127218018Y-59869489D01*
X127144289Y-59924746D01*
X127130288Y-59935239D01*
X127063782Y-59960087D01*
X126994399Y-59945034D01*
X126979158Y-59935239D01*
X126965157Y-59924746D01*
X126891428Y-59869489D01*
X126755039Y-59818359D01*
X126692857Y-59811604D01*
X124596589Y-59811604D01*
X124534407Y-59818359D01*
X124398018Y-59869489D01*
X124281462Y-59956843D01*
X124194108Y-60073399D01*
X124142978Y-60209788D01*
X124136223Y-60271970D01*
X124136223Y-61468238D01*
X124142978Y-61530420D01*
X124194108Y-61666809D01*
X124193257Y-61667128D01*
X124206778Y-61728953D01*
X124193765Y-61773270D01*
X124194108Y-61773399D01*
X124190959Y-61781800D01*
X124190957Y-61781803D01*
X124183692Y-61801183D01*
X124142978Y-61909788D01*
X124136223Y-61971970D01*
X124136223Y-63168238D01*
X124142978Y-63230420D01*
X124145752Y-63237819D01*
X124184915Y-63342286D01*
X124192968Y-63363767D01*
X124194108Y-63366809D01*
X124193257Y-63367128D01*
X124206778Y-63428953D01*
X124193765Y-63473270D01*
X124194108Y-63473399D01*
X124190959Y-63481800D01*
X124190957Y-63481803D01*
X124160699Y-63562518D01*
X124142978Y-63609788D01*
X124136223Y-63671970D01*
X124136223Y-64475604D01*
X124116221Y-64543725D01*
X124062565Y-64590218D01*
X124010223Y-64601604D01*
X122464482Y-64601604D01*
X122396361Y-64581602D01*
X122351389Y-64529702D01*
X122346858Y-64525775D01*
X122339175Y-64524104D01*
X120716723Y-64524104D01*
X120648602Y-64504102D01*
X120602109Y-64450446D01*
X120590723Y-64398104D01*
X120590723Y-64142104D01*
X120610725Y-64073983D01*
X120664381Y-64027490D01*
X120716723Y-64016104D01*
X122334607Y-64016104D01*
X122349846Y-64011629D01*
X122351051Y-64010239D01*
X122352722Y-64002556D01*
X122352722Y-63675435D01*
X122352352Y-63668614D01*
X122346828Y-63617752D01*
X122343202Y-63602500D01*
X122298044Y-63482043D01*
X122297549Y-63481138D01*
X122297330Y-63480138D01*
X122294895Y-63473642D01*
X122295833Y-63473290D01*
X122282380Y-63411781D01*
X122295561Y-63366892D01*
X122295338Y-63366809D01*
X122296479Y-63363767D01*
X122296481Y-63363760D01*
X122304532Y-63342286D01*
X122343694Y-63237819D01*
X122346468Y-63230420D01*
X122353223Y-63168238D01*
X122353223Y-61971970D01*
X122346468Y-61909788D01*
X122305754Y-61801183D01*
X122298489Y-61781803D01*
X122298487Y-61781800D01*
X122295338Y-61773399D01*
X122296189Y-61773080D01*
X122282668Y-61711255D01*
X122295681Y-61666938D01*
X122295338Y-61666809D01*
X122297095Y-61662123D01*
X122297096Y-61662119D01*
X122346468Y-61530420D01*
X122353223Y-61468238D01*
X122353223Y-60271970D01*
X122346468Y-60209788D01*
X122295338Y-60073399D01*
X122207984Y-59956843D01*
X122091428Y-59869489D01*
X121955039Y-59818359D01*
X121892857Y-59811604D01*
X119796589Y-59811604D01*
X119734407Y-59818359D01*
X119598018Y-59869489D01*
X119524289Y-59924746D01*
X119510288Y-59935239D01*
X119443782Y-59960087D01*
X119374399Y-59945034D01*
X119359158Y-59935239D01*
X119345157Y-59924746D01*
X119271428Y-59869489D01*
X119135039Y-59818359D01*
X119072857Y-59811604D01*
X116976589Y-59811604D01*
X116914407Y-59818359D01*
X116778018Y-59869489D01*
X116661462Y-59956843D01*
X116574108Y-60073399D01*
X116522978Y-60209788D01*
X116516223Y-60271970D01*
X116516223Y-61468238D01*
X116522978Y-61530420D01*
X116574108Y-61666809D01*
X116573257Y-61667128D01*
X116586778Y-61728953D01*
X116573765Y-61773270D01*
X116574108Y-61773399D01*
X116570959Y-61781800D01*
X116570957Y-61781803D01*
X116563692Y-61801183D01*
X116522978Y-61909788D01*
X116516223Y-61971970D01*
X116516223Y-63168238D01*
X116522978Y-63230420D01*
X116525752Y-63237819D01*
X116564915Y-63342286D01*
X116572968Y-63363767D01*
X116574108Y-63366809D01*
X116573257Y-63367128D01*
X116586778Y-63428953D01*
X116573765Y-63473270D01*
X116574108Y-63473399D01*
X116570959Y-63481800D01*
X116570957Y-63481803D01*
X116540699Y-63562518D01*
X116522978Y-63609788D01*
X116516223Y-63671970D01*
X116516223Y-64475604D01*
X116496221Y-64543725D01*
X116442565Y-64590218D01*
X116390223Y-64601604D01*
X114844482Y-64601604D01*
X114776361Y-64581602D01*
X114731389Y-64529702D01*
X114726858Y-64525775D01*
X114719175Y-64524104D01*
X113096723Y-64524104D01*
X113028602Y-64504102D01*
X112982109Y-64450446D01*
X112970723Y-64398104D01*
X112970723Y-64142104D01*
X112990725Y-64073983D01*
X113044381Y-64027490D01*
X113096723Y-64016104D01*
X114714607Y-64016104D01*
X114729846Y-64011629D01*
X114731051Y-64010239D01*
X114732722Y-64002556D01*
X114732722Y-63675435D01*
X114732352Y-63668614D01*
X114726828Y-63617752D01*
X114723202Y-63602500D01*
X114678044Y-63482043D01*
X114677549Y-63481138D01*
X114677330Y-63480138D01*
X114674895Y-63473642D01*
X114675833Y-63473290D01*
X114662380Y-63411781D01*
X114675561Y-63366892D01*
X114675338Y-63366809D01*
X114676479Y-63363767D01*
X114676481Y-63363760D01*
X114684532Y-63342286D01*
X114723694Y-63237819D01*
X114726468Y-63230420D01*
X114733223Y-63168238D01*
X114733223Y-61971970D01*
X114726468Y-61909788D01*
X114685754Y-61801183D01*
X114678489Y-61781803D01*
X114678487Y-61781800D01*
X114675338Y-61773399D01*
X114676189Y-61773080D01*
X114662668Y-61711255D01*
X114675681Y-61666938D01*
X114675338Y-61666809D01*
X114677095Y-61662123D01*
X114677096Y-61662119D01*
X114726468Y-61530420D01*
X114733223Y-61468238D01*
X114733223Y-60271970D01*
X114726468Y-60209788D01*
X114675338Y-60073399D01*
X114587984Y-59956843D01*
X114471428Y-59869489D01*
X114335039Y-59818359D01*
X114272857Y-59811604D01*
X112176589Y-59811604D01*
X112114407Y-59818359D01*
X111978018Y-59869489D01*
X111904289Y-59924746D01*
X111890288Y-59935239D01*
X111823782Y-59960087D01*
X111754399Y-59945034D01*
X111739158Y-59935239D01*
X111725157Y-59924746D01*
X111651428Y-59869489D01*
X111515039Y-59818359D01*
X111452857Y-59811604D01*
X109356589Y-59811604D01*
X109294407Y-59818359D01*
X109158018Y-59869489D01*
X109041462Y-59956843D01*
X108954108Y-60073399D01*
X108902978Y-60209788D01*
X108896223Y-60271970D01*
X108896223Y-61468238D01*
X108902978Y-61530420D01*
X108954108Y-61666809D01*
X108953257Y-61667128D01*
X108966778Y-61728953D01*
X108953765Y-61773270D01*
X108954108Y-61773399D01*
X108950959Y-61781800D01*
X108950957Y-61781803D01*
X108943692Y-61801183D01*
X108902978Y-61909788D01*
X108896223Y-61971970D01*
X108896223Y-63168238D01*
X108902978Y-63230420D01*
X108905752Y-63237819D01*
X108944915Y-63342286D01*
X108952968Y-63363767D01*
X108954108Y-63366809D01*
X108953257Y-63367128D01*
X108966778Y-63428953D01*
X108953765Y-63473270D01*
X108954108Y-63473399D01*
X108950959Y-63481800D01*
X108950957Y-63481803D01*
X108920699Y-63562518D01*
X108902978Y-63609788D01*
X108896223Y-63671970D01*
X108896223Y-64475604D01*
X108876221Y-64543725D01*
X108822565Y-64590218D01*
X108770223Y-64601604D01*
X107224482Y-64601604D01*
X107156361Y-64581602D01*
X107111389Y-64529702D01*
X107106858Y-64525775D01*
X107099175Y-64524104D01*
X105476723Y-64524104D01*
X105408602Y-64504102D01*
X105362109Y-64450446D01*
X105350723Y-64398104D01*
X105350723Y-64142104D01*
X105370725Y-64073983D01*
X105424381Y-64027490D01*
X105476723Y-64016104D01*
X107094607Y-64016104D01*
X107109846Y-64011629D01*
X107111051Y-64010239D01*
X107112722Y-64002556D01*
X107112722Y-63675435D01*
X107112352Y-63668614D01*
X107106828Y-63617752D01*
X107103202Y-63602500D01*
X107058044Y-63482043D01*
X107057549Y-63481138D01*
X107057330Y-63480138D01*
X107054895Y-63473642D01*
X107055833Y-63473290D01*
X107042380Y-63411781D01*
X107055561Y-63366892D01*
X107055338Y-63366809D01*
X107056479Y-63363767D01*
X107056481Y-63363760D01*
X107064532Y-63342286D01*
X107103694Y-63237819D01*
X107106468Y-63230420D01*
X107113223Y-63168238D01*
X107113223Y-61971970D01*
X107106468Y-61909788D01*
X107065754Y-61801183D01*
X107058489Y-61781803D01*
X107058487Y-61781800D01*
X107055338Y-61773399D01*
X107056189Y-61773080D01*
X107042668Y-61711255D01*
X107055681Y-61666938D01*
X107055338Y-61666809D01*
X107057095Y-61662123D01*
X107057096Y-61662119D01*
X107106468Y-61530420D01*
X107113223Y-61468238D01*
X107113223Y-60271970D01*
X107106468Y-60209788D01*
X107055338Y-60073399D01*
X106967984Y-59956843D01*
X106851428Y-59869489D01*
X106715039Y-59818359D01*
X106652857Y-59811604D01*
X104556589Y-59811604D01*
X104494407Y-59818359D01*
X104358018Y-59869489D01*
X104284289Y-59924746D01*
X104270288Y-59935239D01*
X104203782Y-59960087D01*
X104134399Y-59945034D01*
X104119158Y-59935239D01*
X104105157Y-59924746D01*
X104031428Y-59869489D01*
X103895039Y-59818359D01*
X103832857Y-59811604D01*
X101736589Y-59811604D01*
X101674407Y-59818359D01*
X101538018Y-59869489D01*
X101421462Y-59956843D01*
X101334108Y-60073399D01*
X101282978Y-60209788D01*
X101276223Y-60271970D01*
X101276223Y-61468238D01*
X101282978Y-61530420D01*
X101334108Y-61666809D01*
X101333257Y-61667128D01*
X101346778Y-61728953D01*
X101333765Y-61773270D01*
X101334108Y-61773399D01*
X101330959Y-61781800D01*
X101330957Y-61781803D01*
X101323692Y-61801183D01*
X101282978Y-61909788D01*
X101276223Y-61971970D01*
X101276223Y-63168238D01*
X101282978Y-63230420D01*
X101285752Y-63237819D01*
X101324915Y-63342286D01*
X101332968Y-63363767D01*
X101334108Y-63366809D01*
X101333257Y-63367128D01*
X101346778Y-63428953D01*
X101333765Y-63473270D01*
X101334108Y-63473399D01*
X101330959Y-63481800D01*
X101330957Y-63481803D01*
X101300699Y-63562518D01*
X101282978Y-63609788D01*
X101276223Y-63671970D01*
X101276223Y-64475604D01*
X101256221Y-64543725D01*
X101202565Y-64590218D01*
X101150223Y-64601604D01*
X99604482Y-64601604D01*
X99536361Y-64581602D01*
X99491389Y-64529702D01*
X99486858Y-64525775D01*
X99479175Y-64524104D01*
X96494839Y-64524104D01*
X96479600Y-64528579D01*
X96478395Y-64529969D01*
X96476724Y-64537652D01*
X96476724Y-64776271D01*
X96456722Y-64844392D01*
X96430361Y-64873913D01*
X96412616Y-64888386D01*
X96406547Y-64893336D01*
X96402619Y-64898084D01*
X96402618Y-64898085D01*
X96377062Y-64928977D01*
X96369073Y-64937756D01*
X95808790Y-65498039D01*
X95799484Y-65506462D01*
X95229506Y-65972808D01*
X93525343Y-67367123D01*
X93459954Y-67394779D01*
X93445555Y-67395604D01*
X91928224Y-67395604D01*
X91860103Y-67375602D01*
X91813610Y-67321946D01*
X91803506Y-67251672D01*
X91825901Y-67196078D01*
X91897732Y-67096115D01*
X91903036Y-67087287D01*
X91997393Y-66896371D01*
X92001192Y-66886776D01*
X92063100Y-66683014D01*
X92065278Y-66672941D01*
X92066709Y-66662066D01*
X92064498Y-66647882D01*
X92051340Y-66644104D01*
X90604723Y-66644104D01*
X90536602Y-66624102D01*
X90490109Y-66570446D01*
X90478723Y-66518104D01*
X90478723Y-66262104D01*
X90498725Y-66193983D01*
X90552381Y-66147490D01*
X90604723Y-66136104D01*
X92051067Y-66136104D01*
X92064598Y-66132131D01*
X92065903Y-66123051D01*
X92023937Y-65955979D01*
X92020617Y-65946228D01*
X91935695Y-65750918D01*
X91930828Y-65741843D01*
X91815149Y-65563030D01*
X91808859Y-65554861D01*
X91665529Y-65397344D01*
X91657996Y-65390319D01*
X91490862Y-65258326D01*
X91482279Y-65252624D01*
X91445325Y-65232224D01*
X91395354Y-65181791D01*
X91380582Y-65112349D01*
X91405698Y-65045943D01*
X91433050Y-65019336D01*
X91456520Y-65002595D01*
X91612583Y-64891277D01*
X91645102Y-64858872D01*
X91697368Y-64806788D01*
X91770819Y-64733593D01*
X91807167Y-64683010D01*
X91898161Y-64556377D01*
X91898162Y-64556376D01*
X91901176Y-64552181D01*
X91903465Y-64547549D01*
X91903970Y-64546709D01*
X91956200Y-64498620D01*
X92011973Y-64485604D01*
X92929703Y-64485604D01*
X92940937Y-64486134D01*
X92948442Y-64487812D01*
X93016735Y-64485666D01*
X93020692Y-64485604D01*
X93048706Y-64485604D01*
X93052631Y-64485108D01*
X93052632Y-64485108D01*
X93052727Y-64485096D01*
X93064572Y-64484163D01*
X93094393Y-64483226D01*
X93101005Y-64483018D01*
X93101006Y-64483018D01*
X93108928Y-64482769D01*
X93128472Y-64477091D01*
X93147835Y-64473081D01*
X93160163Y-64471524D01*
X93160165Y-64471524D01*
X93168022Y-64470531D01*
X93175386Y-64467615D01*
X93175391Y-64467614D01*
X93209279Y-64454197D01*
X93220508Y-64450352D01*
X93237188Y-64445506D01*
X93263116Y-64437973D01*
X93269943Y-64433935D01*
X93269946Y-64433934D01*
X93280629Y-64427616D01*
X93298387Y-64418916D01*
X93309938Y-64414343D01*
X93309944Y-64414339D01*
X93317311Y-64411423D01*
X93353214Y-64385338D01*
X93363133Y-64378823D01*
X93394491Y-64360278D01*
X93394495Y-64360275D01*
X93401321Y-64356238D01*
X93415705Y-64341854D01*
X93430739Y-64329013D01*
X93440796Y-64321706D01*
X93447210Y-64317046D01*
X93475501Y-64282848D01*
X93483490Y-64274069D01*
X94515050Y-63242509D01*
X94577362Y-63208483D01*
X94604145Y-63205604D01*
X96386347Y-63205604D01*
X96454468Y-63225606D01*
X96500961Y-63279262D01*
X96504329Y-63287374D01*
X96524915Y-63342286D01*
X96532312Y-63362018D01*
X96534108Y-63366809D01*
X96533416Y-63367068D01*
X96547066Y-63429478D01*
X96534143Y-63473489D01*
X96534551Y-63473642D01*
X96532461Y-63479216D01*
X96531897Y-63481138D01*
X96531402Y-63482043D01*
X96486245Y-63602498D01*
X96482618Y-63617753D01*
X96477092Y-63668618D01*
X96476723Y-63675432D01*
X96476723Y-63997989D01*
X96481198Y-64013228D01*
X96482588Y-64014433D01*
X96490271Y-64016104D01*
X99474607Y-64016104D01*
X99489846Y-64011629D01*
X99491051Y-64010239D01*
X99492722Y-64002556D01*
X99492722Y-63675435D01*
X99492352Y-63668614D01*
X99486828Y-63617752D01*
X99483202Y-63602500D01*
X99438044Y-63482043D01*
X99437549Y-63481138D01*
X99437330Y-63480138D01*
X99434895Y-63473642D01*
X99435833Y-63473290D01*
X99422380Y-63411781D01*
X99435561Y-63366892D01*
X99435338Y-63366809D01*
X99436479Y-63363767D01*
X99436481Y-63363760D01*
X99444532Y-63342286D01*
X99483694Y-63237819D01*
X99486468Y-63230420D01*
X99493223Y-63168238D01*
X99493223Y-61971970D01*
X99486468Y-61909788D01*
X99445754Y-61801183D01*
X99438489Y-61781803D01*
X99438487Y-61781800D01*
X99435338Y-61773399D01*
X99436189Y-61773080D01*
X99422668Y-61711255D01*
X99435681Y-61666938D01*
X99435338Y-61666809D01*
X99437095Y-61662123D01*
X99437096Y-61662119D01*
X99486468Y-61530420D01*
X99493223Y-61468238D01*
X99493223Y-60271970D01*
X99486468Y-60209788D01*
X99435338Y-60073399D01*
X99347984Y-59956843D01*
X99231428Y-59869489D01*
X99095039Y-59818359D01*
X99032857Y-59811604D01*
X96936589Y-59811604D01*
X96874407Y-59818359D01*
X96738018Y-59869489D01*
X96621462Y-59956843D01*
X96534108Y-60073399D01*
X96530956Y-60081807D01*
X96504329Y-60152834D01*
X96461687Y-60209598D01*
X96395126Y-60234298D01*
X96386347Y-60234604D01*
X91988975Y-60234604D01*
X91920854Y-60214602D01*
X91874361Y-60160946D01*
X91864257Y-60090672D01*
X91893751Y-60026092D01*
X91913410Y-60007778D01*
X91938803Y-59988747D01*
X91938804Y-59988746D01*
X91945984Y-59983365D01*
X92033338Y-59866809D01*
X92084468Y-59730420D01*
X92091223Y-59668238D01*
X92091223Y-57871970D01*
X92084468Y-57809788D01*
X92033338Y-57673399D01*
X91945984Y-57556843D01*
X91829428Y-57469489D01*
X91693039Y-57418359D01*
X91630857Y-57411604D01*
X89834589Y-57411604D01*
X89772407Y-57418359D01*
X89636018Y-57469489D01*
X89519462Y-57556843D01*
X89432108Y-57673399D01*
X89380978Y-57809788D01*
X89374223Y-57871970D01*
X89374223Y-58638866D01*
X89354221Y-58706987D01*
X89337318Y-58727961D01*
X87771990Y-60293289D01*
X87761848Y-60302390D01*
X87732074Y-60326329D01*
X87699536Y-60365106D01*
X87696372Y-60368733D01*
X87694677Y-60370602D01*
X87692483Y-60372796D01*
X87664911Y-60406362D01*
X87664249Y-60407159D01*
X87603937Y-60479037D01*
X87601350Y-60483743D01*
X87597941Y-60487893D01*
X87595033Y-60493317D01*
X87595026Y-60493327D01*
X87553662Y-60570472D01*
X87553033Y-60571632D01*
X87507902Y-60653725D01*
X87506278Y-60658845D01*
X87503740Y-60663578D01*
X87489444Y-60710339D01*
X87476371Y-60753097D01*
X87475979Y-60754356D01*
X87449488Y-60837865D01*
X87447625Y-60843739D01*
X87447026Y-60849077D01*
X87445456Y-60854213D01*
X87438537Y-60922334D01*
X87435986Y-60947447D01*
X87435857Y-60948655D01*
X87430223Y-60998888D01*
X87430223Y-61002393D01*
X87430161Y-61003501D01*
X87429713Y-61009196D01*
X87425933Y-61046409D01*
X87425933Y-61046416D01*
X87425311Y-61052539D01*
X87429664Y-61098589D01*
X87430223Y-61110447D01*
X87430223Y-66825828D01*
X87429486Y-66839436D01*
X87425361Y-66877408D01*
X87425898Y-66883543D01*
X87429769Y-66927794D01*
X87430098Y-66932622D01*
X87430223Y-66935177D01*
X87430223Y-66938261D01*
X87430524Y-66941328D01*
X87434445Y-66981323D01*
X87434567Y-66982636D01*
X87442735Y-67075996D01*
X87444234Y-67081156D01*
X87444758Y-67086498D01*
X87470065Y-67170318D01*
X87471821Y-67176135D01*
X87472178Y-67177340D01*
X87498351Y-67267426D01*
X87500823Y-67272194D01*
X87502375Y-67277336D01*
X87505270Y-67282781D01*
X87505273Y-67282788D01*
X87546356Y-67360054D01*
X87546936Y-67361158D01*
X87590089Y-67444408D01*
X87593441Y-67448607D01*
X87595962Y-67453348D01*
X87599854Y-67458120D01*
X87655161Y-67525933D01*
X87655989Y-67526959D01*
X87681861Y-67559368D01*
X87687491Y-67566420D01*
X87689986Y-67568915D01*
X87690696Y-67569709D01*
X87694416Y-67574064D01*
X87718060Y-67603055D01*
X87718063Y-67603058D01*
X87721955Y-67607830D01*
X87726703Y-67611758D01*
X87726704Y-67611759D01*
X87757596Y-67637315D01*
X87766375Y-67645304D01*
X88825580Y-68704509D01*
X88859606Y-68766821D01*
X88854541Y-68837636D01*
X88811994Y-68894472D01*
X88745474Y-68919283D01*
X88736485Y-68919604D01*
X82132262Y-68919604D01*
X82118335Y-68918832D01*
X82114944Y-68918455D01*
X82080552Y-68914630D01*
X82018622Y-68925498D01*
X82014751Y-68926114D01*
X81961423Y-68933751D01*
X81961421Y-68933752D01*
X81952536Y-68935024D01*
X81945115Y-68938398D01*
X81937087Y-68939807D01*
X81929034Y-68943779D01*
X81880725Y-68967606D01*
X81877141Y-68969305D01*
X81819941Y-68995312D01*
X81813767Y-69000632D01*
X81806454Y-69004239D01*
X81799844Y-69010307D01*
X81799843Y-69010308D01*
X81789979Y-69019363D01*
X81773515Y-69032139D01*
X81346219Y-69310332D01*
X81338541Y-69314950D01*
X80864330Y-69577714D01*
X80856352Y-69581771D01*
X80364661Y-69810173D01*
X80356413Y-69813653D01*
X79849747Y-70006531D01*
X79841266Y-70009419D01*
X79322175Y-70165804D01*
X79313510Y-70168082D01*
X79176143Y-70199015D01*
X78784613Y-70287182D01*
X78775808Y-70288838D01*
X78239801Y-70370050D01*
X78230900Y-70371077D01*
X77690452Y-70413993D01*
X77681501Y-70414384D01*
X77394080Y-70416718D01*
X77139372Y-70418787D01*
X77130438Y-70418541D01*
X76669778Y-70389479D01*
X76589365Y-70384406D01*
X76580448Y-70383524D01*
X76488207Y-70371077D01*
X76043177Y-70311024D01*
X76034364Y-70309514D01*
X75639015Y-70227208D01*
X75503594Y-70199015D01*
X75494893Y-70196878D01*
X75385337Y-70165804D01*
X74973331Y-70048944D01*
X74964814Y-70046197D01*
X74455075Y-69861569D01*
X74446764Y-69858221D01*
X73951439Y-69637837D01*
X73943388Y-69633906D01*
X73464975Y-69378879D01*
X73457223Y-69374385D01*
X73320409Y-69288442D01*
X72998155Y-69086010D01*
X72990758Y-69080990D01*
X72553310Y-68760697D01*
X72546280Y-68755155D01*
X72486531Y-68704509D01*
X72132725Y-68404608D01*
X72126106Y-68398580D01*
X72107295Y-68380183D01*
X71738508Y-68019528D01*
X71732329Y-68013040D01*
X71410429Y-67650011D01*
X71372641Y-67607394D01*
X71366942Y-67600487D01*
X71346676Y-67574064D01*
X71036999Y-67170318D01*
X71031802Y-67163019D01*
X70987665Y-67096115D01*
X70733259Y-66710485D01*
X70728594Y-66702835D01*
X70462967Y-66230231D01*
X70458858Y-66222270D01*
X70227485Y-65731980D01*
X70223952Y-65723746D01*
X70028014Y-65218273D01*
X70025074Y-65209809D01*
X69865544Y-64691661D01*
X69863214Y-64683010D01*
X69860140Y-64669733D01*
X69740913Y-64154852D01*
X69739204Y-64146060D01*
X69654745Y-63610536D01*
X69653665Y-63601642D01*
X69633595Y-63366938D01*
X69607474Y-63061463D01*
X69607030Y-63052524D01*
X69606608Y-63022721D01*
X69600358Y-62581901D01*
X69600191Y-62570104D01*
X73709133Y-62570104D01*
X73729479Y-62958322D01*
X73729992Y-62961562D01*
X73729993Y-62961570D01*
X73747175Y-63070051D01*
X73790293Y-63342286D01*
X73890909Y-63717790D01*
X73892094Y-63720878D01*
X73892095Y-63720880D01*
X73944656Y-63857807D01*
X74030224Y-64080720D01*
X74206713Y-64427099D01*
X74418442Y-64753133D01*
X74420520Y-64755699D01*
X74593529Y-64969346D01*
X74663091Y-65055248D01*
X74937979Y-65330136D01*
X74940537Y-65332208D01*
X74940541Y-65332211D01*
X75086572Y-65450465D01*
X75240094Y-65574785D01*
X75566128Y-65786514D01*
X75912507Y-65963003D01*
X75954793Y-65979235D01*
X76239552Y-66088543D01*
X76275437Y-66102318D01*
X76650941Y-66202934D01*
X76854959Y-66235247D01*
X77031657Y-66263234D01*
X77031665Y-66263235D01*
X77034905Y-66263748D01*
X77423123Y-66284094D01*
X77811341Y-66263748D01*
X77814581Y-66263235D01*
X77814589Y-66263234D01*
X77991287Y-66235247D01*
X78195305Y-66202934D01*
X78570809Y-66102318D01*
X78606695Y-66088543D01*
X78891453Y-65979235D01*
X78933739Y-65963003D01*
X79280118Y-65786514D01*
X79606152Y-65574785D01*
X79759674Y-65450465D01*
X79905705Y-65332211D01*
X79905709Y-65332208D01*
X79908267Y-65330136D01*
X80183155Y-65055248D01*
X80252718Y-64969346D01*
X80425726Y-64755699D01*
X80427804Y-64753133D01*
X80639533Y-64427099D01*
X80816022Y-64080720D01*
X80901590Y-63857807D01*
X80954151Y-63720880D01*
X80954152Y-63720878D01*
X80955337Y-63717790D01*
X81055953Y-63342286D01*
X81099071Y-63070051D01*
X81116253Y-62961570D01*
X81116254Y-62961562D01*
X81116767Y-62958322D01*
X81137113Y-62570104D01*
X81116767Y-62181886D01*
X81113651Y-62162208D01*
X81084061Y-61975387D01*
X81055953Y-61797922D01*
X80955337Y-61422418D01*
X80937729Y-61376546D01*
X80835583Y-61110447D01*
X80816022Y-61059488D01*
X80639533Y-60713109D01*
X80427804Y-60387075D01*
X80351857Y-60293289D01*
X80185230Y-60087522D01*
X80185227Y-60087518D01*
X80183155Y-60084960D01*
X79908267Y-59810072D01*
X79819043Y-59737819D01*
X79608718Y-59567501D01*
X79606152Y-59565423D01*
X79280118Y-59353694D01*
X78933739Y-59177205D01*
X78693575Y-59085015D01*
X78573899Y-59039076D01*
X78573897Y-59039075D01*
X78570809Y-59037890D01*
X78195305Y-58937274D01*
X77991287Y-58904961D01*
X77814589Y-58876974D01*
X77814581Y-58876973D01*
X77811341Y-58876460D01*
X77423123Y-58856114D01*
X77034905Y-58876460D01*
X77031665Y-58876973D01*
X77031657Y-58876974D01*
X76854959Y-58904961D01*
X76650941Y-58937274D01*
X76275437Y-59037890D01*
X76272349Y-59039075D01*
X76272347Y-59039076D01*
X76152671Y-59085015D01*
X75912507Y-59177205D01*
X75566128Y-59353694D01*
X75240094Y-59565423D01*
X75237528Y-59567501D01*
X75027204Y-59737819D01*
X74937979Y-59810072D01*
X74663091Y-60084960D01*
X74661019Y-60087518D01*
X74661016Y-60087522D01*
X74494389Y-60293289D01*
X74418442Y-60387075D01*
X74206713Y-60713109D01*
X74030224Y-61059488D01*
X74010663Y-61110447D01*
X73908518Y-61376546D01*
X73890909Y-61422418D01*
X73790293Y-61797922D01*
X73762185Y-61975387D01*
X73732596Y-62162208D01*
X73729479Y-62181886D01*
X73709133Y-62570104D01*
X69600191Y-62570104D01*
X69599345Y-62510457D01*
X69599536Y-62501500D01*
X69628908Y-61986270D01*
X69630393Y-61960225D01*
X69631221Y-61951306D01*
X69631759Y-61947126D01*
X69700465Y-61413602D01*
X69701924Y-61404768D01*
X69707622Y-61376546D01*
X69763734Y-61098589D01*
X69809202Y-60873360D01*
X69811286Y-60864646D01*
X69956058Y-60342196D01*
X69958756Y-60333652D01*
X69961359Y-60326329D01*
X70140289Y-59822815D01*
X70143586Y-59814487D01*
X70209094Y-59664821D01*
X70360967Y-59317833D01*
X70364849Y-59309758D01*
X70560792Y-58936758D01*
X70616975Y-58829806D01*
X70621420Y-58822031D01*
X70907008Y-58361222D01*
X70911996Y-58353778D01*
X71229614Y-57914424D01*
X71235118Y-57907354D01*
X71583165Y-57491672D01*
X71589158Y-57485012D01*
X71913672Y-57149133D01*
X71965843Y-57095135D01*
X71972291Y-57088919D01*
X71972735Y-57088521D01*
X72375747Y-56726783D01*
X72382621Y-56721041D01*
X72492449Y-56635741D01*
X72810796Y-56388489D01*
X72818063Y-56383249D01*
X73268761Y-56081983D01*
X73276382Y-56077271D01*
X73548143Y-55922354D01*
X73747392Y-55808773D01*
X73755324Y-55804618D01*
X74244202Y-55570280D01*
X74252392Y-55566707D01*
X74756695Y-55367700D01*
X74765126Y-55364715D01*
X75282308Y-55202046D01*
X75290927Y-55199669D01*
X75438873Y-55164465D01*
X75818362Y-55074165D01*
X75827146Y-55072403D01*
X76362117Y-54984705D01*
X76371005Y-54983570D01*
X76910905Y-54934108D01*
X76919844Y-54933609D01*
X77105713Y-54929848D01*
X77461859Y-54922640D01*
X77470817Y-54922777D01*
G37*
G04 #@! TD.AperFunction*
M02*
