G04 #@! TF.GenerationSoftware,KiCad,Pcbnew,(6.0.6)*
G04 #@! TF.CreationDate,2022-11-08T17:29:06-05:00*
G04 #@! TF.ProjectId,pov_display,706f765f-6469-4737-906c-61792e6b6963,v01*
G04 #@! TF.SameCoordinates,Original*
G04 #@! TF.FileFunction,Legend,Bot*
G04 #@! TF.FilePolarity,Positive*
%FSLAX46Y46*%
G04 Gerber Fmt 4.6, Leading zero omitted, Abs format (unit mm)*
G04 Created by KiCad (PCBNEW (6.0.6)) date 2022-11-08 17:29:06*
%MOMM*%
%LPD*%
G01*
G04 APERTURE LIST*
G04 Aperture macros list*
%AMRoundRect*
0 Rectangle with rounded corners*
0 $1 Rounding radius*
0 $2 $3 $4 $5 $6 $7 $8 $9 X,Y pos of 4 corners*
0 Add a 4 corners polygon primitive as box body*
4,1,4,$2,$3,$4,$5,$6,$7,$8,$9,$2,$3,0*
0 Add four circle primitives for the rounded corners*
1,1,$1+$1,$2,$3*
1,1,$1+$1,$4,$5*
1,1,$1+$1,$6,$7*
1,1,$1+$1,$8,$9*
0 Add four rect primitives between the rounded corners*
20,1,$1+$1,$2,$3,$4,$5,0*
20,1,$1+$1,$4,$5,$6,$7,0*
20,1,$1+$1,$6,$7,$8,$9,0*
20,1,$1+$1,$8,$9,$2,$3,0*%
G04 Aperture macros list end*
%ADD10C,0.300000*%
%ADD11O,1.801600X1.801600*%
%ADD12RoundRect,0.050800X-0.850000X-0.850000X0.850000X-0.850000X0.850000X0.850000X-0.850000X0.850000X0*%
G04 APERTURE END LIST*
D10*
X104905142Y-62630857D02*
X104405142Y-62630857D01*
X104190857Y-63416571D02*
X104905142Y-63416571D01*
X104905142Y-61916571D01*
X104190857Y-61916571D01*
X102690857Y-63273714D02*
X102762285Y-63345142D01*
X102976571Y-63416571D01*
X103119428Y-63416571D01*
X103333714Y-63345142D01*
X103476571Y-63202285D01*
X103548000Y-63059428D01*
X103619428Y-62773714D01*
X103619428Y-62559428D01*
X103548000Y-62273714D01*
X103476571Y-62130857D01*
X103333714Y-61988000D01*
X103119428Y-61916571D01*
X102976571Y-61916571D01*
X102762285Y-61988000D01*
X102690857Y-62059428D01*
X102048000Y-62630857D02*
X101548000Y-62630857D01*
X101333714Y-63416571D02*
X102048000Y-63416571D01*
X102048000Y-61916571D01*
X101333714Y-61916571D01*
X98905142Y-62416571D02*
X98905142Y-63416571D01*
X99262285Y-61845142D02*
X99619428Y-62916571D01*
X98690857Y-62916571D01*
X98262285Y-61916571D02*
X97262285Y-61916571D01*
X97905142Y-63416571D01*
X96048000Y-61916571D02*
X96333714Y-61916571D01*
X96476571Y-61988000D01*
X96548000Y-62059428D01*
X96690857Y-62273714D01*
X96762285Y-62559428D01*
X96762285Y-63130857D01*
X96690857Y-63273714D01*
X96619428Y-63345142D01*
X96476571Y-63416571D01*
X96190857Y-63416571D01*
X96048000Y-63345142D01*
X95976571Y-63273714D01*
X95905142Y-63130857D01*
X95905142Y-62773714D01*
X95976571Y-62630857D01*
X96048000Y-62559428D01*
X96190857Y-62488000D01*
X96476571Y-62488000D01*
X96619428Y-62559428D01*
X96690857Y-62630857D01*
X96762285Y-62773714D01*
X94976571Y-61916571D02*
X94833714Y-61916571D01*
X94690857Y-61988000D01*
X94619428Y-62059428D01*
X94548000Y-62202285D01*
X94476571Y-62488000D01*
X94476571Y-62845142D01*
X94548000Y-63130857D01*
X94619428Y-63273714D01*
X94690857Y-63345142D01*
X94833714Y-63416571D01*
X94976571Y-63416571D01*
X95119428Y-63345142D01*
X95190857Y-63273714D01*
X95262285Y-63130857D01*
X95333714Y-62845142D01*
X95333714Y-62488000D01*
X95262285Y-62202285D01*
X95190857Y-62059428D01*
X95119428Y-61988000D01*
X94976571Y-61916571D01*
X92690857Y-63273714D02*
X92619428Y-63345142D01*
X92690857Y-63416571D01*
X92762285Y-63345142D01*
X92690857Y-63273714D01*
X92690857Y-63416571D01*
X92690857Y-62488000D02*
X92619428Y-62559428D01*
X92690857Y-62630857D01*
X92762285Y-62559428D01*
X92690857Y-62488000D01*
X92690857Y-62630857D01*
X92119428Y-63988000D02*
X92048000Y-63916571D01*
X91905142Y-63702285D01*
X91833714Y-63559428D01*
X91762285Y-63345142D01*
X91690857Y-62988000D01*
X91690857Y-62702285D01*
X91762285Y-62345142D01*
X91833714Y-62130857D01*
X91905142Y-61988000D01*
X92048000Y-61773714D01*
X92119428Y-61702285D01*
X395076571Y-63416571D02*
X395790857Y-63416571D01*
X395790857Y-61916571D01*
X394576571Y-62630857D02*
X394076571Y-62630857D01*
X393862285Y-63416571D02*
X394576571Y-63416571D01*
X394576571Y-61916571D01*
X393862285Y-61916571D01*
X393219428Y-63416571D02*
X393219428Y-61916571D01*
X392862285Y-61916571D01*
X392648000Y-61988000D01*
X392505142Y-62130857D01*
X392433714Y-62273714D01*
X392362285Y-62559428D01*
X392362285Y-62773714D01*
X392433714Y-63059428D01*
X392505142Y-63202285D01*
X392648000Y-63345142D01*
X392862285Y-63416571D01*
X393219428Y-63416571D01*
X390648000Y-63345142D02*
X390433714Y-63416571D01*
X390076571Y-63416571D01*
X389933714Y-63345142D01*
X389862285Y-63273714D01*
X389790857Y-63130857D01*
X389790857Y-62988000D01*
X389862285Y-62845142D01*
X389933714Y-62773714D01*
X390076571Y-62702285D01*
X390362285Y-62630857D01*
X390505142Y-62559428D01*
X390576571Y-62488000D01*
X390648000Y-62345142D01*
X390648000Y-62202285D01*
X390576571Y-62059428D01*
X390505142Y-61988000D01*
X390362285Y-61916571D01*
X390005142Y-61916571D01*
X389790857Y-61988000D01*
X389362285Y-61916571D02*
X388505142Y-61916571D01*
X388933714Y-63416571D02*
X388933714Y-61916571D01*
X387148000Y-63416571D02*
X387648000Y-62702285D01*
X388005142Y-63416571D02*
X388005142Y-61916571D01*
X387433714Y-61916571D01*
X387290857Y-61988000D01*
X387219428Y-62059428D01*
X387148000Y-62202285D01*
X387148000Y-62416571D01*
X387219428Y-62559428D01*
X387290857Y-62630857D01*
X387433714Y-62702285D01*
X388005142Y-62702285D01*
X386505142Y-63416571D02*
X386505142Y-61916571D01*
X385790857Y-63416571D02*
X385790857Y-61916571D01*
X385219428Y-61916571D01*
X385076571Y-61988000D01*
X385005142Y-62059428D01*
X384933714Y-62202285D01*
X384933714Y-62416571D01*
X385005142Y-62559428D01*
X385076571Y-62630857D01*
X385219428Y-62702285D01*
X385790857Y-62702285D01*
%LPC*%
D11*
X84582000Y-66304000D03*
X84582000Y-63764000D03*
X84582000Y-61224000D03*
D12*
X84582000Y-58684000D03*
M02*
