G04 #@! TF.GenerationSoftware,KiCad,Pcbnew,(6.0.6)*
G04 #@! TF.CreationDate,2022-11-08T17:29:06-05:00*
G04 #@! TF.ProjectId,pov_display,706f765f-6469-4737-906c-61792e6b6963,v01*
G04 #@! TF.SameCoordinates,Original*
G04 #@! TF.FileFunction,Soldermask,Top*
G04 #@! TF.FilePolarity,Negative*
%FSLAX46Y46*%
G04 Gerber Fmt 4.6, Leading zero omitted, Abs format (unit mm)*
G04 Created by KiCad (PCBNEW (6.0.6)) date 2022-11-08 17:29:06*
%MOMM*%
%LPD*%
G01*
G04 APERTURE LIST*
G04 Aperture macros list*
%AMRoundRect*
0 Rectangle with rounded corners*
0 $1 Rounding radius*
0 $2 $3 $4 $5 $6 $7 $8 $9 X,Y pos of 4 corners*
0 Add a 4 corners polygon primitive as box body*
4,1,4,$2,$3,$4,$5,$6,$7,$8,$9,$2,$3,0*
0 Add four circle primitives for the rounded corners*
1,1,$1+$1,$2,$3*
1,1,$1+$1,$4,$5*
1,1,$1+$1,$6,$7*
1,1,$1+$1,$8,$9*
0 Add four rect primitives between the rounded corners*
20,1,$1+$1,$2,$3,$4,$5,0*
20,1,$1+$1,$4,$5,$6,$7,0*
20,1,$1+$1,$6,$7,$8,$9,0*
20,1,$1+$1,$8,$9,$2,$3,0*%
G04 Aperture macros list end*
%ADD10RoundRect,0.050800X1.000000X-0.550000X1.000000X0.550000X-1.000000X0.550000X-1.000000X-0.550000X0*%
%ADD11O,1.801600X1.801600*%
%ADD12RoundRect,0.050800X-0.850000X-0.850000X0.850000X-0.850000X0.850000X0.850000X-0.850000X0.850000X0*%
G04 APERTURE END LIST*
D10*
X104254000Y-60784000D03*
X104254000Y-62484000D03*
X104254000Y-64184000D03*
X99454000Y-64184000D03*
X99454000Y-62484000D03*
X99454000Y-60784000D03*
X249034000Y-60784000D03*
X249034000Y-62484000D03*
X249034000Y-64184000D03*
X244234000Y-64184000D03*
X244234000Y-62484000D03*
X244234000Y-60784000D03*
X226174000Y-60784000D03*
X226174000Y-62484000D03*
X226174000Y-64184000D03*
X221374000Y-64184000D03*
X221374000Y-62484000D03*
X221374000Y-60784000D03*
X203314000Y-60784000D03*
X203314000Y-62484000D03*
X203314000Y-64184000D03*
X198514000Y-64184000D03*
X198514000Y-62484000D03*
X198514000Y-60784000D03*
X348094000Y-60784000D03*
X348094000Y-62484000D03*
X348094000Y-64184000D03*
X343294000Y-64184000D03*
X343294000Y-62484000D03*
X343294000Y-60784000D03*
X294754000Y-60784000D03*
X294754000Y-62484000D03*
X294754000Y-64184000D03*
X289954000Y-64184000D03*
X289954000Y-62484000D03*
X289954000Y-60784000D03*
X233794000Y-60784000D03*
X233794000Y-62484000D03*
X233794000Y-64184000D03*
X228994000Y-64184000D03*
X228994000Y-62484000D03*
X228994000Y-60784000D03*
X96634000Y-60784000D03*
X96634000Y-62484000D03*
X96634000Y-64184000D03*
X91834000Y-64184000D03*
X91834000Y-62484000D03*
X91834000Y-60784000D03*
X149974000Y-60784000D03*
X149974000Y-62484000D03*
X149974000Y-64184000D03*
X145174000Y-64184000D03*
X145174000Y-62484000D03*
X145174000Y-60784000D03*
X287134000Y-60784000D03*
X287134000Y-62484000D03*
X287134000Y-64184000D03*
X282334000Y-64184000D03*
X282334000Y-62484000D03*
X282334000Y-60784000D03*
X188074000Y-60784000D03*
X188074000Y-62484000D03*
X188074000Y-64184000D03*
X183274000Y-64184000D03*
X183274000Y-62484000D03*
X183274000Y-60784000D03*
X370954000Y-60784000D03*
X370954000Y-62484000D03*
X370954000Y-64184000D03*
X366154000Y-64184000D03*
X366154000Y-62484000D03*
X366154000Y-60784000D03*
X172834000Y-60784000D03*
X172834000Y-62484000D03*
X172834000Y-64184000D03*
X168034000Y-64184000D03*
X168034000Y-62484000D03*
X168034000Y-60784000D03*
X218554000Y-60784000D03*
X218554000Y-62484000D03*
X218554000Y-64184000D03*
X213754000Y-64184000D03*
X213754000Y-62484000D03*
X213754000Y-60784000D03*
X264274000Y-60784000D03*
X264274000Y-62484000D03*
X264274000Y-64184000D03*
X259474000Y-64184000D03*
X259474000Y-62484000D03*
X259474000Y-60784000D03*
X157594000Y-60784000D03*
X157594000Y-62484000D03*
X157594000Y-64184000D03*
X152794000Y-64184000D03*
X152794000Y-62484000D03*
X152794000Y-60784000D03*
X165214000Y-60784000D03*
X165214000Y-62484000D03*
X165214000Y-64184000D03*
X160414000Y-64184000D03*
X160414000Y-62484000D03*
X160414000Y-60784000D03*
X134734000Y-60784000D03*
X134734000Y-62484000D03*
X134734000Y-64184000D03*
X129934000Y-64184000D03*
X129934000Y-62484000D03*
X129934000Y-60784000D03*
X256654000Y-60784000D03*
X256654000Y-62484000D03*
X256654000Y-64184000D03*
X251854000Y-64184000D03*
X251854000Y-62484000D03*
X251854000Y-60784000D03*
X180454000Y-60784000D03*
X180454000Y-62484000D03*
X180454000Y-64184000D03*
X175654000Y-64184000D03*
X175654000Y-62484000D03*
X175654000Y-60784000D03*
X378574000Y-60784000D03*
X378574000Y-62484000D03*
X378574000Y-64184000D03*
X373774000Y-64184000D03*
X373774000Y-62484000D03*
X373774000Y-60784000D03*
X195694000Y-60784000D03*
X195694000Y-62484000D03*
X195694000Y-64184000D03*
X190894000Y-64184000D03*
X190894000Y-62484000D03*
X190894000Y-60784000D03*
X340474000Y-60784000D03*
X340474000Y-62484000D03*
X340474000Y-64184000D03*
X335674000Y-64184000D03*
X335674000Y-62484000D03*
X335674000Y-60784000D03*
X210934000Y-60784000D03*
X210934000Y-62484000D03*
X210934000Y-64184000D03*
X206134000Y-64184000D03*
X206134000Y-62484000D03*
X206134000Y-60784000D03*
X355714000Y-60784000D03*
X355714000Y-62484000D03*
X355714000Y-64184000D03*
X350914000Y-64184000D03*
X350914000Y-62484000D03*
X350914000Y-60784000D03*
X325234000Y-60784000D03*
X325234000Y-62484000D03*
X325234000Y-64184000D03*
X320434000Y-64184000D03*
X320434000Y-62484000D03*
X320434000Y-60784000D03*
X241414000Y-60784000D03*
X241414000Y-62484000D03*
X241414000Y-64184000D03*
X236614000Y-64184000D03*
X236614000Y-62484000D03*
X236614000Y-60784000D03*
X332854000Y-60784000D03*
X332854000Y-62484000D03*
X332854000Y-64184000D03*
X328054000Y-64184000D03*
X328054000Y-62484000D03*
X328054000Y-60784000D03*
X393814000Y-60784000D03*
X393814000Y-62484000D03*
X393814000Y-64184000D03*
X389014000Y-64184000D03*
X389014000Y-62484000D03*
X389014000Y-60784000D03*
D11*
X84582000Y-66304000D03*
X84582000Y-63764000D03*
X84582000Y-61224000D03*
D12*
X84582000Y-58684000D03*
D10*
X363334000Y-60784000D03*
X363334000Y-62484000D03*
X363334000Y-64184000D03*
X358534000Y-64184000D03*
X358534000Y-62484000D03*
X358534000Y-60784000D03*
X127114000Y-60784000D03*
X127114000Y-62484000D03*
X127114000Y-64184000D03*
X122314000Y-64184000D03*
X122314000Y-62484000D03*
X122314000Y-60784000D03*
X309994000Y-60784000D03*
X309994000Y-62484000D03*
X309994000Y-64184000D03*
X305194000Y-64184000D03*
X305194000Y-62484000D03*
X305194000Y-60784000D03*
X317614000Y-60784000D03*
X317614000Y-62484000D03*
X317614000Y-64184000D03*
X312814000Y-64184000D03*
X312814000Y-62484000D03*
X312814000Y-60784000D03*
X302374000Y-60784000D03*
X302374000Y-62484000D03*
X302374000Y-64184000D03*
X297574000Y-64184000D03*
X297574000Y-62484000D03*
X297574000Y-60784000D03*
X271894000Y-60784000D03*
X271894000Y-62484000D03*
X271894000Y-64184000D03*
X267094000Y-64184000D03*
X267094000Y-62484000D03*
X267094000Y-60784000D03*
X111874000Y-60784000D03*
X111874000Y-62484000D03*
X111874000Y-64184000D03*
X107074000Y-64184000D03*
X107074000Y-62484000D03*
X107074000Y-60784000D03*
X386334000Y-60784000D03*
X386334000Y-62484000D03*
X386334000Y-64184000D03*
X381534000Y-64184000D03*
X381534000Y-62484000D03*
X381534000Y-60784000D03*
X142354000Y-60784000D03*
X142354000Y-62484000D03*
X142354000Y-64184000D03*
X137554000Y-64184000D03*
X137554000Y-62484000D03*
X137554000Y-60784000D03*
X279514000Y-60784000D03*
X279514000Y-62484000D03*
X279514000Y-64184000D03*
X274714000Y-64184000D03*
X274714000Y-62484000D03*
X274714000Y-60784000D03*
X119494000Y-60784000D03*
X119494000Y-62484000D03*
X119494000Y-64184000D03*
X114694000Y-64184000D03*
X114694000Y-62484000D03*
X114694000Y-60784000D03*
M02*
