%FSLAX45Y45*%
G04 Gerber Fmt 4.5, Leading zero omitted, Abs format (unit mm)*
G04 Created by KiCad (PCBNEW (6.0.6)) date 2022-11-10 16:32:23*
%MOMM*%
%LPD*%
G01*
G04 APERTURE LIST*
%TA.AperFunction,Profile*%
%ADD10C,0.025400*%
%TD*%
%TA.AperFunction,Profile*%
%ADD11C,3.213100*%
%TD*%
%ADD12C,0.200000*%
G04 APERTURE END LIST*
D10*
X8238127Y-5612452D02*
G75*
G03*
X8209672Y-6942810I-503371J-654717D01*
G01*
D11*
X40933127Y-6257010D02*
G75*
G03*
X40933127Y-6257010I-160655J0D01*
G01*
D10*
X9403472Y-5622010D02*
X9682872Y-5876010D01*
X40264473Y-6638010D02*
G75*
G03*
X40264472Y-5876010I508367J381000D01*
G01*
X8238127Y-5612451D02*
X9403472Y-5622010D01*
X8209672Y-6942810D02*
X9403472Y-6942810D01*
X40264472Y-6638010D02*
X9733672Y-6663410D01*
D11*
X7902967Y-6257010D02*
G75*
G03*
X7902967Y-6257010I-160655J0D01*
G01*
D10*
X9733672Y-6663410D02*
X9403472Y-6942810D01*
X9682872Y-5876010D02*
X40264472Y-5876010D01*
D12*
X7165250Y-7404770D02*
X7165250Y-7204770D01*
X7212869Y-7204770D01*
X7241440Y-7214294D01*
X7260488Y-7233342D01*
X7270012Y-7252389D01*
X7279535Y-7290485D01*
X7279535Y-7319056D01*
X7270012Y-7357151D01*
X7260488Y-7376199D01*
X7241440Y-7395246D01*
X7212869Y-7404770D01*
X7165250Y-7404770D01*
X7365250Y-7404770D02*
X7365250Y-7271437D01*
X7365250Y-7309532D02*
X7374774Y-7290485D01*
X7384297Y-7280961D01*
X7403345Y-7271437D01*
X7422393Y-7271437D01*
X7489059Y-7404770D02*
X7489059Y-7271437D01*
X7489059Y-7204770D02*
X7479535Y-7214294D01*
X7489059Y-7223818D01*
X7498583Y-7214294D01*
X7489059Y-7204770D01*
X7489059Y-7223818D01*
X7612869Y-7404770D02*
X7593821Y-7395246D01*
X7584297Y-7376199D01*
X7584297Y-7204770D01*
X7717631Y-7404770D02*
X7698583Y-7395246D01*
X7689059Y-7376199D01*
X7689059Y-7204770D01*
X7946202Y-7404770D02*
X7946202Y-7204770D01*
X8012869Y-7347627D01*
X8079535Y-7204770D01*
X8079535Y-7404770D01*
X8260488Y-7404770D02*
X8260488Y-7300008D01*
X8250964Y-7280961D01*
X8231916Y-7271437D01*
X8193821Y-7271437D01*
X8174774Y-7280961D01*
X8260488Y-7395246D02*
X8241440Y-7404770D01*
X8193821Y-7404770D01*
X8174774Y-7395246D01*
X8165250Y-7376199D01*
X8165250Y-7357151D01*
X8174774Y-7338104D01*
X8193821Y-7328580D01*
X8241440Y-7328580D01*
X8260488Y-7319056D01*
X8355726Y-7271437D02*
X8355726Y-7471437D01*
X8355726Y-7280961D02*
X8374774Y-7271437D01*
X8412869Y-7271437D01*
X8431917Y-7280961D01*
X8441440Y-7290485D01*
X8450964Y-7309532D01*
X8450964Y-7366675D01*
X8441440Y-7385723D01*
X8431917Y-7395246D01*
X8412869Y-7404770D01*
X8374774Y-7404770D01*
X8355726Y-7395246D01*
X8536678Y-7385723D02*
X8546202Y-7395246D01*
X8536678Y-7404770D01*
X8527155Y-7395246D01*
X8536678Y-7385723D01*
X8536678Y-7404770D01*
X8536678Y-7280961D02*
X8546202Y-7290485D01*
X8536678Y-7300008D01*
X8527155Y-7290485D01*
X8536678Y-7280961D01*
X8536678Y-7300008D01*
M02*
