%FSLAX45Y45*%
G04 Gerber Fmt 4.5, Leading zero omitted, Abs format (unit mm)*
G04 Created by KiCad (PCBNEW (6.0.6)) date 2022-11-08 17:00:56*
%MOMM*%
%LPD*%
G01*
G04 APERTURE LIST*
%TA.AperFunction,Profile*%
%ADD10C,0.025400*%
%TD*%
%ADD11C,0.200000*%
%ADD12C,0.150000*%
%ADD13C,0.180000*%
G04 APERTURE END LIST*
D10*
X7914640Y-14376400D02*
G75*
G03*
X7914640Y-14376400I-320040J0D01*
G01*
X7914640Y-13233400D02*
G75*
G03*
X7914640Y-13233400I-320040J0D01*
G01*
X4041655Y-5451441D02*
G75*
G03*
X4053840Y-6731000I-495559J-644557D01*
G01*
X3865880Y-6096000D02*
G75*
G03*
X3865880Y-6096000I-320040J0D01*
G01*
X5486400Y-6502400D02*
X5207000Y-6731000D01*
X5207000Y-5461000D02*
X5486400Y-5715000D01*
X36068000Y-6477000D02*
G75*
G03*
X36068000Y-5715000I508368J381000D01*
G01*
X36896040Y-6096000D02*
G75*
G03*
X36896040Y-6096000I-320040J0D01*
G01*
X5207000Y-6731000D02*
X4053840Y-6731000D01*
X36068000Y-6477000D02*
X5486400Y-6502400D01*
X5486400Y-5715000D02*
X36068000Y-5715000D01*
X4041655Y-5451441D02*
X5207000Y-5461000D01*
X2616200Y-10058400D02*
X8331200Y-10058400D01*
X8331200Y-10058400D02*
X8331200Y-16205200D01*
X8331200Y-16205200D02*
X2616200Y-16205200D01*
X2616200Y-16205200D02*
X2616200Y-10058400D01*
D11*
D12*
X5118100Y-10680400D02*
X5268100Y-10830400D01*
X5268100Y-10680400D02*
X5118100Y-10830400D01*
X5603100Y-10680400D02*
X5753100Y-10830400D01*
X5753100Y-10680400D02*
X5603100Y-10830400D01*
D13*
X5253100Y-10452400D02*
G75*
G03*
X5253100Y-10452400I-90000J0D01*
G01*
X5798100Y-10452400D02*
G75*
G03*
X5798100Y-10452400I-90000J0D01*
G01*
D11*
X2872549Y-16516946D02*
X2872549Y-16316946D01*
X2920168Y-16316946D01*
X2948739Y-16326470D01*
X2967787Y-16345518D01*
X2977311Y-16364565D01*
X2986835Y-16402660D01*
X2986835Y-16431232D01*
X2977311Y-16469327D01*
X2967787Y-16488375D01*
X2948739Y-16507422D01*
X2920168Y-16516946D01*
X2872549Y-16516946D01*
X3072549Y-16516946D02*
X3072549Y-16383613D01*
X3072549Y-16421708D02*
X3082073Y-16402660D01*
X3091597Y-16393137D01*
X3110644Y-16383613D01*
X3129692Y-16383613D01*
X3196358Y-16516946D02*
X3196358Y-16383613D01*
X3196358Y-16316946D02*
X3186835Y-16326470D01*
X3196358Y-16335994D01*
X3205882Y-16326470D01*
X3196358Y-16316946D01*
X3196358Y-16335994D01*
X3320168Y-16516946D02*
X3301120Y-16507422D01*
X3291597Y-16488375D01*
X3291597Y-16316946D01*
X3424930Y-16516946D02*
X3405882Y-16507422D01*
X3396358Y-16488375D01*
X3396358Y-16316946D01*
X3653501Y-16516946D02*
X3653501Y-16316946D01*
X3720168Y-16459803D01*
X3786835Y-16316946D01*
X3786835Y-16516946D01*
X3967787Y-16516946D02*
X3967787Y-16412184D01*
X3958263Y-16393137D01*
X3939216Y-16383613D01*
X3901120Y-16383613D01*
X3882073Y-16393137D01*
X3967787Y-16507422D02*
X3948739Y-16516946D01*
X3901120Y-16516946D01*
X3882073Y-16507422D01*
X3872549Y-16488375D01*
X3872549Y-16469327D01*
X3882073Y-16450279D01*
X3901120Y-16440756D01*
X3948739Y-16440756D01*
X3967787Y-16431232D01*
X4063025Y-16383613D02*
X4063025Y-16583613D01*
X4063025Y-16393137D02*
X4082073Y-16383613D01*
X4120168Y-16383613D01*
X4139216Y-16393137D01*
X4148739Y-16402660D01*
X4158263Y-16421708D01*
X4158263Y-16478851D01*
X4148739Y-16497898D01*
X4139216Y-16507422D01*
X4120168Y-16516946D01*
X4082073Y-16516946D01*
X4063025Y-16507422D01*
X4243978Y-16497898D02*
X4253501Y-16507422D01*
X4243978Y-16516946D01*
X4234454Y-16507422D01*
X4243978Y-16497898D01*
X4243978Y-16516946D01*
X4243978Y-16393137D02*
X4253501Y-16402660D01*
X4243978Y-16412184D01*
X4234454Y-16402660D01*
X4243978Y-16393137D01*
X4243978Y-16412184D01*
D12*
X2464930Y-16771470D02*
X2614930Y-16921470D01*
X2614930Y-16771470D02*
X2464930Y-16921470D01*
D11*
X2977311Y-16936946D02*
X2863025Y-16936946D01*
X2920168Y-16936946D02*
X2920168Y-16736946D01*
X2901120Y-16765518D01*
X2882073Y-16784565D01*
X2863025Y-16794089D01*
X3063025Y-16917899D02*
X3072549Y-16927422D01*
X3063025Y-16936946D01*
X3053501Y-16927422D01*
X3063025Y-16917899D01*
X3063025Y-16936946D01*
X3253501Y-16736946D02*
X3158263Y-16736946D01*
X3148739Y-16832184D01*
X3158263Y-16822660D01*
X3177311Y-16813137D01*
X3224930Y-16813137D01*
X3243978Y-16822660D01*
X3253501Y-16832184D01*
X3263025Y-16851232D01*
X3263025Y-16898851D01*
X3253501Y-16917899D01*
X3243978Y-16927422D01*
X3224930Y-16936946D01*
X3177311Y-16936946D01*
X3158263Y-16927422D01*
X3148739Y-16917899D01*
X3386835Y-16736946D02*
X3405882Y-16736946D01*
X3424930Y-16746470D01*
X3434454Y-16755994D01*
X3443978Y-16775041D01*
X3453501Y-16813137D01*
X3453501Y-16860756D01*
X3443978Y-16898851D01*
X3434454Y-16917899D01*
X3424930Y-16927422D01*
X3405882Y-16936946D01*
X3386835Y-16936946D01*
X3367787Y-16927422D01*
X3358263Y-16917899D01*
X3348739Y-16898851D01*
X3339216Y-16860756D01*
X3339216Y-16813137D01*
X3348739Y-16775041D01*
X3358263Y-16755994D01*
X3367787Y-16746470D01*
X3386835Y-16736946D01*
X3577311Y-16736946D02*
X3596358Y-16736946D01*
X3615406Y-16746470D01*
X3624930Y-16755994D01*
X3634454Y-16775041D01*
X3643978Y-16813137D01*
X3643978Y-16860756D01*
X3634454Y-16898851D01*
X3624930Y-16917899D01*
X3615406Y-16927422D01*
X3596358Y-16936946D01*
X3577311Y-16936946D01*
X3558263Y-16927422D01*
X3548739Y-16917899D01*
X3539216Y-16898851D01*
X3529692Y-16860756D01*
X3529692Y-16813137D01*
X3539216Y-16775041D01*
X3548739Y-16755994D01*
X3558263Y-16746470D01*
X3577311Y-16736946D01*
X3729692Y-16936946D02*
X3729692Y-16803613D01*
X3729692Y-16822660D02*
X3739216Y-16813137D01*
X3758263Y-16803613D01*
X3786835Y-16803613D01*
X3805882Y-16813137D01*
X3815406Y-16832184D01*
X3815406Y-16936946D01*
X3815406Y-16832184D02*
X3824930Y-16813137D01*
X3843978Y-16803613D01*
X3872549Y-16803613D01*
X3891597Y-16813137D01*
X3901120Y-16832184D01*
X3901120Y-16936946D01*
X3996358Y-16936946D02*
X3996358Y-16803613D01*
X3996358Y-16822660D02*
X4005882Y-16813137D01*
X4024930Y-16803613D01*
X4053501Y-16803613D01*
X4072549Y-16813137D01*
X4082073Y-16832184D01*
X4082073Y-16936946D01*
X4082073Y-16832184D02*
X4091597Y-16813137D01*
X4110644Y-16803613D01*
X4139216Y-16803613D01*
X4158263Y-16813137D01*
X4167787Y-16832184D01*
X4167787Y-16936946D01*
X4558263Y-16727422D02*
X4386835Y-16984565D01*
X4815406Y-16736946D02*
X4834454Y-16736946D01*
X4853501Y-16746470D01*
X4863025Y-16755994D01*
X4872549Y-16775041D01*
X4882073Y-16813137D01*
X4882073Y-16860756D01*
X4872549Y-16898851D01*
X4863025Y-16917899D01*
X4853501Y-16927422D01*
X4834454Y-16936946D01*
X4815406Y-16936946D01*
X4796359Y-16927422D01*
X4786835Y-16917899D01*
X4777311Y-16898851D01*
X4767787Y-16860756D01*
X4767787Y-16813137D01*
X4777311Y-16775041D01*
X4786835Y-16755994D01*
X4796359Y-16746470D01*
X4815406Y-16736946D01*
X4967787Y-16917899D02*
X4977311Y-16927422D01*
X4967787Y-16936946D01*
X4958263Y-16927422D01*
X4967787Y-16917899D01*
X4967787Y-16936946D01*
X5101120Y-16736946D02*
X5120168Y-16736946D01*
X5139216Y-16746470D01*
X5148740Y-16755994D01*
X5158263Y-16775041D01*
X5167787Y-16813137D01*
X5167787Y-16860756D01*
X5158263Y-16898851D01*
X5148740Y-16917899D01*
X5139216Y-16927422D01*
X5120168Y-16936946D01*
X5101120Y-16936946D01*
X5082073Y-16927422D01*
X5072549Y-16917899D01*
X5063025Y-16898851D01*
X5053501Y-16860756D01*
X5053501Y-16813137D01*
X5063025Y-16775041D01*
X5072549Y-16755994D01*
X5082073Y-16746470D01*
X5101120Y-16736946D01*
X5348740Y-16736946D02*
X5253501Y-16736946D01*
X5243978Y-16832184D01*
X5253501Y-16822660D01*
X5272549Y-16813137D01*
X5320168Y-16813137D01*
X5339216Y-16822660D01*
X5348740Y-16832184D01*
X5358263Y-16851232D01*
X5358263Y-16898851D01*
X5348740Y-16917899D01*
X5339216Y-16927422D01*
X5320168Y-16936946D01*
X5272549Y-16936946D01*
X5253501Y-16927422D01*
X5243978Y-16917899D01*
X5453501Y-16936946D02*
X5491597Y-16936946D01*
X5510644Y-16927422D01*
X5520168Y-16917899D01*
X5539216Y-16889327D01*
X5548740Y-16851232D01*
X5548740Y-16775041D01*
X5539216Y-16755994D01*
X5529692Y-16746470D01*
X5510644Y-16736946D01*
X5472549Y-16736946D01*
X5453501Y-16746470D01*
X5443978Y-16755994D01*
X5434454Y-16775041D01*
X5434454Y-16822660D01*
X5443978Y-16841708D01*
X5453501Y-16851232D01*
X5472549Y-16860756D01*
X5510644Y-16860756D01*
X5529692Y-16851232D01*
X5539216Y-16841708D01*
X5548740Y-16822660D01*
X5739216Y-16936946D02*
X5624930Y-16936946D01*
X5682073Y-16936946D02*
X5682073Y-16736946D01*
X5663025Y-16765518D01*
X5643978Y-16784565D01*
X5624930Y-16794089D01*
X5815406Y-16736946D02*
X5815406Y-16775041D01*
X5891597Y-16736946D02*
X5891597Y-16775041D01*
X6186835Y-17013137D02*
X6177311Y-17003613D01*
X6158263Y-16975041D01*
X6148739Y-16955994D01*
X6139216Y-16927422D01*
X6129692Y-16879803D01*
X6129692Y-16841708D01*
X6139216Y-16794089D01*
X6148739Y-16765518D01*
X6158263Y-16746470D01*
X6177311Y-16717898D01*
X6186835Y-16708375D01*
X6253501Y-16755994D02*
X6263025Y-16746470D01*
X6282073Y-16736946D01*
X6329692Y-16736946D01*
X6348739Y-16746470D01*
X6358263Y-16755994D01*
X6367787Y-16775041D01*
X6367787Y-16794089D01*
X6358263Y-16822660D01*
X6243978Y-16936946D01*
X6367787Y-16936946D01*
X6605882Y-16936946D02*
X6605882Y-16736946D01*
X6691597Y-16936946D02*
X6691597Y-16832184D01*
X6682073Y-16813137D01*
X6663025Y-16803613D01*
X6634454Y-16803613D01*
X6615406Y-16813137D01*
X6605882Y-16822660D01*
X6815406Y-16936946D02*
X6796358Y-16927422D01*
X6786835Y-16917899D01*
X6777311Y-16898851D01*
X6777311Y-16841708D01*
X6786835Y-16822660D01*
X6796358Y-16813137D01*
X6815406Y-16803613D01*
X6843978Y-16803613D01*
X6863025Y-16813137D01*
X6872549Y-16822660D01*
X6882073Y-16841708D01*
X6882073Y-16898851D01*
X6872549Y-16917899D01*
X6863025Y-16927422D01*
X6843978Y-16936946D01*
X6815406Y-16936946D01*
X6996358Y-16936946D02*
X6977311Y-16927422D01*
X6967787Y-16908375D01*
X6967787Y-16736946D01*
X7148739Y-16927422D02*
X7129692Y-16936946D01*
X7091597Y-16936946D01*
X7072549Y-16927422D01*
X7063025Y-16908375D01*
X7063025Y-16832184D01*
X7072549Y-16813137D01*
X7091597Y-16803613D01*
X7129692Y-16803613D01*
X7148739Y-16813137D01*
X7158263Y-16832184D01*
X7158263Y-16851232D01*
X7063025Y-16870280D01*
X7234454Y-16927422D02*
X7253501Y-16936946D01*
X7291597Y-16936946D01*
X7310644Y-16927422D01*
X7320168Y-16908375D01*
X7320168Y-16898851D01*
X7310644Y-16879803D01*
X7291597Y-16870280D01*
X7263025Y-16870280D01*
X7243978Y-16860756D01*
X7234454Y-16841708D01*
X7234454Y-16832184D01*
X7243978Y-16813137D01*
X7263025Y-16803613D01*
X7291597Y-16803613D01*
X7310644Y-16813137D01*
X7386835Y-17013137D02*
X7396358Y-17003613D01*
X7415406Y-16975041D01*
X7424930Y-16955994D01*
X7434454Y-16927422D01*
X7443978Y-16879803D01*
X7443978Y-16841708D01*
X7434454Y-16794089D01*
X7424930Y-16765518D01*
X7415406Y-16746470D01*
X7396358Y-16717898D01*
X7386835Y-16708375D01*
X7748739Y-17013137D02*
X7739216Y-17003613D01*
X7720168Y-16975041D01*
X7710644Y-16955994D01*
X7701120Y-16927422D01*
X7691597Y-16879803D01*
X7691597Y-16841708D01*
X7701120Y-16794089D01*
X7710644Y-16765518D01*
X7720168Y-16746470D01*
X7739216Y-16717898D01*
X7748739Y-16708375D01*
X7824930Y-16803613D02*
X7824930Y-16936946D01*
X7824930Y-16822660D02*
X7834454Y-16813137D01*
X7853501Y-16803613D01*
X7882073Y-16803613D01*
X7901120Y-16813137D01*
X7910644Y-16832184D01*
X7910644Y-16936946D01*
X8034454Y-16936946D02*
X8015406Y-16927422D01*
X8005882Y-16917899D01*
X7996358Y-16898851D01*
X7996358Y-16841708D01*
X8005882Y-16822660D01*
X8015406Y-16813137D01*
X8034454Y-16803613D01*
X8063025Y-16803613D01*
X8082073Y-16813137D01*
X8091597Y-16822660D01*
X8101120Y-16841708D01*
X8101120Y-16898851D01*
X8091597Y-16917899D01*
X8082073Y-16927422D01*
X8063025Y-16936946D01*
X8034454Y-16936946D01*
X8158263Y-16803613D02*
X8234454Y-16803613D01*
X8186835Y-16736946D02*
X8186835Y-16908375D01*
X8196358Y-16927422D01*
X8215406Y-16936946D01*
X8234454Y-16936946D01*
X8453501Y-16803613D02*
X8453501Y-17003613D01*
X8453501Y-16813137D02*
X8472549Y-16803613D01*
X8510644Y-16803613D01*
X8529692Y-16813137D01*
X8539216Y-16822660D01*
X8548740Y-16841708D01*
X8548740Y-16898851D01*
X8539216Y-16917899D01*
X8529692Y-16927422D01*
X8510644Y-16936946D01*
X8472549Y-16936946D01*
X8453501Y-16927422D01*
X8663025Y-16936946D02*
X8643978Y-16927422D01*
X8634454Y-16908375D01*
X8634454Y-16736946D01*
X8824930Y-16936946D02*
X8824930Y-16832184D01*
X8815406Y-16813137D01*
X8796359Y-16803613D01*
X8758263Y-16803613D01*
X8739216Y-16813137D01*
X8824930Y-16927422D02*
X8805882Y-16936946D01*
X8758263Y-16936946D01*
X8739216Y-16927422D01*
X8729692Y-16908375D01*
X8729692Y-16889327D01*
X8739216Y-16870280D01*
X8758263Y-16860756D01*
X8805882Y-16860756D01*
X8824930Y-16851232D01*
X8891597Y-16803613D02*
X8967787Y-16803613D01*
X8920168Y-16736946D02*
X8920168Y-16908375D01*
X8929692Y-16927422D01*
X8948740Y-16936946D01*
X8967787Y-16936946D01*
X9110644Y-16927422D02*
X9091597Y-16936946D01*
X9053501Y-16936946D01*
X9034454Y-16927422D01*
X9024930Y-16908375D01*
X9024930Y-16832184D01*
X9034454Y-16813137D01*
X9053501Y-16803613D01*
X9091597Y-16803613D01*
X9110644Y-16813137D01*
X9120168Y-16832184D01*
X9120168Y-16851232D01*
X9024930Y-16870280D01*
X9291597Y-16936946D02*
X9291597Y-16736946D01*
X9291597Y-16927422D02*
X9272549Y-16936946D01*
X9234454Y-16936946D01*
X9215406Y-16927422D01*
X9205882Y-16917899D01*
X9196359Y-16898851D01*
X9196359Y-16841708D01*
X9205882Y-16822660D01*
X9215406Y-16813137D01*
X9234454Y-16803613D01*
X9272549Y-16803613D01*
X9291597Y-16813137D01*
X9367787Y-17013137D02*
X9377311Y-17003613D01*
X9396359Y-16975041D01*
X9405882Y-16955994D01*
X9415406Y-16927422D01*
X9424930Y-16879803D01*
X9424930Y-16841708D01*
X9415406Y-16794089D01*
X9405882Y-16765518D01*
X9396359Y-16746470D01*
X9377311Y-16717898D01*
X9367787Y-16708375D01*
D13*
X2614930Y-17116470D02*
G75*
G03*
X2614930Y-17116470I-90000J0D01*
G01*
D11*
X2977311Y-17206946D02*
X2863025Y-17206946D01*
X2920168Y-17206946D02*
X2920168Y-17006946D01*
X2901120Y-17035518D01*
X2882073Y-17054565D01*
X2863025Y-17064089D01*
X3063025Y-17187899D02*
X3072549Y-17197422D01*
X3063025Y-17206946D01*
X3053501Y-17197422D01*
X3063025Y-17187899D01*
X3063025Y-17206946D01*
X3186835Y-17092660D02*
X3167787Y-17083137D01*
X3158263Y-17073613D01*
X3148739Y-17054565D01*
X3148739Y-17045041D01*
X3158263Y-17025994D01*
X3167787Y-17016470D01*
X3186835Y-17006946D01*
X3224930Y-17006946D01*
X3243978Y-17016470D01*
X3253501Y-17025994D01*
X3263025Y-17045041D01*
X3263025Y-17054565D01*
X3253501Y-17073613D01*
X3243978Y-17083137D01*
X3224930Y-17092660D01*
X3186835Y-17092660D01*
X3167787Y-17102184D01*
X3158263Y-17111708D01*
X3148739Y-17130756D01*
X3148739Y-17168851D01*
X3158263Y-17187899D01*
X3167787Y-17197422D01*
X3186835Y-17206946D01*
X3224930Y-17206946D01*
X3243978Y-17197422D01*
X3253501Y-17187899D01*
X3263025Y-17168851D01*
X3263025Y-17130756D01*
X3253501Y-17111708D01*
X3243978Y-17102184D01*
X3224930Y-17092660D01*
X3386835Y-17006946D02*
X3405882Y-17006946D01*
X3424930Y-17016470D01*
X3434454Y-17025994D01*
X3443978Y-17045041D01*
X3453501Y-17083137D01*
X3453501Y-17130756D01*
X3443978Y-17168851D01*
X3434454Y-17187899D01*
X3424930Y-17197422D01*
X3405882Y-17206946D01*
X3386835Y-17206946D01*
X3367787Y-17197422D01*
X3358263Y-17187899D01*
X3348739Y-17168851D01*
X3339216Y-17130756D01*
X3339216Y-17083137D01*
X3348739Y-17045041D01*
X3358263Y-17025994D01*
X3367787Y-17016470D01*
X3386835Y-17006946D01*
X3577311Y-17006946D02*
X3596358Y-17006946D01*
X3615406Y-17016470D01*
X3624930Y-17025994D01*
X3634454Y-17045041D01*
X3643978Y-17083137D01*
X3643978Y-17130756D01*
X3634454Y-17168851D01*
X3624930Y-17187899D01*
X3615406Y-17197422D01*
X3596358Y-17206946D01*
X3577311Y-17206946D01*
X3558263Y-17197422D01*
X3548739Y-17187899D01*
X3539216Y-17168851D01*
X3529692Y-17130756D01*
X3529692Y-17083137D01*
X3539216Y-17045041D01*
X3548739Y-17025994D01*
X3558263Y-17016470D01*
X3577311Y-17006946D01*
X3729692Y-17206946D02*
X3729692Y-17073613D01*
X3729692Y-17092660D02*
X3739216Y-17083137D01*
X3758263Y-17073613D01*
X3786835Y-17073613D01*
X3805882Y-17083137D01*
X3815406Y-17102184D01*
X3815406Y-17206946D01*
X3815406Y-17102184D02*
X3824930Y-17083137D01*
X3843978Y-17073613D01*
X3872549Y-17073613D01*
X3891597Y-17083137D01*
X3901120Y-17102184D01*
X3901120Y-17206946D01*
X3996358Y-17206946D02*
X3996358Y-17073613D01*
X3996358Y-17092660D02*
X4005882Y-17083137D01*
X4024930Y-17073613D01*
X4053501Y-17073613D01*
X4072549Y-17083137D01*
X4082073Y-17102184D01*
X4082073Y-17206946D01*
X4082073Y-17102184D02*
X4091597Y-17083137D01*
X4110644Y-17073613D01*
X4139216Y-17073613D01*
X4158263Y-17083137D01*
X4167787Y-17102184D01*
X4167787Y-17206946D01*
X4558263Y-16997422D02*
X4386835Y-17254565D01*
X4815406Y-17006946D02*
X4834454Y-17006946D01*
X4853501Y-17016470D01*
X4863025Y-17025994D01*
X4872549Y-17045041D01*
X4882073Y-17083137D01*
X4882073Y-17130756D01*
X4872549Y-17168851D01*
X4863025Y-17187899D01*
X4853501Y-17197422D01*
X4834454Y-17206946D01*
X4815406Y-17206946D01*
X4796359Y-17197422D01*
X4786835Y-17187899D01*
X4777311Y-17168851D01*
X4767787Y-17130756D01*
X4767787Y-17083137D01*
X4777311Y-17045041D01*
X4786835Y-17025994D01*
X4796359Y-17016470D01*
X4815406Y-17006946D01*
X4967787Y-17187899D02*
X4977311Y-17197422D01*
X4967787Y-17206946D01*
X4958263Y-17197422D01*
X4967787Y-17187899D01*
X4967787Y-17206946D01*
X5101120Y-17006946D02*
X5120168Y-17006946D01*
X5139216Y-17016470D01*
X5148740Y-17025994D01*
X5158263Y-17045041D01*
X5167787Y-17083137D01*
X5167787Y-17130756D01*
X5158263Y-17168851D01*
X5148740Y-17187899D01*
X5139216Y-17197422D01*
X5120168Y-17206946D01*
X5101120Y-17206946D01*
X5082073Y-17197422D01*
X5072549Y-17187899D01*
X5063025Y-17168851D01*
X5053501Y-17130756D01*
X5053501Y-17083137D01*
X5063025Y-17045041D01*
X5072549Y-17025994D01*
X5082073Y-17016470D01*
X5101120Y-17006946D01*
X5234454Y-17006946D02*
X5367787Y-17006946D01*
X5282073Y-17206946D01*
X5482073Y-17006946D02*
X5501120Y-17006946D01*
X5520168Y-17016470D01*
X5529692Y-17025994D01*
X5539216Y-17045041D01*
X5548740Y-17083137D01*
X5548740Y-17130756D01*
X5539216Y-17168851D01*
X5529692Y-17187899D01*
X5520168Y-17197422D01*
X5501120Y-17206946D01*
X5482073Y-17206946D01*
X5463025Y-17197422D01*
X5453501Y-17187899D01*
X5443978Y-17168851D01*
X5434454Y-17130756D01*
X5434454Y-17083137D01*
X5443978Y-17045041D01*
X5453501Y-17025994D01*
X5463025Y-17016470D01*
X5482073Y-17006946D01*
X5643978Y-17206946D02*
X5682073Y-17206946D01*
X5701120Y-17197422D01*
X5710644Y-17187899D01*
X5729692Y-17159327D01*
X5739216Y-17121232D01*
X5739216Y-17045041D01*
X5729692Y-17025994D01*
X5720168Y-17016470D01*
X5701120Y-17006946D01*
X5663025Y-17006946D01*
X5643978Y-17016470D01*
X5634454Y-17025994D01*
X5624930Y-17045041D01*
X5624930Y-17092660D01*
X5634454Y-17111708D01*
X5643978Y-17121232D01*
X5663025Y-17130756D01*
X5701120Y-17130756D01*
X5720168Y-17121232D01*
X5729692Y-17111708D01*
X5739216Y-17092660D01*
X5815406Y-17006946D02*
X5815406Y-17045041D01*
X5891597Y-17006946D02*
X5891597Y-17045041D01*
X6186835Y-17283137D02*
X6177311Y-17273613D01*
X6158263Y-17245041D01*
X6148739Y-17225994D01*
X6139216Y-17197422D01*
X6129692Y-17149803D01*
X6129692Y-17111708D01*
X6139216Y-17064089D01*
X6148739Y-17035518D01*
X6158263Y-17016470D01*
X6177311Y-16987899D01*
X6186835Y-16978375D01*
X6253501Y-17025994D02*
X6263025Y-17016470D01*
X6282073Y-17006946D01*
X6329692Y-17006946D01*
X6348739Y-17016470D01*
X6358263Y-17025994D01*
X6367787Y-17045041D01*
X6367787Y-17064089D01*
X6358263Y-17092660D01*
X6243978Y-17206946D01*
X6367787Y-17206946D01*
X6605882Y-17206946D02*
X6605882Y-17006946D01*
X6691597Y-17206946D02*
X6691597Y-17102184D01*
X6682073Y-17083137D01*
X6663025Y-17073613D01*
X6634454Y-17073613D01*
X6615406Y-17083137D01*
X6605882Y-17092660D01*
X6815406Y-17206946D02*
X6796358Y-17197422D01*
X6786835Y-17187899D01*
X6777311Y-17168851D01*
X6777311Y-17111708D01*
X6786835Y-17092660D01*
X6796358Y-17083137D01*
X6815406Y-17073613D01*
X6843978Y-17073613D01*
X6863025Y-17083137D01*
X6872549Y-17092660D01*
X6882073Y-17111708D01*
X6882073Y-17168851D01*
X6872549Y-17187899D01*
X6863025Y-17197422D01*
X6843978Y-17206946D01*
X6815406Y-17206946D01*
X6996358Y-17206946D02*
X6977311Y-17197422D01*
X6967787Y-17178375D01*
X6967787Y-17006946D01*
X7148739Y-17197422D02*
X7129692Y-17206946D01*
X7091597Y-17206946D01*
X7072549Y-17197422D01*
X7063025Y-17178375D01*
X7063025Y-17102184D01*
X7072549Y-17083137D01*
X7091597Y-17073613D01*
X7129692Y-17073613D01*
X7148739Y-17083137D01*
X7158263Y-17102184D01*
X7158263Y-17121232D01*
X7063025Y-17140280D01*
X7234454Y-17197422D02*
X7253501Y-17206946D01*
X7291597Y-17206946D01*
X7310644Y-17197422D01*
X7320168Y-17178375D01*
X7320168Y-17168851D01*
X7310644Y-17149803D01*
X7291597Y-17140280D01*
X7263025Y-17140280D01*
X7243978Y-17130756D01*
X7234454Y-17111708D01*
X7234454Y-17102184D01*
X7243978Y-17083137D01*
X7263025Y-17073613D01*
X7291597Y-17073613D01*
X7310644Y-17083137D01*
X7386835Y-17283137D02*
X7396358Y-17273613D01*
X7415406Y-17245041D01*
X7424930Y-17225994D01*
X7434454Y-17197422D01*
X7443978Y-17149803D01*
X7443978Y-17111708D01*
X7434454Y-17064089D01*
X7424930Y-17035518D01*
X7415406Y-17016470D01*
X7396358Y-16987899D01*
X7386835Y-16978375D01*
X7748739Y-17283137D02*
X7739216Y-17273613D01*
X7720168Y-17245041D01*
X7710644Y-17225994D01*
X7701120Y-17197422D01*
X7691597Y-17149803D01*
X7691597Y-17111708D01*
X7701120Y-17064089D01*
X7710644Y-17035518D01*
X7720168Y-17016470D01*
X7739216Y-16987899D01*
X7748739Y-16978375D01*
X7824930Y-17073613D02*
X7824930Y-17206946D01*
X7824930Y-17092660D02*
X7834454Y-17083137D01*
X7853501Y-17073613D01*
X7882073Y-17073613D01*
X7901120Y-17083137D01*
X7910644Y-17102184D01*
X7910644Y-17206946D01*
X8034454Y-17206946D02*
X8015406Y-17197422D01*
X8005882Y-17187899D01*
X7996358Y-17168851D01*
X7996358Y-17111708D01*
X8005882Y-17092660D01*
X8015406Y-17083137D01*
X8034454Y-17073613D01*
X8063025Y-17073613D01*
X8082073Y-17083137D01*
X8091597Y-17092660D01*
X8101120Y-17111708D01*
X8101120Y-17168851D01*
X8091597Y-17187899D01*
X8082073Y-17197422D01*
X8063025Y-17206946D01*
X8034454Y-17206946D01*
X8158263Y-17073613D02*
X8234454Y-17073613D01*
X8186835Y-17006946D02*
X8186835Y-17178375D01*
X8196358Y-17197422D01*
X8215406Y-17206946D01*
X8234454Y-17206946D01*
X8453501Y-17073613D02*
X8453501Y-17273613D01*
X8453501Y-17083137D02*
X8472549Y-17073613D01*
X8510644Y-17073613D01*
X8529692Y-17083137D01*
X8539216Y-17092660D01*
X8548740Y-17111708D01*
X8548740Y-17168851D01*
X8539216Y-17187899D01*
X8529692Y-17197422D01*
X8510644Y-17206946D01*
X8472549Y-17206946D01*
X8453501Y-17197422D01*
X8663025Y-17206946D02*
X8643978Y-17197422D01*
X8634454Y-17178375D01*
X8634454Y-17006946D01*
X8824930Y-17206946D02*
X8824930Y-17102184D01*
X8815406Y-17083137D01*
X8796359Y-17073613D01*
X8758263Y-17073613D01*
X8739216Y-17083137D01*
X8824930Y-17197422D02*
X8805882Y-17206946D01*
X8758263Y-17206946D01*
X8739216Y-17197422D01*
X8729692Y-17178375D01*
X8729692Y-17159327D01*
X8739216Y-17140280D01*
X8758263Y-17130756D01*
X8805882Y-17130756D01*
X8824930Y-17121232D01*
X8891597Y-17073613D02*
X8967787Y-17073613D01*
X8920168Y-17006946D02*
X8920168Y-17178375D01*
X8929692Y-17197422D01*
X8948740Y-17206946D01*
X8967787Y-17206946D01*
X9110644Y-17197422D02*
X9091597Y-17206946D01*
X9053501Y-17206946D01*
X9034454Y-17197422D01*
X9024930Y-17178375D01*
X9024930Y-17102184D01*
X9034454Y-17083137D01*
X9053501Y-17073613D01*
X9091597Y-17073613D01*
X9110644Y-17083137D01*
X9120168Y-17102184D01*
X9120168Y-17121232D01*
X9024930Y-17140280D01*
X9291597Y-17206946D02*
X9291597Y-17006946D01*
X9291597Y-17197422D02*
X9272549Y-17206946D01*
X9234454Y-17206946D01*
X9215406Y-17197422D01*
X9205882Y-17187899D01*
X9196359Y-17168851D01*
X9196359Y-17111708D01*
X9205882Y-17092660D01*
X9215406Y-17083137D01*
X9234454Y-17073613D01*
X9272549Y-17073613D01*
X9291597Y-17083137D01*
X9367787Y-17283137D02*
X9377311Y-17273613D01*
X9396359Y-17245041D01*
X9405882Y-17225994D01*
X9415406Y-17197422D01*
X9424930Y-17149803D01*
X9424930Y-17111708D01*
X9415406Y-17064089D01*
X9405882Y-17035518D01*
X9396359Y-17016470D01*
X9377311Y-16987899D01*
X9367787Y-16978375D01*
M02*
