G04 #@! TF.GenerationSoftware,KiCad,Pcbnew,(6.0.6)*
G04 #@! TF.CreationDate,2022-11-08T17:01:43-05:00*
G04 #@! TF.ProjectId,pov_display,706f765f-6469-4737-906c-61792e6b6963,v01*
G04 #@! TF.SameCoordinates,Original*
G04 #@! TF.FileFunction,Copper,L1,Top*
G04 #@! TF.FilePolarity,Positive*
%FSLAX46Y46*%
G04 Gerber Fmt 4.6, Leading zero omitted, Abs format (unit mm)*
G04 Created by KiCad (PCBNEW (6.0.6)) date 2022-11-08 17:01:43*
%MOMM*%
%LPD*%
G01*
G04 APERTURE LIST*
G04 #@! TA.AperFunction,ComponentPad*
%ADD10O,1.700000X1.700000*%
G04 #@! TD*
G04 #@! TA.AperFunction,ComponentPad*
%ADD11R,1.700000X1.700000*%
G04 #@! TD*
G04 #@! TA.AperFunction,SMDPad,CuDef*
%ADD12R,2.000000X1.100000*%
G04 #@! TD*
G04 #@! TA.AperFunction,Conductor*
%ADD13C,0.254000*%
G04 #@! TD*
G04 #@! TA.AperFunction,Conductor*
%ADD14C,1.016000*%
G04 #@! TD*
G04 APERTURE END LIST*
D10*
X48768000Y-64780000D03*
X48768000Y-62240000D03*
X48768000Y-59700000D03*
D11*
X48768000Y-57160000D03*
D12*
X353200000Y-59260000D03*
X353200000Y-60960000D03*
X353200000Y-62660000D03*
X358000000Y-62660000D03*
X358000000Y-60960000D03*
X358000000Y-59260000D03*
X345720000Y-59260000D03*
X345720000Y-60960000D03*
X345720000Y-62660000D03*
X350520000Y-62660000D03*
X350520000Y-60960000D03*
X350520000Y-59260000D03*
X337960000Y-59260000D03*
X337960000Y-60960000D03*
X337960000Y-62660000D03*
X342760000Y-62660000D03*
X342760000Y-60960000D03*
X342760000Y-59260000D03*
X330340000Y-59260000D03*
X330340000Y-60960000D03*
X330340000Y-62660000D03*
X335140000Y-62660000D03*
X335140000Y-60960000D03*
X335140000Y-59260000D03*
X322720000Y-59260000D03*
X322720000Y-60960000D03*
X322720000Y-62660000D03*
X327520000Y-62660000D03*
X327520000Y-60960000D03*
X327520000Y-59260000D03*
X315100000Y-59260000D03*
X315100000Y-60960000D03*
X315100000Y-62660000D03*
X319900000Y-62660000D03*
X319900000Y-60960000D03*
X319900000Y-59260000D03*
X307480000Y-59260000D03*
X307480000Y-60960000D03*
X307480000Y-62660000D03*
X312280000Y-62660000D03*
X312280000Y-60960000D03*
X312280000Y-59260000D03*
X299860000Y-59260000D03*
X299860000Y-60960000D03*
X299860000Y-62660000D03*
X304660000Y-62660000D03*
X304660000Y-60960000D03*
X304660000Y-59260000D03*
X292240000Y-59260000D03*
X292240000Y-60960000D03*
X292240000Y-62660000D03*
X297040000Y-62660000D03*
X297040000Y-60960000D03*
X297040000Y-59260000D03*
X284620000Y-59260000D03*
X284620000Y-60960000D03*
X284620000Y-62660000D03*
X289420000Y-62660000D03*
X289420000Y-60960000D03*
X289420000Y-59260000D03*
X277000000Y-59260000D03*
X277000000Y-60960000D03*
X277000000Y-62660000D03*
X281800000Y-62660000D03*
X281800000Y-60960000D03*
X281800000Y-59260000D03*
X269380000Y-59260000D03*
X269380000Y-60960000D03*
X269380000Y-62660000D03*
X274180000Y-62660000D03*
X274180000Y-60960000D03*
X274180000Y-59260000D03*
X261760000Y-59260000D03*
X261760000Y-60960000D03*
X261760000Y-62660000D03*
X266560000Y-62660000D03*
X266560000Y-60960000D03*
X266560000Y-59260000D03*
X254140000Y-59260000D03*
X254140000Y-60960000D03*
X254140000Y-62660000D03*
X258940000Y-62660000D03*
X258940000Y-60960000D03*
X258940000Y-59260000D03*
X246520000Y-59260000D03*
X246520000Y-60960000D03*
X246520000Y-62660000D03*
X251320000Y-62660000D03*
X251320000Y-60960000D03*
X251320000Y-59260000D03*
X238900000Y-59260000D03*
X238900000Y-60960000D03*
X238900000Y-62660000D03*
X243700000Y-62660000D03*
X243700000Y-60960000D03*
X243700000Y-59260000D03*
X231280000Y-59260000D03*
X231280000Y-60960000D03*
X231280000Y-62660000D03*
X236080000Y-62660000D03*
X236080000Y-60960000D03*
X236080000Y-59260000D03*
X223660000Y-59260000D03*
X223660000Y-60960000D03*
X223660000Y-62660000D03*
X228460000Y-62660000D03*
X228460000Y-60960000D03*
X228460000Y-59260000D03*
X216040000Y-59260000D03*
X216040000Y-60960000D03*
X216040000Y-62660000D03*
X220840000Y-62660000D03*
X220840000Y-60960000D03*
X220840000Y-59260000D03*
X208420000Y-59260000D03*
X208420000Y-60960000D03*
X208420000Y-62660000D03*
X213220000Y-62660000D03*
X213220000Y-60960000D03*
X213220000Y-59260000D03*
X200800000Y-59260000D03*
X200800000Y-60960000D03*
X200800000Y-62660000D03*
X205600000Y-62660000D03*
X205600000Y-60960000D03*
X205600000Y-59260000D03*
X193180000Y-59260000D03*
X193180000Y-60960000D03*
X193180000Y-62660000D03*
X197980000Y-62660000D03*
X197980000Y-60960000D03*
X197980000Y-59260000D03*
X185560000Y-59260000D03*
X185560000Y-60960000D03*
X185560000Y-62660000D03*
X190360000Y-62660000D03*
X190360000Y-60960000D03*
X190360000Y-59260000D03*
X177940000Y-59260000D03*
X177940000Y-60960000D03*
X177940000Y-62660000D03*
X182740000Y-62660000D03*
X182740000Y-60960000D03*
X182740000Y-59260000D03*
X170320000Y-59260000D03*
X170320000Y-60960000D03*
X170320000Y-62660000D03*
X175120000Y-62660000D03*
X175120000Y-60960000D03*
X175120000Y-59260000D03*
X162700000Y-59260000D03*
X162700000Y-60960000D03*
X162700000Y-62660000D03*
X167500000Y-62660000D03*
X167500000Y-60960000D03*
X167500000Y-59260000D03*
X155080000Y-59260000D03*
X155080000Y-60960000D03*
X155080000Y-62660000D03*
X159880000Y-62660000D03*
X159880000Y-60960000D03*
X159880000Y-59260000D03*
X147460000Y-59260000D03*
X147460000Y-60960000D03*
X147460000Y-62660000D03*
X152260000Y-62660000D03*
X152260000Y-60960000D03*
X152260000Y-59260000D03*
X139840000Y-59260000D03*
X139840000Y-60960000D03*
X139840000Y-62660000D03*
X144640000Y-62660000D03*
X144640000Y-60960000D03*
X144640000Y-59260000D03*
X137020000Y-59260000D03*
X137020000Y-60960000D03*
X137020000Y-62660000D03*
X132220000Y-62660000D03*
X132220000Y-60960000D03*
X132220000Y-59260000D03*
X124600000Y-59260000D03*
X124600000Y-60960000D03*
X124600000Y-62660000D03*
X129400000Y-62660000D03*
X129400000Y-60960000D03*
X129400000Y-59260000D03*
X116980000Y-59260000D03*
X116980000Y-60960000D03*
X116980000Y-62660000D03*
X121780000Y-62660000D03*
X121780000Y-60960000D03*
X121780000Y-59260000D03*
X109360000Y-59260000D03*
X109360000Y-60960000D03*
X109360000Y-62660000D03*
X114160000Y-62660000D03*
X114160000Y-60960000D03*
X114160000Y-59260000D03*
X101740000Y-59260000D03*
X101740000Y-60960000D03*
X101740000Y-62660000D03*
X106540000Y-62660000D03*
X106540000Y-60960000D03*
X106540000Y-59260000D03*
X94120000Y-59260000D03*
X94120000Y-60960000D03*
X94120000Y-62660000D03*
X98920000Y-62660000D03*
X98920000Y-60960000D03*
X98920000Y-59260000D03*
X86500000Y-59260000D03*
X86500000Y-60960000D03*
X86500000Y-62660000D03*
X91300000Y-62660000D03*
X91300000Y-60960000D03*
X91300000Y-59260000D03*
X78880000Y-59260000D03*
X78880000Y-60960000D03*
X78880000Y-62660000D03*
X83680000Y-62660000D03*
X83680000Y-60960000D03*
X83680000Y-59260000D03*
X71260000Y-59260000D03*
X71260000Y-60960000D03*
X71260000Y-62660000D03*
X76060000Y-62660000D03*
X76060000Y-60960000D03*
X76060000Y-59260000D03*
X63640000Y-59260000D03*
X63640000Y-60960000D03*
X63640000Y-62660000D03*
X68440000Y-62660000D03*
X68440000Y-60960000D03*
X68440000Y-59260000D03*
X60820000Y-59260000D03*
X60820000Y-60960000D03*
X60820000Y-62660000D03*
X56020000Y-62660000D03*
X56020000Y-60960000D03*
X56020000Y-59260000D03*
D13*
X55932000Y-62748000D02*
X56020000Y-62660000D01*
X50800000Y-62748000D02*
X55932000Y-62748000D01*
X48768000Y-64780000D02*
X50800000Y-62748000D01*
X52324000Y-60960000D02*
X56020000Y-60960000D01*
X51044000Y-62240000D02*
X52324000Y-60960000D01*
X48768000Y-62240000D02*
X51044000Y-62240000D01*
X49208000Y-59260000D02*
X48768000Y-59700000D01*
X56020000Y-59260000D02*
X49208000Y-59260000D01*
X287020000Y-64008000D02*
X288072000Y-64008000D01*
X288072000Y-64008000D02*
X289420000Y-62660000D01*
X295148000Y-64008000D02*
X295692000Y-64008000D01*
X295692000Y-64008000D02*
X297040000Y-62660000D01*
D14*
X48006000Y-66802000D02*
X49276000Y-66802000D01*
X49276000Y-66802000D02*
X49980585Y-66097415D01*
X46482000Y-65278000D02*
X48006000Y-66802000D01*
X48768000Y-57160000D02*
X46482000Y-59446000D01*
X46482000Y-59446000D02*
X46482000Y-65278000D01*
D13*
X350520000Y-60960000D02*
X353200000Y-60960000D01*
X350520000Y-59260000D02*
X353200000Y-59260000D01*
X342760000Y-60960000D02*
X345720000Y-60960000D01*
X342760000Y-59260000D02*
X345720000Y-59260000D01*
X335140000Y-60960000D02*
X337960000Y-60960000D01*
X335140000Y-59260000D02*
X337960000Y-59260000D01*
X327520000Y-60960000D02*
X330340000Y-60960000D01*
X327520000Y-59260000D02*
X330340000Y-59260000D01*
X319900000Y-60960000D02*
X322720000Y-60960000D01*
X319900000Y-59260000D02*
X322720000Y-59260000D01*
X312280000Y-60960000D02*
X315100000Y-60960000D01*
X312280000Y-59260000D02*
X315100000Y-59260000D01*
X304660000Y-60960000D02*
X307480000Y-60960000D01*
X307480000Y-59260000D02*
X304660000Y-59260000D01*
X297040000Y-60960000D02*
X299860000Y-60960000D01*
X297040000Y-59260000D02*
X299860000Y-59260000D01*
X289420000Y-60960000D02*
X292240000Y-60960000D01*
X289420000Y-59260000D02*
X292240000Y-59260000D01*
X281800000Y-60960000D02*
X284620000Y-60960000D01*
X284620000Y-59260000D02*
X281800000Y-59260000D01*
X348234000Y-64008000D02*
X349172000Y-64008000D01*
X356652000Y-64008000D02*
X358000000Y-62660000D01*
D14*
X340868000Y-64008000D02*
X348234000Y-64008000D01*
X348234000Y-64008000D02*
X356652000Y-64008000D01*
D13*
X349172000Y-64008000D02*
X350520000Y-62660000D01*
X340868000Y-64008000D02*
X341412000Y-64008000D01*
D14*
X333502000Y-64008000D02*
X340868000Y-64008000D01*
D13*
X341412000Y-64008000D02*
X342760000Y-62660000D01*
X333502000Y-64008000D02*
X333792000Y-64008000D01*
D14*
X324358000Y-64008000D02*
X333502000Y-64008000D01*
D13*
X333792000Y-64008000D02*
X335140000Y-62660000D01*
X324358000Y-64008000D02*
X326172000Y-64008000D01*
D14*
X317754000Y-64008000D02*
X324358000Y-64008000D01*
D13*
X326172000Y-64008000D02*
X327520000Y-62660000D01*
X317754000Y-64008000D02*
X318552000Y-64008000D01*
D14*
X309118000Y-64008000D02*
X317754000Y-64008000D01*
D13*
X318552000Y-64008000D02*
X319900000Y-62660000D01*
X309118000Y-64008000D02*
X310932000Y-64008000D01*
D14*
X302260000Y-64008000D02*
X309118000Y-64008000D01*
D13*
X310932000Y-64008000D02*
X312280000Y-62660000D01*
X302260000Y-64008000D02*
X303312000Y-64008000D01*
D14*
X295148000Y-64008000D02*
X302260000Y-64008000D01*
D13*
X303312000Y-64008000D02*
X304660000Y-62660000D01*
D14*
X287020000Y-64008000D02*
X295148000Y-64008000D01*
X279146000Y-64008000D02*
X287020000Y-64008000D01*
D13*
X279146000Y-64008000D02*
X280452000Y-64008000D01*
D14*
X272034000Y-64008000D02*
X279146000Y-64008000D01*
D13*
X280452000Y-64008000D02*
X281800000Y-62660000D01*
X272034000Y-64008000D02*
X272832000Y-64008000D01*
D14*
X264414000Y-64008000D02*
X272034000Y-64008000D01*
D13*
X272832000Y-64008000D02*
X274180000Y-62660000D01*
X264414000Y-64008000D02*
X265212000Y-64008000D01*
D14*
X257592000Y-64008000D02*
X264414000Y-64008000D01*
D13*
X265212000Y-64008000D02*
X266560000Y-62660000D01*
X257592000Y-64008000D02*
X258940000Y-62660000D01*
D14*
X249972000Y-64008000D02*
X257592000Y-64008000D01*
X242062000Y-64008000D02*
X249972000Y-64008000D01*
D13*
X242062000Y-64008000D02*
X242352000Y-64008000D01*
D14*
X234732000Y-64008000D02*
X242062000Y-64008000D01*
D13*
X249972000Y-64008000D02*
X251320000Y-62660000D01*
X242352000Y-64008000D02*
X243700000Y-62660000D01*
X234732000Y-64008000D02*
X236080000Y-62660000D01*
D14*
X226822000Y-64008000D02*
X234732000Y-64008000D01*
D13*
X226822000Y-64008000D02*
X227112000Y-64008000D01*
D14*
X218694000Y-64008000D02*
X226822000Y-64008000D01*
D13*
X218694000Y-64008000D02*
X219492000Y-64008000D01*
D14*
X211328000Y-64008000D02*
X218694000Y-64008000D01*
D13*
X227112000Y-64008000D02*
X228460000Y-62660000D01*
X219492000Y-64008000D02*
X220840000Y-62660000D01*
X211328000Y-64008000D02*
X211872000Y-64008000D01*
D14*
X203454000Y-64008000D02*
X211328000Y-64008000D01*
D13*
X211872000Y-64008000D02*
X213220000Y-62660000D01*
X203454000Y-64008000D02*
X204252000Y-64008000D01*
D14*
X196342000Y-64008000D02*
X203454000Y-64008000D01*
D13*
X204252000Y-64008000D02*
X205600000Y-62660000D01*
X196342000Y-64008000D02*
X196632000Y-64008000D01*
D14*
X188468000Y-64008000D02*
X196342000Y-64008000D01*
D13*
X196632000Y-64008000D02*
X197980000Y-62660000D01*
X188468000Y-64008000D02*
X189012000Y-64008000D01*
D14*
X180340000Y-64008000D02*
X188468000Y-64008000D01*
D13*
X189012000Y-64008000D02*
X190360000Y-62660000D01*
X180340000Y-64008000D02*
X181392000Y-64008000D01*
D14*
X173228000Y-64008000D02*
X180340000Y-64008000D01*
D13*
X181392000Y-64008000D02*
X182740000Y-62660000D01*
X173228000Y-64008000D02*
X173772000Y-64008000D01*
D14*
X165862000Y-64008000D02*
X173228000Y-64008000D01*
D13*
X173772000Y-64008000D02*
X175120000Y-62660000D01*
X165862000Y-64008000D02*
X166152000Y-64008000D01*
D14*
X157480000Y-64008000D02*
X165862000Y-64008000D01*
D13*
X166152000Y-64008000D02*
X167500000Y-62660000D01*
X157480000Y-64008000D02*
X158532000Y-64008000D01*
D14*
X150368000Y-64008000D02*
X157480000Y-64008000D01*
D13*
X158532000Y-64008000D02*
X159880000Y-62660000D01*
X150368000Y-64008000D02*
X150912000Y-64008000D01*
D14*
X141986000Y-64008000D02*
X150368000Y-64008000D01*
D13*
X150912000Y-64008000D02*
X152260000Y-62660000D01*
X141986000Y-64008000D02*
X143292000Y-64008000D01*
D14*
X135128000Y-64008000D02*
X141986000Y-64008000D01*
D13*
X135128000Y-64008000D02*
X135672000Y-64008000D01*
D14*
X127000000Y-64008000D02*
X135128000Y-64008000D01*
D13*
X143292000Y-64008000D02*
X144640000Y-62660000D01*
X135672000Y-64008000D02*
X137020000Y-62660000D01*
X127000000Y-64008000D02*
X128052000Y-64008000D01*
D14*
X119888000Y-64008000D02*
X127000000Y-64008000D01*
D13*
X128052000Y-64008000D02*
X129400000Y-62660000D01*
X119888000Y-64008000D02*
X120432000Y-64008000D01*
D14*
X112268000Y-64008000D02*
X119888000Y-64008000D01*
D13*
X120432000Y-64008000D02*
X121780000Y-62660000D01*
X112268000Y-64008000D02*
X112812000Y-64008000D01*
D14*
X104648000Y-64008000D02*
X112268000Y-64008000D01*
D13*
X104648000Y-64008000D02*
X105192000Y-64008000D01*
D14*
X97028000Y-64008000D02*
X104648000Y-64008000D01*
D13*
X112812000Y-64008000D02*
X114160000Y-62660000D01*
X105192000Y-64008000D02*
X106540000Y-62660000D01*
X97028000Y-64008000D02*
X97572000Y-64008000D01*
D14*
X89662000Y-64008000D02*
X97028000Y-64008000D01*
D13*
X89662000Y-64008000D02*
X89952000Y-64008000D01*
D14*
X82042000Y-64008000D02*
X89662000Y-64008000D01*
D13*
X97572000Y-64008000D02*
X98920000Y-62660000D01*
X82042000Y-64008000D02*
X82332000Y-64008000D01*
X89952000Y-64008000D02*
X91300000Y-62660000D01*
D14*
X74676000Y-64008000D02*
X82042000Y-64008000D01*
D13*
X82332000Y-64008000D02*
X83680000Y-62660000D01*
X74676000Y-64008000D02*
X74712000Y-64008000D01*
D14*
X67092000Y-64008000D02*
X74676000Y-64008000D01*
D13*
X74712000Y-64008000D02*
X76060000Y-62660000D01*
X67092000Y-64008000D02*
X68440000Y-62660000D01*
D14*
X59472000Y-64008000D02*
X67092000Y-64008000D01*
D13*
X59472000Y-64008000D02*
X60820000Y-62660000D01*
D14*
X49980585Y-66097415D02*
X52070000Y-64008000D01*
X52070000Y-64008000D02*
X59472000Y-64008000D01*
D13*
X274180000Y-60960000D02*
X277000000Y-60960000D01*
X274180000Y-59260000D02*
X277000000Y-59260000D01*
X266560000Y-60960000D02*
X269380000Y-60960000D01*
X266560000Y-59260000D02*
X269380000Y-59260000D01*
X258940000Y-60960000D02*
X261760000Y-60960000D01*
X258940000Y-59260000D02*
X261760000Y-59260000D01*
X251320000Y-60960000D02*
X254140000Y-60960000D01*
X251320000Y-59260000D02*
X254140000Y-59260000D01*
X243700000Y-60960000D02*
X246520000Y-60960000D01*
X243700000Y-59260000D02*
X246520000Y-59260000D01*
X236080000Y-60960000D02*
X238900000Y-60960000D01*
X236080000Y-59260000D02*
X238900000Y-59260000D01*
X228460000Y-60960000D02*
X231280000Y-60960000D01*
X228460000Y-59260000D02*
X231280000Y-59260000D01*
X220840000Y-60960000D02*
X223660000Y-60960000D01*
X220840000Y-59260000D02*
X223660000Y-59260000D01*
X213220000Y-60960000D02*
X216040000Y-60960000D01*
X213220000Y-59260000D02*
X216040000Y-59260000D01*
X205600000Y-60960000D02*
X208420000Y-60960000D01*
X205600000Y-59260000D02*
X208420000Y-59260000D01*
X197980000Y-60960000D02*
X200800000Y-60960000D01*
X197980000Y-59260000D02*
X200800000Y-59260000D01*
X190360000Y-60960000D02*
X193180000Y-60960000D01*
X190360000Y-59260000D02*
X193180000Y-59260000D01*
X182740000Y-60960000D02*
X185560000Y-60960000D01*
X182740000Y-59260000D02*
X185560000Y-59260000D01*
X175120000Y-60960000D02*
X177940000Y-60960000D01*
X175120000Y-59260000D02*
X177940000Y-59260000D01*
X167500000Y-60960000D02*
X170320000Y-60960000D01*
X167500000Y-59260000D02*
X170320000Y-59260000D01*
X159880000Y-60960000D02*
X162700000Y-60960000D01*
X159880000Y-59260000D02*
X162700000Y-59260000D01*
X152260000Y-60960000D02*
X155080000Y-60960000D01*
X152260000Y-59260000D02*
X155080000Y-59260000D01*
X144640000Y-60960000D02*
X147460000Y-60960000D01*
X144640000Y-59260000D02*
X147460000Y-59260000D01*
X137020000Y-60960000D02*
X139840000Y-60960000D01*
X137020000Y-59260000D02*
X139840000Y-59260000D01*
X129400000Y-60960000D02*
X132220000Y-60960000D01*
X129400000Y-59260000D02*
X132220000Y-59260000D01*
X121780000Y-60960000D02*
X124600000Y-60960000D01*
X121780000Y-59260000D02*
X124600000Y-59260000D01*
X114160000Y-60960000D02*
X116980000Y-60960000D01*
X114160000Y-59260000D02*
X116980000Y-59260000D01*
X106540000Y-60960000D02*
X109360000Y-60960000D01*
X106540000Y-59260000D02*
X109360000Y-59260000D01*
X98920000Y-60960000D02*
X101740000Y-60960000D01*
X98920000Y-59260000D02*
X101740000Y-59260000D01*
X91300000Y-60960000D02*
X94120000Y-60960000D01*
X91300000Y-59260000D02*
X94120000Y-59260000D01*
X83680000Y-60960000D02*
X86500000Y-60960000D01*
X83680000Y-59260000D02*
X86500000Y-59260000D01*
X76060000Y-60960000D02*
X78880000Y-60960000D01*
X78880000Y-59260000D02*
X76060000Y-59260000D01*
X68440000Y-60960000D02*
X71260000Y-60960000D01*
X68440000Y-59260000D02*
X71260000Y-59260000D01*
X60820000Y-60960000D02*
X63640000Y-60960000D01*
X60820000Y-59260000D02*
X63640000Y-59260000D01*
G04 #@! TA.AperFunction,Conductor*
G36*
X35592374Y-53339387D02*
G01*
X36123584Y-53367112D01*
X36132481Y-53367895D01*
X36660370Y-53433220D01*
X36669189Y-53434630D01*
X37191139Y-53537232D01*
X37199822Y-53539261D01*
X37713169Y-53678616D01*
X37721709Y-53681263D01*
X38223871Y-53856670D01*
X38232202Y-53859916D01*
X38477671Y-53965738D01*
X38720673Y-54070497D01*
X38728737Y-54074318D01*
X38848709Y-54136473D01*
X39201037Y-54319007D01*
X39208825Y-54323399D01*
X39662576Y-54600961D01*
X39670028Y-54605891D01*
X39898370Y-54768892D01*
X40070599Y-54891837D01*
X40088640Y-54907499D01*
X40098471Y-54917824D01*
X40106236Y-54922326D01*
X40109981Y-54925279D01*
X40120329Y-54932800D01*
X40124304Y-54935458D01*
X40130986Y-54941458D01*
X40139080Y-54945339D01*
X40139084Y-54945342D01*
X40174251Y-54962205D01*
X40182953Y-54966805D01*
X40224481Y-54990883D01*
X40233196Y-54993024D01*
X40237609Y-54994803D01*
X40249663Y-54999122D01*
X40254233Y-55000560D01*
X40262323Y-55004440D01*
X40309696Y-55012215D01*
X40319308Y-55014182D01*
X40365932Y-55025637D01*
X40423069Y-55023147D01*
X40429565Y-55023032D01*
X46616940Y-55073786D01*
X51823523Y-55116495D01*
X51891476Y-55137055D01*
X51907244Y-55149258D01*
X54452462Y-57463093D01*
X54468932Y-57478066D01*
X54471106Y-57480312D01*
X54472776Y-57482958D01*
X54478914Y-57488379D01*
X54478915Y-57488380D01*
X54526031Y-57529992D01*
X54527378Y-57531199D01*
X54548963Y-57550821D01*
X54551249Y-57552370D01*
X54553422Y-57554182D01*
X54581951Y-57579378D01*
X54602806Y-57589170D01*
X54619932Y-57598914D01*
X54639008Y-57611840D01*
X54669685Y-57621703D01*
X54684647Y-57627594D01*
X54713800Y-57641281D01*
X54725354Y-57643080D01*
X54736566Y-57644826D01*
X54755740Y-57649372D01*
X54777674Y-57656424D01*
X54786646Y-57656663D01*
X54786648Y-57656663D01*
X54803463Y-57657110D01*
X54812189Y-57657342D01*
X54818551Y-57657672D01*
X54819577Y-57657751D01*
X54824386Y-57658500D01*
X54854064Y-57658500D01*
X54857414Y-57658545D01*
X54923280Y-57660297D01*
X54928709Y-57658865D01*
X54935012Y-57658500D01*
X360654018Y-57658500D01*
X360664123Y-57658906D01*
X360711811Y-57662743D01*
X360763875Y-57651961D01*
X360771541Y-57650619D01*
X360824187Y-57643080D01*
X360832361Y-57639363D01*
X360839069Y-57637402D01*
X360845651Y-57635026D01*
X360854442Y-57633205D01*
X360901401Y-57608236D01*
X360908380Y-57604799D01*
X360933519Y-57593369D01*
X360956782Y-57582792D01*
X360963580Y-57576935D01*
X360969477Y-57573164D01*
X360975127Y-57569036D01*
X360983050Y-57564823D01*
X361021103Y-57527689D01*
X361026848Y-57522420D01*
X361060328Y-57493572D01*
X361060330Y-57493569D01*
X361067127Y-57487713D01*
X361072008Y-57480182D01*
X361076602Y-57474916D01*
X361080869Y-57469366D01*
X361087297Y-57463093D01*
X361097702Y-57444627D01*
X361109825Y-57426854D01*
X361386124Y-57088038D01*
X361392967Y-57080315D01*
X361717631Y-56742821D01*
X361725084Y-56735684D01*
X362076263Y-56425899D01*
X362084265Y-56419403D01*
X362459643Y-56139369D01*
X362468117Y-56133572D01*
X362865152Y-55885191D01*
X362874110Y-55880085D01*
X363290116Y-55665035D01*
X363299469Y-55660676D01*
X363576312Y-55545195D01*
X363731665Y-55480392D01*
X363741326Y-55476818D01*
X364186860Y-55332492D01*
X364196774Y-55329723D01*
X364424692Y-55276031D01*
X364652599Y-55222342D01*
X364662731Y-55220389D01*
X364894270Y-55185527D01*
X365125821Y-55150664D01*
X365136057Y-55149549D01*
X365603303Y-55117950D01*
X365613601Y-55117676D01*
X365864418Y-55121286D01*
X366081856Y-55124416D01*
X366092159Y-55124987D01*
X366558283Y-55170017D01*
X366568504Y-55171429D01*
X366826165Y-55217842D01*
X367029379Y-55254448D01*
X367039436Y-55256687D01*
X367290193Y-55323432D01*
X367492000Y-55377147D01*
X367501838Y-55380202D01*
X367943029Y-55537288D01*
X367952577Y-55541136D01*
X368379409Y-55733785D01*
X368388632Y-55738411D01*
X368519719Y-55811029D01*
X368798283Y-55965345D01*
X368807083Y-55970702D01*
X369196789Y-56230395D01*
X369205116Y-56236450D01*
X369436168Y-56419396D01*
X369572271Y-56527162D01*
X369580086Y-56533888D01*
X369875232Y-56809748D01*
X369922206Y-56853653D01*
X369929450Y-56861001D01*
X370244278Y-57207708D01*
X370250880Y-57215607D01*
X370533117Y-57582792D01*
X370536276Y-57586902D01*
X370542221Y-57595330D01*
X370761518Y-57934907D01*
X370796274Y-57988726D01*
X370801512Y-57997616D01*
X371022521Y-58410478D01*
X371027013Y-58419764D01*
X371213507Y-58849342D01*
X371217214Y-58858938D01*
X371348108Y-59244015D01*
X371367930Y-59302329D01*
X371370848Y-59312227D01*
X371484774Y-59766446D01*
X371486873Y-59776548D01*
X371563254Y-60238587D01*
X371564518Y-60248828D01*
X371602835Y-60715537D01*
X371603258Y-60725847D01*
X371603258Y-61194153D01*
X371602835Y-61204463D01*
X371564518Y-61671172D01*
X371563254Y-61681413D01*
X371486873Y-62143452D01*
X371484774Y-62153554D01*
X371370848Y-62607773D01*
X371367931Y-62617667D01*
X371217506Y-63060204D01*
X371217218Y-63061051D01*
X371213507Y-63070658D01*
X371049916Y-63447481D01*
X371027014Y-63500234D01*
X371022521Y-63509522D01*
X370801512Y-63922384D01*
X370796276Y-63931271D01*
X370546794Y-64317590D01*
X370542224Y-64324666D01*
X370536279Y-64333093D01*
X370250880Y-64704393D01*
X370244278Y-64712292D01*
X370082236Y-64890742D01*
X369929450Y-65058999D01*
X369922206Y-65066347D01*
X369596020Y-65371219D01*
X369580091Y-65386107D01*
X369572277Y-65392833D01*
X369205116Y-65683550D01*
X369196789Y-65689605D01*
X368807083Y-65949298D01*
X368798283Y-65954655D01*
X368644341Y-66039934D01*
X368388632Y-66181589D01*
X368379409Y-66186215D01*
X367952577Y-66378864D01*
X367943029Y-66382712D01*
X367501838Y-66539798D01*
X367492000Y-66542853D01*
X367328377Y-66586405D01*
X367039436Y-66663313D01*
X367029379Y-66665552D01*
X366851147Y-66697658D01*
X366568504Y-66748571D01*
X366558283Y-66749983D01*
X366092159Y-66795013D01*
X366081856Y-66795584D01*
X365864418Y-66798714D01*
X365613601Y-66802324D01*
X365603303Y-66802050D01*
X365136057Y-66770451D01*
X365125821Y-66769336D01*
X364894270Y-66734473D01*
X364662731Y-66699611D01*
X364652599Y-66697658D01*
X364424692Y-66643969D01*
X364196774Y-66590277D01*
X364186860Y-66587508D01*
X363741326Y-66443182D01*
X363731665Y-66439608D01*
X363489465Y-66338578D01*
X363299469Y-66259324D01*
X363290116Y-66254965D01*
X362874110Y-66039915D01*
X362865152Y-66034809D01*
X362468117Y-65786428D01*
X362459643Y-65780631D01*
X362084265Y-65500597D01*
X362076263Y-65494101D01*
X361725084Y-65184316D01*
X361717631Y-65177179D01*
X361392967Y-64839685D01*
X361386124Y-64831962D01*
X361114547Y-64498936D01*
X361100944Y-64478460D01*
X361099040Y-64474880D01*
X361099039Y-64474879D01*
X361094824Y-64466951D01*
X361088554Y-64460526D01*
X361083839Y-64454072D01*
X361080939Y-64450400D01*
X361075744Y-64444306D01*
X361070947Y-64436717D01*
X361044832Y-64413691D01*
X361034178Y-64404297D01*
X361027343Y-64397799D01*
X360993095Y-64362705D01*
X360985272Y-64358297D01*
X360978978Y-64353459D01*
X360975066Y-64350678D01*
X360968423Y-64346323D01*
X360961692Y-64340388D01*
X360917298Y-64319590D01*
X360908921Y-64315276D01*
X360866196Y-64291201D01*
X360857451Y-64289166D01*
X360850016Y-64286275D01*
X360845563Y-64284733D01*
X360837922Y-64282404D01*
X360829791Y-64278594D01*
X360811446Y-64275753D01*
X360781348Y-64271092D01*
X360772074Y-64269297D01*
X360733074Y-64260222D01*
X360724329Y-64258187D01*
X360668305Y-64261319D01*
X360661386Y-64261515D01*
X358897728Y-64262980D01*
X357787289Y-64263902D01*
X357719151Y-64243956D01*
X357672614Y-64190339D01*
X357661874Y-64124732D01*
X357672749Y-64021260D01*
X357672749Y-64021258D01*
X357673393Y-64015131D01*
X357669555Y-63972962D01*
X357667916Y-63954946D01*
X357681662Y-63885293D01*
X357704302Y-63854432D01*
X357803329Y-63755405D01*
X357865641Y-63721379D01*
X357892424Y-63718500D01*
X359048134Y-63718500D01*
X359110316Y-63711745D01*
X359246705Y-63660615D01*
X359363261Y-63573261D01*
X359450615Y-63456705D01*
X359501745Y-63320316D01*
X359508500Y-63258134D01*
X359508500Y-62061866D01*
X359501745Y-61999684D01*
X359466516Y-61905710D01*
X359453766Y-61871699D01*
X359453764Y-61871696D01*
X359450615Y-61863295D01*
X359451466Y-61862976D01*
X359437945Y-61801151D01*
X359450958Y-61756834D01*
X359450615Y-61756705D01*
X359452372Y-61752019D01*
X359452373Y-61752015D01*
X359459809Y-61732182D01*
X359498971Y-61627715D01*
X359501745Y-61620316D01*
X359508500Y-61558134D01*
X359508500Y-60960000D01*
X362046010Y-60960000D01*
X362066356Y-61348218D01*
X362066869Y-61351458D01*
X362066870Y-61351466D01*
X362076556Y-61412617D01*
X362127170Y-61732182D01*
X362227786Y-62107686D01*
X362228971Y-62110774D01*
X362228972Y-62110776D01*
X362258864Y-62188647D01*
X362367101Y-62470616D01*
X362543590Y-62816995D01*
X362755319Y-63143029D01*
X362760543Y-63149480D01*
X362930406Y-63359242D01*
X362999968Y-63445144D01*
X363274856Y-63720032D01*
X363277414Y-63722104D01*
X363277418Y-63722107D01*
X363423449Y-63840361D01*
X363576971Y-63964681D01*
X363903005Y-64176410D01*
X364249384Y-64352899D01*
X364612314Y-64492214D01*
X364987818Y-64592830D01*
X365191836Y-64625143D01*
X365368534Y-64653130D01*
X365368542Y-64653131D01*
X365371782Y-64653644D01*
X365760000Y-64673990D01*
X366148218Y-64653644D01*
X366151458Y-64653131D01*
X366151466Y-64653130D01*
X366328164Y-64625143D01*
X366532182Y-64592830D01*
X366907686Y-64492214D01*
X367270616Y-64352899D01*
X367616995Y-64176410D01*
X367943029Y-63964681D01*
X368096551Y-63840361D01*
X368242582Y-63722107D01*
X368242586Y-63722104D01*
X368245144Y-63720032D01*
X368520032Y-63445144D01*
X368589595Y-63359242D01*
X368759457Y-63149480D01*
X368764681Y-63143029D01*
X368976410Y-62816995D01*
X369152899Y-62470616D01*
X369261136Y-62188647D01*
X369291028Y-62110776D01*
X369291029Y-62110774D01*
X369292214Y-62107686D01*
X369392830Y-61732182D01*
X369443444Y-61412617D01*
X369453130Y-61351466D01*
X369453131Y-61351458D01*
X369453644Y-61348218D01*
X369473990Y-60960000D01*
X369453644Y-60571782D01*
X369453130Y-60568533D01*
X369420938Y-60365283D01*
X369392830Y-60187818D01*
X369292214Y-59812314D01*
X369152899Y-59449384D01*
X368976410Y-59103005D01*
X368764681Y-58776971D01*
X368688734Y-58683185D01*
X368522107Y-58477418D01*
X368522104Y-58477414D01*
X368520032Y-58474856D01*
X368245144Y-58199968D01*
X368155920Y-58127715D01*
X367995261Y-57997616D01*
X367943029Y-57955319D01*
X367616995Y-57743590D01*
X367270616Y-57567101D01*
X367030465Y-57474916D01*
X366910776Y-57428972D01*
X366910774Y-57428971D01*
X366907686Y-57427786D01*
X366532182Y-57327170D01*
X366328164Y-57294857D01*
X366151466Y-57266870D01*
X366151458Y-57266869D01*
X366148218Y-57266356D01*
X365760000Y-57246010D01*
X365371782Y-57266356D01*
X365368542Y-57266869D01*
X365368534Y-57266870D01*
X365191836Y-57294857D01*
X364987818Y-57327170D01*
X364612314Y-57427786D01*
X364609226Y-57428971D01*
X364609224Y-57428972D01*
X364489535Y-57474916D01*
X364249384Y-57567101D01*
X363903005Y-57743590D01*
X363576971Y-57955319D01*
X363524739Y-57997616D01*
X363364081Y-58127715D01*
X363274856Y-58199968D01*
X362999968Y-58474856D01*
X362997896Y-58477414D01*
X362997893Y-58477418D01*
X362831266Y-58683185D01*
X362755319Y-58776971D01*
X362543590Y-59103005D01*
X362367101Y-59449384D01*
X362227786Y-59812314D01*
X362127170Y-60187818D01*
X362066356Y-60571782D01*
X362047487Y-60931811D01*
X362046010Y-60960000D01*
X359508500Y-60960000D01*
X359508500Y-60361866D01*
X359501745Y-60299684D01*
X359461031Y-60191079D01*
X359453766Y-60171699D01*
X359453764Y-60171696D01*
X359450615Y-60163295D01*
X359451466Y-60162976D01*
X359437945Y-60101151D01*
X359450958Y-60056834D01*
X359450615Y-60056705D01*
X359452372Y-60052019D01*
X359452373Y-60052015D01*
X359468694Y-60008481D01*
X359484024Y-59967586D01*
X359501745Y-59920316D01*
X359508500Y-59858134D01*
X359508500Y-58661866D01*
X359501745Y-58599684D01*
X359450615Y-58463295D01*
X359363261Y-58346739D01*
X359246705Y-58259385D01*
X359110316Y-58208255D01*
X359048134Y-58201500D01*
X356951866Y-58201500D01*
X356889684Y-58208255D01*
X356753295Y-58259385D01*
X356636739Y-58346739D01*
X356549385Y-58463295D01*
X356498255Y-58599684D01*
X356491500Y-58661866D01*
X356491500Y-59858134D01*
X356498255Y-59920316D01*
X356515976Y-59967586D01*
X356531307Y-60008481D01*
X356549385Y-60056705D01*
X356548534Y-60057024D01*
X356562055Y-60118849D01*
X356549042Y-60163166D01*
X356549385Y-60163295D01*
X356546236Y-60171696D01*
X356546234Y-60171699D01*
X356538969Y-60191079D01*
X356498255Y-60299684D01*
X356491500Y-60361866D01*
X356491500Y-61558134D01*
X356498255Y-61620316D01*
X356501029Y-61627715D01*
X356540192Y-61732182D01*
X356548245Y-61753663D01*
X356549385Y-61756705D01*
X356548534Y-61757024D01*
X356562055Y-61818849D01*
X356549042Y-61863166D01*
X356549385Y-61863295D01*
X356546236Y-61871696D01*
X356546234Y-61871699D01*
X356533484Y-61905710D01*
X356498255Y-61999684D01*
X356491500Y-62061866D01*
X356491500Y-62865500D01*
X356471498Y-62933621D01*
X356417842Y-62980114D01*
X356365500Y-62991500D01*
X354819759Y-62991500D01*
X354751638Y-62971498D01*
X354706666Y-62919598D01*
X354702135Y-62915671D01*
X354694452Y-62914000D01*
X353072000Y-62914000D01*
X353003879Y-62893998D01*
X352957386Y-62840342D01*
X352946000Y-62788000D01*
X352946000Y-62532000D01*
X352966002Y-62463879D01*
X353019658Y-62417386D01*
X353072000Y-62406000D01*
X354689884Y-62406000D01*
X354705123Y-62401525D01*
X354706328Y-62400135D01*
X354707999Y-62392452D01*
X354707999Y-62065331D01*
X354707629Y-62058510D01*
X354702105Y-62007648D01*
X354698479Y-61992396D01*
X354653321Y-61871939D01*
X354652826Y-61871034D01*
X354652607Y-61870034D01*
X354650172Y-61863538D01*
X354651110Y-61863186D01*
X354637657Y-61801677D01*
X354650838Y-61756788D01*
X354650615Y-61756705D01*
X354651756Y-61753663D01*
X354651758Y-61753656D01*
X354659809Y-61732182D01*
X354698971Y-61627715D01*
X354701745Y-61620316D01*
X354708500Y-61558134D01*
X354708500Y-60361866D01*
X354701745Y-60299684D01*
X354661031Y-60191079D01*
X354653766Y-60171699D01*
X354653764Y-60171696D01*
X354650615Y-60163295D01*
X354651466Y-60162976D01*
X354637945Y-60101151D01*
X354650958Y-60056834D01*
X354650615Y-60056705D01*
X354652372Y-60052019D01*
X354652373Y-60052015D01*
X354668694Y-60008481D01*
X354684024Y-59967586D01*
X354701745Y-59920316D01*
X354708500Y-59858134D01*
X354708500Y-58661866D01*
X354701745Y-58599684D01*
X354650615Y-58463295D01*
X354563261Y-58346739D01*
X354446705Y-58259385D01*
X354310316Y-58208255D01*
X354248134Y-58201500D01*
X352151866Y-58201500D01*
X352089684Y-58208255D01*
X351953295Y-58259385D01*
X351941061Y-58268554D01*
X351935565Y-58272673D01*
X351869059Y-58297521D01*
X351799677Y-58282468D01*
X351784435Y-58272673D01*
X351778939Y-58268554D01*
X351766705Y-58259385D01*
X351630316Y-58208255D01*
X351568134Y-58201500D01*
X349471866Y-58201500D01*
X349409684Y-58208255D01*
X349273295Y-58259385D01*
X349156739Y-58346739D01*
X349069385Y-58463295D01*
X349018255Y-58599684D01*
X349011500Y-58661866D01*
X349011500Y-59858134D01*
X349018255Y-59920316D01*
X349035976Y-59967586D01*
X349051307Y-60008481D01*
X349069385Y-60056705D01*
X349068534Y-60057024D01*
X349082055Y-60118849D01*
X349069042Y-60163166D01*
X349069385Y-60163295D01*
X349066236Y-60171696D01*
X349066234Y-60171699D01*
X349058969Y-60191079D01*
X349018255Y-60299684D01*
X349011500Y-60361866D01*
X349011500Y-61558134D01*
X349018255Y-61620316D01*
X349021029Y-61627715D01*
X349060192Y-61732182D01*
X349068245Y-61753663D01*
X349069385Y-61756705D01*
X349068534Y-61757024D01*
X349082055Y-61818849D01*
X349069042Y-61863166D01*
X349069385Y-61863295D01*
X349066236Y-61871696D01*
X349066234Y-61871699D01*
X349053484Y-61905710D01*
X349018255Y-61999684D01*
X349011500Y-62061866D01*
X349011500Y-62865500D01*
X348991498Y-62933621D01*
X348937842Y-62980114D01*
X348885500Y-62991500D01*
X347339759Y-62991500D01*
X347271638Y-62971498D01*
X347226666Y-62919598D01*
X347222135Y-62915671D01*
X347214452Y-62914000D01*
X345592000Y-62914000D01*
X345523879Y-62893998D01*
X345477386Y-62840342D01*
X345466000Y-62788000D01*
X345466000Y-62532000D01*
X345486002Y-62463879D01*
X345539658Y-62417386D01*
X345592000Y-62406000D01*
X347209884Y-62406000D01*
X347225123Y-62401525D01*
X347226328Y-62400135D01*
X347227999Y-62392452D01*
X347227999Y-62065331D01*
X347227629Y-62058510D01*
X347222105Y-62007648D01*
X347218479Y-61992396D01*
X347173321Y-61871939D01*
X347172826Y-61871034D01*
X347172607Y-61870034D01*
X347170172Y-61863538D01*
X347171110Y-61863186D01*
X347157657Y-61801677D01*
X347170838Y-61756788D01*
X347170615Y-61756705D01*
X347171756Y-61753663D01*
X347171758Y-61753656D01*
X347179809Y-61732182D01*
X347218971Y-61627715D01*
X347221745Y-61620316D01*
X347228500Y-61558134D01*
X347228500Y-60361866D01*
X347221745Y-60299684D01*
X347181031Y-60191079D01*
X347173766Y-60171699D01*
X347173764Y-60171696D01*
X347170615Y-60163295D01*
X347171466Y-60162976D01*
X347157945Y-60101151D01*
X347170958Y-60056834D01*
X347170615Y-60056705D01*
X347172372Y-60052019D01*
X347172373Y-60052015D01*
X347188694Y-60008481D01*
X347204024Y-59967586D01*
X347221745Y-59920316D01*
X347228500Y-59858134D01*
X347228500Y-58661866D01*
X347221745Y-58599684D01*
X347170615Y-58463295D01*
X347083261Y-58346739D01*
X346966705Y-58259385D01*
X346830316Y-58208255D01*
X346768134Y-58201500D01*
X344671866Y-58201500D01*
X344609684Y-58208255D01*
X344473295Y-58259385D01*
X344356739Y-58346739D01*
X344340826Y-58367972D01*
X344283968Y-58410487D01*
X344213149Y-58415513D01*
X344150856Y-58381454D01*
X344139177Y-58367975D01*
X344123261Y-58346739D01*
X344006705Y-58259385D01*
X343870316Y-58208255D01*
X343808134Y-58201500D01*
X341711866Y-58201500D01*
X341649684Y-58208255D01*
X341513295Y-58259385D01*
X341396739Y-58346739D01*
X341309385Y-58463295D01*
X341258255Y-58599684D01*
X341251500Y-58661866D01*
X341251500Y-59858134D01*
X341258255Y-59920316D01*
X341275976Y-59967586D01*
X341291307Y-60008481D01*
X341309385Y-60056705D01*
X341308534Y-60057024D01*
X341322055Y-60118849D01*
X341309042Y-60163166D01*
X341309385Y-60163295D01*
X341306236Y-60171696D01*
X341306234Y-60171699D01*
X341298969Y-60191079D01*
X341258255Y-60299684D01*
X341251500Y-60361866D01*
X341251500Y-61558134D01*
X341258255Y-61620316D01*
X341261029Y-61627715D01*
X341300192Y-61732182D01*
X341308245Y-61753663D01*
X341309385Y-61756705D01*
X341308534Y-61757024D01*
X341322055Y-61818849D01*
X341309042Y-61863166D01*
X341309385Y-61863295D01*
X341306236Y-61871696D01*
X341306234Y-61871699D01*
X341293484Y-61905710D01*
X341258255Y-61999684D01*
X341251500Y-62061866D01*
X341251500Y-62865500D01*
X341231498Y-62933621D01*
X341177842Y-62980114D01*
X341125500Y-62991500D01*
X339579759Y-62991500D01*
X339511638Y-62971498D01*
X339466666Y-62919598D01*
X339462135Y-62915671D01*
X339454452Y-62914000D01*
X337832000Y-62914000D01*
X337763879Y-62893998D01*
X337717386Y-62840342D01*
X337706000Y-62788000D01*
X337706000Y-62532000D01*
X337726002Y-62463879D01*
X337779658Y-62417386D01*
X337832000Y-62406000D01*
X339449884Y-62406000D01*
X339465123Y-62401525D01*
X339466328Y-62400135D01*
X339467999Y-62392452D01*
X339467999Y-62065331D01*
X339467629Y-62058510D01*
X339462105Y-62007648D01*
X339458479Y-61992396D01*
X339413321Y-61871939D01*
X339412826Y-61871034D01*
X339412607Y-61870034D01*
X339410172Y-61863538D01*
X339411110Y-61863186D01*
X339397657Y-61801677D01*
X339410838Y-61756788D01*
X339410615Y-61756705D01*
X339411756Y-61753663D01*
X339411758Y-61753656D01*
X339419809Y-61732182D01*
X339458971Y-61627715D01*
X339461745Y-61620316D01*
X339468500Y-61558134D01*
X339468500Y-60361866D01*
X339461745Y-60299684D01*
X339421031Y-60191079D01*
X339413766Y-60171699D01*
X339413764Y-60171696D01*
X339410615Y-60163295D01*
X339411466Y-60162976D01*
X339397945Y-60101151D01*
X339410958Y-60056834D01*
X339410615Y-60056705D01*
X339412372Y-60052019D01*
X339412373Y-60052015D01*
X339428694Y-60008481D01*
X339444024Y-59967586D01*
X339461745Y-59920316D01*
X339468500Y-59858134D01*
X339468500Y-58661866D01*
X339461745Y-58599684D01*
X339410615Y-58463295D01*
X339323261Y-58346739D01*
X339206705Y-58259385D01*
X339070316Y-58208255D01*
X339008134Y-58201500D01*
X336911866Y-58201500D01*
X336849684Y-58208255D01*
X336713295Y-58259385D01*
X336639566Y-58314642D01*
X336625565Y-58325135D01*
X336559059Y-58349983D01*
X336489676Y-58334930D01*
X336474435Y-58325135D01*
X336460434Y-58314642D01*
X336386705Y-58259385D01*
X336250316Y-58208255D01*
X336188134Y-58201500D01*
X334091866Y-58201500D01*
X334029684Y-58208255D01*
X333893295Y-58259385D01*
X333776739Y-58346739D01*
X333689385Y-58463295D01*
X333638255Y-58599684D01*
X333631500Y-58661866D01*
X333631500Y-59858134D01*
X333638255Y-59920316D01*
X333655976Y-59967586D01*
X333671307Y-60008481D01*
X333689385Y-60056705D01*
X333688534Y-60057024D01*
X333702055Y-60118849D01*
X333689042Y-60163166D01*
X333689385Y-60163295D01*
X333686236Y-60171696D01*
X333686234Y-60171699D01*
X333678969Y-60191079D01*
X333638255Y-60299684D01*
X333631500Y-60361866D01*
X333631500Y-61558134D01*
X333638255Y-61620316D01*
X333641029Y-61627715D01*
X333680192Y-61732182D01*
X333688245Y-61753663D01*
X333689385Y-61756705D01*
X333688534Y-61757024D01*
X333702055Y-61818849D01*
X333689042Y-61863166D01*
X333689385Y-61863295D01*
X333686236Y-61871696D01*
X333686234Y-61871699D01*
X333673484Y-61905710D01*
X333638255Y-61999684D01*
X333631500Y-62061866D01*
X333631500Y-62865500D01*
X333611498Y-62933621D01*
X333557842Y-62980114D01*
X333505500Y-62991500D01*
X331959759Y-62991500D01*
X331891638Y-62971498D01*
X331846666Y-62919598D01*
X331842135Y-62915671D01*
X331834452Y-62914000D01*
X330212000Y-62914000D01*
X330143879Y-62893998D01*
X330097386Y-62840342D01*
X330086000Y-62788000D01*
X330086000Y-62532000D01*
X330106002Y-62463879D01*
X330159658Y-62417386D01*
X330212000Y-62406000D01*
X331829884Y-62406000D01*
X331845123Y-62401525D01*
X331846328Y-62400135D01*
X331847999Y-62392452D01*
X331847999Y-62065331D01*
X331847629Y-62058510D01*
X331842105Y-62007648D01*
X331838479Y-61992396D01*
X331793321Y-61871939D01*
X331792826Y-61871034D01*
X331792607Y-61870034D01*
X331790172Y-61863538D01*
X331791110Y-61863186D01*
X331777657Y-61801677D01*
X331790838Y-61756788D01*
X331790615Y-61756705D01*
X331791756Y-61753663D01*
X331791758Y-61753656D01*
X331799809Y-61732182D01*
X331838971Y-61627715D01*
X331841745Y-61620316D01*
X331848500Y-61558134D01*
X331848500Y-60361866D01*
X331841745Y-60299684D01*
X331801031Y-60191079D01*
X331793766Y-60171699D01*
X331793764Y-60171696D01*
X331790615Y-60163295D01*
X331791466Y-60162976D01*
X331777945Y-60101151D01*
X331790958Y-60056834D01*
X331790615Y-60056705D01*
X331792372Y-60052019D01*
X331792373Y-60052015D01*
X331808694Y-60008481D01*
X331824024Y-59967586D01*
X331841745Y-59920316D01*
X331848500Y-59858134D01*
X331848500Y-58661866D01*
X331841745Y-58599684D01*
X331790615Y-58463295D01*
X331703261Y-58346739D01*
X331586705Y-58259385D01*
X331450316Y-58208255D01*
X331388134Y-58201500D01*
X329291866Y-58201500D01*
X329229684Y-58208255D01*
X329093295Y-58259385D01*
X329019566Y-58314642D01*
X329005565Y-58325135D01*
X328939059Y-58349983D01*
X328869676Y-58334930D01*
X328854435Y-58325135D01*
X328840434Y-58314642D01*
X328766705Y-58259385D01*
X328630316Y-58208255D01*
X328568134Y-58201500D01*
X326471866Y-58201500D01*
X326409684Y-58208255D01*
X326273295Y-58259385D01*
X326156739Y-58346739D01*
X326069385Y-58463295D01*
X326018255Y-58599684D01*
X326011500Y-58661866D01*
X326011500Y-59858134D01*
X326018255Y-59920316D01*
X326035976Y-59967586D01*
X326051307Y-60008481D01*
X326069385Y-60056705D01*
X326068534Y-60057024D01*
X326082055Y-60118849D01*
X326069042Y-60163166D01*
X326069385Y-60163295D01*
X326066236Y-60171696D01*
X326066234Y-60171699D01*
X326058969Y-60191079D01*
X326018255Y-60299684D01*
X326011500Y-60361866D01*
X326011500Y-61558134D01*
X326018255Y-61620316D01*
X326021029Y-61627715D01*
X326060192Y-61732182D01*
X326068245Y-61753663D01*
X326069385Y-61756705D01*
X326068534Y-61757024D01*
X326082055Y-61818849D01*
X326069042Y-61863166D01*
X326069385Y-61863295D01*
X326066236Y-61871696D01*
X326066234Y-61871699D01*
X326053484Y-61905710D01*
X326018255Y-61999684D01*
X326011500Y-62061866D01*
X326011500Y-62865500D01*
X325991498Y-62933621D01*
X325937842Y-62980114D01*
X325885500Y-62991500D01*
X324339759Y-62991500D01*
X324271638Y-62971498D01*
X324226666Y-62919598D01*
X324222135Y-62915671D01*
X324214452Y-62914000D01*
X322592000Y-62914000D01*
X322523879Y-62893998D01*
X322477386Y-62840342D01*
X322466000Y-62788000D01*
X322466000Y-62532000D01*
X322486002Y-62463879D01*
X322539658Y-62417386D01*
X322592000Y-62406000D01*
X324209884Y-62406000D01*
X324225123Y-62401525D01*
X324226328Y-62400135D01*
X324227999Y-62392452D01*
X324227999Y-62065331D01*
X324227629Y-62058510D01*
X324222105Y-62007648D01*
X324218479Y-61992396D01*
X324173321Y-61871939D01*
X324172826Y-61871034D01*
X324172607Y-61870034D01*
X324170172Y-61863538D01*
X324171110Y-61863186D01*
X324157657Y-61801677D01*
X324170838Y-61756788D01*
X324170615Y-61756705D01*
X324171756Y-61753663D01*
X324171758Y-61753656D01*
X324179809Y-61732182D01*
X324218971Y-61627715D01*
X324221745Y-61620316D01*
X324228500Y-61558134D01*
X324228500Y-60361866D01*
X324221745Y-60299684D01*
X324181031Y-60191079D01*
X324173766Y-60171699D01*
X324173764Y-60171696D01*
X324170615Y-60163295D01*
X324171466Y-60162976D01*
X324157945Y-60101151D01*
X324170958Y-60056834D01*
X324170615Y-60056705D01*
X324172372Y-60052019D01*
X324172373Y-60052015D01*
X324188694Y-60008481D01*
X324204024Y-59967586D01*
X324221745Y-59920316D01*
X324228500Y-59858134D01*
X324228500Y-58661866D01*
X324221745Y-58599684D01*
X324170615Y-58463295D01*
X324083261Y-58346739D01*
X323966705Y-58259385D01*
X323830316Y-58208255D01*
X323768134Y-58201500D01*
X321671866Y-58201500D01*
X321609684Y-58208255D01*
X321473295Y-58259385D01*
X321399566Y-58314642D01*
X321385565Y-58325135D01*
X321319059Y-58349983D01*
X321249676Y-58334930D01*
X321234435Y-58325135D01*
X321220434Y-58314642D01*
X321146705Y-58259385D01*
X321010316Y-58208255D01*
X320948134Y-58201500D01*
X318851866Y-58201500D01*
X318789684Y-58208255D01*
X318653295Y-58259385D01*
X318536739Y-58346739D01*
X318449385Y-58463295D01*
X318398255Y-58599684D01*
X318391500Y-58661866D01*
X318391500Y-59858134D01*
X318398255Y-59920316D01*
X318415976Y-59967586D01*
X318431307Y-60008481D01*
X318449385Y-60056705D01*
X318448534Y-60057024D01*
X318462055Y-60118849D01*
X318449042Y-60163166D01*
X318449385Y-60163295D01*
X318446236Y-60171696D01*
X318446234Y-60171699D01*
X318438969Y-60191079D01*
X318398255Y-60299684D01*
X318391500Y-60361866D01*
X318391500Y-61558134D01*
X318398255Y-61620316D01*
X318401029Y-61627715D01*
X318440192Y-61732182D01*
X318448245Y-61753663D01*
X318449385Y-61756705D01*
X318448534Y-61757024D01*
X318462055Y-61818849D01*
X318449042Y-61863166D01*
X318449385Y-61863295D01*
X318446236Y-61871696D01*
X318446234Y-61871699D01*
X318433484Y-61905710D01*
X318398255Y-61999684D01*
X318391500Y-62061866D01*
X318391500Y-62865500D01*
X318371498Y-62933621D01*
X318317842Y-62980114D01*
X318265500Y-62991500D01*
X316719759Y-62991500D01*
X316651638Y-62971498D01*
X316606666Y-62919598D01*
X316602135Y-62915671D01*
X316594452Y-62914000D01*
X314972000Y-62914000D01*
X314903879Y-62893998D01*
X314857386Y-62840342D01*
X314846000Y-62788000D01*
X314846000Y-62532000D01*
X314866002Y-62463879D01*
X314919658Y-62417386D01*
X314972000Y-62406000D01*
X316589884Y-62406000D01*
X316605123Y-62401525D01*
X316606328Y-62400135D01*
X316607999Y-62392452D01*
X316607999Y-62065331D01*
X316607629Y-62058510D01*
X316602105Y-62007648D01*
X316598479Y-61992396D01*
X316553321Y-61871939D01*
X316552826Y-61871034D01*
X316552607Y-61870034D01*
X316550172Y-61863538D01*
X316551110Y-61863186D01*
X316537657Y-61801677D01*
X316550838Y-61756788D01*
X316550615Y-61756705D01*
X316551756Y-61753663D01*
X316551758Y-61753656D01*
X316559809Y-61732182D01*
X316598971Y-61627715D01*
X316601745Y-61620316D01*
X316608500Y-61558134D01*
X316608500Y-60361866D01*
X316601745Y-60299684D01*
X316561031Y-60191079D01*
X316553766Y-60171699D01*
X316553764Y-60171696D01*
X316550615Y-60163295D01*
X316551466Y-60162976D01*
X316537945Y-60101151D01*
X316550958Y-60056834D01*
X316550615Y-60056705D01*
X316552372Y-60052019D01*
X316552373Y-60052015D01*
X316568694Y-60008481D01*
X316584024Y-59967586D01*
X316601745Y-59920316D01*
X316608500Y-59858134D01*
X316608500Y-58661866D01*
X316601745Y-58599684D01*
X316550615Y-58463295D01*
X316463261Y-58346739D01*
X316346705Y-58259385D01*
X316210316Y-58208255D01*
X316148134Y-58201500D01*
X314051866Y-58201500D01*
X313989684Y-58208255D01*
X313853295Y-58259385D01*
X313779566Y-58314642D01*
X313765565Y-58325135D01*
X313699059Y-58349983D01*
X313629676Y-58334930D01*
X313614435Y-58325135D01*
X313600434Y-58314642D01*
X313526705Y-58259385D01*
X313390316Y-58208255D01*
X313328134Y-58201500D01*
X311231866Y-58201500D01*
X311169684Y-58208255D01*
X311033295Y-58259385D01*
X310916739Y-58346739D01*
X310829385Y-58463295D01*
X310778255Y-58599684D01*
X310771500Y-58661866D01*
X310771500Y-59858134D01*
X310778255Y-59920316D01*
X310795976Y-59967586D01*
X310811307Y-60008481D01*
X310829385Y-60056705D01*
X310828534Y-60057024D01*
X310842055Y-60118849D01*
X310829042Y-60163166D01*
X310829385Y-60163295D01*
X310826236Y-60171696D01*
X310826234Y-60171699D01*
X310818969Y-60191079D01*
X310778255Y-60299684D01*
X310771500Y-60361866D01*
X310771500Y-61558134D01*
X310778255Y-61620316D01*
X310781029Y-61627715D01*
X310820192Y-61732182D01*
X310828245Y-61753663D01*
X310829385Y-61756705D01*
X310828534Y-61757024D01*
X310842055Y-61818849D01*
X310829042Y-61863166D01*
X310829385Y-61863295D01*
X310826236Y-61871696D01*
X310826234Y-61871699D01*
X310813484Y-61905710D01*
X310778255Y-61999684D01*
X310771500Y-62061866D01*
X310771500Y-62865500D01*
X310751498Y-62933621D01*
X310697842Y-62980114D01*
X310645500Y-62991500D01*
X309099759Y-62991500D01*
X309031638Y-62971498D01*
X308986666Y-62919598D01*
X308982135Y-62915671D01*
X308974452Y-62914000D01*
X307352000Y-62914000D01*
X307283879Y-62893998D01*
X307237386Y-62840342D01*
X307226000Y-62788000D01*
X307226000Y-62532000D01*
X307246002Y-62463879D01*
X307299658Y-62417386D01*
X307352000Y-62406000D01*
X308969884Y-62406000D01*
X308985123Y-62401525D01*
X308986328Y-62400135D01*
X308987999Y-62392452D01*
X308987999Y-62065331D01*
X308987629Y-62058510D01*
X308982105Y-62007648D01*
X308978479Y-61992396D01*
X308933321Y-61871939D01*
X308932826Y-61871034D01*
X308932607Y-61870034D01*
X308930172Y-61863538D01*
X308931110Y-61863186D01*
X308917657Y-61801677D01*
X308930838Y-61756788D01*
X308930615Y-61756705D01*
X308931756Y-61753663D01*
X308931758Y-61753656D01*
X308939809Y-61732182D01*
X308978971Y-61627715D01*
X308981745Y-61620316D01*
X308988500Y-61558134D01*
X308988500Y-60361866D01*
X308981745Y-60299684D01*
X308941031Y-60191079D01*
X308933766Y-60171699D01*
X308933764Y-60171696D01*
X308930615Y-60163295D01*
X308931466Y-60162976D01*
X308917945Y-60101151D01*
X308930958Y-60056834D01*
X308930615Y-60056705D01*
X308932372Y-60052019D01*
X308932373Y-60052015D01*
X308948694Y-60008481D01*
X308964024Y-59967586D01*
X308981745Y-59920316D01*
X308988500Y-59858134D01*
X308988500Y-58661866D01*
X308981745Y-58599684D01*
X308930615Y-58463295D01*
X308843261Y-58346739D01*
X308726705Y-58259385D01*
X308590316Y-58208255D01*
X308528134Y-58201500D01*
X306431866Y-58201500D01*
X306369684Y-58208255D01*
X306233295Y-58259385D01*
X306159566Y-58314642D01*
X306145565Y-58325135D01*
X306079059Y-58349983D01*
X306009676Y-58334930D01*
X305994435Y-58325135D01*
X305980434Y-58314642D01*
X305906705Y-58259385D01*
X305770316Y-58208255D01*
X305708134Y-58201500D01*
X303611866Y-58201500D01*
X303549684Y-58208255D01*
X303413295Y-58259385D01*
X303296739Y-58346739D01*
X303209385Y-58463295D01*
X303158255Y-58599684D01*
X303151500Y-58661866D01*
X303151500Y-59858134D01*
X303158255Y-59920316D01*
X303175976Y-59967586D01*
X303191307Y-60008481D01*
X303209385Y-60056705D01*
X303208534Y-60057024D01*
X303222055Y-60118849D01*
X303209042Y-60163166D01*
X303209385Y-60163295D01*
X303206236Y-60171696D01*
X303206234Y-60171699D01*
X303198969Y-60191079D01*
X303158255Y-60299684D01*
X303151500Y-60361866D01*
X303151500Y-61558134D01*
X303158255Y-61620316D01*
X303161029Y-61627715D01*
X303200192Y-61732182D01*
X303208245Y-61753663D01*
X303209385Y-61756705D01*
X303208534Y-61757024D01*
X303222055Y-61818849D01*
X303209042Y-61863166D01*
X303209385Y-61863295D01*
X303206236Y-61871696D01*
X303206234Y-61871699D01*
X303193484Y-61905710D01*
X303158255Y-61999684D01*
X303151500Y-62061866D01*
X303151500Y-62865500D01*
X303131498Y-62933621D01*
X303077842Y-62980114D01*
X303025500Y-62991500D01*
X301479759Y-62991500D01*
X301411638Y-62971498D01*
X301366666Y-62919598D01*
X301362135Y-62915671D01*
X301354452Y-62914000D01*
X299732000Y-62914000D01*
X299663879Y-62893998D01*
X299617386Y-62840342D01*
X299606000Y-62788000D01*
X299606000Y-62532000D01*
X299626002Y-62463879D01*
X299679658Y-62417386D01*
X299732000Y-62406000D01*
X301349884Y-62406000D01*
X301365123Y-62401525D01*
X301366328Y-62400135D01*
X301367999Y-62392452D01*
X301367999Y-62065331D01*
X301367629Y-62058510D01*
X301362105Y-62007648D01*
X301358479Y-61992396D01*
X301313321Y-61871939D01*
X301312826Y-61871034D01*
X301312607Y-61870034D01*
X301310172Y-61863538D01*
X301311110Y-61863186D01*
X301297657Y-61801677D01*
X301310838Y-61756788D01*
X301310615Y-61756705D01*
X301311756Y-61753663D01*
X301311758Y-61753656D01*
X301319809Y-61732182D01*
X301358971Y-61627715D01*
X301361745Y-61620316D01*
X301368500Y-61558134D01*
X301368500Y-60361866D01*
X301361745Y-60299684D01*
X301321031Y-60191079D01*
X301313766Y-60171699D01*
X301313764Y-60171696D01*
X301310615Y-60163295D01*
X301311466Y-60162976D01*
X301297945Y-60101151D01*
X301310958Y-60056834D01*
X301310615Y-60056705D01*
X301312372Y-60052019D01*
X301312373Y-60052015D01*
X301328694Y-60008481D01*
X301344024Y-59967586D01*
X301361745Y-59920316D01*
X301368500Y-59858134D01*
X301368500Y-58661866D01*
X301361745Y-58599684D01*
X301310615Y-58463295D01*
X301223261Y-58346739D01*
X301106705Y-58259385D01*
X300970316Y-58208255D01*
X300908134Y-58201500D01*
X298811866Y-58201500D01*
X298749684Y-58208255D01*
X298613295Y-58259385D01*
X298539566Y-58314642D01*
X298525565Y-58325135D01*
X298459059Y-58349983D01*
X298389676Y-58334930D01*
X298374435Y-58325135D01*
X298360434Y-58314642D01*
X298286705Y-58259385D01*
X298150316Y-58208255D01*
X298088134Y-58201500D01*
X295991866Y-58201500D01*
X295929684Y-58208255D01*
X295793295Y-58259385D01*
X295676739Y-58346739D01*
X295589385Y-58463295D01*
X295538255Y-58599684D01*
X295531500Y-58661866D01*
X295531500Y-59858134D01*
X295538255Y-59920316D01*
X295555976Y-59967586D01*
X295571307Y-60008481D01*
X295589385Y-60056705D01*
X295588534Y-60057024D01*
X295602055Y-60118849D01*
X295589042Y-60163166D01*
X295589385Y-60163295D01*
X295586236Y-60171696D01*
X295586234Y-60171699D01*
X295578969Y-60191079D01*
X295538255Y-60299684D01*
X295531500Y-60361866D01*
X295531500Y-61558134D01*
X295538255Y-61620316D01*
X295541029Y-61627715D01*
X295580192Y-61732182D01*
X295588245Y-61753663D01*
X295589385Y-61756705D01*
X295588534Y-61757024D01*
X295602055Y-61818849D01*
X295589042Y-61863166D01*
X295589385Y-61863295D01*
X295586236Y-61871696D01*
X295586234Y-61871699D01*
X295573484Y-61905710D01*
X295538255Y-61999684D01*
X295531500Y-62061866D01*
X295531500Y-62865500D01*
X295511498Y-62933621D01*
X295457842Y-62980114D01*
X295405500Y-62991500D01*
X293859759Y-62991500D01*
X293791638Y-62971498D01*
X293746666Y-62919598D01*
X293742135Y-62915671D01*
X293734452Y-62914000D01*
X292112000Y-62914000D01*
X292043879Y-62893998D01*
X291997386Y-62840342D01*
X291986000Y-62788000D01*
X291986000Y-62532000D01*
X292006002Y-62463879D01*
X292059658Y-62417386D01*
X292112000Y-62406000D01*
X293729884Y-62406000D01*
X293745123Y-62401525D01*
X293746328Y-62400135D01*
X293747999Y-62392452D01*
X293747999Y-62065331D01*
X293747629Y-62058510D01*
X293742105Y-62007648D01*
X293738479Y-61992396D01*
X293693321Y-61871939D01*
X293692826Y-61871034D01*
X293692607Y-61870034D01*
X293690172Y-61863538D01*
X293691110Y-61863186D01*
X293677657Y-61801677D01*
X293690838Y-61756788D01*
X293690615Y-61756705D01*
X293691756Y-61753663D01*
X293691758Y-61753656D01*
X293699809Y-61732182D01*
X293738971Y-61627715D01*
X293741745Y-61620316D01*
X293748500Y-61558134D01*
X293748500Y-60361866D01*
X293741745Y-60299684D01*
X293701031Y-60191079D01*
X293693766Y-60171699D01*
X293693764Y-60171696D01*
X293690615Y-60163295D01*
X293691466Y-60162976D01*
X293677945Y-60101151D01*
X293690958Y-60056834D01*
X293690615Y-60056705D01*
X293692372Y-60052019D01*
X293692373Y-60052015D01*
X293708694Y-60008481D01*
X293724024Y-59967586D01*
X293741745Y-59920316D01*
X293748500Y-59858134D01*
X293748500Y-58661866D01*
X293741745Y-58599684D01*
X293690615Y-58463295D01*
X293603261Y-58346739D01*
X293486705Y-58259385D01*
X293350316Y-58208255D01*
X293288134Y-58201500D01*
X291191866Y-58201500D01*
X291129684Y-58208255D01*
X290993295Y-58259385D01*
X290919566Y-58314642D01*
X290905565Y-58325135D01*
X290839059Y-58349983D01*
X290769676Y-58334930D01*
X290754435Y-58325135D01*
X290740434Y-58314642D01*
X290666705Y-58259385D01*
X290530316Y-58208255D01*
X290468134Y-58201500D01*
X288371866Y-58201500D01*
X288309684Y-58208255D01*
X288173295Y-58259385D01*
X288056739Y-58346739D01*
X287969385Y-58463295D01*
X287918255Y-58599684D01*
X287911500Y-58661866D01*
X287911500Y-59858134D01*
X287918255Y-59920316D01*
X287935976Y-59967586D01*
X287951307Y-60008481D01*
X287969385Y-60056705D01*
X287968534Y-60057024D01*
X287982055Y-60118849D01*
X287969042Y-60163166D01*
X287969385Y-60163295D01*
X287966236Y-60171696D01*
X287966234Y-60171699D01*
X287958969Y-60191079D01*
X287918255Y-60299684D01*
X287911500Y-60361866D01*
X287911500Y-61558134D01*
X287918255Y-61620316D01*
X287921029Y-61627715D01*
X287960192Y-61732182D01*
X287968245Y-61753663D01*
X287969385Y-61756705D01*
X287968534Y-61757024D01*
X287982055Y-61818849D01*
X287969042Y-61863166D01*
X287969385Y-61863295D01*
X287966236Y-61871696D01*
X287966234Y-61871699D01*
X287953484Y-61905710D01*
X287918255Y-61999684D01*
X287911500Y-62061866D01*
X287911500Y-62865500D01*
X287891498Y-62933621D01*
X287837842Y-62980114D01*
X287785500Y-62991500D01*
X286239759Y-62991500D01*
X286171638Y-62971498D01*
X286126666Y-62919598D01*
X286122135Y-62915671D01*
X286114452Y-62914000D01*
X284492000Y-62914000D01*
X284423879Y-62893998D01*
X284377386Y-62840342D01*
X284366000Y-62788000D01*
X284366000Y-62532000D01*
X284386002Y-62463879D01*
X284439658Y-62417386D01*
X284492000Y-62406000D01*
X286109884Y-62406000D01*
X286125123Y-62401525D01*
X286126328Y-62400135D01*
X286127999Y-62392452D01*
X286127999Y-62065331D01*
X286127629Y-62058510D01*
X286122105Y-62007648D01*
X286118479Y-61992396D01*
X286073321Y-61871939D01*
X286072826Y-61871034D01*
X286072607Y-61870034D01*
X286070172Y-61863538D01*
X286071110Y-61863186D01*
X286057657Y-61801677D01*
X286070838Y-61756788D01*
X286070615Y-61756705D01*
X286071756Y-61753663D01*
X286071758Y-61753656D01*
X286079809Y-61732182D01*
X286118971Y-61627715D01*
X286121745Y-61620316D01*
X286128500Y-61558134D01*
X286128500Y-60361866D01*
X286121745Y-60299684D01*
X286081031Y-60191079D01*
X286073766Y-60171699D01*
X286073764Y-60171696D01*
X286070615Y-60163295D01*
X286071466Y-60162976D01*
X286057945Y-60101151D01*
X286070958Y-60056834D01*
X286070615Y-60056705D01*
X286072372Y-60052019D01*
X286072373Y-60052015D01*
X286088694Y-60008481D01*
X286104024Y-59967586D01*
X286121745Y-59920316D01*
X286128500Y-59858134D01*
X286128500Y-58661866D01*
X286121745Y-58599684D01*
X286070615Y-58463295D01*
X285983261Y-58346739D01*
X285866705Y-58259385D01*
X285730316Y-58208255D01*
X285668134Y-58201500D01*
X283571866Y-58201500D01*
X283509684Y-58208255D01*
X283373295Y-58259385D01*
X283299566Y-58314642D01*
X283285565Y-58325135D01*
X283219059Y-58349983D01*
X283149676Y-58334930D01*
X283134435Y-58325135D01*
X283120434Y-58314642D01*
X283046705Y-58259385D01*
X282910316Y-58208255D01*
X282848134Y-58201500D01*
X280751866Y-58201500D01*
X280689684Y-58208255D01*
X280553295Y-58259385D01*
X280436739Y-58346739D01*
X280349385Y-58463295D01*
X280298255Y-58599684D01*
X280291500Y-58661866D01*
X280291500Y-59858134D01*
X280298255Y-59920316D01*
X280315976Y-59967586D01*
X280331307Y-60008481D01*
X280349385Y-60056705D01*
X280348534Y-60057024D01*
X280362055Y-60118849D01*
X280349042Y-60163166D01*
X280349385Y-60163295D01*
X280346236Y-60171696D01*
X280346234Y-60171699D01*
X280338969Y-60191079D01*
X280298255Y-60299684D01*
X280291500Y-60361866D01*
X280291500Y-61558134D01*
X280298255Y-61620316D01*
X280301029Y-61627715D01*
X280340192Y-61732182D01*
X280348245Y-61753663D01*
X280349385Y-61756705D01*
X280348534Y-61757024D01*
X280362055Y-61818849D01*
X280349042Y-61863166D01*
X280349385Y-61863295D01*
X280346236Y-61871696D01*
X280346234Y-61871699D01*
X280333484Y-61905710D01*
X280298255Y-61999684D01*
X280291500Y-62061866D01*
X280291500Y-62865500D01*
X280271498Y-62933621D01*
X280217842Y-62980114D01*
X280165500Y-62991500D01*
X278619759Y-62991500D01*
X278551638Y-62971498D01*
X278506666Y-62919598D01*
X278502135Y-62915671D01*
X278494452Y-62914000D01*
X276872000Y-62914000D01*
X276803879Y-62893998D01*
X276757386Y-62840342D01*
X276746000Y-62788000D01*
X276746000Y-62532000D01*
X276766002Y-62463879D01*
X276819658Y-62417386D01*
X276872000Y-62406000D01*
X278489884Y-62406000D01*
X278505123Y-62401525D01*
X278506328Y-62400135D01*
X278507999Y-62392452D01*
X278507999Y-62065331D01*
X278507629Y-62058510D01*
X278502105Y-62007648D01*
X278498479Y-61992396D01*
X278453321Y-61871939D01*
X278452826Y-61871034D01*
X278452607Y-61870034D01*
X278450172Y-61863538D01*
X278451110Y-61863186D01*
X278437657Y-61801677D01*
X278450838Y-61756788D01*
X278450615Y-61756705D01*
X278451756Y-61753663D01*
X278451758Y-61753656D01*
X278459809Y-61732182D01*
X278498971Y-61627715D01*
X278501745Y-61620316D01*
X278508500Y-61558134D01*
X278508500Y-60361866D01*
X278501745Y-60299684D01*
X278461031Y-60191079D01*
X278453766Y-60171699D01*
X278453764Y-60171696D01*
X278450615Y-60163295D01*
X278451466Y-60162976D01*
X278437945Y-60101151D01*
X278450958Y-60056834D01*
X278450615Y-60056705D01*
X278452372Y-60052019D01*
X278452373Y-60052015D01*
X278468694Y-60008481D01*
X278484024Y-59967586D01*
X278501745Y-59920316D01*
X278508500Y-59858134D01*
X278508500Y-58661866D01*
X278501745Y-58599684D01*
X278450615Y-58463295D01*
X278363261Y-58346739D01*
X278246705Y-58259385D01*
X278110316Y-58208255D01*
X278048134Y-58201500D01*
X275951866Y-58201500D01*
X275889684Y-58208255D01*
X275753295Y-58259385D01*
X275679566Y-58314642D01*
X275665565Y-58325135D01*
X275599059Y-58349983D01*
X275529676Y-58334930D01*
X275514435Y-58325135D01*
X275500434Y-58314642D01*
X275426705Y-58259385D01*
X275290316Y-58208255D01*
X275228134Y-58201500D01*
X273131866Y-58201500D01*
X273069684Y-58208255D01*
X272933295Y-58259385D01*
X272816739Y-58346739D01*
X272729385Y-58463295D01*
X272678255Y-58599684D01*
X272671500Y-58661866D01*
X272671500Y-59858134D01*
X272678255Y-59920316D01*
X272695976Y-59967586D01*
X272711307Y-60008481D01*
X272729385Y-60056705D01*
X272728534Y-60057024D01*
X272742055Y-60118849D01*
X272729042Y-60163166D01*
X272729385Y-60163295D01*
X272726236Y-60171696D01*
X272726234Y-60171699D01*
X272718969Y-60191079D01*
X272678255Y-60299684D01*
X272671500Y-60361866D01*
X272671500Y-61558134D01*
X272678255Y-61620316D01*
X272681029Y-61627715D01*
X272720192Y-61732182D01*
X272728245Y-61753663D01*
X272729385Y-61756705D01*
X272728534Y-61757024D01*
X272742055Y-61818849D01*
X272729042Y-61863166D01*
X272729385Y-61863295D01*
X272726236Y-61871696D01*
X272726234Y-61871699D01*
X272713484Y-61905710D01*
X272678255Y-61999684D01*
X272671500Y-62061866D01*
X272671500Y-62865500D01*
X272651498Y-62933621D01*
X272597842Y-62980114D01*
X272545500Y-62991500D01*
X270999759Y-62991500D01*
X270931638Y-62971498D01*
X270886666Y-62919598D01*
X270882135Y-62915671D01*
X270874452Y-62914000D01*
X269252000Y-62914000D01*
X269183879Y-62893998D01*
X269137386Y-62840342D01*
X269126000Y-62788000D01*
X269126000Y-62532000D01*
X269146002Y-62463879D01*
X269199658Y-62417386D01*
X269252000Y-62406000D01*
X270869884Y-62406000D01*
X270885123Y-62401525D01*
X270886328Y-62400135D01*
X270887999Y-62392452D01*
X270887999Y-62065331D01*
X270887629Y-62058510D01*
X270882105Y-62007648D01*
X270878479Y-61992396D01*
X270833321Y-61871939D01*
X270832826Y-61871034D01*
X270832607Y-61870034D01*
X270830172Y-61863538D01*
X270831110Y-61863186D01*
X270817657Y-61801677D01*
X270830838Y-61756788D01*
X270830615Y-61756705D01*
X270831756Y-61753663D01*
X270831758Y-61753656D01*
X270839809Y-61732182D01*
X270878971Y-61627715D01*
X270881745Y-61620316D01*
X270888500Y-61558134D01*
X270888500Y-60361866D01*
X270881745Y-60299684D01*
X270841031Y-60191079D01*
X270833766Y-60171699D01*
X270833764Y-60171696D01*
X270830615Y-60163295D01*
X270831466Y-60162976D01*
X270817945Y-60101151D01*
X270830958Y-60056834D01*
X270830615Y-60056705D01*
X270832372Y-60052019D01*
X270832373Y-60052015D01*
X270848694Y-60008481D01*
X270864024Y-59967586D01*
X270881745Y-59920316D01*
X270888500Y-59858134D01*
X270888500Y-58661866D01*
X270881745Y-58599684D01*
X270830615Y-58463295D01*
X270743261Y-58346739D01*
X270626705Y-58259385D01*
X270490316Y-58208255D01*
X270428134Y-58201500D01*
X268331866Y-58201500D01*
X268269684Y-58208255D01*
X268133295Y-58259385D01*
X268059566Y-58314642D01*
X268045565Y-58325135D01*
X267979059Y-58349983D01*
X267909676Y-58334930D01*
X267894435Y-58325135D01*
X267880434Y-58314642D01*
X267806705Y-58259385D01*
X267670316Y-58208255D01*
X267608134Y-58201500D01*
X265511866Y-58201500D01*
X265449684Y-58208255D01*
X265313295Y-58259385D01*
X265196739Y-58346739D01*
X265109385Y-58463295D01*
X265058255Y-58599684D01*
X265051500Y-58661866D01*
X265051500Y-59858134D01*
X265058255Y-59920316D01*
X265075976Y-59967586D01*
X265091307Y-60008481D01*
X265109385Y-60056705D01*
X265108534Y-60057024D01*
X265122055Y-60118849D01*
X265109042Y-60163166D01*
X265109385Y-60163295D01*
X265106236Y-60171696D01*
X265106234Y-60171699D01*
X265098969Y-60191079D01*
X265058255Y-60299684D01*
X265051500Y-60361866D01*
X265051500Y-61558134D01*
X265058255Y-61620316D01*
X265061029Y-61627715D01*
X265100192Y-61732182D01*
X265108245Y-61753663D01*
X265109385Y-61756705D01*
X265108534Y-61757024D01*
X265122055Y-61818849D01*
X265109042Y-61863166D01*
X265109385Y-61863295D01*
X265106236Y-61871696D01*
X265106234Y-61871699D01*
X265093484Y-61905710D01*
X265058255Y-61999684D01*
X265051500Y-62061866D01*
X265051500Y-62865500D01*
X265031498Y-62933621D01*
X264977842Y-62980114D01*
X264925500Y-62991500D01*
X263379759Y-62991500D01*
X263311638Y-62971498D01*
X263266666Y-62919598D01*
X263262135Y-62915671D01*
X263254452Y-62914000D01*
X261632000Y-62914000D01*
X261563879Y-62893998D01*
X261517386Y-62840342D01*
X261506000Y-62788000D01*
X261506000Y-62532000D01*
X261526002Y-62463879D01*
X261579658Y-62417386D01*
X261632000Y-62406000D01*
X263249884Y-62406000D01*
X263265123Y-62401525D01*
X263266328Y-62400135D01*
X263267999Y-62392452D01*
X263267999Y-62065331D01*
X263267629Y-62058510D01*
X263262105Y-62007648D01*
X263258479Y-61992396D01*
X263213321Y-61871939D01*
X263212826Y-61871034D01*
X263212607Y-61870034D01*
X263210172Y-61863538D01*
X263211110Y-61863186D01*
X263197657Y-61801677D01*
X263210838Y-61756788D01*
X263210615Y-61756705D01*
X263211756Y-61753663D01*
X263211758Y-61753656D01*
X263219809Y-61732182D01*
X263258971Y-61627715D01*
X263261745Y-61620316D01*
X263268500Y-61558134D01*
X263268500Y-60361866D01*
X263261745Y-60299684D01*
X263221031Y-60191079D01*
X263213766Y-60171699D01*
X263213764Y-60171696D01*
X263210615Y-60163295D01*
X263211466Y-60162976D01*
X263197945Y-60101151D01*
X263210958Y-60056834D01*
X263210615Y-60056705D01*
X263212372Y-60052019D01*
X263212373Y-60052015D01*
X263228694Y-60008481D01*
X263244024Y-59967586D01*
X263261745Y-59920316D01*
X263268500Y-59858134D01*
X263268500Y-58661866D01*
X263261745Y-58599684D01*
X263210615Y-58463295D01*
X263123261Y-58346739D01*
X263006705Y-58259385D01*
X262870316Y-58208255D01*
X262808134Y-58201500D01*
X260711866Y-58201500D01*
X260649684Y-58208255D01*
X260513295Y-58259385D01*
X260439566Y-58314642D01*
X260425565Y-58325135D01*
X260359059Y-58349983D01*
X260289676Y-58334930D01*
X260274435Y-58325135D01*
X260260434Y-58314642D01*
X260186705Y-58259385D01*
X260050316Y-58208255D01*
X259988134Y-58201500D01*
X257891866Y-58201500D01*
X257829684Y-58208255D01*
X257693295Y-58259385D01*
X257576739Y-58346739D01*
X257489385Y-58463295D01*
X257438255Y-58599684D01*
X257431500Y-58661866D01*
X257431500Y-59858134D01*
X257438255Y-59920316D01*
X257455976Y-59967586D01*
X257471307Y-60008481D01*
X257489385Y-60056705D01*
X257488534Y-60057024D01*
X257502055Y-60118849D01*
X257489042Y-60163166D01*
X257489385Y-60163295D01*
X257486236Y-60171696D01*
X257486234Y-60171699D01*
X257478969Y-60191079D01*
X257438255Y-60299684D01*
X257431500Y-60361866D01*
X257431500Y-61558134D01*
X257438255Y-61620316D01*
X257441029Y-61627715D01*
X257480192Y-61732182D01*
X257488245Y-61753663D01*
X257489385Y-61756705D01*
X257488534Y-61757024D01*
X257502055Y-61818849D01*
X257489042Y-61863166D01*
X257489385Y-61863295D01*
X257486236Y-61871696D01*
X257486234Y-61871699D01*
X257473484Y-61905710D01*
X257438255Y-61999684D01*
X257431500Y-62061866D01*
X257431500Y-62865500D01*
X257411498Y-62933621D01*
X257357842Y-62980114D01*
X257305500Y-62991500D01*
X255759759Y-62991500D01*
X255691638Y-62971498D01*
X255646666Y-62919598D01*
X255642135Y-62915671D01*
X255634452Y-62914000D01*
X254012000Y-62914000D01*
X253943879Y-62893998D01*
X253897386Y-62840342D01*
X253886000Y-62788000D01*
X253886000Y-62532000D01*
X253906002Y-62463879D01*
X253959658Y-62417386D01*
X254012000Y-62406000D01*
X255629884Y-62406000D01*
X255645123Y-62401525D01*
X255646328Y-62400135D01*
X255647999Y-62392452D01*
X255647999Y-62065331D01*
X255647629Y-62058510D01*
X255642105Y-62007648D01*
X255638479Y-61992396D01*
X255593321Y-61871939D01*
X255592826Y-61871034D01*
X255592607Y-61870034D01*
X255590172Y-61863538D01*
X255591110Y-61863186D01*
X255577657Y-61801677D01*
X255590838Y-61756788D01*
X255590615Y-61756705D01*
X255591756Y-61753663D01*
X255591758Y-61753656D01*
X255599809Y-61732182D01*
X255638971Y-61627715D01*
X255641745Y-61620316D01*
X255648500Y-61558134D01*
X255648500Y-60361866D01*
X255641745Y-60299684D01*
X255601031Y-60191079D01*
X255593766Y-60171699D01*
X255593764Y-60171696D01*
X255590615Y-60163295D01*
X255591466Y-60162976D01*
X255577945Y-60101151D01*
X255590958Y-60056834D01*
X255590615Y-60056705D01*
X255592372Y-60052019D01*
X255592373Y-60052015D01*
X255608694Y-60008481D01*
X255624024Y-59967586D01*
X255641745Y-59920316D01*
X255648500Y-59858134D01*
X255648500Y-58661866D01*
X255641745Y-58599684D01*
X255590615Y-58463295D01*
X255503261Y-58346739D01*
X255386705Y-58259385D01*
X255250316Y-58208255D01*
X255188134Y-58201500D01*
X253091866Y-58201500D01*
X253029684Y-58208255D01*
X252893295Y-58259385D01*
X252819566Y-58314642D01*
X252805565Y-58325135D01*
X252739059Y-58349983D01*
X252669676Y-58334930D01*
X252654435Y-58325135D01*
X252640434Y-58314642D01*
X252566705Y-58259385D01*
X252430316Y-58208255D01*
X252368134Y-58201500D01*
X250271866Y-58201500D01*
X250209684Y-58208255D01*
X250073295Y-58259385D01*
X249956739Y-58346739D01*
X249869385Y-58463295D01*
X249818255Y-58599684D01*
X249811500Y-58661866D01*
X249811500Y-59858134D01*
X249818255Y-59920316D01*
X249835976Y-59967586D01*
X249851307Y-60008481D01*
X249869385Y-60056705D01*
X249868534Y-60057024D01*
X249882055Y-60118849D01*
X249869042Y-60163166D01*
X249869385Y-60163295D01*
X249866236Y-60171696D01*
X249866234Y-60171699D01*
X249858969Y-60191079D01*
X249818255Y-60299684D01*
X249811500Y-60361866D01*
X249811500Y-61558134D01*
X249818255Y-61620316D01*
X249821029Y-61627715D01*
X249860192Y-61732182D01*
X249868245Y-61753663D01*
X249869385Y-61756705D01*
X249868534Y-61757024D01*
X249882055Y-61818849D01*
X249869042Y-61863166D01*
X249869385Y-61863295D01*
X249866236Y-61871696D01*
X249866234Y-61871699D01*
X249853484Y-61905710D01*
X249818255Y-61999684D01*
X249811500Y-62061866D01*
X249811500Y-62865500D01*
X249791498Y-62933621D01*
X249737842Y-62980114D01*
X249685500Y-62991500D01*
X248139759Y-62991500D01*
X248071638Y-62971498D01*
X248026666Y-62919598D01*
X248022135Y-62915671D01*
X248014452Y-62914000D01*
X246392000Y-62914000D01*
X246323879Y-62893998D01*
X246277386Y-62840342D01*
X246266000Y-62788000D01*
X246266000Y-62532000D01*
X246286002Y-62463879D01*
X246339658Y-62417386D01*
X246392000Y-62406000D01*
X248009884Y-62406000D01*
X248025123Y-62401525D01*
X248026328Y-62400135D01*
X248027999Y-62392452D01*
X248027999Y-62065331D01*
X248027629Y-62058510D01*
X248022105Y-62007648D01*
X248018479Y-61992396D01*
X247973321Y-61871939D01*
X247972826Y-61871034D01*
X247972607Y-61870034D01*
X247970172Y-61863538D01*
X247971110Y-61863186D01*
X247957657Y-61801677D01*
X247970838Y-61756788D01*
X247970615Y-61756705D01*
X247971756Y-61753663D01*
X247971758Y-61753656D01*
X247979809Y-61732182D01*
X248018971Y-61627715D01*
X248021745Y-61620316D01*
X248028500Y-61558134D01*
X248028500Y-60361866D01*
X248021745Y-60299684D01*
X247981031Y-60191079D01*
X247973766Y-60171699D01*
X247973764Y-60171696D01*
X247970615Y-60163295D01*
X247971466Y-60162976D01*
X247957945Y-60101151D01*
X247970958Y-60056834D01*
X247970615Y-60056705D01*
X247972372Y-60052019D01*
X247972373Y-60052015D01*
X247988694Y-60008481D01*
X248004024Y-59967586D01*
X248021745Y-59920316D01*
X248028500Y-59858134D01*
X248028500Y-58661866D01*
X248021745Y-58599684D01*
X247970615Y-58463295D01*
X247883261Y-58346739D01*
X247766705Y-58259385D01*
X247630316Y-58208255D01*
X247568134Y-58201500D01*
X245471866Y-58201500D01*
X245409684Y-58208255D01*
X245273295Y-58259385D01*
X245199566Y-58314642D01*
X245185565Y-58325135D01*
X245119059Y-58349983D01*
X245049676Y-58334930D01*
X245034435Y-58325135D01*
X245020434Y-58314642D01*
X244946705Y-58259385D01*
X244810316Y-58208255D01*
X244748134Y-58201500D01*
X242651866Y-58201500D01*
X242589684Y-58208255D01*
X242453295Y-58259385D01*
X242336739Y-58346739D01*
X242249385Y-58463295D01*
X242198255Y-58599684D01*
X242191500Y-58661866D01*
X242191500Y-59858134D01*
X242198255Y-59920316D01*
X242215976Y-59967586D01*
X242231307Y-60008481D01*
X242249385Y-60056705D01*
X242248534Y-60057024D01*
X242262055Y-60118849D01*
X242249042Y-60163166D01*
X242249385Y-60163295D01*
X242246236Y-60171696D01*
X242246234Y-60171699D01*
X242238969Y-60191079D01*
X242198255Y-60299684D01*
X242191500Y-60361866D01*
X242191500Y-61558134D01*
X242198255Y-61620316D01*
X242201029Y-61627715D01*
X242240192Y-61732182D01*
X242248245Y-61753663D01*
X242249385Y-61756705D01*
X242248534Y-61757024D01*
X242262055Y-61818849D01*
X242249042Y-61863166D01*
X242249385Y-61863295D01*
X242246236Y-61871696D01*
X242246234Y-61871699D01*
X242233484Y-61905710D01*
X242198255Y-61999684D01*
X242191500Y-62061866D01*
X242191500Y-62865500D01*
X242171498Y-62933621D01*
X242117842Y-62980114D01*
X242065500Y-62991500D01*
X240519759Y-62991500D01*
X240451638Y-62971498D01*
X240406666Y-62919598D01*
X240402135Y-62915671D01*
X240394452Y-62914000D01*
X238772000Y-62914000D01*
X238703879Y-62893998D01*
X238657386Y-62840342D01*
X238646000Y-62788000D01*
X238646000Y-62532000D01*
X238666002Y-62463879D01*
X238719658Y-62417386D01*
X238772000Y-62406000D01*
X240389884Y-62406000D01*
X240405123Y-62401525D01*
X240406328Y-62400135D01*
X240407999Y-62392452D01*
X240407999Y-62065331D01*
X240407629Y-62058510D01*
X240402105Y-62007648D01*
X240398479Y-61992396D01*
X240353321Y-61871939D01*
X240352826Y-61871034D01*
X240352607Y-61870034D01*
X240350172Y-61863538D01*
X240351110Y-61863186D01*
X240337657Y-61801677D01*
X240350838Y-61756788D01*
X240350615Y-61756705D01*
X240351756Y-61753663D01*
X240351758Y-61753656D01*
X240359809Y-61732182D01*
X240398971Y-61627715D01*
X240401745Y-61620316D01*
X240408500Y-61558134D01*
X240408500Y-60361866D01*
X240401745Y-60299684D01*
X240361031Y-60191079D01*
X240353766Y-60171699D01*
X240353764Y-60171696D01*
X240350615Y-60163295D01*
X240351466Y-60162976D01*
X240337945Y-60101151D01*
X240350958Y-60056834D01*
X240350615Y-60056705D01*
X240352372Y-60052019D01*
X240352373Y-60052015D01*
X240368694Y-60008481D01*
X240384024Y-59967586D01*
X240401745Y-59920316D01*
X240408500Y-59858134D01*
X240408500Y-58661866D01*
X240401745Y-58599684D01*
X240350615Y-58463295D01*
X240263261Y-58346739D01*
X240146705Y-58259385D01*
X240010316Y-58208255D01*
X239948134Y-58201500D01*
X237851866Y-58201500D01*
X237789684Y-58208255D01*
X237653295Y-58259385D01*
X237579566Y-58314642D01*
X237565565Y-58325135D01*
X237499059Y-58349983D01*
X237429676Y-58334930D01*
X237414435Y-58325135D01*
X237400434Y-58314642D01*
X237326705Y-58259385D01*
X237190316Y-58208255D01*
X237128134Y-58201500D01*
X235031866Y-58201500D01*
X234969684Y-58208255D01*
X234833295Y-58259385D01*
X234716739Y-58346739D01*
X234629385Y-58463295D01*
X234578255Y-58599684D01*
X234571500Y-58661866D01*
X234571500Y-59858134D01*
X234578255Y-59920316D01*
X234595976Y-59967586D01*
X234611307Y-60008481D01*
X234629385Y-60056705D01*
X234628534Y-60057024D01*
X234642055Y-60118849D01*
X234629042Y-60163166D01*
X234629385Y-60163295D01*
X234626236Y-60171696D01*
X234626234Y-60171699D01*
X234618969Y-60191079D01*
X234578255Y-60299684D01*
X234571500Y-60361866D01*
X234571500Y-61558134D01*
X234578255Y-61620316D01*
X234581029Y-61627715D01*
X234620192Y-61732182D01*
X234628245Y-61753663D01*
X234629385Y-61756705D01*
X234628534Y-61757024D01*
X234642055Y-61818849D01*
X234629042Y-61863166D01*
X234629385Y-61863295D01*
X234626236Y-61871696D01*
X234626234Y-61871699D01*
X234613484Y-61905710D01*
X234578255Y-61999684D01*
X234571500Y-62061866D01*
X234571500Y-62865500D01*
X234551498Y-62933621D01*
X234497842Y-62980114D01*
X234445500Y-62991500D01*
X232899759Y-62991500D01*
X232831638Y-62971498D01*
X232786666Y-62919598D01*
X232782135Y-62915671D01*
X232774452Y-62914000D01*
X231152000Y-62914000D01*
X231083879Y-62893998D01*
X231037386Y-62840342D01*
X231026000Y-62788000D01*
X231026000Y-62532000D01*
X231046002Y-62463879D01*
X231099658Y-62417386D01*
X231152000Y-62406000D01*
X232769884Y-62406000D01*
X232785123Y-62401525D01*
X232786328Y-62400135D01*
X232787999Y-62392452D01*
X232787999Y-62065331D01*
X232787629Y-62058510D01*
X232782105Y-62007648D01*
X232778479Y-61992396D01*
X232733321Y-61871939D01*
X232732826Y-61871034D01*
X232732607Y-61870034D01*
X232730172Y-61863538D01*
X232731110Y-61863186D01*
X232717657Y-61801677D01*
X232730838Y-61756788D01*
X232730615Y-61756705D01*
X232731756Y-61753663D01*
X232731758Y-61753656D01*
X232739809Y-61732182D01*
X232778971Y-61627715D01*
X232781745Y-61620316D01*
X232788500Y-61558134D01*
X232788500Y-60361866D01*
X232781745Y-60299684D01*
X232741031Y-60191079D01*
X232733766Y-60171699D01*
X232733764Y-60171696D01*
X232730615Y-60163295D01*
X232731466Y-60162976D01*
X232717945Y-60101151D01*
X232730958Y-60056834D01*
X232730615Y-60056705D01*
X232732372Y-60052019D01*
X232732373Y-60052015D01*
X232748694Y-60008481D01*
X232764024Y-59967586D01*
X232781745Y-59920316D01*
X232788500Y-59858134D01*
X232788500Y-58661866D01*
X232781745Y-58599684D01*
X232730615Y-58463295D01*
X232643261Y-58346739D01*
X232526705Y-58259385D01*
X232390316Y-58208255D01*
X232328134Y-58201500D01*
X230231866Y-58201500D01*
X230169684Y-58208255D01*
X230033295Y-58259385D01*
X229959566Y-58314642D01*
X229945565Y-58325135D01*
X229879059Y-58349983D01*
X229809676Y-58334930D01*
X229794435Y-58325135D01*
X229780434Y-58314642D01*
X229706705Y-58259385D01*
X229570316Y-58208255D01*
X229508134Y-58201500D01*
X227411866Y-58201500D01*
X227349684Y-58208255D01*
X227213295Y-58259385D01*
X227096739Y-58346739D01*
X227009385Y-58463295D01*
X226958255Y-58599684D01*
X226951500Y-58661866D01*
X226951500Y-59858134D01*
X226958255Y-59920316D01*
X226975976Y-59967586D01*
X226991307Y-60008481D01*
X227009385Y-60056705D01*
X227008534Y-60057024D01*
X227022055Y-60118849D01*
X227009042Y-60163166D01*
X227009385Y-60163295D01*
X227006236Y-60171696D01*
X227006234Y-60171699D01*
X226998969Y-60191079D01*
X226958255Y-60299684D01*
X226951500Y-60361866D01*
X226951500Y-61558134D01*
X226958255Y-61620316D01*
X226961029Y-61627715D01*
X227000192Y-61732182D01*
X227008245Y-61753663D01*
X227009385Y-61756705D01*
X227008534Y-61757024D01*
X227022055Y-61818849D01*
X227009042Y-61863166D01*
X227009385Y-61863295D01*
X227006236Y-61871696D01*
X227006234Y-61871699D01*
X226993484Y-61905710D01*
X226958255Y-61999684D01*
X226951500Y-62061866D01*
X226951500Y-62865500D01*
X226931498Y-62933621D01*
X226877842Y-62980114D01*
X226825500Y-62991500D01*
X225279759Y-62991500D01*
X225211638Y-62971498D01*
X225166666Y-62919598D01*
X225162135Y-62915671D01*
X225154452Y-62914000D01*
X223532000Y-62914000D01*
X223463879Y-62893998D01*
X223417386Y-62840342D01*
X223406000Y-62788000D01*
X223406000Y-62532000D01*
X223426002Y-62463879D01*
X223479658Y-62417386D01*
X223532000Y-62406000D01*
X225149884Y-62406000D01*
X225165123Y-62401525D01*
X225166328Y-62400135D01*
X225167999Y-62392452D01*
X225167999Y-62065331D01*
X225167629Y-62058510D01*
X225162105Y-62007648D01*
X225158479Y-61992396D01*
X225113321Y-61871939D01*
X225112826Y-61871034D01*
X225112607Y-61870034D01*
X225110172Y-61863538D01*
X225111110Y-61863186D01*
X225097657Y-61801677D01*
X225110838Y-61756788D01*
X225110615Y-61756705D01*
X225111756Y-61753663D01*
X225111758Y-61753656D01*
X225119809Y-61732182D01*
X225158971Y-61627715D01*
X225161745Y-61620316D01*
X225168500Y-61558134D01*
X225168500Y-60361866D01*
X225161745Y-60299684D01*
X225121031Y-60191079D01*
X225113766Y-60171699D01*
X225113764Y-60171696D01*
X225110615Y-60163295D01*
X225111466Y-60162976D01*
X225097945Y-60101151D01*
X225110958Y-60056834D01*
X225110615Y-60056705D01*
X225112372Y-60052019D01*
X225112373Y-60052015D01*
X225128694Y-60008481D01*
X225144024Y-59967586D01*
X225161745Y-59920316D01*
X225168500Y-59858134D01*
X225168500Y-58661866D01*
X225161745Y-58599684D01*
X225110615Y-58463295D01*
X225023261Y-58346739D01*
X224906705Y-58259385D01*
X224770316Y-58208255D01*
X224708134Y-58201500D01*
X222611866Y-58201500D01*
X222549684Y-58208255D01*
X222413295Y-58259385D01*
X222339566Y-58314642D01*
X222325565Y-58325135D01*
X222259059Y-58349983D01*
X222189676Y-58334930D01*
X222174435Y-58325135D01*
X222160434Y-58314642D01*
X222086705Y-58259385D01*
X221950316Y-58208255D01*
X221888134Y-58201500D01*
X219791866Y-58201500D01*
X219729684Y-58208255D01*
X219593295Y-58259385D01*
X219476739Y-58346739D01*
X219389385Y-58463295D01*
X219338255Y-58599684D01*
X219331500Y-58661866D01*
X219331500Y-59858134D01*
X219338255Y-59920316D01*
X219355976Y-59967586D01*
X219371307Y-60008481D01*
X219389385Y-60056705D01*
X219388534Y-60057024D01*
X219402055Y-60118849D01*
X219389042Y-60163166D01*
X219389385Y-60163295D01*
X219386236Y-60171696D01*
X219386234Y-60171699D01*
X219378969Y-60191079D01*
X219338255Y-60299684D01*
X219331500Y-60361866D01*
X219331500Y-61558134D01*
X219338255Y-61620316D01*
X219341029Y-61627715D01*
X219380192Y-61732182D01*
X219388245Y-61753663D01*
X219389385Y-61756705D01*
X219388534Y-61757024D01*
X219402055Y-61818849D01*
X219389042Y-61863166D01*
X219389385Y-61863295D01*
X219386236Y-61871696D01*
X219386234Y-61871699D01*
X219373484Y-61905710D01*
X219338255Y-61999684D01*
X219331500Y-62061866D01*
X219331500Y-62865500D01*
X219311498Y-62933621D01*
X219257842Y-62980114D01*
X219205500Y-62991500D01*
X217659759Y-62991500D01*
X217591638Y-62971498D01*
X217546666Y-62919598D01*
X217542135Y-62915671D01*
X217534452Y-62914000D01*
X215912000Y-62914000D01*
X215843879Y-62893998D01*
X215797386Y-62840342D01*
X215786000Y-62788000D01*
X215786000Y-62532000D01*
X215806002Y-62463879D01*
X215859658Y-62417386D01*
X215912000Y-62406000D01*
X217529884Y-62406000D01*
X217545123Y-62401525D01*
X217546328Y-62400135D01*
X217547999Y-62392452D01*
X217547999Y-62065331D01*
X217547629Y-62058510D01*
X217542105Y-62007648D01*
X217538479Y-61992396D01*
X217493321Y-61871939D01*
X217492826Y-61871034D01*
X217492607Y-61870034D01*
X217490172Y-61863538D01*
X217491110Y-61863186D01*
X217477657Y-61801677D01*
X217490838Y-61756788D01*
X217490615Y-61756705D01*
X217491756Y-61753663D01*
X217491758Y-61753656D01*
X217499809Y-61732182D01*
X217538971Y-61627715D01*
X217541745Y-61620316D01*
X217548500Y-61558134D01*
X217548500Y-60361866D01*
X217541745Y-60299684D01*
X217501031Y-60191079D01*
X217493766Y-60171699D01*
X217493764Y-60171696D01*
X217490615Y-60163295D01*
X217491466Y-60162976D01*
X217477945Y-60101151D01*
X217490958Y-60056834D01*
X217490615Y-60056705D01*
X217492372Y-60052019D01*
X217492373Y-60052015D01*
X217508694Y-60008481D01*
X217524024Y-59967586D01*
X217541745Y-59920316D01*
X217548500Y-59858134D01*
X217548500Y-58661866D01*
X217541745Y-58599684D01*
X217490615Y-58463295D01*
X217403261Y-58346739D01*
X217286705Y-58259385D01*
X217150316Y-58208255D01*
X217088134Y-58201500D01*
X214991866Y-58201500D01*
X214929684Y-58208255D01*
X214793295Y-58259385D01*
X214719566Y-58314642D01*
X214705565Y-58325135D01*
X214639059Y-58349983D01*
X214569676Y-58334930D01*
X214554435Y-58325135D01*
X214540434Y-58314642D01*
X214466705Y-58259385D01*
X214330316Y-58208255D01*
X214268134Y-58201500D01*
X212171866Y-58201500D01*
X212109684Y-58208255D01*
X211973295Y-58259385D01*
X211856739Y-58346739D01*
X211769385Y-58463295D01*
X211718255Y-58599684D01*
X211711500Y-58661866D01*
X211711500Y-59858134D01*
X211718255Y-59920316D01*
X211735976Y-59967586D01*
X211751307Y-60008481D01*
X211769385Y-60056705D01*
X211768534Y-60057024D01*
X211782055Y-60118849D01*
X211769042Y-60163166D01*
X211769385Y-60163295D01*
X211766236Y-60171696D01*
X211766234Y-60171699D01*
X211758969Y-60191079D01*
X211718255Y-60299684D01*
X211711500Y-60361866D01*
X211711500Y-61558134D01*
X211718255Y-61620316D01*
X211721029Y-61627715D01*
X211760192Y-61732182D01*
X211768245Y-61753663D01*
X211769385Y-61756705D01*
X211768534Y-61757024D01*
X211782055Y-61818849D01*
X211769042Y-61863166D01*
X211769385Y-61863295D01*
X211766236Y-61871696D01*
X211766234Y-61871699D01*
X211753484Y-61905710D01*
X211718255Y-61999684D01*
X211711500Y-62061866D01*
X211711500Y-62865500D01*
X211691498Y-62933621D01*
X211637842Y-62980114D01*
X211585500Y-62991500D01*
X210039759Y-62991500D01*
X209971638Y-62971498D01*
X209926666Y-62919598D01*
X209922135Y-62915671D01*
X209914452Y-62914000D01*
X208292000Y-62914000D01*
X208223879Y-62893998D01*
X208177386Y-62840342D01*
X208166000Y-62788000D01*
X208166000Y-62532000D01*
X208186002Y-62463879D01*
X208239658Y-62417386D01*
X208292000Y-62406000D01*
X209909884Y-62406000D01*
X209925123Y-62401525D01*
X209926328Y-62400135D01*
X209927999Y-62392452D01*
X209927999Y-62065331D01*
X209927629Y-62058510D01*
X209922105Y-62007648D01*
X209918479Y-61992396D01*
X209873321Y-61871939D01*
X209872826Y-61871034D01*
X209872607Y-61870034D01*
X209870172Y-61863538D01*
X209871110Y-61863186D01*
X209857657Y-61801677D01*
X209870838Y-61756788D01*
X209870615Y-61756705D01*
X209871756Y-61753663D01*
X209871758Y-61753656D01*
X209879809Y-61732182D01*
X209918971Y-61627715D01*
X209921745Y-61620316D01*
X209928500Y-61558134D01*
X209928500Y-60361866D01*
X209921745Y-60299684D01*
X209881031Y-60191079D01*
X209873766Y-60171699D01*
X209873764Y-60171696D01*
X209870615Y-60163295D01*
X209871466Y-60162976D01*
X209857945Y-60101151D01*
X209870958Y-60056834D01*
X209870615Y-60056705D01*
X209872372Y-60052019D01*
X209872373Y-60052015D01*
X209888694Y-60008481D01*
X209904024Y-59967586D01*
X209921745Y-59920316D01*
X209928500Y-59858134D01*
X209928500Y-58661866D01*
X209921745Y-58599684D01*
X209870615Y-58463295D01*
X209783261Y-58346739D01*
X209666705Y-58259385D01*
X209530316Y-58208255D01*
X209468134Y-58201500D01*
X207371866Y-58201500D01*
X207309684Y-58208255D01*
X207173295Y-58259385D01*
X207099566Y-58314642D01*
X207085565Y-58325135D01*
X207019059Y-58349983D01*
X206949676Y-58334930D01*
X206934435Y-58325135D01*
X206920434Y-58314642D01*
X206846705Y-58259385D01*
X206710316Y-58208255D01*
X206648134Y-58201500D01*
X204551866Y-58201500D01*
X204489684Y-58208255D01*
X204353295Y-58259385D01*
X204236739Y-58346739D01*
X204149385Y-58463295D01*
X204098255Y-58599684D01*
X204091500Y-58661866D01*
X204091500Y-59858134D01*
X204098255Y-59920316D01*
X204115976Y-59967586D01*
X204131307Y-60008481D01*
X204149385Y-60056705D01*
X204148534Y-60057024D01*
X204162055Y-60118849D01*
X204149042Y-60163166D01*
X204149385Y-60163295D01*
X204146236Y-60171696D01*
X204146234Y-60171699D01*
X204138969Y-60191079D01*
X204098255Y-60299684D01*
X204091500Y-60361866D01*
X204091500Y-61558134D01*
X204098255Y-61620316D01*
X204101029Y-61627715D01*
X204140192Y-61732182D01*
X204148245Y-61753663D01*
X204149385Y-61756705D01*
X204148534Y-61757024D01*
X204162055Y-61818849D01*
X204149042Y-61863166D01*
X204149385Y-61863295D01*
X204146236Y-61871696D01*
X204146234Y-61871699D01*
X204133484Y-61905710D01*
X204098255Y-61999684D01*
X204091500Y-62061866D01*
X204091500Y-62865500D01*
X204071498Y-62933621D01*
X204017842Y-62980114D01*
X203965500Y-62991500D01*
X202419759Y-62991500D01*
X202351638Y-62971498D01*
X202306666Y-62919598D01*
X202302135Y-62915671D01*
X202294452Y-62914000D01*
X200672000Y-62914000D01*
X200603879Y-62893998D01*
X200557386Y-62840342D01*
X200546000Y-62788000D01*
X200546000Y-62532000D01*
X200566002Y-62463879D01*
X200619658Y-62417386D01*
X200672000Y-62406000D01*
X202289884Y-62406000D01*
X202305123Y-62401525D01*
X202306328Y-62400135D01*
X202307999Y-62392452D01*
X202307999Y-62065331D01*
X202307629Y-62058510D01*
X202302105Y-62007648D01*
X202298479Y-61992396D01*
X202253321Y-61871939D01*
X202252826Y-61871034D01*
X202252607Y-61870034D01*
X202250172Y-61863538D01*
X202251110Y-61863186D01*
X202237657Y-61801677D01*
X202250838Y-61756788D01*
X202250615Y-61756705D01*
X202251756Y-61753663D01*
X202251758Y-61753656D01*
X202259809Y-61732182D01*
X202298971Y-61627715D01*
X202301745Y-61620316D01*
X202308500Y-61558134D01*
X202308500Y-60361866D01*
X202301745Y-60299684D01*
X202261031Y-60191079D01*
X202253766Y-60171699D01*
X202253764Y-60171696D01*
X202250615Y-60163295D01*
X202251466Y-60162976D01*
X202237945Y-60101151D01*
X202250958Y-60056834D01*
X202250615Y-60056705D01*
X202252372Y-60052019D01*
X202252373Y-60052015D01*
X202268694Y-60008481D01*
X202284024Y-59967586D01*
X202301745Y-59920316D01*
X202308500Y-59858134D01*
X202308500Y-58661866D01*
X202301745Y-58599684D01*
X202250615Y-58463295D01*
X202163261Y-58346739D01*
X202046705Y-58259385D01*
X201910316Y-58208255D01*
X201848134Y-58201500D01*
X199751866Y-58201500D01*
X199689684Y-58208255D01*
X199553295Y-58259385D01*
X199479566Y-58314642D01*
X199465565Y-58325135D01*
X199399059Y-58349983D01*
X199329676Y-58334930D01*
X199314435Y-58325135D01*
X199300434Y-58314642D01*
X199226705Y-58259385D01*
X199090316Y-58208255D01*
X199028134Y-58201500D01*
X196931866Y-58201500D01*
X196869684Y-58208255D01*
X196733295Y-58259385D01*
X196616739Y-58346739D01*
X196529385Y-58463295D01*
X196478255Y-58599684D01*
X196471500Y-58661866D01*
X196471500Y-59858134D01*
X196478255Y-59920316D01*
X196495976Y-59967586D01*
X196511307Y-60008481D01*
X196529385Y-60056705D01*
X196528534Y-60057024D01*
X196542055Y-60118849D01*
X196529042Y-60163166D01*
X196529385Y-60163295D01*
X196526236Y-60171696D01*
X196526234Y-60171699D01*
X196518969Y-60191079D01*
X196478255Y-60299684D01*
X196471500Y-60361866D01*
X196471500Y-61558134D01*
X196478255Y-61620316D01*
X196481029Y-61627715D01*
X196520192Y-61732182D01*
X196528245Y-61753663D01*
X196529385Y-61756705D01*
X196528534Y-61757024D01*
X196542055Y-61818849D01*
X196529042Y-61863166D01*
X196529385Y-61863295D01*
X196526236Y-61871696D01*
X196526234Y-61871699D01*
X196513484Y-61905710D01*
X196478255Y-61999684D01*
X196471500Y-62061866D01*
X196471500Y-62865500D01*
X196451498Y-62933621D01*
X196397842Y-62980114D01*
X196345500Y-62991500D01*
X194799759Y-62991500D01*
X194731638Y-62971498D01*
X194686666Y-62919598D01*
X194682135Y-62915671D01*
X194674452Y-62914000D01*
X193052000Y-62914000D01*
X192983879Y-62893998D01*
X192937386Y-62840342D01*
X192926000Y-62788000D01*
X192926000Y-62532000D01*
X192946002Y-62463879D01*
X192999658Y-62417386D01*
X193052000Y-62406000D01*
X194669884Y-62406000D01*
X194685123Y-62401525D01*
X194686328Y-62400135D01*
X194687999Y-62392452D01*
X194687999Y-62065331D01*
X194687629Y-62058510D01*
X194682105Y-62007648D01*
X194678479Y-61992396D01*
X194633321Y-61871939D01*
X194632826Y-61871034D01*
X194632607Y-61870034D01*
X194630172Y-61863538D01*
X194631110Y-61863186D01*
X194617657Y-61801677D01*
X194630838Y-61756788D01*
X194630615Y-61756705D01*
X194631756Y-61753663D01*
X194631758Y-61753656D01*
X194639809Y-61732182D01*
X194678971Y-61627715D01*
X194681745Y-61620316D01*
X194688500Y-61558134D01*
X194688500Y-60361866D01*
X194681745Y-60299684D01*
X194641031Y-60191079D01*
X194633766Y-60171699D01*
X194633764Y-60171696D01*
X194630615Y-60163295D01*
X194631466Y-60162976D01*
X194617945Y-60101151D01*
X194630958Y-60056834D01*
X194630615Y-60056705D01*
X194632372Y-60052019D01*
X194632373Y-60052015D01*
X194648694Y-60008481D01*
X194664024Y-59967586D01*
X194681745Y-59920316D01*
X194688500Y-59858134D01*
X194688500Y-58661866D01*
X194681745Y-58599684D01*
X194630615Y-58463295D01*
X194543261Y-58346739D01*
X194426705Y-58259385D01*
X194290316Y-58208255D01*
X194228134Y-58201500D01*
X192131866Y-58201500D01*
X192069684Y-58208255D01*
X191933295Y-58259385D01*
X191859566Y-58314642D01*
X191845565Y-58325135D01*
X191779059Y-58349983D01*
X191709676Y-58334930D01*
X191694435Y-58325135D01*
X191680434Y-58314642D01*
X191606705Y-58259385D01*
X191470316Y-58208255D01*
X191408134Y-58201500D01*
X189311866Y-58201500D01*
X189249684Y-58208255D01*
X189113295Y-58259385D01*
X188996739Y-58346739D01*
X188909385Y-58463295D01*
X188858255Y-58599684D01*
X188851500Y-58661866D01*
X188851500Y-59858134D01*
X188858255Y-59920316D01*
X188875976Y-59967586D01*
X188891307Y-60008481D01*
X188909385Y-60056705D01*
X188908534Y-60057024D01*
X188922055Y-60118849D01*
X188909042Y-60163166D01*
X188909385Y-60163295D01*
X188906236Y-60171696D01*
X188906234Y-60171699D01*
X188898969Y-60191079D01*
X188858255Y-60299684D01*
X188851500Y-60361866D01*
X188851500Y-61558134D01*
X188858255Y-61620316D01*
X188861029Y-61627715D01*
X188900192Y-61732182D01*
X188908245Y-61753663D01*
X188909385Y-61756705D01*
X188908534Y-61757024D01*
X188922055Y-61818849D01*
X188909042Y-61863166D01*
X188909385Y-61863295D01*
X188906236Y-61871696D01*
X188906234Y-61871699D01*
X188893484Y-61905710D01*
X188858255Y-61999684D01*
X188851500Y-62061866D01*
X188851500Y-62865500D01*
X188831498Y-62933621D01*
X188777842Y-62980114D01*
X188725500Y-62991500D01*
X187179759Y-62991500D01*
X187111638Y-62971498D01*
X187066666Y-62919598D01*
X187062135Y-62915671D01*
X187054452Y-62914000D01*
X185432000Y-62914000D01*
X185363879Y-62893998D01*
X185317386Y-62840342D01*
X185306000Y-62788000D01*
X185306000Y-62532000D01*
X185326002Y-62463879D01*
X185379658Y-62417386D01*
X185432000Y-62406000D01*
X187049884Y-62406000D01*
X187065123Y-62401525D01*
X187066328Y-62400135D01*
X187067999Y-62392452D01*
X187067999Y-62065331D01*
X187067629Y-62058510D01*
X187062105Y-62007648D01*
X187058479Y-61992396D01*
X187013321Y-61871939D01*
X187012826Y-61871034D01*
X187012607Y-61870034D01*
X187010172Y-61863538D01*
X187011110Y-61863186D01*
X186997657Y-61801677D01*
X187010838Y-61756788D01*
X187010615Y-61756705D01*
X187011756Y-61753663D01*
X187011758Y-61753656D01*
X187019809Y-61732182D01*
X187058971Y-61627715D01*
X187061745Y-61620316D01*
X187068500Y-61558134D01*
X187068500Y-60361866D01*
X187061745Y-60299684D01*
X187021031Y-60191079D01*
X187013766Y-60171699D01*
X187013764Y-60171696D01*
X187010615Y-60163295D01*
X187011466Y-60162976D01*
X186997945Y-60101151D01*
X187010958Y-60056834D01*
X187010615Y-60056705D01*
X187012372Y-60052019D01*
X187012373Y-60052015D01*
X187028694Y-60008481D01*
X187044024Y-59967586D01*
X187061745Y-59920316D01*
X187068500Y-59858134D01*
X187068500Y-58661866D01*
X187061745Y-58599684D01*
X187010615Y-58463295D01*
X186923261Y-58346739D01*
X186806705Y-58259385D01*
X186670316Y-58208255D01*
X186608134Y-58201500D01*
X184511866Y-58201500D01*
X184449684Y-58208255D01*
X184313295Y-58259385D01*
X184239566Y-58314642D01*
X184225565Y-58325135D01*
X184159059Y-58349983D01*
X184089676Y-58334930D01*
X184074435Y-58325135D01*
X184060434Y-58314642D01*
X183986705Y-58259385D01*
X183850316Y-58208255D01*
X183788134Y-58201500D01*
X181691866Y-58201500D01*
X181629684Y-58208255D01*
X181493295Y-58259385D01*
X181376739Y-58346739D01*
X181289385Y-58463295D01*
X181238255Y-58599684D01*
X181231500Y-58661866D01*
X181231500Y-59858134D01*
X181238255Y-59920316D01*
X181255976Y-59967586D01*
X181271307Y-60008481D01*
X181289385Y-60056705D01*
X181288534Y-60057024D01*
X181302055Y-60118849D01*
X181289042Y-60163166D01*
X181289385Y-60163295D01*
X181286236Y-60171696D01*
X181286234Y-60171699D01*
X181278969Y-60191079D01*
X181238255Y-60299684D01*
X181231500Y-60361866D01*
X181231500Y-61558134D01*
X181238255Y-61620316D01*
X181241029Y-61627715D01*
X181280192Y-61732182D01*
X181288245Y-61753663D01*
X181289385Y-61756705D01*
X181288534Y-61757024D01*
X181302055Y-61818849D01*
X181289042Y-61863166D01*
X181289385Y-61863295D01*
X181286236Y-61871696D01*
X181286234Y-61871699D01*
X181273484Y-61905710D01*
X181238255Y-61999684D01*
X181231500Y-62061866D01*
X181231500Y-62865500D01*
X181211498Y-62933621D01*
X181157842Y-62980114D01*
X181105500Y-62991500D01*
X179559759Y-62991500D01*
X179491638Y-62971498D01*
X179446666Y-62919598D01*
X179442135Y-62915671D01*
X179434452Y-62914000D01*
X177812000Y-62914000D01*
X177743879Y-62893998D01*
X177697386Y-62840342D01*
X177686000Y-62788000D01*
X177686000Y-62532000D01*
X177706002Y-62463879D01*
X177759658Y-62417386D01*
X177812000Y-62406000D01*
X179429884Y-62406000D01*
X179445123Y-62401525D01*
X179446328Y-62400135D01*
X179447999Y-62392452D01*
X179447999Y-62065331D01*
X179447629Y-62058510D01*
X179442105Y-62007648D01*
X179438479Y-61992396D01*
X179393321Y-61871939D01*
X179392826Y-61871034D01*
X179392607Y-61870034D01*
X179390172Y-61863538D01*
X179391110Y-61863186D01*
X179377657Y-61801677D01*
X179390838Y-61756788D01*
X179390615Y-61756705D01*
X179391756Y-61753663D01*
X179391758Y-61753656D01*
X179399809Y-61732182D01*
X179438971Y-61627715D01*
X179441745Y-61620316D01*
X179448500Y-61558134D01*
X179448500Y-60361866D01*
X179441745Y-60299684D01*
X179401031Y-60191079D01*
X179393766Y-60171699D01*
X179393764Y-60171696D01*
X179390615Y-60163295D01*
X179391466Y-60162976D01*
X179377945Y-60101151D01*
X179390958Y-60056834D01*
X179390615Y-60056705D01*
X179392372Y-60052019D01*
X179392373Y-60052015D01*
X179408694Y-60008481D01*
X179424024Y-59967586D01*
X179441745Y-59920316D01*
X179448500Y-59858134D01*
X179448500Y-58661866D01*
X179441745Y-58599684D01*
X179390615Y-58463295D01*
X179303261Y-58346739D01*
X179186705Y-58259385D01*
X179050316Y-58208255D01*
X178988134Y-58201500D01*
X176891866Y-58201500D01*
X176829684Y-58208255D01*
X176693295Y-58259385D01*
X176619566Y-58314642D01*
X176605565Y-58325135D01*
X176539059Y-58349983D01*
X176469676Y-58334930D01*
X176454435Y-58325135D01*
X176440434Y-58314642D01*
X176366705Y-58259385D01*
X176230316Y-58208255D01*
X176168134Y-58201500D01*
X174071866Y-58201500D01*
X174009684Y-58208255D01*
X173873295Y-58259385D01*
X173756739Y-58346739D01*
X173669385Y-58463295D01*
X173618255Y-58599684D01*
X173611500Y-58661866D01*
X173611500Y-59858134D01*
X173618255Y-59920316D01*
X173635976Y-59967586D01*
X173651307Y-60008481D01*
X173669385Y-60056705D01*
X173668534Y-60057024D01*
X173682055Y-60118849D01*
X173669042Y-60163166D01*
X173669385Y-60163295D01*
X173666236Y-60171696D01*
X173666234Y-60171699D01*
X173658969Y-60191079D01*
X173618255Y-60299684D01*
X173611500Y-60361866D01*
X173611500Y-61558134D01*
X173618255Y-61620316D01*
X173621029Y-61627715D01*
X173660192Y-61732182D01*
X173668245Y-61753663D01*
X173669385Y-61756705D01*
X173668534Y-61757024D01*
X173682055Y-61818849D01*
X173669042Y-61863166D01*
X173669385Y-61863295D01*
X173666236Y-61871696D01*
X173666234Y-61871699D01*
X173653484Y-61905710D01*
X173618255Y-61999684D01*
X173611500Y-62061866D01*
X173611500Y-62865500D01*
X173591498Y-62933621D01*
X173537842Y-62980114D01*
X173485500Y-62991500D01*
X171939759Y-62991500D01*
X171871638Y-62971498D01*
X171826666Y-62919598D01*
X171822135Y-62915671D01*
X171814452Y-62914000D01*
X170192000Y-62914000D01*
X170123879Y-62893998D01*
X170077386Y-62840342D01*
X170066000Y-62788000D01*
X170066000Y-62532000D01*
X170086002Y-62463879D01*
X170139658Y-62417386D01*
X170192000Y-62406000D01*
X171809884Y-62406000D01*
X171825123Y-62401525D01*
X171826328Y-62400135D01*
X171827999Y-62392452D01*
X171827999Y-62065331D01*
X171827629Y-62058510D01*
X171822105Y-62007648D01*
X171818479Y-61992396D01*
X171773321Y-61871939D01*
X171772826Y-61871034D01*
X171772607Y-61870034D01*
X171770172Y-61863538D01*
X171771110Y-61863186D01*
X171757657Y-61801677D01*
X171770838Y-61756788D01*
X171770615Y-61756705D01*
X171771756Y-61753663D01*
X171771758Y-61753656D01*
X171779809Y-61732182D01*
X171818971Y-61627715D01*
X171821745Y-61620316D01*
X171828500Y-61558134D01*
X171828500Y-60361866D01*
X171821745Y-60299684D01*
X171781031Y-60191079D01*
X171773766Y-60171699D01*
X171773764Y-60171696D01*
X171770615Y-60163295D01*
X171771466Y-60162976D01*
X171757945Y-60101151D01*
X171770958Y-60056834D01*
X171770615Y-60056705D01*
X171772372Y-60052019D01*
X171772373Y-60052015D01*
X171788694Y-60008481D01*
X171804024Y-59967586D01*
X171821745Y-59920316D01*
X171828500Y-59858134D01*
X171828500Y-58661866D01*
X171821745Y-58599684D01*
X171770615Y-58463295D01*
X171683261Y-58346739D01*
X171566705Y-58259385D01*
X171430316Y-58208255D01*
X171368134Y-58201500D01*
X169271866Y-58201500D01*
X169209684Y-58208255D01*
X169073295Y-58259385D01*
X168999566Y-58314642D01*
X168985565Y-58325135D01*
X168919059Y-58349983D01*
X168849676Y-58334930D01*
X168834435Y-58325135D01*
X168820434Y-58314642D01*
X168746705Y-58259385D01*
X168610316Y-58208255D01*
X168548134Y-58201500D01*
X166451866Y-58201500D01*
X166389684Y-58208255D01*
X166253295Y-58259385D01*
X166136739Y-58346739D01*
X166049385Y-58463295D01*
X165998255Y-58599684D01*
X165991500Y-58661866D01*
X165991500Y-59858134D01*
X165998255Y-59920316D01*
X166015976Y-59967586D01*
X166031307Y-60008481D01*
X166049385Y-60056705D01*
X166048534Y-60057024D01*
X166062055Y-60118849D01*
X166049042Y-60163166D01*
X166049385Y-60163295D01*
X166046236Y-60171696D01*
X166046234Y-60171699D01*
X166038969Y-60191079D01*
X165998255Y-60299684D01*
X165991500Y-60361866D01*
X165991500Y-61558134D01*
X165998255Y-61620316D01*
X166001029Y-61627715D01*
X166040192Y-61732182D01*
X166048245Y-61753663D01*
X166049385Y-61756705D01*
X166048534Y-61757024D01*
X166062055Y-61818849D01*
X166049042Y-61863166D01*
X166049385Y-61863295D01*
X166046236Y-61871696D01*
X166046234Y-61871699D01*
X166033484Y-61905710D01*
X165998255Y-61999684D01*
X165991500Y-62061866D01*
X165991500Y-62865500D01*
X165971498Y-62933621D01*
X165917842Y-62980114D01*
X165865500Y-62991500D01*
X164319759Y-62991500D01*
X164251638Y-62971498D01*
X164206666Y-62919598D01*
X164202135Y-62915671D01*
X164194452Y-62914000D01*
X162572000Y-62914000D01*
X162503879Y-62893998D01*
X162457386Y-62840342D01*
X162446000Y-62788000D01*
X162446000Y-62532000D01*
X162466002Y-62463879D01*
X162519658Y-62417386D01*
X162572000Y-62406000D01*
X164189884Y-62406000D01*
X164205123Y-62401525D01*
X164206328Y-62400135D01*
X164207999Y-62392452D01*
X164207999Y-62065331D01*
X164207629Y-62058510D01*
X164202105Y-62007648D01*
X164198479Y-61992396D01*
X164153321Y-61871939D01*
X164152826Y-61871034D01*
X164152607Y-61870034D01*
X164150172Y-61863538D01*
X164151110Y-61863186D01*
X164137657Y-61801677D01*
X164150838Y-61756788D01*
X164150615Y-61756705D01*
X164151756Y-61753663D01*
X164151758Y-61753656D01*
X164159809Y-61732182D01*
X164198971Y-61627715D01*
X164201745Y-61620316D01*
X164208500Y-61558134D01*
X164208500Y-60361866D01*
X164201745Y-60299684D01*
X164161031Y-60191079D01*
X164153766Y-60171699D01*
X164153764Y-60171696D01*
X164150615Y-60163295D01*
X164151466Y-60162976D01*
X164137945Y-60101151D01*
X164150958Y-60056834D01*
X164150615Y-60056705D01*
X164152372Y-60052019D01*
X164152373Y-60052015D01*
X164168694Y-60008481D01*
X164184024Y-59967586D01*
X164201745Y-59920316D01*
X164208500Y-59858134D01*
X164208500Y-58661866D01*
X164201745Y-58599684D01*
X164150615Y-58463295D01*
X164063261Y-58346739D01*
X163946705Y-58259385D01*
X163810316Y-58208255D01*
X163748134Y-58201500D01*
X161651866Y-58201500D01*
X161589684Y-58208255D01*
X161453295Y-58259385D01*
X161379566Y-58314642D01*
X161365565Y-58325135D01*
X161299059Y-58349983D01*
X161229676Y-58334930D01*
X161214435Y-58325135D01*
X161200434Y-58314642D01*
X161126705Y-58259385D01*
X160990316Y-58208255D01*
X160928134Y-58201500D01*
X158831866Y-58201500D01*
X158769684Y-58208255D01*
X158633295Y-58259385D01*
X158516739Y-58346739D01*
X158429385Y-58463295D01*
X158378255Y-58599684D01*
X158371500Y-58661866D01*
X158371500Y-59858134D01*
X158378255Y-59920316D01*
X158395976Y-59967586D01*
X158411307Y-60008481D01*
X158429385Y-60056705D01*
X158428534Y-60057024D01*
X158442055Y-60118849D01*
X158429042Y-60163166D01*
X158429385Y-60163295D01*
X158426236Y-60171696D01*
X158426234Y-60171699D01*
X158418969Y-60191079D01*
X158378255Y-60299684D01*
X158371500Y-60361866D01*
X158371500Y-61558134D01*
X158378255Y-61620316D01*
X158381029Y-61627715D01*
X158420192Y-61732182D01*
X158428245Y-61753663D01*
X158429385Y-61756705D01*
X158428534Y-61757024D01*
X158442055Y-61818849D01*
X158429042Y-61863166D01*
X158429385Y-61863295D01*
X158426236Y-61871696D01*
X158426234Y-61871699D01*
X158413484Y-61905710D01*
X158378255Y-61999684D01*
X158371500Y-62061866D01*
X158371500Y-62865500D01*
X158351498Y-62933621D01*
X158297842Y-62980114D01*
X158245500Y-62991500D01*
X156699759Y-62991500D01*
X156631638Y-62971498D01*
X156586666Y-62919598D01*
X156582135Y-62915671D01*
X156574452Y-62914000D01*
X154952000Y-62914000D01*
X154883879Y-62893998D01*
X154837386Y-62840342D01*
X154826000Y-62788000D01*
X154826000Y-62532000D01*
X154846002Y-62463879D01*
X154899658Y-62417386D01*
X154952000Y-62406000D01*
X156569884Y-62406000D01*
X156585123Y-62401525D01*
X156586328Y-62400135D01*
X156587999Y-62392452D01*
X156587999Y-62065331D01*
X156587629Y-62058510D01*
X156582105Y-62007648D01*
X156578479Y-61992396D01*
X156533321Y-61871939D01*
X156532826Y-61871034D01*
X156532607Y-61870034D01*
X156530172Y-61863538D01*
X156531110Y-61863186D01*
X156517657Y-61801677D01*
X156530838Y-61756788D01*
X156530615Y-61756705D01*
X156531756Y-61753663D01*
X156531758Y-61753656D01*
X156539809Y-61732182D01*
X156578971Y-61627715D01*
X156581745Y-61620316D01*
X156588500Y-61558134D01*
X156588500Y-60361866D01*
X156581745Y-60299684D01*
X156541031Y-60191079D01*
X156533766Y-60171699D01*
X156533764Y-60171696D01*
X156530615Y-60163295D01*
X156531466Y-60162976D01*
X156517945Y-60101151D01*
X156530958Y-60056834D01*
X156530615Y-60056705D01*
X156532372Y-60052019D01*
X156532373Y-60052015D01*
X156548694Y-60008481D01*
X156564024Y-59967586D01*
X156581745Y-59920316D01*
X156588500Y-59858134D01*
X156588500Y-58661866D01*
X156581745Y-58599684D01*
X156530615Y-58463295D01*
X156443261Y-58346739D01*
X156326705Y-58259385D01*
X156190316Y-58208255D01*
X156128134Y-58201500D01*
X154031866Y-58201500D01*
X153969684Y-58208255D01*
X153833295Y-58259385D01*
X153759566Y-58314642D01*
X153745565Y-58325135D01*
X153679059Y-58349983D01*
X153609676Y-58334930D01*
X153594435Y-58325135D01*
X153580434Y-58314642D01*
X153506705Y-58259385D01*
X153370316Y-58208255D01*
X153308134Y-58201500D01*
X151211866Y-58201500D01*
X151149684Y-58208255D01*
X151013295Y-58259385D01*
X150896739Y-58346739D01*
X150809385Y-58463295D01*
X150758255Y-58599684D01*
X150751500Y-58661866D01*
X150751500Y-59858134D01*
X150758255Y-59920316D01*
X150775976Y-59967586D01*
X150791307Y-60008481D01*
X150809385Y-60056705D01*
X150808534Y-60057024D01*
X150822055Y-60118849D01*
X150809042Y-60163166D01*
X150809385Y-60163295D01*
X150806236Y-60171696D01*
X150806234Y-60171699D01*
X150798969Y-60191079D01*
X150758255Y-60299684D01*
X150751500Y-60361866D01*
X150751500Y-61558134D01*
X150758255Y-61620316D01*
X150761029Y-61627715D01*
X150800192Y-61732182D01*
X150808245Y-61753663D01*
X150809385Y-61756705D01*
X150808534Y-61757024D01*
X150822055Y-61818849D01*
X150809042Y-61863166D01*
X150809385Y-61863295D01*
X150806236Y-61871696D01*
X150806234Y-61871699D01*
X150793484Y-61905710D01*
X150758255Y-61999684D01*
X150751500Y-62061866D01*
X150751500Y-62865500D01*
X150731498Y-62933621D01*
X150677842Y-62980114D01*
X150625500Y-62991500D01*
X149079759Y-62991500D01*
X149011638Y-62971498D01*
X148966666Y-62919598D01*
X148962135Y-62915671D01*
X148954452Y-62914000D01*
X147332000Y-62914000D01*
X147263879Y-62893998D01*
X147217386Y-62840342D01*
X147206000Y-62788000D01*
X147206000Y-62532000D01*
X147226002Y-62463879D01*
X147279658Y-62417386D01*
X147332000Y-62406000D01*
X148949884Y-62406000D01*
X148965123Y-62401525D01*
X148966328Y-62400135D01*
X148967999Y-62392452D01*
X148967999Y-62065331D01*
X148967629Y-62058510D01*
X148962105Y-62007648D01*
X148958479Y-61992396D01*
X148913321Y-61871939D01*
X148912826Y-61871034D01*
X148912607Y-61870034D01*
X148910172Y-61863538D01*
X148911110Y-61863186D01*
X148897657Y-61801677D01*
X148910838Y-61756788D01*
X148910615Y-61756705D01*
X148911756Y-61753663D01*
X148911758Y-61753656D01*
X148919809Y-61732182D01*
X148958971Y-61627715D01*
X148961745Y-61620316D01*
X148968500Y-61558134D01*
X148968500Y-60361866D01*
X148961745Y-60299684D01*
X148921031Y-60191079D01*
X148913766Y-60171699D01*
X148913764Y-60171696D01*
X148910615Y-60163295D01*
X148911466Y-60162976D01*
X148897945Y-60101151D01*
X148910958Y-60056834D01*
X148910615Y-60056705D01*
X148912372Y-60052019D01*
X148912373Y-60052015D01*
X148928694Y-60008481D01*
X148944024Y-59967586D01*
X148961745Y-59920316D01*
X148968500Y-59858134D01*
X148968500Y-58661866D01*
X148961745Y-58599684D01*
X148910615Y-58463295D01*
X148823261Y-58346739D01*
X148706705Y-58259385D01*
X148570316Y-58208255D01*
X148508134Y-58201500D01*
X146411866Y-58201500D01*
X146349684Y-58208255D01*
X146213295Y-58259385D01*
X146139566Y-58314642D01*
X146125565Y-58325135D01*
X146059059Y-58349983D01*
X145989676Y-58334930D01*
X145974435Y-58325135D01*
X145960434Y-58314642D01*
X145886705Y-58259385D01*
X145750316Y-58208255D01*
X145688134Y-58201500D01*
X143591866Y-58201500D01*
X143529684Y-58208255D01*
X143393295Y-58259385D01*
X143276739Y-58346739D01*
X143189385Y-58463295D01*
X143138255Y-58599684D01*
X143131500Y-58661866D01*
X143131500Y-59858134D01*
X143138255Y-59920316D01*
X143155976Y-59967586D01*
X143171307Y-60008481D01*
X143189385Y-60056705D01*
X143188534Y-60057024D01*
X143202055Y-60118849D01*
X143189042Y-60163166D01*
X143189385Y-60163295D01*
X143186236Y-60171696D01*
X143186234Y-60171699D01*
X143178969Y-60191079D01*
X143138255Y-60299684D01*
X143131500Y-60361866D01*
X143131500Y-61558134D01*
X143138255Y-61620316D01*
X143141029Y-61627715D01*
X143180192Y-61732182D01*
X143188245Y-61753663D01*
X143189385Y-61756705D01*
X143188534Y-61757024D01*
X143202055Y-61818849D01*
X143189042Y-61863166D01*
X143189385Y-61863295D01*
X143186236Y-61871696D01*
X143186234Y-61871699D01*
X143173484Y-61905710D01*
X143138255Y-61999684D01*
X143131500Y-62061866D01*
X143131500Y-62865500D01*
X143111498Y-62933621D01*
X143057842Y-62980114D01*
X143005500Y-62991500D01*
X141459759Y-62991500D01*
X141391638Y-62971498D01*
X141346666Y-62919598D01*
X141342135Y-62915671D01*
X141334452Y-62914000D01*
X139712000Y-62914000D01*
X139643879Y-62893998D01*
X139597386Y-62840342D01*
X139586000Y-62788000D01*
X139586000Y-62532000D01*
X139606002Y-62463879D01*
X139659658Y-62417386D01*
X139712000Y-62406000D01*
X141329884Y-62406000D01*
X141345123Y-62401525D01*
X141346328Y-62400135D01*
X141347999Y-62392452D01*
X141347999Y-62065331D01*
X141347629Y-62058510D01*
X141342105Y-62007648D01*
X141338479Y-61992396D01*
X141293321Y-61871939D01*
X141292826Y-61871034D01*
X141292607Y-61870034D01*
X141290172Y-61863538D01*
X141291110Y-61863186D01*
X141277657Y-61801677D01*
X141290838Y-61756788D01*
X141290615Y-61756705D01*
X141291756Y-61753663D01*
X141291758Y-61753656D01*
X141299809Y-61732182D01*
X141338971Y-61627715D01*
X141341745Y-61620316D01*
X141348500Y-61558134D01*
X141348500Y-60361866D01*
X141341745Y-60299684D01*
X141301031Y-60191079D01*
X141293766Y-60171699D01*
X141293764Y-60171696D01*
X141290615Y-60163295D01*
X141291466Y-60162976D01*
X141277945Y-60101151D01*
X141290958Y-60056834D01*
X141290615Y-60056705D01*
X141292372Y-60052019D01*
X141292373Y-60052015D01*
X141308694Y-60008481D01*
X141324024Y-59967586D01*
X141341745Y-59920316D01*
X141348500Y-59858134D01*
X141348500Y-58661866D01*
X141341745Y-58599684D01*
X141290615Y-58463295D01*
X141203261Y-58346739D01*
X141086705Y-58259385D01*
X140950316Y-58208255D01*
X140888134Y-58201500D01*
X138791866Y-58201500D01*
X138729684Y-58208255D01*
X138593295Y-58259385D01*
X138519566Y-58314642D01*
X138505565Y-58325135D01*
X138439059Y-58349983D01*
X138369676Y-58334930D01*
X138354435Y-58325135D01*
X138340434Y-58314642D01*
X138266705Y-58259385D01*
X138130316Y-58208255D01*
X138068134Y-58201500D01*
X135971866Y-58201500D01*
X135909684Y-58208255D01*
X135773295Y-58259385D01*
X135656739Y-58346739D01*
X135569385Y-58463295D01*
X135518255Y-58599684D01*
X135511500Y-58661866D01*
X135511500Y-59858134D01*
X135518255Y-59920316D01*
X135535976Y-59967586D01*
X135551307Y-60008481D01*
X135569385Y-60056705D01*
X135568534Y-60057024D01*
X135582055Y-60118849D01*
X135569042Y-60163166D01*
X135569385Y-60163295D01*
X135566236Y-60171696D01*
X135566234Y-60171699D01*
X135558969Y-60191079D01*
X135518255Y-60299684D01*
X135511500Y-60361866D01*
X135511500Y-61558134D01*
X135518255Y-61620316D01*
X135521029Y-61627715D01*
X135560192Y-61732182D01*
X135568245Y-61753663D01*
X135569385Y-61756705D01*
X135568534Y-61757024D01*
X135582055Y-61818849D01*
X135569042Y-61863166D01*
X135569385Y-61863295D01*
X135566236Y-61871696D01*
X135566234Y-61871699D01*
X135553484Y-61905710D01*
X135518255Y-61999684D01*
X135511500Y-62061866D01*
X135511500Y-62865500D01*
X135491498Y-62933621D01*
X135437842Y-62980114D01*
X135385500Y-62991500D01*
X133839759Y-62991500D01*
X133771638Y-62971498D01*
X133726666Y-62919598D01*
X133722135Y-62915671D01*
X133714452Y-62914000D01*
X132092000Y-62914000D01*
X132023879Y-62893998D01*
X131977386Y-62840342D01*
X131966000Y-62788000D01*
X131966000Y-62532000D01*
X131986002Y-62463879D01*
X132039658Y-62417386D01*
X132092000Y-62406000D01*
X133709884Y-62406000D01*
X133725123Y-62401525D01*
X133726328Y-62400135D01*
X133727999Y-62392452D01*
X133727999Y-62065331D01*
X133727629Y-62058510D01*
X133722105Y-62007648D01*
X133718479Y-61992396D01*
X133673321Y-61871939D01*
X133672826Y-61871034D01*
X133672607Y-61870034D01*
X133670172Y-61863538D01*
X133671110Y-61863186D01*
X133657657Y-61801677D01*
X133670838Y-61756788D01*
X133670615Y-61756705D01*
X133671756Y-61753663D01*
X133671758Y-61753656D01*
X133679809Y-61732182D01*
X133718971Y-61627715D01*
X133721745Y-61620316D01*
X133728500Y-61558134D01*
X133728500Y-60361866D01*
X133721745Y-60299684D01*
X133681031Y-60191079D01*
X133673766Y-60171699D01*
X133673764Y-60171696D01*
X133670615Y-60163295D01*
X133671466Y-60162976D01*
X133657945Y-60101151D01*
X133670958Y-60056834D01*
X133670615Y-60056705D01*
X133672372Y-60052019D01*
X133672373Y-60052015D01*
X133688694Y-60008481D01*
X133704024Y-59967586D01*
X133721745Y-59920316D01*
X133728500Y-59858134D01*
X133728500Y-58661866D01*
X133721745Y-58599684D01*
X133670615Y-58463295D01*
X133583261Y-58346739D01*
X133466705Y-58259385D01*
X133330316Y-58208255D01*
X133268134Y-58201500D01*
X131171866Y-58201500D01*
X131109684Y-58208255D01*
X130973295Y-58259385D01*
X130899566Y-58314642D01*
X130885565Y-58325135D01*
X130819059Y-58349983D01*
X130749676Y-58334930D01*
X130734435Y-58325135D01*
X130720434Y-58314642D01*
X130646705Y-58259385D01*
X130510316Y-58208255D01*
X130448134Y-58201500D01*
X128351866Y-58201500D01*
X128289684Y-58208255D01*
X128153295Y-58259385D01*
X128036739Y-58346739D01*
X127949385Y-58463295D01*
X127898255Y-58599684D01*
X127891500Y-58661866D01*
X127891500Y-59858134D01*
X127898255Y-59920316D01*
X127915976Y-59967586D01*
X127931307Y-60008481D01*
X127949385Y-60056705D01*
X127948534Y-60057024D01*
X127962055Y-60118849D01*
X127949042Y-60163166D01*
X127949385Y-60163295D01*
X127946236Y-60171696D01*
X127946234Y-60171699D01*
X127938969Y-60191079D01*
X127898255Y-60299684D01*
X127891500Y-60361866D01*
X127891500Y-61558134D01*
X127898255Y-61620316D01*
X127901029Y-61627715D01*
X127940192Y-61732182D01*
X127948245Y-61753663D01*
X127949385Y-61756705D01*
X127948534Y-61757024D01*
X127962055Y-61818849D01*
X127949042Y-61863166D01*
X127949385Y-61863295D01*
X127946236Y-61871696D01*
X127946234Y-61871699D01*
X127933484Y-61905710D01*
X127898255Y-61999684D01*
X127891500Y-62061866D01*
X127891500Y-62865500D01*
X127871498Y-62933621D01*
X127817842Y-62980114D01*
X127765500Y-62991500D01*
X126219759Y-62991500D01*
X126151638Y-62971498D01*
X126106666Y-62919598D01*
X126102135Y-62915671D01*
X126094452Y-62914000D01*
X124472000Y-62914000D01*
X124403879Y-62893998D01*
X124357386Y-62840342D01*
X124346000Y-62788000D01*
X124346000Y-62532000D01*
X124366002Y-62463879D01*
X124419658Y-62417386D01*
X124472000Y-62406000D01*
X126089884Y-62406000D01*
X126105123Y-62401525D01*
X126106328Y-62400135D01*
X126107999Y-62392452D01*
X126107999Y-62065331D01*
X126107629Y-62058510D01*
X126102105Y-62007648D01*
X126098479Y-61992396D01*
X126053321Y-61871939D01*
X126052826Y-61871034D01*
X126052607Y-61870034D01*
X126050172Y-61863538D01*
X126051110Y-61863186D01*
X126037657Y-61801677D01*
X126050838Y-61756788D01*
X126050615Y-61756705D01*
X126051756Y-61753663D01*
X126051758Y-61753656D01*
X126059809Y-61732182D01*
X126098971Y-61627715D01*
X126101745Y-61620316D01*
X126108500Y-61558134D01*
X126108500Y-60361866D01*
X126101745Y-60299684D01*
X126061031Y-60191079D01*
X126053766Y-60171699D01*
X126053764Y-60171696D01*
X126050615Y-60163295D01*
X126051466Y-60162976D01*
X126037945Y-60101151D01*
X126050958Y-60056834D01*
X126050615Y-60056705D01*
X126052372Y-60052019D01*
X126052373Y-60052015D01*
X126068694Y-60008481D01*
X126084024Y-59967586D01*
X126101745Y-59920316D01*
X126108500Y-59858134D01*
X126108500Y-58661866D01*
X126101745Y-58599684D01*
X126050615Y-58463295D01*
X125963261Y-58346739D01*
X125846705Y-58259385D01*
X125710316Y-58208255D01*
X125648134Y-58201500D01*
X123551866Y-58201500D01*
X123489684Y-58208255D01*
X123353295Y-58259385D01*
X123279566Y-58314642D01*
X123265565Y-58325135D01*
X123199059Y-58349983D01*
X123129676Y-58334930D01*
X123114435Y-58325135D01*
X123100434Y-58314642D01*
X123026705Y-58259385D01*
X122890316Y-58208255D01*
X122828134Y-58201500D01*
X120731866Y-58201500D01*
X120669684Y-58208255D01*
X120533295Y-58259385D01*
X120416739Y-58346739D01*
X120329385Y-58463295D01*
X120278255Y-58599684D01*
X120271500Y-58661866D01*
X120271500Y-59858134D01*
X120278255Y-59920316D01*
X120295976Y-59967586D01*
X120311307Y-60008481D01*
X120329385Y-60056705D01*
X120328534Y-60057024D01*
X120342055Y-60118849D01*
X120329042Y-60163166D01*
X120329385Y-60163295D01*
X120326236Y-60171696D01*
X120326234Y-60171699D01*
X120318969Y-60191079D01*
X120278255Y-60299684D01*
X120271500Y-60361866D01*
X120271500Y-61558134D01*
X120278255Y-61620316D01*
X120281029Y-61627715D01*
X120320192Y-61732182D01*
X120328245Y-61753663D01*
X120329385Y-61756705D01*
X120328534Y-61757024D01*
X120342055Y-61818849D01*
X120329042Y-61863166D01*
X120329385Y-61863295D01*
X120326236Y-61871696D01*
X120326234Y-61871699D01*
X120313484Y-61905710D01*
X120278255Y-61999684D01*
X120271500Y-62061866D01*
X120271500Y-62865500D01*
X120251498Y-62933621D01*
X120197842Y-62980114D01*
X120145500Y-62991500D01*
X118599759Y-62991500D01*
X118531638Y-62971498D01*
X118486666Y-62919598D01*
X118482135Y-62915671D01*
X118474452Y-62914000D01*
X116852000Y-62914000D01*
X116783879Y-62893998D01*
X116737386Y-62840342D01*
X116726000Y-62788000D01*
X116726000Y-62532000D01*
X116746002Y-62463879D01*
X116799658Y-62417386D01*
X116852000Y-62406000D01*
X118469884Y-62406000D01*
X118485123Y-62401525D01*
X118486328Y-62400135D01*
X118487999Y-62392452D01*
X118487999Y-62065331D01*
X118487629Y-62058510D01*
X118482105Y-62007648D01*
X118478479Y-61992396D01*
X118433321Y-61871939D01*
X118432826Y-61871034D01*
X118432607Y-61870034D01*
X118430172Y-61863538D01*
X118431110Y-61863186D01*
X118417657Y-61801677D01*
X118430838Y-61756788D01*
X118430615Y-61756705D01*
X118431756Y-61753663D01*
X118431758Y-61753656D01*
X118439809Y-61732182D01*
X118478971Y-61627715D01*
X118481745Y-61620316D01*
X118488500Y-61558134D01*
X118488500Y-60361866D01*
X118481745Y-60299684D01*
X118441031Y-60191079D01*
X118433766Y-60171699D01*
X118433764Y-60171696D01*
X118430615Y-60163295D01*
X118431466Y-60162976D01*
X118417945Y-60101151D01*
X118430958Y-60056834D01*
X118430615Y-60056705D01*
X118432372Y-60052019D01*
X118432373Y-60052015D01*
X118448694Y-60008481D01*
X118464024Y-59967586D01*
X118481745Y-59920316D01*
X118488500Y-59858134D01*
X118488500Y-58661866D01*
X118481745Y-58599684D01*
X118430615Y-58463295D01*
X118343261Y-58346739D01*
X118226705Y-58259385D01*
X118090316Y-58208255D01*
X118028134Y-58201500D01*
X115931866Y-58201500D01*
X115869684Y-58208255D01*
X115733295Y-58259385D01*
X115659566Y-58314642D01*
X115645565Y-58325135D01*
X115579059Y-58349983D01*
X115509676Y-58334930D01*
X115494435Y-58325135D01*
X115480434Y-58314642D01*
X115406705Y-58259385D01*
X115270316Y-58208255D01*
X115208134Y-58201500D01*
X113111866Y-58201500D01*
X113049684Y-58208255D01*
X112913295Y-58259385D01*
X112796739Y-58346739D01*
X112709385Y-58463295D01*
X112658255Y-58599684D01*
X112651500Y-58661866D01*
X112651500Y-59858134D01*
X112658255Y-59920316D01*
X112675976Y-59967586D01*
X112691307Y-60008481D01*
X112709385Y-60056705D01*
X112708534Y-60057024D01*
X112722055Y-60118849D01*
X112709042Y-60163166D01*
X112709385Y-60163295D01*
X112706236Y-60171696D01*
X112706234Y-60171699D01*
X112698969Y-60191079D01*
X112658255Y-60299684D01*
X112651500Y-60361866D01*
X112651500Y-61558134D01*
X112658255Y-61620316D01*
X112661029Y-61627715D01*
X112700192Y-61732182D01*
X112708245Y-61753663D01*
X112709385Y-61756705D01*
X112708534Y-61757024D01*
X112722055Y-61818849D01*
X112709042Y-61863166D01*
X112709385Y-61863295D01*
X112706236Y-61871696D01*
X112706234Y-61871699D01*
X112693484Y-61905710D01*
X112658255Y-61999684D01*
X112651500Y-62061866D01*
X112651500Y-62865500D01*
X112631498Y-62933621D01*
X112577842Y-62980114D01*
X112525500Y-62991500D01*
X110979759Y-62991500D01*
X110911638Y-62971498D01*
X110866666Y-62919598D01*
X110862135Y-62915671D01*
X110854452Y-62914000D01*
X109232000Y-62914000D01*
X109163879Y-62893998D01*
X109117386Y-62840342D01*
X109106000Y-62788000D01*
X109106000Y-62532000D01*
X109126002Y-62463879D01*
X109179658Y-62417386D01*
X109232000Y-62406000D01*
X110849884Y-62406000D01*
X110865123Y-62401525D01*
X110866328Y-62400135D01*
X110867999Y-62392452D01*
X110867999Y-62065331D01*
X110867629Y-62058510D01*
X110862105Y-62007648D01*
X110858479Y-61992396D01*
X110813321Y-61871939D01*
X110812826Y-61871034D01*
X110812607Y-61870034D01*
X110810172Y-61863538D01*
X110811110Y-61863186D01*
X110797657Y-61801677D01*
X110810838Y-61756788D01*
X110810615Y-61756705D01*
X110811756Y-61753663D01*
X110811758Y-61753656D01*
X110819809Y-61732182D01*
X110858971Y-61627715D01*
X110861745Y-61620316D01*
X110868500Y-61558134D01*
X110868500Y-60361866D01*
X110861745Y-60299684D01*
X110821031Y-60191079D01*
X110813766Y-60171699D01*
X110813764Y-60171696D01*
X110810615Y-60163295D01*
X110811466Y-60162976D01*
X110797945Y-60101151D01*
X110810958Y-60056834D01*
X110810615Y-60056705D01*
X110812372Y-60052019D01*
X110812373Y-60052015D01*
X110828694Y-60008481D01*
X110844024Y-59967586D01*
X110861745Y-59920316D01*
X110868500Y-59858134D01*
X110868500Y-58661866D01*
X110861745Y-58599684D01*
X110810615Y-58463295D01*
X110723261Y-58346739D01*
X110606705Y-58259385D01*
X110470316Y-58208255D01*
X110408134Y-58201500D01*
X108311866Y-58201500D01*
X108249684Y-58208255D01*
X108113295Y-58259385D01*
X108039566Y-58314642D01*
X108025565Y-58325135D01*
X107959059Y-58349983D01*
X107889676Y-58334930D01*
X107874435Y-58325135D01*
X107860434Y-58314642D01*
X107786705Y-58259385D01*
X107650316Y-58208255D01*
X107588134Y-58201500D01*
X105491866Y-58201500D01*
X105429684Y-58208255D01*
X105293295Y-58259385D01*
X105176739Y-58346739D01*
X105089385Y-58463295D01*
X105038255Y-58599684D01*
X105031500Y-58661866D01*
X105031500Y-59858134D01*
X105038255Y-59920316D01*
X105055976Y-59967586D01*
X105071307Y-60008481D01*
X105089385Y-60056705D01*
X105088534Y-60057024D01*
X105102055Y-60118849D01*
X105089042Y-60163166D01*
X105089385Y-60163295D01*
X105086236Y-60171696D01*
X105086234Y-60171699D01*
X105078969Y-60191079D01*
X105038255Y-60299684D01*
X105031500Y-60361866D01*
X105031500Y-61558134D01*
X105038255Y-61620316D01*
X105041029Y-61627715D01*
X105080192Y-61732182D01*
X105088245Y-61753663D01*
X105089385Y-61756705D01*
X105088534Y-61757024D01*
X105102055Y-61818849D01*
X105089042Y-61863166D01*
X105089385Y-61863295D01*
X105086236Y-61871696D01*
X105086234Y-61871699D01*
X105073484Y-61905710D01*
X105038255Y-61999684D01*
X105031500Y-62061866D01*
X105031500Y-62865500D01*
X105011498Y-62933621D01*
X104957842Y-62980114D01*
X104905500Y-62991500D01*
X103359759Y-62991500D01*
X103291638Y-62971498D01*
X103246666Y-62919598D01*
X103242135Y-62915671D01*
X103234452Y-62914000D01*
X101612000Y-62914000D01*
X101543879Y-62893998D01*
X101497386Y-62840342D01*
X101486000Y-62788000D01*
X101486000Y-62532000D01*
X101506002Y-62463879D01*
X101559658Y-62417386D01*
X101612000Y-62406000D01*
X103229884Y-62406000D01*
X103245123Y-62401525D01*
X103246328Y-62400135D01*
X103247999Y-62392452D01*
X103247999Y-62065331D01*
X103247629Y-62058510D01*
X103242105Y-62007648D01*
X103238479Y-61992396D01*
X103193321Y-61871939D01*
X103192826Y-61871034D01*
X103192607Y-61870034D01*
X103190172Y-61863538D01*
X103191110Y-61863186D01*
X103177657Y-61801677D01*
X103190838Y-61756788D01*
X103190615Y-61756705D01*
X103191756Y-61753663D01*
X103191758Y-61753656D01*
X103199809Y-61732182D01*
X103238971Y-61627715D01*
X103241745Y-61620316D01*
X103248500Y-61558134D01*
X103248500Y-60361866D01*
X103241745Y-60299684D01*
X103201031Y-60191079D01*
X103193766Y-60171699D01*
X103193764Y-60171696D01*
X103190615Y-60163295D01*
X103191466Y-60162976D01*
X103177945Y-60101151D01*
X103190958Y-60056834D01*
X103190615Y-60056705D01*
X103192372Y-60052019D01*
X103192373Y-60052015D01*
X103208694Y-60008481D01*
X103224024Y-59967586D01*
X103241745Y-59920316D01*
X103248500Y-59858134D01*
X103248500Y-58661866D01*
X103241745Y-58599684D01*
X103190615Y-58463295D01*
X103103261Y-58346739D01*
X102986705Y-58259385D01*
X102850316Y-58208255D01*
X102788134Y-58201500D01*
X100691866Y-58201500D01*
X100629684Y-58208255D01*
X100493295Y-58259385D01*
X100419566Y-58314642D01*
X100405565Y-58325135D01*
X100339059Y-58349983D01*
X100269676Y-58334930D01*
X100254435Y-58325135D01*
X100240434Y-58314642D01*
X100166705Y-58259385D01*
X100030316Y-58208255D01*
X99968134Y-58201500D01*
X97871866Y-58201500D01*
X97809684Y-58208255D01*
X97673295Y-58259385D01*
X97556739Y-58346739D01*
X97469385Y-58463295D01*
X97418255Y-58599684D01*
X97411500Y-58661866D01*
X97411500Y-59858134D01*
X97418255Y-59920316D01*
X97435976Y-59967586D01*
X97451307Y-60008481D01*
X97469385Y-60056705D01*
X97468534Y-60057024D01*
X97482055Y-60118849D01*
X97469042Y-60163166D01*
X97469385Y-60163295D01*
X97466236Y-60171696D01*
X97466234Y-60171699D01*
X97458969Y-60191079D01*
X97418255Y-60299684D01*
X97411500Y-60361866D01*
X97411500Y-61558134D01*
X97418255Y-61620316D01*
X97421029Y-61627715D01*
X97460192Y-61732182D01*
X97468245Y-61753663D01*
X97469385Y-61756705D01*
X97468534Y-61757024D01*
X97482055Y-61818849D01*
X97469042Y-61863166D01*
X97469385Y-61863295D01*
X97466236Y-61871696D01*
X97466234Y-61871699D01*
X97453484Y-61905710D01*
X97418255Y-61999684D01*
X97411500Y-62061866D01*
X97411500Y-62865500D01*
X97391498Y-62933621D01*
X97337842Y-62980114D01*
X97285500Y-62991500D01*
X95739759Y-62991500D01*
X95671638Y-62971498D01*
X95626666Y-62919598D01*
X95622135Y-62915671D01*
X95614452Y-62914000D01*
X93992000Y-62914000D01*
X93923879Y-62893998D01*
X93877386Y-62840342D01*
X93866000Y-62788000D01*
X93866000Y-62532000D01*
X93886002Y-62463879D01*
X93939658Y-62417386D01*
X93992000Y-62406000D01*
X95609884Y-62406000D01*
X95625123Y-62401525D01*
X95626328Y-62400135D01*
X95627999Y-62392452D01*
X95627999Y-62065331D01*
X95627629Y-62058510D01*
X95622105Y-62007648D01*
X95618479Y-61992396D01*
X95573321Y-61871939D01*
X95572826Y-61871034D01*
X95572607Y-61870034D01*
X95570172Y-61863538D01*
X95571110Y-61863186D01*
X95557657Y-61801677D01*
X95570838Y-61756788D01*
X95570615Y-61756705D01*
X95571756Y-61753663D01*
X95571758Y-61753656D01*
X95579809Y-61732182D01*
X95618971Y-61627715D01*
X95621745Y-61620316D01*
X95628500Y-61558134D01*
X95628500Y-60361866D01*
X95621745Y-60299684D01*
X95581031Y-60191079D01*
X95573766Y-60171699D01*
X95573764Y-60171696D01*
X95570615Y-60163295D01*
X95571466Y-60162976D01*
X95557945Y-60101151D01*
X95570958Y-60056834D01*
X95570615Y-60056705D01*
X95572372Y-60052019D01*
X95572373Y-60052015D01*
X95588694Y-60008481D01*
X95604024Y-59967586D01*
X95621745Y-59920316D01*
X95628500Y-59858134D01*
X95628500Y-58661866D01*
X95621745Y-58599684D01*
X95570615Y-58463295D01*
X95483261Y-58346739D01*
X95366705Y-58259385D01*
X95230316Y-58208255D01*
X95168134Y-58201500D01*
X93071866Y-58201500D01*
X93009684Y-58208255D01*
X92873295Y-58259385D01*
X92799566Y-58314642D01*
X92785565Y-58325135D01*
X92719059Y-58349983D01*
X92649676Y-58334930D01*
X92634435Y-58325135D01*
X92620434Y-58314642D01*
X92546705Y-58259385D01*
X92410316Y-58208255D01*
X92348134Y-58201500D01*
X90251866Y-58201500D01*
X90189684Y-58208255D01*
X90053295Y-58259385D01*
X89936739Y-58346739D01*
X89849385Y-58463295D01*
X89798255Y-58599684D01*
X89791500Y-58661866D01*
X89791500Y-59858134D01*
X89798255Y-59920316D01*
X89815976Y-59967586D01*
X89831307Y-60008481D01*
X89849385Y-60056705D01*
X89848534Y-60057024D01*
X89862055Y-60118849D01*
X89849042Y-60163166D01*
X89849385Y-60163295D01*
X89846236Y-60171696D01*
X89846234Y-60171699D01*
X89838969Y-60191079D01*
X89798255Y-60299684D01*
X89791500Y-60361866D01*
X89791500Y-61558134D01*
X89798255Y-61620316D01*
X89801029Y-61627715D01*
X89840192Y-61732182D01*
X89848245Y-61753663D01*
X89849385Y-61756705D01*
X89848534Y-61757024D01*
X89862055Y-61818849D01*
X89849042Y-61863166D01*
X89849385Y-61863295D01*
X89846236Y-61871696D01*
X89846234Y-61871699D01*
X89833484Y-61905710D01*
X89798255Y-61999684D01*
X89791500Y-62061866D01*
X89791500Y-62865500D01*
X89771498Y-62933621D01*
X89717842Y-62980114D01*
X89665500Y-62991500D01*
X88119759Y-62991500D01*
X88051638Y-62971498D01*
X88006666Y-62919598D01*
X88002135Y-62915671D01*
X87994452Y-62914000D01*
X86372000Y-62914000D01*
X86303879Y-62893998D01*
X86257386Y-62840342D01*
X86246000Y-62788000D01*
X86246000Y-62532000D01*
X86266002Y-62463879D01*
X86319658Y-62417386D01*
X86372000Y-62406000D01*
X87989884Y-62406000D01*
X88005123Y-62401525D01*
X88006328Y-62400135D01*
X88007999Y-62392452D01*
X88007999Y-62065331D01*
X88007629Y-62058510D01*
X88002105Y-62007648D01*
X87998479Y-61992396D01*
X87953321Y-61871939D01*
X87952826Y-61871034D01*
X87952607Y-61870034D01*
X87950172Y-61863538D01*
X87951110Y-61863186D01*
X87937657Y-61801677D01*
X87950838Y-61756788D01*
X87950615Y-61756705D01*
X87951756Y-61753663D01*
X87951758Y-61753656D01*
X87959809Y-61732182D01*
X87998971Y-61627715D01*
X88001745Y-61620316D01*
X88008500Y-61558134D01*
X88008500Y-60361866D01*
X88001745Y-60299684D01*
X87961031Y-60191079D01*
X87953766Y-60171699D01*
X87953764Y-60171696D01*
X87950615Y-60163295D01*
X87951466Y-60162976D01*
X87937945Y-60101151D01*
X87950958Y-60056834D01*
X87950615Y-60056705D01*
X87952372Y-60052019D01*
X87952373Y-60052015D01*
X87968694Y-60008481D01*
X87984024Y-59967586D01*
X88001745Y-59920316D01*
X88008500Y-59858134D01*
X88008500Y-58661866D01*
X88001745Y-58599684D01*
X87950615Y-58463295D01*
X87863261Y-58346739D01*
X87746705Y-58259385D01*
X87610316Y-58208255D01*
X87548134Y-58201500D01*
X85451866Y-58201500D01*
X85389684Y-58208255D01*
X85253295Y-58259385D01*
X85179566Y-58314642D01*
X85165565Y-58325135D01*
X85099059Y-58349983D01*
X85029676Y-58334930D01*
X85014435Y-58325135D01*
X85000434Y-58314642D01*
X84926705Y-58259385D01*
X84790316Y-58208255D01*
X84728134Y-58201500D01*
X82631866Y-58201500D01*
X82569684Y-58208255D01*
X82433295Y-58259385D01*
X82316739Y-58346739D01*
X82229385Y-58463295D01*
X82178255Y-58599684D01*
X82171500Y-58661866D01*
X82171500Y-59858134D01*
X82178255Y-59920316D01*
X82195976Y-59967586D01*
X82211307Y-60008481D01*
X82229385Y-60056705D01*
X82228534Y-60057024D01*
X82242055Y-60118849D01*
X82229042Y-60163166D01*
X82229385Y-60163295D01*
X82226236Y-60171696D01*
X82226234Y-60171699D01*
X82218969Y-60191079D01*
X82178255Y-60299684D01*
X82171500Y-60361866D01*
X82171500Y-61558134D01*
X82178255Y-61620316D01*
X82181029Y-61627715D01*
X82220192Y-61732182D01*
X82228245Y-61753663D01*
X82229385Y-61756705D01*
X82228534Y-61757024D01*
X82242055Y-61818849D01*
X82229042Y-61863166D01*
X82229385Y-61863295D01*
X82226236Y-61871696D01*
X82226234Y-61871699D01*
X82213484Y-61905710D01*
X82178255Y-61999684D01*
X82171500Y-62061866D01*
X82171500Y-62865500D01*
X82151498Y-62933621D01*
X82097842Y-62980114D01*
X82045500Y-62991500D01*
X80499759Y-62991500D01*
X80431638Y-62971498D01*
X80386666Y-62919598D01*
X80382135Y-62915671D01*
X80374452Y-62914000D01*
X78752000Y-62914000D01*
X78683879Y-62893998D01*
X78637386Y-62840342D01*
X78626000Y-62788000D01*
X78626000Y-62532000D01*
X78646002Y-62463879D01*
X78699658Y-62417386D01*
X78752000Y-62406000D01*
X80369884Y-62406000D01*
X80385123Y-62401525D01*
X80386328Y-62400135D01*
X80387999Y-62392452D01*
X80387999Y-62065331D01*
X80387629Y-62058510D01*
X80382105Y-62007648D01*
X80378479Y-61992396D01*
X80333321Y-61871939D01*
X80332826Y-61871034D01*
X80332607Y-61870034D01*
X80330172Y-61863538D01*
X80331110Y-61863186D01*
X80317657Y-61801677D01*
X80330838Y-61756788D01*
X80330615Y-61756705D01*
X80331756Y-61753663D01*
X80331758Y-61753656D01*
X80339809Y-61732182D01*
X80378971Y-61627715D01*
X80381745Y-61620316D01*
X80388500Y-61558134D01*
X80388500Y-60361866D01*
X80381745Y-60299684D01*
X80341031Y-60191079D01*
X80333766Y-60171699D01*
X80333764Y-60171696D01*
X80330615Y-60163295D01*
X80331466Y-60162976D01*
X80317945Y-60101151D01*
X80330958Y-60056834D01*
X80330615Y-60056705D01*
X80332372Y-60052019D01*
X80332373Y-60052015D01*
X80348694Y-60008481D01*
X80364024Y-59967586D01*
X80381745Y-59920316D01*
X80388500Y-59858134D01*
X80388500Y-58661866D01*
X80381745Y-58599684D01*
X80330615Y-58463295D01*
X80243261Y-58346739D01*
X80126705Y-58259385D01*
X79990316Y-58208255D01*
X79928134Y-58201500D01*
X77831866Y-58201500D01*
X77769684Y-58208255D01*
X77633295Y-58259385D01*
X77559566Y-58314642D01*
X77545565Y-58325135D01*
X77479059Y-58349983D01*
X77409676Y-58334930D01*
X77394435Y-58325135D01*
X77380434Y-58314642D01*
X77306705Y-58259385D01*
X77170316Y-58208255D01*
X77108134Y-58201500D01*
X75011866Y-58201500D01*
X74949684Y-58208255D01*
X74813295Y-58259385D01*
X74696739Y-58346739D01*
X74609385Y-58463295D01*
X74558255Y-58599684D01*
X74551500Y-58661866D01*
X74551500Y-59858134D01*
X74558255Y-59920316D01*
X74575976Y-59967586D01*
X74591307Y-60008481D01*
X74609385Y-60056705D01*
X74608534Y-60057024D01*
X74622055Y-60118849D01*
X74609042Y-60163166D01*
X74609385Y-60163295D01*
X74606236Y-60171696D01*
X74606234Y-60171699D01*
X74598969Y-60191079D01*
X74558255Y-60299684D01*
X74551500Y-60361866D01*
X74551500Y-61558134D01*
X74558255Y-61620316D01*
X74561029Y-61627715D01*
X74600192Y-61732182D01*
X74608245Y-61753663D01*
X74609385Y-61756705D01*
X74608534Y-61757024D01*
X74622055Y-61818849D01*
X74609042Y-61863166D01*
X74609385Y-61863295D01*
X74606236Y-61871696D01*
X74606234Y-61871699D01*
X74593484Y-61905710D01*
X74558255Y-61999684D01*
X74551500Y-62061866D01*
X74551500Y-62865500D01*
X74531498Y-62933621D01*
X74477842Y-62980114D01*
X74425500Y-62991500D01*
X72879759Y-62991500D01*
X72811638Y-62971498D01*
X72766666Y-62919598D01*
X72762135Y-62915671D01*
X72754452Y-62914000D01*
X71132000Y-62914000D01*
X71063879Y-62893998D01*
X71017386Y-62840342D01*
X71006000Y-62788000D01*
X71006000Y-62532000D01*
X71026002Y-62463879D01*
X71079658Y-62417386D01*
X71132000Y-62406000D01*
X72749884Y-62406000D01*
X72765123Y-62401525D01*
X72766328Y-62400135D01*
X72767999Y-62392452D01*
X72767999Y-62065331D01*
X72767629Y-62058510D01*
X72762105Y-62007648D01*
X72758479Y-61992396D01*
X72713321Y-61871939D01*
X72712826Y-61871034D01*
X72712607Y-61870034D01*
X72710172Y-61863538D01*
X72711110Y-61863186D01*
X72697657Y-61801677D01*
X72710838Y-61756788D01*
X72710615Y-61756705D01*
X72711756Y-61753663D01*
X72711758Y-61753656D01*
X72719809Y-61732182D01*
X72758971Y-61627715D01*
X72761745Y-61620316D01*
X72768500Y-61558134D01*
X72768500Y-60361866D01*
X72761745Y-60299684D01*
X72721031Y-60191079D01*
X72713766Y-60171699D01*
X72713764Y-60171696D01*
X72710615Y-60163295D01*
X72711466Y-60162976D01*
X72697945Y-60101151D01*
X72710958Y-60056834D01*
X72710615Y-60056705D01*
X72712372Y-60052019D01*
X72712373Y-60052015D01*
X72728694Y-60008481D01*
X72744024Y-59967586D01*
X72761745Y-59920316D01*
X72768500Y-59858134D01*
X72768500Y-58661866D01*
X72761745Y-58599684D01*
X72710615Y-58463295D01*
X72623261Y-58346739D01*
X72506705Y-58259385D01*
X72370316Y-58208255D01*
X72308134Y-58201500D01*
X70211866Y-58201500D01*
X70149684Y-58208255D01*
X70013295Y-58259385D01*
X69939566Y-58314642D01*
X69925565Y-58325135D01*
X69859059Y-58349983D01*
X69789676Y-58334930D01*
X69774435Y-58325135D01*
X69760434Y-58314642D01*
X69686705Y-58259385D01*
X69550316Y-58208255D01*
X69488134Y-58201500D01*
X67391866Y-58201500D01*
X67329684Y-58208255D01*
X67193295Y-58259385D01*
X67076739Y-58346739D01*
X66989385Y-58463295D01*
X66938255Y-58599684D01*
X66931500Y-58661866D01*
X66931500Y-59858134D01*
X66938255Y-59920316D01*
X66955976Y-59967586D01*
X66971307Y-60008481D01*
X66989385Y-60056705D01*
X66988534Y-60057024D01*
X67002055Y-60118849D01*
X66989042Y-60163166D01*
X66989385Y-60163295D01*
X66986236Y-60171696D01*
X66986234Y-60171699D01*
X66978969Y-60191079D01*
X66938255Y-60299684D01*
X66931500Y-60361866D01*
X66931500Y-61558134D01*
X66938255Y-61620316D01*
X66941029Y-61627715D01*
X66980192Y-61732182D01*
X66988245Y-61753663D01*
X66989385Y-61756705D01*
X66988534Y-61757024D01*
X67002055Y-61818849D01*
X66989042Y-61863166D01*
X66989385Y-61863295D01*
X66986236Y-61871696D01*
X66986234Y-61871699D01*
X66973484Y-61905710D01*
X66938255Y-61999684D01*
X66931500Y-62061866D01*
X66931500Y-62865500D01*
X66911498Y-62933621D01*
X66857842Y-62980114D01*
X66805500Y-62991500D01*
X65259759Y-62991500D01*
X65191638Y-62971498D01*
X65146666Y-62919598D01*
X65142135Y-62915671D01*
X65134452Y-62914000D01*
X63512000Y-62914000D01*
X63443879Y-62893998D01*
X63397386Y-62840342D01*
X63386000Y-62788000D01*
X63386000Y-62532000D01*
X63406002Y-62463879D01*
X63459658Y-62417386D01*
X63512000Y-62406000D01*
X65129884Y-62406000D01*
X65145123Y-62401525D01*
X65146328Y-62400135D01*
X65147999Y-62392452D01*
X65147999Y-62065331D01*
X65147629Y-62058510D01*
X65142105Y-62007648D01*
X65138479Y-61992396D01*
X65093321Y-61871939D01*
X65092826Y-61871034D01*
X65092607Y-61870034D01*
X65090172Y-61863538D01*
X65091110Y-61863186D01*
X65077657Y-61801677D01*
X65090838Y-61756788D01*
X65090615Y-61756705D01*
X65091756Y-61753663D01*
X65091758Y-61753656D01*
X65099809Y-61732182D01*
X65138971Y-61627715D01*
X65141745Y-61620316D01*
X65148500Y-61558134D01*
X65148500Y-60361866D01*
X65141745Y-60299684D01*
X65101031Y-60191079D01*
X65093766Y-60171699D01*
X65093764Y-60171696D01*
X65090615Y-60163295D01*
X65091466Y-60162976D01*
X65077945Y-60101151D01*
X65090958Y-60056834D01*
X65090615Y-60056705D01*
X65092372Y-60052019D01*
X65092373Y-60052015D01*
X65108694Y-60008481D01*
X65124024Y-59967586D01*
X65141745Y-59920316D01*
X65148500Y-59858134D01*
X65148500Y-58661866D01*
X65141745Y-58599684D01*
X65090615Y-58463295D01*
X65003261Y-58346739D01*
X64886705Y-58259385D01*
X64750316Y-58208255D01*
X64688134Y-58201500D01*
X62591866Y-58201500D01*
X62529684Y-58208255D01*
X62393295Y-58259385D01*
X62319566Y-58314642D01*
X62305565Y-58325135D01*
X62239059Y-58349983D01*
X62169676Y-58334930D01*
X62154435Y-58325135D01*
X62140434Y-58314642D01*
X62066705Y-58259385D01*
X61930316Y-58208255D01*
X61868134Y-58201500D01*
X59771866Y-58201500D01*
X59709684Y-58208255D01*
X59573295Y-58259385D01*
X59456739Y-58346739D01*
X59369385Y-58463295D01*
X59318255Y-58599684D01*
X59311500Y-58661866D01*
X59311500Y-59858134D01*
X59318255Y-59920316D01*
X59335976Y-59967586D01*
X59351307Y-60008481D01*
X59369385Y-60056705D01*
X59368534Y-60057024D01*
X59382055Y-60118849D01*
X59369042Y-60163166D01*
X59369385Y-60163295D01*
X59366236Y-60171696D01*
X59366234Y-60171699D01*
X59358969Y-60191079D01*
X59318255Y-60299684D01*
X59311500Y-60361866D01*
X59311500Y-61558134D01*
X59318255Y-61620316D01*
X59321029Y-61627715D01*
X59360192Y-61732182D01*
X59368245Y-61753663D01*
X59369385Y-61756705D01*
X59368534Y-61757024D01*
X59382055Y-61818849D01*
X59369042Y-61863166D01*
X59369385Y-61863295D01*
X59366236Y-61871696D01*
X59366234Y-61871699D01*
X59353484Y-61905710D01*
X59318255Y-61999684D01*
X59311500Y-62061866D01*
X59311500Y-62865500D01*
X59291498Y-62933621D01*
X59237842Y-62980114D01*
X59185500Y-62991500D01*
X57639759Y-62991500D01*
X57571638Y-62971498D01*
X57526666Y-62919598D01*
X57522135Y-62915671D01*
X57514452Y-62914000D01*
X54530116Y-62914000D01*
X54514877Y-62918475D01*
X54492612Y-62944170D01*
X54491747Y-62943420D01*
X54485641Y-62954600D01*
X54423327Y-62988622D01*
X54396551Y-62991500D01*
X52132276Y-62991500D01*
X52118668Y-62990763D01*
X52086821Y-62987303D01*
X52086817Y-62987303D01*
X52080696Y-62986638D01*
X52043828Y-62989863D01*
X52030310Y-62991046D01*
X52025482Y-62991375D01*
X52022927Y-62991500D01*
X52019843Y-62991500D01*
X52004469Y-62993008D01*
X51976781Y-62995722D01*
X51975468Y-62995844D01*
X51935371Y-62999352D01*
X51882108Y-63004012D01*
X51876948Y-63005511D01*
X51871606Y-63006035D01*
X51781904Y-63033117D01*
X51780764Y-63033455D01*
X51690678Y-63059628D01*
X51685910Y-63062100D01*
X51680768Y-63063652D01*
X51675323Y-63066547D01*
X51675316Y-63066550D01*
X51598050Y-63107633D01*
X51596946Y-63108213D01*
X51513696Y-63151366D01*
X51509497Y-63154718D01*
X51504756Y-63157239D01*
X51499984Y-63161131D01*
X51432171Y-63216438D01*
X51431145Y-63217266D01*
X51394436Y-63246571D01*
X51391684Y-63248768D01*
X51389189Y-63251263D01*
X51388395Y-63251973D01*
X51384040Y-63255693D01*
X51355049Y-63279337D01*
X51355046Y-63279340D01*
X51350274Y-63283232D01*
X51346346Y-63287980D01*
X51346345Y-63287981D01*
X51320789Y-63318873D01*
X51312800Y-63327652D01*
X50262035Y-64378417D01*
X50199723Y-64412443D01*
X50128908Y-64407378D01*
X50072072Y-64364831D01*
X50057390Y-64339564D01*
X49970972Y-64140814D01*
X49966105Y-64131739D01*
X49850426Y-63952926D01*
X49844136Y-63944757D01*
X49700806Y-63787240D01*
X49693273Y-63780215D01*
X49526139Y-63648222D01*
X49517556Y-63642520D01*
X49480602Y-63622120D01*
X49430631Y-63571687D01*
X49415859Y-63502245D01*
X49440975Y-63435839D01*
X49468327Y-63409232D01*
X49535877Y-63361049D01*
X49647860Y-63281173D01*
X49680379Y-63248768D01*
X49731759Y-63197567D01*
X49806096Y-63123489D01*
X49817049Y-63108247D01*
X49933438Y-62946273D01*
X49933439Y-62946272D01*
X49936453Y-62942077D01*
X49938742Y-62937445D01*
X49939247Y-62936605D01*
X49991477Y-62888516D01*
X50047250Y-62875500D01*
X50964980Y-62875500D01*
X50976214Y-62876030D01*
X50983719Y-62877708D01*
X51052012Y-62875562D01*
X51055969Y-62875500D01*
X51083983Y-62875500D01*
X51087908Y-62875004D01*
X51087909Y-62875004D01*
X51088004Y-62874992D01*
X51099849Y-62874059D01*
X51129670Y-62873122D01*
X51136282Y-62872914D01*
X51136283Y-62872914D01*
X51144205Y-62872665D01*
X51163749Y-62866987D01*
X51183112Y-62862977D01*
X51195440Y-62861420D01*
X51195442Y-62861420D01*
X51203299Y-62860427D01*
X51210663Y-62857511D01*
X51210668Y-62857510D01*
X51244556Y-62844093D01*
X51255785Y-62840248D01*
X51272465Y-62835402D01*
X51298393Y-62827869D01*
X51305220Y-62823831D01*
X51305223Y-62823830D01*
X51315906Y-62817512D01*
X51333664Y-62808812D01*
X51345215Y-62804239D01*
X51345221Y-62804235D01*
X51352588Y-62801319D01*
X51388491Y-62775234D01*
X51398410Y-62768719D01*
X51429768Y-62750174D01*
X51429772Y-62750171D01*
X51436598Y-62746134D01*
X51450982Y-62731750D01*
X51466016Y-62718909D01*
X51476073Y-62711602D01*
X51482487Y-62706942D01*
X51510778Y-62672744D01*
X51518767Y-62663965D01*
X52550327Y-61632405D01*
X52612639Y-61598379D01*
X52639422Y-61595500D01*
X54421624Y-61595500D01*
X54489745Y-61615502D01*
X54536238Y-61669158D01*
X54539606Y-61677270D01*
X54560192Y-61732182D01*
X54567589Y-61751914D01*
X54569385Y-61756705D01*
X54568693Y-61756964D01*
X54582343Y-61819374D01*
X54569420Y-61863385D01*
X54569828Y-61863538D01*
X54567738Y-61869112D01*
X54567174Y-61871034D01*
X54566679Y-61871939D01*
X54521522Y-61992394D01*
X54517895Y-62007649D01*
X54512369Y-62058514D01*
X54512000Y-62065328D01*
X54512000Y-62387885D01*
X54516475Y-62403124D01*
X54517865Y-62404329D01*
X54525548Y-62406000D01*
X57509884Y-62406000D01*
X57525123Y-62401525D01*
X57526328Y-62400135D01*
X57527999Y-62392452D01*
X57527999Y-62065331D01*
X57527629Y-62058510D01*
X57522105Y-62007648D01*
X57518479Y-61992396D01*
X57473321Y-61871939D01*
X57472826Y-61871034D01*
X57472607Y-61870034D01*
X57470172Y-61863538D01*
X57471110Y-61863186D01*
X57457657Y-61801677D01*
X57470838Y-61756788D01*
X57470615Y-61756705D01*
X57471756Y-61753663D01*
X57471758Y-61753656D01*
X57479809Y-61732182D01*
X57518971Y-61627715D01*
X57521745Y-61620316D01*
X57528500Y-61558134D01*
X57528500Y-60361866D01*
X57521745Y-60299684D01*
X57481031Y-60191079D01*
X57473766Y-60171699D01*
X57473764Y-60171696D01*
X57470615Y-60163295D01*
X57471466Y-60162976D01*
X57457945Y-60101151D01*
X57470958Y-60056834D01*
X57470615Y-60056705D01*
X57472372Y-60052019D01*
X57472373Y-60052015D01*
X57488694Y-60008481D01*
X57504024Y-59967586D01*
X57521745Y-59920316D01*
X57528500Y-59858134D01*
X57528500Y-58661866D01*
X57521745Y-58599684D01*
X57470615Y-58463295D01*
X57383261Y-58346739D01*
X57266705Y-58259385D01*
X57130316Y-58208255D01*
X57068134Y-58201500D01*
X54971866Y-58201500D01*
X54909684Y-58208255D01*
X54773295Y-58259385D01*
X54656739Y-58346739D01*
X54569385Y-58463295D01*
X54566233Y-58471703D01*
X54539606Y-58542730D01*
X54496964Y-58599494D01*
X54430403Y-58624194D01*
X54421624Y-58624500D01*
X50024252Y-58624500D01*
X49956131Y-58604498D01*
X49909638Y-58550842D01*
X49899534Y-58480568D01*
X49929028Y-58415988D01*
X49948687Y-58397674D01*
X49974080Y-58378643D01*
X49974081Y-58378642D01*
X49981261Y-58373261D01*
X50068615Y-58256705D01*
X50119745Y-58120316D01*
X50126500Y-58058134D01*
X50126500Y-56261866D01*
X50119745Y-56199684D01*
X50068615Y-56063295D01*
X49981261Y-55946739D01*
X49864705Y-55859385D01*
X49728316Y-55808255D01*
X49666134Y-55801500D01*
X47869866Y-55801500D01*
X47807684Y-55808255D01*
X47671295Y-55859385D01*
X47554739Y-55946739D01*
X47467385Y-56063295D01*
X47416255Y-56199684D01*
X47409500Y-56261866D01*
X47409500Y-57028762D01*
X47389498Y-57096883D01*
X47372595Y-57117857D01*
X45807267Y-58683185D01*
X45797125Y-58692286D01*
X45767351Y-58716225D01*
X45734813Y-58755002D01*
X45731649Y-58758629D01*
X45729954Y-58760498D01*
X45727760Y-58762692D01*
X45700188Y-58796258D01*
X45699482Y-58797108D01*
X45655669Y-58849323D01*
X45639214Y-58868933D01*
X45636627Y-58873639D01*
X45633218Y-58877789D01*
X45630310Y-58883213D01*
X45630303Y-58883223D01*
X45588939Y-58960368D01*
X45588310Y-58961528D01*
X45543179Y-59043621D01*
X45541555Y-59048741D01*
X45539017Y-59053474D01*
X45524721Y-59100235D01*
X45511648Y-59142993D01*
X45511256Y-59144252D01*
X45484765Y-59227761D01*
X45482902Y-59233635D01*
X45482303Y-59238973D01*
X45480733Y-59244109D01*
X45474323Y-59307219D01*
X45471263Y-59337343D01*
X45471134Y-59338551D01*
X45465500Y-59388784D01*
X45465500Y-59392289D01*
X45465438Y-59393397D01*
X45464990Y-59399092D01*
X45461210Y-59436305D01*
X45461210Y-59436312D01*
X45460588Y-59442435D01*
X45464941Y-59488485D01*
X45465500Y-59500343D01*
X45465500Y-65215724D01*
X45464763Y-65229332D01*
X45460638Y-65267304D01*
X45461175Y-65273439D01*
X45465046Y-65317690D01*
X45465375Y-65322518D01*
X45465500Y-65325073D01*
X45465500Y-65328157D01*
X45465801Y-65331224D01*
X45469722Y-65371219D01*
X45469844Y-65372532D01*
X45471621Y-65392838D01*
X45478012Y-65465892D01*
X45479511Y-65471052D01*
X45480035Y-65476394D01*
X45487345Y-65500604D01*
X45507098Y-65566031D01*
X45507455Y-65567236D01*
X45533628Y-65657322D01*
X45536100Y-65662090D01*
X45537652Y-65667232D01*
X45540547Y-65672677D01*
X45540550Y-65672684D01*
X45581633Y-65749950D01*
X45582213Y-65751054D01*
X45625366Y-65834304D01*
X45628718Y-65838503D01*
X45631239Y-65843244D01*
X45635131Y-65848016D01*
X45690438Y-65915829D01*
X45691266Y-65916855D01*
X45719449Y-65952158D01*
X45722768Y-65956316D01*
X45725263Y-65958811D01*
X45725973Y-65959605D01*
X45729693Y-65963960D01*
X45753337Y-65992951D01*
X45753340Y-65992954D01*
X45757232Y-65997726D01*
X45761980Y-66001654D01*
X45761981Y-66001655D01*
X45792873Y-66027211D01*
X45801652Y-66035200D01*
X46352857Y-66586405D01*
X46386883Y-66648717D01*
X46381818Y-66719532D01*
X46339271Y-66776368D01*
X46272751Y-66801179D01*
X46263763Y-66801500D01*
X40611989Y-66801499D01*
X40554745Y-66801499D01*
X40548581Y-66801348D01*
X40499504Y-66798944D01*
X40499503Y-66798944D01*
X40490539Y-66798505D01*
X40481810Y-66800600D01*
X40481809Y-66800600D01*
X40448536Y-66808585D01*
X40436995Y-66810791D01*
X40403102Y-66815645D01*
X40403095Y-66815647D01*
X40394213Y-66816919D01*
X40386040Y-66820635D01*
X40386041Y-66820635D01*
X40383300Y-66821881D01*
X40360558Y-66829700D01*
X40348904Y-66832497D01*
X40311408Y-66853967D01*
X40300962Y-66859318D01*
X40269790Y-66873491D01*
X40269788Y-66873492D01*
X40261618Y-66877207D01*
X40254819Y-66883065D01*
X40254818Y-66883066D01*
X40252539Y-66885030D01*
X40232905Y-66898918D01*
X40222501Y-66904875D01*
X40216277Y-66911341D01*
X40216274Y-66911344D01*
X40206982Y-66920999D01*
X40191346Y-66934762D01*
X39790280Y-67232754D01*
X39782918Y-67237828D01*
X39500395Y-67418132D01*
X39334543Y-67523977D01*
X39326843Y-67528515D01*
X38896580Y-67761925D01*
X38859290Y-67782154D01*
X38851289Y-67786134D01*
X38366910Y-68005983D01*
X38358656Y-68009381D01*
X38046169Y-68125257D01*
X37859916Y-68194323D01*
X37851427Y-68197132D01*
X37340857Y-68346229D01*
X37332192Y-68348430D01*
X36812296Y-68460953D01*
X36803495Y-68462533D01*
X36276947Y-68537899D01*
X36268057Y-68538851D01*
X35856123Y-68568228D01*
X35737485Y-68576688D01*
X35728552Y-68577007D01*
X35461164Y-68577064D01*
X35196642Y-68577121D01*
X35187706Y-68576806D01*
X34657105Y-68539196D01*
X34648215Y-68538247D01*
X34384586Y-68500629D01*
X34121637Y-68463107D01*
X34112859Y-68461535D01*
X33592917Y-68349237D01*
X33584266Y-68347045D01*
X33073584Y-68198153D01*
X33065098Y-68195348D01*
X33062331Y-68194323D01*
X32972453Y-68161039D01*
X32566294Y-68010626D01*
X32558025Y-68007225D01*
X32073576Y-67787595D01*
X32065568Y-67783617D01*
X31597889Y-67530170D01*
X31590202Y-67525643D01*
X31141686Y-67239676D01*
X31134340Y-67234617D01*
X30750577Y-66949737D01*
X30707221Y-66917552D01*
X30700236Y-66911971D01*
X30476144Y-66719532D01*
X30296705Y-66565438D01*
X30290136Y-66559380D01*
X30273448Y-66542853D01*
X29912176Y-66185082D01*
X29906051Y-66178569D01*
X29555607Y-65778434D01*
X29549958Y-65771503D01*
X29228762Y-65347509D01*
X29223619Y-65340195D01*
X28933302Y-64894491D01*
X28928691Y-64886831D01*
X28827508Y-64704384D01*
X28670706Y-64421649D01*
X28666655Y-64413691D01*
X28666075Y-64412443D01*
X28442313Y-63931394D01*
X28438834Y-63923163D01*
X28407250Y-63840361D01*
X28249260Y-63426167D01*
X28246374Y-63417712D01*
X28230407Y-63364866D01*
X28092526Y-62908537D01*
X28090245Y-62899892D01*
X27972891Y-62381077D01*
X27971229Y-62372292D01*
X27890965Y-61846473D01*
X27889930Y-61837592D01*
X27854987Y-61404457D01*
X27847156Y-61307381D01*
X27846754Y-61298458D01*
X27846653Y-61287799D01*
X27843531Y-60960000D01*
X31744410Y-60960000D01*
X31764756Y-61348218D01*
X31765269Y-61351458D01*
X31765270Y-61351466D01*
X31774956Y-61412617D01*
X31825570Y-61732182D01*
X31926186Y-62107686D01*
X31927371Y-62110774D01*
X31927372Y-62110776D01*
X31957264Y-62188647D01*
X32065501Y-62470616D01*
X32241990Y-62816995D01*
X32453719Y-63143029D01*
X32458943Y-63149480D01*
X32628806Y-63359242D01*
X32698368Y-63445144D01*
X32973256Y-63720032D01*
X32975814Y-63722104D01*
X32975818Y-63722107D01*
X33121849Y-63840361D01*
X33275371Y-63964681D01*
X33601405Y-64176410D01*
X33947784Y-64352899D01*
X34310714Y-64492214D01*
X34686218Y-64592830D01*
X34890236Y-64625143D01*
X35066934Y-64653130D01*
X35066942Y-64653131D01*
X35070182Y-64653644D01*
X35458400Y-64673990D01*
X35846618Y-64653644D01*
X35849858Y-64653131D01*
X35849866Y-64653130D01*
X36026564Y-64625143D01*
X36230582Y-64592830D01*
X36606086Y-64492214D01*
X36969016Y-64352899D01*
X37315395Y-64176410D01*
X37641429Y-63964681D01*
X37794951Y-63840361D01*
X37940982Y-63722107D01*
X37940986Y-63722104D01*
X37943544Y-63720032D01*
X38218432Y-63445144D01*
X38287995Y-63359242D01*
X38457857Y-63149480D01*
X38463081Y-63143029D01*
X38674810Y-62816995D01*
X38851299Y-62470616D01*
X38959536Y-62188647D01*
X38989428Y-62110776D01*
X38989429Y-62110774D01*
X38990614Y-62107686D01*
X39091230Y-61732182D01*
X39141844Y-61412617D01*
X39151530Y-61351466D01*
X39151531Y-61351458D01*
X39152044Y-61348218D01*
X39172390Y-60960000D01*
X39152044Y-60571782D01*
X39151530Y-60568533D01*
X39119338Y-60365283D01*
X39091230Y-60187818D01*
X38990614Y-59812314D01*
X38851299Y-59449384D01*
X38674810Y-59103005D01*
X38463081Y-58776971D01*
X38387134Y-58683185D01*
X38220507Y-58477418D01*
X38220504Y-58477414D01*
X38218432Y-58474856D01*
X37943544Y-58199968D01*
X37854320Y-58127715D01*
X37693661Y-57997616D01*
X37641429Y-57955319D01*
X37315395Y-57743590D01*
X36969016Y-57567101D01*
X36728865Y-57474916D01*
X36609176Y-57428972D01*
X36609174Y-57428971D01*
X36606086Y-57427786D01*
X36230582Y-57327170D01*
X36026564Y-57294857D01*
X35849866Y-57266870D01*
X35849858Y-57266869D01*
X35846618Y-57266356D01*
X35458400Y-57246010D01*
X35070182Y-57266356D01*
X35066942Y-57266869D01*
X35066934Y-57266870D01*
X34890236Y-57294857D01*
X34686218Y-57327170D01*
X34310714Y-57427786D01*
X34307626Y-57428971D01*
X34307624Y-57428972D01*
X34187935Y-57474916D01*
X33947784Y-57567101D01*
X33601405Y-57743590D01*
X33275371Y-57955319D01*
X33223139Y-57997616D01*
X33062481Y-58127715D01*
X32973256Y-58199968D01*
X32698368Y-58474856D01*
X32696296Y-58477414D01*
X32696293Y-58477418D01*
X32529666Y-58683185D01*
X32453719Y-58776971D01*
X32241990Y-59103005D01*
X32065501Y-59449384D01*
X31926186Y-59812314D01*
X31825570Y-60187818D01*
X31764756Y-60571782D01*
X31745887Y-60931811D01*
X31744410Y-60960000D01*
X27843531Y-60960000D01*
X27841689Y-60766572D01*
X27841921Y-60757634D01*
X27874588Y-60226728D01*
X27875453Y-60217828D01*
X27945692Y-59690553D01*
X27947187Y-59681738D01*
X27997809Y-59436305D01*
X28054636Y-59160792D01*
X28056745Y-59152133D01*
X28200877Y-58640089D01*
X28203604Y-58631573D01*
X28310330Y-58334930D01*
X28383676Y-58131066D01*
X28386997Y-58122772D01*
X28442340Y-57997616D01*
X28591221Y-57660923D01*
X28602114Y-57636288D01*
X28606018Y-57628244D01*
X28855091Y-57158244D01*
X28859556Y-57150497D01*
X29141324Y-56699358D01*
X29146326Y-56691947D01*
X29459396Y-56261902D01*
X29464912Y-56254865D01*
X29807675Y-55848125D01*
X29813675Y-55841497D01*
X29987506Y-55662665D01*
X30184435Y-55460071D01*
X30190869Y-55453906D01*
X30587764Y-55099718D01*
X30594610Y-55094031D01*
X31015615Y-54768889D01*
X31022876Y-54763682D01*
X31313904Y-54570233D01*
X31465868Y-54469221D01*
X31473471Y-54464548D01*
X31798591Y-54280262D01*
X31936216Y-54202253D01*
X31944146Y-54198122D01*
X32344565Y-54007312D01*
X32424352Y-53969291D01*
X32432538Y-53965742D01*
X32927757Y-53771545D01*
X32936160Y-53768590D01*
X33298370Y-53655458D01*
X33443907Y-53610001D01*
X33452531Y-53607640D01*
X33970216Y-53485465D01*
X33978985Y-53483721D01*
X34504053Y-53398562D01*
X34512922Y-53397445D01*
X34847188Y-53367345D01*
X35042682Y-53349741D01*
X35051609Y-53349255D01*
X35185654Y-53346730D01*
X35583446Y-53339238D01*
X35592374Y-53339387D01*
G37*
G04 #@! TD.AperFunction*
M02*
