G04 #@! TF.GenerationSoftware,KiCad,Pcbnew,(6.0.6)*
G04 #@! TF.CreationDate,2022-11-08T17:01:44-05:00*
G04 #@! TF.ProjectId,pov_display,706f765f-6469-4737-906c-61792e6b6963,v01*
G04 #@! TF.SameCoordinates,Original*
G04 #@! TF.FileFunction,Paste,Top*
G04 #@! TF.FilePolarity,Positive*
%FSLAX46Y46*%
G04 Gerber Fmt 4.6, Leading zero omitted, Abs format (unit mm)*
G04 Created by KiCad (PCBNEW (6.0.6)) date 2022-11-08 17:01:44*
%MOMM*%
%LPD*%
G01*
G04 APERTURE LIST*
%ADD10R,2.000000X1.100000*%
G04 APERTURE END LIST*
D10*
X353200000Y-59260000D03*
X353200000Y-60960000D03*
X353200000Y-62660000D03*
X358000000Y-62660000D03*
X358000000Y-60960000D03*
X358000000Y-59260000D03*
X345720000Y-59260000D03*
X345720000Y-60960000D03*
X345720000Y-62660000D03*
X350520000Y-62660000D03*
X350520000Y-60960000D03*
X350520000Y-59260000D03*
X337960000Y-59260000D03*
X337960000Y-60960000D03*
X337960000Y-62660000D03*
X342760000Y-62660000D03*
X342760000Y-60960000D03*
X342760000Y-59260000D03*
X330340000Y-59260000D03*
X330340000Y-60960000D03*
X330340000Y-62660000D03*
X335140000Y-62660000D03*
X335140000Y-60960000D03*
X335140000Y-59260000D03*
X322720000Y-59260000D03*
X322720000Y-60960000D03*
X322720000Y-62660000D03*
X327520000Y-62660000D03*
X327520000Y-60960000D03*
X327520000Y-59260000D03*
X315100000Y-59260000D03*
X315100000Y-60960000D03*
X315100000Y-62660000D03*
X319900000Y-62660000D03*
X319900000Y-60960000D03*
X319900000Y-59260000D03*
X307480000Y-59260000D03*
X307480000Y-60960000D03*
X307480000Y-62660000D03*
X312280000Y-62660000D03*
X312280000Y-60960000D03*
X312280000Y-59260000D03*
X299860000Y-59260000D03*
X299860000Y-60960000D03*
X299860000Y-62660000D03*
X304660000Y-62660000D03*
X304660000Y-60960000D03*
X304660000Y-59260000D03*
X292240000Y-59260000D03*
X292240000Y-60960000D03*
X292240000Y-62660000D03*
X297040000Y-62660000D03*
X297040000Y-60960000D03*
X297040000Y-59260000D03*
X284620000Y-59260000D03*
X284620000Y-60960000D03*
X284620000Y-62660000D03*
X289420000Y-62660000D03*
X289420000Y-60960000D03*
X289420000Y-59260000D03*
X277000000Y-59260000D03*
X277000000Y-60960000D03*
X277000000Y-62660000D03*
X281800000Y-62660000D03*
X281800000Y-60960000D03*
X281800000Y-59260000D03*
X269380000Y-59260000D03*
X269380000Y-60960000D03*
X269380000Y-62660000D03*
X274180000Y-62660000D03*
X274180000Y-60960000D03*
X274180000Y-59260000D03*
X261760000Y-59260000D03*
X261760000Y-60960000D03*
X261760000Y-62660000D03*
X266560000Y-62660000D03*
X266560000Y-60960000D03*
X266560000Y-59260000D03*
X254140000Y-59260000D03*
X254140000Y-60960000D03*
X254140000Y-62660000D03*
X258940000Y-62660000D03*
X258940000Y-60960000D03*
X258940000Y-59260000D03*
X246520000Y-59260000D03*
X246520000Y-60960000D03*
X246520000Y-62660000D03*
X251320000Y-62660000D03*
X251320000Y-60960000D03*
X251320000Y-59260000D03*
X238900000Y-59260000D03*
X238900000Y-60960000D03*
X238900000Y-62660000D03*
X243700000Y-62660000D03*
X243700000Y-60960000D03*
X243700000Y-59260000D03*
X231280000Y-59260000D03*
X231280000Y-60960000D03*
X231280000Y-62660000D03*
X236080000Y-62660000D03*
X236080000Y-60960000D03*
X236080000Y-59260000D03*
X223660000Y-59260000D03*
X223660000Y-60960000D03*
X223660000Y-62660000D03*
X228460000Y-62660000D03*
X228460000Y-60960000D03*
X228460000Y-59260000D03*
X216040000Y-59260000D03*
X216040000Y-60960000D03*
X216040000Y-62660000D03*
X220840000Y-62660000D03*
X220840000Y-60960000D03*
X220840000Y-59260000D03*
X208420000Y-59260000D03*
X208420000Y-60960000D03*
X208420000Y-62660000D03*
X213220000Y-62660000D03*
X213220000Y-60960000D03*
X213220000Y-59260000D03*
X200800000Y-59260000D03*
X200800000Y-60960000D03*
X200800000Y-62660000D03*
X205600000Y-62660000D03*
X205600000Y-60960000D03*
X205600000Y-59260000D03*
X193180000Y-59260000D03*
X193180000Y-60960000D03*
X193180000Y-62660000D03*
X197980000Y-62660000D03*
X197980000Y-60960000D03*
X197980000Y-59260000D03*
X185560000Y-59260000D03*
X185560000Y-60960000D03*
X185560000Y-62660000D03*
X190360000Y-62660000D03*
X190360000Y-60960000D03*
X190360000Y-59260000D03*
X177940000Y-59260000D03*
X177940000Y-60960000D03*
X177940000Y-62660000D03*
X182740000Y-62660000D03*
X182740000Y-60960000D03*
X182740000Y-59260000D03*
X170320000Y-59260000D03*
X170320000Y-60960000D03*
X170320000Y-62660000D03*
X175120000Y-62660000D03*
X175120000Y-60960000D03*
X175120000Y-59260000D03*
X162700000Y-59260000D03*
X162700000Y-60960000D03*
X162700000Y-62660000D03*
X167500000Y-62660000D03*
X167500000Y-60960000D03*
X167500000Y-59260000D03*
X155080000Y-59260000D03*
X155080000Y-60960000D03*
X155080000Y-62660000D03*
X159880000Y-62660000D03*
X159880000Y-60960000D03*
X159880000Y-59260000D03*
X147460000Y-59260000D03*
X147460000Y-60960000D03*
X147460000Y-62660000D03*
X152260000Y-62660000D03*
X152260000Y-60960000D03*
X152260000Y-59260000D03*
X139840000Y-59260000D03*
X139840000Y-60960000D03*
X139840000Y-62660000D03*
X144640000Y-62660000D03*
X144640000Y-60960000D03*
X144640000Y-59260000D03*
X137020000Y-59260000D03*
X137020000Y-60960000D03*
X137020000Y-62660000D03*
X132220000Y-62660000D03*
X132220000Y-60960000D03*
X132220000Y-59260000D03*
X124600000Y-59260000D03*
X124600000Y-60960000D03*
X124600000Y-62660000D03*
X129400000Y-62660000D03*
X129400000Y-60960000D03*
X129400000Y-59260000D03*
X116980000Y-59260000D03*
X116980000Y-60960000D03*
X116980000Y-62660000D03*
X121780000Y-62660000D03*
X121780000Y-60960000D03*
X121780000Y-59260000D03*
X109360000Y-59260000D03*
X109360000Y-60960000D03*
X109360000Y-62660000D03*
X114160000Y-62660000D03*
X114160000Y-60960000D03*
X114160000Y-59260000D03*
X101740000Y-59260000D03*
X101740000Y-60960000D03*
X101740000Y-62660000D03*
X106540000Y-62660000D03*
X106540000Y-60960000D03*
X106540000Y-59260000D03*
X94120000Y-59260000D03*
X94120000Y-60960000D03*
X94120000Y-62660000D03*
X98920000Y-62660000D03*
X98920000Y-60960000D03*
X98920000Y-59260000D03*
X86500000Y-59260000D03*
X86500000Y-60960000D03*
X86500000Y-62660000D03*
X91300000Y-62660000D03*
X91300000Y-60960000D03*
X91300000Y-59260000D03*
X78880000Y-59260000D03*
X78880000Y-60960000D03*
X78880000Y-62660000D03*
X83680000Y-62660000D03*
X83680000Y-60960000D03*
X83680000Y-59260000D03*
X71260000Y-59260000D03*
X71260000Y-60960000D03*
X71260000Y-62660000D03*
X76060000Y-62660000D03*
X76060000Y-60960000D03*
X76060000Y-59260000D03*
X63640000Y-59260000D03*
X63640000Y-60960000D03*
X63640000Y-62660000D03*
X68440000Y-62660000D03*
X68440000Y-60960000D03*
X68440000Y-59260000D03*
X60820000Y-59260000D03*
X60820000Y-60960000D03*
X60820000Y-62660000D03*
X56020000Y-62660000D03*
X56020000Y-60960000D03*
X56020000Y-59260000D03*
M02*
