M48
; DRILL file {KiCad (6.0.6)} date Tue Nov  8 17:00:44 2022
; FORMAT={-:-/ absolute / metric / decimal}
; #@! TF.CreationDate,2022-11-08T17:00:44-05:00
; #@! TF.GenerationSoftware,Kicad,Pcbnew,(6.0.6)
; #@! TF.FileFunction,Plated,1,2,PTH
FMAT,2
METRIC
; #@! TA.AperFunction,Plated,PTH,ComponentDrill
T1C0.762
; #@! TA.AperFunction,Plated,PTH,ComponentDrill
T2C0.800
; #@! TA.AperFunction,Plated,PTH,ComponentDrill
T3C1.000
; #@! TA.AperFunction,Plated,PTH,ComponentDrill
T4C1.020
; #@! TA.AperFunction,Plated,PTH,ComponentDrill
T5C1.100
; #@! TA.AperFunction,Plated,PTH,ComponentDrill
T6C1.300
%
G90
G05
T1
X28.702Y-106.172
X28.702Y-108.712
X28.702Y-111.252
X28.702Y-113.792
X28.702Y-116.332
X28.702Y-118.872
X28.702Y-121.412
X36.322Y-106.172
X36.322Y-108.712
X36.322Y-111.252
X36.322Y-113.792
X36.322Y-116.332
X36.322Y-118.872
X36.322Y-121.412
T2
X72.644Y-152.654
X72.724Y-114.554
X75.184Y-152.654
X77.724Y-114.554
X77.724Y-152.654
T3
X32.004Y-128.534
X32.004Y-131.074
X32.004Y-133.614
X32.004Y-136.154
X48.768Y-57.16
X48.768Y-59.7
X48.768Y-62.24
X48.768Y-64.78
T4
X45.466Y-104.394
X45.466Y-106.934
X45.466Y-109.474
X45.466Y-112.014
X45.466Y-114.554
X45.466Y-117.094
X45.466Y-119.634
X45.466Y-122.174
X45.466Y-124.714
X45.466Y-127.254
X45.466Y-129.794
X45.466Y-132.334
X45.466Y-134.874
X45.466Y-137.414
X45.466Y-139.954
X45.466Y-142.494
X45.466Y-145.034
X45.466Y-147.574
X45.466Y-150.114
X45.466Y-152.654
X51.816Y-152.424
X54.356Y-152.424
X56.896Y-152.424
X63.246Y-104.394
X63.246Y-106.934
X63.246Y-109.474
X63.246Y-112.014
X63.246Y-114.554
X63.246Y-117.094
X63.246Y-119.634
X63.246Y-122.174
X63.246Y-124.714
X63.246Y-127.254
X63.246Y-129.794
X63.246Y-132.334
X63.246Y-134.874
X63.246Y-137.414
X63.246Y-139.954
X63.246Y-142.494
X63.246Y-145.034
X63.246Y-147.574
X63.246Y-150.114
X63.246Y-152.654
T5
X31.294Y-147.864
X31.294Y-152.364
X37.794Y-147.864
X37.794Y-152.364
T6
X72.724Y-106.934
X74.676Y-120.904
X77.724Y-106.934
X78.486Y-120.904
T0
M30
